<svg width="201" height="80" xmlns="http://www.w3.org/2000/svg"><g fill="none" fill-rule="evenodd"><path d="M193.415 17.109c7.371 0 7.579 5.247 7.585 10.887v.978c-.006 5.586-.214 10.89-7.585 10.89-7.371 0-7.579-5.304-7.585-10.89v-.978c.006-5.64.214-10.887 7.585-10.887Zm-17.384 0c3.38 0 5.546 2.077 5.546 5.955 0 2.902-1.18 5.078-4.402 5.581v.064c1.088.127 4.307.376 4.307 4.472 0 1.455.095 5.737.556 6.682h-4.863c-.653-1.386-.52-2.929-.52-4.407 0-2.71.263-5.01-3.55-5.01h-1.28v9.417h-4.957V17.11Zm-27.959 0 3.672 15.477 3.829-15.477h7.502v22.754h-4.694l-.064-17.553-4.436 17.553h-4.595L145.01 22.31v17.553h-4.69V17.11h7.752Zm-17.79 0 6.246 22.754h-5.067l-1.273-5.04h-6.567l-1.304 5.04h-4.751l6.377-22.754h6.34Zm-36.597 0 6.083 15.76h.06v-15.76h4.464v22.754h-6.301l-6.24-16.64h-.059v16.64h-4.466V17.11h6.46Zm-17.123 0c3.559 0 6.504 1.039 6.504 5.893 0 2.615-1.27 4.506-3.813 5.074 3.313.473 4.181 2.65 4.181 5.772 0 5.764-4.923 6.015-6.905 6.015h-8.265V17.11Zm-18.338 0 6.248 22.754h-5.065l-1.277-5.04h-6.563l-1.31 5.04H45.51l6.375-22.754h6.34ZM75.66 29.905h-2.724v6.464h2.685c1.024-.004 3.138-.116 3.138-3.213 0-2.019-.742-3.251-3.099-3.251ZM193.416 20.9c-3.362 0-3.793 2.291-3.793 7.588v.314c.018 5.069.498 7.268 3.793 7.268 3.36 0 3.792-2.29 3.792-7.582 0-5.297-.432-7.588-3.792-7.588Zm-66.574.589h-.064l-2.203 9.833h4.59l-2.323-9.833Zm-72.06 0h-.063l-2.198 9.833h4.591l-2.33-9.833Zm56.143 3.204 2.849 2.84-2.85 2.848-2.84-2.848 2.84-2.84Zm63.105-4.09h-2.205v6.34h2.205c1.963 0 2.524-1.895 2.524-3.344 0-2.173-.952-2.995-2.524-2.995Zm-98.213 0h-2.881v5.803h3.128c1.026 0 2.447-.693 2.447-2.902 0-1.669-1.114-2.901-2.694-2.901Z" fill="#FFF"/><path fill="#F6BF37" d="m17.446 26.176 18.582 19.802-18.212 18.57z"/><path fill="#178C82" d="M17.968 64.514 0 46.066V15.213h36.028v30.76L17.968 27.42v37.094"/></g></svg>