<svg xmlns="http://www.w3.org/2000/svg" width="51" height="32"><g fill="none" fill-rule="evenodd"><path fill="#FFF" stroke="#D0D0D0" d="M.5.5h50v31H.5z"/><path fill="#238EC2" d="M33.915 10.22c.29-1.844-.002-3.098-1-4.235-1.099-1.25-3.084-1.787-5.623-1.787h-7.373c-.519 0-.96.378-1.041.89l-3.07 19.452c-.06.384.236.731.625.731h4.551l-.314 1.99a.553.553 0 0 0 .547.64h3.836c.454 0 .84-.33.911-.778l.038-.195.723-4.58.046-.252a.922.922 0 0 1 .912-.779h.573c3.717 0 6.627-1.509 7.477-5.872.355-1.823.172-3.345-.768-4.415a3.657 3.657 0 0 0-1.05-.81"/><path fill="#20274F" d="M33.915 10.22c.29-1.844-.002-3.098-1-4.235-1.099-1.25-3.084-1.787-5.623-1.787h-7.373c-.519 0-.96.378-1.041.89l-3.07 19.452c-.06.384.236.731.625.731h4.551l1.143-7.244-.035.227c.08-.512.52-.89 1.038-.89h2.163c4.248 0 7.575-1.725 8.547-6.712.028-.148.053-.291.075-.432"/><path fill="#253667" d="M23.355 10.245a.923.923 0 0 1 .912-.779h5.779c.684 0 1.323.045 1.906.139a8.37 8.37 0 0 1 .946.21 5.782 5.782 0 0 1 1.017.405c.29-1.844-.002-3.098-1-4.235-1.099-1.25-3.084-1.787-5.623-1.787h-7.373c-.519 0-.96.378-1.041.89l-3.07 19.452c-.06.384.236.731.625.731h4.551l2.371-15.026"/></g></svg>