<svg xmlns="http://www.w3.org/2000/svg" width="640" height="360"><g fill="none" fill-rule="evenodd"><path fill="#238EC2" d="M407.517 150.163c-2.036 13.656-12.244 13.656-22.118 13.656h-5.618l3.94-25.496c.238-1.54 1.539-2.676 3.067-2.676h2.575c6.72 0 13.07 0 16.343 3.912 1.958 2.34 2.55 5.81 1.81 10.604m-4.298-35.626H365.98c-2.545 0-4.712 1.892-5.109 4.462l-15.057 97.548c-.298 1.923 1.158 3.664 3.066 3.664h19.105c1.783 0 3.3-1.325 3.577-3.124l4.27-27.654c.397-2.57 2.565-4.462 5.11-4.462h11.784c24.527 0 38.682-12.128 42.383-36.162 1.665-10.512.067-18.772-4.752-24.554-5.295-6.357-14.68-9.718-27.138-9.718"/><path fill="#253667" d="M141.927 150.163c-2.035 13.656-12.244 13.656-22.116 13.656h-5.618l3.94-25.496c.239-1.54 1.539-2.676 3.065-2.676h2.576c6.721 0 13.07 0 16.342 3.912 1.96 2.34 2.552 5.81 1.811 10.604m-4.296-35.626h-37.238c-2.546 0-4.713 1.892-5.11 4.462l-15.059 97.548c-.296 1.923 1.16 3.664 3.066 3.664h17.78c2.546 0 4.715-1.893 5.111-4.461l4.064-26.317c.395-2.57 2.564-4.462 5.11-4.462h11.783c24.526 0 38.683-12.128 42.383-36.162 1.665-10.512.067-18.772-4.751-24.554-5.297-6.357-14.683-9.718-27.139-9.718m86.448 70.646c-1.722 10.409-9.81 17.396-20.126 17.396-5.172 0-9.312-1.7-11.973-4.917-2.638-3.19-3.63-7.735-2.795-12.796 1.607-10.315 9.824-17.528 19.982-17.528 5.065 0 9.175 1.716 11.89 4.963 2.73 3.27 3.803 7.846 3.022 12.882m24.849-35.456h-17.83c-1.528 0-2.828 1.134-3.066 2.678l-.785 5.093L226 155.65c-3.86-5.726-12.466-7.639-21.06-7.639-19.7 0-36.527 15.251-39.802 36.642-1.706 10.67.714 20.868 6.637 27.986 5.44 6.54 13.206 9.262 22.458 9.262 15.878 0 24.685-10.421 24.685-10.421l-.797 5.062c-.298 1.925 1.158 3.668 3.066 3.668h16.058c2.545 0 4.713-1.891 5.11-4.461l9.639-62.359c.298-1.925-1.158-3.664-3.066-3.664"/><path fill="#238EC2" d="M489.667 185.183c-1.722 10.409-9.809 17.396-20.125 17.396-5.173 0-9.312-1.7-11.974-4.917-2.638-3.19-3.63-7.735-2.793-12.796 1.605-10.315 9.822-17.528 19.982-17.528 5.062 0 9.174 1.716 11.887 4.963 2.732 3.27 3.804 7.846 3.023 12.882m24.849-35.456h-17.83c-1.528 0-2.829 1.134-3.066 2.678l-.785 5.093-1.245-1.847c-3.863-5.726-12.468-7.639-21.062-7.639-19.698 0-36.527 15.251-39.803 36.642-1.703 10.67.717 20.868 6.638 27.986 5.442 6.54 13.206 9.262 22.457 9.262 15.88 0 24.685-10.421 24.685-10.421l-.794 5.062c-.3 1.925 1.156 3.668 3.065 3.668h16.057c2.545 0 4.712-1.891 5.11-4.461l9.639-62.359c.298-1.925-1.158-3.664-3.066-3.664"/><path fill="#253667" d="M343.894 149.727h-17.922a5.14 5.14 0 0 0-4.28 2.317l-24.721 37.2-10.478-35.747c-.655-2.236-2.67-3.77-4.956-3.77H263.92c-2.127 0-3.625 2.137-2.939 4.194l19.735 59.179-18.562 26.758c-1.458 2.1.014 5.004 2.532 5.004h17.906c1.697 0 3.285-.85 4.252-2.276l59.603-87.88c1.425-2.103-.047-4.979-2.553-4.979"/><path fill="#238EC2" d="m535.532 117.216-15.283 99.33c-.296 1.926 1.16 3.665 3.066 3.665h15.372c2.546 0 4.713-1.893 5.11-4.461l15.068-97.548c.298-1.925-1.158-3.665-3.066-3.665h-17.2c-1.529 0-2.829 1.137-3.067 2.679"/></g></svg>