<svg xmlns="http://www.w3.org/2000/svg" width="640" height="360" fill="none"><path d="M0 28v28h90V28zm45.81 10.25v1.48h-4.994v1.506h4.288v1.48h-4.288v1.554h4.99v1.48h-6.69v-7.494zm22.045 0v1.48h-2.74v6.02H63.42v-6.017h-2.743v-1.48zm-54.158.002h5.701v1.72h-5.701v5.775H12V39.97h1.697zm8.596.001h1.697v7.494h-1.697zm47.774 0h2.121l1.893 2.546 1.879-2.546H78l-3.111 4.132v3.362h-1.712v-3.362zm-42.495.001h1.84l2.199 5.542 2.183-5.54 1.763-.002-3.122 7.494h-1.74zm22.92.002h4.406c1.718 0 2.643.826 2.643 2.37 0 1.19-.545 1.95-1.588 2.236L57.9 45.75l-2.003-.003-1.838-2.756h-1.872v2.759h-1.696zm1.696 1.477v1.784h2.525c.75 0 1.099-.286 1.099-.892 0-.605-.349-.892-1.1-.892z" style="display:inline;fill:#fff" transform="matrix(5.14286 0 0 5.14286 88.571 36)"/><path fill="#fff" d="M51.819 13.255c-.03-.13-.07-.239-.097-.337l-.03-.09c-.508-1.431-1.68-2.273-3.124-2.265-.254 0-.47.02-.693.07-1.154.258-2.52 1.103-2.52 3.654v4.034c0 .289.069.457.138.595a.72.72 0 0 0 .439.348c.05.01.107.02.165.02.147 0 .285-.04.4-.13.304-.208.304-.567.304-.864v-4.003c0-1.35.42-2.006 1.397-2.206.654-.148 1.3.07 1.7.556.196.239.312.466.361.665.147.716.224.935.323 1.072l.03.04a.76.76 0 0 0 .909.16c.444-.247.394-.834.298-1.32M16.786 8.09a4 4 0 0 0-1.612 0C13.25 8.486 12 10.035 12 12.042v6.287c0 .258.03.438.108.586l.01.012a.72.72 0 0 0 .44.348c.196.05.4.01.565-.11.323-.219.362-.595.362-.864v-2.532h5.001v2.551c0 .31.088.486.138.595a.72.72 0 0 0 .439.348c.05.012.108.02.165.02a.64.64 0 0 0 .4-.129c.293-.2.332-.528.332-.864v-6.256c-.011-2.007-1.25-3.548-3.174-3.944m1.689 6.268h-4.982v-2.305c0-.993.342-1.69 1.093-2.183.527-.376 1.22-.517 1.904-.388.332.06.624.188.878.376l.011.012c.743.505 1.093 1.2 1.093 2.183v2.304zM44.29 13.9c-.625-2.374-3.01-3.744-5.43-3.13-1.239.318-2.246 1.084-2.831 2.156-.586 1.072-.693 2.355-.304 3.607.585 1.838 2.255 2.989 4.16 2.989.342 0 .703-.04 1.054-.118a4.6 4.6 0 0 0 1.534-.657c.35-.238.646-.497.8-.696.243-.297.392-.536.362-.814a.7.7 0 0 0-.265-.477.7.7 0 0 0-.546-.13l-.03.012a1.1 1.1 0 0 0-.45.258l-.128.16-.184.169-.011.01c-.412.42-.909.705-1.447.815-1.454.337-2.89-.447-3.417-1.858a7 7 0 0 1-.096-.329h6.386l.138-.02.216-.01c.234-.02.41-.11.527-.278.215-.309.204-.766-.039-1.659m-7.249.615c.02-.13.058-.239.097-.368.497-1.608 2.09-2.473 3.693-1.995a3 3 0 0 1 2.042 2.175c.02.078.039.16.05.238zM34.745 15.856a.7.7 0 0 0-.411-.356.73.73 0 0 0-.558.059c-.342.168-.41.547-.43.676l-.058.317-.011.098c-.224.983-1.005 1.519-2.001 1.37-.646-.098-1.504-.446-1.504-2.254v-.118h1.954c.234 0 .946 0 .946-.715 0-.357-.265-.657-.576-.677-.147-.02-.274-.02-.42-.02h-1.904v-2.75c0-.258-.03-.438-.108-.586v-.012a.72.72 0 0 0-.439-.348.67.67 0 0 0-.566.11c-.292.2-.33.528-.33.864v4.1c0 2.336.83 3.506 2.696 3.815q.322.06.646.059c1.465 0 2.696-.923 3.085-2.394.03-.118.05-.227.07-.337v-.006c.057-.429.038-.667-.08-.895M70.336 14.616a4 4 0 0 0-.158-.963 4.2 4.2 0 0 0-2-2.523 4.47 4.47 0 0 0-3.487-.357 4.38 4.38 0 0 0-3.047 3.338c-.477 2.402.85 4.647 3.086 5.234.411.11.83.16 1.24.16a4.3 4.3 0 0 0 1.777-.376c.45-.208.85-.486 1.162-.825v.02c0 .269 0 .426.077.586l.01.011a.72.72 0 0 0 .44.348c.196.05.4.011.566-.11.303-.207.35-.555.35-.864v-3.51zM66.661 18c-1.612.376-3.105-.517-3.536-2.125v-.011a2.8 2.8 0 0 1-.116-.626c-.088-1.42.751-2.7 2.051-3.11.312-.098.635-.149.947-.149.604 0 1.181.18 1.68.536.751.536 1.201 1.41 1.232 2.394.058 1.522-.842 2.765-2.258 3.09M60.314 9.37A3.74 3.74 0 0 0 57.336 8c-2.197.031-3.682 1.648-3.682 4.034v6.286c0 .29.069.458.138.595a.72.72 0 0 0 .439.349c.05.01.108.02.165.02a.64.64 0 0 0 .4-.13c.304-.208.343-.556.343-.864v-2.852h2.139c2.02 0 3.397-1.072 3.778-2.938.227-1.123-.038-2.254-.742-3.13m-3.047 4.648h-.03l-2.082-.03v-2.086c0-.935.138-1.37.577-1.827.43-.458.997-.677 1.67-.666 1.32.031 2.236.994 2.227 2.344-.027 1.342-.993 2.265-2.362 2.265M78.08 11.158a.72.72 0 0 0-.44-.348.67.67 0 0 0-.565.11c-.292.199-.323.535-.323.864v4.002c0 .786-.234 1.42-.654 1.796-.37.329-.87.458-1.446.376-.996-.14-1.543-.864-1.543-2.046v-4.148c0-.247-.02-.426-.097-.595a.72.72 0 0 0-.438-.348.67.67 0 0 0-.566.11c-.304.207-.35.555-.35.864v4.151c0 1.659.742 2.83 2.1 3.306 1.046.368 2.188.188 2.978-.407v.031c-.127.873-.566 1.4-1.347 1.608-.42.118-.85.09-1.181-.078q-.412-.212-.586-.466l-.215-.278-.138-.16a1 1 0 0 0-.196-.208l-.038-.039-.04-.02a.68.68 0 0 0-.645-.03.72.72 0 0 0-.411.527c-.05.317.077.587.303.935l.011.011c.166.239.392.477.635.676.527.427 1.22.646 1.954.646q.467 0 .939-.118c1.573-.407 2.442-1.69 2.442-3.606v-6.512c.011-.308-.077-.477-.127-.586zM27.362 12.918l-.03-.09c-.508-1.431-1.68-2.273-3.124-2.265-.265 0-.47.02-.693.07-1.154.258-2.52 1.103-2.52 3.654v4.034c0 .308.088.485.138.586v.011a.72.72 0 0 0 .439.348q.077.019.166.02a.64.64 0 0 0 .4-.129c.292-.2.331-.536.331-.865v-.954l-.03-1.678h2.08c.685 0 .85-.357.87-.665a.7.7 0 0 0-.166-.506q-.219-.239-.703-.238h-2.09c.011-1.31.43-1.956 1.397-2.164.654-.149 1.3.07 1.7.556.196.247.312.466.362.665.146.716.223.934.322 1.072l.03.04a.76.76 0 0 0 .909.16c.458-.248.411-.834.312-1.323a2.4 2.4 0 0 0-.1-.34M80.688 8.666a1.03 1.03 0 0 0-.762-.317c-.292 0-.546.098-.762.317a1.1 1.1 0 0 0-.312.774c0 .298.108.556.312.775a1 1 0 0 0 .762.328q.44 0 .762-.328c.204-.219.312-.477.312-.775 0-.308-.097-.567-.312-.774m-.119 1.44a.87.87 0 0 1-.654.277.88.88 0 0 1-.654-.277.93.93 0 0 1-.273-.677.943.943 0 0 1 .927-.943c.254 0 .47.09.654.278.185.18.273.407.273.665a.95.95 0 0 1-.273.677" style="fill:#fff" transform="matrix(5.14286 0 0 5.14286 88.571 36)"/><path fill="#fff" d="M80.404 9.174c0-.16-.07-.259-.185-.31-.069-.03-.177-.038-.323-.038h-.411v1.2h.215V9.55h.166c.116 0 .185.01.234.039q.106.073.108.278v.159h.196l-.011-.01c-.011-.012-.011-.031-.011-.06v-.179c0-.059-.03-.13-.07-.188a.36.36 0 0 0-.203-.118.4.4 0 0 0 .176-.059q.12-.075.119-.238m-.331.207a.5.5 0 0 1-.196.031h-.185v-.438h.177a.5.5 0 0 1 .253.05c.058.032.078.09.078.17 0 .09-.05.156-.127.187" style="fill:#fff" transform="matrix(5.14286 0 0 5.14286 88.571 36)"/></svg>