<svg width="51" height="32" xmlns="http://www.w3.org/2000/svg"><path fill="#282828" d="M0 0h51v32H0z"/><path fill="#255a57" d="M0 0h51v16H0z"/><path d="M29.153 8.1c-.016-.068-.037-.127-.052-.18l-.016-.048c-.272-.767-.9-1.218-1.674-1.213-.136 0-.251.01-.37.037-.619.139-1.35.591-1.35 1.958v2.16a.65.65 0 00.073.32c.047.09.136.159.235.186.027.006.058.01.089.01a.342.342 0 00.214-.069c.163-.111.163-.304.163-.463V8.654c0-.723.225-1.075.748-1.182.35-.08.696.038.91.298.106.128.168.25.195.356.078.384.12.5.173.575l.016.02c.115.133.32.17.486.086.238-.132.212-.446.16-.706zM10.385 5.334a2.141 2.141 0 00-.863 0c-1.03.212-1.7 1.042-1.7 2.117v3.368c0 .138.016.235.057.314l.006.006c.047.09.136.16.235.187a.359.359 0 00.303-.059c.173-.117.194-.319.194-.463V9.448h2.68v1.366c0 .166.046.26.073.32.047.09.136.159.235.186.027.006.058.01.089.01a.343.343 0 00.214-.069c.157-.107.178-.283.178-.463V7.447c-.006-1.076-.67-1.9-1.7-2.113zm.905 3.358H8.621V7.457c0-.532.184-.905.586-1.17a1.334 1.334 0 011.02-.207c.177.031.334.1.47.201l.006.006c.398.271.586.644.586 1.17v1.235zM25.12 8.446c-.335-1.272-1.612-2.005-2.91-1.676-.663.17-1.203.58-1.516 1.155-.314.574-.371 1.261-.163 1.932.314.985 1.208 1.601 2.228 1.601a2.475 2.475 0 001.387-.415c.188-.128.346-.266.43-.373.13-.16.209-.287.193-.436a.37.37 0 00-.435-.325l-.016.006a.579.579 0 00-.241.139l-.068.085-.1.09-.005.007c-.22.224-.487.377-.775.436A1.564 1.564 0 0121.247 9.5h3.421l.074-.01.116-.006c.125-.01.22-.059.282-.149.115-.165.11-.41-.02-.889zm-3.884.33c.01-.07.032-.128.052-.197.266-.862 1.12-1.325 1.979-1.07a1.608 1.608 0 011.12 1.294zM20.006 9.494a.373.373 0 00-.22-.19.392.392 0 00-.299.031c-.183.09-.22.293-.23.362l-.031.17-.006.053c-.12.526-.538.813-1.072.734-.346-.053-.806-.24-.806-1.208v-.063h1.047c.125 0 .507 0 .507-.383 0-.191-.142-.352-.31-.363-.078-.01-.145-.01-.224-.01h-1.02V7.153a.665.665 0 00-.058-.314v-.006a.383.383 0 00-.235-.186.358.358 0 00-.303.058c-.157.107-.177.283-.177.463v2.197c0 1.251.445 1.878 1.444 2.043.116.021.23.032.346.032.785 0 1.445-.495 1.653-1.283.016-.063.027-.121.037-.18v-.003c.031-.23.02-.358-.043-.48zM39.073 8.83a2.252 2.252 0 00-1.156-1.867 2.392 2.392 0 00-1.868-.192c-.833.25-1.46.931-1.632 1.788-.256 1.287.455 2.49 1.653 2.804.22.059.445.086.664.086.334 0 .659-.07.952-.201.24-.112.455-.26.622-.443v.011c0 .144 0 .229.042.314l.005.006c.048.09.137.16.236.187a.359.359 0 00.303-.059c.162-.111.187-.298.187-.463v-1.88zm-1.968 1.813c-.864.202-1.664-.277-1.894-1.138v-.006a1.485 1.485 0 01-.063-.335c-.047-.761.403-1.447 1.1-1.666a1.7 1.7 0 01.506-.08c.324 0 .633.096.9.287.403.287.644.755.66 1.283.031.815-.45 1.48-1.21 1.655zM33.704 6.02a2.005 2.005 0 00-1.596-.734c-1.176.017-1.972.883-1.972 2.16v3.369a.65.65 0 00.074.318c.047.09.136.16.235.187.027.006.058.01.089.01a.343.343 0 00.214-.069c.163-.111.184-.298.184-.463V9.27h1.145c1.083 0 1.82-.574 2.025-1.574a2.017 2.017 0 00-.398-1.676zm-1.632 2.49h-.017l-1.115-.017V7.376c0-.5.074-.734.31-.979.23-.245.533-.362.894-.356.707.016 1.198.532 1.193 1.255-.015.719-.532 1.214-1.265 1.214zM43.221 6.977a.383.383 0 00-.235-.186.359.359 0 00-.303.059c-.157.106-.173.287-.173.463v2.144c0 .42-.126.76-.35.962-.198.176-.466.245-.775.202-.534-.076-.827-.464-.827-1.097V7.302a.734.734 0 00-.051-.319.383.383 0 00-.235-.186.358.358 0 00-.304.059c-.162.11-.187.297-.187.463v2.224c0 .888.397 1.515 1.125 1.77.56.198 1.172.101 1.595-.217v.016c-.068.468-.303.75-.721.862a.886.886 0 01-.633-.042.836.836 0 01-.314-.25l-.115-.149-.074-.085a.535.535 0 00-.105-.112l-.02-.02-.021-.011a.367.367 0 00-.346-.017.388.388 0 00-.22.283c-.027.17.04.314.162.5l.006.006c.089.128.21.256.34.363.282.228.654.346 1.047.346.167 0 .334-.021.503-.063.842-.218 1.308-.906 1.308-1.933V7.302c.006-.165-.041-.255-.068-.314zM16.051 7.92l-.016-.048c-.272-.767-.9-1.218-1.674-1.213-.142 0-.251.01-.37.037-.619.139-1.35.591-1.35 1.958v2.16c0 .166.047.26.073.315v.006c.047.09.136.16.235.186a.41.41 0 00.089.01.343.343 0 00.214-.068c.157-.107.178-.288.178-.463v-.512l-.016-.899h1.114c.367 0 .456-.19.466-.356a.369.369 0 00-.089-.27c-.078-.086-.204-.129-.377-.129H13.41c.006-.702.23-1.048.748-1.159.35-.08.697.038.911.298.105.132.167.25.194.356.078.384.12.5.173.575l.016.02c.115.133.32.17.486.086.246-.132.22-.446.168-.708a1.28 1.28 0 00-.054-.182zM44.619 5.642a.552.552 0 00-.409-.17.548.548 0 00-.408.17.591.591 0 00-.167.415c0 .16.058.298.167.415.11.118.246.176.408.176a.554.554 0 00.409-.176.591.591 0 00.167-.415.548.548 0 00-.167-.415zm-.064.772a.464.464 0 01-.35.149.47.47 0 01-.35-.15.5.5 0 01-.147-.362.505.505 0 01.497-.505c.136 0 .25.048.35.149a.48.48 0 01.146.356.509.509 0 01-.146.363z" fill="#fff"/><path d="M44.466 5.914c0-.085-.037-.138-.099-.165a.463.463 0 00-.173-.021h-.22v.643h.115v-.255h.09c.061 0 .098.006.125.021.037.027.057.075.057.149v.085h.105l-.006-.006c-.005-.006-.005-.016-.005-.031v-.096a.2.2 0 00-.037-.101.191.191 0 00-.11-.063.22.22 0 00.095-.032c.043-.027.063-.069.063-.128zm-.177.112a.254.254 0 01-.105.016h-.1v-.234h.096c.062 0 .109.01.136.027.03.016.041.048.041.09a.104.104 0 01-.068.1z" fill="#fff"/><path d="M43.179 21.493l-1.667 2.213v1.801h-.917v-1.8l-1.667-2.214h1.137l1.014 1.363 1.007-1.363zm-9.281 0v.793h1.47v3.223h.908v-3.225h1.468v-.793zm-4.547.793h1.352c.402 0 .589.153.589.478 0 .324-.187.477-.589.477h-1.352zm3.06 3.223l-1.043-1.547c.559-.154.85-.56.85-1.198 0-.827-.495-1.27-1.416-1.27h-2.36v4.015h.909V24.03h1.002l.985 1.476zm-10.063-4.015v4.015h3.584v-.793H23.26v-.832h2.297v-.793h-2.297v-.807h2.675v-.793zm-2.851 0l-1.17 2.968-1.177-2.969h-.987l1.673 4.015h.933l1.672-4.015zm-6.161 4.013h.909v-4.014h-.91zm-5.515 0h.91v-3.094h-.91zm.91-3.093h3.054v-.922H8.73z" fill="#e7e4e2"/><path fill="none" stroke="#d0d0d0" d="M.5.5h50v31H.5z"/></svg>