<svg xmlns="http://www.w3.org/2000/svg" width="640" height="360" fill="none"><path fill="#282828" d="M88.571 36H551.43v288H88.57z"/><path fill="#255a57" d="M88.571 36H551.43v144H88.57z"/><path fill="#fff" d="M355.069 104.167c-.157-.664-.355-1.228-.497-1.733l-.157-.461c-2.611-7.362-8.644-11.692-16.067-11.648-1.306 0-2.413.1-3.563.36-5.933 1.328-12.96 5.673-12.96 18.793v20.742c0 1.487.356 2.353.71 3.06.455.866 1.306 1.53 2.257 1.79.256.058.554.101.852.101.752 0 1.462-.202 2.058-.664 1.561-1.068 1.561-2.916 1.561-4.446v-20.583c0-6.942 2.158-10.32 7.183-11.345 3.364-.765 6.685.36 8.743 2.858 1.008 1.227 1.604 2.396 1.86 3.42.752 3.682 1.15 4.807 1.66 5.515l.157.202c1.107 1.27 3.065 1.63 4.67.822 2.285-1.27 2.03-4.286 1.533-6.783M174.898 77.607a20.6 20.6 0 0 0-8.289 0c-9.893 2.035-16.323 10.003-16.323 20.323v32.333c0 1.328.156 2.251.553 3.016l.057.058c.454.866 1.306 1.53 2.257 1.79a3.44 3.44 0 0 0 2.91-.563c1.66-1.126 1.86-3.06 1.86-4.446v-13.02h25.72v13.121c0 1.588.453 2.498.709 3.06.454.866 1.306 1.53 2.257 1.79.255.058.554.101.851.101.753 0 1.462-.202 2.059-.664 1.504-1.025 1.703-2.713 1.703-4.445V97.887c-.057-10.32-6.43-18.245-16.324-20.28m8.688 32.232h-25.621V97.988c0-5.11 1.76-8.69 5.62-11.23 2.712-1.934 6.274-2.656 9.795-1.992 1.703.304 3.208.968 4.514 1.935l.056.057c3.819 2.599 5.621 6.178 5.621 11.23v11.85zM316.344 107.486c-3.208-12.211-15.471-19.256-27.92-16.094-6.373 1.63-11.554 5.571-14.563 11.085s-3.563 12.11-1.562 18.548c3.01 9.454 11.597 15.372 21.391 15.372 1.76 0 3.62-.202 5.423-.606 2.768-.606 5.478-1.79 7.892-3.378 1.802-1.226 3.321-2.554 4.116-3.58 1.25-1.53 2.015-2.756 1.86-4.185-.1-.967-.597-1.833-1.363-2.454-.81-.606-1.86-.866-2.81-.664l-.157.058c-.95.303-1.703.721-2.314 1.328l-.653.823-.95.865-.057.058c-2.115 2.151-4.67 3.623-7.438 4.186-7.48 1.732-14.862-2.295-17.572-9.555a34 34 0 0 1-.497-1.69h32.845l.71-.1 1.107-.058c1.207-.1 2.115-.563 2.711-1.429 1.107-1.587 1.05-3.94-.199-8.53m-37.274 3.16c.1-.663.298-1.226.497-1.89 2.555-8.27 10.745-12.717 18.992-10.263 5.167 1.53 9.198 5.817 10.504 11.187.099.404.199.823.255 1.227zM267.26 117.546c-.397-.866-1.206-1.53-2.114-1.833-.951-.303-1.96-.159-2.867.303-1.76.866-2.116 2.815-2.215 3.479l-.298 1.631-.057.505c-1.15 5.052-5.166 7.81-10.29 7.044-3.322-.505-7.736-2.295-7.736-11.59v-.607h10.05c1.206 0 4.868 0 4.868-3.68 0-1.834-1.363-3.378-2.967-3.48-.752-.1-1.405-.1-2.157-.1h-9.794V95.072c0-1.327-.157-2.251-.554-3.016v-.058c-.454-.866-1.306-1.53-2.257-1.79a3.44 3.44 0 0 0-2.91.563c-1.504 1.025-1.703 2.714-1.703 4.446v21.088c0 12.01 4.272 18.028 13.868 19.616a18.5 18.5 0 0 0 3.321.303c7.537 0 13.868-4.749 15.87-12.313.155-.605.255-1.168.354-1.732v-.028c.298-2.209.199-3.435-.411-4.605M450.297 111.166c-.1-1.833-.355-3.478-.81-4.95-1.56-5.514-5.223-10.119-10.29-12.977-5.422-3.016-11.81-3.68-17.927-1.833-7.992 2.396-14.01 8.935-15.67 17.162-2.456 12.356 4.371 23.903 15.869 26.92 2.114.563 4.272.822 6.373.822 3.208 0 6.33-.664 9.14-1.933 2.314-1.068 4.372-2.498 5.977-4.244v.1c0 1.387 0 2.195.397 3.017l.057.059c.454.866 1.305 1.53 2.257 1.79a3.44 3.44 0 0 0 2.91-.564c1.561-1.068 1.802-2.858 1.802-4.445v-18.057zm-18.892 17.408c-8.29 1.934-15.969-2.656-18.184-10.927v-.058c-.354-1.068-.496-2.15-.596-3.218-.454-7.304 3.861-13.886 10.547-15.993a16.3 16.3 0 0 1 4.868-.765c3.109 0 6.075.924 8.645 2.757 3.86 2.757 6.174 7.246 6.33 12.312.298 7.823-4.33 14.217-11.61 15.892M398.757 84.19c-3.719-4.547-9.297-7.145-15.316-7.044-11.298.158-18.935 8.472-18.935 20.742v32.332c0 1.487.355 2.353.71 3.06.454.866 1.306 1.53 2.257 1.79.255.058.554.1.851.1.753 0 1.462-.201 2.059-.663 1.56-1.068 1.76-2.858 1.76-4.446v-14.665h11c10.39 0 17.473-5.514 19.432-15.112 1.164-5.774-.198-11.59-3.818-16.094m-15.67 23.903h-.156l-10.703-.16V97.21c0-4.806.71-7.044 2.967-9.396 2.214-2.353 5.124-3.48 8.587-3.421 6.785.158 11.498 5.11 11.455 12.052-.142 6.9-5.11 11.649-12.15 11.649M490.124 93.383c-.454-.866-1.306-1.53-2.257-1.79a3.44 3.44 0 0 0-2.91.564c-1.504 1.025-1.66 2.757-1.66 4.445v20.584c0 4.04-1.206 7.303-3.364 9.237-1.902 1.69-4.471 2.353-7.438 1.934-5.124-.721-7.934-4.445-7.934-10.522V96.502c0-1.27-.1-2.194-.497-3.06-.454-.866-1.306-1.53-2.257-1.79a3.44 3.44 0 0 0-2.91.563c-1.562 1.068-1.803 2.857-1.803 4.446v21.348c0 8.53 3.819 14.549 10.802 17.003 5.38 1.89 11.256.967 15.316-2.093v.159c-.653 4.488-2.91 7.202-6.927 8.27-2.158.607-4.372.462-6.075-.404-1.406-.721-2.413-1.53-3.01-2.396l-1.106-1.43-.71-.821c-.455-.607-.81-.925-1.008-1.069l-.199-.202-.199-.101a3.52 3.52 0 0 0-3.32-.158 3.73 3.73 0 0 0-2.116 2.713c-.255 1.631.397 3.017 1.561 4.806l.057.058c.852 1.227 2.016 2.454 3.265 3.479 2.71 2.194 6.274 3.32 10.05 3.32 1.603 0 3.207-.202 4.826-.606 8.09-2.094 12.562-8.69 12.562-18.548V96.502c.056-1.588-.398-2.454-.653-3.017zM229.292 102.434l-.155-.461c-2.613-7.362-8.645-11.692-16.068-11.648-1.363 0-2.413.1-3.563.36-5.934 1.328-12.96 5.673-12.96 18.793v20.742c0 1.588.454 2.497.71 3.017v.058c.454.866 1.306 1.53 2.257 1.79.255.057.554.1.852.1.752 0 1.461-.201 2.058-.663 1.504-1.025 1.703-2.757 1.703-4.446v-4.908l-.156-8.631h10.702c3.52 0 4.372-1.833 4.471-3.421.058-1.328-.454-2.151-.851-2.599-.752-.822-1.959-1.226-3.62-1.226h-10.745c.057-6.74 2.215-10.061 7.183-11.129 3.364-.765 6.685.36 8.743 2.858 1.008 1.27 1.604 2.396 1.86 3.42.752 3.681 1.15 4.807 1.66 5.515l.157.202c1.107 1.27 3.065 1.63 4.67.822 2.356-1.27 2.115-4.286 1.604-6.798-.157-.678-.313-1.242-.512-1.747M503.538 80.567c-1.05-1.069-2.356-1.631-3.918-1.631-1.504 0-2.81.505-3.917 1.63-1.05 1.126-1.604 2.454-1.604 3.984s.553 2.858 1.604 3.984q1.575 1.69 3.917 1.69 2.257 0 3.918-1.69c1.05-1.126 1.604-2.454 1.604-3.984 0-1.587-.497-2.915-1.604-3.983m-.61 7.404c-.909.968-2.058 1.43-3.365 1.43-1.305 0-2.413-.462-3.364-1.43-.95-.967-1.405-2.15-1.405-3.478s.497-2.454 1.405-3.421c.951-.924 2.059-1.43 3.364-1.43 1.307 0 2.413.463 3.365 1.43.95.924 1.405 2.093 1.405 3.42 0 1.386-.497 2.512-1.405 3.48"/><path fill="#fff" d="M502.077 83.179c0-.823-.355-1.328-.95-1.588-.356-.159-.909-.202-1.661-.202h-2.115v6.177h1.107v-2.453h.851c.597 0 .952.057 1.207.202.355.26.554.722.554 1.429v.822h1.007l-.056-.057c-.057-.058-.057-.159-.057-.303v-.924c0-.303-.156-.664-.355-.967-.255-.303-.596-.505-1.05-.606.397-.058.71-.16.908-.304.412-.26.61-.663.61-1.226m-1.703 1.068c-.199.1-.553.158-1.008.158h-.95v-2.251h.908c.596 0 1.05.1 1.305.26.299.158.398.461.398.866 0 .462-.256.808-.653.967"/><path fill="#e7e4e2" d="m489.714 232.73-16 21.252v17.287h-8.801v-17.287l-16-21.251h10.912l9.735 13.09 9.661-13.09zm-89.094 0v7.612h14.105v30.944h8.727v-30.96h14.089v-7.612Zm-43.651 7.612h12.983c3.859 0 5.652 1.473 5.652 4.588s-1.793 4.588-5.652 4.588H356.97zm29.38 30.944-10.02-14.853c5.366-1.473 8.168-5.382 8.168-11.503 0-7.937-4.756-12.183-13.595-12.183h-22.66v38.539h8.727v-14.19h9.623l9.457 14.173zm-96.61-38.54v38.54h34.41v-7.611h-25.666v-7.992h22.054v-7.61h-22.054v-7.748h25.682v-7.61Zm-27.371 0L251.14 261.24l-11.304-28.503h-9.467l16.058 38.539h8.952l16.06-38.54zm-59.146 38.523h8.727v-38.538h-8.727zm-52.936 0h8.727v-29.704h-8.727Zm8.727-29.699h29.32v-8.845h-29.32z"/></svg>