<svg xmlns="http://www.w3.org/2000/svg" width="51" height="32"><path fill="#fff" stroke="#d0d0d0" d="M.5.5h50v31H.5z" style="fill-rule:evenodd"/><path d="m22.612 12.262-3.142 7.496h-2.05l-1.546-5.982c-.094-.369-.175-.504-.46-.66-.467-.252-1.237-.49-1.914-.637l.046-.217h3.3c.42 0 .799.28.894.764l.817 4.338 2.018-5.103zm8.033 5.049c.008-1.979-2.736-2.088-2.717-2.972.006-.269.262-.555.822-.628.278-.036 1.044-.064 1.912.336l.34-1.59a5.2 5.2 0 0 0-1.813-.332c-1.917 0-3.266 1.019-3.278 2.478-.012 1.079.963 1.681 1.698 2.04.756.367 1.01.603 1.007.931-.005.503-.603.725-1.162.734-.974.015-1.54-.264-1.99-.473l-.352 1.642c.453.208 1.29.39 2.156.398 2.038 0 3.37-1.006 3.377-2.564m5.061 2.447H37.5l-1.566-7.496H34.28a.88.88 0 0 0-.825.55l-2.91 6.946h2.036l.404-1.12h2.488zm-2.163-2.656 1.02-2.815.588 2.815zm-8.16-4.84-1.603 7.496h-1.94l1.605-7.496z" class="st0" style="fill:#1434cb;stroke-width:.0124999"/></svg>