<svg xmlns="http://www.w3.org/2000/svg" width="640" height="360"><path d="m258.399 100.246-67.032 159.93h-43.733l-32.986-127.632c-2.003-7.861-3.744-10.741-9.835-14.053-9.944-5.395-26.365-10.456-40.813-13.597l.981-4.648h70.397c8.974 0 17.04 5.973 19.078 16.306l17.42 92.544 43.057-108.853h43.466zM429.753 207.96c.176-42.21-58.368-44.536-57.965-63.392.125-5.738 5.589-11.84 17.549-13.397 5.928-.776 22.261-1.368 40.786 7.157l7.267-33.914c-9.955-3.614-22.762-7.09-38.698-7.09-40.894 0-69.672 21.738-69.915 52.865-.264 23.024 20.542 35.872 36.216 43.523 16.125 7.835 21.536 12.87 21.475 19.877-.115 10.728-12.862 15.464-24.774 15.65-20.794.32-32.86-5.626-42.48-10.098l-7.498 35.037c9.667 4.435 27.51 8.304 46.008 8.499 43.464 0 71.895-21.47 72.029-54.717m107.983 52.216H576l-33.4-159.93h-35.317c-7.941 0-14.64 4.624-17.605 11.733l-62.083 148.197h43.443l8.624-23.888h53.08zm-46.162-56.667 21.776-60.047 12.533 60.047zM317.51 100.246l-34.21 159.93H241.93l34.224-159.93z" class="st0" style="fill:#1434cb;stroke-width:.266666"/></svg>