<svg width="121" height="80" xmlns="http://www.w3.org/2000/svg"><g fill-rule="nonzero" fill="none"><path d="M23.652 1.688h30.146c4.208 0 6.825 3.43 5.843 7.652L45.607 69.597c-.99 4.207-5.204 7.64-9.415 7.64H6.05c-4.202 0-6.826-3.433-5.844-7.64L14.246 9.34c.982-4.222 5.193-7.652 9.406-7.652" fill="#E21836"/><path d="M51.29 1.688h34.666c4.207 0 2.31 3.43 1.32 7.652L73.244 69.597c-.985 4.207-.678 7.64-4.894 7.64H33.684c-4.216 0-6.826-3.433-5.835-7.64L41.88 9.34c.996-4.222 5.198-7.652 9.408-7.652" fill="#00447C"/><path d="M84.58 1.688h30.146c4.214 0 6.831 3.43 5.842 7.652l-14.033 60.257c-.99 4.207-5.207 7.64-9.42 7.64H66.984c-4.216 0-6.831-3.433-5.844-7.64L75.175 9.34c.982-4.222 5.19-7.652 9.406-7.652" fill="#007B84"/><path d="M31.525 20.998c-3.1.032-4.015 0-4.308-.069-.112.535-2.204 10.184-2.21 10.192-.45 1.953-.778 3.344-1.891 4.243-.632.522-1.37.774-2.225.774-1.375 0-2.176-.682-2.31-1.977l-.026-.444s.42-2.616.42-2.63c0 0 2.195-8.794 2.588-9.956.02-.066.026-.101.031-.133-4.273.038-5.03 0-5.083-.069-.029.095-.134.64-.134.64l-2.242 9.912-.193.84-.372 2.75c0 .815.16 1.481.479 2.044 1.021 1.785 3.935 2.052 5.583 2.052 2.123 0 4.115-.451 5.461-1.275 2.337-1.38 2.948-3.538 3.493-5.456l.253-.984s2.262-9.133 2.646-10.321c.015-.066.02-.101.04-.133Zm7.695 7.368c-.545 0-1.541.132-2.436.571-.325.167-.632.36-.956.551l.292-1.056-.16-.177c-1.898.384-2.322.435-4.076.682l-.146.098c-.204 1.688-.385 2.957-1.14 6.274a393.401 393.401 0 0 1-.884 3.677l.08.155a43.6 43.6 0 0 1 3.904-.07l.126-.137c.199-1.016.224-1.254.664-3.312.206-.976.637-3.12.85-3.883.39-.18.774-.359 1.142-.359.875 0 .768.764.734 1.068-.037.51-.356 2.178-.683 3.61l-.218.925c-.152.682-.319 1.346-.471 2.023l.066.135c1.77-.095 2.31-.095 3.823-.07l.178-.137c.273-1.587.353-2.011.838-4.322l.244-1.062c.474-2.078.712-3.132.354-3.99-.38-.962-1.29-1.194-2.125-1.194Zm8.597 2.176c-.942.18-1.542.301-2.139.379-.591.095-1.168.18-2.078.307l-.072.065-.066.053c-.094.677-.16 1.263-.286 1.951-.107.712-.27 1.521-.537 2.684-.207.89-.313 1.2-.43 1.512-.116.313-.242.618-.474 1.493l.054.08.046.075c.85-.04 1.406-.07 1.978-.074.57-.021 1.162 0 2.078.005l.08-.066.086-.072c.132-.789.152-1.001.233-1.386.08-.413.218-.985.557-2.512.16-.717.338-1.432.504-2.164.173-.728.354-1.446.526-2.163l-.026-.087-.034-.08Zm.02-2.934c-.856-.504-2.357-.344-3.367.353-1.007.683-1.122 1.653-.27 2.165.84.49 2.348.344 3.35-.359 1.005-.698 1.13-1.659.287-2.159ZM53.009 39.3c1.73 0 3.504-.477 4.84-1.892 1.026-1.148 1.497-2.855 1.66-3.559.532-2.33.118-3.418-.401-4.081-.79-1.01-2.184-1.334-3.63-1.334-.87 0-2.943.085-4.562 1.578-1.162 1.076-1.7 2.537-2.023 3.937-.327 1.427-.703 3.996 1.659 4.952.729.313 1.78.399 2.457.399Zm-.135-5.244c.399-1.765.87-3.246 2.072-3.246.942 0 1.01 1.102.591 2.873-.075.393-.418 1.854-.884 2.477-.324.459-.709.737-1.133.737-.127 0-.878 0-.89-1.116-.006-.55.106-1.114.244-1.725Zm10.961 5.017.135-.137c.192-1.017.224-1.255.648-3.313.213-.975.652-3.12.859-3.883.39-.181.769-.36 1.148-.36.87 0 .763.764.729 1.068-.032.512-.35 2.179-.683 3.611l-.207.924c-.158.684-.33 1.346-.482 2.024l.066.135a41.849 41.849 0 0 1 3.817-.069l.184-.137c.267-1.588.339-2.013.838-4.323l.239-1.062c.476-2.078.717-3.131.364-3.99-.39-.961-1.306-1.194-2.13-1.194-.545 0-1.547.132-2.437.571a16.2 16.2 0 0 0-.95.551l.273-1.055-.146-.179c-1.897.385-2.331.436-4.082.683l-.134.098c-.213 1.688-.385 2.956-1.14 6.274a418.002 418.002 0 0 1-.884 3.677l.08.155c1.8-.095 2.337-.095 3.895-.069Zm13.054.069c.111-.545.775-3.777.78-3.777 0 0 .566-2.371.6-2.457 0 0 .178-.247.356-.345h.262c2.468 0 5.255 0 7.439-1.607 1.486-1.102 2.503-2.73 2.956-4.707a7.115 7.115 0 0 0 .204-1.639c0-.757-.152-1.507-.591-2.092-1.114-1.559-3.332-1.588-5.893-1.6l-1.262.012c-3.278.04-4.593.03-5.133-.037-.045.239-.131.664-.131.664s-1.174 5.441-1.174 5.45L72.36 39.121c2.861-.035 4.035-.035 4.529.02Zm2.175-9.667s1.249-5.43 1.243-5.41l.04-.278.018-.213.499.052s2.574.22 2.635.227c1.016.393 1.435 1.406 1.142 2.729-.267 1.208-1.05 2.224-2.058 2.715-.83.416-1.846.45-2.893.45h-.677l.051-.272Zm7.773 4.682c-.33 1.406-.71 3.975 1.641 4.89.75.32 1.422.414 2.104.38.72-.04 1.389-.401 2.007-.921l-.167.642.107.137c1.69-.071 2.215-.071 4.047-.057l.166-.126c.267-1.573.52-3.1 1.214-6.108.339-1.44.677-2.868 1.025-4.303l-.055-.158c-1.891.35-2.397.426-4.216.684l-.138.112c-.018.146-.038.287-.055.427a2.6 2.6 0 0 0-1.326-1.09c-.809-.319-2.709.091-4.342 1.579-1.148 1.061-1.699 2.516-2.012 3.912Zm3.972.086c.405-1.734.87-3.2 2.075-3.2.762 0 1.163.703 1.082 1.902-.065.299-.135.614-.218.97-.12.516-.251 1.026-.378 1.538-.13.35-.28.68-.445.899-.31.44-1.048.712-1.473.712-.12 0-.864 0-.89-1.096-.006-.546.107-1.108.247-1.725Zm20.743-5.724-.146-.166c-1.872.379-2.21.439-3.93.671l-.126.126c-.006.021-.011.053-.02.081l-.006-.028c-1.28 2.953-1.242 2.316-2.284 4.64-.006-.105-.006-.171-.012-.284l-.26-5.04-.165-.166c-1.96.379-2.006.439-3.817.671l-.14.126c-.02.06-.02.127-.032.199l.011.026c.227 1.156.172.898.4 2.723.105.896.246 1.797.352 2.682.179 1.48.278 2.209.497 4.468-1.223 2.018-1.512 2.782-2.69 4.552l.008.018-.828 1.31c-.095.139-.181.234-.302.274-.132.065-.304.077-.543.077h-.459l-.682 2.27 2.341.041c1.375-.006 2.24-.649 2.704-1.513l1.473-2.523h-.024l.155-.178c.99-2.132 8.525-15.057 8.525-15.057Zm-24.715 29.82h-.993l3.676-12.162h1.22l.387-1.253.038 1.393c-.046.861.632 1.625 2.411 1.498h2.058l.709-2.341h-.775c-.445 0-.652-.113-.626-.354l-.037-1.417h-3.812v.007c-1.232.026-4.911.119-5.657.317-.901.232-1.851.916-1.851.916l.373-1.255h-3.565l-.743 2.489-3.726 12.347h-.723l-.709 2.325h7.1l-.237.775h3.499l.232-.775h.982l.769-2.51Zm-2.913-9.691c-.571.158-1.634.637-1.634.637l.945-3.108h2.833l-.684 2.264s-.875.052-1.46.207Zm.054 4.44s-.89.112-1.475.244c-.577.175-1.659.726-1.659.726l.976-3.234h2.847l-.69 2.264Zm-1.587 5.279h-2.842l.824-2.73h2.833l-.815 2.73Zm6.842-7.543h4.096l-.589 1.906h-4.15l-.623 2.083H91.6l-2.75 3.872c-.192.284-.365.385-.557.465-.192.098-.445.212-.738.212h-1.007l-.692 2.283h2.635c1.37 0 2.178-.624 2.776-1.441l1.885-2.58.405 2.62c.086.49.439.777.678.89.263.131.536.358.92.392.414.018.712.032.91.032h1.295l.778-2.554h-.511c-.293 0-.798-.05-.884-.141-.086-.112-.086-.284-.132-.546l-.411-2.626h-1.682l.738-.878h4.142l.637-2.083h-3.835l.597-1.906h3.823l.71-2.35H89.93l-.698 2.35Zm-34.591 8.073.956-3.18h3.929l.717-2.365h-3.932l.6-1.957h3.843l.712-2.29h-9.615l-.697 2.29h2.184l-.583 1.957h-2.19l-.726 2.406h2.184l-1.274 4.207c-.172.557.08.77.24 1.028.165.252.33.419.704.514.385.086.649.137 1.007.137h4.43l.789-2.62-1.964.27c-.379 0-1.429-.046-1.314-.397Zm.45-15.223-.995 1.8c-.213.392-.405.636-.578.749-.152.095-.453.134-.89.134h-.519l-.694 2.302h1.725c.83 0 1.467-.304 1.77-.456.328-.175.414-.075.666-.319l.583-.505h5.387l.715-2.396H58.32l.688-1.31h-3.915Zm7.954 15.27c-.092-.133-.026-.366.115-.85l1.472-4.874h5.238c.764-.011 1.315-.02 1.673-.046.385-.04.804-.178 1.26-.424.471-.26.712-.532.916-.845.227-.312.591-.995.904-2.049l1.851-6.168-5.436.032s-1.673.247-2.41.52c-.744.304-1.806 1.153-1.806 1.153l.49-1.69h-3.357l-4.701 15.59c-.167.606-.279 1.045-.305 1.309-.008.284.359.566.597.778.281.213.697.178 1.096.213.42.031 1.016.05 1.84.05h2.58l.793-2.674-2.31.219a.607.607 0 0 1-.5-.244Zm2.537-9.016h5.502l-.35 1.096c-.049.026-.167-.054-.726.012h-4.765l.34-1.108Zm1.102-3.677h5.548l-.399 1.32s-2.615-.025-3.033.052c-1.843.319-2.92 1.304-2.92 1.304l.804-2.676Zm4.173 8.444a.587.587 0 0 1-.218.34c-.111.071-.292.097-.562.097h-.784l.046-1.335h-3.26l-.133 6.527c-.005.47.04.743.385.962.345.272 1.407.307 2.836.307h2.043l.738-2.443-1.78.097-.59.035c-.081-.035-.159-.066-.244-.152-.075-.074-.202-.029-.181-.5l.014-1.673 1.865-.077c1.008 0 1.438-.328 1.806-.64.35-.3.465-.643.597-1.108l.313-1.481h-2.564l-.327 1.044Z" fill="#FEFEFE"/></g></svg>