<svg xmlns="http://www.w3.org/2000/svg" width="640" height="360"><path fill="#1c3378" d="M452.837 35.85H187v288h265.837Zm0 0"/><path fill="#fff" d="M446.185 222.88H193.653V42.503h252.532Zm0 0"/><path fill="#1c3378" d="m383.796 75.244-49.547 118.279h-32.374l-24.387-94.414c-1.469-5.802-2.765-7.929-7.252-10.404-7.387-3.965-19.533-7.717-30.208-10.057l.716-3.404h52.061c6.633 0 12.609 4.41 14.118 12.029l12.899 68.442 31.832-80.471Z"/><path fill="#fff" d="M264.028 269.101c1.18.329 2.746.425 4.7.425 7.194 0 11.584-3.694 11.584-10.133 0-6.112-4.061-9.38-10.733-9.38-2.631 0-4.526.251-5.551.503Zm-9.534-25.605c3.442-.658 8.219-1.141 14.717-1.141 7.04 0 12.184 1.547 15.549 4.487 3.133 2.688 5.163 7 5.163 12.164 0 5.202-1.566 9.515-4.544 12.474-3.829 3.984-9.844 5.86-16.651 5.86-1.78 0-3.443-.097-4.7-.329v20.731h-9.534ZM326.127 274.574l-4.139-13.537c-1.025-3.346-1.876-7.098-2.669-10.289h-.155c-.773 3.191-1.566 7.04-2.495 10.289l-4.061 13.537Zm-15.085 7.581-4.545 15.587h-9.921l16.883-54.981h12.281l17.134 54.981h-10.327l-4.777-15.587ZM363.123 297.742v-22.936l-16.652-32.045h10.927l6.343 14.098c1.799 4.1 3.114 7.175 4.545 10.946h.135c1.335-3.519 2.843-6.943 4.622-10.946l6.344-14.098h10.868l-17.521 31.813v23.168Zm0 0"/></svg>