<svg width="51" height="32" xmlns="http://www.w3.org/2000/svg"><path d="M.5.5h50v31H.5Z" fill="#fff" stroke="#d0d0d0" stroke-linejoin="round" stroke-linecap="round"/><path d="M34.852 6.012H15.837v20.6h19.015Zm0 0" fill="#1c3378"/><path d="M34.376 19.39H16.313V6.488h18.063Zm0 0" fill="#fff"/><path d="m29.914 8.83-3.544 8.46h-2.316l-1.744-6.753c-.105-.415-.198-.567-.519-.745-.528-.283-1.397-.551-2.161-.719l.051-.243h3.724c.475 0 .902.315 1.01.86l.923 4.896 2.277-5.756Z" fill="#1c3378"/><path d="M21.347 22.696c.084.023.196.03.336.03.515 0 .829-.264.829-.725 0-.437-.291-.671-.768-.671-.188 0-.324.018-.397.036Zm-.682-1.832a5.717 5.717 0 0 1 1.053-.081c.503 0 .871.11 1.112.321.224.192.369.5.369.87 0 .372-.112.68-.325.892-.274.285-.704.419-1.191.419-.127 0-.246-.007-.336-.023v1.482h-.682ZM25.789 23.087l-.296-.968c-.074-.239-.135-.508-.191-.736h-.011c-.056.228-.112.504-.179.736l-.29.968Zm-1.079.543-.325 1.114h-.71l1.208-3.932h.878l1.226 3.932h-.739l-.342-1.114ZM28.435 24.744v-1.64l-1.191-2.292h.781l.454 1.008c.129.293.223.513.325.783h.01c.095-.252.203-.496.331-.783l.453-1.008h.778l-1.254 2.275v1.657Zm0 0" fill="#fff"/></svg>