<svg xmlns="http://www.w3.org/2000/svg" width="51" height="32"><g fill="none" fill-rule="evenodd"><path fill="#FFF" stroke="#D0D0D0" d="M.5.5h50v31H.5z"/><path fill="#2C3341" fill-rule="nonzero" d="M15.529 21.686a.76.76 0 0 1 .505.282c.064.079.112.162.154.256l.013.03c.043.104.081.225.123.38l.01.038c.029.117.185.76.243.967q.143.512.302.794.077.135.143.2a.3.3 0 0 0 .056.041c.096.03.123.027.149.012.046-.028.11-.1.199-.233l.015-.024.167-.266c.071-.11.133-.195.204-.275.113-.126.239-.226.396-.292a.9.9 0 0 1 .589-.031c.118.032.227.082.343.15l.026.016.028.017q.074.046.168.11l.262.184.037.025.032.02c.453.3.714.353 1.01.183l.014-.009.015-.009a.687.687 0 1 1 .724 1.169l-.068.04c-.486.28-.995.343-1.498.22-.35-.086-.65-.24-1.01-.483l-.026-.017-.074-.052-.108-.075-.065.104-.022.034c-.197.302-.386.515-.654.674-.37.22-.801.264-1.262.12-.425-.132-.742-.442-.988-.877a4.4 4.4 0 0 1-.356-.857l-.01-.03-.036.094c-.08.2-.148.357-.217.5l-.015.03q-.115.239-.236.404c-.137.186-.289.323-.508.393-.282.09-.531.024-.759-.12a2 2 0 0 1-.366-.314 7 7 0 0 1-.6-.761l-.02-.028q-.09-.127-.186-.271l-.054-.082-.144-.217-.342-.526-.051-.077-.041-.062-.059-.085-.012-.017h-.001a.69.69 0 0 1-.225-.584l.002-.012a.687.687 0 0 1 .766-.599c.164.02.267.078.366.159q.054.044.097.093.045.05.092.115l.012.017c.049.066.105.15.183.266l.335.516.069.104.08.121.068.102.044.066.128.185.037.052.039.055q.078.11.148.202l.024.032.018-.043.015-.035q.065-.16.15-.383l.19-.494c.175-.456.219-.554.32-.742l.003-.007c.065-.12.13-.22.207-.306a.9.9 0 0 1 .221-.18.76.76 0 0 1 .472-.097m8.238-1.14 3.695 3.697-4.12 1a.42.42 0 0 1-.511-.492l.002-.01zm-11.99 2.492.003.002.004.002zm22.349-12.853 3.697 3.697-9.36 9.36-3.695-3.697zm-15.42 8.566c.407.882 1.889 1.587 3.798 1.82l-.378 1.446c-2.03-.324-3.493-1.192-3.53-2.218v-.558q.001-.252.11-.49m-7.595-1.41c.499 1.087 2.621 1.904 5.164 1.904q.737-.001 1.414-.088l.056-.007v.635q.001.437.197.837c-.524.079-1.084.122-1.667.122-2.884 0-5.228-1.05-5.274-2.354L11 18.35v-.518q.001-.253.11-.49m7.596-1.271c.5 1.087 2.63 1.903 5.181 1.903q.178 0 .353-.005l-1.418 1.384-.019.07c-2.375-.223-4.167-1.167-4.208-2.303v-.559q.001-.252.11-.49m-7.596-1.41c.498 1.087 2.617 1.904 5.157 1.904q.737 0 1.412-.088l.056-.007v1.5q-.701.093-1.468.094c-2.88 0-5.22-1.05-5.267-2.353L11 15.67v-.519q.001-.252.11-.49m7.596-1.408c.5 1.086 2.63 1.903 5.181 1.903 1.704 0 3.22-.364 4.188-.93l-2.334 2.278c-.577.098-1.202.151-1.854.151-2.894 0-5.245-1.05-5.292-2.354v-.558q.001-.252.11-.49m-2.439-3.197q.737 0 1.412.087l.056.008v5.104q-.701.093-1.468.094c-2.88 0-5.22-1.048-5.267-2.348L11 12.96v-.517c0-1.319 2.359-2.388 5.268-2.388m12.801.55q.106.228.112.47v.54c0 1.321-2.37 2.393-5.293 2.393-2.894 0-5.245-1.05-5.292-2.354v-.558q.001-.253.11-.49c.5 1.086 2.63 1.902 5.182 1.902s4.681-.816 5.181-1.903m9.892-2.98.02.019 1.648 1.649c.49.49.495 1.275.015 1.77l-.015.016-1.842 1.842-3.698-3.697 1.58-1.58a1.636 1.636 0 0 1 2.292-.019M23.888 6c2.894 0 5.245 1.048 5.292 2.348v.557c0 1.319-2.369 2.388-5.292 2.388-2.894 0-5.245-1.048-5.292-2.348v-.558C18.595 7.07 20.964 6 23.887 6"/></g></svg>