<svg xmlns="http://www.w3.org/2000/svg" width="640" height="360"><path fill="#2C3341" d="M201.33 244.442c2.477.304 4.34 1.537 5.717 3.2.733.885 1.275 1.83 1.748 2.899l.144.334c.498 1.188.928 2.551 1.4 4.319l.111.426c.33 1.317 2.096 8.613 2.755 10.953 1.092 3.882 2.207 6.86 3.419 9.005.572 1.015 1.129 1.77 1.63 2.26.182.178.34.304.472.387.075.047.124.07.158.08 1.086.34 1.394.308 1.689.132.526-.314 1.251-1.12 2.255-2.64l.172-.263 1.893-3.015c.803-1.246 1.502-2.214 2.308-3.118 1.278-1.434 2.707-2.562 4.487-3.308 2.227-.933 4.495-.95 6.676-.356 1.342.365 2.574.934 3.895 1.708l.289.172.313.19c.577.358 1.18.758 1.904 1.258l2.977 2.076.413.28.362.241c5.136 3.386 8.093 3.989 11.44 2.063l.167-.097.167-.102a7.79 7.79 0 1 1 8.213 13.24q-.388.24-.779.465c-5.507 3.168-11.268 3.885-16.973 2.488-3.97-.971-7.375-2.722-11.441-5.47l-.3-.203a106 106 0 0 1-.84-.58l-1.217-.852-.74 1.174-.245.383c-2.24 3.429-4.386 5.841-7.418 7.649-4.183 2.494-9.08 2.988-14.303 1.36-4.813-1.5-8.409-5.013-11.192-9.942-1.57-2.782-2.861-5.962-4.04-9.718l-.104-.336-.422 1.063c-.91 2.277-1.673 4.044-2.457 5.669l-.168.346c-.885 1.806-1.749 3.31-2.675 4.573-1.547 2.11-3.269 3.656-5.756 4.455-3.193 1.026-6.018.268-8.598-1.366-1.405-.89-2.745-2.069-4.152-3.558-2.031-2.147-4.253-5.001-6.799-8.622l-.219-.313c-.68-.97-1.38-1.993-2.111-3.08l-.62-.923c-.518-.778-1.05-1.582-1.626-2.46l-3.883-5.965-.576-.873-.469-.7a49 49 0 0 0-.663-.962l-.14-.194-.01-.01a7.79 7.79 0 0 1-2.545-6.614l.016-.133a7.79 7.79 0 0 1 8.682-6.783c1.858.228 3.035.884 4.148 1.794.42.344.766.687 1.103 1.063.345.384.679.803 1.044 1.297l.139.19c.547.75 1.191 1.697 2.065 3.024l3.803 5.84.778 1.186q.467.71.905 1.368l.773 1.155.505.747q.747 1.1 1.447 2.101l.414.588.445.626q.882 1.231 1.678 2.282l.278.364.202-.483.164-.398a208 208 0 0 0 1.708-4.338l2.14-5.602c1.987-5.168 2.49-6.28 3.628-8.408l.044-.082c.73-1.363 1.464-2.486 2.343-3.463.717-.795 1.52-1.484 2.506-2.046 1.559-.89 3.382-1.339 5.348-1.097m93.361-12.923 41.883 41.907-46.698 11.322c-3.398.827-6.469-2.179-5.79-5.569l.021-.104zm-135.876 28.244.03.018c.777.488 1.691.843 2.977 1a7.8 7.8 0 0 1-2.935-.976zm253.277-145.67L454 156 347.921 262.08l-41.883-41.907zm-174.75 97.081c4.606 10.004 21.396 17.986 43.036 20.63l-4.286 16.39c-23.013-3.673-39.586-13.515-40.003-25.134l-.008-.449v-5.882c0-1.903.436-3.761 1.261-5.555m-86.085-15.97c5.651 12.315 29.708 21.568 58.53 21.568 5.553 0 10.924-.349 16.026-.992l.636-.082v7.203c0 3.291.76 6.468 2.231 9.48-5.939.897-12.29 1.384-18.893 1.384-32.69 0-59.251-11.902-59.779-26.676l-.008-.448v-5.882c0-1.904.435-3.762 1.257-5.555m86.085-14.412c5.67 12.315 29.806 21.568 58.723 21.568q2.017 0 4.002-.06l-16.077 15.69-.207.794c-26.926-2.533-47.232-13.229-47.694-26.106l-.008-.448v-5.883c0-1.904.436-3.761 1.261-5.555m-86.086-15.97c5.643 12.315 29.666 21.569 58.448 21.569 5.546 0 10.91-.35 16.004-.992l.635-.082v16.998a128 128 0 0 1-16.639 1.068c-32.644 0-59.169-11.901-59.696-26.675l-.008-.448v-5.882c0-1.904.434-3.762 1.256-5.556m86.086-15.97c5.67 12.315 29.806 21.568 58.723 21.568 19.312 0 36.492-4.126 47.462-10.536l-26.454 25.82c-6.538 1.105-13.617 1.71-21.008 1.71-32.797 0-59.446-11.902-59.976-26.675l-.008-.449v-5.882c0-1.905.436-3.762 1.261-5.555m-27.638-36.224c5.544 0 10.91.344 16.004.985l.635.081v57.852a128 128 0 0 1-16.639 1.066c-32.644 0-59.169-11.873-59.696-26.61l-.008-.448v-5.868c0-14.944 26.73-27.058 59.704-27.058m145.083 6.233c.792 1.718 1.225 3.496 1.26 5.317l.002.238v5.882c0 14.98-26.856 27.124-59.984 27.124-32.797 0-59.446-11.902-59.976-26.675l-.008-.449v-5.882c0-1.905.436-3.762 1.261-5.555 5.67 12.315 29.806 21.568 58.723 21.568s53.053-9.253 58.722-21.568m112.105-33.778.218.215 18.689 18.689a14.286 14.286 0 0 1 .166 20.07l-.166.168-20.882 20.882L423.01 103.2l17.902-17.902c7.175-7.15 18.74-7.222 25.98-.215M296.065 66.667c32.796 0 59.446 11.873 59.976 26.61l.008.448v5.868c0 14.944-26.856 27.058-59.984 27.058-32.797 0-59.446-11.873-59.976-26.61l-.008-.448v-5.868c0-14.944 26.856-27.058 59.984-27.058"/></svg>