<svg xmlns="http://www.w3.org/2000/svg" width="51" height="32"><g fill="none" fill-rule="evenodd"><path fill="#FFF" stroke="#D0D0D0" d="M.5.5h50v31H.5z"/><path d="M-259.009-200.742v-14.899a8.84 8.84 0 0 0-9.337-9.436 9.19 9.19 0 0 0-8.343 4.222 8.72 8.72 0 0 0-7.847-4.222 7.85 7.85 0 0 0-6.953 3.526v-2.93h-5.165v23.74h5.215v-13.062a5.562 5.562 0 0 1 5.81-6.307c3.427 0 5.165 2.234 5.165 6.257v13.21h5.215v-13.16a5.587 5.587 0 0 1 5.81-6.307c3.527 0 5.215 2.234 5.215 6.257v13.21zm77.153-23.739h-8.493v-7.201h-5.214v7.201h-4.718v4.718h4.817v10.926c0 5.513 2.136 8.79 8.244 8.79a12.1 12.1 0 0 0 6.457-1.837l-1.49-4.42a9.54 9.54 0 0 1-4.57 1.341c-2.483 0-3.426-1.59-3.426-3.973v-10.827h8.443zm44.052-.596a7 7 0 0 0-6.258 3.477v-2.88h-5.115v23.738h5.165v-13.31c0-3.923 1.688-6.108 4.966-6.108a8.4 8.4 0 0 1 3.228.596l1.59-4.967a11 11 0 0 0-3.676-.645zm-66.6 2.483a17.76 17.76 0 0 0-9.684-2.483c-6.01 0-9.933 2.88-9.933 7.599 0 3.873 2.88 6.257 8.195 7.002l2.483.348c2.83.397 4.172 1.142 4.172 2.483 0 1.838-1.887 2.88-5.414 2.88a12.64 12.64 0 0 1-7.896-2.483l-2.483 4.023a17.13 17.13 0 0 0 10.28 3.08c6.854 0 10.827-3.229 10.827-7.748s-3.129-6.357-8.294-7.102l-2.483-.348c-2.235-.298-4.023-.745-4.023-2.334 0-1.59 1.689-2.781 4.52-2.781a15.3 15.3 0 0 1 7.449 2.036zm138.34-2.483a7 7 0 0 0-6.258 3.477v-2.88h-5.116v23.738h5.165v-13.31c0-3.923 1.689-6.108 4.967-6.108a8.4 8.4 0 0 1 3.228.596l1.589-4.967a11 11 0 0 0-3.675-.645zm-66.55 12.416a11.994 11.994 0 0 0 12.664 12.416 12.42 12.42 0 0 0 8.542-2.83l-2.483-4.173a10.43 10.43 0 0 1-6.208 2.136 7.623 7.623 0 0 1 0-15.197 10.43 10.43 0 0 1 6.208 2.135l2.483-4.171a12.42 12.42 0 0 0-8.542-2.831 11.994 11.994 0 0 0-12.664 12.416zm48.372 0v-11.82h-5.165v2.88a9.01 9.01 0 0 0-7.45-3.476 12.416 12.416 0 0 0 0 24.832 9.01 9.01 0 0 0 7.45-3.476v2.88h5.165zm-19.22 0a7.176 7.176 0 1 1 7.202 7.599 7.127 7.127 0 0 1-7.202-7.599m-62.328-12.416a12.417 12.417 0 0 0 .348 24.832 14.43 14.43 0 0 0 9.858-3.228l-2.483-3.824a11.3 11.3 0 0 1-6.903 2.483 6.58 6.58 0 0 1-7.102-5.81h17.63v-1.987c0-7.45-4.618-12.416-11.273-12.416zm0 4.619a5.885 5.885 0 0 1 6.01 5.76h-12.416a6.11 6.11 0 0 1 6.307-5.76zm129.4 7.847v-21.405h-4.967v12.416a9.01 9.01 0 0 0-7.45-3.477 12.416 12.416 0 0 0 0 24.832 9.01 9.01 0 0 0 7.45-3.476v2.88h4.966zm8.616 8.418a2.5 2.5 0 0 1 .944.174 2.5 2.5 0 0 1 .77.496 2.5 2.5 0 0 1 .52.745 2.3 2.3 0 0 1 0 1.838 2.5 2.5 0 0 1-.52.745 2.5 2.5 0 0 1-.77.496 2.3 2.3 0 0 1-.944.199 2.48 2.48 0 0 1-2.235-1.44 2.33 2.33 0 0 1 0-1.838 2.5 2.5 0 0 1 .522-.745 2.5 2.5 0 0 1 .77-.496 2.5 2.5 0 0 1 1.018-.174zm0 4.196a1.8 1.8 0 0 0 .72-.149 1.9 1.9 0 0 0 .571-.397 1.84 1.84 0 0 0 0-2.483 1.8 1.8 0 0 0-.57-.397 1.8 1.8 0 0 0-.721-.15 1.9 1.9 0 0 0-.72.15 1.8 1.8 0 0 0-.596.397 1.84 1.84 0 0 0 0 2.483 1.8 1.8 0 0 0 .596.397 1.8 1.8 0 0 0 .795.15zm.149-2.955a1 1 0 0 1 .646.199.62.62 0 0 1 .223.521.6.6 0 0 1-.174.447.87.87 0 0 1-.521.224l.72.82h-.571l-.67-.82h-.224v.82h-.472v-2.186zm-.546.423v.595h.546a.5.5 0 0 0 .298 0 .25.25 0 0 0 0-.223.25.25 0 0 0 0-.224.5.5 0 0 0-.298 0zm-27.315-10.082a7.176 7.176 0 1 1 7.2 7.598 7.127 7.127 0 0 1-7.2-7.598m-174.395 0v-11.87h-5.165v2.88a9.01 9.01 0 0 0-7.45-3.476 12.416 12.416 0 0 0 0 24.832 9.01 9.01 0 0 0 7.45-3.476v2.88h5.165zm-19.22 0a7.176 7.176 0 1 1 7.201 7.598 7.127 7.127 0 0 1-7.25-7.598z" class="cls-2"/><g data-name="&lt;Group&gt;"><path d="M-206.117-405.381h78.22v140.573h-78.22z" class="cls-3"/><path d="M-201.15-335.082a89.25 89.25 0 0 1 34.143-70.3 89.395 89.395 0 1 0 0 140.574 89.25 89.25 0 0 1-34.143-70.274" class="cls-4" data-name="&lt;Path&gt;"/><path d="M-22.36-335.082a89.395 89.395 0 0 1-144.647 70.274 89.395 89.395 0 0 0 0-140.573A89.395 89.395 0 0 1-22.36-335.107zM-30.903-279.707v-2.88h1.167v-.597h-2.955v.596h1.267v2.88zm5.736 0v-3.477h-.894l-1.043 2.484-1.042-2.484h-.795v3.477h.646v-2.607l.968 2.26h.67l.969-2.26v2.632z" class="cls-5"/></g><path d="M44.883-248.287h78.221v140.574H44.883z" class="cls-3" style="fill:#ff5f00;stroke-width:2.48319" transform="matrix(.1053 0 0 .1053 16.655 34.743)"/><path d="M49.85-177.988a89.25 89.25 0 0 1 34.143-70.299 89.395 89.395 0 1 0 0 140.574 89.25 89.25 0 0 1-34.143-70.275" class="cls-4" data-name="&lt;Path&gt;" style="fill:#eb001b;stroke-width:2.48319" transform="matrix(.1053 0 0 .1053 16.655 34.743)"/><path d="M228.64-177.988a89.395 89.395 0 0 1-144.647 70.275 89.395 89.395 0 0 0 0-140.574 89.395 89.395 0 0 1 144.646 70.275z" class="cls-5" style="fill:#f79e1b;stroke-width:2.48319" transform="matrix(.1053 0 0 .1053 16.655 34.743)"/></g></svg>