<svg xmlns="http://www.w3.org/2000/svg" xmlns:xlink="http://www.w3.org/1999/xlink" width="480" height="270"><defs><path id="a" d="M0 0h480v270H0z"/></defs><g fill="none" fill-rule="evenodd"><mask id="b" fill="#fff"><use xlink:href="#a"/></mask><use xlink:href="#a" fill="#EDEDED"/><g fill-rule="nonzero" mask="url(#b)"><g transform="translate(255 27)"><path fill="#E74F59" d="M281.51 32.35a14.26 14.26 0 0 0-10.121-4.224 14.26 14.26 0 0 0-10.121 4.223c-5.92 5.962-6.653 8.347-9.524 8.347-4.746 0-7.91-9.655-17.151-18.425-11.441-10.859-29.137-11.196-40.253 0A28.77 28.77 0 0 0 186 42.543c0 7.604 3 14.896 8.34 20.272 11.116 11.196 28.592 10.627 40.253 0 7.774-7.092 11.619-18.14 17.161-18.14 3.458 0 5.06 3.556 9.524 8.051a14.25 14.25 0 0 0 13.98 4.067c5.047-1.31 8.989-5.28 10.29-10.363a14.48 14.48 0 0 0-4.039-14.08"/><path fill="#003852" d="M205.687 51.506c-11.093-11.019-29.04-11.019-40.133 0-9.545 9.419-18.69 17.038-29.401 17.038-8.715 0-15.31-7.902-34.358-27.095C89.6 29.295 71.26 25.66 55.325 32.236 39.39 38.814 29 54.311 29 71.5s10.39 32.686 26.324 39.264 34.276 2.941 46.471-9.213c16.602-16.546 23.962-27.576 34.463-27.576 10.5 0 17.63 5.913 29.307 17.529 11.082 11.042 29.048 11.04 40.127-.005s11.077-28.95-.005-39.993"/><circle cx="71.5" cy="71.5" r="28.5" fill="#E9E8E2"/><circle cx="14" cy="114" r="7" fill="#00B1AC"/><path fill="#00B1AC" d="M71.668 56.484c-8.611 0-9.867 2.835-13.635-.913-5.561-5.544-.696-11.36-.696-27.592C57.037 12.441 44.29 0 28.668 0S.3 12.44 0 27.979c.052 15.727 12.855 28.464 28.663 28.516 16.02 0 22.089-4.83 27.724.777 3.884 3.863.95 5.06.95 13.47C57.337 78.617 63.753 85 71.668 85 79.584 85 86 78.617 86 70.742s-6.416-14.258-14.332-14.258"/><circle cx="128.5" cy="128.5" r="14.5" fill="#FCC11F"/></g></g></g></svg>