<svg width="480" height="270" xmlns="http://www.w3.org/2000/svg" xmlns:xlink="http://www.w3.org/1999/xlink"><defs><path id="a" d="M0 0h480v270H0z"/></defs><g fill="none" fill-rule="evenodd"><mask id="b" fill="#fff"><use xlink:href="#a"/></mask><use fill="#EDEDED" xlink:href="#a"/><g mask="url(#b)" fill-rule="nonzero"><g transform="translate(255 27)"><path d="M281.51 32.35a14.26 14.26 0 0 0-10.121-4.224 14.26 14.26 0 0 0-10.121 4.223c-5.92 5.962-6.653 8.347-9.524 8.347-4.746 0-7.91-9.655-17.151-18.425-11.441-10.859-29.137-11.196-40.253 0A28.766 28.766 0 0 0 186 42.543c0 7.604 3 14.896 8.34 20.272 11.116 11.196 28.592 10.627 40.253 0 7.774-7.092 11.619-18.14 17.161-18.14 3.458 0 5.06 3.556 9.524 8.051a14.245 14.245 0 0 0 13.98 4.067c5.047-1.31 8.989-5.28 10.29-10.363a14.483 14.483 0 0 0-4.039-14.08Z" fill="#E74F59"/><path d="M205.687 51.506c-11.093-11.019-29.04-11.019-40.133 0-9.545 9.419-18.69 17.038-29.401 17.038-8.715 0-15.31-7.902-34.358-27.095C89.6 29.295 71.26 25.66 55.325 32.236 39.39 38.814 29 54.311 29 71.5c0 17.19 10.39 32.686 26.324 39.264 15.935 6.578 34.276 2.941 46.471-9.213 16.602-16.546 23.962-27.576 34.463-27.576 10.5 0 17.63 5.913 29.307 17.529 11.082 11.042 29.048 11.04 40.127-.005 11.08-11.045 11.077-28.95-.005-39.993Z" fill="#003852"/><circle fill="#E9E8E2" cx="71.5" cy="71.5" r="28.5"/><circle fill="#00B1AC" cx="14" cy="114" r="7"/><path d="M71.668 56.484c-8.611 0-9.867 2.835-13.635-.913-5.561-5.544-.696-11.36-.696-27.592C57.037 12.441 44.29 0 28.668 0 13.047 0 .3 12.44 0 27.979c.052 15.727 12.855 28.464 28.663 28.516 16.02 0 22.089-4.83 27.724.777 3.884 3.863.95 5.06.95 13.47C57.337 78.617 63.753 85 71.668 85 79.584 85 86 78.617 86 70.742c0-7.874-6.416-14.258-14.332-14.258Z" fill="#00B1AC"/><circle fill="#FCC11F" cx="128.5" cy="128.5" r="14.5"/></g></g></g></svg>