<svg xmlns="http://www.w3.org/2000/svg" height="32" width="51"><g fill-rule="evenodd" fill="none"><path stroke="#D0D0D0" fill="#FFF" d="M.5.5h50v31H.5z"/><path fill="#7673c0" d="M-61.344-80.716h8.236v14.803h-8.236z" style="stroke-width:.261485" transform="translate(82.725 89.315)"/><path fill="#eb001b" d="M21.904 16.002a9.398 9.398 0 0 1 3.595-7.403 9.413 9.413 0 1 0 0 14.803 9.398 9.398 0 0 1-3.595-7.4z"/><path fill="#00a1df" d="M40.728 16.002a9.413 9.413 0 0 1-15.229 7.4 9.413 9.413 0 0 0 0-14.803A9.413 9.413 0 0 1 40.731 16z"/></g></svg>