<svg xmlns="http://www.w3.org/2000/svg" width="640" height="360" fill="none"><g clip-path="url(#a)" transform="matrix(8 0 0 8 64 52)"><path fill="#6600f5" fill-rule="evenodd" d="M7 2a5 5 0 0 0-5 5v13a1 1 0 1 1-2 0V7a7 7 0 0 1 7-7h12a1 1 0 1 1 0 2z" clip-rule="evenodd"/><path fill="#df1a79" fill-rule="evenodd" d="M63 20a1 1 0 0 1 1 1v4a7 7 0 0 1-7 7H38a1 1 0 1 1 0-2h19a5 5 0 0 0 5-5v-4a1 1 0 0 1 1-1" clip-rule="evenodd"/><path fill="#ffd000" fill-rule="evenodd" d="M45 1a1 1 0 0 1 1-1h11a7 7 0 0 1 7 7v7a1 1 0 1 1-2 0V7a5 5 0 0 0-5-5H46a1 1 0 0 1-1-1" clip-rule="evenodd"/><path fill="#1e1e1e" d="M4 8a4 4 0 0 1 4-4h48a4 4 0 0 1 4 4v16a4 4 0 0 1-4 4H8a4 4 0 0 1-4-4Z"/><path fill="#fefefe" d="M19.61 23.347h-6.89V12.029c0-1.382.578-2.72 1.584-3.666a4.98 4.98 0 0 1 3.762-1.353c2.59.164 4.698 2.361 4.698 4.899 0 .808-.113 1.638-.266 2.298a5.027 5.027 0 0 1-2.889 9.14m-2.26-2.098h2.26a2.932 2.932 0 0 0 2.075-4.995c-.997 1.897-2.416 3.535-4.336 4.995m-2.536-5.862v5.076c2.312-1.475 3.898-3.1 4.956-5.07l-.162-.005h-4.792zm0-2.098h4.796q.471.001.919.085c.077-.426.139-.943.139-1.465 0-1.452-1.227-2.71-2.734-2.804-.821-.053-1.6.227-2.195.788a2.9 2.9 0 0 0-.925 2.137zM43.554 11.066q.372.372.372.92 0 .549-.372.912-.373.365-.968.365c-.397 0-.704-.12-.952-.365a1.22 1.22 0 0 1-.372-.911q0-.548.372-.921.372-.372.952-.373c.386 0 .72.125.968.373M29.12 11.066q.372.373.373.92 0 .549-.373.912-.372.365-.968.366c-.397 0-.704-.121-.952-.366a1.22 1.22 0 0 1-.372-.911q0-.547.373-.92.371-.374.951-.374c.387 0 .72.125.968.373M43.653 14.024v9.106h-2.119V14.37zM29.214 14.024v9.106h-2.12V14.37zM53.344 19.396h-5.498q.099 1.277.663 1.823.563.548 1.49.547.579 0 1.092-.19a5 5 0 0 0 1.093-.59l.877 1.21q-1.456 1.177-3.245 1.177-2.004 0-3.089-1.227-1.084-1.226-1.083-3.348 0-1.343.463-2.411.465-1.069 1.34-1.674.878-.606 2.088-.606 1.837 0 2.848 1.169 1.01 1.168 1.01 3.258 0 .165-.05.861zm-2.054-1.474q0-2.305-1.705-2.304-.778 0-1.218.572-.438.573-.521 1.832h3.444zM38.687 10.614v10.441c0 .24.17.433.379.433h.335v1.89h-1.029c-.994 0-1.799-.921-1.799-2.06V10.875l2.115-.261zM33.796 10.614v10.441c0 .24.169.434.378.434h.335v1.89h-1.028c-.994 0-1.8-.922-1.8-2.061V10.875z"/></g><defs><clipPath id="a"><path fill="#fff" d="M0 0h64v32H0z"/></clipPath></defs></svg>