<svg xmlns="http://www.w3.org/2000/svg" width="512" height="512" fill="none"><path fill="#1e1e1e" d="M285.241 512H69.446V157.5c0-43.288 18.1-85.171 49.635-114.81C151.1 12.608 192.932-2.453 236.894.326c81.128 5.114 147.133 73.936 147.133 153.428 0 25.292-3.539 51.307-8.325 71.963 40.423 28.552 66.852 75.628 66.852 128.786C442.554 441.365 371.963 512 285.24 512m-70.791-65.72h70.791c50.562 0 91.667-41.197 91.667-91.777 0-25.21-10.176-48.043-26.666-64.675-31.212 59.441-75.66 110.745-135.792 156.451M135.05 262.684v158.989c72.402-46.19 122.077-97.092 155.217-158.826a105 105 0 0 0-5.068-.122H135.092Zm0-65.72h150.19c9.854 0 19.47.927 28.8 2.659 2.415-13.33 4.344-29.52 4.344-45.87 0-45.465-38.412-84.888-85.635-87.828-25.701-1.65-50.116 7.128-68.74 24.686-18.664 17.558-28.959 41.318-28.959 66.93v39.463z" style="stroke-width:31.3209"/></svg>