<svg xmlns="http://www.w3.org/2000/svg" width="640" height="360" fill="none"><g clip-path="url(#a)" transform="matrix(8 0 0 8 64 52)"><path fill="#6600f5" fill-rule="evenodd" d="M7 2a5 5 0 0 0-5 5v13a1 1 0 1 1-2 0V7a7 7 0 0 1 7-7h12a1 1 0 1 1 0 2z" clip-rule="evenodd"/><path fill="#df1a79" fill-rule="evenodd" d="M63 20a1 1 0 0 1 1 1v4a7 7 0 0 1-7 7H38a1 1 0 1 1 0-2h19a5 5 0 0 0 5-5v-4a1 1 0 0 1 1-1z" clip-rule="evenodd"/><path fill="#ffd000" fill-rule="evenodd" d="M45 1a1 1 0 0 1 1-1h11a7 7 0 0 1 7 7v7a1 1 0 1 1-2 0V7a5 5 0 0 0-5-5H46a1 1 0 0 1-1-1Z" clip-rule="evenodd"/><path fill="#1e1e1e" d="M4 8a4 4 0 0 1 4-4h48a4 4 0 0 1 4 4v16a4 4 0 0 1-4 4H8a4 4 0 0 1-4-4Z"/><path fill="#fefefe" d="M19.61 23.347h-6.89V12.029c0-1.382.578-2.72 1.584-3.666a4.98 4.98 0 0 1 3.762-1.353c2.59.164 4.698 2.361 4.698 4.899 0 .807-.113 1.638-.266 2.298a5.027 5.027 0 0 1-2.889 9.14zm-2.26-2.098h2.26a2.932 2.932 0 0 0 2.075-4.995c-.997 1.897-2.416 3.535-4.336 4.995zm-2.536-5.862v5.076c2.312-1.475 3.898-3.1 4.956-5.07a3.357 3.357 0 0 0-.162-.005h-4.792zm0-2.098h4.795c.315 0 .622.03.92.085.077-.426.139-.943.139-1.465 0-1.452-1.227-2.71-2.734-2.804-.821-.053-1.6.227-2.195.788a2.906 2.906 0 0 0-.925 2.137v1.26zM43.554 11.066c.248.248.372.555.372.92 0 .366-.124.67-.372.912-.248.243-.572.365-.968.365-.397 0-.704-.12-.952-.365a1.224 1.224 0 0 1-.372-.911c0-.366.124-.672.372-.921.248-.248.565-.373.952-.373.386 0 .72.125.968.373zM29.12 11.066c.248.248.373.556.373.92 0 .366-.125.67-.373.912-.247.243-.571.366-.968.366s-.704-.121-.952-.366a1.224 1.224 0 0 1-.372-.911c0-.365.125-.671.373-.92.247-.249.565-.374.951-.374.387 0 .72.125.968.373zM43.653 14.024v9.106h-2.119V14.37zM29.214 14.024v9.106h-2.12V14.37zM53.344 19.396h-5.498c.067.851.286 1.46.663 1.823.375.366.872.547 1.49.547.386 0 .75-.063 1.092-.19a5.086 5.086 0 0 0 1.093-.59l.877 1.21c-.97.785-2.053 1.177-3.245 1.177-1.336 0-2.366-.409-3.089-1.227-.723-.817-1.083-1.933-1.083-3.348 0-.894.154-1.7.463-2.411.31-.713.757-1.27 1.34-1.674.586-.404 1.281-.606 2.088-.606 1.225 0 2.174.39 2.848 1.169.673.779 1.01 1.865 1.01 3.258 0 .11-.016.397-.05.861zm-2.054-1.474c0-1.537-.569-2.304-1.705-2.304-.519 0-.925.19-1.218.572-.292.382-.466.992-.521 1.832h3.444v-.1zM38.687 10.614v10.441c0 .24.17.433.379.433h.335v1.89h-1.029c-.994 0-1.799-.921-1.799-2.06V10.874l2.115-.261zM33.795 10.614v10.441c0 .24.17.434.38.434h.334v1.89h-1.028c-.994 0-1.8-.922-1.8-2.061V10.875l2.116-.261z"/></g><defs><clipPath id="a"><path fill="#fff" d="M0 0h64v32H0z"/></clipPath></defs></svg>