<svg xmlns="http://www.w3.org/2000/svg" width="640" height="360" viewBox="0 0 169.333 95.25"><defs><clipPath id="a" clipPathUnits="userSpaceOnUse"><path d="M0 0h595.276v841.89H0Z"/></clipPath><clipPath id="b" clipPathUnits="userSpaceOnUse"><path d="M0 0h595.276v841.89H0Z"/></clipPath></defs><g clip-path="url(#a)" transform="matrix(.96236 0 0 -.96236 -226.704 791.657)"><path d="M0 0h-9.632q0 2.37-.555 3.181-.86 1.197-4.745 1.198c-2.513 0-4.181-.23-4.994-.69q-1.22-.693-1.221-3.014 0-2.102 1.083-2.765.777-.47 2.054-.553l1.943-.136q6.244-.417 7.799-.582 4.939-.498 7.161-2.626Q.64-7.647.975-10.327q.193-1.606.193-3.622 0-4.647-.887-6.802-1.608-3.956-7.23-5.003-2.357-.444-7.204-.443-8.092-.001-11.276.965-3.906 1.188-5.153 4.804-.693 2.015-.692 6.709h9.63l.001-.8q0-2.505 1.44-3.222.995-.493 2.408-.525h3.541q2.71 0 3.457.28 1.328.52 1.744 1.683.221.717.221 1.852 0 2.54-1.854 3.093-.692.22-6.441.608-4.619.33-6.414.637-4.731.881-6.304 3.644-1.384 2.348-1.383 7.099 0 3.618.748 5.8.746 2.183 2.41 3.315 2.436 1.74 6.229 2.044 3.156.276 7.007.277 6.065 0 8.641-.693Q.093 9.686.093 1.91.093 1.272 0 0" style="fill:#273e6d;fill-opacity:1;fill-rule:nonzero;stroke:none" transform="translate(284.441 780.098)"/><path d="M0 0v38.467h19.289q3.969 0 6.051-.647 4.757-1.491 6.391-6.105.844-2.422.844-7.291-.002-5.851-.929-8.413c-1.238-3.376-3.784-5.321-7.629-5.824q-.678-.116-5.773-.199l-1.719-.056h-6.172V0Zm10.353 18.856h6.454q3.069.108 3.739.476.919.506 1.226 2.02.198 1.009.197 3.002c0 1.627-.13 2.831-.391 3.62q-.558 1.654-2.677 2.019-.419.056-2.006.057h-6.542z" style="fill:#273e6d;fill-opacity:1;fill-rule:nonzero;stroke:none" transform="translate(326.796 753.9)"/></g><path d="M0 0h-13.842l-1.859-6.648h-10.712l11.558 38.466H.762l11.7-38.466H1.976Zm-2.056 7.494-4.85 16.674-4.708-16.674z" style="fill:#273e6d;fill-opacity:1;fill-rule:nonzero;stroke:none" transform="matrix(.96236 0 0 -.96236 140.407 59.736)"/><g clip-path="url(#b)" transform="matrix(.96236 0 0 -.96236 -226.704 791.657)"><path d="M0 0c4.271 0 8.082-1.968 10.586-5.048l2.232 4.784c-3.491 3.3-8.24 5.333-13.48 5.333-8.157 0-15.136-4.927-18-11.9h-4.352l-2.57-5.51h5.599a19 19 0 0 1-.07-1.544q.002-.947.096-1.872h-2.813l-2.569-5.51h6.813c2.946-6.798 9.837-11.57 17.866-11.57a19.6 19.6 0 0 1 10.911 3.283v6.754C7.745-25.651 4.083-27.452 0-27.452c-4.772 0-8.97 2.461-11.414 6.185H2.853l2.569 5.51h-18.936a14 14 0 0 0-.08 3.416H7.015l2.569 5.51h-21.395C-9.445-2.748-5.043 0 0 0" style="fill:#f47216;fill-opacity:1;fill-rule:nonzero;stroke:none" transform="translate(312.506 786.956)"/><path d="M0 0a13.43 13.43 0 0 0 10.458-4.988l.167-.205.112.239 2.231 4.786.051.107-.086.083C9.264 3.49 4.436 5.399-.662 5.399A19.75 19.75 0 0 1-11.74 2.035c-3.19-2.148-5.635-5.137-7.074-8.639l.152.103h-4.457l-.045-.096-2.568-5.509-.11-.236h5.857l-.164.18c-.048-.572-.07-1.08-.07-1.558 0-.618.032-1.255.096-1.887l.164.18h-2.918l-.044-.095-2.57-5.509-.109-.237h7.072l-.152.101c3.073-7.089 10.145-11.671 18.018-11.671 3.947 0 7.751 1.145 11.002 3.312l.073.048v7.282l-.289-.33A13.48 13.48 0 0 0 0-27.121c-4.551 0-8.767 2.285-11.277 6.111l-.137-.258H2.958l.045.095 2.569 5.511.11.235h-19.196l.164-.14a14 14 0 0 0-.079 3.375l-.165-.15H7.121l.044.096 2.568 5.51.112.235h-21.656l.141-.249C-9.257-2.586-4.785 0 0 0m-11.811-6.832H9.584l-.15.235-2.569-5.509.15.095h-20.758l-.016-.149a14.21 14.21 0 0 1 .082-3.456l.023-.142H5.422l-.149.236-2.569-5.509.149.094h-14.574l.169-.254C-8.981-25.112-4.662-27.45 0-27.45c3.964 0 7.745 1.714 10.374 4.706l-.291.109v-6.754l.073.137A19.44 19.44 0 0 0-.662-32.507c-7.742 0-14.695 4.503-17.713 11.472l-.044.098h-6.922l.151-.236 2.568 5.511-.15-.096h2.996l-.019.184a19 19 0 0 0-.095 1.854c0 .468.023.968.07 1.531l.014.178h-5.778l.15-.235 2.569 5.51-.149-.096h4.463l.041.103c1.415 3.442 3.82 6.377 6.955 8.491A19.43 19.43 0 0 0-.662 5.068c5.013 0 9.759-1.877 13.367-5.286l-.038.191-2.229-4.787.277.035A13.76 13.76 0 0 1 0 .33c-4.903 0-9.484-2.648-11.955-6.914l-.145-.248Z" style="fill:#273e6d;fill-opacity:1;fill-rule:nonzero;stroke:none" transform="translate(312.506 786.79)"/></g></svg>