<svg xmlns="http://www.w3.org/2000/svg" width="51" height="32"><g fill="none" fill-rule="evenodd"><path fill="#FFF" stroke="#D0D0D0" d="M.5.5h50v31H.5z"/><path fill="#016FD0" d="M14 28h24V4H14z"/><path fill="#FFF" d="M18.659 20.724v-3.768h3.99l.428.558.442-.558H38v3.508s-.379.256-.817.26h-8.018l-.483-.594v.594h-1.581V19.71s-.216.141-.683.141h-.539v.873h-2.394l-.428-.57-.434.57H18.66M14 14.116l.9-2.097h1.555l.511 1.174V12.02H18.9l.304.849.295-.85h8.682v.427s.456-.426 1.206-.426l2.818.01.501 1.159v-1.17h1.619l.445.667v-.666h1.634v3.768H34.77l-.427-.669v.669h-2.378l-.239-.594h-.64l-.234.594h-1.613c-.646 0-1.058-.419-1.058-.419v.419h-2.432l-.482-.594v.594h-9.042l-.239-.594h-.637l-.237.594H14v-1.671"/><path fill="#016FD0" d="m15.218 12.483-1.213 2.821h.79l.224-.565h1.301l.223.565h.807l-1.212-2.82h-.92Zm.45.657.396.987h-.795l.398-.987ZM17.434 15.304v-2.821l1.123.004.652 1.819.638-1.823h1.114v2.821h-.706v-2.079l-.748 2.079h-.618l-.75-2.079v2.079h-.705M21.443 15.304v-2.821h2.302v.631h-1.589v.482h1.552v.594h-1.552v.501h1.589v.613h-2.302M24.153 12.483v2.821h.705v-1.002h.297l.846 1.002h.862l-.928-1.04a.86.86 0 0 0 .774-.866c0-.593-.466-.915-.986-.915h-1.57Zm.705.631h.807c.193 0 .334.151.334.297 0 .188-.182.297-.324.297h-.817v-.594ZM26.997 15.304h.72v-2.821h-.72zM29.425 15.304h-.156c-.752 0-1.209-.593-1.209-1.4 0-.826.452-1.421 1.402-1.421h.78v.668h-.809c-.385 0-.658.3-.658.76 0 .547.312.777.761.777h.186l-.297.616m1.534-2.82-1.213 2.82h.79l.224-.565h1.301l.223.565h.808l-1.213-2.82h-.92zm.45.656.396.987h-.795l.398-.987zM33.174 15.304v-2.821h.897l1.145 1.772v-1.772h.705v2.821h-.868l-1.174-1.819v1.819h-.705M19.141 20.241V17.42h2.302v.631h-1.589v.483h1.552v.594h-1.552v.501h1.589v.612h-2.302M30.419 20.241V17.42h2.302v.631h-1.589v.483h1.545v.594h-1.545v.501h1.589v.612h-2.302M21.532 20.241l1.121-1.393-1.147-1.428h.888l.684.883.685-.883h.854l-1.132 1.411 1.123 1.41h-.889l-.663-.869-.648.869h-.876M24.691 17.42v2.822h.724v-.891h.743c.628 0 1.104-.333 1.104-.982 0-.537-.373-.949-1.013-.949h-1.558zm.724.639h.782c.203 0 .348.124.348.324 0 .189-.144.325-.35.325h-.78v-.65zm2.153-.64v2.822h.706V19.24h.297l.845 1.002h.862l-.928-1.04a.86.86 0 0 0 .774-.866c0-.593-.466-.915-.986-.915h-1.57zm.706.632h.806c.193 0 .334.151.334.297 0 .187-.182.297-.324.297h-.816v-.594zm4.774 2.19v-.612h1.411c.21 0 .3-.113.3-.237 0-.119-.09-.238-.3-.238h-.638c-.554 0-.863-.338-.863-.845 0-.453.283-.889 1.107-.889h1.374l-.298.635h-1.187c-.227 0-.297.119-.297.233 0 .117.086.246.26.246h.668c.618 0 .886.35.886.81 0 .493-.299.897-.92.897h-1.503m2.589 0v-.612h1.351c.21 0 .3-.113.3-.237 0-.119-.09-.238-.3-.238h-.578c-.554 0-.863-.338-.863-.845 0-.453.283-.889 1.107-.889H38l-.297.635h-1.16c-.228 0-.298.119-.298.233 0 .117.087.246.26.246h.609c.618 0 .886.35.886.81 0 .493-.299.897-.92.897h-1.443"/></g></svg>