<svg xmlns="http://www.w3.org/2000/svg" width="640" height="360"><g fill="none" fill-rule="nonzero"><path fill="#016FD0" d="M164.167 335.834h311.667V24.167H164.167z"/><path fill="#FFF" d="M224.668 241.345v-48.93h51.81l5.558 7.245 5.743-7.245h188.055v45.555s-4.918 3.327-10.606 3.375H361.097l-6.266-7.714v7.714h-20.537v-13.166s-2.805 1.837-8.87 1.837h-6.99v11.329h-31.095l-5.55-7.4-5.637 7.4zm-60.501-85.81 11.684-27.238h20.203l6.632 15.257v-15.257H227.8l3.947 11.027 3.827-11.027h112.747v5.544s5.927-5.544 15.668-5.544l36.583.128 6.516 15.057v-15.185h21.018l5.785 8.65v-8.65h21.212v48.931h-21.212l-5.544-8.676v8.676h-30.881l-3.106-7.714h-8.301l-3.055 7.714h-20.944c-8.382 0-13.739-5.431-13.739-5.431v5.431h-31.575l-6.268-7.714v7.714H193.062l-3.105-7.714h-8.274l-3.08 7.714h-14.436z"/><path fill="#016FD0" d="m179.986 134.329-15.758 36.638h10.259l2.907-7.336h16.903l2.893 7.336h10.486L191.93 134.33zm5.83 8.528 5.15 12.82h-10.319zM208.76 170.96v-36.636l14.579.054L231.818 158l8.276-23.676h14.463v36.638h-9.159v-26.997l-9.71 26.997h-8.033l-9.736-26.997v26.997zM260.825 170.96v-36.636h29.889v8.195H270.08v6.266h20.151v7.714H270.08v6.509h20.634v7.952zM296.016 134.329v36.638h9.16v-13.015h3.857l10.981 13.015h11.194l-12.05-13.498c4.944-.418 10.047-4.663 10.047-11.253 0-7.71-6.052-11.887-12.806-11.887zm9.16 8.195h10.47c2.512 0 4.339 1.965 4.339 3.858 0 2.433-2.367 3.856-4.203 3.856h-10.607zM332.943 170.962h9.354v-36.638h-9.354zM364.472 170.96h-2.017c-9.77 0-15.7-7.694-15.7-18.168 0-10.732 5.865-18.468 18.2-18.468h10.124V143h-10.495c-5.007 0-8.548 3.908-8.548 9.884 0 7.095 4.05 10.075 9.883 10.075h2.41zm19.93-36.631-15.757 36.638h10.259l2.908-7.336h16.903l2.894 7.336h10.484L396.35 134.33zm5.83 8.528 5.154 12.82h-10.32zM413.163 170.96v-36.636h11.644l14.87 23.018v-23.018h9.159v36.636h-11.268l-15.246-23.621v23.621zM230.935 235.079v-36.64h29.89v8.197h-20.634v6.266h20.151v7.714h-20.151v6.508h20.634v7.955zM377.392 235.079v-36.64h29.889v8.197h-20.632v6.266h20.054v7.714h-20.054v6.508h20.632v7.955zM261.984 235.079l14.553-18.094-14.898-18.544h11.539l8.873 11.464 8.904-11.464h11.088l-14.704 18.319 14.579 18.319H290.38l-8.614-11.284-8.408 11.284zM303.008 198.446v36.64h9.4v-11.572h9.64c8.16 0 14.343-4.327 14.343-12.744 0-6.974-4.85-12.324-13.151-12.324zm9.4 8.287h10.153c2.636 0 4.52 1.613 4.52 4.218 0 2.444-1.876 4.217-4.55 4.217h-10.123zm27.96-8.294v36.64h9.16V222.06h3.857l10.981 13.018h11.194l-12.053-13.499c4.947-.417 10.05-4.663 10.05-11.255 0-7.708-6.052-11.884-12.806-11.884zm9.16 8.197h10.47c2.512 0 4.339 1.965 4.339 3.856 0 2.434-2.367 3.857-4.204 3.857h-10.606zm61.995 28.443v-7.955h18.331c2.713 0 3.887-1.466 3.887-3.073 0-1.541-1.17-3.098-3.887-3.098h-8.283c-7.2 0-11.21-4.387-11.21-10.972 0-5.875 3.673-11.54 14.371-11.54h17.838l-3.858 8.243h-15.425c-2.949 0-3.858 1.548-3.858 3.025 0 1.519 1.122 3.193 3.375 3.193h8.678c8.027 0 11.509 4.554 11.509 10.517 0 6.41-3.88 11.66-11.946 11.66zm33.618 0v-7.955h17.556c2.711 0 3.887-1.466 3.887-3.073 0-1.541-1.172-3.098-3.887-3.098h-7.508c-7.201 0-11.211-4.387-11.211-10.972 0-5.875 3.672-11.54 14.373-11.54h17.483l-3.856 8.243h-15.073c-2.95 0-3.858 1.548-3.858 3.025 0 1.519 1.122 3.193 3.375 3.193h7.9c8.028 0 11.512 4.554 11.512 10.517 0 6.41-3.882 11.66-11.948 11.66z"/></g></svg>