<svg width="640" height="360" xmlns="http://www.w3.org/2000/svg"><path d="M568.983 277.091H71.104A7.062 7.062 0 0 1 64 269.986V90.105A7.062 7.062 0 0 1 71.104 83h497.789a7.064 7.064 0 0 1 7.105 7.105v179.881c.088 3.957-3.149 7.105-7.015 7.105Z"/><path d="M224.627 214.809c0 1.87-1.345 4.186-2.959 5.077l-57.663 33.045c-1.614.98-4.305.98-5.919 0l-57.663-33.045c-1.614-.98-2.959-3.207-2.959-5.077v-66.18c0-1.871 1.345-4.187 2.959-5.078l57.663-33.045c1.614-.98 4.305-.98 5.919 0l57.663 33.045c1.614.98 2.959 3.207 2.959 5.078Z" fill="#fff"/><g fill="#fff"><path d="M541.995 152.217h-51.802v12.064h18.526v51.782h14.661v-51.782h18.615ZM306.727 152.217h-51.802v12.064h18.616v51.782h14.661v-51.782h18.525ZM456.647 150.192c-16.278 0-25.361 10.215-25.361 24.922v40.949h14.479v-41.301c0-6.429 3.867-11.36 11.062-11.36 7.105 0 10.972 5.812 10.972 11.36v41.301h14.479v-40.949c0-14.707-9.353-24.922-25.631-24.922ZM401.879 152.217v63.846h14.567v-63.846ZM352.774 177.579l.538 2.818 13.58 35.666h5.937l18.525-63.846h-14.299l-8.905 33.554-.448 3.607-.72-3.607-11.873-33.554h-4.674l-11.783 33.554-.72 3.607-.538-3.607-8.815-33.554H314.28l18.529 63.846h5.933l13.58-35.666Z"/></g><defs><radialGradient id="a" gradientUnits="userSpaceOnUse" cx="200.628" cy="231.494" r="144.851" fx="200.628" fy="231.494"><stop offset="0" stop-color="#fc0"/><stop offset=".092" stop-color="#ffc800"/><stop offset=".174" stop-color="#ffbd00"/><stop offset=".253" stop-color="#ffab00"/><stop offset=".33" stop-color="#ff9100"/><stop offset=".405" stop-color="#ff7000"/><stop offset=".479" stop-color="#ff4700"/><stop offset=".55" stop-color="#ff1800"/><stop offset=".582" stop-color="red"/><stop offset="1" stop-color="red"/></radialGradient></defs><path d="m187.826 180.474-14.793 21.108-7.618-11.326 8.77-12.699c1.594-2.231 5.138-8.495 1.063-16.989-3.278-6.865-10.364-10.211-16.565-10.211-6.2 0-13.021 3.089-16.564 10.211-4.075 8.151-.532 14.587.974 16.732 0 0 4.872 6.95 8.947 12.785l6.643 9.267 9.921 14.672c.089.086 1.683 2.403 4.429 2.403 2.658 0 4.252-2.317 4.518-2.574l23.297-33.379Zm-29.143.515s-3.897-5.749-6.378-9.696c-2.746-4.29.355-10.64 6.378-10.64 6.112 0 9.124 6.35 6.378 10.64-2.48 4.033-6.378 9.696-6.378 9.696Z" fill="url(#a)"/><defs><radialGradient id="b" gradientUnits="userSpaceOnUse" cx="159.26" cy="203.699" r="110.184" fx="159.26" fy="203.699"><stop offset="0" stop-color="#00b4e6"/><stop offset=".201" stop-color="#00b0e3"/><stop offset=".39" stop-color="#01a5db"/><stop offset=".574" stop-color="#0292cd"/><stop offset=".755" stop-color="#0377ba"/><stop offset=".932" stop-color="#0455a1"/><stop offset="1" stop-color="#054696"/></radialGradient></defs><path d="m144.333 200.896-14.616-19.821s-3.897-5.749-6.378-9.696c-2.746-4.29.355-10.64 6.378-10.64.798 0 1.506.086 2.126.258l5.138-9.096c-2.392-.943-4.872-1.458-7.264-1.458-6.2 0-13.021 3.089-16.564 10.21-4.075 8.152-.532 14.587.974 16.732l25.511 36.639c.178.343 1.861 2.66 4.518 2.66 2.746 0 4.252-2.231 4.518-2.574l7.706-11.326-6.643-9.439Z" fill="url(#b)"/></svg>