<svg width="51" height="32" xmlns="http://www.w3.org/2000/svg"><path d="M.5.5h50v31H.5Z" fill="#fff" stroke="#d0d0d0" stroke-linejoin="round" stroke-linecap="round"/><path d="M37.672 20.98H14.333a.33.33 0 0 1-.332-.333v-8.431c0-.186.147-.334.332-.334h23.334c.186 0 .333.148.333.334v8.431a.326.326 0 0 1-.328.333Z"/><path d="M21.53 18.061a.302.302 0 0 1-.139.238l-2.703 1.549a.295.295 0 0 1-.277 0l-2.703-1.549a.308.308 0 0 1-.139-.238v-3.102c0-.088.063-.196.139-.238l2.703-1.549a.295.295 0 0 1 .277 0l2.703 1.549c.076.046.139.15.139.238Z" fill="#fff"/><g fill="#fff"><path d="M36.407 15.127h-2.429v.565h.869v2.428h.687v-2.428h.873ZM25.378 15.127H22.95v.565h.873v2.428h.687v-2.428h.868ZM32.406 15.032c-.763 0-1.189.479-1.189 1.168v1.92h.679v-1.936c0-.302.181-.533.518-.533.333 0 .515.273.515.533v1.936h.678V16.2c0-.689-.438-1.168-1.201-1.168ZM29.839 15.127v2.993h.682v-2.993ZM27.537 16.316l.025.132.637 1.672h.278l.868-2.993h-.67l-.417 1.573-.021.169-.034-.169-.557-1.573h-.219l-.552 1.573-.034.169-.025-.169-.413-1.573h-.671l.869 2.993h.278l.637-1.672Z"/></g><defs><radialGradient id="a" gradientUnits="userSpaceOnUse" cx="20.405" cy="18.843" r="6.79" fx="20.405" fy="18.843"><stop offset="0" stop-color="#fc0"/><stop offset=".092" stop-color="#ffc800"/><stop offset=".174" stop-color="#ffbd00"/><stop offset=".253" stop-color="#ffab00"/><stop offset=".33" stop-color="#ff9100"/><stop offset=".405" stop-color="#ff7000"/><stop offset=".479" stop-color="#ff4700"/><stop offset=".55" stop-color="#ff1800"/><stop offset=".582" stop-color="red"/><stop offset="1" stop-color="red"/></radialGradient></defs><path d="m19.805 16.452-.694.989-.357-.531.411-.595a.759.759 0 0 0 .05-.797.866.866 0 0 0-.776-.478.858.858 0 0 0-.777.478.752.752 0 0 0 .046.785l.419.599.312.434.465.688c.004.004.079.113.207.113.125 0 .2-.109.212-.121l1.092-1.564Zm-1.366.024s-.183-.27-.299-.455c-.129-.201.016-.499.299-.499.286 0 .427.298.299.499-.117.189-.299.455-.299.455Z" fill="url(#a)"/><defs><radialGradient id="b" gradientUnits="userSpaceOnUse" cx="18.466" cy="17.54" r="5.165" fx="18.466" fy="17.54"><stop offset="0" stop-color="#00b4e6"/><stop offset=".201" stop-color="#00b0e3"/><stop offset=".39" stop-color="#01a5db"/><stop offset=".574" stop-color="#0292cd"/><stop offset=".755" stop-color="#0377ba"/><stop offset=".932" stop-color="#0455a1"/><stop offset="1" stop-color="#054696"/></radialGradient></defs><path d="m17.766 17.409-.685-.929s-.183-.27-.299-.455c-.129-.201.017-.499.299-.499.037 0 .071.005.1.013l.24-.427a.937.937 0 0 0-.34-.068.857.857 0 0 0-.776.478.755.755 0 0 0 .045.785l1.196 1.717c.008.016.087.125.212.125.129 0 .199-.105.212-.121l.361-.531-.312-.442Z" fill="url(#b)"/></svg>