<svg xmlns="http://www.w3.org/2000/svg" width="51" height="32"><path fill="#282828" d="M-2.6-1.867h95.2v59.733H-2.6z" style="stroke-width:1.06221;fill:#fff" transform="matrix(.53571 0 0 .53571 1.393 1)"/><path fill="#527a42" d="m78.21 24.265-3.13 4.12v3.35h-1.723v-3.35l-3.131-4.12h2.135l1.905 2.538 1.89-2.538zm-17.434 0v1.475h2.76v5.998h1.707v-6H68v-1.476zm-8.542 1.475h2.54c.756 0 1.107.286 1.107.89 0 .603-.351.889-1.106.889h-2.54zm5.75 5.998-1.962-2.879c1.05-.285 1.599-1.043 1.599-2.23 0-1.538-.93-2.36-2.66-2.36h-4.435v7.469h1.708v-2.75h1.883l1.85 2.747zm-18.905-7.47v7.47h6.733v-1.475H40.79v-1.55h4.315V27.24H40.79v-1.502h5.025v-1.475zm-5.357 0-2.197 5.523-2.211-5.525H27.46l3.142 7.47h1.752l3.142-7.47zM22.15 31.735h1.707v-7.47H22.15zm-10.359 0h1.708v-5.758H11.79zm1.708-5.756h5.737v-1.715h-5.737z" style="stroke-width:.0718826" transform="matrix(.53571 0 0 .53571 1.393 1)"/><path fill="#fff" stroke="#d0d0d0" d="M.5.5h50v31H.5z" style="display:inline;fill-rule:evenodd;fill:none"/></svg>