<svg xmlns="http://www.w3.org/2000/svg" width="640" height="360" fill="none"><path fill="#e7e4e2" d="m576 151.21-24.134 31.75v25.83H538.59v-25.83l-24.134-31.75h16.46L545.6 170.77l14.573-19.558zm-134.392 0v11.372h21.277v46.232h13.163v-46.257H497.3v-11.37zm-65.843 11.372h19.583c5.821 0 8.525 2.2 8.525 6.855 0 4.654-2.704 6.855-8.525 6.855h-19.583zm44.317 46.232-15.115-22.19c8.095-2.201 12.321-8.041 12.321-17.187 0-11.859-7.173-18.202-20.507-18.202h-34.18v57.579h13.164v-21.2h14.515l14.265 21.175zm-145.726-57.58v57.58h51.902v-11.371h-38.715v-11.94h33.267v-11.371h-33.267v-11.575h38.74v-11.37zm-41.29 0-16.936 42.57-17.05-42.585h-14.281l24.223 57.579h13.504l24.223-57.58zM143.85 208.79h13.164v-57.578H143.85zm-79.85 0h13.164v-44.38H64Zm13.164-44.372h44.228v-13.215H77.164Z" style="stroke-width:.554113;fill:#fff"/></svg>