<svg xmlns="http://www.w3.org/2000/svg" width="640" height="360"><g fill="none" fill-rule="nonzero"><g fill="#3C4043"><path d="M310.423 177.918v42.384H297.18V115.677h35.121c8.472-.167 16.697 3.087 22.701 9.094 12.009 11.347 12.749 30.453 1.48 42.718l-1.48 1.502c-6.169 5.923-13.736 8.927-22.7 8.927zm0-49.392v36.543h22.207c4.935.167 9.706-1.835 13.078-5.423 6.909-7.258 6.744-18.939-.411-25.947-3.373-3.338-7.896-5.173-12.667-5.173zm84.635 17.854c9.788 0 17.52 2.67 23.194 7.927 5.676 5.256 8.472 12.598 8.472 21.859v44.136h-12.666v-9.929h-.576c-5.51 8.177-12.749 12.265-21.879 12.265-7.731 0-14.311-2.336-19.493-7.009a22.26 22.26 0 0 1-7.814-17.52c0-7.426 2.797-13.266 8.308-17.688s12.913-6.591 22.125-6.591c7.896 0 14.311 1.502 19.41 4.338v-3.087a15.78 15.78 0 0 0-5.428-11.93c-3.536-3.171-8.06-4.923-12.748-4.923q-11.105 0-17.52 9.511l-11.68-7.425c6.252-9.261 15.71-13.934 28.295-13.934M377.95 198.36c0 3.504 1.645 6.758 4.36 8.76 2.96 2.336 6.58 3.588 10.28 3.504 5.593 0 10.94-2.252 14.888-6.257 4.359-4.172 6.58-9.094 6.58-14.768-4.113-3.337-9.87-5.005-17.273-4.922-5.346 0-9.87 1.335-13.489 3.921-3.537 2.587-5.346 5.84-5.346 9.762M499.433 148.717l-44.25 103.039h-13.654l16.45-36.043-29.034-66.996h14.394l20.974 51.394h.246l20.481-51.394z"/></g><path fill="#4285F4" d="M256.877 168.74a75 75 0 0 0-.987-12.18h-55.847v23.11h31.995c-1.316 7.426-5.593 14.1-11.844 18.272v15.018h19.082c11.186-10.43 17.601-25.864 17.601-44.22"/><path fill="#34A853" d="M200.043 227.477c15.956 0 29.445-5.34 39.233-14.517l-19.082-15.018c-5.346 3.671-12.173 5.757-20.151 5.757-15.463 0-28.541-10.596-33.23-24.78h-19.657v15.519c10.034 20.274 30.515 33.039 52.887 33.039"/><path fill="#FBBC04" d="M166.814 178.92c-2.468-7.426-2.468-15.52 0-23.028v-15.435h-19.658c-8.472 16.937-8.472 36.96 0 53.897z"/><path fill="#EA4335" d="M200.043 131.113c8.471-.167 16.614 3.087 22.7 9.01l16.944-17.187c-10.775-10.179-24.922-15.769-39.644-15.602-22.372 0-42.853 12.849-52.887 33.123l19.658 15.518c4.688-14.267 17.766-24.862 33.229-24.862"/></g></svg>