<svg xmlns="http://www.w3.org/2000/svg" width="51" height="32"><g fill="none" fill-rule="evenodd"><path fill="#FFF" stroke="#D0D0D0" d="M.5.5h50v31H.5z"/><g fill-rule="nonzero"><g fill="#3C4043"><path d="M25.201 15.826v3.532h-1.103V10.64h2.927a2.6 2.6 0 0 1 1.891.757c1.001.946 1.063 2.538.124 3.56l-.124.125q-.77.743-1.891.744zm0-4.116v3.046h1.851c.411.013.809-.153 1.09-.452a1.55 1.55 0 0 0-.034-2.163 1.5 1.5 0 0 0-1.056-.43zm7.053 1.488c.816 0 1.46.223 1.933.66.473.439.706 1.05.706 1.822v3.678h-1.055v-.827h-.048c-.46.681-1.063 1.022-1.824 1.022-.644 0-1.192-.195-1.624-.584a1.86 1.86 0 0 1-.651-1.46c0-.619.233-1.106.692-1.474q.691-.552 1.844-.55c.658 0 1.193.126 1.617.362v-.257c0-.383-.164-.744-.452-.994a1.6 1.6 0 0 0-1.062-.41q-.926 0-1.46.792l-.974-.619c.521-.772 1.31-1.16 2.358-1.16M30.83 17.53c0 .292.137.563.363.73.247.194.548.299.857.292a1.74 1.74 0 0 0 1.24-.522q.547-.521.549-1.23c-.343-.278-.823-.418-1.44-.41q-.67.001-1.124.326-.444.324-.445.814M40.952 13.393l-3.687 8.586h-1.138l1.371-3.003-2.42-5.583h1.2l1.748 4.283h.02l1.707-4.283z"/></g><path fill="#4285F4" d="M20.74 15.062c0-.341-.028-.682-.082-1.015h-4.654v1.926h2.666a2.32 2.32 0 0 1-.987 1.522v1.252h1.59c.932-.87 1.467-2.156 1.467-3.685"/><path fill="#34A853" d="M16.004 19.956c1.33 0 2.453-.445 3.269-1.21l-1.59-1.25c-.446.305-1.015.479-1.68.479-1.288 0-2.378-.883-2.769-2.065h-1.638v1.293a4.92 4.92 0 0 0 4.408 2.753"/><path fill="#FBBC04" d="M13.234 15.91a3.06 3.06 0 0 1 0-1.919v-1.286h-1.638a5.03 5.03 0 0 0 0 4.491z"/><path fill="#EA4335" d="M16.004 11.926a2.64 2.64 0 0 1 1.891.75l1.412-1.431a4.73 4.73 0 0 0-3.303-1.3 4.93 4.93 0 0 0-4.408 2.76l1.638 1.293c.391-1.189 1.481-2.072 2.77-2.072"/></g></g></svg>