<svg width="122" height="80" xmlns="http://www.w3.org/2000/svg"><g fill-rule="nonzero" fill="none"><path d="M36.435 3.4C16.373 3.4 0 19.773 0 39.835S16.373 76.27 36.435 76.27h49.118c20.063 0 36.435-16.373 36.435-36.435S105.616 3.4 85.553 3.4H36.435Z" fill="#FFF"/><path d="M94.316 37.53 110.69 56.9c3.459-4.843 5.304-10.839 5.304-17.296 0-6.687-2.306-12.913-5.996-17.986l-15.68 15.911Zm-46.35-17.296c12.221 0 21.445 2.998 22.368 13.375l12.683-13.375h25.597c-5.535-6.457-13.837-10.608-23.06-10.608H36.434c-9.224 0-17.526 4.151-23.06 10.608h34.59ZM27.902 33.148 23.52 45.139h17.526c5.304 0 6.688-2.075 7.84-6.226 1.154-4.151-1.844-5.765-5.303-5.765H27.903Zm55.344 25.596L69.642 41.68c-2.537 11.76-10.838 17.064-26.058 17.064h-30.67c5.534 6.919 14.066 11.53 23.752 11.53h49.118c9.685 0 18.218-4.38 23.752-11.53H83.247Z" fill="#E21E27"/></g></svg>