<svg xmlns="http://www.w3.org/2000/svg" width="51" height="32"><g fill="none" fill-rule="evenodd"><path fill="#FFF" stroke="#D0D0D0" d="M.5.5h50v31H.5z"/><g transform="translate(10 7.067)" fill-rule="nonzero"><rect width="32" height="17.778" fill="#FFB3C7" rx="4.321"/><path fill="#0A0B09" d="M29.01 10.415a.761.761 0 0 0-.759.765c0 .422.34.765.758.765a.762.762 0 0 0 .758-.765.762.762 0 0 0-.758-.765Zm-2.495-.592c0-.578-.49-1.047-1.094-1.047-.605 0-1.095.469-1.095 1.047 0 .579.49 1.048 1.095 1.048.604 0 1.094-.47 1.094-1.048Zm.004-2.035h1.208v4.07h-1.208v-.26a2.104 2.104 0 0 1-1.197.373 2.138 2.138 0 0 1-2.129-2.148c0-1.186.953-2.147 2.129-2.147.444 0 .856.138 1.197.372v-.26Zm-9.665.53v-.53h-1.237v4.07h1.24v-1.9c0-.641.688-.986 1.166-.986h.014V7.789c-.49 0-.941.212-1.183.53Zm-3.08 1.505c0-.578-.49-1.047-1.095-1.047-.604 0-1.094.469-1.094 1.047 0 .579.49 1.048 1.094 1.048.605 0 1.095-.47 1.095-1.048Zm.004-2.035h1.207v4.07h-1.207v-.26a2.104 2.104 0 0 1-1.198.373 2.138 2.138 0 0 1-2.128-2.148c0-1.186.953-2.147 2.128-2.147.444 0 .856.138 1.198.372v-.26Zm7.27-.11c-.483 0-.94.152-1.245.569v-.459H18.6v4.07h1.218V9.72c0-.62.411-.923.906-.923.531 0 .836.32.836.914v2.148h1.207V9.27c0-.947-.747-1.591-1.72-1.591Zm-12.356 4.18h1.265V5.975H8.692v5.885Zm-5.553.002h1.339V5.973H3.139v5.887Zm4.682-5.887c0 1.275-.492 2.46-1.37 3.341l1.851 2.546H6.65L4.638 9.094l.519-.393a3.39 3.39 0 0 0 1.354-2.728h1.31Z"/></g></g></svg>