<svg xmlns="http://www.w3.org/2000/svg" width="640" height="360"><g fill="none" fill-rule="nonzero" transform="translate(140 79.5)"><rect width="360" height="200" fill="#FFB3C7" rx="4.321"/><path fill="#0A0B09" d="M326.349 117.17c-4.71 0-8.528 3.853-8.528 8.606 0 4.752 3.818 8.606 8.528 8.606s8.529-3.854 8.529-8.606c0-4.753-3.819-8.606-8.529-8.606m-28.058-6.653c0-6.507-5.512-11.78-12.312-11.78s-12.312 5.273-12.312 11.78S279.18 122.3 285.98 122.3s12.312-5.276 12.312-11.783m.045-22.897h13.588v45.793h-13.588v-2.927a23.67 23.67 0 0 1-13.47 4.195c-13.224 0-23.946-10.819-23.946-24.164s10.722-24.163 23.947-24.163c4.997 0 9.63 1.552 13.47 4.195zM189.6 93.584V87.62h-13.91v45.793h13.942v-21.38c0-7.213 7.747-11.09 13.124-11.09.055 0 .106.005.161.006V87.624c-5.518 0-10.593 2.384-13.317 5.961m-34.652 16.933c0-6.507-5.513-11.78-12.312-11.78-6.8 0-12.312 5.273-12.312 11.78s5.512 11.783 12.312 11.783 12.312-5.276 12.312-11.783m.044-22.897h13.588v45.793h-13.588v-2.926a23.67 23.67 0 0 1-13.468 4.194c-13.226 0-23.948-10.818-23.948-24.164s10.722-24.163 23.948-24.163c4.997 0 9.63 1.553 13.468 4.195zm81.784-1.232c-5.427 0-10.564 1.7-13.999 6.392v-5.158h-13.529v45.792h13.696v-24.065c0-6.964 4.627-10.374 10.2-10.374 5.971 0 9.404 3.6 9.404 10.28v24.159h13.572v-29.121c0-10.657-8.397-17.904-19.344-17.904zM97.784 133.414h14.222V67.213H97.784zm-62.472.018H50.37V67.2H35.31zM87.984 67.2c0 14.339-5.538 27.677-15.405 37.592l20.816 28.642h-18.6l-22.623-31.128 5.839-4.412c9.682-7.319 15.236-18.506 15.236-30.694z"/></g></svg>