<svg xmlns="http://www.w3.org/2000/svg" width="51" height="32"><g fill="none" fill-rule="evenodd"><path fill="#FFF" stroke="#D0D0D0" d="M.5.5h50v31H.5z"/><g fill-rule="nonzero"><path fill="#78A22F" d="M9.495 12.497a2.1 2.1 0 0 0-.84 0C7.652 12.7 7 13.495 7 14.523v3.224a.6.6 0 0 0 .056.3l.005.005a.36.36 0 0 0 .524.122c.169-.112.189-.305.189-.443v-1.298h2.607v1.308c0 .158.046.25.071.306a.37.37 0 0 0 .316.188.34.34 0 0 0 .209-.066c.153-.102.173-.27.173-.443v-3.208c-.005-1.028-.652-1.818-1.655-2.021m.881 2.031v1.182H7.779v-1.182c0-.509.178-.865.57-1.12.275-.193.637-.265.993-.198q.26.046.459.193l.005.005c.387.26.57.616.57 1.12m8.483 1.95a.36.36 0 0 0-.214-.183.39.39 0 0 0-.29.03c-.178.087-.214.28-.224.347l-.03.163-.006.051c-.117.504-.524.78-1.044.703-.336-.051-.784-.23-.784-1.156v-.061h1.019c.122 0 .494 0 .494-.367 0-.183-.138-.336-.3-.346-.077-.01-.143-.01-.22-.01h-.993v-1.41a.6.6 0 0 0-.056-.301v-.005a.36.36 0 0 0-.524-.122c-.153.101-.173.27-.173.442v2.103c0 1.197.433 1.798 1.405 1.956q.168.03.336.03a1.63 1.63 0 0 0 1.61-1.227q.02-.09.035-.173v-.005c.03-.219.02-.341-.04-.458m4.975-1.002c-.326-1.217-1.568-1.92-2.831-1.604-.647.163-1.171.555-1.477 1.105-.305.55-.361 1.206-.158 1.848.306.942 1.177 1.533 2.17 1.533.178 0 .366-.02.55-.062.28-.06.554-.178.799-.336.183-.122.336-.254.417-.356.128-.153.204-.275.189-.418a.36.36 0 0 0-.138-.244.36.36 0 0 0-.285-.066l-.015.005a.55.55 0 0 0-.234.132l-.067.082-.096.086-.005.005a1.5 1.5 0 0 1-.754.418 1.53 1.53 0 0 1-1.782-.952q-.03-.091-.051-.168h3.33l.071-.01.112-.006q.184-.014.275-.142c.112-.158.107-.392-.02-.85m-3.727.127a1.53 1.53 0 0 1 1.924-1.024 1.55 1.55 0 0 1 1.09 1.238l-3.065-.026c.01-.066.03-.122.05-.188m5.957-1.838c.754-.005 1.365.427 1.63 1.16l.015.046c.015.051.036.107.05.174.052.25.077.55-.157.677a.4.4 0 0 1-.474-.082l-.015-.02c-.05-.071-.092-.183-.168-.55a.9.9 0 0 0-.188-.341.89.89 0 0 0-.886-.285c-.51.102-.728.438-.728 1.13v2.052c0 .153 0 .336-.158.443a.34.34 0 0 1-.209.066.368.368 0 0 1-.316-.188.6.6 0 0 1-.071-.306v-2.067c0-1.309.713-1.741 1.314-1.874.117-.025.229-.035.361-.035m-12.7 0c.755-.005 1.366.427 1.63 1.16l.016.046q.029.075.05.174c.051.25.077.55-.162.677a.4.4 0 0 1-.474-.082l-.015-.02c-.051-.071-.092-.183-.168-.55a.9.9 0 0 0-.189-.341.89.89 0 0 0-.886-.285c-.504.107-.723.438-.728 1.11h1.09q.252 0 .366.122c.041.046.092.127.087.26-.01.157-.097.34-.453.34h-1.085l.016.861v.49c0 .167-.02.34-.174.442a.34.34 0 0 1-.208.066.368.368 0 0 1-.316-.188c-.025-.056-.071-.148-.071-.306v-2.067c0-1.309.713-1.741 1.313-1.874.118-.025.224-.035.362-.035"/><path fill="#685446" d="M32.19 13.154a1.96 1.96 0 0 0-1.553-.703c-1.146.015-1.92.845-1.92 2.067v3.223c0 .148.036.235.071.306a.37.37 0 0 0 .316.188.34.34 0 0 0 .209-.066c.158-.107.178-.285.178-.443v-1.461h1.115c1.054 0 1.772-.55 1.97-1.507a1.9 1.9 0 0 0-.386-1.604m-.357 1.222c-.015.687-.519 1.16-1.232 1.16h-.015l-1.085-.015v-1.069c0-.479.072-.703.3-.937.225-.234.52-.346.871-.341.688.015 1.166.51 1.161 1.202m5.581 1.466a2.158 2.158 0 0 0-1.125-1.787 2.37 2.37 0 0 0-1.818-.183c-.81.239-1.42.89-1.589 1.71-.25 1.233.443 2.383 1.61 2.684.213.056.432.081.646.081.326 0 .642-.066.927-.193a1.9 1.9 0 0 0 .606-.423v.01c0 .138 0 .22.04.3l.006.006a.36.36 0 0 0 .524.122c.158-.107.183-.285.183-.443V15.93zM35.5 17.58c-.84.193-1.62-.265-1.844-1.09v-.005a1.4 1.4 0 0 1-.06-.321c-.047-.728.391-1.385 1.068-1.594.163-.05.331-.076.494-.076.316 0 .617.091.876.275.392.275.627.723.642 1.227.03.779-.438 1.415-1.176 1.584m5.957-3.499-.158.077zl-.005-.01a.36.36 0 0 0-.524-.122c-.153.102-.168.275-.168.443v2.052c0 .402-.123.728-.342.922-.193.168-.453.234-.753.193-.52-.071-.805-.443-.805-1.049v-2.128a.7.7 0 0 0-.05-.306.36.36 0 0 0-.524-.122c-.159.107-.184.285-.184.443v2.128c0 .85.387 1.452 1.094 1.696.545.188 1.14.097 1.553-.209v.016c-.066.448-.295.718-.702.824a.87.87 0 0 1-.616-.04.8.8 0 0 1-.306-.24l-.112-.142-.071-.082a.5.5 0 0 0-.102-.107l-.02-.02-.02-.01a.36.36 0 0 0-.337-.015.37.37 0 0 0-.214.27c-.025.162.041.3.158.478l.005.005c.087.122.204.245.331.346.275.22.637.331 1.019.331q.243 0 .488-.06c.82-.21 1.273-.866 1.273-1.849v-3.335c.005-.158-.04-.245-.066-.3m1.355-.494a.54.54 0 0 1-.398.168.53.53 0 0 1-.397-.168.56.56 0 0 1-.163-.397.558.558 0 0 1 .958-.397c.112.107.163.24.163.397a.56.56 0 0 1-.163.397m-.744-.743a.48.48 0 0 0 0 .687.46.46 0 0 0 .341.143c.133 0 .25-.046.341-.143a.49.49 0 0 0 .143-.346.45.45 0 0 0-.143-.341.482.482 0 0 0-.682 0m.331.03q.115 0 .168.02c.061.026.097.077.097.159q0 .084-.061.122a.2.2 0 0 1-.092.03q.07.015.107.062c.02.03.036.066.036.096v.092q-.001.023.005.03l.005.006h-.102v-.082q-.001-.105-.056-.142c-.025-.016-.061-.02-.122-.02h-.087v.244h-.112v-.616zm.117.102a.3.3 0 0 0-.132-.025h-.092v.224h.097a.3.3 0 0 0 .102-.015.1.1 0 0 0 .066-.097c0-.04-.01-.071-.04-.087"/></g></g></svg>