<svg xmlns="http://www.w3.org/2000/svg" width="51" height="32"><g fill="none" fill-rule="evenodd"><path fill="#FFF" stroke="#D0D0D0" d="M.5.5h50v31H.5z"/><path fill="#2C3341" fill-rule="nonzero" d="M28.815 20.56q.081.177.102.361l.008.124v.513c0 1.305-2.334 2.364-5.211 2.364-2.791 0-5.07-.996-5.205-2.246l-.006-.118v-.513q0-.25.11-.484c.492 1.073 2.588 1.88 5.1 1.88 2.513 0 4.61-.807 5.102-1.88M11.11 19.136c.492 1.073 2.589 1.88 5.1 1.88q.569 0 1.102-.054l.351-.04v.628q.001.432.194.826c-.517.078-1.07.12-1.646.12-2.79 0-5.07-.994-5.205-2.245L11 20.132v-.513q.001-.25.11-.484m25.928-5.887c.222 0 .434.09.587.25l3.148 3.273a.815.815 0 0 1 0 1.13l-3.148 3.272a.815.815 0 0 1-1.402-.564v-1.746h-5.296a.95.95 0 0 1-.95-.95v-1.12a.95.95 0 0 1 .95-.951h5.296v-1.78c0-.45.365-.814.815-.814m-8.223 4.665q.081.175.102.36l.008.124v.513c0 1.305-2.334 2.364-5.211 2.364-2.791 0-5.07-.996-5.205-2.246l-.006-.118v-.513q0-.25.11-.484c.492 1.073 2.588 1.88 5.1 1.88 2.513 0 4.61-.807 5.102-1.88M11.109 16.52c.492 1.073 2.586 1.88 5.095 1.88q.566 0 1.1-.054l.35-.04v1.482c-.46.06-.947.093-1.45.093-2.787 0-5.062-.995-5.198-2.246L11 17.518v-.513q.001-.25.11-.484m17.706-1.392q.081.176.102.36l.008.124v.513c0 1.306-2.334 2.364-5.211 2.364-2.791 0-5.07-.995-5.205-2.246l-.006-.118v-.513q0-.25.11-.484c.492 1.073 2.588 1.88 5.1 1.88 2.513 0 4.61-.807 5.102-1.88m-12.611-3.123q.566 0 1.1.053l.35.04v5.042c-.46.06-.947.093-1.45.093-2.787 0-5.062-.993-5.198-2.24L11 14.875v-.512c0-1.302 2.33-2.358 5.204-2.358m12.61.51q.083.175.103.36l.008.123v.513c0 1.306-2.334 2.364-5.211 2.364-2.791 0-5.07-.995-5.205-2.246l-.006-.118v-.513q0-.25.11-.484c.492 1.073 2.588 1.88 5.1 1.88 2.513 0 4.61-.807 5.102-1.88M23.715 8c2.79 0 5.069.993 5.204 2.24l.007.118v.512c0 1.302-2.334 2.358-5.211 2.358-2.791 0-5.07-.993-5.205-2.24l-.006-.118v-.512c0-1.302 2.333-2.358 5.21-2.358"/></g></svg>