<svg xmlns="http://www.w3.org/2000/svg" width="640" height="360"><path fill="#2C3341" d="M351.903 231.689c.75 1.634 1.173 3.324 1.234 5.053l.008.433v5.811c0 14.797-26.442 26.792-59.058 26.792-32.291 0-58.53-11.756-59.05-26.349l-.009-.443v-5.81c0-1.88.43-3.715 1.242-5.487 5.582 12.164 29.346 21.304 57.817 21.304 28.47 0 52.234-9.14 57.816-21.304m-200.661-16.16c5.582 12.165 29.344 21.305 57.814 21.305 5.305 0 10.443-.323 15.334-.919l1.124-.142v7.115c0 3.25.75 6.389 2.204 9.364-5.866.886-12.14 1.367-18.662 1.367-32.29 0-58.527-11.756-59.048-26.35l-.008-.443v-5.81c0-1.88.43-3.715 1.242-5.487m293.856-66.72a9.23 9.23 0 0 1 6.656 2.834l35.668 37.095a9.234 9.234 0 0 1 0 12.8l-35.668 37.094a9.234 9.234 0 0 1-15.89-6.4v-19.78h-60.02c-5.95 0-10.772-4.824-10.772-10.774v-12.696c0-5.95 4.823-10.773 10.773-10.773h60.02v-20.166c0-5.1 4.134-9.233 9.233-9.233m-93.195 52.87c.75 1.634 1.173 3.324 1.234 5.053l.008.433v5.811c0 14.797-26.442 26.792-59.058 26.792-32.291 0-58.53-11.756-59.05-26.349l-.009-.443v-5.81c0-1.881.43-3.716 1.242-5.488 5.582 12.165 29.346 21.305 57.817 21.305 28.47 0 52.234-9.14 57.816-21.305M151.24 185.903c5.574 12.164 29.304 21.305 57.734 21.305 5.298 0 10.429-.323 15.313-.919l1.123-.142v16.79a126 126 0 0 1-16.436 1.056c-32.245 0-58.445-11.757-58.966-26.35l-.008-.442v-5.81c0-1.881.429-3.716 1.24-5.488m200.663-15.774c.75 1.635 1.173 3.324 1.234 5.054l.008.433v5.81c0 14.797-26.442 26.792-59.058 26.792-32.291 0-58.53-11.756-59.05-26.349l-.009-.443v-5.81c0-1.881.43-3.716 1.242-5.487 5.582 12.164 29.346 21.304 57.817 21.304 28.47 0 52.234-9.14 57.816-21.304m-142.929-35.397c5.297 0 10.43.318 15.313.911l1.123.142v57.144a126.5 126.5 0 0 1-16.436 1.054c-32.245 0-58.445-11.729-58.966-26.286l-.008-.442v-5.796c0-14.761 26.404-26.727 58.974-26.727m142.929 5.771c.75 1.635 1.173 3.324 1.234 5.054l.008.434v5.81c0 14.797-26.442 26.792-59.058 26.792-32.291 0-58.53-11.756-59.05-26.349l-.009-.443v-5.81c0-1.882.43-3.716 1.242-5.488 5.582 12.165 29.346 21.305 57.817 21.305 28.47 0 52.234-9.14 57.816-21.305m-57.816-51.17c32.29 0 58.528 11.727 59.05 26.284l.008.442v5.797c0 14.761-26.442 26.727-59.058 26.727-32.291 0-58.53-11.728-59.05-26.285l-.009-.442v-5.797c0-14.76 26.442-26.727 59.059-26.727"/></svg>