<svg xmlns="http://www.w3.org/2000/svg" width="51" height="32"><path fill="#fff" stroke="#d0d0d0" stroke-linecap="round" stroke-linejoin="round" d="M.5.5h50v31H.5Z"/><path fill="#00a9ce" d="M40.242 21.938a.16.16 0 0 1-.118-.052.16.16 0 0 1-.052-.118v-1.465l-1.584-2.92q-.007-.019-.014-.038a.1.1 0 0 1-.007-.038q0-.056.045-.1a.14.14 0 0 1 .108-.045h.853q.102 0 .16.052a.4.4 0 0 1 .079.093l.978 1.76.98-1.76a.3.3 0 0 1 .08-.093.23.23 0 0 1 .16-.052h.853q.063-.002.104.045a.14.14 0 0 1 .042.1q.001.019-.004.038l-.01.038-1.585 2.92v1.465a.16.16 0 0 1-.052.118.17.17 0 0 1-.125.052ZM34.23 21.938a.14.14 0 0 1-.1-.045.13.13 0 0 1-.045-.1c0-.025.003-.042.007-.063l1.605-4.378a.262.262 0 0 1 .267-.19h1.009c.076 0 .139.017.18.058a.3.3 0 0 1 .087.132l1.598 4.378q.014.026.014.062a.14.14 0 0 1-.045.1.15.15 0 0 1-.104.046h-.839q-.103 0-.152-.052a.3.3 0 0 1-.066-.094l-.267-.696h-1.824l-.26.696a.3.3 0 0 1-.063.094q-.046.051-.163.052Zm1.602-1.822h1.27l-.635-1.801ZM30.385 21.938a.16.16 0 0 1-.121-.052.17.17 0 0 1-.049-.118v-4.433a.167.167 0 0 1 .17-.17h1.91q.569.001.985.173.422.176.656.523.234.35.235.88-.001.524-.235.866a1.38 1.38 0 0 1-.656.505 2.7 2.7 0 0 1-.984.163h-.812v1.493a.16.16 0 0 1-.052.118.17.17 0 0 1-.125.052Zm1.078-2.605h.798q.291.001.468-.149.172-.15.173-.457a.65.65 0 0 0-.149-.436q-.15-.177-.492-.177h-.798Z"/><path fill="#00358e" d="M26.966 21.938a.16.16 0 0 1-.118-.052.16.16 0 0 1-.052-.118v-1.465l-1.584-2.92q-.007-.019-.014-.038-.006-.019-.007-.038 0-.056.045-.1a.14.14 0 0 1 .107-.045h.853q.104 0 .16.052a.4.4 0 0 1 .08.093l.977 1.76.982-1.76a.3.3 0 0 1 .08-.093.23.23 0 0 1 .159-.052h.853q.062-.002.104.045a.14.14 0 0 1 .041.1q0 .019-.003.038-.006.016-.01.038l-1.585 2.92v1.465a.16.16 0 0 1-.052.118.17.17 0 0 1-.125.052ZM20.954 21.938a.14.14 0 0 1-.101-.045.13.13 0 0 1-.045-.1c0-.025.003-.042.007-.063l1.605-4.378a.262.262 0 0 1 .267-.19h1.01c.075 0 .138.017.18.058a.3.3 0 0 1 .086.132l1.599 4.378a.14.14 0 0 1-.031.163.15.15 0 0 1-.105.045h-.839q-.102 0-.152-.052a.3.3 0 0 1-.066-.094l-.267-.696h-1.824l-.26.696a.3.3 0 0 1-.062.094q-.048.051-.163.052Zm1.605-1.822h1.269l-.635-1.801ZM16.682 21.938a.16.16 0 0 1-.121-.052.17.17 0 0 1-.049-.118v-4.433q0-.074.049-.121a.16.16 0 0 1 .12-.049h1.856c.593 0 1.054.135 1.394.405q.505.406.506 1.15.001.484-.232.818-.233.332-.614.505l.936 1.677q.02.04.02.076a.14.14 0 0 1-.044.1q-.045.043-.1.045h-.91q-.128.002-.19-.066a.6.6 0 0 1-.09-.117l-.777-1.5h-.697v1.513a.16.16 0 0 1-.052.118.19.19 0 0 1-.124.052h-.881Zm1.057-2.653h.784q.322 0 .482-.156a.56.56 0 0 0 .16-.423.61.61 0 0 0-.153-.43q-.15-.16-.489-.162h-.784ZM12.067 21.938a.16.16 0 0 1-.121-.052.17.17 0 0 1-.049-.118v-4.433q0-.074.049-.121a.17.17 0 0 1 .12-.049h1.911q.568.001.985.173.421.176.655.523.235.35.236.88-.001.524-.236.866a1.4 1.4 0 0 1-.655.505 2.7 2.7 0 0 1-.985.163h-.811v1.493a.16.16 0 0 1-.052.118.19.19 0 0 1-.125.052Zm1.078-2.605h.798q.291.001.468-.149.172-.15.173-.457a.65.65 0 0 0-.149-.436q-.15-.177-.492-.177h-.798ZM9.154 22.007q-.681-.001-1.133-.194-.451-.192-.684-.51a1.2 1.2 0 0 1-.246-.668q0-.055.045-.1a.14.14 0 0 1 .108-.045h.86q.093-.001.145.035c.035.02.066.052.094.086a.72.72 0 0 0 .416.35c.108.038.243.059.395.059q.397-.001.597-.121c.132-.08.2-.194.2-.333a.32.32 0 0 0-.107-.253 1.1 1.1 0 0 0-.35-.173 6 6 0 0 0-.645-.16 3.8 3.8 0 0 1-.884-.283 1.3 1.3 0 0 1-.555-.457q-.191-.28-.19-.707.001-.416.235-.745a1.57 1.57 0 0 1 .66-.512q.422-.183 1.001-.184.472 0 .829.125.36.123.603.329c.163.139.288.28.371.433a1 1 0 0 1 .132.447q-.001.055-.038.1a.14.14 0 0 1-.108.045h-.901a.3.3 0 0 1-.128-.028.24.24 0 0 1-.098-.09.48.48 0 0 0-.215-.263.84.84 0 0 0-.454-.11q-.3 0-.468.103a.36.36 0 0 0-.166.326q0 .135.093.239c.063.069.163.128.309.176q.214.073.59.156.62.115 1.001.291c.254.118.444.267.562.45q.181.277.18.693 0 .463-.267.797-.265.333-.728.516-.452.178-1.06.18"/><linearGradient id="a" x1="17.826" x2="32.162" y1="12.908" y2="12.908" gradientUnits="userSpaceOnUse"><stop offset="0" stop-color="#00358e"/><stop offset="1" stop-color="#00a9ce"/></linearGradient><path fill="url(#a)" d="M18.107 14.942a.313.313 0 0 1-.312-.312v-3.443a.313.313 0 0 1 .624 0v3.443c0 .17-.142.312-.312.312"/><linearGradient id="b" x1="17.826" x2="32.162" y1="13.452" y2="13.452" gradientUnits="userSpaceOnUse"><stop offset="0" stop-color="#00358e"/><stop offset="1" stop-color="#00a9ce"/></linearGradient><path fill="url(#b)" d="M19.359 15.33a.313.313 0 0 1-.312-.313v-3.13a.313.313 0 0 1 .624 0v3.13c0 .17-.139.312-.312.312"/><linearGradient id="c" x1="17.826" x2="32.161" y1="13.827" y2="13.827" gradientUnits="userSpaceOnUse"><stop offset="0" stop-color="#00358e"/><stop offset="1" stop-color="#00a9ce"/></linearGradient><path fill="url(#c)" d="M20.61 15.547a.313.313 0 0 1-.312-.311V12.42a.313.313 0 0 1 .624 0v2.816a.31.31 0 0 1-.312.311"/><linearGradient id="d" x1="17.826" x2="32.161" y1="14.059" y2="14.059" gradientUnits="userSpaceOnUse"><stop offset="0" stop-color="#00358e"/><stop offset="1" stop-color="#00a9ce"/></linearGradient><path fill="url(#d)" d="M21.865 15.624a.313.313 0 0 1-.312-.312v-2.504a.313.313 0 0 1 .625 0v2.504c0 .17-.14.312-.313.312"/><linearGradient id="e" x1="17.826" x2="32.162" y1="14.147" y2="14.147" gradientUnits="userSpaceOnUse"><stop offset="0" stop-color="#00358e"/><stop offset="1" stop-color="#00a9ce"/></linearGradient><path fill="url(#e)" d="M23.118 15.555a.313.313 0 0 1-.313-.312v-2.192a.313.313 0 0 1 .625 0v2.192a.31.31 0 0 1-.312.312"/><linearGradient id="f" x1="17.826" x2="32.162" y1="14.109" y2="14.109" gradientUnits="userSpaceOnUse"><stop offset="0" stop-color="#00358e"/><stop offset="1" stop-color="#00a9ce"/></linearGradient><path fill="url(#f)" d="M24.373 15.36a.313.313 0 0 1-.312-.311V13.17a.313.313 0 0 1 .624 0v1.878c0 .17-.142.311-.312.311"/><linearGradient id="g" x1="17.826" x2="32.162" y1="13.952" y2="13.952" gradientUnits="userSpaceOnUse"><stop offset="0" stop-color="#00358e"/><stop offset="1" stop-color="#00a9ce"/></linearGradient><path fill="url(#g)" d="M25.624 15.049a.313.313 0 0 1-.312-.312V13.17a.313.313 0 0 1 .624 0v1.566c0 .17-.138.312-.312.312"/><linearGradient id="h" x1="17.826" x2="32.162" y1="13.677" y2="13.677" gradientUnits="userSpaceOnUse"><stop offset="0" stop-color="#00358e"/><stop offset="1" stop-color="#00a9ce"/></linearGradient><path fill="url(#h)" d="M26.88 14.615a.313.313 0 0 1-.312-.311v-1.25a.313.313 0 0 1 .624 0v1.25c0 .17-.142.311-.312.311"/><linearGradient id="i" x1="17.826" x2="32.162" y1="13.277" y2="13.277" gradientUnits="userSpaceOnUse"><stop offset="0" stop-color="#00358e"/><stop offset="1" stop-color="#00a9ce"/></linearGradient><path fill="url(#i)" d="M28.131 14.058a.313.313 0 0 1-.312-.312v-.938a.313.313 0 0 1 .624 0v.938a.31.31 0 0 1-.312.312"/><linearGradient id="j" x1="17.826" x2="32.162" y1="12.732" y2="12.732" gradientUnits="userSpaceOnUse"><stop offset="0" stop-color="#00358e"/><stop offset="1" stop-color="#00a9ce"/></linearGradient><path fill="url(#j)" d="M29.383 13.359a.313.313 0 0 1-.312-.312v-.627a.313.313 0 0 1 .624 0v.627a.31.31 0 0 1-.312.312"/><linearGradient id="k" x1="17.826" x2="32.162" y1="12.044" y2="12.044" gradientUnits="userSpaceOnUse"><stop offset="0" stop-color="#00358e"/><stop offset="1" stop-color="#00a9ce"/></linearGradient><path fill="url(#k)" d="M30.638 12.513a.313.313 0 0 1-.312-.311v-.312a.313.313 0 0 1 .624 0v.312c0 .17-.139.311-.312.311"/><linearGradient id="l" x1="17.826" x2="32.162" y1="11.186" y2="11.186" gradientUnits="userSpaceOnUse"><stop offset="0" stop-color="#00358e"/><stop offset="1" stop-color="#00a9ce"/></linearGradient><path fill="url(#l)" d="M31.89 11.499a.313.313 0 0 1-.313-.312.313.313 0 0 1 .625 0 .31.31 0 0 1-.312.312"/></svg>