<svg width="640" height="360" xmlns="http://www.w3.org/2000/svg"><g fill="#00358e"><path d="M168.037 282.024c-1.883 0-3.519-.347-4.808-1.09a7.509 7.509 0 01-2.973-3.119c-.694-1.336-1.041-2.871-1.091-4.555 0-.99-.05-2.029-.05-3.168 0-1.09 0-2.129.05-3.169.05-1.732.446-3.267 1.091-4.604.693-1.337 1.684-2.327 2.973-3.07 1.289-.742 2.875-1.089 4.759-1.089 1.536 0 2.825.248 3.915.694a8.835 8.835 0 012.677 1.683c.693.693 1.189 1.337 1.536 2.029.347.694.496 1.238.545 1.733a.835.835 0 01-.148.495c-.149.1-.298.198-.546.198h-.743c-.198 0-.347-.049-.446-.148a.925.925 0 01-.248-.495c-.199-.693-.595-1.337-1.09-1.981-.496-.643-1.24-1.138-2.082-1.534-.892-.397-1.983-.594-3.321-.594-1.983 0-3.569.544-4.808 1.584-1.239 1.039-1.883 2.871-1.982 5.347-.049 1.98-.049 3.96 0 5.941.099 2.475.743 4.258 1.982 5.347 1.239 1.089 2.825 1.634 4.808 1.634 1.289 0 2.478-.248 3.519-.743s1.834-1.238 2.478-2.277c.595-1.04.893-2.328.893-3.911v-1.783h-5.799c-.199 0-.397-.049-.546-.198-.148-.148-.198-.347-.198-.545v-.445c0-.248.05-.446.198-.545.149-.148.297-.198.546-.198h7.087c.248 0 .446.05.545.198.149.149.198.297.198.545v2.921c0 1.782-.346 3.317-1.04 4.654-.694 1.336-1.735 2.376-3.073 3.168-1.289.693-2.924 1.09-4.808 1.09zM184.496 281.678c-.198 0-.396-.049-.544-.198-.149-.148-.199-.297-.199-.544v-21.685c0-.248.05-.446.199-.545.148-.148.297-.198.544-.198h12.937c.248 0 .446.05.545.198.149.149.198.297.198.545v.495c0 .198-.049.396-.198.544-.149.149-.297.199-.545.199h-11.598v8.465h10.854c.249 0 .447.05.546.198.148.149.198.297.198.545v.495c0 .198-.05.396-.198.545-.149.148-.297.197-.546.197h-10.854v8.764h11.846c.248 0 .446.049.545.198.149.148.199.297.199.544v.496c0 .197-.05.396-.199.544-.148.149-.297.198-.545.198zM212.004 282.024c-1.785 0-3.321-.297-4.56-.841-1.239-.594-2.23-1.336-2.875-2.228-.644-.891-1.041-1.881-1.041-2.871 0-.199.05-.347.199-.446a.637.637 0 01.495-.198h.644c.199 0 .397.05.496.198.099.149.198.297.198.446.099.594.347 1.237.843 1.832.446.594 1.14 1.138 2.082 1.534.892.397 2.081.594 3.519.594 2.18 0 3.767-.396 4.758-1.188.991-.792 1.487-1.832 1.487-3.168 0-.892-.248-1.585-.793-2.129-.496-.545-1.289-1.04-2.38-1.436-1.04-.446-2.428-.891-4.063-1.436-1.587-.495-2.876-1.039-3.867-1.584-1.041-.544-1.784-1.188-2.23-1.98-.496-.792-.694-1.783-.694-2.971 0-1.138.297-2.129.892-3.02s1.487-1.584 2.627-2.129c1.14-.544 2.528-.792 4.163-.792 1.289 0 2.429.198 3.42.545a7.61 7.61 0 012.429 1.386c.644.594 1.14 1.188 1.437 1.881.347.694.496 1.337.546 1.98a.8.8 0 01-.149.446c-.099.148-.297.198-.545.198h-.645a.8.8 0 01-.396-.148c-.149-.099-.248-.248-.298-.545-.148-1.089-.694-2.03-1.734-2.723-1.041-.742-2.379-1.089-4.015-1.089-1.635 0-2.974.297-4.015.941-1.04.643-1.536 1.634-1.536 3.02 0 .891.247 1.584.694 2.178.446.594 1.189 1.04 2.18 1.485.992.446 2.28.891 3.867 1.387 1.635.544 3.023 1.039 4.114 1.584 1.09.545 1.883 1.188 2.428 1.931.546.742.793 1.732.793 2.97 0 1.337-.347 2.475-.991 3.416-.694.941-1.636 1.634-2.875 2.129-1.388.594-2.875.841-4.609.841zM227.513 281.678c-.198 0-.396-.049-.545-.198-.148-.148-.198-.297-.198-.544v-21.685c0-.248.05-.446.198-.545.149-.148.297-.198.545-.198h8.079c1.537 0 2.875.247 4.015.792 1.14.545 2.032 1.287 2.676 2.327.644.99.942 2.278.942 3.763 0 1.485-.298 2.772-.942 3.762-.644 1.04-1.536 1.782-2.676 2.278-1.14.544-2.478.792-4.015.792h-6.691v8.763c0 .198-.049.396-.198.545-.149.148-.298.197-.545.197h-.645zm1.339-11.486h6.542c1.933 0 3.37-.396 4.312-1.238.942-.841 1.388-2.029 1.388-3.614 0-1.584-.446-2.772-1.388-3.614-.942-.842-2.379-1.237-4.312-1.237h-6.542zM249.971 281.678c-.198 0-.396-.049-.545-.198-.149-.148-.198-.297-.198-.544v-21.685c0-.248.049-.446.198-.545.149-.148.297-.198.545-.198h7.732c2.329 0 4.163.544 5.551 1.634 1.388 1.089 2.082 2.772 2.082 5.05 0 1.782-.446 3.168-1.338 4.257-.892 1.04-2.132 1.782-3.668 2.13l5.353 9.059c.05.149.099.248.099.347 0 .198-.049.347-.198.445a.607.607 0 01-.446.199h-.397c-.347 0-.595-.099-.793-.297a2.37 2.37 0 01-.446-.594l-5.303-8.862h-6.84v9.06c0 .197-.05.396-.199.544-.148.149-.297.198-.545.198zm1.388-11.783h6.195c1.934 0 3.371-.396 4.312-1.188.942-.793 1.388-1.981 1.388-3.515 0-1.584-.446-2.723-1.388-3.515-.941-.793-2.378-1.188-4.312-1.188h-6.195zM272.866 281.678c-.199 0-.397-.049-.546-.198-.149-.148-.198-.297-.198-.544v-21.685c0-.248.049-.446.198-.545.149-.148.298-.198.546-.198h12.936c.248 0 .446.05.545.198.149.149.198.297.198.545v.495c0 .198-.049.396-.198.544-.149.149-.297.199-.545.199h-11.598v8.465h10.854c.248 0 .446.05.546.198.149.149.198.297.198.545v.495c0 .198-.049.396-.198.545-.149.148-.298.197-.546.197h-10.854v8.764h11.846c.247 0 .446.049.545.198.149.148.198.297.198.544v.496c0 .197-.049.396-.198.544-.149.149-.298.198-.545.198zM294.178 281.675c-.198 0-.396-.05-.545-.198-.148-.149-.198-.297-.198-.545v-21.734c0-.198.05-.396.198-.545.149-.149.297-.198.545-.198h.645c.198 0 .396.049.545.198.148.149.198.297.198.545v21.734c0 .198-.05.396-.198.545-.149.148-.298.198-.545.198zM304.14 281.678c-.198 0-.396-.049-.545-.198-.148-.148-.199-.297-.199-.544v-21.685c0-.248.051-.446.199-.545.149-.148.297-.198.545-.198h7.088c2.33 0 4.163.347 5.501 1.04 1.339.693 2.281 1.683 2.826 3.02.545 1.337.842 2.97.892 4.901 0 .99.049 1.882.049 2.624 0 .743.001 1.634-.049 2.624-.05 2.03-.347 3.713-.892 5.05-.545 1.337-1.487 2.326-2.776 2.971-1.288.643-3.073.989-5.353.989h-7.286zm1.388-1.98h5.7c1.784 0 3.172-.248 4.213-.693 1.041-.495 1.784-1.238 2.23-2.278.447-1.039.694-2.425.694-4.159 0-.643.05-1.237.05-1.732v-1.485c0-.496 0-1.04-.05-1.734-.049-2.425-.595-4.208-1.685-5.396-1.091-1.138-2.974-1.732-5.601-1.732h-5.551zM338.488 281.678c-.199 0-.397-.049-.546-.198-.148-.148-.198-.297-.198-.544v-21.685c0-.248.05-.446.198-.545.149-.148.298-.198.546-.198h8.674c1.536 0 2.825.297 3.816.841a5.436 5.436 0 012.181 2.179c.446.892.694 1.881.694 2.921 0 .941-.149 1.782-.446 2.426-.298.693-.694 1.238-1.14 1.634-.447.396-.892.742-1.338.94.891.446 1.685 1.139 2.329 2.13.644.989 1.041 2.128 1.041 3.564a6.535 6.535 0 01-.793 3.168c-.496.991-1.289 1.833-2.33 2.476-1.041.643-2.279.94-3.816.94h-8.872zm1.338-13.12h6.889c1.636 0 2.875-.347 3.718-1.089.842-.743 1.289-1.732 1.289-3.069 0-1.288-.447-2.278-1.289-2.971-.843-.693-2.082-.99-3.718-.99h-6.889zm0 11.14h7.187c1.635 0 2.924-.446 3.816-1.288.893-.841 1.338-1.931 1.338-3.267 0-1.337-.445-2.426-1.338-3.317-.892-.841-2.181-1.287-3.816-1.287h-7.187zM361.787 281.678c-.198 0-.396-.049-.545-.198-.149-.148-.198-.297-.198-.544v-21.685c0-.248.049-.446.198-.545.149-.148.298-.198.545-.198h12.937c.247 0 .446.05.545.198.149.149.198.297.198.545v.495c0 .198-.049.396-.198.544-.149.149-.298.199-.545.199h-11.598v8.465h10.854c.248 0 .446.05.546.198.148.149.198.297.198.545v.495c0 .198-.05.396-.198.545-.149.148-.298.197-.546.197h-10.854v8.764h11.845c.249 0 .447.049.546.198.149.148.198.297.198.544v.496c0 .197-.049.396-.198.544-.149.149-.297.198-.546.198zM388.152 281.678c-.198 0-.397-.049-.545-.198-.149-.148-.198-.297-.198-.544v-20.447h-6.592c-.198 0-.397-.05-.546-.199-.148-.148-.198-.297-.198-.544v-.495c0-.248.05-.446.198-.545.149-.148.297-.198.546-.198h15.216c.248 0 .446.05.545.198.148.149.198.297.198.545v.495c0 .198-.05.396-.198.544-.149.149-.297.199-.545.199h-6.543v20.496c0 .198-.05.396-.198.545-.149.148-.298.197-.545.197h-.595zM398.365 281.679c-.198 0-.347-.049-.446-.198a.605.605 0 01-.198-.445c0-.1 0-.248.05-.347l8.376-21.486c.099-.199.198-.397.347-.496.149-.098.347-.148.594-.148h1.14c.249 0 .447.05.595.148.149.099.248.297.347.496l8.377 21.486a.977.977 0 01.049.347c0 .197-.049.346-.198.445a.604.604 0 01-.446.198h-.645c-.198 0-.396-.049-.495-.198-.099-.099-.198-.248-.248-.297l-2.082-5.297h-11.746l-2.082 5.297c0 .099-.099.198-.198.297a.754.754 0 01-.496.198zm4.263-7.772h10.161l-5.056-13.071zM423.937 281.675c-.198 0-.397-.05-.545-.198-.149-.149-.199-.297-.199-.545v-21.734c0-.198.05-.396.199-.545.148-.149.297-.198.545-.198h.644c.198 0 .397.049.545.198.149.149.198.297.198.545v20.496h11.45c.248 0 .446.05.545.199.149.148.198.297.198.544v.495c0 .198-.049.396-.198.545-.149.148-.297.198-.545.198zM443.816 281.678c-.198 0-.397-.049-.546-.198-.148-.148-.198-.297-.198-.544v-21.685c0-.248.05-.446.198-.545.149-.148.297-.198.546-.198h12.936c.248 0 .446.05.545.198.149.149.198.297.198.545v.495c0 .198-.049.396-.198.544-.148.149-.297.199-.545.199h-11.598v8.465h10.855c.247 0 .445.05.544.198.149.149.199.297.199.545v.495c0 .198-.05.396-.199.545-.148.148-.297.197-.544.197h-10.855v8.764H457c.247 0 .446.049.545.198.148.148.198.297.198.544v.496c0 .197-.05.396-.198.544-.149.149-.298.198-.545.198zM465.076 281.678c-.198 0-.396-.049-.545-.198-.149-.148-.198-.297-.198-.544v-21.685c0-.248.049-.446.198-.545.149-.148.298-.198.545-.198h.695c.198 0 .396.05.495.149.099.098.198.198.198.247l12.242 18.665v-18.318c0-.248.05-.446.199-.545.148-.148.297-.198.545-.198h.595c.248 0 .446.05.545.198.149.149.198.297.198.545v21.685c0 .197-.049.396-.198.544-.148.149-.297.198-.545.198h-.743c-.199 0-.397-.049-.496-.148-.1-.1-.149-.199-.198-.248l-12.193-18.616v18.27c0 .197-.05.396-.199.544-.148.149-.297.198-.545.198z"/></g><path fill="#00a9ce" d="M537.885 236.128c-.645 0-1.24-.248-1.686-.743-.495-.495-.743-1.04-.743-1.683v-20.943l-22.651-41.735c-.05-.198-.149-.347-.198-.545a1.76 1.76 0 01-.099-.545c0-.544.198-.989.644-1.435.446-.446.942-.644 1.536-.644h12.193c.991 0 1.735.248 2.28.743.545.495.942.941 1.14 1.336l13.977 25.151 14.027-25.151c.198-.395.545-.841 1.14-1.336.545-.495 1.338-.743 2.28-.743h12.192c.596 0 1.091.198 1.487.644.397.396.596.891.596 1.435 0 .199 0 .348-.05.545-.05.149-.099.347-.149.545l-22.651 41.735v20.943c0 .643-.247 1.238-.743 1.683a2.437 2.437 0 01-1.785.743zM451.945 236.128c-.495 0-.991-.199-1.437-.644a1.852 1.852 0 01-.645-1.436c0-.346.05-.594.1-.891l22.948-62.578c.198-.694.595-1.337 1.239-1.882.595-.545 1.487-.842 2.577-.842h14.423c1.091 0 1.983.248 2.578.842.595.545 1.041 1.188 1.239 1.882l22.849 62.578c.149.248.198.545.198.891 0 .495-.198.99-.644 1.436-.397.396-.941.644-1.487.644h-11.994c-.991 0-1.686-.248-2.181-.743-.496-.495-.793-.941-.942-1.337l-3.816-9.951h-26.071l-3.718 9.951c-.148.396-.446.842-.891 1.337-.447.495-1.24.743-2.33.743zm22.899-26.042h18.141l-9.071-25.745zM396.978 236.129c-.694 0-1.288-.248-1.734-.743-.447-.495-.694-1.04-.694-1.683v-63.371c0-.693.247-1.287.694-1.733.446-.445 1.04-.693 1.734-.693h27.31c5.403 0 10.111.842 14.076 2.476 4.015 1.683 7.138 4.158 9.368 7.475 2.231 3.318 3.371 7.526 3.371 12.575 0 5.001-1.14 9.11-3.371 12.378-2.23 3.267-5.353 5.644-9.368 7.228-4.014 1.535-8.673 2.327-14.076 2.327H412.69v21.338c0 .643-.248 1.237-.744 1.683a2.432 2.432 0 01-1.784.743zm15.415-37.231h11.399c2.776 0 5.006-.692 6.692-2.129 1.636-1.435 2.478-3.614 2.478-6.534 0-2.476-.694-4.555-2.131-6.239-1.438-1.683-3.767-2.524-7.039-2.524h-11.399z"/><path fill="#00358e" d="M348.104 236.128a2.221 2.221 0 01-1.685-.743c-.496-.495-.743-1.039-.743-1.683V212.76l-22.651-41.736c-.05-.198-.149-.347-.199-.544-.049-.198-.098-.347-.098-.545 0-.544.198-.99.644-1.436.445-.445.941-.644 1.536-.644h12.193c.991 0 1.734.248 2.28.743.545.496.941.941 1.14 1.337l13.977 25.15 14.026-25.15c.199-.396.546-.841 1.14-1.337.546-.495 1.338-.743 2.28-.743h12.193c.595 0 1.091.199 1.487.644.396.396.595.892.595 1.436 0 .198 0 .347-.05.545-.049.148-.098.346-.149.544l-22.65 41.736v20.942c0 .644-.248 1.238-.743 1.683a2.437 2.437 0 01-1.785.743zM262.158 236.128c-.496 0-.991-.199-1.438-.644a1.85 1.85 0 01-.644-1.435c0-.347.05-.594.099-.892l22.949-62.578c.198-.693.594-1.337 1.238-1.882.595-.545 1.487-.842 2.578-.842h14.423c1.09 0 1.983.248 2.577.842.595.545 1.041 1.189 1.24 1.882l22.849 62.578c.148.248.198.545.198.892 0 .494-.198.989-.645 1.435-.396.396-.941.644-1.487.644h-11.994c-.991 0-1.685-.248-2.181-.743-.495-.495-.792-.941-.941-1.336l-3.817-9.952h-26.07l-3.718 9.952c-.149.395-.446.841-.892 1.336-.446.495-1.239.743-2.33.743zm22.948-26.042h18.141l-9.071-25.744zM201.095 236.129c-.694 0-1.289-.248-1.735-.743-.446-.495-.694-1.04-.694-1.683v-63.371c0-.693.248-1.287.694-1.733.446-.445.991-.693 1.735-.693h26.516c8.476 0 15.068 1.931 19.925 5.793 4.808 3.861 7.237 9.357 7.237 16.436 0 4.605-1.091 8.516-3.321 11.685-2.231 3.168-5.154 5.594-8.773 7.228l13.383 23.962c.198.396.297.742.297 1.089 0 .495-.198.99-.644 1.436-.447.396-.893.643-1.438.643h-12.986c-1.239 0-2.131-.297-2.725-.941a8.417 8.417 0 01-1.289-1.683l-11.102-21.437h-9.963v21.635a2.22 2.22 0 01-.743 1.684c-.496.445-1.091.742-1.785.742h-12.589zm15.117-37.924h11.201c3.074 0 5.354-.742 6.89-2.228 1.536-1.485 2.28-3.514 2.28-6.039 0-2.526-.744-4.555-2.181-6.14-1.437-1.534-3.767-2.326-6.989-2.326h-11.201zM135.125 236.129c-.694 0-1.289-.248-1.735-.743-.446-.495-.694-1.04-.694-1.683v-63.371c0-.693.248-1.287.694-1.733.446-.445 1.041-.693 1.735-.693h27.31c5.402 0 10.111.842 14.076 2.476 4.014 1.683 7.137 4.158 9.368 7.475 2.23 3.318 3.37 7.526 3.37 12.575 0 5.001-1.14 9.11-3.37 12.378-2.231 3.267-5.354 5.644-9.368 7.228-4.015 1.535-8.674 2.327-14.076 2.327h-11.599v21.338c0 .643-.247 1.237-.743 1.683-.495.446-1.09.743-1.784.743zm15.414-37.231h11.4c2.776 0 5.006-.692 6.691-2.129 1.636-1.435 2.478-3.614 2.478-6.534 0-2.476-.693-4.555-2.131-6.239-1.437-1.683-3.767-2.524-7.038-2.524h-11.4zM93.49 237.118c-6.492 0-11.895-.941-16.207-2.773-4.312-1.832-7.533-4.257-9.764-7.277-2.23-2.971-3.37-6.189-3.519-9.556 0-.544.198-.99.645-1.435.446-.446.941-.644 1.536-.644h12.292c.892 0 1.586.148 2.081.495.496.297.942.743 1.34 1.238.494.99 1.238 1.931 2.18 2.822.941.891 2.18 1.634 3.767 2.178 1.536.545 3.47.842 5.65.842 3.767 0 6.642-.594 8.525-1.733 1.884-1.138 2.875-2.772 2.875-4.753 0-1.485-.496-2.673-1.537-3.614-1.041-.891-2.726-1.733-5.006-2.475-2.33-.743-5.402-1.535-9.219-2.278-4.956-1.039-9.17-2.376-12.638-4.059-3.47-1.634-6.147-3.812-7.93-6.536-1.835-2.673-2.727-6.04-2.727-10.1 0-3.96 1.14-7.525 3.37-10.644 2.23-3.118 5.403-5.544 9.418-7.327 4.015-1.733 8.822-2.624 14.324-2.624 4.51 0 8.425.594 11.845 1.782 3.421 1.189 6.295 2.723 8.625 4.704 2.329 1.98 4.113 4.01 5.303 6.189 1.19 2.178 1.834 4.306 1.884 6.386 0 .545-.198.99-.545 1.436-.347.395-.843.643-1.537.643h-12.887c-.694 0-1.338-.148-1.834-.396-.545-.247-.991-.693-1.387-1.287-.397-1.436-1.438-2.673-3.074-3.762-1.635-1.04-3.816-1.585-6.492-1.585-2.875 0-5.105.495-6.692 1.485-1.585 1.04-2.378 2.575-2.378 4.654 0 1.287.446 2.426 1.338 3.416.891.99 2.329 1.832 4.41 2.525 2.033.693 4.858 1.436 8.427 2.228 5.898 1.089 10.706 2.476 14.324 4.159 3.618 1.683 6.344 3.812 8.029 6.436 1.735 2.624 2.578 5.941 2.578 9.902 0 4.406-1.289 8.218-3.817 11.386-2.528 3.169-5.998 5.644-10.408 7.377-4.313 1.684-9.368 2.575-15.167 2.575z"/><linearGradient id="a" x1="217.446" y1="107.047" x2="422.374" y2="107.047" gradientUnits="userSpaceOnUse"><stop offset="0" stop-color="#00358e"/><stop offset="1" stop-color="#00a9ce"/></linearGradient><path fill="url(#a)" d="M221.469 136.123c-2.479 0-4.461-2.03-4.461-4.456V82.456c0-2.476 2.032-4.456 4.461-4.456 2.478 0 4.46 2.03 4.46 4.456v49.211c0 2.426-2.032 4.456-4.46 4.456z"/><linearGradient id="b" x1="217.444" y1="114.824" x2="422.372" y2="114.824" gradientUnits="userSpaceOnUse"><stop offset="0" stop-color="#00358e"/><stop offset="1" stop-color="#00a9ce"/></linearGradient><path fill="url(#b)" d="M239.359 141.661c-2.478 0-4.461-2.029-4.461-4.455V92.45c0-2.476 2.033-4.456 4.461-4.456 2.478 0 4.461 2.03 4.461 4.456v44.756c0 2.426-1.983 4.455-4.461 4.455z"/><linearGradient id="c" x1="217.443" y1="120.195" x2="422.371" y2="120.195" gradientUnits="userSpaceOnUse"><stop offset="0" stop-color="#00358e"/><stop offset="1" stop-color="#00a9ce"/></linearGradient><path fill="url(#c)" d="M257.251 144.782c-2.478 0-4.461-2.029-4.461-4.455v-40.25c0-2.476 2.032-4.456 4.461-4.456 2.478 0 4.461 2.03 4.461 4.456v40.25c.049 2.475-1.983 4.455-4.461 4.455z"/><linearGradient id="d" x1="217.443" y1="123.504" x2="422.371" y2="123.504" gradientUnits="userSpaceOnUse"><stop offset="0" stop-color="#00358e"/><stop offset="1" stop-color="#00a9ce"/></linearGradient><path fill="url(#d)" d="M275.193 145.87c-2.478 0-4.461-2.029-4.461-4.455V105.62c0-2.476 2.033-4.456 4.461-4.456 2.478 0 4.461 2.03 4.461 4.456v35.795c0 2.426-1.983 4.455-4.461 4.455z"/><linearGradient id="e" x1="217.448" y1="124.763" x2="422.376" y2="124.763" gradientUnits="userSpaceOnUse"><stop offset="0" stop-color="#00358e"/><stop offset="1" stop-color="#00a9ce"/></linearGradient><path fill="url(#e)" d="M293.091 144.887c-2.479 0-4.461-2.03-4.461-4.456v-31.339c0-2.475 2.032-4.455 4.461-4.455 2.478 0 4.46 2.029 4.46 4.455v31.339c.05 2.426-1.982 4.456-4.46 4.456z"/><linearGradient id="f" x1="217.449" y1="124.218" x2="422.378" y2="124.218" gradientUnits="userSpaceOnUse"><stop offset="0" stop-color="#00358e"/><stop offset="1" stop-color="#00a9ce"/></linearGradient><path fill="url(#f)" d="M311.034 142.106c-2.478 0-4.461-2.029-4.461-4.455v-26.834c0-2.475 2.032-4.456 4.461-4.456 2.478 0 4.461 2.03 4.461 4.456v26.834c0 2.426-2.032 4.455-4.461 4.455z"/><linearGradient id="g" x1="217.447" y1="121.981" x2="422.375" y2="121.981" gradientUnits="userSpaceOnUse"><stop offset="0" stop-color="#00358e"/><stop offset="1" stop-color="#00a9ce"/></linearGradient><path fill="url(#g)" d="M328.925 137.651c-2.479 0-4.461-2.03-4.461-4.456v-22.378c0-2.475 2.032-4.456 4.461-4.456 2.478 0 4.46 2.03 4.46 4.456v22.378c0 2.426-1.982 4.456-4.46 4.456z"/><linearGradient id="h" x1="217.448" y1="118.043" x2="422.376" y2="118.043" gradientUnits="userSpaceOnUse"><stop offset="0" stop-color="#00358e"/><stop offset="1" stop-color="#00a9ce"/></linearGradient><path fill="url(#h)" d="M346.868 131.46c-2.478 0-4.461-2.03-4.461-4.456v-17.872c0-2.475 2.032-4.456 4.461-4.456 2.478 0 4.461 2.03 4.461 4.456v17.872c0 2.426-2.032 4.456-4.461 4.456z"/><linearGradient id="i" x1="217.446" y1="112.32" x2="422.375" y2="112.32" gradientUnits="userSpaceOnUse"><stop offset="0" stop-color="#00358e"/><stop offset="1" stop-color="#00a9ce"/></linearGradient><path fill="url(#i)" d="M364.759 123.493c-2.478 0-4.461-2.03-4.461-4.456V105.62c0-2.476 2.032-4.456 4.461-4.456 2.478 0 4.461 2.03 4.461 4.456v13.417a4.44 4.44 0 01-4.461 4.456z"/><linearGradient id="j" x1="217.445" y1="104.538" x2="422.373" y2="104.538" gradientUnits="userSpaceOnUse"><stop offset="0" stop-color="#00358e"/><stop offset="1" stop-color="#00a9ce"/></linearGradient><path fill="url(#j)" d="M382.65 113.493c-2.478 0-4.461-2.029-4.461-4.455v-8.961c0-2.476 2.033-4.456 4.461-4.456 2.478 0 4.461 2.03 4.461 4.456v8.961c.05 2.426-1.983 4.455-4.461 4.455z"/><linearGradient id="k" x1="217.445" y1="94.695" x2="422.373" y2="94.695" gradientUnits="userSpaceOnUse"><stop offset="0" stop-color="#00358e"/><stop offset="1" stop-color="#00a9ce"/></linearGradient><path fill="url(#k)" d="M400.593 101.412c-2.478 0-4.461-2.03-4.461-4.456v-4.455c0-2.476 2.032-4.456 4.461-4.456 2.478 0 4.461 2.03 4.461 4.456v4.455c0 2.426-1.983 4.456-4.461 4.456z"/><linearGradient id="l" x1="217.444" y1="82.442" x2="422.372" y2="82.442" gradientUnits="userSpaceOnUse"><stop offset="0" stop-color="#00358e"/><stop offset="1" stop-color="#00a9ce"/></linearGradient><path fill="url(#l)" d="M418.484 86.911c-2.478 0-4.461-2.03-4.461-4.455 0-2.476 2.033-4.456 4.461-4.456 2.478 0 4.461 2.03 4.461 4.456.05 2.425-1.983 4.455-4.461 4.455z"/></svg>