<svg width="51" height="32" xmlns="http://www.w3.org/2000/svg"><path fill="#fff" stroke="#d0d0d0" stroke-linecap="round" stroke-linejoin="round" d="M.5.5h50v31H.5z"/><path fill="#00a9ce" d="M40.242 21.938a.155.155 0 01-.118-.052.16.16 0 01-.052-.118v-1.465l-1.584-2.92c-.004-.014-.01-.024-.014-.038a.123.123 0 01-.007-.038c0-.038.014-.07.045-.1a.144.144 0 01.108-.045h.853c.069 0 .12.017.16.052a.358.358 0 01.079.093l.978 1.76.98-1.76a.3.3 0 01.08-.093.233.233 0 01.16-.052h.853c.042 0 .076.013.104.045a.139.139 0 01.042.1c0 .014 0 .024-.004.038l-.01.038-1.585 2.92v1.465a.155.155 0 01-.052.118.17.17 0 01-.125.052zM34.23 21.938a.14.14 0 01-.1-.045.13.13 0 01-.045-.1c0-.025.003-.042.007-.063l1.605-4.378a.262.262 0 01.267-.19h1.009c.076 0 .139.017.18.058a.291.291 0 01.087.132l1.598 4.378c.01.017.014.038.014.062a.14.14 0 01-.045.1.15.15 0 01-.104.046h-.839c-.07 0-.118-.018-.152-.052a.274.274 0 01-.066-.094l-.267-.696h-1.824l-.26.696a.312.312 0 01-.063.094c-.03.034-.086.052-.163.052zm1.602-1.822h1.27l-.635-1.801zM30.385 21.938a.157.157 0 01-.121-.052.17.17 0 01-.049-.118v-4.433a.167.167 0 01.17-.17h1.91c.379 0 .708.059.985.173.281.118.5.291.656.523.156.232.235.527.235.88 0 .35-.08.637-.235.866a1.378 1.378 0 01-.656.505 2.74 2.74 0 01-.984.163h-.812v1.493a.155.155 0 01-.052.118.17.17 0 01-.125.052zm1.078-2.605h.798c.194 0 .35-.048.468-.149.114-.1.173-.253.173-.457a.648.648 0 00-.149-.436c-.1-.118-.263-.177-.492-.177h-.798z"/><path fill="#00358e" d="M26.966 21.938a.155.155 0 01-.118-.052.16.16 0 01-.052-.118v-1.465l-1.584-2.92c-.004-.014-.01-.024-.014-.038-.004-.014-.007-.024-.007-.038 0-.038.014-.07.045-.1a.144.144 0 01.107-.045h.853c.07 0 .122.017.16.052a.36.36 0 01.08.093l.977 1.76.982-1.76a.302.302 0 01.08-.093.233.233 0 01.159-.052h.853c.041 0 .076.013.104.045a.139.139 0 01.041.1c0 .014 0 .024-.003.038-.004.01-.007.024-.01.038l-1.585 2.92v1.465a.155.155 0 01-.052.118.17.17 0 01-.125.052zM20.954 21.938a.14.14 0 01-.101-.045.13.13 0 01-.045-.1c0-.025.003-.042.007-.063l1.605-4.378a.262.262 0 01.267-.19h1.01c.075 0 .138.017.18.058a.293.293 0 01.086.132l1.599 4.378a.14.14 0 01-.031.163.15.15 0 01-.105.045h-.839c-.069 0-.118-.018-.152-.052a.275.275 0 01-.066-.094l-.267-.696h-1.824l-.26.696a.313.313 0 01-.062.094c-.032.034-.087.052-.163.052zm1.605-1.822h1.269l-.635-1.801zM16.682 21.938a.158.158 0 01-.121-.052.171.171 0 01-.049-.118v-4.433c0-.049.017-.09.049-.121a.162.162 0 01.12-.049h1.856c.593 0 1.054.135 1.394.405.336.27.506.655.506 1.15 0 .322-.076.596-.232.818-.156.221-.36.39-.614.505l.936 1.677a.14.14 0 01-.024.177c-.031.027-.063.044-.1.044h-.91c-.086 0-.148-.02-.19-.066a.589.589 0 01-.09-.117l-.777-1.5h-.697v1.513a.155.155 0 01-.052.118.185.185 0 01-.124.052h-.881zm1.057-2.653h.784c.215 0 .375-.052.482-.156a.56.56 0 00.16-.423.614.614 0 00-.153-.43c-.1-.106-.264-.162-.489-.162h-.784zM12.067 21.938a.158.158 0 01-.121-.052.171.171 0 01-.049-.118v-4.433a.168.168 0 01.17-.17h1.91c.378 0 .708.059.985.173.28.118.5.291.655.523.156.232.236.527.236.88 0 .35-.08.637-.236.866a1.38 1.38 0 01-.655.505 2.74 2.74 0 01-.985.163h-.811v1.493a.155.155 0 01-.052.118.185.185 0 01-.125.052zm1.078-2.605h.798c.194 0 .35-.048.468-.149.114-.1.173-.253.173-.457a.647.647 0 00-.149-.436c-.1-.118-.263-.177-.492-.177h-.798zM9.154 22.007c-.454 0-.832-.066-1.133-.194-.302-.128-.528-.298-.684-.51a1.184 1.184 0 01-.246-.668c0-.038.014-.069.045-.1a.144.144 0 01.108-.045h.86c.062 0 .11.01.145.035.035.02.066.052.094.086a.72.72 0 00.416.35c.108.038.243.059.395.059.264 0 .465-.042.597-.121.132-.08.2-.194.2-.333a.322.322 0 00-.107-.253 1.054 1.054 0 00-.35-.173 5.823 5.823 0 00-.645-.16 3.844 3.844 0 01-.884-.283 1.31 1.31 0 01-.555-.457c-.128-.187-.19-.423-.19-.707 0-.277.08-.526.235-.745a1.57 1.57 0 01.66-.512c.28-.121.616-.184 1.001-.184.316 0 .59.042.829.125.24.083.44.19.603.329.163.139.288.28.371.433a.982.982 0 01.132.447c0 .038-.014.069-.038.1a.136.136 0 01-.108.045h-.901a.292.292 0 01-.128-.028.239.239 0 01-.098-.09.48.48 0 00-.215-.263.839.839 0 00-.454-.11c-.2 0-.357.034-.468.103a.362.362 0 00-.166.326c0 .09.03.17.093.239.063.069.163.128.309.176.142.049.34.1.59.156.412.076.748.174 1.001.291.254.118.444.267.562.45.122.184.18.416.18.693 0 .308-.09.575-.267.797-.176.221-.42.395-.728.516-.301.118-.655.18-1.06.18z"/><linearGradient id="a" x1="17.826" y1="12.908" x2="32.162" y2="12.908" gradientUnits="userSpaceOnUse"><stop offset="0" stop-color="#00358e"/><stop offset="1" stop-color="#00a9ce"/></linearGradient><path fill="url(#a)" d="M18.107 14.942a.313.313 0 01-.312-.312v-3.443a.313.313 0 01.624 0v3.443c0 .17-.142.312-.312.312z"/><linearGradient id="b" x1="17.826" y1="13.452" x2="32.162" y2="13.452" gradientUnits="userSpaceOnUse"><stop offset="0" stop-color="#00358e"/><stop offset="1" stop-color="#00a9ce"/></linearGradient><path fill="url(#b)" d="M19.359 15.33a.313.313 0 01-.312-.313v-3.13a.313.313 0 01.624 0v3.13c0 .17-.139.312-.312.312z"/><linearGradient id="c" x1="17.826" y1="13.827" x2="32.161" y2="13.827" gradientUnits="userSpaceOnUse"><stop offset="0" stop-color="#00358e"/><stop offset="1" stop-color="#00a9ce"/></linearGradient><path fill="url(#c)" d="M20.61 15.547a.313.313 0 01-.312-.311V12.42a.313.313 0 01.624 0v2.816a.308.308 0 01-.312.311z"/><linearGradient id="d" x1="17.826" y1="14.059" x2="32.161" y2="14.059" gradientUnits="userSpaceOnUse"><stop offset="0" stop-color="#00358e"/><stop offset="1" stop-color="#00a9ce"/></linearGradient><path fill="url(#d)" d="M21.865 15.624a.313.313 0 01-.312-.312v-2.504a.313.313 0 01.625 0v2.504c0 .17-.14.312-.313.312z"/><linearGradient id="e" x1="17.826" y1="14.147" x2="32.162" y2="14.147" gradientUnits="userSpaceOnUse"><stop offset="0" stop-color="#00358e"/><stop offset="1" stop-color="#00a9ce"/></linearGradient><path fill="url(#e)" d="M23.118 15.555a.313.313 0 01-.313-.312v-2.192a.313.313 0 01.625 0v2.192a.31.31 0 01-.312.312z"/><linearGradient id="f" x1="17.826" y1="14.109" x2="32.162" y2="14.109" gradientUnits="userSpaceOnUse"><stop offset="0" stop-color="#00358e"/><stop offset="1" stop-color="#00a9ce"/></linearGradient><path fill="url(#f)" d="M24.373 15.36a.313.313 0 01-.312-.311V13.17a.313.313 0 01.624 0v1.878c0 .17-.142.311-.312.311z"/><linearGradient id="g" x1="17.826" y1="13.952" x2="32.162" y2="13.952" gradientUnits="userSpaceOnUse"><stop offset="0" stop-color="#00358e"/><stop offset="1" stop-color="#00a9ce"/></linearGradient><path fill="url(#g)" d="M25.624 15.049a.313.313 0 01-.312-.312V13.17a.313.313 0 01.624 0v1.566c0 .17-.138.312-.312.312z"/><linearGradient id="h" x1="17.826" y1="13.677" x2="32.162" y2="13.677" gradientUnits="userSpaceOnUse"><stop offset="0" stop-color="#00358e"/><stop offset="1" stop-color="#00a9ce"/></linearGradient><path fill="url(#h)" d="M26.88 14.615a.313.313 0 01-.312-.311v-1.25a.313.313 0 01.624 0v1.25c0 .17-.142.311-.312.311z"/><linearGradient id="i" x1="17.826" y1="13.277" x2="32.162" y2="13.277" gradientUnits="userSpaceOnUse"><stop offset="0" stop-color="#00358e"/><stop offset="1" stop-color="#00a9ce"/></linearGradient><path fill="url(#i)" d="M28.131 14.058a.313.313 0 01-.312-.312v-.938a.313.313 0 01.624 0v.938a.31.31 0 01-.312.312z"/><linearGradient id="j" x1="17.826" y1="12.732" x2="32.162" y2="12.732" gradientUnits="userSpaceOnUse"><stop offset="0" stop-color="#00358e"/><stop offset="1" stop-color="#00a9ce"/></linearGradient><path fill="url(#j)" d="M29.383 13.359a.313.313 0 01-.312-.312v-.627a.313.313 0 01.624 0v.627a.31.31 0 01-.312.312z"/><linearGradient id="k" x1="17.826" y1="12.044" x2="32.162" y2="12.044" gradientUnits="userSpaceOnUse"><stop offset="0" stop-color="#00358e"/><stop offset="1" stop-color="#00a9ce"/></linearGradient><path fill="url(#k)" d="M30.638 12.513a.313.313 0 01-.312-.311v-.312a.313.313 0 01.624 0v.312c0 .17-.139.311-.312.311z"/><linearGradient id="l" x1="17.826" y1="11.186" x2="32.162" y2="11.186" gradientUnits="userSpaceOnUse"><stop offset="0" stop-color="#00358e"/><stop offset="1" stop-color="#00a9ce"/></linearGradient><path fill="url(#l)" d="M31.89 11.499a.313.313 0 01-.313-.312.313.313 0 01.625 0 .31.31 0 01-.312.312z"/></svg>