<svg xmlns="http://www.w3.org/2000/svg" width="640" height="360"><g fill="none" fill-rule="evenodd"><path fill="#000268" d="M80 112.986C80 92.56 96.644 76 117.165 76H522.2c20.53 0 37.165 16.56 37.165 36.986v132.173c0 20.414-16.636 36.977-37.165 36.977H117.165C96.645 282.136 80 265.573 80 245.16V112.986Z"/><path fill="#FFF" d="M95.273 114.384V244.04c0 12.761 10.403 23.111 23.236 23.111h212.202V91.273H118.509c-12.833 0-23.236 10.35-23.236 23.111Zm290.267 64.18c0 8.255-4.083 13.928-10.843 13.928-5.971 0-10.95-5.673-10.95-13.233 0-7.76 4.379-13.528 10.95-13.528 6.969 0 10.843 5.969 10.843 12.833Zm-39.69 47.344h17.897v-28.152h.2c3.39 6.17 10.16 8.455 16.424 8.455 15.414 0 23.669-12.728 23.669-28.047 0-12.529-7.855-26.165-22.183-26.165-8.15 0-15.71 3.286-19.3 10.55h-.2v-9.347H345.85v72.706Zm82.635-37.302c0-4.969 4.77-6.852 10.846-6.852 2.683 0 5.273.188 7.56.296 0 6.064-4.278 12.233-11.046 12.233-4.178 0-7.36-2.086-7.36-5.677Zm36.103 16.415c-.791-4.074-.991-8.16-.991-12.234V173.49c0-15.814-11.434-21.49-24.666-21.49-7.655 0-14.32 1.095-20.688 3.685l.304 12.14c4.957-2.79 10.738-3.885 16.507-3.885 6.455 0 11.729 1.895 11.836 8.96-2.286-.4-5.476-.705-8.36-.705-9.54 0-26.751 1.895-26.751 17.707 0 11.245 9.147 16.31 19.392 16.31 7.36 0 12.338-2.875 16.414-9.35h.2c0 2.694.293 5.368.4 8.159h16.403Zm8.054 20.887c3.683.8 7.36 1.203 11.138 1.203 16.415 0 20.288-12.636 25.362-25.669l19.005-48.24h-17.91l-10.642 33.817h-.2l-11.141-33.817h-19.288l20.983 53.01c-1.295 4.577-4.674 7.168-9.055 7.168-2.495 0-4.673-.305-7.064-1.095l-1.188 13.623Z"/><path fill="#FF0007" d="M139.952 179.777c0-7.065 3.486-12.938 10.15-12.938 8.055 0 11.433 6.464 11.433 12.233 0 7.96-5.073 13.329-11.433 13.329-5.37 0-10.15-4.57-10.15-12.624Zm38.893-25.466H162.63v9.347h-.188c-3.79-6.369-9.962-10.55-17.614-10.55-16.11 0-23.373 11.55-23.373 26.964 0 15.319 8.854 26.057 23.066 26.057 7.172 0 13.14-2.79 17.414-8.855h.2v2.79c0 10.142-5.569 15.015-15.907 15.015-7.464 0-12.045-1.59-17.51-4.274l-.895 14.129c4.17 1.495 11.234 3.285 19.796 3.285 20.888 0 31.226-6.867 31.226-28.155v-45.753Zm30.259-21.584h-17.907v13.129h17.907v-13.129Zm-17.898 73.402h17.898V154.31h-17.898v51.818Zm67.75-52.421c-1.791-.293-3.982-.6-6.065-.6-7.76 0-12.233 4.181-15.32 10.75h-.2v-9.547h-16.309v51.818h17.9v-21.876c0-10.15 4.683-16.214 13.034-16.214 2.095 0 4.073 0 6.064.588l.895-14.92Zm30.825 41.083c-8.254 0-11.633-6.864-11.633-14.52 0-7.759 3.379-14.623 11.633-14.623 8.264 0 11.646 6.864 11.646 14.624 0 7.655-3.382 14.52-11.646 14.52Zm0 12.529c17.11 0 30.143-9.938 30.143-27.048 0-17.214-13.033-27.164-30.143-27.164-17.106 0-30.13 9.95-30.13 27.164 0 17.11 13.024 27.048 30.13 27.048Z"/></g></svg>