<svg xmlns="http://www.w3.org/2000/svg" width="51" height="32"><g fill="none" fill-rule="evenodd"><path fill="#FFF" stroke="#D0D0D0" d="M.5.5h50v31H.5z"/><path fill="#000268" d="M14 12.65c0-1.022.832-1.85 1.858-1.85H36.11c1.026 0 1.858.828 1.858 1.85v6.608c0 1.02-.832 1.849-1.858 1.849H15.858A1.854 1.854 0 0 1 14 19.258z"/><path fill="#FFF" d="M14.764 12.72v6.482c0 .638.52 1.156 1.161 1.156h10.61v-8.794h-10.61c-.641 0-1.161.517-1.161 1.155m14.513 3.208c0 .413-.204.697-.542.697-.299 0-.548-.284-.548-.662 0-.388.22-.676.548-.676.348 0 .542.298.542.641m-1.984 2.367h.894v-1.407h.01c.17.308.508.423.822.423.77 0 1.183-.637 1.183-1.403 0-.626-.393-1.308-1.11-1.308-.407 0-.785.164-.964.527h-.01v-.467h-.825zm4.131-1.865c0-.248.239-.342.543-.342.134 0 .263.01.378.014 0 .304-.214.612-.553.612-.209 0-.368-.104-.368-.284m1.805.821a3 3 0 0 1-.05-.612v-.964c0-.791-.57-1.075-1.232-1.075-.383 0-.716.055-1.035.184l.015.607c.248-.14.537-.194.826-.194.322 0 .586.095.592.448a2.6 2.6 0 0 0-.418-.035c-.478 0-1.338.095-1.338.885 0 .562.457.816.97.816.368 0 .616-.144.82-.468h.01c0 .135.015.269.02.408zm.403 1.044q.275.06.557.06c.82 0 1.014-.631 1.268-1.283l.95-2.412h-.895l-.532 1.69h-.01l-.557-1.69h-.965l1.05 2.65c-.065.23-.234.359-.453.359-.125 0-.234-.015-.353-.055z"/><path fill="#FF0007" d="M16.998 15.989c0-.353.174-.647.507-.647.403 0 .572.323.572.612 0 .398-.254.666-.572.666-.268 0-.507-.228-.507-.631m1.944-1.273h-.81v.467h-.01c-.19-.319-.498-.528-.88-.528-.806 0-1.17.578-1.17 1.349 0 .766.443 1.302 1.154 1.302.359 0 .657-.14.87-.442h.01v.14c0 .506-.278.75-.795.75-.373 0-.602-.08-.875-.214l-.045.707c.209.074.562.164.99.164 1.044 0 1.561-.343 1.561-1.408zm1.513-1.08h-.895v.657h.895zm-.895 3.67h.895v-2.59h-.895zm3.388-2.62c-.09-.015-.2-.03-.303-.03-.388 0-.612.208-.766.537h-.01v-.477h-.816v2.59h.895v-1.093c0-.508.234-.811.652-.811.105 0 .203 0 .303.03zm1.541 2.054c-.413 0-.582-.344-.582-.726 0-.388.17-.732.582-.732.413 0 .582.344.582.732 0 .382-.169.726-.582.726m0 .626c.856 0 1.507-.497 1.507-1.352 0-.861-.651-1.359-1.507-1.359s-1.506.498-1.506 1.359c0 .855.65 1.352 1.506 1.352"/></g></svg>