<svg xmlns="http://www.w3.org/2000/svg" width="51" height="32"><g fill="none" fill-rule="evenodd"><path fill="#FFF" stroke="#D0D0D0" d="M.5.5h50v31H.5z"/><path fill="#33EBC7" fill-rule="nonzero" d="M11.751 11.817c-.97 0-1.751.796-1.751 1.751v9.282c0 .97.78 1.751 1.751 1.751.971 0 1.751-.78 1.751-1.751v-9.282c0-.955-.78-1.751-1.75-1.751m0-1.099c.97 0 1.75-.78 1.75-1.75 0-.972-.78-1.752-1.75-1.752-.972 0-1.752.78-1.752 1.751 0 .971.78 1.751 1.751 1.751m10.38 1.083c-1.687 0-2.77.637-3.438 1.258a4.245 4.245 0 0 0-.685-.51 1.869 1.869 0 0 0-.43-.239 1.595 1.595 0 0 0-.62-.111c-.972 0-1.752.78-1.752 1.751 0 .669.366 1.242.907 1.545.016 0 .016.015.032.015.112.064.207.144.27.207.447.462.606 1.274.638 1.768 0 .127 0 .254.016.35v4.999c0 .971.78 1.767 1.75 1.767.972 0 1.752-.78 1.752-1.751v-5.843c0-.94.764-1.704 1.704-1.704.939 0 1.703.765 1.703 1.704V22.849c0 .972.78 1.752 1.751 1.752.971 0 1.752-.78 1.752-1.751V17.77c0-.684-.128-2.913-1.624-4.473-.908-.972-2.213-1.497-3.726-1.497m18.516 3.9c.048-.063.111-.127.159-.19.032-.032.048-.08.08-.112.063-.096.127-.175.19-.27 0-.017.017-.017.017-.032.095-.128.175-.271.238-.43v-.016c.335-.7.51-1.513.51-2.388 0-1.688-.637-2.77-1.258-3.44-.796-.795-1.767-1.623-4.585-1.623h-5.19a1.76 1.76 0 0 0-1.767 1.751c0 .971.78 1.751 1.751 1.751h5.843c.94 0 1.703.765 1.703 1.704a1.69 1.69 0 0 1-1.48 1.688c-.207.015-.414.015-.653.015H30.808c-.971 0-1.751.78-1.751 1.752 0 .97.78 1.75 1.751 1.75h5.843c.939 0 1.703.765 1.703 1.704 0 .94-.764 1.704-1.703 1.704h-5.843c-.971 0-1.751.78-1.751 1.751 0 .971.78 1.751 1.751 1.751h5.079c.684 0 2.913-.127 4.473-1.623.987-.94 1.513-2.245 1.513-3.758 0-1.687-.637-2.77-1.258-3.439-.016.048.016.032.032 0"/></g></svg>