<svg xmlns="http://www.w3.org/2000/svg" width="640" height="360"><path fill="#33EBC7" d="M177.512 138.17c-9.711 0-17.512 7.96-17.512 17.512v92.816a17.462 17.462 0 0 0 17.512 17.512 17.462 17.462 0 0 0 17.513-17.512v-92.816c0-9.553-7.801-17.513-17.513-17.513m0-10.985a17.462 17.462 0 0 0 17.513-17.512 17.462 17.462 0 0 0-17.513-17.513A17.462 17.462 0 0 0 160 109.672a17.462 17.462 0 0 0 17.512 17.512m103.801 10.826c-16.875 0-27.701 6.368-34.388 12.577-2.07-1.91-4.457-3.662-6.845-5.094a18.69 18.69 0 0 0-4.299-2.389c-1.91-.796-3.98-1.114-6.209-1.114a17.462 17.462 0 0 0-17.512 17.512c0 6.687 3.661 12.418 9.074 15.443.16 0 .16.16.319.16a13.3 13.3 0 0 1 2.706 2.07c4.458 4.616 6.05 12.735 6.368 17.67 0 1.274 0 2.548.16 3.503v49.99c0 9.712 7.8 17.672 17.512 17.672a17.462 17.462 0 0 0 17.512-17.512v-58.429c0-9.392 7.642-17.034 17.035-17.034s17.035 7.642 17.035 17.035v58.428a17.462 17.462 0 0 0 17.513 17.512 17.462 17.462 0 0 0 17.512-17.512V197.71c0-6.845-1.274-29.134-16.239-44.736-9.074-9.711-22.13-14.965-37.254-14.965m185.155 39.005c.477-.637 1.114-1.274 1.592-1.91.318-.319.477-.797.796-1.115.637-.955 1.273-1.751 1.91-2.706 0-.16.16-.16.16-.319a18.69 18.69 0 0 0 2.387-4.298v-.16c3.344-7.005 5.095-15.124 5.095-23.88 0-16.876-6.368-27.702-12.577-34.388C457.87 100.279 448.159 92 419.98 92H368.08c-9.712 0-17.672 7.801-17.672 17.512a17.462 17.462 0 0 0 17.512 17.513h58.429c9.392 0 17.034 7.642 17.034 17.035 0 8.756-6.527 15.92-14.806 16.875-2.07.16-4.14.16-6.527.16h-53.97a17.462 17.462 0 0 0-17.513 17.512 17.462 17.462 0 0 0 17.513 17.512h58.428c9.392 0 17.034 7.642 17.034 17.035s-7.642 17.035-17.035 17.035H368.08a17.462 17.462 0 0 0-17.513 17.512 17.462 17.462 0 0 0 17.513 17.513h50.786c6.845 0 29.134-1.274 44.736-16.239 9.87-9.393 15.124-22.448 15.124-37.572 0-16.876-6.368-27.702-12.577-34.388-.159.478.16.318.319 0"/></svg>