<svg xmlns="http://www.w3.org/2000/svg" width="140" height="80"><defs><linearGradient id="a" x1="44.198%" x2="83.915%" y1="46.67%" y2="52.286%"><stop offset="0%" stop-color="#E53121"/><stop offset="100%" stop-color="#C22C1A"/></linearGradient><linearGradient id="b" x1=".359%" x2="100.027%" y1="46.1%" y2="60.191%"><stop offset="0%" stop-color="#DCDAEE"/><stop offset="100%" stop-color="#8F88C0"/></linearGradient><linearGradient id="c" x1="64.689%" x2="25.183%" y1="62.876%" y2="44.858%"><stop offset="0%" stop-color="#7B73B3"/><stop offset="100%" stop-color="#C6C2E2"/></linearGradient><linearGradient id="d" x1="102.04%" x2="-1.18%" y1="68.092%" y2="30.652%"><stop offset="0%" stop-color="#6C62A8"/><stop offset="100%" stop-color="#CBCAE6"/></linearGradient><linearGradient id="e" x1="20.368%" x2="65.914%" y1="33.687%" y2="98.057%"><stop offset="0%" stop-color="#E53121"/><stop offset="100%" stop-color="#A62714"/></linearGradient><linearGradient id="f" x1="33.941%" x2="67.147%" y1="1.275%" y2="102.458%"><stop offset="0%" stop-color="#E84D2C"/><stop offset="100%" stop-color="#811F08"/></linearGradient><linearGradient id="g" x1="42.685%" x2="79.787%" y1="7.334%" y2="91.198%"><stop offset="0%" stop-color="#F3F2F9"/><stop offset="100%" stop-color="#BBB7DB"/></linearGradient><linearGradient id="h" x1="47.609%" x2="51.732%" y1="46.044%" y2="54.704%"><stop offset="0%" stop-color="#FFF"/><stop offset="100%" stop-color="#BBB7DB"/></linearGradient><linearGradient id="i" x1="15.883%" x2="99.743%" y1="50.51%" y2="64.42%"><stop offset="0%" stop-color="#FFF098"/><stop offset="100%" stop-color="#FFD530"/></linearGradient><linearGradient id="j" x1="21.317%" x2="98.983%" y1="23.455%" y2="58.097%"><stop offset="0%" stop-color="#F4A286"/><stop offset="100%" stop-color="#E53121"/></linearGradient><linearGradient id="k" x1="-2.283%" x2="102.125%" y1="66.113%" y2="31.847%"><stop offset="0%" stop-color="#F4A286"/><stop offset="100%" stop-color="#E53121"/></linearGradient><linearGradient id="l" x1="13.512%" x2="76.172%" y1="41.257%" y2="62.762%"><stop offset="0%" stop-color="#4464AC"/><stop offset="100%" stop-color="#1D3584"/></linearGradient><linearGradient id="m" x1="1.224%" x2="101.223%" y1="49.988%" y2="49.988%"><stop offset="0%" stop-color="#4464AC"/><stop offset="37.3%" stop-color="#2F4B97"/><stop offset="72.8%" stop-color="#223B89"/><stop offset="100%" stop-color="#1D3584"/></linearGradient><linearGradient id="n" x1="-5.58%" x2="105.203%" y1="40.618%" y2="60.582%"><stop offset="0%" stop-color="#5B62A2"/><stop offset="15.2%" stop-color="#4C579A"/><stop offset="48.2%" stop-color="#31438C"/><stop offset="77.6%" stop-color="#213783"/><stop offset="100%" stop-color="#1B3380"/></linearGradient><linearGradient id="o" x1="49.782%" x2="57.071%" y1="17.163%" y2="85.144%"><stop offset="0%" stop-color="#FFF"/><stop offset="100%" stop-color="#DAD8ED"/></linearGradient><linearGradient id="p" x1="26.245%" x2="71.738%" y1="39.817%" y2="62.762%"><stop offset="0%" stop-color="#FFF"/><stop offset="100%" stop-color="#D1CEE8"/></linearGradient><linearGradient id="q" x1="7.348%" x2="96.132%" y1="37.664%" y2="52.388%"><stop offset="0%" stop-color="#D1CEE8"/><stop offset="100%" stop-color="#7B73B3"/></linearGradient><linearGradient id="r" x1="15.246%" x2="57.235%" y1=".057%" y2="89.18%"><stop offset="0%" stop-color="#E53121"/><stop offset="100%" stop-color="#B02916"/></linearGradient><linearGradient id="s" x1="-1.311%" x2="103.103%" y1="67.89%" y2="33.608%"><stop offset="0%" stop-color="#E53121"/><stop offset="100%" stop-color="#9D2511"/></linearGradient><linearGradient id="t" x1="43.632%" x2="87.818%" y1="42.052%" y2="95.751%"><stop offset="0%" stop-color="#F5B0AC"/><stop offset="100%" stop-color="#EF8495"/></linearGradient><linearGradient id="u" x1="1.266%" x2="101.27%" y1="50.012%" y2="50.012%"><stop offset="0%" stop-color="#F5B0AC"/><stop offset="100%" stop-color="#EE788F"/></linearGradient></defs><g fill="none" fill-rule="evenodd"><g transform="translate(0 15.5)"><path fill="#FFF" fill-rule="nonzero" d="M48.024 24.086c0 13.148-10.658 23.805-23.804 23.805C11.07 47.891.413 37.234.413 24.086.413 10.941 11.071.282 24.22.282c13.147 0 23.804 10.659 23.804 23.805z"/><circle cx="24.212" cy="24.076" r="23.913" fill="#FFF" fill-rule="nonzero"/><path fill="url(#a)" fill-rule="nonzero" d="m24.213 24.076 8.878-4.922L47.21 30.67z"/><path fill="#E53121" fill-rule="nonzero" d="M33.09 19.154 47.21 30.67l-1.406-.737-12.746-10.396z"/><path fill="#F08465" fill-rule="nonzero" d="m24.213 24.076 8.878-4.922-.033.384-8.015 4.442z"/><path fill="#B82B18" fill-rule="nonzero" d="m47.21 30.671-22.997-6.595.83-.096 20.761 5.954z"/><path fill="#F5B0AC" fill-rule="nonzero" d="m24.213 24.076 8.878-4.922-2.285-18.078z"/><path fill="#D47785" fill-rule="nonzero" d="m30.806 1.077-6.593 22.999.52-.656 5.952-20.762z"/><path fill="#D99E9B" fill-rule="nonzero" d="M33.09 19.154 30.806 1.076l-.12 1.582 2.061 16.32z"/><path fill="#F9D1CD" fill-rule="nonzero" d="m24.213 24.076 8.878-4.922-.343-.177-8.015 4.443z"/><path d="m24.213 24.076 4.92 8.878-11.516 14.12z"/><path fill="#F9F9FC" fill-rule="nonzero" d="m29.134 32.954-11.517 14.12.736-1.407L28.75 32.921z"/><path fill="#F3F2F9" fill-rule="nonzero" d="m24.213 24.076 4.92 8.878-.384-.033-4.441-8.015z"/><path fill="#DCDAEE" fill-rule="nonzero" d="m17.617 47.074 6.596-22.998.095.83-5.954 20.761z"/><path fill="#2B2B85" fill-rule="nonzero" d="m24.213 24.076 4.92 8.878 18.077-2.283z"/><path fill="#484293" fill-rule="nonzero" d="m47.21 30.671-22.997-6.595.655.52 20.762 5.952z"/><path fill="#24236F" fill-rule="nonzero" d="m29.134 32.954 18.076-2.283-1.58-.123-16.32 2.063z"/><path fill="#8F88C0" fill-rule="nonzero" d="m24.213 24.076 4.92 8.878.177-.343-4.443-8.015z"/><path fill="url(#b)" fill-rule="nonzero" d="m24.213 24.076-8.88 4.92L1.214 17.48z"/><path fill="#BBB7DB" fill-rule="nonzero" d="M15.333 28.997 1.214 17.48l1.406.736 12.748 10.398z"/><path fill="#B0AAD4" fill-rule="nonzero" d="m24.213 24.076-8.88 4.92.035-.382 8.014-4.443z"/><path fill="#D1CCE6" fill-rule="nonzero" d="m1.214 17.48 22.999 6.596-.831.095L2.62 18.216z"/><path fill="#FD0" fill-rule="nonzero" d="m24.213 24.076-8.88 4.92 2.284 18.078z"/><path fill="#DBBB85" fill-rule="nonzero" d="m17.617 47.074 6.596-22.998-.522.655-5.952 20.76z"/><path fill="#EBC536" fill-rule="nonzero" d="m15.333 28.997 2.284 18.077.122-1.582-2.062-16.318z"/><path fill="#FFE167" fill-rule="nonzero" d="m24.213 24.076-8.88 4.92.344.178 8.013-4.443z"/><path fill="#E53121" fill-rule="nonzero" d="m24.213 24.076-4.923-8.88L30.806 1.078z"/><path fill="#EA583C" fill-rule="nonzero" d="M19.29 15.196 30.806 1.078l-.735 1.406-10.396 12.748z"/><path fill="#D42F1E" fill-rule="nonzero" d="m24.213 24.076-4.923-8.88.384.035 4.443 8.014z"/><path fill="#C22C1A" fill-rule="nonzero" d="m30.806 1.077-6.593 22.999-.096-.831 5.954-20.762z"/><path fill="#F3F2F9" fill-rule="nonzero" d="m24.213 24.076-4.923-8.88L1.213 17.48z"/><path fill="#F9F8FB" fill-rule="nonzero" d="m1.213 17.48 23 6.596-.656-.522-20.762-5.952z"/><path fill="#DCDAEE" fill-rule="nonzero" d="M19.29 15.196 1.213 17.48l1.582.122 16.319-2.061z"/><path fill="#F9F9FC" fill-rule="nonzero" d="m24.213 24.076-4.923-8.88-.176.345 4.443 8.012z"/><path fill="url(#c)" fill-rule="nonzero" d="M41.426 7.453a23.8 23.8 0 0 0-10.62-6.376l2.285 18.076z"/><path fill="#8F88C0" fill-rule="nonzero" d="m30.806 1.077 2.285 18.077.212-.851-2.146-17.124z"/><path fill="#A59FCE" fill-rule="nonzero" d="m41.2 7.223-7.898 11.08-.212.85 8.336-11.7a8 8 0 0 0-.227-.23"/><path fill="url(#d)" fill-rule="nonzero" d="M41.426 7.453a23.8 23.8 0 0 0-10.62-6.376l.434.798a23.15 23.15 0 0 1 9.583 5.874z"/><path fill="url(#e)" fill-rule="nonzero" d="m33.09 19.154 8.336-11.701a24.03 24.03 0 0 1 6.004 10.834l-14.339.867z"/><path fill="#ED6F50" fill-rule="nonzero" d="m41.427 7.454-8.337 11.7.647-.358L41.65 7.689z"/><path fill="#A62714" fill-rule="nonzero" d="m47.35 17.97-13.614.825-.646.359 14.34-.867z"/><path fill="url(#f)" fill-rule="nonzero" d="M46.698 18.007a23.4 23.4 0 0 0-5.427-9.787l.153-.767a24.04 24.04 0 0 1 6.006 10.834z"/><path fill="url(#g)" fill-rule="nonzero" d="m33.09 19.154 14.34-.867c.988 3.944.98 8.195-.22 12.384z"/><path fill="#D1CEE8" fill-rule="nonzero" d="m47.43 18.287-14.34.867.835.268 13.582-.82-.076-.316"/><path fill="#F3F2F9" fill-rule="nonzero" d="M47.21 30.671q.05-.17.094-.338L33.925 19.422l-.834-.268z"/><path fill="url(#h)" fill-rule="nonzero" d="M46.76 29.892c.986-3.808.966-7.655.1-11.247l.57-.358c.988 3.944.98 8.193-.22 12.384z"/><path fill="url(#i)" fill-rule="nonzero" d="M7.589 6.862A23.8 23.8 0 0 0 1.213 17.48l18.077-2.284z"/><path fill="#FFCB00" fill-rule="nonzero" d="m1.213 17.48 18.077-2.284-.852-.212-17.123 2.148q-.052.173-.102.348"/><path fill="#FD0" fill-rule="nonzero" d="m7.358 7.087 11.08 7.897.852.212L7.591 6.861z"/><path fill="#FFF8C7" fill-rule="nonzero" d="M7.588 6.862A23.8 23.8 0 0 0 1.214 17.48l.796-.433a23.16 23.16 0 0 1 5.875-9.582z"/><path fill="url(#j)" fill-rule="nonzero" d="M19.29 15.196 7.589 6.862A24.03 24.03 0 0 1 18.422.857z"/><path fill="#E53121" fill-rule="nonzero" d="m7.591 6.862 11.7 8.334-.358-.644L7.826 6.638q-.119.11-.235.224M18.107.939l.827 13.613.357.644L18.424.857z"/><path fill="url(#k)" fill-rule="nonzero" d="M18.145 1.59a23.4 23.4 0 0 0-9.791 5.426l-.766-.154A24.04 24.04 0 0 1 18.422.857z"/><path fill="url(#l)" fill-rule="nonzero" d="M19.29 15.196 18.423.857a23.8 23.8 0 0 1 12.383.221z"/><path fill="#1E398E" fill-rule="nonzero" d="m18.422.857.867 14.339.27-.834L18.737.78z"/><path fill="#2F2482" fill-rule="nonzero" d="M30.806 1.077 30.47.983 19.559 14.362l-.27.834z"/><path fill="url(#m)" fill-rule="nonzero" d="M30.029 1.527a23.15 23.15 0 0 0-11.248-.1l-.358-.57a23.8 23.8 0 0 1 12.383.221z"/><path fill="#2B2B85" fill-rule="nonzero" d="M6.999 40.698a23.8 23.8 0 0 0 10.618 6.376l-2.284-18.077z"/><path fill="#24236F" fill-rule="nonzero" d="m17.617 47.074-2.284-18.077-.211.852 2.146 17.123q.175.053.349.102"/><path fill="#5B549F" fill-rule="nonzero" d="m7.224 40.928 7.897-11.08.212-.851L7 40.698z"/><path fill="url(#n)" fill-rule="nonzero" d="M6.999 40.699a23.8 23.8 0 0 0 10.618 6.376l-.433-.798A23.17 23.17 0 0 1 7.6 40.402z"/><path fill="url(#o)" fill-rule="nonzero" d="M15.333 28.997 7 40.698A24.04 24.04 0 0 1 .993 29.865z"/><path fill="#B0AAD4" fill-rule="nonzero" d="m6.999 40.698 8.334-11.7-.645.357-7.914 11.108z"/><path fill="#DAD8ED" fill-rule="nonzero" d="m1.076 30.18 13.612-.826.645-.357-14.339.867q.039.161.082.316"/><path fill="url(#p)" fill-rule="nonzero" d="M1.726 30.144a23.4 23.4 0 0 0 5.427 9.789l-.154.766A24.05 24.05 0 0 1 .993 29.865z"/><path fill="#E53121" fill-rule="nonzero" d="m15.333 28.997-14.34.868a23.83 23.83 0 0 1 .221-12.384z"/><path fill="#CA2D0A" fill-rule="nonzero" d="m.993 29.864 14.34-.867-.834-.267-13.58.82q.036.158.074.314"/><path fill="#ED6F50" fill-rule="nonzero" d="m1.214 17.48-.094.337L14.5 28.73l.834.267zm.45.778a23.16 23.16 0 0 0-.101 11.249l-.57.358a23.8 23.8 0 0 1 .22-12.383z"/><path fill="url(#q)" fill-rule="nonzero" d="M40.835 41.289A23.8 23.8 0 0 0 47.21 30.67l-18.076 2.283z"/><path fill="#7B73B3" fill-rule="nonzero" d="m47.21 30.671-18.076 2.284.851.211 17.122-2.146q.053-.174.103-.349"/><path fill="#D1CEE8" fill-rule="nonzero" d="m41.065 41.063-11.08-7.897-.851-.212 11.7 8.337z"/><path fill="#655EA5" fill-rule="nonzero" d="M40.835 41.29a23.8 23.8 0 0 0 6.375-10.62l-.797.434a23.15 23.15 0 0 1-5.875 9.582l.297.605"/><path fill="url(#r)" fill-rule="nonzero" d="m29.134 32.954 11.7 8.335a24.05 24.05 0 0 1-10.832 6.004z"/><path fill="#E53121" fill-rule="nonzero" d="m40.834 41.29-11.7-8.336.358.645 11.106 7.915q.12-.11.237-.223m-10.517 5.922L29.492 33.6l-.358-.645L30 47.294z"/><path fill="url(#s)" fill-rule="nonzero" d="M30.28 46.56a23.4 23.4 0 0 0 9.79-5.426l.765.157a24.07 24.07 0 0 1-10.833 6.004l.279-.734"/><path fill="url(#t)" fill-rule="nonzero" d="m29.134 32.954.868 14.34c-3.945.986-8.195.98-12.385-.22z"/><path fill="#F5B0AC" fill-rule="nonzero" d="m30 47.294-.866-14.339-.27.834.823 13.581z"/><path fill="#FAD9D5" fill-rule="nonzero" d="m17.617 47.074.338.094 10.91-13.38.27-.834z"/><path fill="url(#u)" fill-rule="nonzero" d="M18.395 46.624c3.81.985 7.656.966 11.248.101l.359.57a23.83 23.83 0 0 1-12.383-.22z"/></g><path fill="#FFF" fill-rule="nonzero" d="M67.788 36.288c-2.037-.576-2.504-1.463-2.504-2.633l.001-1.154c0-.925.525-1.664 1.219-1.922.533-.2 1.13-.234 2.182-.234h9.215a.436.436 0 0 0 .431-.438l.003-2.1c0-.955-.024-1.885-.95-2.59-.513-.393-1.357-.743-2.593-.987-1.338-.263-3.463-.458-6.302-.458-4.587 0-7.155.929-8.918 2.945-.429.493-1.883 2.582-1.883 5.827 0 1.522-.004 2.028.017 2.36.323 5.019 3.67 6.432 7.03 7.3.85.219 4.99 1.344 5.102 1.375 2.037.576 2.558 1.464 2.558 2.634l-.001 1.305c0 .926-.58 1.665-1.273 1.922-.534.2-1.28.232-2.332.232l-10.712.001a.435.435 0 0 0-.425.44v1.073c.048 1.846.29 3.166 1.498 4.018.953.672 2.759 1.594 8.64 1.594h.653c3.369-.118 5.539-.582 6.991-1.251 1.304-.6 2.002-1.209 2.627-1.9.777-.862 1.986-2.885 2.123-5.624.02-.374.015-2.422 0-2.656-.32-5.018-3.738-6.786-7.099-7.654a969 969 0 0 1-5.298-1.425m42.095-12.095h-3.935c-1.44 0-1.756.344-1.757 1.752v15.827l-.2-.001c-.937-1.34-8.845-12.724-10.638-15.274-.984-1.399-2.293-2.304-4.334-2.305h-2.741a.44.44 0 0 0-.442.44v30c.002 1.407.319 1.75 1.759 1.75h3.94c1.44 0 1.756-.342 1.757-1.75V38.776l.215.005 10.91 15.577c.983 1.241 2.362 2.025 4.063 2.025h2.719a.44.44 0 0 0 .44-.44V25.943c0-1.407-.316-1.751-1.756-1.751m30.015 21.175c-.322-5.02-3.74-6.787-7.1-7.655-.85-.219-5.189-1.394-5.3-1.425-2.038-.577-2.505-1.463-2.505-2.634l.001-1.154c0-.924.524-1.664 1.22-1.922.534-.199 1.13-.234 2.182-.234h9.216a.437.437 0 0 0 .431-.437l.002-2.1c0-.956-.026-1.886-.95-2.591-.513-.392-1.357-.743-2.593-.987-1.338-.263-3.463-.458-6.302-.458-4.587 0-7.154.93-8.918 2.946-.429.492-1.883 2.581-1.883 5.826 0 1.522-.004 2.029.017 2.36.323 5.02 3.671 6.433 7.03 7.301.851.218 4.99 1.343 5.101 1.375 2.037.576 2.56 1.463 2.56 2.633l-.002 1.306c0 .926-.58 1.665-1.273 1.922-.535.199-1.28.231-2.331.231l-10.712.002a.433.433 0 0 0-.424.44v1.072c.048 1.846.29 3.166 1.498 4.018.953.673 2.76 1.594 8.64 1.594h.653c3.368-.118 5.539-.582 6.992-1.25 1.304-.6 2.001-1.21 2.626-1.901.777-.861 1.986-2.884 2.124-5.623.02-.375.015-2.422 0-2.655"/></g></svg>