<svg width="140" height="80" xmlns="http://www.w3.org/2000/svg"><defs><linearGradient x1="44.198%" y1="46.67%" x2="83.915%" y2="52.286%" id="a"><stop stop-color="#E53121" offset="0%"/><stop stop-color="#C22C1A" offset="100%"/></linearGradient><linearGradient x1=".359%" y1="46.1%" x2="100.027%" y2="60.191%" id="b"><stop stop-color="#DCDAEE" offset="0%"/><stop stop-color="#8F88C0" offset="100%"/></linearGradient><linearGradient x1="64.689%" y1="62.876%" x2="25.183%" y2="44.858%" id="c"><stop stop-color="#7B73B3" offset="0%"/><stop stop-color="#C6C2E2" offset="100%"/></linearGradient><linearGradient x1="102.04%" y1="68.092%" x2="-1.18%" y2="30.652%" id="d"><stop stop-color="#6C62A8" offset="0%"/><stop stop-color="#CBCAE6" offset="100%"/></linearGradient><linearGradient x1="20.368%" y1="33.687%" x2="65.914%" y2="98.057%" id="e"><stop stop-color="#E53121" offset="0%"/><stop stop-color="#A62714" offset="100%"/></linearGradient><linearGradient x1="33.941%" y1="1.275%" x2="67.147%" y2="102.458%" id="f"><stop stop-color="#E84D2C" offset="0%"/><stop stop-color="#811F08" offset="100%"/></linearGradient><linearGradient x1="42.685%" y1="7.334%" x2="79.787%" y2="91.198%" id="g"><stop stop-color="#F3F2F9" offset="0%"/><stop stop-color="#BBB7DB" offset="100%"/></linearGradient><linearGradient x1="47.609%" y1="46.044%" x2="51.732%" y2="54.704%" id="h"><stop stop-color="#FFF" offset="0%"/><stop stop-color="#BBB7DB" offset="100%"/></linearGradient><linearGradient x1="15.883%" y1="50.51%" x2="99.743%" y2="64.42%" id="i"><stop stop-color="#FFF098" offset="0%"/><stop stop-color="#FFD530" offset="100%"/></linearGradient><linearGradient x1="21.317%" y1="23.455%" x2="98.983%" y2="58.097%" id="j"><stop stop-color="#F4A286" offset="0%"/><stop stop-color="#E53121" offset="100%"/></linearGradient><linearGradient x1="-2.283%" y1="66.113%" x2="102.125%" y2="31.847%" id="k"><stop stop-color="#F4A286" offset="0%"/><stop stop-color="#E53121" offset="100%"/></linearGradient><linearGradient x1="13.512%" y1="41.257%" x2="76.172%" y2="62.762%" id="l"><stop stop-color="#4464AC" offset="0%"/><stop stop-color="#1D3584" offset="100%"/></linearGradient><linearGradient x1="1.224%" y1="49.988%" x2="101.223%" y2="49.988%" id="m"><stop stop-color="#4464AC" offset="0%"/><stop stop-color="#2F4B97" offset="37.3%"/><stop stop-color="#223B89" offset="72.8%"/><stop stop-color="#1D3584" offset="100%"/></linearGradient><linearGradient x1="-5.58%" y1="40.618%" x2="105.203%" y2="60.582%" id="n"><stop stop-color="#5B62A2" offset="0%"/><stop stop-color="#4C579A" offset="15.2%"/><stop stop-color="#31438C" offset="48.2%"/><stop stop-color="#213783" offset="77.6%"/><stop stop-color="#1B3380" offset="100%"/></linearGradient><linearGradient x1="49.782%" y1="17.163%" x2="57.071%" y2="85.144%" id="o"><stop stop-color="#FFF" offset="0%"/><stop stop-color="#DAD8ED" offset="100%"/></linearGradient><linearGradient x1="26.245%" y1="39.817%" x2="71.738%" y2="62.762%" id="p"><stop stop-color="#FFF" offset="0%"/><stop stop-color="#D1CEE8" offset="100%"/></linearGradient><linearGradient x1="7.348%" y1="37.664%" x2="96.132%" y2="52.388%" id="q"><stop stop-color="#D1CEE8" offset="0%"/><stop stop-color="#7B73B3" offset="100%"/></linearGradient><linearGradient x1="15.246%" y1=".057%" x2="57.235%" y2="89.18%" id="r"><stop stop-color="#E53121" offset="0%"/><stop stop-color="#B02916" offset="100%"/></linearGradient><linearGradient x1="-1.311%" y1="67.89%" x2="103.103%" y2="33.608%" id="s"><stop stop-color="#E53121" offset="0%"/><stop stop-color="#9D2511" offset="100%"/></linearGradient><linearGradient x1="43.632%" y1="42.052%" x2="87.818%" y2="95.751%" id="t"><stop stop-color="#F5B0AC" offset="0%"/><stop stop-color="#EF8495" offset="100%"/></linearGradient><linearGradient x1="1.266%" y1="50.012%" x2="101.27%" y2="50.012%" id="u"><stop stop-color="#F5B0AC" offset="0%"/><stop stop-color="#EE788F" offset="100%"/></linearGradient></defs><g fill="none" fill-rule="evenodd"><g transform="translate(0 15.5)"><path d="M48.024 24.086c0 13.148-10.658 23.805-23.804 23.805C11.07 47.891.413 37.234.413 24.086.413 10.941 11.071.282 24.22.282c13.147 0 23.804 10.659 23.804 23.805v-.001Z" fill="#FFF" fill-rule="nonzero"/><circle fill="#FFF" fill-rule="nonzero" cx="24.212" cy="24.076" r="23.913"/><path fill="url(#a)" fill-rule="nonzero" d="m24.213 24.076 8.878-4.922L47.21 30.67l-22.998-6.595"/><path fill="#E53121" fill-rule="nonzero" d="M33.09 19.154 47.21 30.67l-1.406-.737-12.746-10.396z"/><path fill="#F08465" fill-rule="nonzero" d="m24.213 24.076 8.878-4.922-.033.384-8.015 4.442z"/><path fill="#B82B18" fill-rule="nonzero" d="m47.21 30.671-22.997-6.595.83-.096 20.761 5.954z"/><path fill="#F5B0AC" fill-rule="nonzero" d="m24.213 24.076 8.878-4.922-2.285-18.078-6.593 23"/><path fill="#D47785" fill-rule="nonzero" d="m30.806 1.077-6.593 22.999.52-.656 5.952-20.762z"/><path fill="#D99E9B" fill-rule="nonzero" d="M33.09 19.154 30.806 1.076l-.12 1.582 2.061 16.32z"/><path fill="#F9D1CD" fill-rule="nonzero" d="m24.213 24.076 8.878-4.922-.343-.177-8.015 4.443z"/><path d="m24.213 24.076 4.92 8.878-11.516 14.12 6.596-22.998"/><path fill="#F9F9FC" fill-rule="nonzero" d="m29.134 32.954-11.517 14.12.736-1.407L28.75 32.921z"/><path fill="#F3F2F9" fill-rule="nonzero" d="m24.213 24.076 4.92 8.878-.384-.033-4.441-8.015z"/><path fill="#DCDAEE" fill-rule="nonzero" d="m17.617 47.074 6.596-22.998.095.83-5.954 20.761z"/><path fill="#2B2B85" fill-rule="nonzero" d="m24.213 24.076 4.92 8.878 18.077-2.283-22.997-6.595"/><path fill="#484293" fill-rule="nonzero" d="m47.21 30.671-22.997-6.595.655.52 20.762 5.952z"/><path fill="#24236F" fill-rule="nonzero" d="m29.134 32.954 18.076-2.283-1.58-.123-16.32 2.063z"/><path fill="#8F88C0" fill-rule="nonzero" d="m24.213 24.076 4.92 8.878.177-.343-4.443-8.015z"/><path fill="url(#b)" fill-rule="nonzero" d="m24.213 24.076-8.88 4.92L1.214 17.48l22.999 6.596"/><path fill="#BBB7DB" fill-rule="nonzero" d="M15.333 28.997 1.214 17.48l1.406.736 12.748 10.398z"/><path fill="#B0AAD4" fill-rule="nonzero" d="m24.213 24.076-8.88 4.92.035-.382 8.014-4.443z"/><path fill="#D1CCE6" fill-rule="nonzero" d="m1.214 17.48 22.999 6.596-.831.095L2.62 18.216z"/><path fill="#FD0" fill-rule="nonzero" d="m24.213 24.076-8.88 4.92 2.284 18.078 6.596-22.998"/><path fill="#DBBB85" fill-rule="nonzero" d="m17.617 47.074 6.596-22.998-.522.655-5.952 20.76z"/><path fill="#EBC536" fill-rule="nonzero" d="m15.333 28.997 2.284 18.077.122-1.582-2.062-16.318z"/><path fill="#FFE167" fill-rule="nonzero" d="m24.213 24.076-8.88 4.92.344.178 8.013-4.443z"/><path fill="#E53121" fill-rule="nonzero" d="m24.213 24.076-4.923-8.88L30.806 1.078l-6.593 22.998"/><path fill="#EA583C" fill-rule="nonzero" d="M19.29 15.196 30.806 1.078l-.735 1.406-10.396 12.748z"/><path fill="#D42F1E" fill-rule="nonzero" d="m24.213 24.076-4.923-8.88.384.035 4.443 8.014z"/><path fill="#C22C1A" fill-rule="nonzero" d="m30.806 1.077-6.593 22.999-.096-.831 5.954-20.762z"/><path fill="#F3F2F9" fill-rule="nonzero" d="m24.213 24.076-4.923-8.88L1.213 17.48l23 6.596"/><path fill="#F9F8FB" fill-rule="nonzero" d="m1.213 17.48 23 6.596-.656-.522-20.762-5.952z"/><path fill="#DCDAEE" fill-rule="nonzero" d="M19.29 15.196 1.213 17.48l1.582.122 16.319-2.061z"/><path fill="#F9F9FC" fill-rule="nonzero" d="m24.213 24.076-4.923-8.88-.176.345 4.443 8.012z"/><path d="M41.426 7.453a23.819 23.819 0 0 0-10.62-6.376l2.285 18.076 8.335-11.7Z" fill="url(#c)" fill-rule="nonzero"/><path d="m30.806 1.077 2.285 18.077.212-.851-2.146-17.124-.35-.102h-.001Z" fill="#8F88C0" fill-rule="nonzero"/><path d="m41.2 7.223-7.898 11.08-.212.85 8.336-11.7a8.358 8.358 0 0 0-.227-.23Z" fill="#A59FCE" fill-rule="nonzero"/><path d="M41.426 7.453a23.819 23.819 0 0 0-10.62-6.376l.434.798a23.153 23.153 0 0 1 9.583 5.874l.602-.297Z" fill="url(#d)" fill-rule="nonzero"/><path d="m33.09 19.154 8.336-11.701a24.03 24.03 0 0 1 6.004 10.834l-14.339.867h-.001Z" fill="url(#e)" fill-rule="nonzero"/><path d="m41.427 7.454-8.337 11.7.647-.358L41.65 7.689l-.223-.235Z" fill="#ED6F50" fill-rule="nonzero"/><path d="m47.35 17.97-13.614.825-.646.359 14.34-.867a22.99 22.99 0 0 0-.08-.317Z" fill="#A62714" fill-rule="nonzero"/><path d="M46.698 18.007a23.412 23.412 0 0 0-5.427-9.787l.153-.767a24.037 24.037 0 0 1 6.006 10.834l-.732-.28Z" fill="url(#f)" fill-rule="nonzero"/><path d="m33.09 19.154 14.34-.867c.988 3.944.98 8.195-.22 12.384L33.09 19.154Z" fill="url(#g)" fill-rule="nonzero"/><path d="m47.43 18.287-14.34.867.835.268 13.582-.82a16.33 16.33 0 0 0-.076-.316Z" fill="#D1CEE8" fill-rule="nonzero"/><path d="M47.21 30.671c.033-.113.064-.226.094-.338L33.925 19.422l-.834-.268L47.21 30.67h-.001Z" fill="#F3F2F9" fill-rule="nonzero"/><path d="M46.76 29.892c.986-3.808.966-7.655.1-11.247l.57-.358c.988 3.944.98 8.193-.22 12.384l-.45-.779Z" fill="url(#h)" fill-rule="nonzero"/><path d="M7.589 6.862A23.818 23.818 0 0 0 1.213 17.48l18.077-2.284L7.589 6.862Z" fill="url(#i)" fill-rule="nonzero"/><path d="m1.213 17.48 18.077-2.284-.852-.212-17.123 2.148c-.034.116-.069.231-.102.348Z" fill="#FFCB00" fill-rule="nonzero"/><path d="m7.358 7.087 11.08 7.897.852.212L7.591 6.861l-.233.226Z" fill="#FD0" fill-rule="nonzero"/><path d="M7.588 6.862A23.82 23.82 0 0 0 1.214 17.48l.796-.433a23.156 23.156 0 0 1 5.875-9.582l-.297-.604Z" fill="#FFF8C7" fill-rule="nonzero"/><path d="M19.29 15.196 7.589 6.862A24.032 24.032 0 0 1 18.422.857l.867 14.34Z" fill="url(#j)" fill-rule="nonzero"/><path d="m7.591 6.862 11.7 8.334-.358-.644L7.826 6.638c-.08.074-.157.148-.235.224ZM18.107.939l.827 13.613.357.644L18.424.857l-.316.082Z" fill="#E53121" fill-rule="nonzero"/><path d="M18.145 1.59a23.404 23.404 0 0 0-9.791 5.426l-.766-.154A24.04 24.04 0 0 1 18.422.857l-.277.733Z" fill="url(#k)" fill-rule="nonzero"/><path d="M19.29 15.196 18.423.857a23.807 23.807 0 0 1 12.383.221L19.29 15.196Z" fill="url(#l)" fill-rule="nonzero"/><path d="m18.422.857.867 14.339.27-.834L18.737.78l-.316.075Z" fill="#1E398E" fill-rule="nonzero"/><path d="M30.806 1.077a33.507 33.507 0 0 0-.336-.094L19.559 14.362l-.27.834L30.807 1.078v-.001Z" fill="#2F2482" fill-rule="nonzero"/><path d="M30.029 1.527a23.154 23.154 0 0 0-11.248-.1l-.358-.57a23.807 23.807 0 0 1 12.383.221l-.777.448Z" fill="url(#m)" fill-rule="nonzero"/><path d="M6.999 40.698a23.82 23.82 0 0 0 10.618 6.376l-2.284-18.077L7 40.698Z" fill="#2B2B85" fill-rule="nonzero"/><path d="m17.617 47.074-2.284-18.077-.211.852 2.146 17.123c.117.036.233.069.349.102Z" fill="#24236F" fill-rule="nonzero"/><path fill="#5B549F" fill-rule="nonzero" d="m7.224 40.928 7.897-11.08.212-.851L7 40.698l.225.23z"/><path d="M6.999 40.699a23.828 23.828 0 0 0 10.618 6.376l-.433-.798A23.166 23.166 0 0 1 7.6 40.402l-.602.297Z" fill="url(#n)" fill-rule="nonzero"/><path d="M15.333 28.997 7 40.698A24.04 24.04 0 0 1 .993 29.865l14.34-.868Z" fill="url(#o)" fill-rule="nonzero"/><path d="m6.999 40.698 8.334-11.7-.645.357-7.914 11.108.225.236v-.001Z" fill="#B0AAD4" fill-rule="nonzero"/><path d="m1.076 30.18 13.612-.826.645-.357-14.339.867c.026.108.053.212.082.316Z" fill="#DAD8ED" fill-rule="nonzero"/><path d="M1.726 30.144a23.408 23.408 0 0 0 5.427 9.789l-.154.766A24.045 24.045 0 0 1 .993 29.865l.733.279Z" fill="url(#p)" fill-rule="nonzero"/><path d="m15.333 28.997-14.34.868a23.832 23.832 0 0 1 .221-12.384l14.12 11.516Z" fill="#E53121" fill-rule="nonzero"/><path d="m.993 29.864 14.34-.867-.834-.267-13.58.82c.023.105.049.21.074.314Z" fill="#CA2D0A" fill-rule="nonzero"/><path d="m1.214 17.48-.094.337L14.5 28.73l.834.267L1.214 17.481Zm.45.778a23.164 23.164 0 0 0-.101 11.249l-.57.358a23.822 23.822 0 0 1 .22-12.383l.45.776Z" fill="#ED6F50" fill-rule="nonzero"/><path d="M40.835 41.289A23.813 23.813 0 0 0 47.21 30.67l-18.076 2.283 11.7 8.334Z" fill="url(#q)" fill-rule="nonzero"/><path d="m47.21 30.671-18.076 2.284.851.211 17.122-2.146c.035-.116.07-.232.103-.349Z" fill="#7B73B3" fill-rule="nonzero"/><path d="m41.065 41.063-11.08-7.897-.851-.212 11.7 8.337.231-.227Z" fill="#D1CEE8" fill-rule="nonzero"/><path d="M40.835 41.29a23.817 23.817 0 0 0 6.375-10.62l-.797.434a23.154 23.154 0 0 1-5.875 9.582l.297.605Z" fill="#655EA5" fill-rule="nonzero"/><path d="m29.134 32.954 11.7 8.335a24.048 24.048 0 0 1-10.832 6.004l-.868-14.339Z" fill="url(#r)" fill-rule="nonzero"/><path d="m40.834 41.29-11.7-8.336.358.645 11.106 7.915c.08-.073.159-.148.237-.223Zm-10.517 5.922L29.492 33.6l-.358-.645L30 47.294l.316-.082Z" fill="#E53121" fill-rule="nonzero"/><path d="M30.28 46.56a23.404 23.404 0 0 0 9.79-5.426l.765.157a24.067 24.067 0 0 1-10.833 6.004l.279-.734Z" fill="url(#s)" fill-rule="nonzero"/><path d="m29.134 32.954.868 14.34c-3.945.986-8.195.98-12.385-.22l11.516-14.12Z" fill="url(#t)" fill-rule="nonzero"/><path d="m30 47.294-.866-14.339-.27.834.823 13.581.314-.076Z" fill="#F5B0AC" fill-rule="nonzero"/><path fill="#FAD9D5" fill-rule="nonzero" d="m17.617 47.074.338.094 10.91-13.38.27-.834-11.518 14.12z"/><path d="M18.395 46.624c3.81.985 7.656.966 11.248.101l.359.57a23.834 23.834 0 0 1-12.383-.22l.777-.45Z" fill="url(#u)" fill-rule="nonzero"/></g><path d="M67.788 36.288c-2.037-.576-2.504-1.463-2.504-2.633l.001-1.154c0-.925.525-1.664 1.219-1.922.533-.2 1.13-.234 2.182-.234h9.215a.436.436 0 0 0 .431-.438l.003-2.1c0-.955-.024-1.885-.95-2.59-.513-.393-1.357-.743-2.593-.987-1.338-.263-3.463-.458-6.302-.458-4.587 0-7.155.929-8.918 2.945-.429.493-1.883 2.582-1.883 5.827 0 1.522-.004 2.028.017 2.36.323 5.019 3.67 6.432 7.03 7.3.85.219 4.99 1.344 5.102 1.375 2.037.576 2.558 1.464 2.558 2.634l-.001 1.305c0 .926-.58 1.665-1.273 1.922-.534.2-1.28.232-2.332.232l-10.712.001a.435.435 0 0 0-.425.44v1.073c.048 1.846.29 3.166 1.498 4.018.953.672 2.759 1.594 8.64 1.594h.653c3.369-.118 5.539-.582 6.991-1.251 1.304-.6 2.002-1.209 2.627-1.9.777-.862 1.986-2.885 2.123-5.624.02-.374.015-2.422 0-2.656-.32-5.018-3.738-6.786-7.099-7.654a969.42 969.42 0 0 1-5.298-1.425Zm42.095-12.095h-3.935c-1.44 0-1.756.344-1.757 1.752v15.827l-.2-.001c-.937-1.34-8.845-12.724-10.638-15.274-.984-1.399-2.293-2.304-4.334-2.305h-2.741a.441.441 0 0 0-.442.44v30c.002 1.407.319 1.75 1.759 1.75h3.94c1.44 0 1.756-.342 1.757-1.75V38.776l.215.005 10.91 15.577c.983 1.241 2.362 2.025 4.063 2.025h2.719a.44.44 0 0 0 .44-.44V25.943c0-1.407-.316-1.751-1.756-1.751Zm30.015 21.175c-.322-5.02-3.74-6.787-7.1-7.655-.85-.219-5.189-1.394-5.3-1.425-2.038-.577-2.505-1.463-2.505-2.634l.001-1.154c0-.924.524-1.664 1.22-1.922.534-.199 1.13-.234 2.182-.234h9.216a.437.437 0 0 0 .431-.437l.002-2.1c0-.956-.026-1.886-.95-2.591-.513-.392-1.357-.743-2.593-.987-1.338-.263-3.463-.458-6.302-.458-4.587 0-7.154.93-8.918 2.946-.429.492-1.883 2.581-1.883 5.826 0 1.522-.004 2.029.017 2.36.323 5.02 3.671 6.433 7.03 7.301.851.218 4.99 1.343 5.101 1.375 2.037.576 2.56 1.463 2.56 2.633l-.002 1.306c0 .926-.58 1.665-1.273 1.922-.535.199-1.28.231-2.331.231l-10.712.002a.433.433 0 0 0-.424.44v1.072c.048 1.846.29 3.166 1.498 4.018.953.673 2.76 1.594 8.64 1.594h.653c3.368-.118 5.539-.582 6.992-1.25 1.304-.6 2.001-1.21 2.626-1.901.777-.861 1.986-2.884 2.124-5.623.02-.375.015-2.422 0-2.655Z" fill="#FFF" fill-rule="nonzero"/></g></svg>