<svg width="480" height="270" xmlns="http://www.w3.org/2000/svg" xmlns:xlink="http://www.w3.org/1999/xlink"><defs><filter id="b"><feColorMatrix in="SourceGraphic" values="0 0 0 0 1.000000 0 0 0 0 1.000000 0 0 0 0 1.000000 0 0 0 1.000000 0"/></filter><path id="a" d="M0 0h480v270H0z"/></defs><g fill="none" fill-rule="evenodd"><mask id="c" fill="#fff"><use xlink:href="#a"/></mask><use fill="#D90800" xlink:href="#a"/><g filter="url(#b)" opacity=".195"><g mask="url(#c)"><path d="M304.61 250.363l.802-2.128-2.488-3.862 2.89-2.68 2.086 2.758s1.284-1.576 1.445-2.285c.16-.71-.08-1.183.642-1.498.722-.315 2.89-.946 3.451-1.734.562-.788.241-.946 1.044-1.97.802-1.025 6.742-3.232 6.903-3.705.16-.473-1.124-.551-1.044-1.34.08-.788 1.766-.788 1.686-1.576-.08-.788-.723-.788-1.124-.788-.401 0-3.692 2.05-4.575 1.97-.883-.078-2.167-4.177-2.167-4.177l1.605-.394-.963-1.104s1.525-1.024 2.488-2.522c.963-1.497 2.247-5.596 2.97-6.069.722-.473 2.247-.709 2.247-.709l-.401-.71 2.649-2.68-.803-1.26.562-1.97-.883-.237.482-1.419-.883-9.93-5.7-6.78-1.524-1.024.16-1.734s.723-.315.803-.71c.08-.393-.08-2.758-.642-2.915-.562-.158-3.532-.394-3.853-1.104-.32-.71-.24-1.26-.24-1.26l.561-.553-1.123-1.497 1.204-.867s-.803-1.025-1.686-1.261c-.883-.237-3.853-.63-3.853-.63l-.08-.789s-2.247.158-2.81-.63c-.561-.789-.962-2.365-.962-2.365h-1.445l.16 2.6 1.606 2.602 3.21 1.103.642 1.656-.561 2.285 2.247 2.601 1.846 1.655 2.649 5.912s-1.124.867-2.007.867-1.124-1.025-1.685-1.261c-.562-.237-1.927-.473-2.97-.08-1.044.395-1.605 1.34-2.328 1.183-.722-.158-2.408-1.497-2.97-1.497-.561 0-1.284.315-1.284.315l.482 5.36s.562.315 1.123 1.418c.562 1.104.643 4.966.643 4.966s.16-.08 1.043.945c.883 1.025 2.81 4.808 2.81 4.808s-2.89 2.522-3.773 3.074-11.077 2.68-12.12 2.995c-1.044.316-2.97 3.862-3.371 4.808-.401.946-.08 3.547-.08 3.547l-3.05.63s.561.867 2.006 1.577c1.445.71 2.248.394 3.21 1.103.964.71.161.71 1.044 1.183.883.472 1.044 0 2.167.315 1.124.315.562.552 1.365.552.802 0 2.488-.473 2.488-.473s-.16 1.655.16 2.128c.322.473.723.867.723.867s.963-.946 2.247-1.025c1.284-.079 1.044 1.498 1.044 1.498l-2.167 1.34-.08 1.26 2.006.552-1.204 1.104-1.284.551-.08 1.262.722.945-.803.63-1.043-.157-.803 1.655.401 2.601-.481 2.68-2.569 1.97 1.445 2.444-1.043 2.207-1.525 1.241-.803 1.636s-1.686 1.221-2.007 1.694c-.32.473-.802 3.31.08 4.02.884.71.161.946 1.526 1.34 1.364.394 1.284.394 1.284.394l.482 2.837-1.124 2.601s1.605-.709 2.568-.945c.963-.237 1.204.394 1.204.394s.482-2.522 1.525-2.522c1.044 0 .562 1.655.562 1.655l2.408 1.418s1.365-1.182 1.766-1.26c.401-.08.802.866.802.866l1.606-1.34.16 1.183s.642-.237 1.124-.158c.482.079 1.284 1.182 1.284 1.182s1.124-1.024 1.927-1.26c.802-.237 2.568 1.182 3.29 1.024.723-.158 1.766-1.104 1.204-1.813-.562-.71-4.013-2.6-4.013-2.6l1.124-1.104s1.043.945 1.926.315c.883-.63.321-4.02 1.044-4.256.722-.237 1.605.315 2.327-.158.723-.473 1.044-1.26 1.044-1.97s-.883-1.34-.803-2.05c.08-.709 1.525-2.128 1.525-2.128l-1.605-.788-1.445-.236-.883-.71h-1.685s.642-1.103.722-1.97c.08-.867-.321-2.207-.321-2.207l-3.853-.788-3.612 1.34z" fill="#F6F6F6" fill-rule="nonzero"/><g fill="#F6F6F6" fill-rule="nonzero"><path d="M151.136 212.18s5.485-2.175 6.905-2.808c1.42-.632 3.275-.672 4.025-.474.75.197 2.328 1.661 3.354 2.096 1.026.435 2.21.119 3.433.673 1.223.553 6.669 4.35 6.669 4.35s.355-1.344.67-1.384c.316-.04.316-.119.948.198.63.316 3.55 1.622 3.55 1.622s2.605-2.334 3.907-2.848c1.302-.515 1.381-.04 1.815-.277.434-.238 1.066-3.956 1.066-3.956s.552-.395 1.38-.356c.83.04 1.54.198 1.816 1.068.276.87.434 1.503.987 2.097.552.593 2.407.672 3.117 1.226.71.554 2.052 2.175 2.644 1.938.591-.237-1.184-1.899-.513-2.017.67-.119 1.894 1.582 2.367 1.186.474-.395-.986-1.66-.237-2.096.75-.435 1.776-.633 2.644.593a18.307 18.307 0 011.46 2.492s-.868.396-1.144.633c-.276.237-.158.752-.592 1.345-.434.593-7.695 7.713-8.76 7.95-1.065.238-1.42-.593-1.934-.593-.512 0-3.709 3.204-4.064 3.125-.355-.08-1.026-.91-1.46-.95-.434-.039-1.065 1.86-1.933 1.939-.868.079-.987-.159-1.066-.752-.079-.593.671-.593.671-.989 0-.395-.71-.553-1.065-.514-.355.04-.79 1.147-1.42 1.147-.632 0-2.763.237-3.236-.158-.474-.396-.632-1.028-.71-1.74-.08-.712.552-2.097.118-2.65-.434-.554-1.855-1.227-2.644-1.306-.79-.079-.79.119-1.263.04-.473-.08-.789-.752-1.539-1.068-.75-.317-2.722 0-3.196-.514-.473-.515-1.933-1.9-2.565-1.74-.631.157-.04 1.977-.355 2.056-.316.08-.986-.989-1.657-.989-.67 0-1.736.475-2.052.95-.316.474.237.988.197 1.463-.04.475-.513.554-.513.95 0 .395.79.83.355 1.186-.434.356-5.563 0-5.76-.198-.198-.198-.671-.989-1.026-1.305-.356-.317-1.224-.396-1.579-.791-.355-.396-.67-.594-.75-.95-.078-.356.198-1.305.119-1.621-.08-.317-1.302-.554-1.066-1.701.237-1.147 1.303-1.345 1.381-2.453.08-1.107-.828-1.186-1.065-1.859-.237-.672-.434-1.265-.434-1.265z"/><path d="M205.978 212.174l-.782-2.07s.782-.224.782-.671c0-.448-1.228-3.133-1.228-3.133s-.223.112-1.228.168c-1.004.056-2.343-.112-3.404-.056-1.06.056-1.227.448-2.232.448-1.004 0-2.176-.84-3.236-2.07s-1.842-3.972-2.288-4.195c-.447-.224-.782-.056-1.172-.224-.39-.168-2.065-2.014-3.07-2.238-1.004-.223-1.506.112-2.064-.391-.558-.504-.223-.895-.893-1.007-.67-.112-.949.336-1.674.28-.726-.056-1.395-.784-1.674-.784-.28 0-.223.448-1.172.448s-3.795-.84-5.301-.224c-1.507.616-2.01 2.182-2.902 1.958-.893-.224-1.34-.56-1.451-1.063-.112-.503.39-.223-.28-.895-.669-.671-3.18-5.202-5.635-5.202-2.456 0-6.808 3.748-7.31 3.86-.503.112-1.06-.056-1.451.503-.391.56-.335 1.734-.28 2.07.056.336.67.112.95.727.278.615 5.189 6.433 6.751 7.048 1.563.616 4.074.336 4.632 0 .558-.335 1.953-1.902 2.4-1.902.446 0 .613.28.446.784-.167.503-.837.391-.446.95.39.56 1.339.951 1.674 1.735.335.783.725 1.51 1.339 1.79s2.176-.224 2.623.055c.446.28 1.618 2.63 2.4 2.63.78 0 .78-.951 1.673-1.063.893-.112 1.396.224 2.456-.224 1.06-.447 1.004-4.363 2.846-5.146 1.841-.783 3.292-.727 4.073.335.782 1.063.447.951.893 1.399.447.447.949-.112 1.507.447.558.56.558 1.455 1.45 2.238.894.783 1.842 1.678 3.572 1.566 1.73-.112 1.395-1.454 2.846-1.454s3.237 1.846 3.85 2.405c.615.56.95.336.95.336l1.06-.168z"/><path d="M168.813 191.812s1.506-.895 3.236-1.006c1.73-.112 1.842.839 3.293.615 1.45-.224 4.687-1.007 6.082-.56 1.395.448 2.176 2.574 2.176 3.3 0 .728-1.339 1.679-1.73 1.679-.39 0-3.515-.783-4.966-.783-1.45 0-2.065.28-2.958.839-.892.56-1.06.783-1.618.783s-.446-.448-.781-1.398c-.335-.951-2.735-3.469-2.735-3.469zM203.188 187.84s-3.628-2.069-5.19-1.845c-1.563.224-2.79 1.286-2.456 2.014.335.727 4.409 1.398 4.353 2.181-.056.783-1.283 1.007-2.232 1.007-.949 0-.837-.95-2.958-.95-2.12 0-5.803.614-5.803 1.79 0 1.174 1.618 1.23 1.953 1.677.335.448.112 1.455.446 1.622.335.168 1.005-.223 1.563.392s-.28 1.287.837 2.014c1.116.727 4.91.056 5.524.56.614.503 1.284 1.286 1.284 1.286h2.12l.391-3.524-1.897-3.077.39-3.132 1.674-2.014zM178.3 181.632c1.506 0 .892 1.062 2.008 1.79 1.116.727 2.009 0 2.511.67.502.672.056 3.078.949 3.749.893.671 1.73-.224 2.511.168.781.391.056 1.23.949 1.398.893.168 3.571.056 5.468-1.23 1.898-1.287 3.404-2.35 2.79-4.084-.613-1.734-2.51-.392-3.794-1.007-1.284-.615-1.284-2.797-2.623-3.804-1.34-1.007-4.966-1.174-7.59-1.342-2.622-.168-3.124-.895-5.245-.671-2.12.223-3.627.839-5.19 2.349-1.562 1.51-1.283 2.07-.892 2.797.39.727 1.674 2.125 4.631 1.622 2.958-.503 1.396-2.238 3.516-2.405z"/></g><path d="M279.585 169.01l-1.864 1.694-3.719-.68-1.519 1.074-3.097 5.23-3.551 1.685-3.551-.896-4.064.167-.67-2.423-2.26-1.123-1.015.788-5.189-4.275-4.508-.453-1.46.955-5.296 2.03-2.091.62-1.52 3.152-3.945 2.818s-1.47 1.626-3.837 2.64c-2.367 1.013-4.787 1.688-7.605.788-2.818-.901-3.216-1.064-4.005-1.064-.789 0-.897.276-.897.276s.218 1.348-.74 2.699c-.958 1.35-4.9 3.667-6.816 3.33-1.916-.339-2.762-.572-2.762-.572l-2.17 2.768-.296 2.334-.01.08v.009l1.914 3.083.108.178-.276 3.368s3.041 1.64 3.097 4.285c.038 1.787-1.073 2.387-1.805 2.591.492-.055.622-.118.622-.118s1.243 2.702 1.243 3.152c0 .45-.79.68-.79.68l.79 2.078-.375.06h.256s2.375-.336 2.713-.336c.338 0 .902 2.978 2.762 3.034 1.86.057 3.994-1.635 3.994-1.635l-2.643-4.896s.507-.107.395-.67c-.113-.562-1.016-1.181-1.016-1.181s.728-.79 2.475-1.41c1.748-.618 2.368-.113 3.157-.62.789-.506.17-.905.621-1.073.451-.17 2.71-.901 3.837-.394 1.128.506-.397 2.14-.453 2.984-.057.845.562 2.089.562 2.089s1.865-.455 3.275-.68c1.409-.225 1.683.961 3.205.68 1.522-.282 1.243-.394 1.243-.394s-.228-1.128.73-1.803c.958-.676 1.07-.222 1.746-1.123.676-.9.286-1.521 1.075-2.197.79-.675 2.421-1.86 3.097-2.029.677-.169 2.876 2.086 2.99 2.817.112.732-.504.278-.504 1.685v3.044s-1.47-.904-2.653-.453c-1.184.45-1.632 1.687.453 1.743 2.086.056 5.294-.281 6.422 0 1.127.281 1.746 1.744 1.746 1.744l5.306-5.064-.118-2.078 1.864-1.753s.002.958 1.016 1.408c1.015.45 1.852.342 2.585 2.256.732 1.914.848 2.03.848 2.03s-1.074.386-1.638 1.625c-.563 1.238-.845 1.639.395 3.102 1.24 1.464 1.925 2.246 2.545 3.428.62 1.183-.058 2.138.562 2.532.62.394.9.397 1.746.06.845-.339-.117-.841 1.292-.897 1.41-.057 2.989.843 2.989 2.137 0 1.295-.73 3.152-.73 3.152s5.13-.167 6.707-.167c1.579 0 4.4.729 4.4.729s.838-1.295 1.627-1.576c.79-.282 1.07.11 1.746-.06.676-.168 1.242-1.802 2.989-1.014 1.747.788 1.076 1.413 1.696 2.088.62.676 1.125.838 1.125.838s-.341.459-.06 1.753c.177.81.439 1.27.612 1.497l3.019-.63s-.32-2.63.078-3.586c.4-.955 2.308-4.537 3.344-4.856 1.037-.318 11.157-2.467 12.034-3.024.877-.557 3.748-3.103 3.748-3.103s-1.914-3.821-2.791-4.856c-.877-1.035-1.036-.956-1.036-.956s-.073-3.9-.631-5.014c-.558-1.114-1.124-1.438-1.124-1.438l-.474-5.408s.715-.325 1.272-.325c.558 0 2.232 1.358 2.95 1.517.717.16 1.282-.794 2.318-1.192 1.036-.398 2.391-.16 2.95.079.557.239.79 1.27 1.666 1.27.877 0 1.993-.876 1.993-.876l-2.624-5.97-1.835-1.674-2.23-2.62.553-2.315-.64-1.665-3.187-1.123-1.588-2.62-.01-.177-.266-.188-2.545-.788-3.946.109-5.01-3.212-2.595-2.984-4.793-.217-1.293 1.064-2.367-1.182zm-32.422 36.309l-1.746 2.63-.326-2.236 2.072-.394z" fill="#F6F6F6" fill-rule="nonzero"/><path d="M297.949 104.069s.504 3.531-2.908 7.678c-3.411 4.147-6.489 4.814-7.272 5.374-.783.56.053.848-1.233 1.52-1.287.673-1.79.223-2.35.56-.559.335.056.666-.391 1.45-.447.785-1.96 1.345-2.408 2.354-.447 1.009-1.005 4.259-1.732 5.1-.727.84-7.488 2.078-7.488 2.078s.335 2.07.783 3.08c.447 1.008 1.28 1.349 1.223 1.853-.056.504-.783 1.224-.783 1.785 0 .56 3.42 1.235 3.867 2.02.447.784 1.004 2.188-.06 4.374-1.062 2.185-1.34 2.014-.949 2.687.392.672 1.562.898 2.849-.167 1.286-1.065 1.23-2.302 1.957-1.854.727.449.337 3.423.617 4.207.28.785.839.508 1.175 1.236.335.729-.224 1.003 0 1.844.223.84.787.393 1.066 1.402.28 1.009-.563.84.108 1.736.671.896 1.842 1.007 2.065 1.735.224.729-.274 2.746-.274 2.746l-3.69-.215-6.156-3.364-7.048 2.01-.95.844-2.799-.393-2.349-1.677-2.457 1.344-1.85-.951s.062 1.902-.274 2.687c-.335.784-2.74 5.103-3.523 5.383-.783.28-1.625-.004-2.017.5-.391.505-.282 1.344-.841 1.736-.56.393-2.966.168-3.358.393-.391.224-.67 1.403-.166 1.627.503.225 1.455-.11 1.791.226.336.336-.225 2.07-.225 2.07l-1.126.607 4.483 3.707 1.008-.784 2.242 1.117.665 2.413 4.033-.167 3.524.893 3.524-1.677 3.073-5.208 1.507-1.069 3.69.677 1.85-1.687 2.35 1.177 1.282-1.059 4.757.216 2.574 2.971 4.972 3.197 3.916-.108 2.525.785.264.186-.156-2.442h1.429s.395 1.58.95 2.373c.553.793 2.77.638 2.77.638v.02c1.134-.481 2.096-1.298 1.898-2.688-.447-3.138-2.408-3.922-2.408-3.922l1.292-1.344s2.071.621 4.14-.892c2.07-1.513 1.39-2.52 1.39-2.52l5.54 1.843s.168-1.628-.391-2.412c-.56-.785-3.24-2.628-3.24-2.628l3.015-.677s2.068 2.576 2.907 2.913c.839.336 4.195-.055 4.698.225.504.28 1.4 1.962 1.4 1.962s2.296-.275 2.8.117c.503.392.782 1.285.782 1.285l2.29.559-.048-2.01s-1.846-.959-.783-1.687c1.062-.729 1.395.84 2.29.784.895-.056 1.06-.617 1.508-.617.447 0 .506 1.007 1.233.95.727-.055 3.633-1.844 3.856-2.46.224-.617.114-1.014.617-1.07.503-.056.674.73 1.233.618.56-.112 1.675-1.284 3.074-2.069a71.625 71.625 0 013.132-1.628s1.345 1.799 2.408 1.687c1.062-.112 2.29-1.348 3.465-2.413 1.174-1.064 1.673-2.52 1.673-2.52s-.612-.227-.332-.843c.28-.617 1.173-.392 1.34-1.177.168-.784-.052-1.902-.332-2.295-.28-.392-1.282-.343-1.282-.343s-1.35-1.62-3.084-2.854c-1.733-1.232-3.915-2.245-3.915-2.245l-.166-2.128s2.073.508 3.024-.5c.951-1.009.44-3.982.44-3.982s-1.396 0-2.906-.392c-1.51-.392-1.678-.387-1.958-.667s.059-3.146-.333-3.707c-.391-.56-.724-.951-.724-.951s-2.012 1.294-2.516 1.294c-.503 0-.563-1.287-1.066-1.343-.504-.056-2.57.33-3.24.275-.672-.056-1.351-.452-1.351-.452s-1.334.954-1.782.618c-.447-.336-2.634-2.963-2.858-3.58-.223-.616-.054-1.24-.95-2.137-.894-.897-3.19-1.003-4.365-.274-1.174.728-1.34 2.353-1.34 2.353s-1.453-.895-2.908-.951c-1.454-.056-3.69.108-3.69.108s.165-.56-.45-.785c-.615-.224-1.507.334-1.507.334l-1.958-1.677-1.85-4.766s-2.237 0-2.74-.393c-.504-.392-1.287-3.527-.784-3.863.504-.336 2.3-1.403 2.3-1.403l2.174-2.912s-1.9-.28-2.516-1.177c-.615-.896-.054-1.905.225-1.961.28-.056 1.008-.392 1.008-.392l-3.132-4.992-2.515-1.451-3.358 3.246-.89-1.01-.783.843-3.475-4.59-1.282-.058z" fill="#F6F6F6" fill-rule="nonzero"/><g fill="#F6F6F6" fill-rule="nonzero"><path d="M211.94 183.328c-.91 1.505-2.447 1.616-3.642 1.505-1.195-.112-1.195-.056-2.049-.112-.853-.055-1.138.223-1.536-.055-.399-.28-.513-1.115-1.594-1.506-1.081-.39-2.846-.669-3.813-1.282-.968-.613-.228-.78-1.765-1.394-1.536-.613-4.724-.501-5.35-1.226-.626-.725-1.48-7.08-3.415-7.805-1.935-.725-3.415-.613-5.122.279-1.708.892-1.821 1.17-2.39 1.059-.57-.112-1.366-1.394-1.082-1.84.285-.446 1.878-1.895 2.504-2.062.626-.168.228.167 1.082-.223.854-.39 5.35-2.1 5.863-1.989.512.112 5.975 4.33 7.341 5.166 1.366.836 3.87 1.505 5.52 3.4 1.651 1.896 1.595 2.454 2.96 3.346 1.366.892 2.903 1.06 4.497 2.453 1.413.941 1.837 1.645 1.992 2.286zM215.145 129.551c-2.903 5.24-8.304 11.348-11.435 15.027-3.13 3.68-7.824 8.978-7.824 8.978s1.71 2.733 1.026 2.176c-.683-.558-1.873-1.205-2.954-1.428-1.081-.223-.948-.54-1.63-.706-.684-.168-2.13.239-2.072 1.41.057 1.17.285.775.342 1.612.057.836-1.825 2.292-2.052 2.682-.228.39-.79.891-.05 1.727.74.837 2.951-.952 3.406-.283.456.67-.562 1.064-.846 2.234-.285 1.171.795 1.228 1.364 1.786.57.557.793.856 1.362 1.971.569 1.115 1.033 1.554 1.942 1.893.796.297.609.336 1.32.803.267.176 1.19-.36 1.89-.157.7.203 1.178 1.147 1.472 1.602 1.194-.28 2.22.74 2.733 1.41.512.669.448 2.101 2.198 2.697 1.746.593 3.298 1.004 4.892 1.673 1.594.67 2.285 1.21 4.96 2.381 2.675 1.17 4.949 1.838 7.51 1.727 2.561-.112 3.244-1.733 4.781-2.625 1.537-.892 3.586.059 3.586.059l3.526-2.234 1.763-3.005 4.84-1.337 2.162-1.736 5.298-.108 2.54-.185c.147-.52.375-1.467.13-1.707-.342-.335-1.31-.001-1.823-.225-.512-.223-.23-1.396.17-1.62.398-.222 2.846 0 3.416-.39.569-.39.458-1.224.856-1.726.399-.502 1.255-.219 2.052-.498.797-.278 3.244-4.575 3.586-5.356.314-.72.285-2.32.279-2.575l-1.594-1.718-1.932-1.453-3.646 2.293-3.127.497-1.365 1.23-3.356 1.726h-1.654s-.232-1.335-1.484-2.673-2.325-2.569-2.211-3.015c.114-.446 1.3-.167 1.813-.39.512-.223.633-.782.348-1.005-.284-.223-2.85.17-3.077-.331-.228-.502.683-2.122 1.195-2.4.512-.28 1.2.06 1.484-.274.285-.334.738-1.122.568-1.512-.171-.39-1.594-.107-1.594-.107s-.458-.722-.856-1.893c-.399-1.17.287-1.84.06-2.566-.228-.724-1.027-.387-1.425-1.112-.398-.725.112-1.512.966-1.902.854-.39 2.446-.05 2.958-.05.513 0 1.366-1.456 1.195-1.902-.17-.446-2.556-1.446-3.296-2.282-.74-.837-.399-1.064-.399-1.064s-1.536.008-1.992-.605c-.452-.61 1.066-1.33.468-1.941-.004.001-.496-.177-.496-.177l-1.088-.117-.784.851-.543.064-.362.314-.346-.043-.582.805-.685-.494s.014-1.069.02-1.994c-.488-.045-1.355-.132-1.355-.132s-.173.22-.825.712c-.373.039-.959-.379-.959-.379s-.695.455-1.444.872c-.748.417-1.07.746-2.07.714-.775-.024-1.195-.5-1.504-.502-.48-.003-.439.24-.793.238-.497-.004-1.054-.249-1.218-.572-.165-.323.14-.902.56-1.191.386-.265.376-2.44.389-3.16.673-.732 1.5-1.634 1.613-2.157.23-1.057.725-1.898.776-2.06-.374-.146-1.01-.736-1.376-.535-.342.187-.642.196-.902.18-.215.301-.396.714-.396.714l-4.194-1.801s-3.626 7.309-4.2 8.352z"/></g><g fill="#F6F6F6" fill-rule="nonzero"><path d="M231.619 59.305c.448 1.285-3.697 2.235-4.426 1.844-.728-.391 0-1.62 1.457-2.067 1.456-.447 2.633-.447 2.969.223zM234.084 59.026c1.905.28 3.193-3.576 4.202-3.967 1.008-.391 1.008.335 1.736-.336.729-.67.056-1.62 1.065-2.514 1.008-.894 1.288-.447 1.737-1.565.448-1.117-.449-1.173-.28-2.402.167-1.23 1.232-4.19.896-4.694-.336-.503-.84.056-1.177-.558-.336-.615-.168-3.465-1.4-3.8-1.233-.335-4.762 5.811-5.659 7.543-.896 1.732-.952 2.123-1.848 3.8-.897 1.676-1.513 1.955-1.625 3.743-.112 1.788-.28 4.694 2.353 4.75zM235.667 61.07c-.855.013-1.864.14-2.48.586-1.233.894-1.515 4.356-2.187 7.373-.672 3.017-.217 3.408-1.225 6.65-1.009 3.24-2.579 7.201-2.579 8.095 0 .895.726 1.9.726 3.13 0 1.229-1.174 2.348-1.118 5.31.056 2.96.165 2.736-.451 6.032-.616 3.297-2.186 10.228-2.186 10.228s-.226 1.955-.618 4.078-1.79 4.086-2.294 5.818a81.883 81.883 0 01-1.079 3.393c-.002.017-.007.032-.01.049l4.099 1.799s.18-.411.392-.714a1.5 1.5 0 00.882-.186c.36-.2.995.392 1.363.538-.05.162-.538 1.004-.765 2.063-.112.525-.925 1.427-1.588 2.161-.013.721-.003 2.903-.382 3.169-.415.29-.711.869-.55 1.192.163.324.707.573 1.197.577.348.003.302-.237.774-.234.304.002.718.474 1.48.498.985.032 1.303-.295 2.04-.713.635-.36 1.151-.692 1.304-.792.559-.556.766-.856 1.44-1.428.662.007.829-.501 1.128-1.193 1.19-.378 1.857-1.238 2.432-.743.514.443.441.797.166 1.73-.138.472-.278.71-.5.988-.08.1-.462.235-1.323.352a.303.303 0 00-.137.069c-.007.907-.02 1.936-.02 1.936l.677.498.578-.811.333.049.363-.313.53-.069.774-.85 1.069.117s.46.171.48.176c.798-.412 1.658-.78 2.294-1.242.84-.726.282-1.346 1.01-1.682.728-.335 2.242.23 2.97-.273.729-.503.834-1.79.834-1.79s1.627.34 2.412-.107c.784-.447.726-2.463 1.343-2.63.616-.168 1.176-.108 1.176-.108l-.333 2.288s2.858-1.338 3.363-1.115c.504.224 0 1.506 0 1.506s1.288-.168 1.568.391.279 1.116-.225 1.34c-.504.223-1.853-.167-1.853-.167l-.167 3.13s.957.89 1.853 1.114c.896.224 3.13-.559 3.578 0 .449.559.785 1.453.393 1.956-.393.503-.834.561-.834.84 0 .28-.34.898 1.677.842 2.017-.056 2.358-.45 2.863-1.624.504-1.173-.226-.838.166-1.564.392-.726 1.34-3.41 1.843-4.136.505-.727.175-1.116.736-1.731.56-.615 2.745-1.232 2.745-1.232s-.171-.782-1.236-1.173c-1.064-.392-3.252-1.566-4.372-1.399-1.12.168-1.565.672-2.46.616-.897-.056-2.809-3.243-4.266-3.187-1.456.056-2.064.227-2.568.283-.504.056-2.857-1.338-3.922-1.506-1.064-.167-1.912-1.73-1.912-1.73l.51-.675s1.34-.055 1.843-.166c.505-.112 1.63-2.184 2.471-2.63.84-.448 2.347-1.95 1.843-2.621-.504-.67-2.122-.173-2.01-1.682.112-1.509 1.118-.887 1.118-2.005 0-1.117-.165-1.564.45-2.346.617-.783 1.119-1.068.334-2.073-.784-1.006-2.862-4.525-2.862-5.251 0-.727-.39-.898-.726-1.457-.336-.559-.675-2.403-.059-3.13.616-.726 3.814-1.333 4.598-1.222.785.112 1.623 1.678 2.128 1.79.504.112 5.152-2.794 5.657-3.52.504-.727.168-1.566.784-2.18.616-.615 2.744-1.232 2.912-2.181.168-.95.113-4.3-.56-4.635-.671-.336-2.91-1.237-3.862-1.125-.952.112-2.295 2.016-3.304 1.848-1.008-.167-.95-.504-1.343-1.007-.392-.503-.284-1.225-.676-1.672-.393-.447-1.01-1.232-1.01-1.232s.84-6.205.392-7.099c-.448-.894-4.314-7.539-4.314-7.539l-3.921-.391s-1.065 1.79-1.961 2.572c-.897.782-2.294 1.564-2.294 1.564s1.402.949 1.402 1.73c0 .783-.283 1.727-1.628.666-1.344-1.062-1.676-2.396-1.676-2.396s-3.198-.507-3.814-2.24c-.616-1.731-.275-4.135-.275-4.135s-.704-.093-1.558-.079z"/><path d="M256.773 109.76c-.615.504-1.677.164-1.773.113-.095-.051-.27-2.77-.114-2.85.157-.08.291.176.4.223.11.048-.048.812.029.894.077.082 1.4 1.174 1.458 1.62z"/></g><path d="M248.47 123.04a3.513 3.513 0 00-.82.12c-.613.173-.556 2.244-1.337 2.703-.782.459-2.403.11-2.403.11s-.104 1.322-.83 1.838c-.725.517-2.233-.063-2.959.282-.725.344-.169.981-1.006 1.727-.812.725-2.203 1.246-2.285 1.276.597.63-.894 1.37-.45 1.999.447.631 1.954.623 1.954.623s-.335.234.39 1.094c.726.861 3.066 1.892 3.233 2.35.167.46-.67 1.96-1.172 1.96-.502 0-2.063-.352-2.9.05-.837.402-1.338 1.212-.947 1.959.39.746 1.173.398 1.396 1.145.223.746-.45 1.436-.059 2.641.391 1.206.84 1.95.84 1.95s1.395-.292 1.563.11c.167.401-.278 1.212-.557 1.556-.279.345-.953-.005-1.455.282-.502.287-1.395 1.954-1.172 2.47.223.517 2.739.113 3.018.342.279.23.16.805-.342 1.035-.502.23-1.666-.058-1.777.402-.112.459.94 1.726 2.168 3.103 1.227 1.378 1.455 2.753 1.455 2.753h1.62l3.292-1.778 1.338-1.266 3.066-.512 3.574-2.36 1.895 1.496 1.562 1.768v-.1l1.846.974 2.451-1.376 2.344 1.717 2.793.402.947-.864 7.031-2.059 6.143 3.445 3.682.221s.496-2.066.273-2.812c-.223-.746-1.39-.86-2.06-1.778-.67-.918.171-.745-.108-1.778s-.841-.575-1.064-1.436c-.224-.861.334-1.143 0-1.889-.335-.746-.893-.462-1.172-1.265-.28-.804.11-3.85-.615-4.31-.726-.459-.67.808-1.954 1.899-1.283 1.09-2.45.86-2.841.17-.391-.688-.113-.513.947-2.752 1.06-2.238.505-3.676.058-4.48-.446-.803-3.857-1.495-3.857-2.069 0-.574.725-1.311.781-1.828.056-.516-.774-.865-1.22-1.898-.43-.996-.749-2.961-.772-3.104-1.15-.79-2.422-1.647-2.92-1.949-.948-.574-1.728-.341-2.51-1.145-.78-.803-.468-1.125-.468-1.125l-.118-.1c-.366.11-2.087.659-2.587 1.225-.558.632-.23 1.032-.733 1.778-.502.746-1.445 3.503-1.836 4.249-.39.746.336.402-.166 1.607-.502 1.206-.842 1.61-2.851 1.668-2.01.057-1.67-.577-1.67-.864 0-.287.44-.348.83-.864.39-.517.056-1.435-.39-2.009-.373-.479-1.975-.009-3.018.03-.027 1.53-.105 3.876-.372 4.259-.394.568-2.643.648-2.958.16-.316-.486.077-3.04.156-4.339.07-1.162.654-1.273.781-1.285l.166-3.174c-.305-.136-.616-.283-.713-.402-.216-.266-.128-.94.137-1.055.251-.109 1.002-.165 1.084-.17.01-.028.497-1.31 0-1.537-.502-.23-3.35 1.145-3.35 1.145l.332-2.35s-.135-.018-.351-.01z" fill="#F6F6F6" fill-rule="nonzero"/><g fill="#F6F6F6" fill-rule="nonzero"><path d="M289.59 72.08c-.209.063-.913.273-1.64.47-.841.23-1.175-.228-1.511 0-.337.23-.626 1.832-1.748 3.833-1.121 2.001-2.741 3.202-2.797 3.603-.056.4-.003 2.111.334 4.913.336 2.802-.508 4.001-.06 4.573.45.572 1.183.346 2.641 2.062 1.458 1.715 1.004 2.573 1.453 2.802.449.228 5.785-.062 8.03-.29 2.243-.23 10.6-2.23 10.6-3.373 0-1.144-1.186-.164-2.14-1.25-.953-1.087.45-1.606.619-2.292l.579-2.362c-1.631-2.048-5.335-5.866-5.89-6.274-.714-.526-2.695-.327-3.13-.731-.437-.404-.757-2.141-.757-2.141s.045-.077.128-.18c-.166-.35-.922-1.827-2.464-2.612-.704-.36-1.498-.584-2.248-.75zM296.362 108.117c-2.02 3.03-4.094 4.632-6.45 5.49-2.356.857-2.692.743-3.197 1.315-.505.571-.898 2.401-2.132 3.087-1.234.687-2.019.23-2.636.344-.617.114-1.683 1.258-1.683 1.258s1.122 1.43 1.01 2.058c-.112.63-1.907 5.204-2.244 5.433-.336.228-6.001 1.715-6.394 1.715-.392 0-5.945-6.805-9.703-7.434-3.758-.629-3.814-.915-4.768-.343l-.953.572s-.674-1.03-.786-1.487c-.112-.457-.28-3.945-.112-4.46.168-.515 7.797-4.403 7.797-4.403s1.065.858 2.355.171c1.29-.686 2.3-2.802 2.3-2.802s1.178.63 1.739.63c.56 0 1.178-.973 1.066-1.43-.113-.458-1.066-.572-1.066-1.03 0-.457 1.29.172 1.57-.457s1.57-5.26 3.254-6.061c1.682-.8 2.524-.115 3.028-.63.505-.514.28-1.257 1.066-1.944.785-.686 5.104-3.259 5.553-3.202.449.057-.224.686 1.57 1.373 1.795.686 2.244.629 3.198.857.953.23 1.626 1.201 2.468 1.258.84.058 2.636-.171 3.197.172 1.85 1.258 2.972 6.92.953 9.95z"/></g><path d="M313.401 71.293l-2.111 1.141s-.278-.156-.59-.156c-.314 0-.587 1.1-1.056 1.415-.47.315-2.35 1.182-2.741.985-.392-.197-.902-2.087-1.724-2.127-.822-.04-1.603 1.062-2.111 1.259-.51.197-1.41 1.736-2.819 1.815-1.409.079-2.264-.791-3.438-.752-1.174.04-1.646.908-1.646.908s.315 1.694.745 2.088c.43.394 2.385.2 3.09.712.704.513 6.576 6.55 6.576 7.298 0 .75-1.14.705-1.375 1.454-.235.749.198 1.304.707 1.58.508.276 2.233.199 2.586.869.352.67.543 1.26-.514 2.01-1.056.749-8.334 2.794-8.803 3.385-.47.592-.191.434.474 1.893s.814 5.981.814 5.981l.048.176 1.24.058 3.438 4.566.775-.839.881 1.005 3.322-3.23 2.49 1.445 3.098 4.966s-.72.334-.997.39c-.277.056-.832 1.06-.223 1.952.609.892 2.489 1.17 2.489 1.17l-2.15 2.898s-1.778 1.06-2.276 1.395c-.498.335.277 3.454.775 3.845.498.39 2.712.39 2.712.39l1.83 4.742 1.937 1.668s.883-.555 1.491-.332c.61.223.446.78.446.78s2.212-.162 3.651-.106c1.44.055 2.877.946 2.877.946s.164-1.617 1.326-2.342c1.163-.724 3.434-.619 4.32.274.885.892.718 1.513.94 2.126.22.614 2.385 3.227 2.827 3.562.443.334 1.763-.615 1.763-.615s.672.393 1.336.449c.665.056 2.708-.33 3.206-.273.498.055.558 1.336 1.056 1.336s2.489-1.288 2.489-1.288.33.39.717.947c.387.557.052 3.41.329 3.688.277.279.443.273 1.937.663a12.53 12.53 0 002.489.371l.407-.01s4.665.32 5.917-.429c1.252-.749 1.004-2.345 1.317-2.937.313-.591 1.486-2.056 2.034-2.332.548-.276 1.57.001 2.431-1.063.86-1.064.154-2.363 1.172-3.19 1.017-.828 2.073-.592 2.973-.947.9-.355 1.443-.673 1.443-.673s-2.073-2.838-1.995-3.942c.078-1.104.627-4.063.9-4.654.275-.591 1.058-1.494.901-3.268-.156-1.774-.315-2.958-1.646-3.786-1.33-.828-1.166-1.734-1.753-1.97-.587-.237-1.26-3.865-2.082-3.865-.822 0-1.756 3.551-2.421 3.63-.666.079-1.564-.433-3.09-1.025-1.526-.59-1.488-1.385-2.74-1.385-1.253 0-1.33.557-2.974.517-1.644-.04-4.813-2.246-4.813-4.02 0-1.774.429-2.561.116-2.995-.313-.434-1.327-2.127-1.327-2.127s1.603.15 2.034-.205c.43-.355-.083-.75.465-.868.548-.119 2.034 0 2.034 0l-2.615-2.918-.088-3.736-1.326-.078.745-1.542-5.869-1.97s-4.033.786-4.542 1.14c-.509.355-.666.55-.9 1.26-.235.709-.194 3.317-.194 3.317l-1.957-1.103-1.569 1.337-1.133-1.415-1.879 1.493-1.172-1.854s.47-.668.078-1.22c-.391-.551-2.973-1.18-2.973-1.18l-.514-.869s-2.735.08-3.283-.117-.944-1.063-1.453-1.102c-.508-.04-3.24-.086-3.554-.244-.313-.158-3.207-5.635-3.09-6.03.118-.394 4.105-3.109 4.3-3.424.196-.316.196-1.5 0-1.776-.195-.276-4.968-4.966-4.968-4.966z" fill="#F6F6F6" fill-rule="nonzero"/><path d="M333.672 35.126c-.76 0-4.438 3.958-4.878 4.623-.44.666-2.326 7.24-2.326 7.24h-2.117s-.519.628-.159.94c.36.314 2.44.517 2.84 1.26.4.745-.362 3.175.238 4.663.6 1.488 4.037 3.952 4.037 5.127 0 1.175-2.592 5.125-4.631 5.36-2.04.235-2.286-1.599-2.286-1.599s-3.073-.083-3.473.426c-.4.51-.402 1.767-2.761 3.451-2.177 1.554-4.634 3.417-5.037 3.722 0 0 4.876 4.66 5.076 4.933.2.275.2 1.451 0 1.764-.2.314-4.273 3.01-4.393 3.403-.12.391 2.836 5.833 3.156 5.99.32.156 3.112.203 3.632.242.52.039.925.9 1.484 1.095.56.196 3.355.116 3.355.116l.525.863s2.638.624 3.038 1.173c.4.548-.08 1.211-.08 1.211l1.198 1.842 1.92-1.483 1.158 1.405 1.603-1.327 1.999 1.095s-.042-2.59.197-3.296c.24-.705.401-.898.92-1.25.52-.352 4.642-1.134 4.642-1.134l5.997 1.958-.762 1.531 1.356.078.089-.708s3.877-1.687 6.996-1.609c3.119.079 4.56 1.212 4.84 1.212.279 0 1.63-1.049 2.71-.892 1.08.157 2.998 1.447 4.117 1.173 1.12-.274 1.089-.359 1.089-.359s-.368-5.049-.208-8.025c.16-2.977.96-11.592.96-11.592s-1.518.198-2.157-.272c-.64-.47.44-1.565 0-2.074-.44-.51-2.039-.707-2.039-.707s1.683-2.63 1.564-3.335c-.12-.705-2-.778-2.84-2.384-.84-1.606-.524-1.644-1.643-2.937-1.12-1.292-4.961-4.97-5.64-6.067-.68-1.097-7.274-7.72-8.313-8.19-1.04-.47-1.237-.35-1.237-.35s-.727.942-1.247.824c-.52-.117-.871-.746-.871-.746s-1.08 1.252-2 1.134c-.919-.117-1.448-.668-2.047-1.686-.6-1.019-.24-1.914-.96-2.501-.72-.588-1.198.309-2.158-.553-.96-.861-.792-.937-.712-1.25.08-.313.475-.705.435-.979-.04-.274-3.436-2.549-4.196-2.549z" fill="#F6F6F6" fill-rule="nonzero"/><g fill="#F6F6F6" fill-rule="nonzero"><path d="M346.409 10.625c-.301.055-.352.49-.77.63-.48.16-.925-.152-2.282.286-1.357.437-2.19 1.472-3.507 1.91-1.317.437-.077-.24-4.148 1.112-4.07 1.353-4.753.473-6.47.512-1.715.04-6.062 3.19-7.18 3.19-1.117 0-1.955-1.274-2.993-1.83-1.037-.558-3.317-.003-3.437.235-.12.24 2.795 2.383 2.795 2.383s-2.395-.191-2.874.246c-.479.438.48 1.627.958 2.383.48.756.285.077 1.403.276 1.117.199 1.09 1.029 1.234 1.112.145.084 1.192-.111 1.512.207.319.318.681 1.187.681 2.619 0 1.432-1.241 1.636-1.56 2.432-.32.796.044 1.467-.475 2.422-.518.955-1.558 1.158-1.797 2.51-.24 1.353 1.076.79 1.076 2.58s-3.309 3.031-3.27 6.134c.041 3.103 2.751 3.461 4.268 3.939 1.517.477 1.278-.522 1.916-.522.639 0 .36.475.84 1.152a4.73 4.73 0 001.116 1.093c.015-.02.04-.06.04-.06h2.113s1.882-6.678 2.321-7.354c.439-.677 4.111-4.697 4.87-4.697.758 0 4.147 2.311 4.187 2.59.04.278-.355.676-.434.994-.08.318-.247.395.71 1.27.959.876 1.436-.035 2.154.561.718.597.36 1.506.958 2.54.599 1.035 1.127 1.595 2.045 1.714.887.115 1.907-1.044 1.975-1.123.013-.506.04-.925.079-1.043.14-.418.573-1.113 1.491-1.113.904 0 .612 1.978.603 2.038.084-.016.367-.016 1.195.365 1.038.477 7.618 7.205 8.297 8.32.678 1.113 4.512 4.85 5.63 6.163 1.117 1.313.8 1.352 1.639 2.983.838 1.631 2.715 1.706 2.835 2.422.12.716-1.56 3.387-1.56 3.387s1.595.202 2.034.72c.439.516-.639 1.629 0 2.106.638.477 2.153.276 2.153.276l-.01.128c.16-.546.756-2.53 1.136-3.15.439-.717 2.467-3.068 3.664-5.495 1.198-2.427.638-4.096 1.077-6.006.439-1.91 1.205-1.628 1.205-2.304 0-.676-.361-.637-.8-1.87-.44-1.234-.167-1.398-.287-4.382-.12-2.984-1.748-3.89-1.748-4.805 0-.915.758-1.637 1.037-2.353.28-.716-.161-.433.198-1.388.359-.955.878-.882.918-1.28.04-.398-.444-.628-.444-.867 0-.238.681-.88.681-1.398 0-.517-1.037-2.826-1.037-2.826s-.761.121-1.64-.157c-.877-.279-.837-.478-1.994-.876-1.158-.398-1.112.324-2.51-.552-1.396-.875-1.002-1.632-1.441-2.825-.44-1.194.803-2.547.484-2.866-.32-.318-.525.28-1.403.877-.878.596-2.268.153-5.54-1.398-3.273-1.552-4.158-2.707-5.235-5.73-1.078-3.024-.758-3.735-1.077-5.446-.32-1.71-1.635-2.431-2.114-2.47-.479-.04-.72.717-1.758.836-1.037.12-3.146-1.387-3.585-1.467a.411.411 0 00-.148 0zM328.895 3.542c-.112 1.406 4.403.393 4.854 0 .452-.394-1.072-1.126-1.975-1.126s-2.71.057-2.879 1.126zM336.458 2.36c-.96.731.226 1.407 1.298 1.575 1.073.17 2.145-1.462 1.92-1.631-.226-.169-2.653-.169-3.218.056z"/></g><g fill="#F6F6F6" fill-rule="nonzero"><path d="M311.855 16.635c-1.772.023-7.06.739-8.142 1.22-1.155.512-1.112.637-2.268 1.268-1.155.63-1.832.268-2.868.78-1.036.513-2.949 1.302-3.785 1.893-.837.592-4.227 1.3-5.461 1.971-1.235.67-5.928 2.523-6.565 2.917-.638.395-2.353 2.959-2.632 3.708-.279.749-1.675 1.622-2.79 2.332-1.115.71-2.385 1.536-3.42 3.034-1.036 1.498-1.356 4.02-1.794 5.005-.439.986-.162 3.034-.799 4.06-.637 1.024-1.198.864-1.597 2.204-.398 1.34 1.44 3.43 1.4 4.927-.04 1.499-.325 1.505-.325 2.293 0 .789.361 2.089.68 2.996.319.906.562 3.349.562 5.044 0 1.695-.48 2.718-.878 3.151-.398.434-1.874 1.11-1.715 2.332.16 1.222 3.431 2.915 4.347 3.19.916.277 1.905-.83 2.622-.712.717.119 3.03 2.049 3.707 2.127.677.08.913-.272 2.228-.39 1.314-.118.279-.707.956-1.18.677-.473.442 0 1.518-.04 1.075-.039.831-.673 1.469-.673.637 0 .683.631 1.36.986s3.028.43 4.78 1.297c1.549.767 2.309 2.206 2.475 2.547.209-.255.692-.704 1.547-.732 1.195-.04 2.066.83 3.5.751 1.434-.078 2.35-1.617 2.868-1.814.518-.197 1.313-1.298 2.15-1.259.836.04 1.356 1.93 1.754 2.127.398.197 2.312-.67 2.79-.985.477-.316.755-1.415 1.074-1.415.319 0 .601.156.601.156l2.15-1.142c.4-.306 2.849-2.182 5.017-3.746 2.35-1.695 2.352-2.961 2.75-3.474.398-.512 3.46-.429 3.46-.429s.245 1.847 2.277 1.61c2.031-.237 4.613-4.213 4.613-5.396 0-1.182-3.424-3.663-4.022-5.16-.597-1.499.162-3.945-.236-4.694-.399-.749-2.47-.953-2.83-1.268-.31-.274.021-.758.119-.888a4.707 4.707 0 01-1.114-1.083c-.478-.67-.2-1.142-.838-1.142-.637 0-.399.99-1.912.517-1.514-.473-4.219-.827-4.259-3.902-.04-3.075 3.263-4.305 3.263-6.079s-1.313-1.216-1.074-2.556c.239-1.34 1.276-1.542 1.794-2.488s.154-1.612.473-2.4c.319-.789 1.557-.99 1.557-2.41 0-1.42-.361-2.28-.68-2.595-.279-.276-1.118-.163-1.42-.186-.14.383-.337.693-.61.693-.717 0-.558-.16-1.913-.712-1.354-.552-1.986.712-2.425.673-.438-.04-.123-.475-.64-1.776-.518-1.3.158-2.163.118-3.424-.04-1.262-1.307-1.58-2.662-1.66-.084-.004-.187 0-.305 0zM334.22 35.26zM304.669 10.919c0-1.183-3.824-.946-5.736-.867-1.911.078-3.584 0-5.496.473-1.912.473-1.912 1.182-3.824 1.261-1.912.08-4.78-.788-5.656-.788-.876 0-1.832 1.734-.956 2.68.877.947 1.275 1.499 3.107 1.42 1.832-.079 3.426-2.444 4.7-2.444 1.275 0 .876.788 1.832.788.956 0 5.178-1.34 7.25-1.34 2.07 0 4.779-.08 4.779-1.183zM279.576 12.969c.717 1.735-3.107 1.735-3.903 2.602-.797.867.239 1.104-.797 1.656-1.035.552-2.708-.316-4.381.394s-1.434 1.261-2.23 1.735c-.797.473-1.195-.158-1.753.078-.558.237-.398.395-1.354.552-.956.158-1.673-.315-3.665.868-1.991 1.182-1.911.63-2.708 1.655-.797 1.025-.398 1.34-1.115 1.577-.717.237-1.355-1.734-.956-2.838.398-1.104 3.983-3.47 4.939-3.864.956-.394 6.611-2.365 8.364-2.365 1.752 0 4.62-1.577 6.293-1.971 1.673-.394 2.868-.71 3.266-.079zM264.77 30.916c.268.178.338 2.336-.817 1.666-1.155-.67.557-1.823.816-1.666zM257.869 26.53c.438.355-1.036 2.8-1.792 2.405-.757-.394 1.155-3.193 1.792-2.404zM253.328 26.688c1.195 1.065-2.11 2.878-2.907 3.272-.797.395-1.116-.552-2.191.237-1.075.788.04 1.537-.438 2.208-.478.67-1.036.276-2.43 1.695-1.394 1.42-1.075 2.09-1.712 2.286-.638.198-2.63-.71-2.63-1.3 0-.592 1.355-2.13 3.028-3.47 1.673-1.34 4.063-2.405 5.895-3.824 1.832-1.42 3.067-1.577 3.385-1.104z"/><g><path d="M325.38 6.346c.28.749-.513 1.014-1.324 1.3-.491.175-.946.02-1.543.277-.925.396-1.275 1.182-3.027 1.813-1.753.631-2.948-.079-4.382.789-1.434.867-1.195 2.129-1.911 2.129-.717 0-1.992-1.499-1.275-3.233.717-1.735 2.15-2.366 5.257-2.05 3.107.315 6.295-1.207 7.17-1.262.396-.025.91.033 1.035.237z"/></g></g></g></g></g></svg>