<svg width="480" height="270" xmlns="http://www.w3.org/2000/svg" xmlns:xlink="http://www.w3.org/1999/xlink"><defs><path id="a" d="M0 0h480v270H0z"/></defs><g fill="none" fill-rule="evenodd"><mask id="b" fill="#fff"><use xlink:href="#a"/></mask><use fill="#FAF1F4" xlink:href="#a"/><g mask="url(#b)" fill-rule="nonzero"><path d="M380.213 168.63C342.05 168.63 311 137.743 311 99.774c0-24.719 13.43-47.667 35.049-59.89l11.94 20.889c-14.085 7.965-22.833 22.909-22.833 39 0 24.716 20.216 44.827 45.057 44.827 18.151 0 34.45-10.75 41.53-27.381l22.247 9.36c-10.866 25.546-35.9 42.051-63.777 42.051" fill="#D40D47"/><path d="M443.875 126.39l-22.23-9.4c2.345-5.543 3.534-11.439 3.534-17.517 0-24.818-20.19-45.008-45.012-45.008-7.799 0-15.474 2.022-22.2 5.845l-11.928-20.975c10.353-5.889 22.158-9 34.128-9 38.127 0 69.146 31.015 69.146 69.138 0 9.327-1.83 18.384-5.438 26.917" fill="#FABB2E"/><path d="M436.508-25.24c-37.704 0-68.378 30.674-68.378 68.375 0 37.705 30.674 68.375 68.378 68.375 37.702 0 68.375-30.67 68.375-68.375 0-37.701-30.673-68.375-68.375-68.375zM344 43.135c0-51.007 41.498-92.505 92.508-92.505 51.008 0 92.506 41.498 92.506 92.505 0 51.01-41.498 92.509-92.506 92.509-51.01 0-92.508-41.498-92.508-92.509z" fill="#2AABCE"/><path d="M436.508 135.644c-51.01 0-92.508-41.498-92.508-92.509 0-6.663 5.4-12.063 12.067-12.063 6.663 0 12.063 5.4 12.063 12.063 0 37.705 30.674 68.375 68.378 68.375 6.663 0 12.064 5.404 12.064 12.067s-5.4 12.067-12.064 12.067" fill="#555390"/></g></g></svg>