<svg width="140" height="80" xmlns="http://www.w3.org/2000/svg"><path d="M136.911 57.755c1.495 0 2.64 1.146 2.64 2.64a2.626 2.626 0 01-2.64 2.641c-1.495 0-2.64-1.145-2.64-2.64s1.145-2.64 2.64-2.64zm-24.612-40.057v11.888a84.455 84.455 0 01-.05 3.208c1.694-1.544 4.534-3.039 8.67-3.039 9.117 0 14.896 7.125 14.946 16.392 0 9.317-5.83 16.49-14.997 16.49-3.537 0-6.726-1.045-9.067-3.287l.05 2.59h-8.221c-.797 0-1.545-.847-1.545-1.843V19.542c0-.847.698-1.844 1.495-1.844h8.719zM82.605 29.755c5.879 0 9.317 1.346 11.808 3.687 2.441 2.292 3.736 5.381 3.786 10.712V61.89h-8.47c-.797 0-1.345-.548-1.394-1.146l-.15-2.143c-1.345 1.346-3.936 4.036-9.068 4.036-5.58 0-11.508-3.04-11.508-10.064 0-7.025 6.476-9.417 12.306-9.666l7.971-.299v-.697c0-3.338-2.342-5.082-6.477-5.082-4.035 0-8.021 1.794-9.665 2.84l-2.093-5.231c-.299-.748 0-1.744.748-2.093 2.84-1.196 7.174-2.59 12.206-2.59zm54.306 28.399a2.233 2.233 0 00-2.242 2.242c0 1.245.996 2.242 2.242 2.242a2.233 2.233 0 002.242-2.242 2.233 2.233 0 00-2.242-2.242zM53.26 29.755c9.167 0 11.559 5.88 11.509 13.552V61.99H56c-.747 0-1.495-.847-1.495-1.843V45.549c0-4.185-.647-7.324-4.882-7.324-4.385 0-5.63 3.587-5.63 8.121V61.99h-8.719c-.797 0-1.544-.946-1.544-1.843v-27.9c0-.897.697-1.894 1.494-1.894h8.769l-.05 4.534h.15c1.743-2.79 4.633-5.132 9.167-5.132zM10.512 17.65v23.117l8.72-9.416c.498-.598 1.345-1.047 2.142-1.047h10.562L20.377 42.161l12.506 19.78h-9.915c-1.046 0-1.943-.3-2.59-1.196l-7.026-11.11-2.84 2.74v9.565H1.744c-.897 0-1.495-.946-1.495-1.843V19.492c0-.847.698-1.843 1.495-1.843h8.768zM136.961 58.85c.648 0 1.096.35 1.096.947 0 .598-.399.797-.648.897l.797 1.245h-.747l-.648-1.245h-.299v1.245h-.647v-3.089h1.096zm-.1.548h-.349v.847h.35c.298 0 .547-.05.547-.398 0-.399-.249-.449-.548-.449zM87.986 48.14l-5.082.3c-3.139.1-4.982 1.494-4.982 3.836 0 2.391 1.993 3.886 4.832 3.886 2.74 0 4.584-1.794 5.232-2.89V48.14zm30.74-10.462c-4.335 0-7.274 3.338-7.274 8.22 0 4.883 2.99 8.221 7.274 8.221 4.334 0 7.174-3.338 7.174-8.22 0-4.883-2.89-8.221-7.174-8.221z" fill-rule="nonzero" fill="#003B5A"/></svg>