<svg width="198" height="80" xmlns="http://www.w3.org/2000/svg"><path d="M77.097 59.284l8.131-8.743v17.784l-8.131-9.04zm-25.915-6.54v4.022h11.646v4.547H51.182v4.372h13.027l6.068-6.523-5.876-6.4h-13.29l.07-.018zm144.16 3.34a9.67 9.67 0 012.64 7.257c0 6.663-4.46 10.667-11.996 10.667h-10.317a3.62 3.62 0 01-3.358-2.22 13.657 13.657 0 01-7.974 2.22h-10.334a3.62 3.62 0 01-1.574-.402 3.83 3.83 0 01-1.591.402H133.14a3.707 3.707 0 01-1.609-.402 3.847 3.847 0 01-1.626.402h-5.246a3.672 3.672 0 01-3.654-3.655v-3.217-1.19c-.35-.022-.7-.022-1.05 0h-2.098v4.442a3.655 3.655 0 01-3.672 3.655h-5.351a3.637 3.637 0 01-3.637-3.655v-5.7a15.563 15.563 0 01-8.08 1.853h-2.99v3.795a3.637 3.637 0 01-3.637 3.655H80.14a3.62 3.62 0 01-2.728-1.224l-3.847-4.32-3.917 4.372a3.655 3.655 0 01-2.692 1.172H45.97a3.655 3.655 0 01-3.655-3.655V48.198a3.655 3.655 0 013.655-3.655h21.298c1.041-.01 2.036.43 2.728 1.207l3.865 4.197 4.022-4.355a3.637 3.637 0 012.675-1.154h16.945a14.846 14.846 0 018.2 2.029 3.585 3.585 0 013.218-2.029h12.24c2.78-.21 5.568.296 8.097 1.47.243.167.477.348.7.541a3.655 3.655 0 013.252-2.01h17.68a3.585 3.585 0 013.147 1.94 12.24 12.24 0 016.994-1.94h10.632a3.62 3.62 0 013.498 2.447 11.734 11.734 0 017.606-2.448h10.58a3.655 3.655 0 013.637 3.673v4.703a3.655 3.655 0 01-1.661 3.096l.122.104-.105.07zm-88.973-.63c0-6.137-4.721-7.308-8.953-7.308H80.49l-6.75 7.274-6.522-7.222H45.9v22.208h20.984l6.802-7.344 6.452 7.291h10.317v-7.431h6.61c4.634 0 9.233-1.294 9.233-7.467h.07zm20.075 4.582a6.225 6.225 0 003.76-5.91 5.246 5.246 0 00-2.71-4.914 12.923 12.923 0 00-6.384-1.049h-12.24v22.19h5.246v-8.166h5.665c1.924 0 3.13.193 3.865.98 1.014 1.031.874 3.007.874 4.336v2.78h5.351v-4.336a6.662 6.662 0 00-.892-4.057 5.893 5.893 0 00-2.623-1.854h.088zm24.481-11.873H133.16v22.19h17.696v-4.668h-12.45v-4.372h12.118V56.8h-12.118V52.78h12.45l.07-4.616zm21.788 15.16a6.12 6.12 0 00-1.643-4.633c-1.19-1.207-3.148-1.749-6.05-1.749h-2.851a6.592 6.592 0 01-2.046-.245 1.749 1.749 0 01-1.172-1.66c-.049-.644.26-1.263.805-1.61a3.777 3.777 0 012.116-.402h9.722v-4.826H160.98c-5.56 0-7.59 3.375-7.59 6.627 0 6.995 6.226 6.698 11.175 6.855a2.675 2.675 0 011.87.49c.413.368.643.899.63 1.451a1.976 1.976 0 01-.63 1.469 3.113 3.113 0 01-2.15.542h-10.282v4.739h10.317c5.35 0 8.34-2.203 8.34-6.995l.053-.052zm21.666 0a6.243 6.243 0 00-1.573-4.686c-1.207-1.206-3.183-1.748-6.068-1.748h-2.85a6.802 6.802 0 01-2.064-.245 1.889 1.889 0 01-.367-3.27 3.9 3.9 0 012.15-.402h9.706v-4.774h-10.615c-5.578 0-7.589 3.375-7.589 6.627 0 6.995 6.208 6.698 11.174 6.855.668-.075 1.34.1 1.889.49.429.356.663.895.63 1.451a2.046 2.046 0 01-.63 1.469 3.2 3.2 0 01-2.169.542H175.74v4.739h10.317c5.28-.018 8.253-2.256 8.253-7.047h.07zM97.47 52.833h-6.96v5.63h6.837c2.029 0 3.305-.996 3.305-2.92 0-1.923-1.276-2.798-3.252-2.798l.07.088zm3.147-33.662a2.29 2.29 0 001.084-2.098 2.011 2.011 0 00-1.171-2.099 5.788 5.788 0 00-2.518-.384h-6.523v4.931h6.435c.897.07 1.797-.08 2.623-.437l.07.087zm22.733 34.064a5.246 5.246 0 00-2.536-.402h-6.627v4.984h6.47a5.246 5.246 0 002.623-.455 2.413 2.413 0 001.084-2.168 2.15 2.15 0 00-1.12-1.994l.106.035zm19.585-39.415l-3.637 8.866h7.291l-3.654-8.866zM13.533 22.685h7.152l-3.672-8.953-3.48 8.953zm29.727 13.22a3.672 3.672 0 01-3.357-2.186l-.7-1.574v.105a3.637 3.637 0 01-3.637 3.655H24.567a3.637 3.637 0 01-3.375-2.256l-1.102-2.693h-6.137l-1.137 2.693a3.637 3.637 0 01-3.357 2.256H3.653A3.637 3.637 0 01.61 34.209a3.725 3.725 0 01-.314-3.498L9.79 8.521a3.707 3.707 0 013.375-2.29h7.851a3.707 3.707 0 013.375 2.22l1.976 4.774V9.99a3.655 3.655 0 013.672-3.655h8.656a3.62 3.62 0 013.305 2.133l3.497 7.52 3.166-7.432a3.672 3.672 0 013.322-2.326h8.918c.711.016 1.4.247 1.976.665a3.497 3.497 0 011.889-.665h17.696a3.497 3.497 0 011.749.577 3.742 3.742 0 011.94-.577h12.241c2.842-.238 5.695.3 8.254 1.556.232.155.454.325.665.508a3.655 3.655 0 013.182-2.064h5.421a3.655 3.655 0 013.497 3.113 14.584 14.584 0 0110.003-3.113h5.123c.794.003 1.567.26 2.203.735a3.497 3.497 0 012.186-.735h7.957a3.655 3.655 0 013.34 2.221l1.958 4.564V9.99a3.655 3.655 0 013.637-3.655h8.08a3.725 3.725 0 013.147 1.749l2.553 4.179v-2.29a3.637 3.637 0 013.672-3.638h5.42a3.655 3.655 0 013.656 3.637V32.18a3.672 3.672 0 01-3.655 3.655h-7.484a3.637 3.637 0 01-3.148-1.749l-3.253-5.386v3.498a3.655 3.655 0 01-3.654 3.654h-10.772a3.672 3.672 0 01-3.392-2.273l-1.102-2.693h-6.103l-1.049 2.676a3.672 3.672 0 01-3.392 2.29h-6.243a15.51 15.51 0 01-9.618-2.955 3.497 3.497 0 01-3.497 2.955H110.6a3.637 3.637 0 01-1.749-.454 3.497 3.497 0 01-1.643.454h-5.246a3.672 3.672 0 01-3.673-3.637v-3.287-1.102h-3.165v4.407a3.637 3.637 0 01-3.637 3.637h-5.246a3.497 3.497 0 01-1.748-.56 3.655 3.655 0 01-1.75.56H64.822a3.777 3.777 0 01-1.976-.63 3.637 3.637 0 01-1.976.63h-5.42a3.655 3.655 0 01-3.673-3.637v-.123l-.7 1.54a3.62 3.62 0 01-3.34 2.185h-4.668l.192.07zm75.35-14.654c0 4.005.962 6.575 2.833 8.446a11.121 11.121 0 007.659 2.466h6.225l1.976-4.949h11.034l2.046 4.966h10.79V15.533L171.21 32.18h7.519V9.972h-5.439v15.493L163.953 9.99h-8.062v20.984l-8.97-20.984h-7.94l-7.483 17.486h-2.396a5.071 5.071 0 01-3.69-1.154 7.607 7.607 0 01-1.469-5.246 7.292 7.292 0 011.522-5.018 5.036 5.036 0 014.074-1.312h5.019V9.972h-5.141c-3.655 0-6.33.84-8.044 2.588a11.89 11.89 0 00-2.816 8.744l.053-.053zm11.016-2.868c-1.259 0-1.381.14-1.52.28a5.246 5.246 0 00-.42 2.396c-.09.902.035 1.813.367 2.658a3.97 3.97 0 001.049 0l2.273-5.246-1.749-.088zM110.55 32.18h5.403V9.972h-5.403V32.18zm-24.377 0h5.246v-8.079h5.683c1.889 0 3.113.175 3.865.962a6.557 6.557 0 01.84 4.32v2.78h5.438v-4.354a6.453 6.453 0 00-.875-4.092 6.453 6.453 0 00-2.64-1.749 6.243 6.243 0 003.724-5.91 5.246 5.246 0 00-2.692-4.914 12.433 12.433 0 00-6.418-1.032h-12.24V32.18h.07zm-21.386 0h17.697v-4.599H70.085v-4.406h12.1v-4.582h-12.1V14.59h12.398V9.972H64.786V32.18zm-21.718 0h4.634L55.396 14.8V32.18h5.508V9.972h-8.883l-6.365 15.056L38.66 9.972h-8.62v20.984L21 9.972h-7.852L3.653 32.18h5.77l2.047-4.966h10.964l2.028 4.966H35.27V14.781l7.729 17.487.07-.088z" fill="#FFF" fill-rule="nonzero"/></svg>