<svg width="174" height="80" xmlns="http://www.w3.org/2000/svg"><g fill-rule="nonzero" fill="#FFF"><path d="M96.967 43.724v8.024c-4.561 2.196-8.953 3.378-13.346 3.378-12.078 0-19.342-6.926-19.342-15.541.084-9.46 8.362-17.231 18.92-17.231 2.618 0 4.561.422 6.673 1.098 1.52.422 2.45 1.013 3.294 1.013.845 0 1.014-1.351 1.183-2.111h1.182l1.014 10.811h-1.352c-.591-2.111-1.605-3.885-2.956-5.152-2.196-2.112-5.153-3.21-8.616-3.21-7.264 0-11.487 5.575-11.487 13.937 0 8.278 5.152 13.937 12.079 13.937 2.027 0 3.885-.422 6.166-1.436v-8.193c0-2.703-.423-3.632-4.393-3.632v-1.183h14.529v1.014c-3.632 0-3.548 1.098-3.548 4.477zM56.846 30.547V54.45h-1.943L30.239 29.787c.084.675.084 1.182.084 1.858V46.68c0 4.645 0 6.335 4.393 6.335v1.182H23.059v-1.182c4.392 0 4.392-2.027 4.392-6.335V29.533c0-2.534 0-5.321-4.56-5.321v-1.183h10.895l20.357 20.272c-.085-.591-.085-.929-.085-1.69v-10.98c0-4.476.085-6.335-4.223-6.335V23.03h11.572v1.267c-4.308-.084-4.561 1.69-4.561 6.25zM.676 54.282v-1.183c2.787 0 4.73-.253 4.73-4.139V28.35c0-3.97-1.52-4.138-4.73-4.138v-1.183h16.302v1.267c-3.295 0-4.73.085-4.73 4.14v20.609c0 3.885 1.689 4.139 4.73 4.139v1.182H.676v-.084zM173.493 47.018c.085-.676.085-1.267.085-1.69a1.178 1.178 0 00-.76-.337c0-.338-.085-.76 0-1.183.253 0 .675.084.675 0 0-.676-.084-1.267-.253-1.605-.254-.084-.591-.253-.845-.338 0-.338-.084-.675-.253-.844.338-.085.591-.085.76-.085 0 0-.253-.929-.338-1.436-.253-.084-.591-.084-.76-.084-.085-.254-.254-.423-.338-.76.253-.085.422-.085.676-.254-.254-.507-.338-.76-.592-1.098h-.76c-.084-.253-.253-.422-.253-.676.084-.084.338-.253.422-.337a1.549 1.549 0 00-.591-.845c-.253 0-.422.084-.676 0-.084 0-.422-.422-.338-.422.085-.254.338-.338.423-.423-.338-.422-.423-.76-.76-.929-.254 0-.423 0-.676.085 0 0-.254-.338-.338-.423-.338 0 .253-.507.253-.507-.338-.422-.675-.76-1.098-1.182-.253 0-.422.253-.591.253 0 0-.422-.338-.422-.422 0-.253.422-.338.422-.338s-.76-.845-1.351-1.182c-.254.084-.338.084-.592.084-.338-.338-.76-.507-.76-.507s.338-.253.338-.338c-.591-.337-.76-.506-1.183-.844-.422-.254-.675-.507-.844-.845-.76-1.182-1.774-2.872-4.224-3.21 0 0 .592.76.845 1.267 0 .085 0 .085-.422.085h-.76c-.254-.338-.338-.423-.423-.676-.253-.422-.338-.507-.591-.76-.422-.338-2.618.845-4.477 1.267.423.507.845.845 1.014 1.098.591.507 1.351 1.52 1.858 2.28.085-.084.254-.253.422-.337 1.436-.254 1.436-.507 1.436-.507s-1.098-.845-.337-.845c0 0 .59.085.76-.084.591-.085 1.182-.254 1.52 0 .422.338.676.76 1.014 1.098-.254 0-.423-.085-.676-.085-.676-.084-1.351 0-1.858.085 0 0 .844.76 1.098 1.098-.254-.085-.845 0-.845 0-.338.084-.76.253-.845.253-.337.085-.675 0-.844.085.422.253 2.45.929 3.378.929.845 0 1.436-.085 2.197-.422.084-.085.337-.254.422-.085.422.085.676.253.845.422 2.871 1.69 6.081 5.829 7.01 7.94a14.608 14.608 0 011.52 6.42c.085 2.871-.844 5.659-2.871 8.193-1.098 1.436-3.21 2.618-5.406 2.787.676.76 1.014 1.943 1.351 3.041 0 0 .76-.085 1.183-.338 0-.845-.591-1.858-.591-2.027 0 0 .675-.422 1.182-.422.085.337.423.844.845 1.604.422-.253.76-.422 1.098-.76 0-.507-.338-1.182-.591-1.858.76-.338 1.182-.422 1.182-.422.254.338.76.675.845.929 0 0 .591-.507.76-1.098-.253-.423-.591-.76-.76-1.183l.844-.929s.592.422.76.676c.339-.423.676-.845.76-1.436-.59-.507-.76-.507-.844-.845.254-.338.338-.76.591-1.098.338.085.592.338.76.422.254-.422.423-1.098.423-1.52-.253-.253-.591-.338-.76-.507.084-.506.253-1.098.253-1.098s1.098.085 1.267.085zm-17.146-21.032l-.676.422-.845-.676 1.014-.507 1.098.76h-.591zm3.97.929l-.423-.507 1.183-.338.591 1.858-1.351-1.013zm-23.313-2.788c0 .338.084.676.253.93.507.337 1.183.506 1.183.506.084-.338-.085-.675-.085-.929-.253-.76-.59-1.52-.675-2.365v-.422c-.423-.254-.845-.338-1.436-.507 0 0 0 .676.253.93.169.59.507 1.435.507 1.857zm.422 2.703c.085.254.338.254.591.338.254.254.423.338.76.507.423.422.676.93 1.183 1.436.254.084.338.253.423.253.084 0 .59.338.675.423 0-.845-.338-1.52-.591-1.943 0-.085-.084-.253-.338-.338-.338-.338-.676-.676-.76-.676-.338-.338-.591-.675-.845-.929-.338 0-.591.338-.76.423-.084.168-.591.422-.338.506zm1.774 2.619c-.084 0-.422-.085-.845-.254h-.59c.084.338.421.676.59.845 0 .085 0 .422.085.676.253 0 .507.084.76.253.084 0 .76.085 1.014.338.253 0 1.013.845 1.098.93.338.253.675.421.844.337.254 0 0-.338 0-.422-.422-.676-.76-1.859-.844-1.859-.338-.084-.592 0-1.014-.253-.253-.169-.93-.507-1.098-.591zm19.258 21.876c.338.085.507.845.76 1.099.338.422.254-.76.085-.93 0-.084 0-.929-.253-.929-.085-.084-.254-.422-.338-.507-.085.338 0 .507 0 .845.084.085-.338.338-.254.422zM120.448 22.1c.76-.422 2.112-1.182 2.535-1.605.084.254 1.435.93 1.942 1.267.423.338.845.423 1.352.676.253-.338.422-.676.675-1.436.338.254.76.254 1.098.338 0 .422 0 .845.085 1.267 0 .253.253.085.676-.084.675-.254 1.351-.338 1.689-.423.76-.422 1.183-1.267 1.858-1.267.592 0 1.52.338 1.774.507.338.085.591.253.845.253.422 0 .76-.422 1.098-.675-1.014-.676-2.112-1.267-3.21-1.69-.676.507-1.098.93-1.436.93-.338 0-.084-.676-.084-1.099-.338 0-.592 0-.845-.084-.253.76-.338 1.69-.845 1.943-.253.084-.338.084-.422.084v-.844c0-.085.422-.845.338-.93 0 0-1.014.254-1.183.338-.084.085-.76.423-.844.423 0 0-.338-.085-.423-.085-.338-.253-.59-.253-.844-.422-.423 1.267-.592 1.605-.592 1.436 0 0-1.52-.93-2.111-1.605-1.436.253-1.436.422-2.619.845-.422.422-1.098.929-1.52 1.604-.253.423-.422.676-.676 1.098l1.098.423c-.084-.254.507-1.014.592-1.183zm24.327 17.738c.253.254.338.676.422 1.436.085.422.338.507.591 1.183.338-.254.845-.085.845-.085 0-.507-.338-1.098-.338-1.182-.084-.254-.422-.845-.591-1.098.084 0 .422.422 1.013.422.085 0 .423.084.676 0 0 0 .338.253.338.422.253.338.253.507.338.845.253 0 .338 0 .422-.085.423 0 .676-.084.676-.084-.084-.254-.253-.422-.253-.676-.085-.253-.338-.76-.338-.76l1.942-.338c0-.338-.084-.76-.422-.929-1.013.338-2.112.422-2.872.422-1.098 0-2.196-.253-3.716-.844-.085.253 0 .675 0 .675.76.507.76.17 1.267.676zm-3.632-6.25c.253.844.591 1.942.675 3.21 0 .337-.084.675 0 .928l1.52.507s-.253-1.267-.421-2.787c-.254-1.267-.338-1.69-.676-2.28-.254.084-.338.084-.591.084-.254.253-.507.338-.507.338zm16.64 4.56c-1.436-1.435-2.957-2.28-4.477-2.28-1.352 0-2.28.93-2.28 1.943 0 3.885 1.52 6.335 2.533 8.531.338.507.423.93.423 1.52.084 1.436-1.099 3.97-1.859 5.406-.084-.084-.675-.253-1.098-.253-1.098 0-1.52.76-1.774 1.436-.337 0-.506-.254-.844-.254-1.352-.084-2.45 1.098-2.45 2.365 0 1.436.338 2.112.845 3.126h1.098c-.084-.338-.422-1.943-.591-2.365-.085-.676.084-1.098.422-1.436.422-.676 1.52-.423 1.52-.423-.337.507-.76 1.436-.76 2.28.085.508.254 1.437.592 1.944h.844c.254-.676 0-1.183 0-1.69 0-.338 0-.675.085-.929 0-.253.59.423.59.423s.423-.507.423-.93c0-.337-.675-.253-.76-.506-.084-.338.253-1.098.253-1.098.676-.423 1.183-.338 1.436-.338.338 0 .423.084.845.084.338 0 .422-.676.422-.929.085.084.423.338.592.338.337.084.422.084.76.253.422.254.844.423 1.351.845v-.085c-.084-.422.085-.929-.253-1.182 0 0-.591-.422-1.014-.676-.253-.253-.591-.253-.675-.422-.085-.085-.085-.254-.085-.422 0-.254.085-.507.253-.507.254-.085.338 0 .76.253.423.254.845.507 1.183.76 0 0 .085.254.085.085.422-.254.422-.338.422-.93-.422-.506 0-.675-.676-1.097-.253 0-1.436-.423-1.436-.423 0-.253.338-.76.338-.76.085-.084.338-.084.423.085.675.422 1.098.422 1.773.675.085-.338.085-.507-.084-.76-.254-.338-.591-.676-.76-.76-.423-.085-.676-.253-1.014-.338 0-.338-.084-.676-.253-1.098 0-.253.253-.084.422-.084.422-.085 2.28.506 2.28.506 0-.422-.084-.76-.337-.929-.254-.253-.423-.422-1.014-.676-.76-.253-1.436-.084-1.943-.422-.422-.422-.59-.507-.675-.929.338-.084.844-.253 1.182-.253.591 0 .845-.085 1.52.084.254.085 1.014.76 1.352.76 0 0-.253-.844-.422-1.182-.338 0-.845-.676-1.098-.76-1.098-.423-1.352-.254-1.943-.085-.338.085-.676 0-1.014 0-.084-.253.254-.507.085-.76 0-.085-.423-.254-.423-.422 0 0 1.774-.254 2.45-.085.253.085.845.507 1.098.507 0 0 .253-.76-.084-1.436-.507-.085-1.098 0-1.52-.085-.423-.084-.845 0-1.183 0-.338 0-.676-.084-1.014-.084-.253-.338-.338-.676-.338-.93 0 0 2.788-.084 2.957-.252-.085-.085-.338-.254-.423-.423-.422-.76-.76-.844-1.351-.844-.338 0-1.098.337-1.52.253 0-.845.422-1.605 1.097-1.605 1.352 0 2.619.507 3.717 1.69 2.787 2.787 4.223 8.108 4.223 11.825 0 1.689-.253 3.294-.422 4.645.338.085.507.085.845.085.337-1.267.675-3.041.675-4.646.085-5.744-1.858-10.39-4.307-12.923zm-21.117-8.192c-.084.084-.253.337-.253.422-.254.338-.507.507-.338.845.084.422.084.844.422 1.182.338.338.76.253 1.183.507 0 0-.338-1.436-.507-2.027-.085-.423-.338-.592-.507-.93zm13.515 13.514c-.085-.338-.423-.422-.676-.676 0 0-1.436-.506-1.69-.506-.253.084.592.506.676.76a81.55 81.55 0 001.52 1.436l.17-1.014zm-10.474-7.095c.338 0 .591.253.76.253 0-.337-.084-.506-.253-.844-.085-.507-.338-.845-.423-1.183 0-.338 0-.507-.084-.76-.085 0-.254 0-.338-.084-.338 0-.76-.085-.76-.085 0 .338.084.845.084 1.183 0 .084.423 1.098.591 1.182.085.17.254.254.423.338zm19.174 17.569c0-.085-.338-.338-.423-.338 0-.084-.084-.507-.253-.676-.254-.084-.254-.253-.422-.253 0 .084 0 .253-.085.422 0 .254-.253.338-.084.507.084.253.253.253.422.338.084.084.422.93.591 1.098 0 0 0-.676.254-1.098zm-8.447-5.913c.422-.338.507-.929.676-1.267.084-.338-.085-.929-.254-1.182-.338 0-.506-.254-.76-.254-.253 0-.338-.506-.676-.422.085.253.338 1.267.423 1.52.169.085.591.845.591 1.605zm11.74 9.207s-.084.338-.253.507c-.253.507-.338.76-.338 1.098.338.253.423.084.845.084.254 0 .422.085.591.085.254-.085 0-.338 0-.422-.084.084-.506-.93-.844-1.352zm-18.582-15.88s-1.351-.76-1.52-1.098c-.338 0-.338 0-.676.338-.253 0-.338.085-.422.338.338.254.422.338.76.507.084.084.253.084.591 0h.845c.169 0 .422.084.422-.085zm-2.956-2.365c-.085-.253-.338-.675-.422-.76a1.299 1.299 0 00-.338-.507c-.085-.084-.507 0-.76 0-.254 0-.338 0-.592.085.254.253.423.929.592.929.084.253.084.338.337.422.592.085 1.014 0 1.52.254.17-.338-.253-.338-.337-.423zm8.362 8.447c0-.338-.084-.676-.338-.845-.084-.337-.253-.76-.253-.929-.085-.253-.591-.844-.76-1.182-.254-.254-.254-.76-.338-1.098l-1.352.253c.676.845 1.183 1.69 1.52 2.619.085.337 1.099 3.547 1.099 3.547.338-.084-.085-1.69 0-1.858.169-.254.169-.338.422-.507zm-4.308-3.716c0-.93-.253-.93-.675-1.436 0 0-.338.675-.592.929.423.422.592.929.592.929.422-.338.422-.254.675-.422zm15.373 14.697h-.591c-.254-.085-.338-.085-.422 0-.338.337-.338.844-.592 1.182h1.352c.253-.253.422-.338.422-.76.085-.085.085-.253-.169-.422zm-14.021-12.332s-.254-.423-.254-.507a1.13 1.13 0 00-.59-.676c0-.084-.085.422-.254.676-.085.253-.085.084-.338.507.253.337.338.506.591.844 0 .085.338.507.338.507s.422-.845.422-1.098c.085-.084.085-.169.085-.253zm-20.948-9.714c.338 0 .676-.338 1.014-.422.675-.254 1.182-.423 1.858-.507.253-.085.253-.338.253-.507.085-.253.085-.253.085-.507 0-.084-.422-.253-.676-.675-.253-.338 0-.676-.084-.676-.338.253-.76.422-.845 0-.084-.338-.084-.76.253-.845a4.663 4.663 0 013.38 0c.252 0 .337.254.337.422.084.254 0 .423-.253.676-.338.085-.676-.338-.676 0s-.254.76-.76.93c-.085.084 0 .422.084.76 0 .084 0 .337.085.337.422.085 1.098.254 1.435.423.423.253 1.183.844 1.352.76.338-.253.422-.507.676-.76 1.182.507 2.196.844 3.716 1.858.254 0 .254-.422.254-.676-.592-.338-2.197-1.182-2.45-1.267-.422-.084-.676-.338-1.098-.422v-.845c.76.254 2.28.338 3.885 1.183.085-.338.338-.507.254-.676-1.774-.845-3.041-1.182-4.223-1.182 0-.085-.254-.254 0-.338.337-.254.422-.338.59-.423.339-.422.592-.844.677-1.267.337-.675.675-.422.844-1.858-.338 0-.422.254-.76.338.084-.338.253-.676.253-.93.085-.675.338-1.097.338-1.857.338-.085.845-.423 1.014-.845 0-.085 0-.422.084-.845 0-.675.085-1.182-.084-1.605 0-.084-.76-1.182-1.352-1.52-.76-.338-1.098-.253-1.689-.084-.676 0-1.52.675-1.52 1.858-.676 0-1.943.084-2.788.76-.675-.338-1.182-.422-1.774-.507h-1.013c-.085-.422-.338-.844-.76-1.182-.592-.338-1.183-.76-1.943-.76-.338 0-.676-.085-1.014.084-.337.253-.844.422-1.013.845-.254.506-.423.929-.423 1.52 0 .507.338.93.676 1.52.085.254.254.254.423.338.084 0 .59.254.675.338.085.085-.084.422-.084 1.098 0 .507 0 .507.084.93 0 .422.085.844.254 1.182-.338 0-.592-.338-.76-.085 0 .254.253.76.422 1.183.591.507 1.098 1.098 1.436 1.69 0 .084 0 .337.084.337-.76.085-1.52.085-2.28.338-.676.253-1.436.507-2.112.845 0 .422.084.76.084.76.085 0 1.098-.507 1.943-.76 1.436-.423 2.196-.338 2.196-.338.085.253.254.507.085.675-1.352.507-2.619 1.183-3.886 1.943.085.254 0 .507.254.76 1.098-.675 2.618-1.436 3.716-1.858.423-.084.423 0 .676 0 .169-.084.338.338.591.338zm7.01-1.52c-.421-.085-.76-.423-1.35-.423 0-.338 0-.338.084-.422.676-.085 1.013.084 1.351.253.085.085-.084.592-.084.592zm1.268-6.589c-.085.254-.338.338-.591.423-.085 0-.254.253-.254.337-.253.338-.591.423-1.013.423-.254 0-.676 0-.845-.423 0 0 .084 1.267.084 1.605 0 .085.085.085.085.085.422.084.591.507.76.76 0 0 .085.084.253.084.423.338 1.436.76 1.014.76 0 .254-.338.76-.422.76-.338-.337-.845-.506-1.352-.76-.084-.253-.253-.422-.338-.675-.253-.253-.337-.253-.675-.422 0-.76-.085-.76-.085-1.52 0-.085-.253-1.268-.253-1.268 0-.084.338-.422.676-.507 0 0 2.111 0 3.04.085.085 0 0 .253-.084.253zm-.676-4.56c.338-.339.76-.423 1.183-.339.59.085.675.254.844.423.338.422.254 1.267.085 1.858-.085.338-.423.507-.76.507-.592-.676-1.098-1.098-1.859-1.267-.084-.423.254-.845.507-1.183zm-2.112 2.195c.254 0 2.112.423.845.93-.253.253-.76.084-1.351.084 0-.254 0-.676-.254-.676-.253-.253-.591-.253-.591-.422-.253-.423.845-.085 1.351.084zm-4.476.423c.338-.254.675-.423.844-.423.254-.084.676-.253.676 0 0 .423-.338.676-.676 1.098-.253.338-.337.085-.844.085h-.591c0-.338.253-.507.59-.76zm-3.294.084c-.254-.253-.676-.507-.845-.93-.338-.421-.253-.844-.253-.928.253-.676 1.013-.845 1.435-.93.254 0 .423 0 .76.254.423.253.676.253.845.93 0 .084 0 .253-.084.253 0 0-.676.422-.845.675-.591.17-.76.676-1.013.676zm1.858 5.49c.253-.338.676-.506 1.013-.675.423-.085.338-.93.338-1.098.085-.254 0-.507 0-.76-.253.084-.253 0-.675.084-.423 0-.676-.254-.845-.423-.253-.253-.76-.675-1.014-1.098.507-.084 1.014-.084 1.52-.084h1.437c.337.084.59.338.59.507 0 .084-.084.76-.084.844-.084.676-.084.845-.253 1.859v.338c-.084.253-.591.337-.76.506-.085.338-.085.507-.422.676-.338.084-.592.422-.76.338-.423-.169-.339-.676-.085-1.014zm0 2.365s.422-.084.76-.084c.253 0 .422 0 .676.084-.085.085-.591.338-.591.338-.254.085-.338.254-.676.338a7.25 7.25 0 01-.17-.676zm11.572 5.153c.338.422.675.76 1.013 1.098.085.253.423.253.676.253h1.098c.338-.084.591-.084.76-.338-.422-.253-1.013-.422-1.436-.675-.422-.254-.76-.423-1.098-.76-.253 0-.338.084-.422.084-.338.084-.422.253-.591.338zm4.814 3.632h.592c.253 0 .253-.423 0-.423-.76-.253-1.436-.422-1.859-1.098-.084.085-.76.338-1.013.507 0 0 .253.507.76 1.098.338.338.929.17 1.52-.084zm14.95 15.71c-.084.338-.253.507-.422.76.085.085.338.085.423.085h1.098c.084-.084.084-.422.253-.676 0-.253.085-.422.085-.76h-.676c-.338.085-.591.254-.76.591zm-8.784-9.46c-.084-.253-.253-.506-.338-.76 0-.084 0-.338-.084-.676 0 0-.76.507-.845.676.423.507.254.845.338 1.267 0 .253.422.338.591.676 0 .084-.253 1.098-.253 1.098.591-.845.591-1.943.591-2.28zm5.744 5.744c-.591 0-1.183.676-1.69 2.703-.084.76-.253 1.436-.084 1.858l1.014.085c.253-.338.253-.845.422-1.267 0-.254.253-.254.422-.254.254.085.676.676.845.845.085-.254.338-.676.338-.93 0-.084-.338-.337-.422-.337-.338-.253-.592-.422-1.014-.422-.084-.423.507-.93.507-.93.76 0 1.52.845 1.52.845.254-.084.338-.422.591-.676-.59-1.267-1.773-1.52-2.449-1.52zm-8.869-7.602c-.084.338-.422.507-.422.93 0 0 .591.506.675.844.085.253 0 1.182.085 1.436.338-.338.591-.423.591-.845-.084-.084-.253-.929-.338-1.605 0-.169-.338-.507-.591-.76zm-9.882-7.686s.084.506.337 1.098c.085.253.338.422.423.422.253.084.675.253 1.013.253v-.253c-.338-.338-.76-1.098-.76-1.267-.253-.084-.253-.084-.507-.084-.169-.17-.422-.17-.506-.17zm5.32 4.814a6.142 6.142 0 00-.76-.676c-.422-.084-.675-.337-.844-.76-.084-.253-.253-.422-.422-.675-.254 0-.338.084-.507.253-.254.253-.676.253-.845.507.085.253.254.422.423.675.084.085.253.338.675.507.76.423 1.014.507 1.014.507.507.169 1.267-.338 1.267-.338zm-22.13-15.626c.254-.338.254-.338.423-.507.422-.338.676-.507 1.183-.929.084-.253.253-.084.59-.338.085-.084.254-.253.254-.338 0-.253-.084-.422-.253-.675-.085-.254-.338-.76-.338-.845 0-.845.084-1.098.253-1.858-.422-.085-1.013-.085-1.182.338-.254.337-.254.675-.254.929 0 .506.085.929.254 1.605a8.568 8.568 0 01-1.098.76c0 .675.169 1.858.169 1.858zm16.81 14.106c-.423-.676-.592-1.267-.592-1.436-.253-.254.254-.93-.338-.93a16.741 16.741 0 01-.844-.337 3.2 3.2 0 000 1.267c0 .338.507 1.267.76 1.436.084.084.676.084.76.084.169-.084.254-.084.254-.084zm-3.38-3.97c.254-.253.423-.676.423-.76.254-.423.254-.93.254-1.436-.845-.507-1.943-.676-3.041-.676-1.014 0-2.112.085-3.21.845.085.422.254.76.422 1.182.085 0 .254.254.338.254.254-.254.423-.507.76-.676v.422c0 .338 0 .507.085.845 0 .338.338.338.76.338s.591-.76.591-.845c0 0 .085.422.76.76 0 0 .76 0 .76-.084.085-.507.254-.676.085-1.098 0 .084.676.507 1.014.929zm4.309 7.01c.422.338 1.351.254 2.111.085-.422-.338-.591-.507-.76-.76-.338-.254-.507-.338-1.014-.76h-1.435c.169.59.253.929 1.098 1.436zm6.419 3.97a1.813 1.813 0 00-.591-.337v.422c0 .422.084.507.084.76 0 .254.338 1.69.338 2.112.591.084.591.507.845.76 0 0-.254-1.267-.254-2.872.17-.084-.169-.76-.422-.845zm-23.482-19.173c.085-.085 1.352-.93 1.436-1.098.254-.254.338-.085.423-.338 0-.676.253-.676.084-.845-.084-.253-1.013 0-1.182 0-.592.085-1.52.422-1.52.676-.085.338-.085 1.098-.085 1.182.084.338.084.676.253.93.254-.254.338-.338.591-.507zm12.755 10.136c-.338.253-.507.337-.507.506 0 .423.085.845.085 1.098 0 .338 0 .507.084.676.338.085.422.085.845.338 0 .085.422.338.422.338s-.253-.93-.338-1.436v-1.69c-.422.085-.507.17-.591.17zm-1.436.253c-.422.084-1.352.253-1.352.507-.084.338 0 .676 0 .844.085.254.085.423.085.76 0 .254-.085.423 0 .76.084-.253.676-.421.76-.675.254-.338.422-.507.591-.845.085-.337 0-.844-.084-1.351zm4.308 5.913c-.338-.254-.845-.845-1.183-1.183-.253-.253-.084-.507-.338-.76-.253 0-.422 0-.675.084-.338 0-.592 0-.845.085.084.253.084.422.338.507.422.422.422.506.844 1.182.085.254.676.338 1.099.338.168 0 .59-.169.76-.253zm-17.062-12.163c.253-.338.844-.93 1.182-1.436.253-.254.676-.76 1.774-1.267.084-.423.253-.76.253-1.183-1.098.338-1.858.507-2.111.76-.592.338-.76.507-1.352.845 0 .676 0 .676.085.93l.169 1.35zm10.558 9.122c.338-.338 0-.845 0-1.183-.085-.338 0-.675-.085-.929-.084-.253-.338-.338-.59-.338-.254 0-.761-.338-.761-.084-.591 0-.085.507-.085.845 0 .422 1.098 1.52 1.098 1.52.17.084.17-.085.423.169zm-3.041-1.69c.085-.422.422-.675.422-1.435 0 0-.084-.507-.253-.76-.084-.254-.253-.423-.591-.676-.085 0-.338-.254-.423-.085 0 0-.084.845-.253.93.253.337.422.506.507.844.338.422.422.845.591 1.183zm-2.28-3.378c-.085-.253-.423-.338-.676-.422-.254 0-.423.422-.423.844 0 .254.085.93.254 1.267 0 .085.253.254.422.338.338.253.676.338 1.014.507 0 0-.338-.93-.423-1.52-.169-.254.085-.676-.169-1.014zm9.798 11.656c.084 0 .253-.253.253-.253-.085-.423-.253-.93-.338-1.436 0 0-.338-.253-.676-.253-.253 0-.422-.085-.675 0 .084.337.084.506.253.844.338.507.76.76 1.183 1.098zm-14.951-15.288v.507c0 .253.085 1.436.085 1.689.084.338.084.676.253.93.084.253.253.421.253.675 0 0 .254-.085.338-.338.338-.338.422-.676.676-1.098-.085-.76-.338-1.436-.338-1.605 0-.845.084-1.098.253-1.605-.506.254-1.098.591-1.52.845zm10.812 12.332c.338-.085.591-.338.844-.422.254-.085.423-1.859.423-1.859s-.676.085-.76.254c-.085 0-.592 0-.76.253 0 .338 0 .676-.085 1.098-.254.338-.76.507-.76 1.098 0 0 .422.085.59.085l.508-.507zm11.825 10.812c-.253.422-.422.844-.422 1.098h1.182c.338-.423.422-.845.254-1.52-.338.084-1.014-.254-1.014.422zm.93-4.984c-.254-.084-2.282-1.098-2.62-1.098-.675.084-1.773.084-2.449.422-.084-.338-.253-.844 0-1.182.085-.254 1.183-.254 1.52-.254 1.183.085 1.859.338 2.197.338.337.338.675.338.76.338 0 0-.085-.676-.254-.845-.422-.253-.844-.337-1.182-.422-.591-.253-.76-.338-1.69-.422-.337 0-.337.084-1.013.084 0-.084.084-.253.253-.338.254-.337.423-.506.676-.76h1.774c.422.085.676.254 1.182.423.338 0 0-.507 0-.845-.084-.085-.253-.253-.422-.338-.422-.084-.76-.253-1.182-.422-.338-.085-1.014-.338-1.52-.254-.592.254-.592.085-1.014.338-.507.76-.845 1.605-1.183 2.45 0 .253-.591 1.52-.591 1.689 0 .084-.085.338-.085.338-.422-.085-2.45-.422-2.956.084-.253.254-.422.423-.76 1.098-.423-.337-.76-.422-1.183-.422-.591 0-1.182.338-1.52.845 0 .084-.845 1.689-.76 3.21.084.844.422 1.182.844 1.858h1.183c-.085-.423-.338-.93-.591-1.605-.085-.507.084-1.52.253-2.365 0 0 .338-.254.676-.338.253-.253.338-.085.675-.085.085 0 .085.085.085.085-.422.422-.422.845-.591 1.52 0 .338.422 1.943.844 2.788h.845s-.253-2.112-.084-2.365c0-.423.084-.76.253-1.098.253.084.422.084.676.253.338.253.338.422.338.76 0 .507 0 .676-.085.93v.506c0 .507.085.93.085.93h.844c0-.93.085-.845.254-1.437.084-.422 0-.675.084-.929 0-.253.085-.422.253-.507.338-.253.592-.253 1.014-.084 0 .338 0 .676-.084.929a11.252 11.252 0 01-.423 1.605c0 .084-.084.338-.253.422h1.351s.254-.422.338-.929c.338.338.76.085 1.014.085.338-.085.591-.423.76-.676-.422-.338-1.436-.254-1.436-.676-.253-.76 0-.845 0-1.267 0-.676-.676-.845-1.351-.929-.254-.084-.676-.084-.845-.084-.253.084-.422.422-.676.422 0 0-.422-.338-.76-.422-.253 0-.845-.254-.845-.254.085-.253.254-.422.338-.507.085-.084.423-.422.591-.422.254-.084.592 0 .76.084.507.085 1.014.254 1.099.254.084 0 .422.253.422.253.338-.253.338-.422.507-.422.676-.253.844-.338 1.52-.338.591 0 1.014.93 1.352 1.267.084.253.844 1.183 1.351 2.027.254-.084.338-.338.591-.338 0-.253-.084-1.098-.253-1.182-.338-.93-1.014-1.183-1.014-1.436.254 0 .676.253.845.253.253.085.591.254.845.423.084.084.338.253.422.338.085.422.085.76.338 1.182 0 .085 0 .253.084.338.338-.676.676-.76.845-1.267-.169-.845-.76-1.267-1.267-1.605zm-14.022-8.531c0-.084-.338-.084-.592-.084-.253 0-.422.084-.675.084-.254.338-.338.676-.423 1.098-.084.338-.337.507-.422.76 0 0 1.014-.253 1.183-.253.337-.254.59-.338.76-.76.169-.254.338-.338.169-.845zm-8.531-3.717s.337-.253.337-.422c.592-.676 1.183-1.182 1.352-1.267-.253-.507-.338-.676-.676-.929-.084.085-.676.422-.76.676-.253.084-.422.253-.591.338 0 .253.084.338.253.506-.084.085.085.676.085 1.098zm11.403 10.22c-.085-.084-.085-.337-.254-.506-.253-.676-.084-.929-.253-1.605h-.845c-.253.085-.338 0-.591.085 0 .422.084.76.422 1.267.422.675 1.52.76 1.52.76zm-5.913-7.854h-.676s-.253.844-.253 1.52c-.085.338-.254.507-.254.676-.253.422-.337.506-.506 1.098.337.084.675-.085.844-.085.254-.084.592-.253.676-.338.084-.084.422-.844.591-1.098v-.76c-.084-.253 0-.676 0-.929-.084-.338-.338-.169-.422-.084zm-4.223-.507c.253-.338.844-.93 1.098-1.183-.254-.253-.338-.507-.423-.76-.422 0-2.111.676-2.111.676.338.507.591 1.098.76 1.69.253-.17.507-.254.676-.423zm1.351 2.45c.085-.339 0-.508.085-.845 0-.254 0-.76.084-1.098-.253-.085-.676.084-1.014.084-.337 0-1.098 0-1.098.084.085.254.085.423.254.676.084.254.253.423.253.93 0 .337.085.675 0 1.097 0 0 1.436-.76 1.436-.929zm2.534 2.956c-.591-.423-1.436-.845-2.787-1.267-.338-.085-1.098 0-1.436 0-.845 1.52-1.183 2.871-1.858 4.476-.085.338-.338.93-.338.93a3.046 3.046 0 00-1.69-.507c-.844 0-1.52.337-1.858 1.182-.338-.084-.76-.338-1.351-.253-.76.084-1.436.507-1.774 1.182-.338.423-.423.845-.338 1.267-.591.254-.845.76-1.098 1.183-.253.844.591 2.365.845 2.703h1.098c-.254-.93-.676-1.436-.338-2.365.253-.507 1.013-.76 1.182-.845 0-.422-.591-.76-.422-1.183.253-.506.845-.506 1.52-.422-.084.676-.253 1.52-.338 2.365-.084.93.423 2.45.423 2.45H113.522c-.084-.338-.253-.676-.253-.93-.085-.337-.085-.506-.085-.844.085-.422.085-.845.085-1.183 1.098-.506.76.254 1.014.423 0 0 .422-.93-.085-1.436-.084-.085-.76 0-.76-.085 0-.084.084-.422.253-.76.254-.422.338-.507.592-.845.084-.084.422-.084.844 0 .085 0 .676.085 1.014.254-.085.338-.591.929-.676 1.267-.422 1.267-.422 2.787-.338 4.223h1.183c0-.76-.085-1.605 0-2.365.253-.929.507-1.098.675-1.098.254 0 .423.253.592.422.253 1.098-.423 2.028-.423 3.041H118s.338-.084.422-.422c.254-.676.676-1.267.76-1.943.085-.507-.084-.929-.422-1.605-.338-.422-.676-.76-1.436-1.267-.253-.422 0-.929 0-.929 0 .085.423-.084.676-.084.845.253 1.098.253 1.52.422.338.084.76.338 1.098.507.338.253.676.844 1.014 1.605 0 0 .253-1.436.253-1.859-.422-.422-.844-.844-1.52-1.182-.591-.422-1.774-.76-2.28-.93 0 0 .253-.337.253-.506.676-.085 1.436-.085 1.774 0 1.098.338 2.45.93 2.956 1.436 0 0 .253-.422.253-.676 0 0-1.52-.929-1.436-1.267-.422-.338-.76-.676-1.182-.76-.676-.085-1.943-.253-1.943-.253s.338-.423.676-.76h.845c.422 0 1.52.337 2.196.675 1.013.422 1.52.76 1.689.93.085-.339.253-.761.338-.93-1.267-.507-1.183-.929-1.605-1.182zm-2.027 8.869c-.76 0-.591 1.182-.76 1.689-.085.084-.254.338-.085.422h1.69s.084-.929.084-1.182c-.084-.17-.422-.76-.93-.93z"/></g></svg>