<svg width="98" height="80" xmlns="http://www.w3.org/2000/svg"><g fill-rule="nonzero" fill="none"><path d="M29.643 77.776v-5.091a3.035 3.035 0 00-.853-2.328 2.953 2.953 0 00-2.288-.888 3.087 3.087 0 00-2.814 1.442 2.93 2.93 0 00-2.647-1.442 2.637 2.637 0 00-2.346 1.205v-1.001h-1.742v8.103h1.76v-4.489a1.908 1.908 0 01.475-1.548c.38-.418.924-.64 1.484-.607 1.156 0 1.742.764 1.742 2.138v4.506h1.76v-4.489a1.925 1.925 0 01.482-1.542c.378-.416.92-.64 1.477-.613 1.19 0 1.76.764 1.76 2.138v4.506h1.75zm9.8-4.048v-4.047h-1.76v.984a3.017 3.017 0 00-2.512-1.188c-2.313 0-4.188 1.9-4.188 4.243 0 2.343 1.875 4.242 4.188 4.242a3.017 3.017 0 002.513-1.188v.985h1.742l.017-4.03zm-6.475 0c.078-1.331 1.192-2.356 2.507-2.306 1.316.05 2.351 1.157 2.33 2.49-.021 1.334-1.091 2.406-2.408 2.413a2.38 2.38 0 01-1.789-.751 2.445 2.445 0 01-.657-1.846h.017zm43.698-4.242a4.456 4.456 0 011.675.322c.51.207.973.512 1.366.9.387.384.695.842.904 1.349a4.551 4.551 0 010 3.394c-.209.506-.517.965-.904 1.349a4.183 4.183 0 01-1.366.9 4.684 4.684 0 01-3.434 0 4.133 4.133 0 01-1.357-.9 4.144 4.144 0 01-.896-1.35 4.56 4.56 0 010-3.393c.208-.505.512-.964.896-1.35.39-.387.85-.692 1.357-.899a4.457 4.457 0 011.742-.348l.017.026zm0 1.697a2.567 2.567 0 00-.997.187c-.298.12-.569.303-.795.534a2.49 2.49 0 00-.528.849 2.98 2.98 0 000 2.104c.117.316.297.605.528.848.226.232.497.414.795.535a2.69 2.69 0 001.986 0c.312-.117.598-.3.837-.535.232-.243.411-.532.528-.848a2.98 2.98 0 000-2.104 2.465 2.465 0 00-.528-.849 2.392 2.392 0 00-.837-.534 2.57 2.57 0 00-1.006-.238l.017.05zm-27.758 2.545c0-2.545-1.558-4.242-3.794-4.242-2.313.033-4.162 1.959-4.13 4.302.032 2.343 1.934 4.216 4.247 4.183a4.819 4.819 0 003.275-1.137l-.838-1.307a3.781 3.781 0 01-2.328.849c-1.198.104-2.26-.776-2.396-1.986h5.939c.025-.212.025-.424.025-.662zm-5.956-.712a2.071 2.071 0 012.103-1.96 1.971 1.971 0 011.416.558c.38.37.6.877.61 1.41l-4.129-.008zm13.285-1.273a5.101 5.101 0 00-2.513-.696c-.955 0-1.524.356-1.524.95s.603.696 1.357.798l.837.119c1.742.254 2.798 1.001 2.798 2.426 0 1.426-1.34 2.648-3.644 2.648a5.719 5.719 0 01-3.46-1.052l.838-1.375a4.226 4.226 0 002.664.849c1.19 0 1.826-.357 1.826-.985 0-.458-.452-.712-1.407-.848l-.838-.119c-1.792-.255-2.764-1.07-2.764-2.393 0-1.612 1.307-2.596 3.35-2.596a5.92 5.92 0 013.259.848l-.78 1.426zm8.376-.458h-2.84v3.657c0 .848.285 1.357 1.156 1.357a3.186 3.186 0 001.542-.458l.502 1.51a4.049 4.049 0 01-2.178.628c-2.06 0-2.78-1.12-2.78-3.003v-3.691H58.39v-1.612h1.625v-2.461h1.759v2.46h2.839v1.613zm6.022-1.816c.423.002.842.076 1.24.22l-.536 1.698a2.8 2.8 0 00-1.089-.204c-1.14 0-1.675.747-1.675 2.087v4.54h-1.742v-8.103h1.725v.984a2.356 2.356 0 012.11-1.188l-.033-.034zm12.045 7.127a.828.828 0 01.318.06c.097.04.185.097.26.17a.798.798 0 010 1.137.836.836 0 01-.26.169.779.779 0 01-.318.068.837.837 0 01-.754-.492.807.807 0 010-.628.849.849 0 01.176-.255.828.828 0 01.536-.23l.042.001zm0 1.434a.588.588 0 00.436-.187.633.633 0 00-.193-1.018.597.597 0 00-.486 0 .611.611 0 00-.2.136.634.634 0 000 .849c.116.12.276.187.443.186v.034zm.05-1.01a.332.332 0 01.218.068c.052.044.08.11.076.179a.205.205 0 01-.059.152.291.291 0 01-.176.077l.243.28h-.193l-.226-.28h-.075v.28h-.16v-.781l.352.025zm-.184.145v.203h.184c.033.01.068.01.1 0a.086.086 0 000-.076.086.086 0 000-.076.174.174 0 00-.1 0l-.184-.051z" fill="#FFF"/><path fill="#7673C0" d="M35.716 7.852H62.1v48.033H35.716z"/><path d="M37.39 31.873c-.01-9.375 4.238-18.233 11.518-24.021C36.545-1.99 18.79-.557 8.123 11.145c-10.668 11.702-10.668 29.744 0 41.446 10.667 11.702 28.422 13.136 40.785 3.294-7.278-5.786-11.525-14.64-11.517-24.012z" fill="#EB001B"/><path d="M94.817 51.05v-1.155h.394v-.248h-.997v.248h.394v1.196l.21-.041zm1.935 0v-1.444h-.302l-.351 1.031-.352-1.031h-.31v1.444h.218v-1.083l.326.938h.227l.326-.938v1.093l.218-.01zM97.69 31.873c-.003 11.691-6.594 22.356-16.975 27.466-10.381 5.11-22.731 3.769-31.807-3.454 7.274-5.791 11.521-14.645 11.521-24.017S56.182 13.643 48.908 7.852C57.984.624 70.338-.72 80.722 4.39 91.106 9.5 97.698 20.17 97.698 31.864l-.008.009z" fill="#00A1DF"/></g></svg>