<svg width="190" height="80" xmlns="http://www.w3.org/2000/svg"><path d="M121.272 25.553c.442 0 .719.276.885.608l5.419 12.056h.055l5.364-12.056c.277-.553.609-.608 1.272-.608h4.258c.885 0 1.328.664.885 1.382L127.465 53.48c-.11.332-.442.664-.884.664h-4.59c-.774 0-1.272-.664-.885-1.438l3.152-7.3-8.682-18.47c-.332-.663.11-1.382.885-1.382zm31.41-.553c6.194 0 11.226 5.032 11.226 11.226 0 6.193-5.032 11.226-11.226 11.226-6.194 0-11.226-5.033-11.226-11.226 0-6.194 5.032-11.226 11.226-11.226zm-48.885 0c6.415 0 9.954 5.088 9.954 10.894 0 .387-.055 1.05-.11 1.438a1.013 1.013 0 01-.996.885H98.986c.166 2.156 1.714 3.705 4.811 3.705 1.991 0 3.484-.387 4.756-1.051.498-.277 1.161-.166 1.493.332l1.548 2.212c.332.497.277 1.161-.165 1.548-1.77 1.493-4.203 2.489-7.576 2.489-6.415 0-10.95-5.088-10.95-11.226 0-6.028 4.535-11.226 10.894-11.226zm-52.59 0c6.194 0 11.226 5.032 11.226 11.226 0 6.193-5.032 11.226-11.226 11.226-6.193 0-11.225-5.033-11.225-11.226C39.982 30.032 45.014 25 51.207 25zm122.489.553a.99.99 0 01.995.995v10.507c0 2.82 1.493 4.59 3.927 4.59 2.211 0 3.926-2.046 4.258-3.981V26.548c0-.774.331-.995 1.16-.995h4.038c.497 0 .995.387 1.106.94v19.355a.991.991 0 01-.996.995h-2.488c-.443 0-.719-.276-.94-.608 0 0-.443-.83-.83-1.382l-.117.104c-1.128.996-3.1 2.44-6.463 2.44-6.636 0-9.014-5.033-9.014-10.508V26.55c0-.554.442-.996.995-.996zM79.023 25c6.802 0 9.512 5.088 9.401 10.618v10.23c0 .498-.442.995-.995.995h-4.37a.991.991 0 01-.994-.995V35.286c0-2.765-1.438-4.535-3.982-4.535-2.71 0-4.424 1.825-4.977 3.263v11.89c0 .497-.442.995-.995.995h-4.314c-.497 0-.995-.443-.995-.996V26.548c0-.553.442-.995.995-.995h2.489c.442 0 .719.276.94.608 0 0 .442.83.83 1.383v.055c1.16-.995 3.538-2.599 6.967-2.599zm-52.7 0c6.801 0 9.345 5.088 9.124 10.673v10.175a.99.99 0 01-.995.995h-4.314a.991.991 0 01-.995-.995V35.286c0-2.765-1.327-4.535-3.982-4.535-3.096 0-4.479 2.267-4.479 2.267s.055 1.106.055 2.047v10.783c0 .498-.442.995-.995.995H15.76a.991.991 0 01-.995-.995V35.286c0-2.765-1.272-4.535-3.982-4.535-2.654 0-3.926 1.936-4.479 3.373v11.78c0 .497-.442.995-.995.995H.995c-.497 0-.995-.443-.995-.996V26.548c0-.553.442-.995.995-.995h2.489c.442 0 .719.276.94.608 0 0 .442.83.83 1.383C6.47 26.494 8.681 25 11.833 25c3.042 0 5.198 1.161 6.968 3.318.885-.94 3.65-3.318 7.52-3.318zm126.359 5.972c-2.876 0-5.253 2.378-5.253 5.254 0 2.875 2.377 5.253 5.253 5.253 2.876 0 5.253-2.378 5.253-5.253 0-2.876-2.377-5.254-5.253-5.254zm-101.475 0c-2.875 0-5.253 2.378-5.253 5.254 0 2.875 2.378 5.253 5.253 5.253a5.251 5.251 0 005.254-5.253c0-2.876-2.378-5.254-5.254-5.254zm52.369-1.05c-2.101 0-3.87 1.603-4.147 3.65h8.073c-.166-1.991-1.88-3.65-3.926-3.65z" fill="#D40D47" fill-rule="nonzero"/></svg>