<svg width="96" height="80" xmlns="http://www.w3.org/2000/svg"><defs><linearGradient x1="-57.527%" y1="50.124%" x2="232.391%" y2="50.124%" id="a"><stop stop-color="#007940" offset="0%"/><stop stop-color="#00873F" offset="22.85%"/><stop stop-color="#40A737" offset="74.33%"/><stop stop-color="#5CB531" offset="100%"/></linearGradient><linearGradient x1=".183%" y1="49.96%" x2="100.273%" y2="49.96%" id="b"><stop stop-color="#007940" offset="0%"/><stop stop-color="#00873F" offset="22.85%"/><stop stop-color="#40A737" offset="74.33%"/><stop stop-color="#5CB531" offset="100%"/></linearGradient><linearGradient x1="-62.802%" y1="49.858%" x2="253.671%" y2="49.858%" id="c"><stop stop-color="#007940" offset="0%"/><stop stop-color="#00873F" offset="22.85%"/><stop stop-color="#40A737" offset="74.33%"/><stop stop-color="#5CB531" offset="100%"/></linearGradient><linearGradient x1=".176%" y1="50.006%" x2="101.808%" y2="50.006%" id="d"><stop stop-color="#1F286F" offset="0%"/><stop stop-color="#004E94" offset="47.51%"/><stop stop-color="#0066B1" offset="82.61%"/><stop stop-color="#006FBC" offset="100%"/></linearGradient><linearGradient x1="-.576%" y1="49.914%" x2="98.133%" y2="49.914%" id="e"><stop stop-color="#6C2C2F" offset="0%"/><stop stop-color="#882730" offset="17.35%"/><stop stop-color="#BE1833" offset="57.31%"/><stop stop-color="#DC0436" offset="85.85%"/><stop stop-color="#E60039" offset="100%"/></linearGradient></defs><g fill-rule="nonzero" fill="none"><path d="M96 61.832c0 8.215-6.69 14.904-14.905 14.904H0V17.705C0 9.489 6.69 2.8 14.905 2.8H96v59.032z" fill="#FFF"/><path d="M5.281 39.022h6.162c.176 0 .586-.059.762-.059 1.174-.234 2.172-1.29 2.172-2.758 0-1.408-.998-2.464-2.172-2.758-.176-.058-.528-.058-.762-.058H5.28v5.633z" fill="url(#a)" transform="translate(64.313 7.67)"/><path d="M10.738.117C4.87.117.058 4.87.058 10.797v11.09H15.14c.352 0 .763 0 1.057.06 3.403.175 5.926 1.936 5.926 4.987 0 2.406-1.701 4.46-4.87 4.87v.118c3.462.234 6.103 2.17 6.103 5.164 0 3.227-2.934 5.34-6.807 5.34H0v21.71h15.667c5.868 0 10.68-4.752 10.68-10.679V.117H10.738z" fill="url(#b)" transform="translate(64.313 7.67)"/><path d="M13.614 27.638c0-1.408-.998-2.347-2.171-2.523-.118 0-.411-.059-.587-.059H5.28v5.164h5.575c.176 0 .528 0 .587-.059 1.173-.176 2.17-1.115 2.17-2.523z" fill="url(#c)" transform="translate(64.313 7.67)"/><path d="M16.02 4.988c-5.868 0-10.68 4.753-10.68 10.68v26.347c2.993 1.467 6.103 2.406 9.213 2.406 3.696 0 5.691-2.23 5.691-5.282V26.7H29.4v12.382c0 4.811-2.993 8.743-13.145 8.743-6.161 0-10.973-1.35-10.973-1.35V68.95H20.95c5.868 0 10.68-4.753 10.68-10.68V4.988h-15.61z" fill="url(#d)" transform="translate(0 2.8)"/><path d="M45.535 4.988c-5.868 0-10.68 4.753-10.68 10.68v13.965c2.7-2.288 7.394-3.755 14.964-3.403 4.049.176 8.391 1.29 8.391 1.29v4.52c-2.17-1.116-4.753-2.113-8.098-2.348-5.75-.41-9.212 2.406-9.212 7.335 0 4.988 3.462 7.804 9.212 7.335 3.345-.235 5.927-1.291 8.098-2.347v4.518s-4.283 1.115-8.39 1.291c-7.57.352-12.265-1.115-14.964-3.403v24.645h15.667c5.868 0 10.68-4.753 10.68-10.68V4.988H45.535z" fill="url(#e)" transform="translate(0 2.8)"/></g></svg>