<svg width="98" height="80" xmlns="http://www.w3.org/2000/svg"><g fill-rule="nonzero" fill="none"><path d="M17.883 76.813V71.87a2.907 2.907 0 00-.855-2.266 3.009 3.009 0 00-2.294-.865 3.115 3.115 0 00-2.815 1.4 2.952 2.952 0 00-2.647-1.4 2.66 2.66 0 00-2.345 1.17v-.973H5.185v7.878h1.759V72.48c-.076-.546.1-1.096.479-1.5.379-.406.922-.623 1.48-.593 1.157 0 1.743.741 1.743 2.076v4.384h1.759V72.48a1.835 1.835 0 01.482-1.498 1.9 1.9 0 011.478-.595c1.19 0 1.759.741 1.759 2.076v4.384l1.759-.033zm26.024-7.878h-2.864v-2.39h-1.76v2.39h-1.59v1.566h1.624v3.626c0 1.83.72 2.917 2.781 2.917a4.138 4.138 0 002.178-.61l-.503-1.467a3.255 3.255 0 01-1.54.445c-.838 0-1.157-.527-1.157-1.318v-3.593h2.848l-.017-1.566zm14.86-.197a2.37 2.37 0 00-2.111 1.153v-.956H54.93v7.878h1.742v-4.417c0-1.302.57-2.027 1.676-2.027a2.88 2.88 0 011.089.198l.536-1.648a3.782 3.782 0 00-1.24-.214l.033.033zm-22.465.824a6.066 6.066 0 00-3.267-.824c-2.027 0-3.35.955-3.35 2.521 0 1.286.971 2.077 2.764 2.324l.837.115c.955.132 1.408.38 1.408.824 0 .61-.637.956-1.826.956a4.312 4.312 0 01-2.664-.824l-.838 1.335a5.847 5.847 0 003.468 1.022c2.312 0 3.652-1.071 3.652-2.57 0-1.5-1.055-2.11-2.797-2.358l-.838-.115c-.754-.099-1.357-.247-1.357-.775 0-.527.57-.923 1.524-.923.883.01 1.748.243 2.513.676l.77-1.384zm46.663-.824a2.37 2.37 0 00-2.11 1.153v-.956h-1.726v7.878h1.742v-4.417c0-1.302.57-2.027 1.675-2.027a2.88 2.88 0 011.089.198l.536-1.648a3.782 3.782 0 00-1.24-.214l.034.033zm-22.448 4.12a3.947 3.947 0 001.21 2.989 4.083 4.083 0 003.062 1.131 4.233 4.233 0 002.881-.94l-.837-1.384c-.603.452-1.337.7-2.094.709-1.336-.106-2.364-1.203-2.364-2.522 0-1.318 1.028-2.415 2.364-2.521a3.555 3.555 0 012.094.708l.837-1.384a4.233 4.233 0 00-2.881-.94 4.083 4.083 0 00-3.061 1.132 3.947 3.947 0 00-1.21 2.989v.033zm16.317 0v-3.923H75.09v.956a3.06 3.06 0 00-2.512-1.153c-2.313 0-4.188 1.844-4.188 4.12 0 2.275 1.875 4.12 4.188 4.12a3.06 3.06 0 002.512-1.153v.955h1.743v-3.922zm-6.483 0c.077-1.293 1.191-2.288 2.507-2.24 1.316.049 2.35 1.123 2.33 2.418-.022 1.296-1.092 2.337-2.408 2.344a2.423 2.423 0 01-1.776-.738 2.343 2.343 0 01-.653-1.784zm-21.024-4.12c-2.313.031-4.162 1.902-4.13 4.178.033 2.275 1.934 4.094 4.247 4.062a4.92 4.92 0 003.325-1.071l-.837-1.27a3.85 3.85 0 01-2.329.825c-1.197.101-2.26-.754-2.395-1.928h5.947v-.66c0-2.472-1.558-4.12-3.803-4.12l-.025-.016zm0 1.532a2.003 2.003 0 011.416.543c.38.359.6.851.61 1.37h-4.187c.063-1.101 1.008-1.95 2.127-1.913h.034zm43.647 2.604v-7.103H91.3v4.12a3.06 3.06 0 00-2.513-1.153c-2.313 0-4.188 1.844-4.188 4.12 0 2.275 1.875 4.12 4.188 4.12a3.06 3.06 0 002.513-1.153v.955h1.675v-3.906zm2.907 2.794a.85.85 0 01.318.058.84.84 0 01.26.164.755.755 0 010 1.104.84.84 0 01-.26.166.798.798 0 01-.318.065.838.838 0 01-.754-.478.763.763 0 010-.61.824.824 0 01.176-.247.84.84 0 01.603-.222h-.025zm0 1.393a.603.603 0 00.435-.182.603.603 0 000-.824.62.62 0 00-.435-.181.637.637 0 00-.444.181.603.603 0 000 .824.62.62 0 00.2.132.629.629 0 00.269.05h-.025zm.05-.981a.339.339 0 01.218.066c.052.042.08.107.075.173a.196.196 0 01-.058.148.296.296 0 01-.176.074l.243.272h-.193l-.226-.272h-.076v.272h-.159v-.725l.352-.008zm-.184.14v.198h.184c.033.01.068.01.1 0a.081.081 0 000-.074.081.081 0 000-.074.179.179 0 00-.1 0l-.184-.05zm-9.214-3.346c.078-1.293 1.192-2.288 2.507-2.24 1.316.05 2.351 1.124 2.33 2.419-.021 1.295-1.091 2.336-2.408 2.343a2.423 2.423 0 01-1.775-.738 2.343 2.343 0 01-.654-1.784zm-58.825 0v-3.939h-1.742v.956a3.06 3.06 0 00-2.513-1.153c-2.313 0-4.188 1.844-4.188 4.12 0 2.275 1.875 4.12 4.188 4.12a3.06 3.06 0 002.513-1.153v.955h1.742v-3.906zm-6.483 0c.077-1.293 1.191-2.288 2.507-2.24 1.316.05 2.351 1.124 2.33 2.419-.021 1.295-1.091 2.336-2.408 2.343a2.424 2.424 0 01-1.786-.732 2.343 2.343 0 01-.66-1.79h.017z" fill="#231F20"/><path fill="#FF5F00" d="M35.724 8.902h26.385v46.65H35.724z"/><path d="M37.4 32.232c-.01-9.105 4.236-17.708 11.516-23.33C36.553-.657 18.8.736 8.131 12.101a29.315 29.315 0 000 40.253c10.668 11.365 28.422 12.758 40.785 3.199-7.277-5.62-11.524-14.22-11.517-23.321z" fill="#EB001B"/><path d="M97.707 32.232c0 11.358-6.593 21.72-16.977 26.683-10.384 4.963-22.738 3.658-31.814-3.362 7.275-5.625 11.522-14.223 11.522-23.326 0-9.102-4.247-17.7-11.522-23.325C57.992 1.882 70.346.577 80.73 5.54c10.384 4.964 16.977 15.325 16.977 26.683v.009zM94.825 50.695v-1.028h.394v-.213h-.997v.213h.428v1.028h.175zm1.935 0v-1.24h-.301l-.352.885-.352-.886h-.268v1.24h.218v-.93l.327.807h.226l.326-.807v.94l.176-.01z" fill="#F79E1B"/></g></svg>