<svg width="140" height="80" xmlns="http://www.w3.org/2000/svg"><path d="M123.908 56.223l-.183-.001-.312-.007-.302-.012-.326-.019-.18-.013-.3-.027-.367-.04-.313-.041-.377-.058-.22-.038-.462-.09-.308-.068-.458-.113-.316-.087-.225-.065-.08-.025c-6.577-2.01-11.363-8.103-11.363-15.299 0-7.114 4.679-13.15 11.142-15.23l.302-.093.271-.079.365-.097.392-.095.415-.09.35-.066.368-.061.303-.044.301-.038.292-.031.346-.03.303-.02.358-.017.276-.008c.102-.002.205-.003.308-.003l.325.004.272.007.248.011.345.022.34.028.391.042.392.05.352.055.34.06c.227.043.453.09.678.143l.351.086.424.116.31.092c.206.063.41.13.61.202l.402.148c.498.19.983.405 1.456.643l.375.195.273.149.038.022a16.01 16.01 0 011.622 1.048l.376.284.226.18.314-2.787H140V39.42h-.016c.008.265.016.532.016.8v28.804h-6.437V53.02c-.354.265-.72.515-1.095.751l-.058.035c-.375.234-.761.452-1.157.654l-.334.166-.26.123-.39.174-.33.137-.294.114-.35.13-.305.103-.175.057-.303.093-.2.058-.351.095c-.22.057-.443.11-.667.157l-.45.09-.297.051-.4.06-.147.02-.26.032-.143.015-.262.025-.365.028-.29.017-.427.014-.345.004zM6.437 11.417V27.42a16.056 16.056 0 014.893-2.49l.337-.099.258-.071.24-.062.283-.068c.203-.047.41-.09.616-.13l.212-.038.362-.06.364-.05.259-.032.404-.04.366-.028.286-.016.216-.01.184-.004c.125-.003.25-.005.375-.005l.247.002.273.007.29.011.19.01.302.022.34.03.31.035.385.051.335.052.32.057.258.05.262.056.285.066c.191.046.382.096.57.149l.362.106c5.934 1.814 10.41 6.95 11.228 13.222l.032.256a15.947 15.947 0 01.02 3.449l-.052.453c-.693 5.29-3.987 9.773-8.564 12.133l-.163.083c-.435.219-.882.418-1.339.597l-.06.022c-.18.071-.364.138-.548.202l-.341.113c-.25.081-.504.156-.76.224l-.435.11-.332.075-.252.052-.292.055-.384.064-.303.044-.3.038-.282.03-.33.03-.312.02-.365.018-.33.008-.265.003-.183-.001-.2-.004-.295-.01-.28-.013-.196-.013-.38-.031a16.17 16.17 0 01-.684-.08l-.236-.034-.212-.033-.344-.062-.333-.066-.45-.101-.369-.094-.263-.072a16.08 16.08 0 01-5.721-2.973l-.314 2.787H0V41.02h.024a13.203 13.203 0 01-.024-.8V11.416h6.437zm45.41 39.191l.204.01.181.004.267-.003.185-.007.229-.016.214-.02.118-.014.368-.057.206-.04.202-.046.15-.037.117-.032a7.45 7.45 0 00.345-.105l.241-.084.238-.093a8.038 8.038 0 002.97-2.13l.13-.152.23-.283.066-.086A9.186 9.186 0 0060.273 43l.024-.213.019-.214.014-.21.011-.27c.003-.09.004-.182.004-.273V25.018h6.437v16.803a14.542 14.542 0 01-.041 1.09l-.025.288-.025.244-.038.307-.052.347-.037.22c-.033.187-.07.373-.11.558l-.04.178-.061.256-.07.265c-.085.316-.181.627-.288.934l-.144.399-.054.138-.064.16-.132.314-.111.25c-.115.252-.238.5-.367.744l-.16.293a14.38 14.38 0 01-.986 1.528l-.255.335-.094.118c-.33.413-.684.808-1.059 1.182l-.344.334-.25.228-.265.232c-.133.113-.268.224-.405.332l-.297.229-.329.24-.215.15a14.389 14.389 0 01-2.637 1.42l-.322.128c-.266.103-.537.198-.81.285l-.24.074-.062.017c-.2.06-.402.114-.605.164l-.352.082-.347.07c-.202.04-.407.076-.612.107l-.255.036-.206.025-.214.024-.186.018-.327.025-.372.02-.379.012-.24.002-.266-.003-.165-.004-.29-.011-.367-.023-.322-.027-.334-.036-.367-.049-.342-.054-.323-.059-.138-.027-.221-.047-.281-.064-.285-.072-.422-.118-.259-.079-.37-.122-.136-.049c-.09-.03-.178-.064-.266-.097l-.084-.033c-.132-.05-.263-.103-.393-.158-5.198-2.187-8.85-7.308-8.85-13.27V25.018h6.436v16.803c0 2.428.901 4.629 2.357 6.222l.057.06c.106.115.216.226.328.334l.164.154.168.148.173.145.26.204.226.162.093.064.155.103c.126.08.254.158.384.23l.167.092.19.098.265.126.14.061a7.525 7.525 0 001.616.483c.279.05.563.084.85.101zM14.058 29.955l-.082.015-.18.033-.255.054-.13.03-.31.08-.164.047-.268.083-.209.07-.25.092-.12.046-.114.046-.152.065c-3.635 1.568-6.193 5.28-6.193 9.604 0 4.363 2.602 8.102 6.288 9.646.151.063.304.122.458.178l.172.06.32.102.175.052.168.045.24.06.136.031.243.05.272.05.239.035.138.018.237.027.132.011.247.02.283.012c.103.003.206.005.31.005l.25-.003.116-.004.28-.014.287-.023.156-.017.154-.018.32-.046c.156-.025.31-.054.462-.086l.324-.075.17-.044.137-.038.353-.106.203-.069a9.756 9.756 0 00.829-.332l.187-.087.229-.114.269-.143.11-.061a10.166 10.166 0 002.575-2.093l.203-.236.177-.217.144-.186.152-.209.165-.236a10.496 10.496 0 001.042-1.966l.074-.19.095-.26.066-.195c.053-.164.103-.33.15-.498l.073-.287.063-.271.05-.241v-.008l.015-.079.03-.166.04-.268.02-.135.025-.216.03-.339.02-.304-.002.013.01-.25.004-.285a10.919 10.919 0 00-.122-1.626l-.048-.287-.042-.218-.06-.276-.025-.108a10.587 10.587 0 00-.21-.75l-.026-.083a10.508 10.508 0 00-1.374-2.744l-.182-.251c-.096-.13-.195-.257-.298-.381l-.093-.112-.095-.111a10.147 10.147 0 00-3.365-2.544l-.189-.086-.208-.088-.28-.11-.293-.106-.188-.062-.208-.063-.356-.098-.245-.058-.131-.029-.204-.04-.174-.032-.338-.051-.166-.021-.269-.027-.357-.026-.214-.008a9.889 9.889 0 00-.297-.005l-.333.006a9.81 9.81 0 00-1.06.093l-.238.037zm73.229-.124l-.099.006-.213.017-.27.032-.149.021-.284.05.1-.018-.234.046-.23.054-.086.02-.165.046-.117.035a7.895 7.895 0 00-3.384 2.104l-.117.123-.074.082a8.589 8.589 0 00-.3.352l-.094.12c-1.195 1.536-1.917 3.526-1.917 5.7v16.802h-6.437V38.62c0-5.727 3.372-10.678 8.245-12.998l.215-.101.269-.12.166-.069c.695-.29 1.418-.529 2.164-.709l.483-.107.17-.034c.19-.037.382-.07.575-.1l.256-.036.296-.036.373-.037.286-.022.362-.02.333-.01c.097-.002.193-.003.29-.003l.39.006.31.011.25.014.117.008.316.026.398.043.3.04.378.06.312.056.14.028.34.073.33.08.273.072.258.073.366.113.222.074.295.104.384.147.253.104c.406.17.802.359 1.187.564l.043.024c2 1.072 3.719 2.6 5.015 4.443l.174.254a14.336 14.336 0 011.505 2.91l.138.38.086.255.125.404.08.283.043.163.05.2.07.302.096.47.032.18.047.294.048.345.02.177.041.413.02.272.014.226c.011.236.017.473.017.711v16.803h-6.437V38.62l-.007-.37-.01-.203.002.038a9.65 9.65 0 00-.256-1.736l-.08-.307-.06-.205-.078-.242-.074-.211a8.923 8.923 0 00-1.85-3.046l-.179-.186-.119-.118-.177-.167-.087-.079.015.014-.117-.103-.104-.088a8.13 8.13 0 00-.164-.133l-.187-.143-.117-.085-.073-.052-.178-.12-.188-.121-.268-.159a7.695 7.695 0 00-1.303-.584l-.283-.09-.174-.05-.21-.053-.228-.05-.185-.036-.206-.034a7.39 7.39 0 00-.428-.051l-.08-.008-.382-.02-.21-.003-.176.002-.238.01zm37.556.003l-.137-.007-.088-.003a9.902 9.902 0 00-.309-.005l-.25.003-.304.013-.18.012-.17.014-.283.03-.278.038-.15.024-.19.033-.117.023-.332.072-.09.023c-.16.04-.319.083-.476.13l-.284.09-.114.04-.218.079-.215.084-.157.065-.215.094-.205.095a10.151 10.151 0 00-3.005 2.215l-.12.13a10.57 10.57 0 00-2.704 7.094c0 2.583.912 4.947 2.42 6.766l.153.18c.13.151.266.298.405.44l.213.212.21.198a10.074 10.074 0 002.132 1.495l.296.149.236.11.228.098.245.098.3.111.316.104.187.057.173.048.2.051.216.051.238.05.262.048.401.059.2.023.122.012.246.02.242.013.17.006.246.003.309-.005.306-.014.2-.015.288-.028.29-.037.282-.045.243-.046.152-.03.23-.054.289-.074.267-.078.21-.068.178-.06.226-.082.21-.083.203-.085.145-.065.296-.14c.199-.098.394-.203.585-.314 2.416-1.402 4.219-3.807 4.877-6.668.094-.412.165-.833.21-1.261l.021-.213a10.813 10.813 0 00.028-1.464l-.016-.263-.027-.314-.025-.22a10.666 10.666 0 00-.176-1.017c-.686-3.08-2.697-5.638-5.375-7l-.286-.14-.184-.084-.195-.083-.226-.091-.299-.111-.13-.045-.387-.121-.163-.046-.116-.03-.226-.056-.303-.066-.218-.04-.137-.023-.152-.023-.247-.033-.263-.027-.11-.01-.25-.016z" fill="#FFF" fill-rule="evenodd"/></svg>