<svg xmlns="http://www.w3.org/2000/svg" width="102" height="80"><g fill="none" fill-rule="nonzero"><g fill="#000"><path d="M19.419 51.297c-.516-.267-2.479-1.14-6.07-1.14C5.365 50.158 0 55.516 0 63.49 0 71.32 4.95 76.38 12.61 76.38c3.225 0 5.643-.653 6.734-1.211a.354.354 0 0 0 .182-.4l-.628-2.565a.354.354 0 0 0-.497-.235c-1.268.612-3.232.992-5.126.992-5.743 0-9.172-3.582-9.172-9.582 0-6.068 3.585-9.838 9.357-9.838 2.466 0 4.082.62 4.826.99a.354.354 0 0 0 .495-.212l.812-2.603a.35.35 0 0 0-.174-.42M35.999 71.37v-6.635c0-3.456-1.24-7.575-7.147-7.575-2.209 0-4.486.595-6.094 1.592a.35.35 0 0 0-.148.415l.739 2.163a.354.354 0 0 0 .531.18c1.175-.79 2.853-1.26 4.495-1.26h.07c2.412 0 3.635 1.25 3.635 3.715v.014c-6.93.045-10.744 2.51-10.744 6.952 0 2.708 1.998 5.45 5.817 5.45 2.094 0 4.027-.825 5.307-2.236l.175 1.52c.021.178.172.312.351.312h2.9219999999999997a.353.353 0 0 0 .336-.464c-.16-1.084-.245-2.514-.245-4.142m-8.033 1.92c-1.674 0-2.674-1.019-2.674-2.726 0-2.42 2.251-3.648 6.691-3.648h.17v2.732c0 .221-.023.56-.128.911-.433 1.26-1.756 2.731-4.059 2.731M48.726 57.236l-.076-.01a6 6 0 0 0-.854-.066c-1.982 0-3.763 1.126-4.795 2.953l-.094-2.248a.353.353 0 0 0-.353-.339H39.71a.35.35 0 0 0-.353.377c.102 1.512.147 3.212.147 5.513v12.208c0 .195.158.353.353.353h3.25a.353.353 0 0 0 .353-.353v-9.459c0-.517.038-1.044.105-1.44.43-2.353 1.967-3.816 4.008-3.816.428 0 .737 0 1.032.066a.352.352 0 0 0 .43-.345v-3.043a.353.353 0 0 0-.31-.351M60.976 57.526h-4.298v-3.9a.354.354 0 0 0-.455-.338l-3.175.953a.35.35 0 0 0-.252.339v2.946h-2.415a.353.353 0 0 0-.354.353v2.456c0 .196.158.354.354.354h2.415v9.325c0 2.28.44 3.88 1.349 4.895.872.949 2.21 1.47 3.767 1.47 1.466 0 2.507-.287 2.997-.46a.354.354 0 0 0 .236-.354l-.148-2.456a.354.354 0 0 0-.456-.317c-.402.123-.858.205-1.78.205-1.48 0-2.083-.896-2.083-3.093v-9.215h4.298a.353.353 0 0 0 .354-.354V57.88a.353.353 0 0 0-.354-.353M77.88 71.37v-6.635c0-3.456-1.24-7.575-7.147-7.575-2.208 0-4.486.595-6.093 1.592a.35.35 0 0 0-.149.415l.739 2.163a.354.354 0 0 0 .531.18c1.175-.79 2.854-1.26 4.496-1.26h.07c2.411 0 3.634 1.25 3.634 3.715v.014c-6.93.045-10.744 2.51-10.744 6.952 0 2.708 1.998 5.45 5.818 5.45 2.093 0 4.026-.825 5.306-2.236l.175 1.52c.021.178.172.312.352.312h2.921a.353.353 0 0 0 .336-.464c-.16-1.084-.245-2.514-.245-4.142m-8.033 1.92c-1.674 0-2.674-1.019-2.674-2.726 0-2.42 2.251-3.648 6.691-3.648h.17v2.732c0 .221-.022.56-.128.911-.433 1.26-1.756 2.731-4.059 2.731M89.31 61.289c-3.573-1.374-4.72-2.451-4.72-4.436 0-1.667 1.34-3.35 4.335-3.35 2.487 0 4.076.859 4.504 1.121a.352.352 0 0 0 .52-.187l.886-2.603a.35.35 0 0 0-.157-.419c-.65-.378-2.5-1.258-5.642-1.258-4.947 0-8.402 2.904-8.402 7.062 0 3.307 2.226 5.718 6.802 7.37 3.25 1.206 4.459 2.438 4.459 4.545 0 2.383-1.86 3.863-4.853 3.863-1.96 0-3.977-.568-5.533-1.558a.353.353 0 0 0-.526.191l-.85 2.676c-.047.15.01.315.142.402 1.464.969 4.216 1.672 6.546 1.672 6.665 0 9.03-4.042 9.03-7.503 0-3.562-1.957-5.831-6.54-7.588M101.413 57.526h-3.25a.353.353 0 0 0-.352.354v17.743c0 .196.158.354.353.354h3.249a.353.353 0 0 0 .353-.354V57.88a.353.353 0 0 0-.353-.354M101.413 50.17h-3.25a.353.353 0 0 0-.352.353v3.154c0 .195.158.354.353.354h3.249a.353.353 0 0 0 .353-.354v-3.154a.353.353 0 0 0-.353-.354"/></g><path fill="#FFF" d="M59.963 25.102c3.07.154 13.592 2.394 13.592 10.849 0 8.75-15.543 11.721-23.443 11.721-5.61 0-19.108-1.488-23.193-10.474-.623-1.372.83-1.752 1.746-.624 4.863 5.985 27.682 9.228 27.682-.873v-6.484c0-3.366 1.122-4.24 3.616-4.115m-8.879-9.114c5.611 0 19.108 1.489 23.193 10.475.623 1.371-.829 1.752-1.746.623-4.863-5.985-27.682-9.227-27.682.873v6.484c0 3.367-1.122 4.24-3.616 4.115-3.069-.153-13.591-2.394-13.591-10.848 0-8.75 15.543-11.722 23.442-11.722m-.316-12.113c3.512 0 6.36 1.759 6.36 3.928s-2.848 3.928-6.36 3.928-6.36-1.759-6.36-3.928 2.848-3.928 6.36-3.928"/></g></svg>