<svg xmlns="http://www.w3.org/2000/svg" width="150" height="80"><path fill="#FFF" fill-rule="evenodd" d="m74.269 16.488-10.023 47.15H52.125l10.027-47.15zm50.994 30.444 6.382-17.705 3.673 17.705zm13.527 16.707H150l-9.784-47.151h-10.347c-2.326 0-4.29 1.36-5.159 3.457L106.523 63.64h12.725l2.527-7.045h15.55zm-31.638-15.396c.055-12.443-17.1-13.13-16.98-18.69.038-1.69 1.638-3.488 5.141-3.948 1.734-.23 6.522-.406 11.95 2.108l2.129-9.997c-2.918-1.067-6.67-2.091-11.34-2.091-11.98 0-20.413 6.41-20.478 15.586-.081 6.791 6.016 10.575 10.61 12.833 4.721 2.311 6.304 3.793 6.287 5.858-.035 3.166-3.767 4.562-7.255 4.616-6.093.095-9.632-1.657-12.447-2.98L72.573 61.87c2.83 1.309 8.058 2.45 13.477 2.505 12.734 0 21.064-6.327 21.102-16.132M56.95 16.488l-19.638 47.15H24.5l-9.663-37.63c-.589-2.317-1.096-3.166-2.88-4.14C9.043 20.273 4.232 18.781 0 17.855l.286-1.368H20.91c2.627 0 4.992 1.758 5.59 4.806l5.104 27.285 12.613-32.091z"/></svg>