<svg xmlns="http://www.w3.org/2000/svg" width="107" height="32"><path fill="#fff" stroke="#d0d0d0" stroke-linecap="round" stroke-linejoin="round" d="M.5.5h50v31H.5Z"/><path fill="#2c3341" d="M15.529 21.686a.77.77 0 0 1 .505.282c.064.079.112.162.154.256l.013.03c.043.104.081.225.123.381l.01.037c.029.117.185.76.243.967q.143.512.302.794.076.135.143.2a.3.3 0 0 0 .056.041c.096.03.123.027.149.012.046-.028.11-.099.199-.233l.015-.024.167-.266a2 2 0 0 1 .204-.275c.113-.126.239-.226.396-.292a.9.9 0 0 1 .589-.031c.118.032.227.082.343.151l.026.015.028.017c.051.031.104.067.168.111l.262.183.037.025.032.021c.453.299.714.352 1.009.182l.015-.009.015-.009a.688.688 0 0 1 .724 1.169l-.068.041a1.98 1.98 0 0 1-1.498.219c-.35-.086-.651-.24-1.01-.483l-.026-.017-.074-.052-.108-.075-.065.104-.022.034c-.197.302-.386.515-.654.674-.369.221-.801.264-1.262.12-.425-.132-.742-.442-.988-.877a4.5 4.5 0 0 1-.356-.857l-.009-.03-.037.094a8 8 0 0 1-.217.5l-.015.031a2.6 2.6 0 0 1-.236.403c-.137.186-.289.323-.508.393-.282.091-.531.024-.759-.12a2 2 0 0 1-.366-.314 7 7 0 0 1-.6-.761l-.019-.028q-.09-.127-.187-.271l-.054-.082-.144-.217-.342-.526-.051-.077-.041-.062-.059-.085-.012-.017-.001-.001a.68.68 0 0 1-.225-.583l.002-.012a.69.69 0 0 1 .766-.599c.164.02.267.078.366.159a1 1 0 0 1 .097.093q.044.05.092.115l.012.017c.049.066.105.149.183.266l.335.516.069.104.08.121.068.102.044.066.128.185.037.052.039.055q.078.11.148.202l.024.032.018-.043.015-.035q.065-.16.15-.383l.189-.494c.176-.456.22-.554.32-.742l.004-.007c.065-.12.129-.219.207-.306a.9.9 0 0 1 .221-.18.76.76 0 0 1 .472-.097m8.238-1.14 3.695 3.697-4.12.999a.42.42 0 0 1-.511-.491l.002-.009Zm-11.989 2.492.002.002.004.002Zm22.348-12.853 3.697 3.697-9.359 9.36-3.696-3.697Zm-15.419 8.566c.406.882 1.888 1.587 3.797 1.82l-.378 1.446c-2.031-.324-3.493-1.192-3.53-2.218l-.001-.039v-.519q.001-.252.112-.49m-7.596-1.409c.499 1.086 2.621 1.903 5.164 1.903.49 0 .964-.031 1.414-.088l.056-.007v.635q.001.437.197.837c-.524.079-1.084.122-1.667.122-2.884 0-5.228-1.05-5.274-2.354L11 18.351v-.519q0-.252.111-.49m7.596-1.272c.5 1.087 2.63 1.903 5.181 1.903q.178 0 .353-.005l-1.418 1.384-.019.07c-2.375-.223-4.167-1.167-4.208-2.303l-.001-.04v-.519q.001-.253.112-.49m-7.596-1.409c.498 1.086 2.617 1.903 5.157 1.903.489 0 .963-.031 1.412-.088l.056-.007v1.5q-.701.093-1.468.094c-2.88 0-5.221-1.05-5.267-2.353L11 15.67v-.519q0-.253.111-.49m7.596-1.409c.5 1.086 2.63 1.903 5.181 1.903 1.704 0 3.22-.364 4.188-.93l-2.334 2.278c-.577.098-1.202.151-1.854.151-2.894 0-5.245-1.05-5.292-2.354l-.001-.039v-.519q.001-.252.112-.49m-2.439-3.197c.489 0 .963.031 1.412.087l.056.008v5.104q-.701.093-1.468.094c-2.88 0-5.221-1.048-5.267-2.348L11 12.961v-.518c0-1.319 2.359-2.388 5.268-2.388m12.801.55q.106.228.112.47v.54c0 1.321-2.37 2.393-5.293 2.393-2.894 0-5.245-1.05-5.292-2.354l-.001-.039v-.519q.001-.253.112-.491c.5 1.087 2.63 1.903 5.181 1.903s4.681-.816 5.181-1.903m9.892-2.98.019.019 1.649 1.649a1.26 1.26 0 0 1 .015 1.771l-.015.015-1.842 1.842-3.698-3.697 1.58-1.58a1.636 1.636 0 0 1 2.292-.019M23.888 6c2.894 0 5.245 1.048 5.292 2.348l.001.039v.518c0 1.319-2.37 2.388-5.293 2.388-2.894 0-5.245-1.048-5.292-2.348l-.001-.04v-.518c0-1.318 2.37-2.387 5.293-2.387"/><path fill="#fff" stroke="#d0d0d0" stroke-linecap="round" stroke-linejoin="round" d="M56.5.5h50v31h-50Z"/><path fill="#fff" d="M72 8.611v15.015a1.31 1.31 0 0 0 1.307 1.307h8.971c6.782 0 9.722-3.796 9.722-8.834 0-5.011-2.94-8.795-9.722-8.795h-8.971c-.719 0-1.307.589-1.307 1.307"/><path fill="#c06" d="M78.005 10.99v11.094h4.828c4.384 0 6.286-2.476 6.286-5.978 0-3.352-1.902-5.953-6.286-5.953h-3.992a.84.84 0 0 0-.836.837"/><path d="M82.278 23.737h-7.802a1.255 1.255 0 0 1-1.254-1.254V9.761c0-.692.562-1.254 1.254-1.254h7.802c7.402 0 8.507 4.763 8.507 7.599 0 4.919-3.025 7.631-8.507 7.631M74.476 8.925a.833.833 0 0 0-.836.836v12.722c0 .463.372.836.836.836h7.802c5.214 0 8.089-2.561 8.089-7.213 0-6.247-5.071-7.181-8.089-7.181Z"/><g fill="#fff"><path d="M79.703 14.609q.254 0 .477.079c.151.052.275.137.386.241.104.111.189.249.255.406.058.163.091.352.091.574 0 .197-.026.373-.072.536a1.25 1.25 0 0 1-.222.425 1.1 1.1 0 0 1-.372.281 1.3 1.3 0 0 1-.53.104h-1.143v-2.652h1.13Zm-.039 2.163a.8.8 0 0 0 .248-.039.5.5 0 0 0 .21-.137.8.8 0 0 0 .15-.249c.039-.104.059-.222.059-.372 0-.131-.013-.255-.04-.36a.7.7 0 0 0-.13-.274.6.6 0 0 0-.235-.176 1 1 0 0 0-.36-.059h-.418v1.672h.516ZM83.271 14.609v.49h-1.398v.569h1.287v.451h-1.287v.646h1.43v.49h-2.012v-2.652h1.98ZM85.27 14.609l.993 2.653h-.607l-.203-.588h-.993l-.209.588h-.588l1-2.653Zm.033 1.627-.333-.973h-.007l-.346.973ZM87.211 14.609v2.163h1.293v.49h-1.875v-2.653Z"/></g><path d="M77.044 15.936a1.222 1.222 0 1 1-2.443-.001 1.222 1.222 0 0 1 2.443.001M76.744 22.084c-1.026 0-1.85-.83-1.85-1.849v-1.444a.927.927 0 1 1 1.856 0v3.293Z"/></svg>