<svg xmlns="http://www.w3.org/2000/svg" width="640" height="360"><path d="m286.919 216.1 33.435-30.264a6.52 6.52 0 0 1 4.345-1.668h40.637c1.73 0 3.34.675 4.587 1.906l24.422 23.473h50.937c1.77 0 3.219-1.43 3.219-3.177v-6.355c0-1.748-1.449-3.177-3.219-3.177h-45.666l-20.6-19.819a19.27 19.27 0 0 0-13.64-5.6h-40.637c-4.184 0-8.087 1.549-11.386 3.971-3.38-2.581-7.524-4.091-11.789-4.091h-27.963c-5.109 0-10.018 2.026-13.679 5.601l-20.077 19.898h-45.626c-1.771 0-3.219 1.43-3.219 3.177v6.355c0 1.747 1.448 3.177 3.219 3.177h50.937l23.859-23.552a6.5 6.5 0 0 1 4.546-1.867h27.963c.362.874.121.278.443 1.152l-23.739 21.487a26.97 26.97 0 0 0-1.689 38.486c5.753 6.196 23.577 15.609 38.987 1.668l9.173-8.301 50.535 40.472c2.736 2.184 3.178 6.235.925 8.936l-3.822 4.647c-2.173 2.621-6.196 3.217-9.053.914l-7.162-5.72-16.697 20.256c-3.018 3.694-8.449 4.051-11.829 1.35l-12.312-10.366-4.184 5.084c-6.719 8.142-18.91 9.413-26.796 3.138l-36.171-34.197h-53.914c-1.771 0-3.219 1.43-3.219 3.178v6.354c0 1.748 1.448 3.178 3.219 3.178h48.764l32.791 30.979c11.99 9.572 28.888 9.294 40.637-.079l2.897 2.462c3.862 3.098 8.57 4.726 13.478 4.726 6.438 0 12.513-2.78 16.657-7.784l8.812-10.684c6.598 3.535 17.26 3.575 24.14-4.766l3.823-4.647c2.494-3.018 3.862-6.593 4.224-10.207h54.84c1.77 0 3.219-1.43 3.219-3.178v-6.354c0-1.748-1.449-3.178-3.219-3.178h-58.42c-1.006-1.39-2.133-2.74-3.541-3.892l-49.046-39.32 11.427-10.366c2.615-2.383 2.816-6.395.402-8.976s-6.478-2.741-9.093-.397l-30.216 27.325c-5.794 5.203-15.531 4.766-20.801-.874-5.432-5.838-5.07-15.052.925-20.494"/><path fill="#fff" d="M249.196 45.266v106.468c0 5.096 4.17 9.266 9.267 9.266h63.611c48.092 0 68.94-26.918 68.94-62.639 0-35.536-20.848-62.361-68.94-62.361h-63.611c-5.097 0-9.267 4.17-9.267 9.266"/><path fill="#c06" d="M291.774 62.13v78.67h34.239c31.087 0 44.57-17.559 44.57-42.393 0-23.767-13.483-42.207-44.57-42.207h-28.308c-3.29 0-5.931 2.687-5.931 5.93"/><path d="M322.074 152.522h-55.318c-4.911 0-8.896-3.985-8.896-8.896V53.42c0-4.911 3.985-8.895 8.896-8.895h55.318c52.493 0 60.323 33.775 60.323 53.882 0 34.887-21.451 54.115-60.323 54.115M266.756 47.49a5.91 5.91 0 0 0-5.931 5.93v90.206a5.91 5.91 0 0 0 5.931 5.93h55.318c36.972 0 57.358-18.161 57.358-51.149 0-44.292-35.953-50.917-57.358-50.917Z"/><g fill="#fff"><path d="M303.82 87.798c1.205 0 2.317.185 3.382.556 1.066.37 1.946.973 2.734 1.714.741.787 1.343 1.76 1.807 2.872.417 1.159.648 2.502.648 4.077 0 1.39-.185 2.641-.509 3.8-.371 1.158-.881 2.177-1.575 3.011-.695.834-1.576 1.483-2.641 1.992-1.066.464-2.317.742-3.753.742h-8.108V87.751h8.015Zm-.278 15.335c.603 0 1.159-.093 1.761-.278a3.45 3.45 0 0 0 1.482-.973 5.4 5.4 0 0 0 1.066-1.76c.278-.742.417-1.576.417-2.641 0-.927-.093-1.807-.278-2.548s-.51-1.437-.927-1.946a4.2 4.2 0 0 0-1.668-1.251c-.694-.278-1.528-.417-2.548-.417h-2.965v11.86h3.66ZM329.117 87.798v3.474h-9.915v4.031h9.127V98.5h-9.127v4.587h10.146v3.475h-14.269V87.751h14.038ZM343.294 87.798l7.042 18.81h-4.309l-1.436-4.17h-7.042l-1.483 4.17h-4.169l7.088-18.81Zm.232 11.536-2.363-6.903h-.047l-2.455 6.903ZM357.054 87.798v15.335h9.174v3.475h-13.297v-18.81Z"/></g><path d="M284.964 97.203a8.664 8.664 0 1 1-17.328 0 8.664 8.664 0 0 1 17.328 0M282.832 140.8c-7.273 0-13.111-5.884-13.111-13.112v-10.239a6.574 6.574 0 0 1 6.579-6.579 6.574 6.574 0 0 1 6.579 6.579V140.8Z"/></svg>