<svg width="107" height="32" xmlns="http://www.w3.org/2000/svg"><path d="M.5.5h50v31H.5Z" fill="#fff" stroke="#d0d0d0" stroke-linejoin="round" stroke-linecap="round"/><path d="M15.529 21.686a.765.765 0 0 1 .505.282c.064.079.112.162.154.256l.013.03c.043.104.081.225.123.381l.01.037c.029.117.185.76.243.967.096.342.195.605.302.794.05.09.099.157.143.2a.26.26 0 0 0 .056.041c.096.03.123.027.149.012.046-.028.11-.099.199-.233l.015-.024.167-.266a2.26 2.26 0 0 1 .204-.275c.113-.126.239-.226.396-.292a.893.893 0 0 1 .589-.031c.118.032.227.082.343.151l.026.015.028.017c.051.031.104.067.168.111l.262.183.037.025.032.021c.453.299.714.352 1.009.182l.015-.009.015-.009a.688.688 0 0 1 .724 1.169l-.068.041a1.983 1.983 0 0 1-1.498.219c-.35-.086-.651-.24-1.01-.483l-.026-.017-.074-.052-.108-.075-.065.104-.022.034c-.197.302-.386.515-.654.674-.369.221-.801.264-1.262.12-.425-.132-.742-.442-.988-.877a4.457 4.457 0 0 1-.356-.857l-.009-.03-.037.094a8.146 8.146 0 0 1-.217.5l-.015.031a2.619 2.619 0 0 1-.236.403c-.137.186-.289.323-.508.393-.282.091-.531.024-.759-.12a1.966 1.966 0 0 1-.366-.314 7.092 7.092 0 0 1-.6-.761l-.019-.028c-.06-.085-.122-.175-.187-.271l-.054-.082a16.57 16.57 0 0 1-.144-.217l-.342-.526-.051-.077-.041-.062-.059-.085-.012-.017-.001-.001a.684.684 0 0 1-.225-.583l.002-.012a.688.688 0 0 1 .766-.599c.164.02.267.078.366.159a.86.86 0 0 1 .097.093c.03.034.06.071.092.115l.012.017c.049.066.105.149.183.266l.335.516.069.104.08.121.068.102.044.066.128.185.037.052.039.055c.052.073.101.14.148.202l.024.032.018-.043.015-.035c.044-.107.093-.233.15-.383l.189-.494c.176-.456.22-.554.32-.742l.004-.007c.065-.12.129-.219.207-.306a.867.867 0 0 1 .221-.18.756.756 0 0 1 .472-.097Zm8.238-1.14 3.695 3.697-4.12.999a.42.42 0 0 1-.511-.491l.002-.009Zm-11.989 2.492.002.002a.584.584 0 0 0 .004.002Zm22.348-12.853 3.697 3.697-9.359 9.36-3.696-3.697Zm-15.419 8.566c.406.882 1.888 1.587 3.797 1.82l-.378 1.446c-2.031-.324-3.493-1.192-3.53-2.218l-.001-.039v-.519c0-.168.039-.332.112-.49Zm-7.596-1.409c.499 1.086 2.621 1.903 5.164 1.903.49 0 .964-.031 1.414-.088l.056-.007v.635c0 .291.067.571.197.837-.524.079-1.084.122-1.667.122-2.884 0-5.228-1.05-5.274-2.354L11 18.351v-.519c0-.168.038-.332.111-.49Zm7.596-1.272c.5 1.087 2.63 1.903 5.181 1.903.119 0 .236-.002.353-.005l-1.418 1.384-.019.07c-2.375-.223-4.167-1.167-4.208-2.303l-.001-.04v-.519c0-.168.039-.332.112-.49Zm-7.596-1.409c.498 1.086 2.617 1.903 5.157 1.903.489 0 .963-.031 1.412-.088l.056-.007v1.5c-.466.061-.958.094-1.468.094-2.88 0-5.221-1.05-5.267-2.353L11 15.67v-.519c0-.168.038-.332.111-.49Zm7.596-1.409c.5 1.086 2.63 1.903 5.181 1.903 1.704 0 3.22-.364 4.188-.93l-2.334 2.278c-.577.098-1.202.151-1.854.151-2.894 0-5.245-1.05-5.292-2.354l-.001-.039v-.519c0-.168.039-.332.112-.49Zm-2.439-3.197c.489 0 .963.031 1.412.087l.056.008v5.104c-.466.061-.958.094-1.468.094-2.88 0-5.221-1.048-5.267-2.348L11 12.961v-.518c0-1.319 2.359-2.388 5.268-2.388Zm12.801.55c.07.152.109.309.112.47v.54c0 1.321-2.37 2.393-5.293 2.393-2.894 0-5.245-1.05-5.292-2.354l-.001-.039v-.519c0-.169.039-.332.112-.491.5 1.087 2.63 1.903 5.181 1.903 2.552 0 4.681-.816 5.181-1.903Zm9.892-2.98.019.019 1.649 1.649a1.26 1.26 0 0 1 .015 1.771l-.015.015-1.842 1.842-3.698-3.697 1.58-1.58a1.636 1.636 0 0 1 2.292-.019ZM23.888 6c2.894 0 5.245 1.048 5.292 2.348l.001.039v.518c0 1.319-2.37 2.388-5.293 2.388-2.894 0-5.245-1.048-5.292-2.348l-.001-.04v-.518c0-1.318 2.37-2.387 5.293-2.387Z" fill="#2c3341"/><path d="M56.5.5h50v31h-50Z" fill="#fff" stroke="#d0d0d0" stroke-linejoin="round" stroke-linecap="round"/><path d="M72 8.611v15.015a1.31 1.31 0 0 0 1.307 1.307h8.971c6.782 0 9.722-3.796 9.722-8.834 0-5.011-2.94-8.795-9.722-8.795h-8.971c-.719 0-1.307.589-1.307 1.307Z" fill="#fff"/><path d="M78.005 10.99v11.094h4.828c4.384 0 6.286-2.476 6.286-5.978 0-3.352-1.902-5.953-6.286-5.953h-3.992a.838.838 0 0 0-.836.837Z" fill="#c06"/><path d="M82.278 23.737h-7.802a1.255 1.255 0 0 1-1.254-1.254V9.761c0-.692.562-1.254 1.254-1.254h7.802c7.402 0 8.507 4.763 8.507 7.599 0 4.919-3.025 7.631-8.507 7.631ZM74.476 8.925a.833.833 0 0 0-.836.836v12.722c0 .463.372.836.836.836h7.802c5.214 0 8.089-2.561 8.089-7.213 0-6.247-5.071-7.181-8.089-7.181Z"/><g fill="#fff"><path d="M79.703 14.609c.17 0 .327.026.477.079.151.052.275.137.386.241.104.111.189.249.255.406.058.163.091.352.091.574 0 .197-.026.373-.072.536a1.245 1.245 0 0 1-.222.425 1.077 1.077 0 0 1-.372.281 1.328 1.328 0 0 1-.53.104h-1.143v-2.652h1.13Zm-.039 2.163a.818.818 0 0 0 .248-.039.489.489 0 0 0 .21-.137.778.778 0 0 0 .15-.249c.039-.104.059-.222.059-.372 0-.131-.013-.255-.04-.36a.712.712 0 0 0-.13-.274.586.586 0 0 0-.235-.176.948.948 0 0 0-.36-.059h-.418v1.672h.516ZM83.271 14.609v.49h-1.398v.569h1.287v.451h-1.287v.646h1.43v.49h-2.012v-2.652h1.98ZM85.27 14.609l.993 2.653h-.607l-.203-.588h-.993l-.209.588h-.588l1-2.653Zm.033 1.627-.333-.973h-.007l-.346.973ZM87.211 14.609v2.163h1.293v.49h-1.875v-2.653Z"/></g><path d="M77.044 15.936a1.222 1.222 0 1 1-2.443-.001 1.222 1.222 0 0 1 2.443.001ZM76.744 22.084c-1.026 0-1.85-.83-1.85-1.849v-1.444a.927.927 0 1 1 1.856 0v3.293Z"/></svg>