<svg xmlns="http://www.w3.org/2000/svg" width="51" height="32"><g fill="none" fill-rule="evenodd"><path fill="#FFF" stroke="#D0D0D0" d="M.5.5h50v31H.5z"/><g fill-rule="nonzero"><path fill="#71706F" d="M39.126 16.362h-2.939a.585.585 0 0 1-.587-.587c0-.327.26-.588.587-.588h4.506v-2.222h-4.506a2.857 2.857 0 0 0-2.873 2.874c0 1.6 1.273 2.873 2.873 2.873h2.906c.326 0 .587.261.587.587 0 .327-.26.556-.587.556h-6.237c-.523 1.012-1.013 1.894-2.09 2.318h8.392c1.535-.032 2.842-1.34 2.842-2.874-.098-1.664-1.34-2.937-2.874-2.937Zm-11.363-3.429c-2.513 0-4.539 2.058-4.539 4.571v9.503h2.253v-4.898h2.253c2.513 0 4.539-2.09 4.539-4.637a4.48 4.48 0 0 0-4.506-4.539Zm0 6.858H25.51v-2.253c0-1.274 1.013-2.319 2.253-2.319 1.242 0 2.253 1.013 2.253 2.319.034 1.208-1.011 2.253-2.253 2.253Z"/><path fill="#B90466" d="M16.042 22.109c-2.156 0-3.95-1.534-4.442-3.494 0 0-.131-.653-.131-1.11 0-.458.131-1.111.131-1.111.458-2.024 2.318-3.461 4.442-3.461a4.585 4.585 0 0 1 4.57 4.571v1.11H13.95c.392.785 1.208 1.209 2.09 1.209h6.042v-6.596c0-.979-.816-1.763-1.764-1.763h-8.555c-.979 0-1.763.783-1.763 1.763v8.522c0 .98.816 1.795 1.763 1.795h8.523c.85 0 1.6-.653 1.764-1.469 0 .034-6.008.034-6.008.034Zm0-7.02c-.914 0-1.698.554-2.09 1.273h4.245c-.426-.719-1.242-1.274-2.155-1.274Zm3.852-6.4c0-2.09-1.699-3.756-3.852-3.756-2.092 0-3.821 1.632-3.855 3.69V9.765c0 .131.131.26.261.26h1.405c.131 0 .26-.13.26-.26V8.688c0-1.013.85-1.894 1.927-1.894s1.928.85 1.928 1.894v1.077c0 .131.131.26.26.26h1.404c.131 0 .26-.13.26-.26l.002-1.077Z"/></g></g></svg>