<svg width="51" height="32" xmlns="http://www.w3.org/2000/svg"><path d="M.5.5h50v31H.5Z" fill="#fff" stroke="#d0d0d0" stroke-linejoin="round" stroke-linecap="round"/><path d="M42.318 14.048a.9.9 0 0 1 .07-.356.905.905 0 0 1 .47-.484.832.832 0 0 1 .345-.071.867.867 0 0 1 .634.266.9.9 0 0 1 .261.645.904.904 0 0 1-.261.645.867.867 0 0 1-.634.266.865.865 0 0 1-.626-.266.916.916 0 0 1-.259-.645Zm.182 0a.741.741 0 0 0 .202.527.693.693 0 0 0 1.008 0 .759.759 0 0 0 .206-.527.759.759 0 0 0-.206-.527.697.697 0 0 0-1.157.235.798.798 0 0 0-.053.292Zm.399-.392c0-.055.027-.082.082-.082h.282c.09 0 .161.025.214.077a.28.28 0 0 1 .08.21.267.267 0 0 1-.112.222.199.199 0 0 1-.06.027v.005a.053.053 0 0 1 .007.01.045.045 0 0 1 .01.017l.015.026.13.252c.015.028.018.051.01.069-.008.017-.027.026-.055.026h-.03c-.046 0-.079-.02-.097-.06l-.145-.305h-.154v.285c0 .053-.026.08-.078.08h-.022c-.051 0-.077-.027-.077-.08Zm.326.364a.149.149 0 0 0 .113-.042.165.165 0 0 0 .039-.117.155.155 0 0 0-.039-.113.153.153 0 0 0-.11-.04h-.152v.312Zm-7.267.597c.282 0 .521.036.717.108.196.072.35.139.46.2.094.049.149.116.166.199a.419.419 0 0 1-.041.265l-.083.15c-.05.099-.114.158-.191.174a.462.462 0 0 1-.274-.041 3.581 3.581 0 0 0-.339-.137 1.394 1.394 0 0 0-.465-.071c-.182 0-.323.036-.422.108a.355.355 0 0 0-.15.307c0 .116.051.21.154.282.102.072.232.136.389.191l.506.179c.18.063.348.145.506.245.157.099.287.227.389.382.103.155.154.351.154.589 0 .188-.038.361-.112.519a1.187 1.187 0 0 1-.324.411c-.14.116-.31.207-.509.274a2.1 2.1 0 0 1-.664.099c-.342 0-.631-.05-.866-.149a3.148 3.148 0 0 1-.543-.282c-.094-.056-.146-.125-.157-.208a.4.4 0 0 1 .074-.266l.1-.149c.061-.089.128-.138.203-.149a.455.455 0 0 1 .269.066c.1.055.228.118.386.187.157.069.344.104.559.104.183 0 .326-.039.431-.117a.37.37 0 0 0 .158-.315.32.32 0 0 0-.153-.278 1.865 1.865 0 0 0-.39-.191l-.506-.187a2.635 2.635 0 0 1-.505-.249 1.28 1.28 0 0 1-.39-.382c-.102-.155-.153-.354-.153-.598a1.138 1.138 0 0 1 .476-.946 1.66 1.66 0 0 1 .514-.241 2.31 2.31 0 0 1 .626-.083Zm-12.322 0c.282 0 .521.036.717.108.196.072.35.139.46.2.094.049.149.116.166.199a.42.42 0 0 1-.042.265l-.082.15c-.05.099-.114.158-.191.174a.462.462 0 0 1-.274-.041 3.503 3.503 0 0 0-.34-.137 1.384 1.384 0 0 0-.464-.071c-.182 0-.323.036-.423.108a.357.357 0 0 0-.149.307c0 .116.051.21.154.282.102.072.232.136.389.191l.506.179c.18.063.348.145.506.245.157.099.287.227.389.382.102.155.154.351.154.589 0 .188-.038.361-.112.519a1.187 1.187 0 0 1-.324.411 1.599 1.599 0 0 1-.509.274 2.1 2.1 0 0 1-.664.099c-.342 0-.631-.05-.866-.149a3.148 3.148 0 0 1-.543-.282c-.094-.056-.146-.125-.157-.208a.394.394 0 0 1 .074-.266l.1-.149c.06-.089.128-.138.203-.149a.455.455 0 0 1 .269.066c.1.055.228.118.386.187.157.069.344.104.559.104.183 0 .326-.039.431-.117a.37.37 0 0 0 .158-.315.32.32 0 0 0-.154-.278 1.83 1.83 0 0 0-.389-.191l-.506-.187a2.672 2.672 0 0 1-.506-.249 1.288 1.288 0 0 1-.389-.382c-.102-.155-.154-.354-.154-.598a1.139 1.139 0 0 1 .477-.946 1.66 1.66 0 0 1 .514-.241 2.31 2.31 0 0 1 .626-.083Zm15.115-1.56c.232 0 .348.116.348.348v1.71a2.092 2.092 0 0 1-.016.258.651.651 0 0 0-.008.099h.016c.05-.099.12-.2.212-.303a1.66 1.66 0 0 1 1.255-.552c.47 0 .834.128 1.09.382.257.255.386.664.386 1.229v2.374c0 .232-.116.349-.348.349h-.357c-.232 0-.348-.117-.348-.349v-2.158c0-.26-.044-.469-.132-.627-.089-.158-.266-.237-.531-.237a1.133 1.133 0 0 0-.887.403 1.353 1.353 0 0 0-.245.444 1.728 1.728 0 0 0-.087.556v1.619c0 .232-.116.349-.348.349h-.356c-.232 0-.348-.117-.348-.349v-5.197c0-.232.116-.348.348-.348Zm-5.508 1.66c.227 0 .34.116.34.349v3.536c0 .232-.113.349-.34.349h-.364c-.227 0-.34-.117-.34-.349v-3.536c0-.233.113-.349.34-.349Zm-7.033 0c.21 0 .334.102.373.307l.68 2.474.029.166c.008.05.018.097.029.141.011.05.019.097.025.141h.016c.006-.044.014-.091.025-.141.011-.044.021-.091.029-.141.008-.05.021-.105.037-.166l.713-2.474c.039-.199.166-.299.382-.299h.315c.204 0 .331.1.381.299l.704 2.474c.017.061.029.116.038.166.008.05.018.097.029.141.011.05.019.097.025.141h.016c.006-.044.014-.091.025-.141.011-.044.021-.091.029-.141.008-.05.021-.105.037-.166l.672-2.474c.05-.205.177-.307.381-.307h.382c.127 0 .215.036.265.108.05.072.058.166.025.282l-1.086 3.553c-.056.194-.185.291-.39.291h-.555c-.21 0-.34-.1-.39-.299l-.638-2.117a1.681 1.681 0 0 1-.042-.166 3.255 3.255 0 0 0-.033-.149 1.707 1.707 0 0 1-.025-.142h-.016a6.256 6.256 0 0 0-.033.142 3.173 3.173 0 0 0-.034.149 1.674 1.674 0 0 1-.041.166l-.638 2.117c-.05.199-.177.299-.382.299h-.572c-.199 0-.326-.097-.381-.291l-1.094-3.553c-.033-.116-.024-.21.029-.282.052-.072.139-.108.261-.108Z" fill="#4a4a49"/><defs><linearGradient id="a" gradientUnits="userSpaceOnUse" x1="20.668" y1="20.076" x2="19.026" y2="16.038"><stop offset="0" stop-color="#ef2131"/><stop offset="1" stop-color="#fecf2c"/></linearGradient></defs><path d="M11.215 21.425a5.482 5.482 0 0 0 6.559-1.424 5.478 5.478 0 0 0-.675-7.718l-1.541 1.836a4.28 4.28 0 0 1 .527 6.03c-1.212 1.444-3.207 1.926-4.87 1.276" fill="url(#a)"/><defs><linearGradient id="b" gradientUnits="userSpaceOnUse" x1="18.538" y1="15.399" x2="14.992" y2="22.127"><stop offset="0" stop-color="#fbc52c"/><stop offset=".264" stop-color="#f87130"/><stop offset=".561" stop-color="#ef52e2"/><stop offset="1" stop-color="#661eec"/></linearGradient></defs><path d="M11.215 21.425a5.482 5.482 0 0 0 7.09-2.176 4.792 4.792 0 0 0-2.747-5.13 4.28 4.28 0 0 1 .527 6.03c-1.212 1.444-3.207 1.926-4.87 1.276" fill="url(#b)"/><defs><linearGradient id="c" gradientUnits="userSpaceOnUse" x1="9.711" y1="14.217" x2="11.282" y2="18.158"><stop offset="0" stop-color="#78f6d8"/><stop offset=".266" stop-color="#77d1f6"/><stop offset=".554" stop-color="#70a4f3"/><stop offset="1" stop-color="#661eec"/></linearGradient></defs><path d="M15.94 11.534a5.479 5.479 0 0 0-5.885 9.142l1.541-1.837a4.278 4.278 0 0 1-.527-6.029c1.212-1.444 3.207-1.926 4.871-1.276" fill="url(#c)"/><defs><linearGradient id="d" gradientUnits="userSpaceOnUse" x1="11.823" y1="18.842" x2="15.34" y2="12.139"><stop offset="0" stop-color="#536eed"/><stop offset=".247" stop-color="#54c3ec"/><stop offset=".564" stop-color="#64d769"/><stop offset="1" stop-color="#fecf2c"/></linearGradient></defs><path d="M15.94 11.534a5.484 5.484 0 0 0-7.091 2.175 4.79 4.79 0 0 0 2.747 5.13 4.278 4.278 0 0 1-.527-6.029c1.212-1.444 3.207-1.926 4.871-1.276" fill="url(#d)"/></svg>