<svg xmlns="http://www.w3.org/2000/svg" width="641" height="361"><path fill="#4a4a49" d="M537.461 147.654q0-2.53.931-4.744a12.4 12.4 0 0 1 2.527-3.861 11.8 11.8 0 0 1 3.739-2.597q2.144-.948 4.604-.948 2.493 0 4.671.948a11.9 11.9 0 0 1 3.789 2.597 12.3 12.3 0 0 1 2.543 3.861q.931 2.214.931 4.744t-.931 4.744a12.2 12.2 0 0 1-2.543 3.861 11.9 11.9 0 0 1-3.789 2.597q-2.178.948-4.671.948-2.46 0-4.604-.948a11.8 11.8 0 0 1-3.739-2.597 12.4 12.4 0 0 1-2.527-3.861q-.93-2.214-.931-4.744m2.427 0q0 2.097.715 3.895a9.7 9.7 0 0 0 1.978 3.129 9.3 9.3 0 0 0 2.975 2.097q1.711.766 3.706.766 2.028 0 3.756-.766a9.4 9.4 0 0 0 3.009-2.097 9.8 9.8 0 0 0 2.011-3.129q.732-1.798.731-3.895 0-2.097-.731-3.895a9.8 9.8 0 0 0-2.011-3.129 9.4 9.4 0 0 0-3.009-2.097q-1.728-.766-3.756-.766-1.995 0-3.706.766a9.3 9.3 0 0 0-2.975 2.097 9.7 9.7 0 0 0-1.978 3.129q-.715 1.798-.715 3.895m5.319-5.226q0-1.1 1.097-1.099h3.756q1.795 0 2.859 1.032 1.063 1.032 1.063 2.796 0 .733-.216 1.299a3.6 3.6 0 0 1-.548.982 3.3 3.3 0 0 1-.731.682q-.399.267-.798.366v.067q.033.033.1.133a.8.8 0 0 1 .133.216q.066.15.199.35l1.728 3.362q.3.566.133.916-.165.35-.731.349h-.399q-.93 0-1.296-.799l-1.928-4.061h-2.061v3.795q0 1.065-1.031 1.065h-.299q-1.03 0-1.03-1.065Zm4.354 4.86q.965 0 1.496-.566.532-.566.532-1.565 0-.964-.532-1.498-.532-.532-1.462-.532h-2.028v4.161Zm-96.897 7.959q5.637 0 9.561 1.439t6.134 2.657q1.88.996 2.211 2.656.332 1.66-.553 3.542l-1.105 1.992q-.995 1.992-2.542 2.325-1.548.332-3.648-.554-1.879-.885-4.531-1.826-2.653-.94-6.19-.941-3.648 0-5.637 1.439-1.99 1.439-1.99 4.095 0 2.325 2.045 3.764t5.195 2.545q3.15 1.107 6.742 2.38a33.5 33.5 0 0 1 6.743 3.265 17.1 17.1 0 0 1 5.194 5.092q2.046 3.099 2.045 7.858 0 3.763-1.492 6.918-1.492 3.154-4.311 5.479-2.817 2.325-6.797 3.653t-8.842 1.328q-6.853 0-11.551-1.992-4.696-1.993-7.239-3.764-1.88-1.107-2.1-2.767-.222-1.66.995-3.542l1.326-1.992q1.215-1.772 2.708-1.992 1.492-.222 3.592.885 1.99 1.107 5.14 2.49t7.46 1.384q3.648 0 5.748-1.55t2.1-4.206q0-2.323-2.045-3.708-2.045-1.383-5.195-2.545t-6.742-2.491a35.8 35.8 0 0 1-6.742-3.32 17.1 17.1 0 0 1-5.195-5.092q-2.045-3.099-2.045-7.969 0-4.095 1.713-7.305a15.35 15.35 0 0 1 4.642-5.313q2.93-2.103 6.853-3.21 3.924-1.107 8.345-1.107m-164.295 0q5.637 0 9.561 1.439t6.135 2.657q1.878.996 2.21 2.656t-.553 3.542l-1.105 1.992q-.994 1.992-2.542 2.325-1.547.332-3.647-.554-1.88-.885-4.532-1.826-2.653-.94-6.19-.941-3.646 0-5.637 1.439-1.989 1.439-1.989 4.095 0 2.325 2.045 3.764t5.194 2.545q3.15 1.107 6.743 2.38a33.6 33.6 0 0 1 6.742 3.265 17.1 17.1 0 0 1 5.195 5.092q2.045 3.099 2.045 7.858 0 3.763-1.493 6.918-1.491 3.154-4.31 5.479t-6.798 3.653-8.842 1.328q-6.853 0-11.55-1.992-4.698-1.993-7.24-3.764-1.88-1.107-2.1-2.767t.995-3.542l1.326-1.992q1.216-1.772 2.708-1.992 1.492-.222 3.592.885 1.99 1.107 5.14 2.49t7.461 1.384q3.647 0 5.747-1.55t2.1-4.206q0-2.323-2.045-3.708-2.044-1.383-5.195-2.545-3.15-1.162-6.742-2.491a35.8 35.8 0 0 1-6.742-3.32 17.1 17.1 0 0 1-5.195-5.092q-2.045-3.099-2.045-7.969 0-4.095 1.714-7.305a15.34 15.34 0 0 1 4.642-5.313q2.928-2.103 6.853-3.21 3.923-1.107 8.344-1.107m201.537-20.808q4.643 0 4.643 4.648v22.801q0 1.107-.056 1.937a15 15 0 0 1-.165 1.495 9.6 9.6 0 0 0-.111 1.328h.221q.995-1.992 2.819-4.04t4.31-3.708q2.487-1.66 5.637-2.657 3.15-.996 6.798-.996 9.395 0 14.534 5.092 5.14 5.09 5.14 16.381v31.656q0 4.649-4.642 4.649h-4.753q-4.642 0-4.642-4.649v-28.778q0-5.202-1.769-8.357t-7.074-3.154q-3.647 0-6.687 1.439-3.039 1.439-5.139 3.929t-3.261 5.921q-1.16 3.432-1.16 7.416v21.584q0 4.649-4.643 4.649h-4.752q-4.642 0-4.642-4.649v-69.289q0-4.648 4.642-4.648Zm-73.436 22.136q4.531 0 4.531 4.649v47.152q0 4.649-4.531 4.649h-4.864q-4.531 0-4.531-4.649v-47.152q0-4.649 4.531-4.649Zm-93.783 0q4.2 0 4.974 4.096l9.063 32.984q.222 1.217.387 2.214.167.996.387 1.881.221.996.332 1.882h.221a21 21 0 0 1 .331-1.882q.222-.885.387-1.881.166-.997.498-2.214l9.505-32.984q.774-3.985 5.084-3.985h4.201q4.09 0 5.084 3.985l9.395 32.984q.332 1.217.497 2.214.166.996.387 1.881.22.996.332 1.882h.221q.11-.886.331-1.882.222-.885.387-1.881.166-.997.498-2.214l8.952-32.984q.995-4.096 5.085-4.096h5.084q2.543 0 3.537 1.439.995 1.44.331 3.764l-14.479 47.373q-1.105 3.874-5.195 3.874h-7.405q-4.2 0-5.195-3.985l-8.511-28.225a24 24 0 0 1-.552-2.213 45 45 0 0 0-.442-1.993 20 20 0 0 1-.332-1.881h-.221q-.221.885-.442 1.881a44 44 0 0 0-.442 1.993 25 25 0 0 1-.553 2.213l-8.511 28.225q-.995 3.985-5.084 3.985h-7.626q-3.98 0-5.085-3.874l-14.59-47.373q-.663-2.325.387-3.764t3.482-1.439Z"/><defs><linearGradient id="a" x1="248.803" x2="226.901" y1="228.027" y2="174.194" gradientUnits="userSpaceOnUse"><stop offset="0" stop-color="#ef2131"/><stop offset="1" stop-color="#fecf2c"/></linearGradient></defs><path fill="url(#a)" d="M122.751 246.013c29.351 14.038 65.575 7.091 87.459-18.984 25.939-30.906 21.91-76.981-8.999-102.91l-20.547 24.482c24.147 20.258 27.294 56.253 7.03 80.399-16.158 19.252-42.762 25.68-64.943 17.013"/><defs><linearGradient id="b" x1="220.392" x2="173.12" y1="165.673" y2="255.375" gradientUnits="userSpaceOnUse"><stop offset="0" stop-color="#fbc52c"/><stop offset=".264" stop-color="#f87130"/><stop offset=".561" stop-color="#ef52e2"/><stop offset="1" stop-color="#661eec"/></linearGradient></defs><path fill="url(#b)" d="M122.751 246.013c29.351 14.038 65.575 7.091 87.459-18.984a73.6 73.6 0 0 0 7.083-10.028c3.456-21.475-4.144-44.174-22.022-59.172a64 64 0 0 0-14.604-9.225c24.144 20.258 27.29 56.252 7.027 80.396-16.158 19.252-42.762 25.68-64.943 17.013"/><defs><linearGradient id="c" x1="102.702" x2="123.643" y1="149.902" y2="202.452" gradientUnits="userSpaceOnUse"><stop offset="0" stop-color="#78f6d8"/><stop offset=".266" stop-color="#77d1f6"/><stop offset=".554" stop-color="#70a4f3"/><stop offset="1" stop-color="#661eec"/></linearGradient></defs><path fill="url(#c)" d="M185.753 114.13c-29.352-14.038-65.575-7.091-87.459 18.984-25.939 30.906-21.91 76.981 8.998 102.91l20.548-24.482c-24.148-20.258-27.295-56.254-7.031-80.399 16.159-19.252 42.762-25.681 64.944-17.013"/><defs><linearGradient id="d" x1="130.867" x2="177.756" y1="211.572" y2="122.203" gradientUnits="userSpaceOnUse"><stop offset="0" stop-color="#536eed"/><stop offset=".247" stop-color="#54c3ec"/><stop offset=".564" stop-color="#64d769"/><stop offset="1" stop-color="#fecf2c"/></linearGradient></defs><path fill="url(#d)" d="M185.753 114.13c-29.352-14.038-65.575-7.091-87.459 18.984a73.6 73.6 0 0 0-7.084 10.027c-3.456 21.476 4.145 44.175 22.022 59.173a64 64 0 0 0 14.604 9.225c-24.144-20.258-27.29-56.252-7.027-80.396 16.159-19.252 42.762-25.681 64.944-17.013"/></svg>