<svg width="641" height="361" xmlns="http://www.w3.org/2000/svg"><path d="M537.461 147.654c0-1.687.311-3.268.931-4.744a12.417 12.417 0 0 1 2.527-3.861 11.79 11.79 0 0 1 3.739-2.597c1.43-.632 2.964-.948 4.604-.948 1.662 0 3.219.316 4.671.948a11.894 11.894 0 0 1 3.789 2.597 12.25 12.25 0 0 1 2.543 3.861c.621 1.476.931 3.057.931 4.744 0 1.687-.31 3.268-.931 4.744a12.228 12.228 0 0 1-2.543 3.861 11.894 11.894 0 0 1-3.789 2.597c-1.452.632-3.009.948-4.671.948-1.64 0-3.174-.316-4.604-.948a11.79 11.79 0 0 1-3.739-2.597 12.393 12.393 0 0 1-2.527-3.861c-.62-1.476-.931-3.057-.931-4.744Zm2.427 0c0 1.398.238 2.696.715 3.895a9.686 9.686 0 0 0 1.978 3.129 9.256 9.256 0 0 0 2.975 2.097c1.141.511 2.376.766 3.706.766 1.352 0 2.604-.255 3.756-.766a9.4 9.4 0 0 0 3.009-2.097 9.803 9.803 0 0 0 2.011-3.129c.488-1.199.731-2.497.731-3.895 0-1.398-.243-2.696-.731-3.895a9.803 9.803 0 0 0-2.011-3.129 9.415 9.415 0 0 0-3.009-2.097c-1.152-.51-2.404-.766-3.756-.766-1.33 0-2.565.256-3.706.766a9.271 9.271 0 0 0-2.975 2.097 9.686 9.686 0 0 0-1.978 3.129c-.477 1.199-.715 2.497-.715 3.895Zm5.319-5.226c0-.733.365-1.099 1.097-1.099h3.756c1.197 0 2.15.344 2.859 1.032.709.688 1.063 1.62 1.063 2.796 0 .489-.072.921-.216 1.299a3.641 3.641 0 0 1-.548.982 3.247 3.247 0 0 1-.731.682c-.266.178-.532.3-.798.366v.067c.022.022.055.066.1.133a.757.757 0 0 1 .133.216c.044.1.11.217.199.35l1.728 3.362c.2.377.244.683.133.916-.11.233-.354.349-.731.349h-.399c-.62 0-1.052-.266-1.296-.799l-1.928-4.061h-2.061v3.795c0 .71-.344 1.065-1.031 1.065h-.299c-.687 0-1.03-.355-1.03-1.065Zm4.354 4.86c.643 0 1.142-.189 1.496-.566.355-.377.532-.899.532-1.565 0-.643-.177-1.142-.532-1.498-.354-.355-.842-.532-1.462-.532h-2.028v4.161Zm-96.897 7.959c3.758 0 6.945.48 9.561 1.439 2.616.959 4.66 1.845 6.134 2.657 1.253.664 1.99 1.549 2.211 2.656.221 1.107.037 2.287-.553 3.542l-1.105 1.992c-.663 1.328-1.511 2.103-2.542 2.325-1.032.221-2.248.037-3.648-.554-1.252-.59-2.763-1.199-4.531-1.826-1.769-.627-3.832-.941-6.19-.941-2.432 0-4.311.48-5.637 1.439-1.326.959-1.99 2.324-1.99 4.095 0 1.55.682 2.804 2.045 3.764 1.363.959 3.095 1.807 5.195 2.545s4.348 1.531 6.742 2.38a33.533 33.533 0 0 1 6.743 3.265 17.105 17.105 0 0 1 5.194 5.092c1.364 2.066 2.045 4.685 2.045 7.858 0 2.509-.497 4.815-1.492 6.918-.995 2.103-2.431 3.929-4.311 5.479-1.878 1.55-4.144 2.767-6.797 3.653-2.653.885-5.6 1.328-8.842 1.328-4.569 0-8.419-.664-11.551-1.992-3.131-1.329-5.544-2.583-7.239-3.764-1.253-.738-1.953-1.66-2.1-2.767-.148-1.107.184-2.287.995-3.542l1.326-1.992c.81-1.181 1.713-1.845 2.708-1.992.995-.148 2.192.147 3.592.885 1.326.738 3.04 1.568 5.14 2.49 2.1.923 4.586 1.384 7.46 1.384 2.432 0 4.348-.517 5.748-1.55 1.4-1.033 2.1-2.435 2.1-4.206 0-1.549-.682-2.785-2.045-3.708-1.363-.922-3.095-1.77-5.195-2.545-2.1-.775-4.347-1.605-6.742-2.491a35.769 35.769 0 0 1-6.742-3.32 17.108 17.108 0 0 1-5.195-5.092c-1.363-2.066-2.045-4.722-2.045-7.969 0-2.73.571-5.165 1.713-7.305a15.35 15.35 0 0 1 4.642-5.313c1.953-1.402 4.237-2.472 6.853-3.21 2.616-.738 5.398-1.107 8.345-1.107Zm-164.295 0c3.758 0 6.945.48 9.561 1.439 2.616.959 4.661 1.845 6.135 2.657 1.252.664 1.989 1.549 2.21 2.656.221 1.107.037 2.287-.553 3.542l-1.105 1.992c-.663 1.328-1.51 2.103-2.542 2.325-1.032.221-2.247.037-3.647-.554-1.253-.59-2.764-1.199-4.532-1.826-1.769-.627-3.832-.941-6.19-.941-2.431 0-4.31.48-5.637 1.439-1.326.959-1.989 2.324-1.989 4.095 0 1.55.681 2.804 2.045 3.764 1.363.959 3.094 1.807 5.194 2.545s4.348 1.531 6.743 2.38a33.55 33.55 0 0 1 6.742 3.265 17.108 17.108 0 0 1 5.195 5.092c1.363 2.066 2.045 4.685 2.045 7.858 0 2.509-.498 4.815-1.493 6.918-.994 2.103-2.431 3.929-4.31 5.479-1.879 1.55-4.145 2.767-6.798 3.653-2.652.885-5.6 1.328-8.842 1.328-4.569 0-8.419-.664-11.55-1.992-3.132-1.329-5.545-2.583-7.24-3.764-1.253-.738-1.953-1.66-2.1-2.767-.147-1.107.184-2.287.995-3.542l1.326-1.992c.811-1.181 1.713-1.845 2.708-1.992.995-.148 2.192.147 3.592.885 1.327.738 3.04 1.568 5.14 2.49 2.1.923 4.587 1.384 7.461 1.384 2.431 0 4.347-.517 5.747-1.55 1.4-1.033 2.1-2.435 2.1-4.206 0-1.549-.681-2.785-2.045-3.708-1.363-.922-3.094-1.77-5.195-2.545-2.1-.775-4.347-1.605-6.742-2.491a35.769 35.769 0 0 1-6.742-3.32 17.108 17.108 0 0 1-5.195-5.092c-1.363-2.066-2.045-4.722-2.045-7.969 0-2.73.571-5.165 1.714-7.305a15.34 15.34 0 0 1 4.642-5.313c1.952-1.402 4.237-2.472 6.853-3.21 2.615-.738 5.397-1.107 8.344-1.107Zm201.537-20.808c3.095 0 4.643 1.549 4.643 4.648v22.801c0 .738-.019 1.384-.056 1.937a15.37 15.37 0 0 1-.165 1.495 9.566 9.566 0 0 0-.111 1.328h.221c.663-1.328 1.603-2.675 2.819-4.04 1.215-1.365 2.652-2.601 4.31-3.708 1.658-1.107 3.537-1.992 5.637-2.657 2.1-.664 4.366-.996 6.798-.996 6.263 0 11.108 1.697 14.534 5.092 3.427 3.394 5.14 8.854 5.14 16.381v31.656c0 3.099-1.548 4.649-4.642 4.649h-4.753c-3.095 0-4.642-1.55-4.642-4.649v-28.778c0-3.468-.59-6.254-1.769-8.357-1.179-2.103-3.537-3.154-7.074-3.154-2.431 0-4.66.479-6.687 1.439-2.026.959-3.739 2.269-5.139 3.929-1.4 1.66-2.487 3.634-3.261 5.921-.773 2.288-1.16 4.76-1.16 7.416v21.584c0 3.099-1.548 4.649-4.643 4.649h-4.752c-3.095 0-4.642-1.55-4.642-4.649v-69.289c0-3.099 1.547-4.648 4.642-4.648Zm-73.436 22.136c3.021 0 4.531 1.55 4.531 4.649v47.152c0 3.099-1.51 4.649-4.531 4.649h-4.864c-3.021 0-4.531-1.55-4.531-4.649v-47.152c0-3.099 1.51-4.649 4.531-4.649Zm-93.783 0c2.8 0 4.458 1.366 4.974 4.096l9.063 32.984c.148.812.277 1.549.387 2.214.111.664.24 1.291.387 1.881.148.664.258 1.291.332 1.882h.221a20.53 20.53 0 0 1 .331-1.882c.148-.59.277-1.217.387-1.881.111-.665.277-1.402.498-2.214l9.505-32.984c.516-2.657 2.211-3.985 5.084-3.985h4.201c2.726 0 4.421 1.328 5.084 3.985l9.395 32.984c.221.812.387 1.549.497 2.214.111.664.24 1.291.387 1.881.147.664.258 1.291.332 1.882h.221c.073-.591.184-1.218.331-1.882.148-.59.277-1.217.387-1.881.111-.665.276-1.402.498-2.214l8.952-32.984c.664-2.73 2.358-4.096 5.085-4.096h5.084c1.695 0 2.874.48 3.537 1.439.663.96.774 2.214.331 3.764l-14.479 47.373c-.737 2.582-2.468 3.874-5.195 3.874h-7.405c-2.8 0-4.532-1.329-5.195-3.985l-8.511-28.225a24.163 24.163 0 0 1-.552-2.213 44.907 44.907 0 0 0-.442-1.993 20.253 20.253 0 0 1-.332-1.881h-.221c-.147.59-.295 1.217-.442 1.881a43.53 43.53 0 0 0-.442 1.993 24.502 24.502 0 0 1-.553 2.213l-8.511 28.225c-.663 2.656-2.358 3.985-5.084 3.985h-7.626c-2.653 0-4.348-1.292-5.085-3.874l-14.59-47.373c-.442-1.55-.313-2.804.387-3.764.7-.959 1.861-1.439 3.482-1.439Z" fill="#4a4a49"/><defs><linearGradient id="a" gradientUnits="userSpaceOnUse" x1="248.803" y1="228.027" x2="226.901" y2="174.194"><stop offset="0" stop-color="#ef2131"/><stop offset="1" stop-color="#fecf2c"/></linearGradient></defs><path d="M122.751 246.013c29.351 14.038 65.575 7.091 87.459-18.984 25.939-30.906 21.91-76.981-8.999-102.91l-20.547 24.482c24.147 20.258 27.294 56.253 7.03 80.399-16.158 19.252-42.762 25.68-64.943 17.013" fill="url(#a)"/><defs><linearGradient id="b" gradientUnits="userSpaceOnUse" x1="220.392" y1="165.673" x2="173.12" y2="255.375"><stop offset="0" stop-color="#fbc52c"/><stop offset=".264" stop-color="#f87130"/><stop offset=".561" stop-color="#ef52e2"/><stop offset="1" stop-color="#661eec"/></linearGradient></defs><path d="M122.751 246.013c29.351 14.038 65.575 7.091 87.459-18.984a73.588 73.588 0 0 0 7.083-10.028c3.456-21.475-4.144-44.174-22.022-59.172a63.946 63.946 0 0 0-14.604-9.225c24.144 20.258 27.29 56.252 7.027 80.396-16.158 19.252-42.762 25.68-64.943 17.013" fill="url(#b)"/><defs><linearGradient id="c" gradientUnits="userSpaceOnUse" x1="102.702" y1="149.902" x2="123.643" y2="202.452"><stop offset="0" stop-color="#78f6d8"/><stop offset=".266" stop-color="#77d1f6"/><stop offset=".554" stop-color="#70a4f3"/><stop offset="1" stop-color="#661eec"/></linearGradient></defs><path d="M185.753 114.13c-29.352-14.038-65.575-7.091-87.459 18.984-25.939 30.906-21.91 76.981 8.998 102.91l20.548-24.482c-24.148-20.258-27.295-56.254-7.031-80.399 16.159-19.252 42.762-25.681 64.944-17.013" fill="url(#c)"/><defs><linearGradient id="d" gradientUnits="userSpaceOnUse" x1="130.867" y1="211.572" x2="177.756" y2="122.203"><stop offset="0" stop-color="#536eed"/><stop offset=".247" stop-color="#54c3ec"/><stop offset=".564" stop-color="#64d769"/><stop offset="1" stop-color="#fecf2c"/></linearGradient></defs><path d="M185.753 114.13c-29.352-14.038-65.575-7.091-87.459 18.984a73.561 73.561 0 0 0-7.084 10.027c-3.456 21.476 4.145 44.175 22.022 59.173a63.946 63.946 0 0 0 14.604 9.225c-24.144-20.258-27.29-56.252-7.027-80.396 16.159-19.252 42.762-25.681 64.944-17.013" fill="url(#d)"/></svg>