<svg xmlns="http://www.w3.org/2000/svg" width="51" height="32"><path fill="#fff" stroke="#d0d0d0" stroke-linecap="round" stroke-linejoin="round" d="M.5.5h50v31H.5Z"/><path fill="#4a4a49" d="M42.318 14.048a.9.9 0 0 1 .07-.356.9.9 0 0 1 .47-.484.8.8 0 0 1 .345-.071q.187 0 .35.071a.894.894 0 0 1 .475.484.9.9 0 0 1 .07.356.9.9 0 0 1-.261.645.87.87 0 0 1-.634.266.865.865 0 0 1-.626-.266.92.92 0 0 1-.259-.645m.182 0q0 .157.053.292.054.135.149.235a.693.693 0 0 0 1.008 0 .759.759 0 0 0 .206-.527.76.76 0 0 0-.206-.527.697.697 0 0 0-1.157.235.8.8 0 0 0-.053.292m.399-.392q0-.082.082-.082h.282q.135 0 .214.077a.28.28 0 0 1 .08.21.27.27 0 0 1-.112.222.2.2 0 0 1-.06.027v.005l.007.01a.1.1 0 0 1 .01.017l.015.026.13.252q.022.042.01.069-.013.026-.055.026h-.03q-.07 0-.097-.06l-.145-.305h-.154v.285q0 .08-.078.08h-.022q-.077 0-.077-.08Zm.326.364a.15.15 0 0 0 .113-.042.17.17 0 0 0 .039-.117.16.16 0 0 0-.039-.113.15.15 0 0 0-.11-.04h-.152v.312Zm-7.267.597q.423 0 .717.108t.46.2q.14.074.166.199a.42.42 0 0 1-.041.265l-.083.15q-.075.15-.191.174a.46.46 0 0 1-.274-.041 4 4 0 0 0-.339-.137 1.4 1.4 0 0 0-.465-.071q-.273 0-.422.108a.36.36 0 0 0-.15.307q0 .174.154.282.153.108.389.191l.506.179q.27.095.506.245.236.149.389.382.154.232.154.589 0 .282-.112.519a1.2 1.2 0 0 1-.324.411q-.21.174-.509.274a2.1 2.1 0 0 1-.664.099q-.513 0-.866-.149a3 3 0 0 1-.543-.282q-.14-.084-.157-.208a.4.4 0 0 1 .074-.266l.1-.149q.091-.133.203-.149a.46.46 0 0 1 .269.066q.15.083.386.187t.559.104q.274 0 .431-.117a.37.37 0 0 0 .158-.315.32.32 0 0 0-.153-.278 2 2 0 0 0-.39-.191l-.506-.187a2.6 2.6 0 0 1-.505-.249 1.3 1.3 0 0 1-.39-.382q-.153-.232-.153-.598a1.14 1.14 0 0 1 .476-.946 1.7 1.7 0 0 1 .514-.241 2.3 2.3 0 0 1 .626-.083m-12.322 0q.423 0 .717.108t.46.2q.14.074.166.199a.42.42 0 0 1-.042.265l-.082.15q-.075.15-.191.174a.46.46 0 0 1-.274-.041 4 4 0 0 0-.34-.137 1.4 1.4 0 0 0-.464-.071q-.273 0-.423.108a.36.36 0 0 0-.149.307q0 .174.154.282.153.108.389.191l.506.179q.27.095.506.245.236.149.389.382.154.232.154.589 0 .282-.112.519a1.2 1.2 0 0 1-.324.411 1.6 1.6 0 0 1-.509.274 2.1 2.1 0 0 1-.664.099q-.513 0-.866-.149a3 3 0 0 1-.543-.282q-.14-.084-.157-.208a.4.4 0 0 1 .074-.266l.1-.149q.09-.133.203-.149a.46.46 0 0 1 .269.066q.15.083.386.187t.559.104q.274 0 .431-.117a.37.37 0 0 0 .158-.315.32.32 0 0 0-.154-.278 1.8 1.8 0 0 0-.389-.191l-.506-.187a2.7 2.7 0 0 1-.506-.249 1.3 1.3 0 0 1-.389-.382q-.154-.232-.154-.598a1.14 1.14 0 0 1 .477-.946 1.7 1.7 0 0 1 .514-.241 2.3 2.3 0 0 1 .626-.083m15.115-1.56q.348 0 .348.348v1.71a2 2 0 0 1-.016.258 1 1 0 0 0-.008.099h.016q.074-.148.212-.303a1.66 1.66 0 0 1 1.255-.552q.706 0 1.09.382.386.382.386 1.229v2.374q0 .348-.348.349h-.357q-.348 0-.348-.349v-2.158q0-.39-.132-.627-.133-.237-.531-.237-.273 0-.502.108-.227.108-.385.295a1.4 1.4 0 0 0-.245.444 1.7 1.7 0 0 0-.087.556v1.619q0 .348-.348.349h-.356q-.348 0-.348-.349v-5.197q0-.348.348-.348Zm-5.508 1.66q.34 0 .34.349v3.536q0 .348-.34.349h-.364q-.34 0-.34-.349v-3.536q0-.35.34-.349Zm-7.033 0q.315 0 .373.307l.68 2.474.029.166q.012.075.029.141.016.075.025.141h.016q.009-.066.025-.141.017-.066.029-.141t.037-.166l.713-2.474q.058-.299.382-.299h.315q.306 0 .381.299l.704 2.474q.025.091.038.166t.029.141q.016.075.025.141h.016q.009-.066.025-.141.017-.066.029-.141t.037-.166l.672-2.474q.075-.307.381-.307h.382q.19 0 .265.108t.025.282l-1.086 3.553q-.083.291-.39.291h-.555q-.315 0-.39-.299l-.638-2.117a2 2 0 0 1-.042-.166l-.033-.149a2 2 0 0 1-.025-.142h-.016l-.033.142-.034.149a2 2 0 0 1-.041.166l-.638 2.117q-.075.299-.382.299h-.572q-.299 0-.381-.291l-1.094-3.553q-.05-.174.029-.282.078-.108.261-.108Z"/><defs><linearGradient id="a" x1="20.668" x2="19.026" y1="20.076" y2="16.038" gradientUnits="userSpaceOnUse"><stop offset="0" stop-color="#ef2131"/><stop offset="1" stop-color="#fecf2c"/></linearGradient></defs><path fill="url(#a)" d="M11.215 21.425a5.48 5.48 0 0 0 6.559-1.424 5.48 5.48 0 0 0-.675-7.718l-1.541 1.836a4.28 4.28 0 0 1 .527 6.03c-1.212 1.444-3.207 1.926-4.87 1.276"/><defs><linearGradient id="b" x1="18.538" x2="14.992" y1="15.399" y2="22.127" gradientUnits="userSpaceOnUse"><stop offset="0" stop-color="#fbc52c"/><stop offset=".264" stop-color="#f87130"/><stop offset=".561" stop-color="#ef52e2"/><stop offset="1" stop-color="#661eec"/></linearGradient></defs><path fill="url(#b)" d="M11.215 21.425a5.48 5.48 0 0 0 7.09-2.176 4.79 4.79 0 0 0-2.747-5.13 4.28 4.28 0 0 1 .527 6.03c-1.212 1.444-3.207 1.926-4.87 1.276"/><defs><linearGradient id="c" x1="9.711" x2="11.282" y1="14.217" y2="18.158" gradientUnits="userSpaceOnUse"><stop offset="0" stop-color="#78f6d8"/><stop offset=".266" stop-color="#77d1f6"/><stop offset=".554" stop-color="#70a4f3"/><stop offset="1" stop-color="#661eec"/></linearGradient></defs><path fill="url(#c)" d="M15.94 11.534a5.479 5.479 0 0 0-5.885 9.142l1.541-1.837a4.28 4.28 0 0 1-.527-6.029c1.212-1.444 3.207-1.926 4.871-1.276"/><defs><linearGradient id="d" x1="11.823" x2="15.34" y1="18.842" y2="12.139" gradientUnits="userSpaceOnUse"><stop offset="0" stop-color="#536eed"/><stop offset=".247" stop-color="#54c3ec"/><stop offset=".564" stop-color="#64d769"/><stop offset="1" stop-color="#fecf2c"/></linearGradient></defs><path fill="url(#d)" d="M15.94 11.534a5.484 5.484 0 0 0-7.091 2.175 4.79 4.79 0 0 0 2.747 5.13 4.28 4.28 0 0 1-.527-6.029c1.212-1.444 3.207-1.926 4.871-1.276"/></svg>