<svg height="176" width="578" xmlns="http://www.w3.org/2000/svg"><linearGradient id="a" x1="80.815%" x2="59.868%" y1="59.637%" y2="8.15%"><stop offset="0" stop-color="#ef2131"/><stop offset="1" stop-color="#fecf2c"/></linearGradient><linearGradient id="b" x1="58.818%" x2="9.244%" y1="0%" y2="94.071%"><stop offset="0" stop-color="#fbc52c"/><stop offset=".264" stop-color="#f87130"/><stop offset=".561" stop-color="#ef52e2"/><stop offset="1" stop-color="#661eec"/></linearGradient><linearGradient id="c" x1="20.569%" x2="40.597%" y1="41.018%" y2="91.277%"><stop offset="0" stop-color="#78f6d8"/><stop offset=".266" stop-color="#77d1f6"/><stop offset=".554" stop-color="#70a4f3"/><stop offset="1" stop-color="#661eec"/></linearGradient><linearGradient id="d" x1="42.44%" x2="91.614%" y1="100%" y2="6.278%"><stop offset="0" stop-color="#536eed"/><stop offset=".247" stop-color="#54c3ec"/><stop offset=".564" stop-color="#64d769"/><stop offset="1" stop-color="#fecf2c"/></linearGradient><g fill="none" fill-rule="evenodd"><path d="M549.059 48.903c0-2.03.373-3.932 1.12-5.708.746-1.776 1.76-3.325 3.04-4.647s2.78-2.363 4.5-3.124c1.72-.762 3.567-1.142 5.54-1.142 2 0 3.874.38 5.62 1.142 1.747.76 3.268 1.802 4.56 3.124s2.314 2.871 3.061 4.647c.747 1.776 1.12 3.679 1.12 5.708s-.373 3.933-1.12 5.709c-.747 1.776-1.767 3.325-3.06 4.646a14.303 14.303 0 01-4.56 3.125c-1.747.761-3.62 1.142-5.62 1.142-1.974 0-3.82-.38-5.541-1.142a14.192 14.192 0 01-4.5-3.125c-1.28-1.321-2.294-2.87-3.04-4.646s-1.12-3.679-1.12-5.709zm2.92 0c0 1.683.286 3.245.86 4.687.573 1.442 1.367 2.697 2.38 3.766s2.207 1.91 3.58 2.523 2.86.922 4.46.922c1.627 0 3.134-.307 4.52-.922s2.594-1.455 3.62-2.523 1.834-2.324 2.421-3.766c.587-1.442.88-3.004.88-4.687s-.293-3.244-.88-4.687a11.775 11.775 0 00-2.42-3.765c-1.027-1.068-2.234-1.91-3.62-2.524s-2.894-.921-4.52-.921c-1.6 0-3.087.307-4.46.921s-2.568 1.456-3.581 2.524-1.807 2.323-2.38 3.765c-.574 1.443-.86 3.005-.86 4.687zm6.4-6.289c0-.881.44-1.322 1.32-1.322h4.52c1.44 0 2.587.414 3.44 1.242.854.828 1.28 1.95 1.28 3.365 0 .587-.086 1.108-.26 1.562s-.393.848-.66 1.182c-.266.334-.56.607-.88.821-.32.214-.64.36-.96.44v.08c.027.028.067.081.12.161a.88.88 0 01.16.26c.054.12.134.26.24.421l2.08 4.046c.24.454.294.821.16 1.102-.133.28-.426.42-.88.42h-.48c-.746 0-1.266-.32-1.56-.961l-2.32-4.887h-2.48v4.566c0 .855-.413 1.282-1.24 1.282h-.36c-.827 0-1.24-.427-1.24-1.282zm5.24 5.849c.774 0 1.374-.227 1.8-.681s.64-1.082.64-1.883c0-.775-.213-1.375-.64-1.803-.426-.427-1.013-.64-1.76-.64h-2.44v5.007zM447.016 58.04c4.522 0 8.357.577 11.505 1.731 3.148 1.155 5.608 2.22 7.382 3.197 1.507.8 2.394 1.865 2.66 3.197s.044 2.752-.665 4.262l-1.33 2.397c-.798 1.599-1.818 2.531-3.06 2.797-1.24.267-2.704.045-4.389-.666-1.507-.71-3.325-1.442-5.453-2.197-2.128-.755-4.61-1.132-7.448-1.132-2.927 0-5.188.577-6.784 1.731-1.596 1.155-2.394 2.797-2.394 4.928 0 1.865.82 3.375 2.46 4.529 1.641 1.154 3.725 2.176 6.252 3.064s5.232 1.842 8.114 2.863a40.313 40.313 0 018.113 3.93 20.588 20.588 0 016.251 6.126c1.64 2.487 2.461 5.639 2.461 9.457 0 3.02-.598 5.794-1.796 8.325-1.197 2.53-2.926 4.728-5.187 6.593-2.261 1.865-4.988 3.33-8.18 4.396s-6.739 1.598-10.64 1.598c-5.498 0-10.131-.8-13.9-2.398-3.768-1.598-6.672-3.107-8.712-4.528-1.507-.888-2.35-1.998-2.527-3.33-.177-1.332.222-2.753 1.197-4.262l1.596-2.398c.976-1.42 2.062-2.22 3.259-2.397s2.638.177 4.323 1.065c1.596.888 3.657 1.887 6.185 2.997s5.52 1.665 8.978 1.665c2.926 0 5.231-.622 6.916-1.865 1.685-1.243 2.527-2.93 2.527-5.061 0-1.865-.82-3.352-2.46-4.462-1.64-1.11-3.725-2.131-6.252-3.064s-5.231-1.931-8.113-2.997-5.587-2.397-8.114-3.995a20.588 20.588 0 01-6.251-6.127c-1.64-2.487-2.46-5.683-2.46-9.59 0-3.286.686-6.216 2.06-8.791a18.467 18.467 0 015.587-6.394c2.35-1.687 5.099-2.974 8.247-3.862s6.495-1.332 10.042-1.332zm-197.709 0c4.523 0 8.358.577 11.506 1.731 3.147 1.155 5.608 2.22 7.382 3.197 1.507.8 2.394 1.865 2.66 3.197s.044 2.752-.665 4.262l-1.33 2.397c-.798 1.599-1.818 2.531-3.06 2.797-1.241.267-2.704.045-4.389-.666-1.507-.71-3.325-1.442-5.453-2.197-2.128-.755-4.611-1.132-7.449-1.132-2.926 0-5.187.577-6.783 1.731-1.596 1.155-2.394 2.797-2.394 4.928 0 1.865.82 3.375 2.46 4.529s3.725 2.176 6.252 3.064c2.527.887 5.232 1.842 8.113 2.863s5.587 2.331 8.114 3.93a20.588 20.588 0 016.251 6.126c1.64 2.487 2.46 5.639 2.46 9.457 0 3.02-.598 5.794-1.795 8.325-1.197 2.53-2.926 4.728-5.187 6.593-2.261 1.865-4.988 3.33-8.18 4.396s-6.74 1.598-10.64 1.598c-5.498 0-10.131-.8-13.9-2.398s-6.672-3.107-8.712-4.528c-1.507-.888-2.35-1.998-2.527-3.33-.177-1.332.222-2.753 1.197-4.262l1.596-2.398c.975-1.42 2.062-2.22 3.259-2.397s2.638.177 4.323 1.065c1.596.888 3.657 1.887 6.184 2.997s5.52 1.665 8.978 1.665c2.927 0 5.232-.622 6.917-1.865 1.685-1.243 2.527-2.93 2.527-5.061 0-1.865-.82-3.352-2.46-4.462-1.641-1.11-3.725-2.131-6.252-3.064-2.527-.932-5.232-1.931-8.114-2.997a43.076 43.076 0 01-8.113-3.995 20.588 20.588 0 01-6.251-6.127c-1.64-2.487-2.461-5.683-2.461-9.59 0-3.286.687-6.216 2.062-8.791a18.467 18.467 0 015.586-6.394c2.35-1.687 5.099-2.974 8.246-3.862s6.496-1.332 10.042-1.332zM491.832 33c3.724 0 5.587 1.865 5.587 5.594v27.438c0 .888-.023 1.665-.067 2.331-.044.666-.11 1.266-.2 1.798a11.572 11.572 0 00-.132 1.599h.266c.798-1.599 1.928-3.22 3.391-4.862 1.463-1.643 3.192-3.13 5.188-4.462s4.256-2.397 6.783-3.197c2.527-.799 5.254-1.198 8.18-1.198 7.537 0 13.367 2.042 17.49 6.127s6.185 10.655 6.185 19.713v38.093c0 3.73-1.862 5.595-5.586 5.595h-5.72c-3.724 0-5.586-1.865-5.586-5.595v-34.63c0-4.174-.71-7.526-2.128-10.057-1.419-2.53-4.256-3.796-8.512-3.796-2.927 0-5.609.578-8.047 1.732s-4.5 2.73-6.185 4.728c-1.685 1.998-2.993 4.374-3.924 7.126-.93 2.753-1.396 5.728-1.396 8.924v25.973c0 3.73-1.863 5.595-5.587 5.595h-5.72c-3.723 0-5.585-1.865-5.585-5.595v-83.38c0-3.73 1.862-5.594 5.586-5.594zM403.46 59.639c3.636 0 5.454 1.865 5.454 5.594v56.741c0 3.73-1.818 5.595-5.454 5.595h-5.852c-3.636 0-5.453-1.865-5.453-5.595v-56.74c0-3.73 1.817-5.595 5.453-5.595zm-112.855 0c3.37 0 5.364 1.643 5.985 4.928l10.907 39.692c.177.977.332 1.865.465 2.664s.288 1.554.466 2.265c.177.799.31 1.554.399 2.264h.266c.089-.71.222-1.465.399-2.264.177-.71.332-1.465.465-2.265s.333-1.687.599-2.664l11.439-39.692c.62-3.196 2.66-4.795 6.118-4.795h5.054c3.281 0 5.32 1.599 6.119 4.795l11.305 39.692c.266.977.466 1.865.599 2.664s.288 1.554.465 2.265c.178.799.31 1.554.4 2.264h.265c.089-.71.222-1.465.4-2.264.177-.71.332-1.465.465-2.265.133-.799.332-1.687.598-2.664l10.774-39.692c.798-3.285 2.837-4.928 6.118-4.928h6.119c2.04 0 3.458.577 4.256 1.732.798 1.154.931 2.663.399 4.528l-17.424 57.008c-.887 3.108-2.97 4.662-6.251 4.662h-8.912c-3.37 0-5.453-1.599-6.251-4.795l-10.242-33.965a29.224 29.224 0 01-.665-2.664 52.115 52.115 0 00-.532-2.398c-.177-.799-.31-1.554-.399-2.264h-.266c-.177.71-.355 1.465-.532 2.264-.177.71-.355 1.51-.532 2.398a29.224 29.224 0 01-.665 2.664l-10.242 33.965c-.798 3.196-2.837 4.795-6.118 4.795h-9.177c-3.193 0-5.232-1.554-6.119-4.662l-17.557-57.008c-.532-1.865-.377-3.374.466-4.528.842-1.155 2.239-1.732 4.19-1.732z" fill="#4a4a49" fill-rule="nonzero"/><path d="M0 146.685c35.32 16.893 78.912 8.533 105.246-22.845C136.46 86.648 131.612 31.203 94.418 0L69.692 29.462c29.057 24.377 32.845 67.694 8.46 96.75C58.706 149.378 26.691 157.114 0 146.684" fill="url(#a)" transform="translate(50.006 20.581)"/><path d="M0 146.685c35.32 16.893 78.912 8.533 105.246-22.845a88.51 88.51 0 008.524-12.067c4.159-25.843-4.987-53.159-26.5-71.207a76.989 76.989 0 00-17.575-11.1c29.055 24.377 32.84 67.691 8.456 96.745C58.707 149.38 26.693 157.115 0 146.685" fill="url(#b)" transform="translate(50.006 20.581)"/><path d="M125.821 8.56C90.501-8.331 46.91.029 20.575 31.407c-31.214 37.192-26.366 92.637 10.828 123.84l24.727-29.462c-29.058-24.377-32.846-67.694-8.46-96.75C67.114 5.866 99.128-1.869 125.82 8.561" fill="url(#c)"/><path d="M125.821 8.56C90.501-8.331 46.91.029 20.575 31.407a88.492 88.492 0 00-8.524 12.067c-4.159 25.843 4.987 53.158 26.5 71.207a76.99 76.99 0 0017.575 11.1c-29.054-24.377-32.84-67.691-8.456-96.746C67.114 5.866 99.128-1.869 125.82 8.561" fill="url(#d)"/></g></svg>