<svg xmlns="http://www.w3.org/2000/svg" width="578" height="176"><linearGradient id="a" x1="80.815%" x2="59.868%" y1="59.637%" y2="8.15%"><stop offset="0" stop-color="#ef2131"/><stop offset="1" stop-color="#fecf2c"/></linearGradient><linearGradient id="b" x1="58.818%" x2="9.244%" y1="0%" y2="94.071%"><stop offset="0" stop-color="#fbc52c"/><stop offset=".264" stop-color="#f87130"/><stop offset=".561" stop-color="#ef52e2"/><stop offset="1" stop-color="#661eec"/></linearGradient><linearGradient id="c" x1="20.569%" x2="40.597%" y1="41.018%" y2="91.277%"><stop offset="0" stop-color="#78f6d8"/><stop offset=".266" stop-color="#77d1f6"/><stop offset=".554" stop-color="#70a4f3"/><stop offset="1" stop-color="#661eec"/></linearGradient><linearGradient id="d" x1="42.44%" x2="91.614%" y1="100%" y2="6.278%"><stop offset="0" stop-color="#536eed"/><stop offset=".247" stop-color="#54c3ec"/><stop offset=".564" stop-color="#64d769"/><stop offset="1" stop-color="#fecf2c"/></linearGradient><g fill="none" fill-rule="evenodd"><path fill="#4a4a49" fill-rule="nonzero" d="M549.059 48.903q0-3.044 1.12-5.708t3.04-4.647c1.92-1.983 2.78-2.363 4.5-3.124q2.58-1.143 5.54-1.142 3 0 5.62 1.142 2.621 1.14 4.56 3.124c1.939 1.984 2.314 2.871 3.061 4.647q1.12 2.664 1.12 5.708c0 3.044-.373 3.933-1.12 5.709q-1.12 2.664-3.06 4.646a14.3 14.3 0 0 1-4.56 3.125q-2.62 1.142-5.62 1.142-2.96 0-5.541-1.142a14.2 14.2 0 0 1-4.5-3.125q-1.92-1.982-3.04-4.646c-1.12-2.664-1.12-3.679-1.12-5.709m2.92 0q0 2.524.86 4.687t2.38 3.766c1.52 1.603 2.207 1.91 3.58 2.523s2.86.922 4.46.922q2.44 0 4.52-.922c2.08-.922 2.594-1.455 3.62-2.523s1.834-2.324 2.421-3.766q.88-2.163.88-4.687c0-2.524-.293-3.244-.88-4.687a11.8 11.8 0 0 0-2.42-3.765q-1.54-1.602-3.62-2.524c-2.08-.922-2.894-.921-4.52-.921q-2.4 0-4.46.921c-2.06.921-2.568 1.456-3.581 2.524s-1.807 2.323-2.38 3.765q-.86 2.164-.86 4.687m6.4-6.289q0-1.322 1.32-1.322h4.52q2.16 0 3.44 1.242t1.28 3.365q0 .88-.26 1.562c-.26.682-.393.848-.66 1.182q-.4.5-.88.821t-.96.44v.08q.04.041.12.161a.9.9 0 0 1 .16.26q.081.18.24.421l2.08 4.046q.36.68.16 1.102-.2.42-.88.42h-.48q-1.119 0-1.56-.961l-2.32-4.887h-2.48v4.566q0 1.282-1.24 1.282h-.36q-1.24 0-1.24-1.282zm5.24 5.849q1.161 0 1.8-.681c.639-.681.64-1.082.64-1.883q0-1.162-.64-1.803-.64-.64-1.76-.64h-2.44v5.007zM447.016 58.04q6.783 0 11.505 1.731t7.382 3.197q2.26 1.2 2.66 3.197c.4 1.997.044 2.752-.665 4.262l-1.33 2.397q-1.197 2.398-3.06 2.797-1.86.4-4.389-.666-2.26-1.065-5.453-2.197-3.192-1.132-7.448-1.132-4.39 0-6.784 1.731t-2.394 4.928q0 2.798 2.46 4.529 2.462 1.731 6.252 3.064a3099 3099 0 0 1 8.114 2.863 40.3 40.3 0 0 1 8.113 3.93 20.6 20.6 0 0 1 6.251 6.126q2.46 3.73 2.461 9.457 0 4.53-1.796 8.325t-5.187 6.593q-3.392 2.797-8.18 4.396c-4.788 1.599-6.739 1.598-10.64 1.598q-8.247 0-13.9-2.398-5.652-2.397-8.712-4.528-2.261-1.332-2.527-3.33t1.197-4.262l1.596-2.398q1.464-2.13 3.259-2.397c1.795-.267 2.638.177 4.323 1.065q2.394 1.332 6.185 2.997c3.791 1.665 5.52 1.665 8.978 1.665q4.389 0 6.916-1.865t2.527-5.061q0-2.797-2.46-4.462t-6.252-3.064c-3.792-1.399-5.231-1.931-8.113-2.997s-5.587-2.397-8.114-3.995a20.6 20.6 0 0 1-6.251-6.127q-2.46-3.73-2.46-9.59 0-4.929 2.06-8.791a18.5 18.5 0 0 1 5.587-6.394q3.525-2.53 8.247-3.862c4.722-1.332 6.495-1.332 10.042-1.332m-197.709 0q6.784 0 11.506 1.731 4.72 1.732 7.382 3.197 2.26 1.2 2.66 3.197c.4 1.997.044 2.752-.665 4.262l-1.33 2.397q-1.197 2.398-3.06 2.797-1.861.4-4.389-.666-2.26-1.065-5.453-2.197-3.192-1.132-7.449-1.132-4.389 0-6.783 1.731t-2.394 4.928q0 2.798 2.46 4.529c2.46 1.731 3.725 2.176 6.252 3.064q3.791 1.331 8.113 2.863c4.322 1.532 5.587 2.331 8.114 3.93a20.6 20.6 0 0 1 6.251 6.126q2.46 3.73 2.46 9.457 0 4.53-1.795 8.325-1.796 3.795-5.187 6.593t-8.18 4.396c-4.788 1.599-6.74 1.598-10.64 1.598q-8.247 0-13.9-2.398c-5.653-2.398-6.672-3.107-8.712-4.528q-2.261-1.332-2.527-3.33-.265-1.998 1.197-4.262l1.596-2.398q1.463-2.13 3.259-2.397c1.796-.267 2.638.177 4.323 1.065q2.394 1.332 6.184 2.997c3.79 1.665 5.52 1.665 8.978 1.665q4.39 0 6.917-1.865t2.527-5.061q0-2.797-2.46-4.462-2.462-1.665-6.252-3.064-3.79-1.398-8.114-2.997a43 43 0 0 1-8.113-3.995 20.6 20.6 0 0 1-6.251-6.127q-2.46-3.73-2.461-9.59 0-4.929 2.062-8.791a18.5 18.5 0 0 1 5.586-6.394q3.525-2.53 8.246-3.862c4.721-1.332 6.496-1.332 10.042-1.332M491.832 33q5.587 0 5.587 5.594v27.438q0 1.332-.067 2.331-.066 1-.2 1.798a12 12 0 0 0-.132 1.599h.266q1.197-2.399 3.391-4.862t5.188-4.462c2.994-1.998 4.256-2.397 6.783-3.197q3.79-1.198 8.18-1.198 11.305 0 17.49 6.127c6.185 6.127 6.185 10.655 6.185 19.713v38.093q0 5.595-5.586 5.595h-5.72q-5.586 0-5.586-5.595v-34.63q0-6.26-2.128-10.057-2.128-3.796-8.512-3.796-4.39 0-8.047 1.732c-3.657 1.732-4.5 2.73-6.185 4.728q-2.527 2.997-3.924 7.126t-1.396 8.924v25.973q0 5.595-5.587 5.595h-5.72q-5.585 0-5.585-5.595v-83.38q0-5.594 5.586-5.594zM403.46 59.639q5.454 0 5.454 5.594v56.741q0 5.595-5.454 5.595h-5.852q-5.453 0-5.453-5.595v-56.74q0-5.595 5.453-5.595zm-112.855 0q5.054 0 5.985 4.928l10.907 39.692q.265 1.466.465 2.664c.2 1.198.288 1.554.466 2.265q.266 1.199.399 2.264h.266q.133-1.065.399-2.264.265-1.065.465-2.265c.2-1.2.333-1.687.599-2.664l11.439-39.692q.93-4.794 6.118-4.795h5.054q4.921 0 6.119 4.795l11.305 39.692q.4 1.466.599 2.664c.199 1.198.288 1.554.465 2.265q.266 1.199.4 2.264h.265q.133-1.065.4-2.264.266-1.065.465-2.265.2-1.198.598-2.664l10.774-39.692q1.197-4.928 6.118-4.928h6.119q3.06 0 4.256 1.732 1.197 1.73.399 4.528l-17.424 57.008q-1.33 4.662-6.251 4.662h-8.912q-5.054 0-6.251-4.795l-10.242-33.965a29 29 0 0 1-.665-2.664 52 52 0 0 0-.532-2.398 25 25 0 0 1-.399-2.264h-.266a89 89 0 0 0-.532 2.264q-.266 1.066-.532 2.398a29 29 0 0 1-.665 2.664l-10.242 33.965q-1.197 4.794-6.118 4.795h-9.177q-4.789 0-6.119-4.662l-17.557-57.008q-.798-2.797.466-4.528 1.263-1.732 4.19-1.732z"/><path fill="url(#a)" d="M0 146.685c35.32 16.893 78.912 8.533 105.246-22.845C136.46 86.648 131.612 31.203 94.418 0L69.692 29.462c29.057 24.377 32.845 67.694 8.46 96.75C58.706 149.378 26.691 157.114 0 146.684" transform="translate(50.006 20.581)"/><path fill="url(#b)" d="M0 146.685c35.32 16.893 78.912 8.533 105.246-22.845a88.5 88.5 0 0 0 8.524-12.067c4.159-25.843-4.987-53.159-26.5-71.207a77 77 0 0 0-17.575-11.1c29.055 24.377 32.84 67.691 8.456 96.745C58.707 149.38 26.693 157.115 0 146.685" transform="translate(50.006 20.581)"/><path fill="url(#c)" d="M125.821 8.56C90.501-8.331 46.91.029 20.575 31.407c-31.214 37.192-26.366 92.637 10.828 123.84l24.727-29.462c-29.058-24.377-32.846-67.694-8.46-96.75C67.114 5.866 99.128-1.869 125.82 8.561"/><path fill="url(#d)" d="M125.821 8.56C90.501-8.331 46.91.029 20.575 31.407a88.5 88.5 0 0 0-8.524 12.067c-4.159 25.843 4.987 53.158 26.5 71.207a77 77 0 0 0 17.575 11.1c-29.054-24.377-32.84-67.691-8.456-96.746C67.114 5.866 99.128-1.869 125.82 8.561"/></g></svg>