<svg xmlns="http://www.w3.org/2000/svg" width="640" height="360"><path fill="#2C3341" fill-rule="evenodd" d="M470 164.794v97.581c0 8.291-6.716 15.013-15 15.013H185c-8.284 0-15-6.722-15-15.013v-97.58h300ZM292.548 232.5h-80.133c-2.766 0-5.009 2.26-5.009 5.05 0 2.704 2.109 4.912 4.759 5.044l.25.006h80.133c2.766 0 5.008-2.261 5.008-5.05 0-2.79-2.242-5.05-5.008-5.05Zm-45.241-25.062h-34.913c-2.755 0-4.988 2.26-4.988 5.05 0 2.704 2.1 4.912 4.74 5.043l.248.006h34.913c2.754 0 4.987-2.26 4.987-5.05 0-2.788-2.233-5.05-4.987-5.05Zm57.606 0H270c-2.755 0-4.988 2.26-4.988 5.05 0 2.704 2.1 4.912 4.74 5.043l.248.006h34.913c2.754 0 4.987-2.26 4.987-5.05 0-2.788-2.233-5.05-4.987-5.05Zm57.606 0h-34.913c-2.755 0-4.988 2.26-4.988 5.05 0 2.704 2.1 4.912 4.74 5.043l.248.006h34.913c2.754 0 4.987-2.26 4.987-5.05 0-2.704-2.1-4.912-4.738-5.043l-.25-.006Zm57.606 0h-34.913c-2.755 0-4.988 2.26-4.988 5.05 0 2.704 2.1 4.912 4.739 5.043l.249.006h34.913c2.754 0 4.987-2.26 4.987-5.05 0-2.704-2.1-4.912-4.738-5.043l-.25-.006ZM455 82.5c8.284 0 15 6.699 15 14.963v22.443H170V97.463c0-8.264 6.716-14.963 15-14.963h270Z"/></svg>