<svg xmlns="http://www.w3.org/2000/svg" xmlns:xlink="http://www.w3.org/1999/xlink" width="512" height="512" fill="none"><linearGradient id="a"><stop offset="0" stop-color="#504678"/><stop offset=".302" stop-color="#504678" stop-opacity=".616"/><stop offset=".608" stop-color="#504678" stop-opacity=".283"/><stop offset=".852" stop-color="#504678" stop-opacity=".076"/><stop offset="1" stop-color="#504678" stop-opacity="0"/></linearGradient><linearGradient xlink:href="#a" id="b" x1="300.488" x2="290.829" y1="163.592" y2="50.909" gradientUnits="userSpaceOnUse"/><linearGradient xlink:href="#a" id="c" x1="334.779" x2="340.836" y1="244.872" y2="371.133" gradientUnits="userSpaceOnUse"/><linearGradient id="d" x1="218.65" x2="336.851" y1="255.598" y2="175.018" gradientUnits="userSpaceOnUse"><stop offset="0" stop-color="#504678"/><stop offset=".179" stop-color="#504678" stop-opacity=".872"/><stop offset=".526" stop-color="#504678" stop-opacity=".536"/><stop offset="1" stop-color="#504678" stop-opacity="0"/></linearGradient><linearGradient id="e" x1="320.055" x2="314.812" y1="176.828" y2="134.893" gradientUnits="userSpaceOnUse"><stop offset="0" stop-color="#504678"/><stop offset=".643" stop-color="#504678" stop-opacity=".332"/><stop offset="1" stop-color="#504678" stop-opacity="0"/></linearGradient><path fill="#fff" d="M209.721 512a43.32 43.32 0 0 1-40.017-26.722l-149.4-360.664c-9.14-22.068 1.337-47.367 23.404-56.51L200.19 3.293A43.24 43.24 0 0 1 256.693 26.7l149.401 360.678c9.125 22.062-1.35 47.345-23.405 56.488l-156.482 64.839A43 43 0 0 1 209.721 512m7.022-488.73a19.9 19.9 0 0 0-7.638 1.536L52.615 89.615a19.96 19.96 0 0 0-10.8 26.084l149.401 360.686c4.229 10.177 15.896 15.011 26.084 10.808l156.482-64.854a19.96 19.96 0 0 0 10.8-26.084L235.181 35.606a20 20 0 0 0-18.438-12.337"/><path fill="url(#b)" d="m266.557 50.487-21.513 8.911 59.153 142.809 21.513-8.911z" opacity=".5"/><path fill="url(#c)" d="m374.642 372.3 21.513-8.911-66.959-161.654-21.513 8.911z" opacity=".5"/><path fill="#fff" d="M347.476 265.146c-44.753 18.557-82.12 44.137-106.586 74.971L177.811 187.77a266.35 266.35 0 0 1 106.585-74.971c44.753-18.558 89.965-27.54 128.379-22.306l63.095 152.34a266.25 266.25 0 0 0-128.394 22.313"/><g opacity=".25"><path fill="url(#d)" d="M347.475 265.144c-44.753 18.557-82.12 44.137-106.586 74.971L177.81 187.768a266.35 266.35 0 0 1 106.585-74.971c44.753-18.558 89.965-27.54 128.379-22.306l63.095 152.34a266.25 266.25 0 0 0-128.394 22.313" opacity=".9"/><path fill="url(#e)" d="M347.475 265.144c-44.753 18.557-82.12 44.137-106.586 74.971L177.81 187.768a266.35 266.35 0 0 1 106.585-74.971c44.753-18.558 89.965-27.54 128.379-22.306l63.095 152.34a266.25 266.25 0 0 0-128.394 22.313" opacity=".7"/></g><path fill="#fff" d="M368.03 311.597c-48.442 0-92.786 9.36-127.154 28.467v-154.04a266.4 266.4 0 0 1 127.154-28.467c48.442 0 93.655 8.982 127.147 28.504v154.04a266.25 266.25 0 0 0-127.147-28.504"/></svg>