<svg fill="none" height="512" width="512" xmlns="http://www.w3.org/2000/svg" xmlns:xlink="http://www.w3.org/1999/xlink"><linearGradient id="a"><stop offset="0" stop-color="#504678"/><stop offset=".302" stop-color="#504678" stop-opacity=".616"/><stop offset=".608" stop-color="#504678" stop-opacity=".283"/><stop offset=".852" stop-color="#504678" stop-opacity=".076"/><stop offset="1" stop-color="#504678" stop-opacity="0"/></linearGradient><linearGradient id="b" gradientUnits="userSpaceOnUse" x1="300.488" x2="290.829" xlink:href="#a" y1="163.592" y2="50.909"/><linearGradient id="c" gradientUnits="userSpaceOnUse" x1="334.779" x2="340.836" xlink:href="#a" y1="244.872" y2="371.133"/><linearGradient id="d" gradientUnits="userSpaceOnUse" x1="218.65" x2="336.851" y1="255.598" y2="175.018"><stop offset="0" stop-color="#504678"/><stop offset=".179" stop-color="#504678" stop-opacity=".872"/><stop offset=".526" stop-color="#504678" stop-opacity=".536"/><stop offset="1" stop-color="#504678" stop-opacity="0"/></linearGradient><linearGradient id="e" gradientUnits="userSpaceOnUse" x1="320.055" x2="314.812" y1="176.828" y2="134.893"><stop offset="0" stop-color="#504678"/><stop offset=".643" stop-color="#504678" stop-opacity=".332"/><stop offset="1" stop-color="#504678" stop-opacity="0"/></linearGradient><path d="M209.721 512a43.32 43.32 0 01-40.017-26.722l-149.4-360.664c-9.14-22.068 1.337-47.367 23.404-56.51L200.19 3.293A43.239 43.239 0 01256.693 26.7l149.401 360.678c9.125 22.062-1.35 47.345-23.405 56.488l-156.482 64.839A43.027 43.027 0 01209.721 512zm7.022-488.73a19.917 19.917 0 00-7.638 1.536L52.615 89.615a19.96 19.96 0 00-10.8 26.084l149.401 360.686c4.229 10.177 15.896 15.011 26.084 10.808l156.482-64.854a19.96 19.96 0 0010.8-26.084L235.181 35.606a19.996 19.996 0 00-18.438-12.337z" fill="#fff"/><path d="M266.557 50.487l-21.513 8.911 59.153 142.809 21.513-8.911z" fill="url(#b)" opacity=".5"/><path d="M374.642 372.3l21.513-8.911-66.959-161.654-21.513 8.911z" fill="url(#c)" opacity=".5"/><path d="M347.476 265.146c-44.753 18.557-82.12 44.137-106.586 74.971L177.811 187.77a266.353 266.353 0 01106.585-74.971c44.753-18.558 89.965-27.54 128.379-22.306l63.095 152.34a266.252 266.252 0 00-128.394 22.313z" fill="#fff"/><g opacity=".25"><path d="M347.475 265.144c-44.753 18.557-82.12 44.137-106.586 74.971L177.81 187.768a266.353 266.353 0 01106.585-74.971c44.753-18.558 89.965-27.54 128.379-22.306l63.095 152.34a266.252 266.252 0 00-128.394 22.313z" fill="url(#d)" opacity=".9"/><path d="M347.475 265.144c-44.753 18.557-82.12 44.137-106.586 74.971L177.81 187.768a266.353 266.353 0 01106.585-74.971c44.753-18.558 89.965-27.54 128.379-22.306l63.095 152.34a266.252 266.252 0 00-128.394 22.313z" fill="url(#e)" opacity=".7"/></g><path d="M368.03 311.597c-48.442 0-92.786 9.36-127.154 28.467v-154.04a266.371 266.371 0 01127.154-28.467c48.442 0 93.655 8.982 127.147 28.504v154.04a266.25 266.25 0 00-127.147-28.504z" fill="#fff"/></svg>