<svg width="51" height="32" xmlns="http://www.w3.org/2000/svg"><path fill="#fff" stroke="#d0d0d0" stroke-linecap="round" stroke-linejoin="round" d="M.5.5h50v31H.5z"/><path fill="#5a78ff" d="M8.012 18.362l1.424-4.502a.148.148 0 01.132-.113h.715a.175.175 0 01.14.113l1.109 2.84c.021.057.078.062.097 0l1.1-2.84a.175.175 0 01.14-.113h.715c.064.005.117.05.132.113l1.408 4.502a.108.108 0 01-.105.153h-.85a.124.124 0 01-.126-.097l-.904-2.923c-.013-.057-.078-.057-.097 0l-1.079 2.902a.159.159 0 01-.154.118h-.499c-.078 0-.118-.043-.148-.118l-1.1-2.902c-.022-.057-.079-.057-.092 0l-.925 2.923a.127.127 0 01-.132.097h-.81a.105.105 0 01-.091-.153zm7.382-1.619a1.888 1.888 0 111.888 1.85 1.826 1.826 0 01-1.888-1.85zm2.805 0a.928.928 0 10-.917.99.952.952 0 00.911-.99zm2.632 1.481c-.07-.057-.132-.035-.132.062v.092c0 .07-.056.129-.127.132h-.658a.138.138 0 01-.132-.132v-4.502a.138.138 0 01.132-.132h.693c.071.003.127.061.127.132v1.284c0 .092.062.119.162.049a1.54 1.54 0 01.92-.308c.96 0 1.696.81 1.696 1.85a1.77 1.77 0 01-1.726 1.85 1.434 1.434 0 01-.955-.377zm1.726-1.473a.928.928 0 10-1.85 0 .939.939 0 00.92.974.952.952 0 00.93-.982zm1.535-2.678a.54.54 0 111.079 0 .54.54 0 01-1.08 0zm.048 4.316v-3.264c0-.07.056-.13.127-.132h.693a.138.138 0 01.143.132v3.253a.138.138 0 01-.132.132h-.704a.132.132 0 01-.127-.132zm1.735-1.068v-3.445c0-.07.056-.129.126-.132h.694c.071.003.129.06.132.132v3.466c0 .224.097.372.342.372a.132.132 0 01.132.132v.575a.132.132 0 01-.132.127c-.922 0-1.294-.302-1.294-1.227zm1.685-.556a1.823 1.823 0 113.647.013c0 .127-.035.232-.162.232h-2.411c-.062 0-.084.035-.078.092a.81.81 0 00.863.693c.256.004.5-.107.666-.302a.27.27 0 01.224-.113h.644c.114 0 .162.078.119.189a1.848 1.848 0 01-3.506-.81zm2.56-.324c.048 0 .07-.021.062-.078a.81.81 0 00-.81-.658.83.83 0 00-.808.64c-.014.048 0 .096.056.096zm1.67 1.937v-4.502c0-.07.055-.129.126-.132h2.209c1.009 0 1.697.588 1.697 1.578 0 .99-.78 1.6-1.745 1.6h-1.171a.116.116 0 00-.127.132v1.324a.138.138 0 01-.132.132h-.728a.132.132 0 01-.13-.132zm2.287-2.271a.76.76 0 00.736-.78.72.72 0 00-.74-.741h-1.178c-.083 0-.119.043-.119.126v1.276c0 .084.036.127.12.127zm2.084.636a1.782 1.782 0 011.74-1.85c.344.002.676.13.933.359.062.056.132.048.132-.035v-.092c0-.07.057-.127.127-.127h.658c.072.003.13.06.132.132v2.315c0 .175.062.253.184.27.063 0 .114.05.118.113v.61a.119.119 0 01-.118.118c-.464 0-.737-.132-.89-.4-.043-.07-.092-.083-.162-.013a1.548 1.548 0 01-1.13.47 1.777 1.777 0 01-1.724-1.87zm2.805 0a.925.925 0 10-1.845 0 .925.925 0 101.845 0zm1.546 3.002v-.574a.132.132 0 01.132-.127.984.984 0 001.009-.674.389.389 0 00-.027-.27l-1.29-2.918a.127.127 0 01.114-.19h.693c.07 0 .113.058.14.128l.81 1.866c.056.148.148.14.21 0l.77-1.872c.028-.07.063-.113.133-.113h.666a.121.121 0 01.119.167l-1.327 3.14c-.483 1.143-.995 1.57-2.02 1.57a.137.137 0 01-.132-.133z"/></svg>