<svg fill="none" height="360" width="640" xmlns="http://www.w3.org/2000/svg" xmlns:xlink="http://www.w3.org/1999/xlink"><linearGradient id="a"><stop offset="0" stop-color="#504678"/><stop offset=".302" stop-color="#504678" stop-opacity=".616"/><stop offset=".608" stop-color="#504678" stop-opacity=".283"/><stop offset=".852" stop-color="#504678" stop-opacity=".076"/><stop offset="1" stop-color="#504678" stop-opacity="0"/></linearGradient><linearGradient id="b" gradientUnits="userSpaceOnUse" x1="155.347" x2="152.235" xlink:href="#a" y1="150.712" y2="114.403"/><linearGradient id="c" gradientUnits="userSpaceOnUse" x1="166.396" x2="168.348" xlink:href="#a" y1="176.903" y2="217.587"/><linearGradient id="d" gradientUnits="userSpaceOnUse" x1="128.977" x2="167.064" y1="180.36" y2="154.396"><stop offset="0" stop-color="#504678"/><stop offset=".179" stop-color="#504678" stop-opacity=".872"/><stop offset=".526" stop-color="#504678" stop-opacity=".536"/><stop offset="1" stop-color="#504678" stop-opacity="0"/></linearGradient><linearGradient id="e" gradientUnits="userSpaceOnUse" x1="161.652" x2="159.963" y1="154.979" y2="141.466"><stop offset="0" stop-color="#504678"/><stop offset=".643" stop-color="#504678" stop-opacity=".332"/><stop offset="1" stop-color="#504678" stop-opacity="0"/></linearGradient><path d="M126.099 262.979a13.96 13.96 0 01-12.894-8.611l-48.14-116.214c-2.946-7.111.43-15.263 7.54-18.209l50.423-20.884a13.934 13.934 0 0118.207 7.542l48.14 116.219c2.941 7.109-.435 15.256-7.541 18.202l-50.422 20.893a13.898 13.898 0 01-5.313 1.062zm2.263-157.481a6.418 6.418 0 00-2.461.495l-50.425 20.883a6.43 6.43 0 00-3.48 8.405l48.14 116.222a6.441 6.441 0 008.405 3.482l50.423-20.897a6.435 6.435 0 003.48-8.405l-48.141-116.21a6.442 6.442 0 00-5.941-3.975z" fill="#fff"/><path d="M144.413 114.267l-6.932 2.872 19.061 46.016 6.932-2.871z" fill="url(#b)" opacity=".5"/><path d="M179.241 217.963l6.932-2.871-21.576-52.089-6.932 2.872z" fill="url(#c)" opacity=".5"/><path d="M170.487 183.436c-14.421 5.98-26.461 14.222-34.345 24.158l-20.326-49.09a85.834 85.834 0 0134.345-24.158c14.42-5.979 28.989-8.873 41.367-7.187l20.33 49.088a85.79 85.79 0 00-41.371 7.189z" fill="#fff"/><g opacity=".25"><path d="M170.488 183.436c-14.421 5.98-26.461 14.222-34.345 24.158l-20.326-49.09a85.834 85.834 0 0134.345-24.158c14.42-5.979 28.989-8.873 41.367-7.187l20.33 49.088a85.79 85.79 0 00-41.371 7.189z" fill="url(#d)" opacity=".9"/><path d="M170.488 183.436c-14.421 5.98-26.461 14.222-34.345 24.158l-20.326-49.09a85.834 85.834 0 0134.345-24.158c14.42-5.979 28.989-8.873 41.367-7.187l20.33 49.088a85.79 85.79 0 00-41.371 7.189z" fill="url(#e)" opacity=".7"/></g><path d="M177.11 198.405c-15.609 0-29.898 3.016-40.972 9.172v-49.635a85.84 85.84 0 0140.972-9.173c15.609 0 30.178 2.894 40.97 9.185v49.635a85.804 85.804 0 00-40.97-9.184zm79.739.045l12.629-39.92a1.314 1.314 0 011.172-1.004h6.338a1.555 1.555 0 011.244 1.004l9.83 25.186c.192.503.694.55.861 0l9.759-25.186a1.554 1.554 0 011.244-1.004h6.338c.567.046 1.04.451 1.172 1.004l12.485 39.92a.954.954 0 01-.932 1.363h-7.535a1.1 1.1 0 01-1.124-.861l-8.012-25.927c-.12-.502-.694-.502-.862 0l-9.567 25.736a1.41 1.41 0 01-1.363 1.052h-4.425c-.694 0-1.052-.382-1.316-1.052l-9.758-25.736c-.192-.502-.694-.502-.813 0l-8.204 25.927c-.128.535-.624.9-1.172.861h-7.176a.931.931 0 01-.813-1.363zm65.464-14.351a16.742 16.742 0 0128.459-12.293 16.743 16.743 0 01-11.716 28.701 16.19 16.19 0 01-16.743-16.408zm24.875 0a8.229 8.229 0 10-8.132 8.778 8.445 8.445 0 008.085-8.778zm23.345 13.131c-.622-.502-1.172-.311-1.172.55v.814c0 .629-.496 1.146-1.124 1.172H362.4a1.222 1.222 0 01-1.172-1.172v-39.92a1.22 1.22 0 011.172-1.172h6.147a1.172 1.172 0 011.125 1.172v11.385c0 .813.55 1.052 1.435.43a13.659 13.659 0 018.156-2.726c8.515 0 15.045 7.175 15.045 16.408A15.692 15.692 0 01379 200.579a12.721 12.721 0 01-8.467-3.349zm15.307-13.059a8.225 8.225 0 00-12.497-7.646 8.228 8.228 0 00-3.911 7.646 8.327 8.327 0 008.157 8.634 8.44 8.44 0 008.251-8.706zm13.61-23.751a4.784 4.784 0 119.568 0 4.784 4.784 0 01-9.568 0zm.43 38.269v-28.941c0-.629.496-1.146 1.125-1.172h6.147a1.22 1.22 0 011.267 1.172v28.846a1.22 1.22 0 01-1.172 1.172h-6.242a1.173 1.173 0 01-1.125-1.172zm15.38-9.471v-30.544a1.171 1.171 0 011.124-1.172h6.147a1.219 1.219 0 011.172 1.172v30.735c0 1.985.861 3.301 3.038 3.301a1.172 1.172 0 011.172 1.172v5.094a1.171 1.171 0 01-1.172 1.124c-8.18 0-11.481-2.678-11.481-10.882zm14.949-4.928a16.167 16.167 0 0124.305-13.913 16.17 16.17 0 018.033 14.033c0 1.124-.311 2.057-1.436 2.057h-21.383c-.55 0-.741.311-.693.813a7.175 7.175 0 007.654 6.147 7.607 7.607 0 005.908-2.679 2.39 2.39 0 011.985-1.004h5.716c1.005 0 1.435.693 1.053 1.674a16.384 16.384 0 01-31.094-7.175zm22.698-2.87c.431 0 .622-.191.551-.693a7.177 7.177 0 00-7.176-5.837 7.366 7.366 0 00-7.175 5.669c-.12.431 0 .861.502.861zm14.806 17.174v-39.92a1.171 1.171 0 011.124-1.172h19.589c8.946 0 15.045 5.214 15.045 13.992s-6.913 14.184-15.475 14.184h-10.381a1.029 1.029 0 00-1.124 1.172v11.744a1.221 1.221 0 01-1.172 1.172h-6.458a1.172 1.172 0 01-1.148-1.172zm20.283-20.14a6.745 6.745 0 006.529-6.912 6.384 6.384 0 00-6.553-6.578h-10.453c-.741 0-1.052.383-1.052 1.124v11.314c0 .741.311 1.124 1.052 1.124zm18.489 5.645a15.81 15.81 0 0115.427-16.408 12.537 12.537 0 018.276 3.181c.55.502 1.172.431 1.172-.311v-.813c0-.621.503-1.124 1.124-1.124h5.836a1.22 1.22 0 011.172 1.172v20.522c0 1.554.55 2.248 1.626 2.392a1.076 1.076 0 011.053 1.004v5.406c0 .581-.471 1.052-1.053 1.052-4.114 0-6.529-1.172-7.893-3.54-.382-.622-.813-.741-1.435-.119a13.73 13.73 0 01-10.022 4.161 15.762 15.762 0 01-15.283-16.575zm24.875 0a8.204 8.204 0 10-16.361 0 8.204 8.204 0 1016.361 0zm13.705 26.621v-5.094a1.173 1.173 0 011.172-1.125 8.729 8.729 0 008.945-5.979c.21-.8.125-1.649-.239-2.392l-11.433-25.88a1.126 1.126 0 011.005-1.674h6.147c.622 0 1.004.502 1.244 1.124l7.175 16.552c.502 1.315 1.316 1.243 1.866 0l6.84-16.6c.239-.622.55-1.004 1.172-1.004h5.908a1.077 1.077 0 011.053 1.483l-11.768 27.841c-4.282 10.141-8.826 13.92-17.915 13.92a1.219 1.219 0 01-1.172-1.172z" fill="#fff"/></svg>