<svg width="640" height="360" xmlns="http://www.w3.org/2000/svg"><path fill="#5a78ff" d="M138.218 257.823a13.087 13.087 0 01-12.088-8.072L80.998 140.8c-2.761-6.667.404-14.31 7.07-17.071l47.27-19.578a13.063 13.063 0 0117.07 7.07l45.131 108.955c2.757 6.665-.408 14.303-7.07 17.065l-47.27 19.587a13.03 13.03 0 01-4.981.995zm2.121-147.638c-.792 0-1.576.16-2.307.464L90.76 130.227a6.029 6.029 0 00-3.263 7.88l45.131 108.958a6.039 6.039 0 007.88 3.264l47.272-19.59a6.033 6.033 0 003.262-7.88L145.91 113.911a6.04 6.04 0 00-5.57-3.727z"/><linearGradient id="a" x1="165.638" y1="152.573" x2="162.72" y2="118.533" gradientUnits="userSpaceOnUse"><stop offset="0" stop-color="#504678"/><stop offset=".302" stop-color="#504678" stop-opacity=".616"/><stop offset=".608" stop-color="#504678" stop-opacity=".283"/><stop offset=".852" stop-color="#504678" stop-opacity=".076"/><stop offset="1" stop-color="#504678" stop-opacity="0"/></linearGradient><path fill="url(#a)" opacity=".7" d="M155.387 118.406l-6.499 2.692 17.87 43.14 6.499-2.691z"/><linearGradient id="b" x1="175.996" y1="177.127" x2="177.826" y2="215.268" gradientUnits="userSpaceOnUse"><stop offset="0" stop-color="#504678"/><stop offset=".302" stop-color="#504678" stop-opacity=".616"/><stop offset=".608" stop-color="#504678" stop-opacity=".283"/><stop offset=".852" stop-color="#504678" stop-opacity=".076"/><stop offset="1" stop-color="#504678" stop-opacity="0"/></linearGradient><path fill="url(#b)" opacity=".7" d="M188.038 215.62l6.5-2.69-20.228-48.834-6.5 2.692z"/><path fill="#5a78ff" d="M179.832 183.252c-13.52 5.606-24.808 13.333-32.199 22.648l-19.056-46.022a80.47 80.47 0 0132.199-22.648c13.519-5.605 27.177-8.318 38.781-6.738l19.06 46.02a80.429 80.429 0 00-38.785 6.74z"/><linearGradient id="c" x1="140.916" y1="180.368" x2="176.622" y2="156.027" gradientUnits="userSpaceOnUse"><stop offset="0" stop-color="#504678"/><stop offset=".179" stop-color="#504678" stop-opacity=".872"/><stop offset=".526" stop-color="#504678" stop-opacity=".536"/><stop offset="1" stop-color="#504678" stop-opacity="0"/></linearGradient><path fill="url(#c)" opacity=".9" d="M179.832 183.252c-13.52 5.606-24.807 13.333-32.198 22.648l-19.056-46.022a80.47 80.47 0 0132.199-22.648c13.519-5.605 27.177-8.318 38.781-6.738l19.06 46.02a80.429 80.429 0 00-38.786 6.74z"/><linearGradient id="d" x1="171.549" y1="156.573" x2="169.965" y2="143.905" gradientUnits="userSpaceOnUse"><stop offset="0" stop-color="#504678"/><stop offset=".643" stop-color="#504678" stop-opacity=".332"/><stop offset="1" stop-color="#504678" stop-opacity="0"/></linearGradient><path fill="url(#d)" opacity=".7" d="M179.832 183.252c-13.52 5.606-24.807 13.333-32.198 22.648l-19.056-46.022a80.47 80.47 0 0132.199-22.648c13.519-5.605 27.177-8.318 38.781-6.738l19.06 46.02a80.429 80.429 0 00-38.786 6.74z"/><path fill="#5a78ff" d="M186.04 197.285c-14.633 0-28.029 2.828-38.41 8.599v-46.533a80.475 80.475 0 0138.41-8.6c14.634 0 28.292 2.714 38.41 8.611v46.533a80.442 80.442 0 00-38.41-8.61zm74.756.042l11.84-37.425a1.232 1.232 0 011.098-.94h5.942c.533.073.98.436 1.166.94l9.216 23.612c.18.472.65.516.807 0l9.15-23.612a1.457 1.457 0 011.166-.94h5.941c.532.042.975.422 1.1.94l11.704 37.425a.895.895 0 01-.874 1.278h-7.064c-.5.024-.945-.318-1.054-.807l-7.51-24.306c-.113-.471-.652-.471-.809 0l-8.97 24.127a1.322 1.322 0 01-1.277.986h-4.148c-.65 0-.987-.358-1.234-.986l-9.148-24.127c-.18-.471-.65-.471-.762 0l-7.692 24.306c-.12.502-.585.844-1.098.807h-6.728a.873.873 0 01-.762-1.278zm61.372-13.454a15.696 15.696 0 0126.68-11.524 15.697 15.697 0 01-10.983 26.907 15.179 15.179 0 01-15.697-15.383zm23.32 0a7.714 7.714 0 10-7.624 8.23 7.917 7.917 0 007.58-8.23zm21.887 12.31c-.583-.47-1.1-.29-1.1.516v.763a1.1 1.1 0 01-1.053 1.1h-5.472a1.145 1.145 0 01-1.099-1.1v-37.425a1.144 1.144 0 011.099-1.098h5.763c.59.023 1.055.509 1.055 1.098v10.674c0 .762.515.986 1.345.403a12.805 12.805 0 017.646-2.556c7.983 0 14.105 6.727 14.105 15.383a14.711 14.711 0 01-14.351 15.382 11.926 11.926 0 01-7.938-3.14zm14.35-12.242a7.711 7.711 0 00-11.716-7.168 7.714 7.714 0 00-3.667 7.168 7.806 7.806 0 007.648 8.094 7.913 7.913 0 007.735-8.162zm12.76-22.267a4.485 4.485 0 118.97 0 4.485 4.485 0 01-8.97 0zm.403 35.878v-27.133a1.1 1.1 0 011.054-1.098h5.763a1.144 1.144 0 011.188 1.098v27.043a1.144 1.144 0 01-1.099 1.1h-5.852a1.1 1.1 0 01-1.054-1.1zm14.418-8.88v-28.635c0-.59.465-1.075 1.054-1.098h5.763a1.143 1.143 0 011.099 1.098v28.815c0 1.86.807 3.094 2.848 3.094a1.098 1.098 0 011.098 1.099v4.776a1.098 1.098 0 01-1.098 1.053c-7.669 0-10.764-2.51-10.764-10.202zm14.015-4.62a15.157 15.157 0 0122.786-13.043 15.16 15.16 0 017.53 13.156c0 1.054-.29 1.928-1.345 1.928h-20.047c-.516 0-.695.292-.65.763a6.727 6.727 0 007.176 5.762 7.131 7.131 0 005.539-2.511 2.24 2.24 0 011.86-.941h5.36c.942 0 1.345.65.987 1.569a15.36 15.36 0 01-29.151-6.727zm21.28-2.69c.403 0 .582-.18.516-.65a6.729 6.729 0 00-6.728-5.472 6.906 6.906 0 00-6.726 5.315c-.113.404 0 .807.47.807zm13.88 16.1v-37.425c-.001-.59.465-1.075 1.054-1.098h18.364c8.387 0 14.105 4.888 14.105 13.117 0 8.23-6.48 13.298-14.508 13.298h-9.732a.965.965 0 00-1.054 1.098v11.01a1.145 1.145 0 01-1.098 1.1h-6.055a1.099 1.099 0 01-1.076-1.1zm19.015-18.88a6.323 6.323 0 006.121-6.48 5.985 5.985 0 00-6.143-6.167h-9.8c-.695 0-.986.358-.986 1.053v10.607c0 .695.291 1.054.986 1.054zm17.334 5.291a14.82 14.82 0 0114.463-15.383 11.754 11.754 0 017.758 2.983c.516.47 1.099.404 1.099-.291v-.763c0-.582.472-1.053 1.054-1.053h5.471a1.143 1.143 0 011.099 1.098v19.24c0 1.457.515 2.107 1.524 2.242.524.01.953.42.987.941v5.069a.986.986 0 01-.987.986c-3.857 0-6.12-1.099-7.4-3.319-.358-.583-.762-.695-1.345-.111a12.871 12.871 0 01-9.395 3.9 14.777 14.777 0 01-14.328-15.539zm23.32 0a7.691 7.691 0 10-15.338 0 7.691 7.691 0 1015.338 0zm12.848 24.958v-4.776a1.1 1.1 0 011.1-1.055 8.183 8.183 0 008.385-5.605 3.232 3.232 0 00-.224-2.243l-10.718-24.262a1.055 1.055 0 01.942-1.57h5.763c.583 0 .941.471 1.166 1.054l6.726 15.518c.471 1.233 1.234 1.165 1.75 0l6.412-15.563c.224-.583.516-.94 1.1-.94h5.538a1.01 1.01 0 01.987 1.39l-11.032 26.1c-4.015 9.508-8.275 13.05-16.796 13.05a1.143 1.143 0 01-1.099-1.098z"/></svg>