<svg xmlns="http://www.w3.org/2000/svg" width="640" height="360"><g fill="none" fill-rule="nonzero"><path fill="#00AEEF" d="M321.576 164.33c30.424 0 55.173-24.895 55.173-55.499 0-30.603-24.749-55.498-55.173-55.498-30.423 0-55.172 24.895-55.172 55.498 0 30.604 24.749 55.499 55.172 55.499"/><path fill="#00AEEF" d="M362.246 153.706c-10.561 11.417-29.005 22.992-52.808 22.992-18.443 0-34.364-7.136-44.453-15.222C204.768 167.818 160 176.698 160 176.698v24.578h319.527v-50.583s-54.7-.317-117.28 3.013"/><path fill="#003665" d="M197.99 273.107v29.81H160v-79.442h37.99v35.678h.158l22.384-35.678h45.557l-33.419 41.069 31.527 38.373H220.69l-22.542-29.81h-.158M272.236 223.475h76.769c19.862 0 26.483 7.77 26.483 19.98 0 13.636-12.138 19.503-24.434 20.138v.158c12.769.952 25.064 2.379 25.064 18.552 0 10.466-6.463 20.773-28.532 20.773h-75.35v-79.6zm37.99 63.268h19.863c7.409 0 9.93-3.012 9.93-7.61 0-4.6-2.521-7.77-9.93-7.77h-19.862v15.38zm0-29.652h18.917c7.251 0 10.246-3.012 10.246-7.61 0-5.234-2.837-7.77-9.616-7.77h-19.546v15.38zm169.301 42.496c-8.985 2.696-20.808 4.44-31.212 4.44-37.517 0-65.103-10.782-65.103-42.02 0-28.225 26.798-40.435 63.212-40.435 10.088 0 23.014 1.11 33.103 4.44v27.274c-7.409-4.599-14.975-7.453-25.694-7.453-13.872 0-27.902 6.977-27.902 16.967 0 9.99 13.872 16.966 27.902 16.966 10.561 0 18.128-2.854 25.694-7.294v27.115"/></g></svg>