<svg xmlns="http://www.w3.org/2000/svg" width="51" height="32"><g fill="none" fill-rule="evenodd"><path fill="#FFF" stroke="#D0D0D0" d="M.5.5h50v31H.5z"/><g fill-rule="nonzero"><path fill="#00AEEF" d="M26.118 14.825c2.282 0 4.138-1.867 4.138-4.163 0-2.295-1.856-4.162-4.138-4.162s-4.138 1.867-4.138 4.162 1.856 4.163 4.138 4.163"/><path fill="#00AEEF" d="M29.168 14.028a5.44 5.44 0 0 1-3.96 1.724c-1.383 0-2.577-.535-3.334-1.141-4.516.475-7.874 1.141-7.874 1.141v1.844h23.965v-3.794s-4.103-.024-8.797.226"/><path fill="#003665" d="M16.849 22.983v2.236H14v-5.958h2.849v2.675h.012l1.679-2.675h3.417l-2.507 3.08 2.365 2.878h-3.263l-1.691-2.236zM22.418 19.26h5.757c1.49 0 1.987.583 1.987 1.5 0 1.022-.91 1.462-1.833 1.51v.011c.958.072 1.88.179 1.88 1.392 0 .785-.485 1.558-2.14 1.558h-5.651zm2.849 4.746h1.49c.555 0 .744-.226.744-.571s-.189-.583-.744-.583h-1.49zm0-2.224h1.419c.544 0 .768-.226.768-.571 0-.392-.213-.583-.721-.583h-1.466zm12.698 3.187a8.7 8.7 0 0 1-2.341.333c-2.814 0-4.883-.809-4.883-3.151 0-2.117 2.01-3.033 4.74-3.033.757 0 1.727.083 2.484.333v2.045c-.556-.344-1.124-.558-1.928-.558-1.04 0-2.092.523-2.092 1.272 0 .75 1.04 1.273 2.092 1.273.793 0 1.36-.215 1.928-.548z"/></g></g></svg>