<svg xmlns="http://www.w3.org/2000/svg" width="512" height="512" fill="none"><path fill="#ffb3c7" d="M451.899 152H60.101C26.908 152 0 178.908 0 212.101V299c0 33.193 26.908 60.101 60.1 60.101H451.9C485.092 359.101 512 332.193 512 299v-86.899C512 178.908 485.092 152 451.899 152"/><g fill="#000"><path d="M409.996 242.746a31.71 31.71 0 0 0-32.68-1.829 31.714 31.714 0 1 0 32.68 54.244v3.84h17.994v-60.099h-17.994zm-16.366 41.671a15.486 15.486 0 0 1-9.832-26.699 15.482 15.482 0 0 1 23.586 2.719 15.5 15.5 0 0 1 2.553 8.517 15.903 15.903 0 0 1-16.307 15.463M163.232 212.115H144.4v86.884h18.832zM328.469 237.283a21.854 21.854 0 0 0-18.534 8.388v-6.768h-17.92V299h18.135v-31.583a12.68 12.68 0 0 1 3.64-9.897 12.67 12.67 0 0 1 9.868-3.718c7.909 0 12.455 4.725 12.455 13.491V299h17.974v-38.219c0-13.986-11.121-23.498-25.618-23.498M220.161 242.746a31.71 31.71 0 0 0-32.68-1.829 31.714 31.714 0 1 0 32.68 54.244v3.84h17.994v-60.099h-17.994zm-16.366 41.671a15.486 15.486 0 1 1 6.935-29.689 15.486 15.486 0 0 1 9.369 14.226 15.9 15.9 0 0 1-16.305 15.463zM265.989 246.727v-7.828h-18.424v60.1h18.463v-28.057c0-9.468 10.262-14.557 17.382-14.557.072 0 .141.008.214.008v-17.49a22.43 22.43 0 0 0-17.635 7.824M447.093 277.685a11.293 11.293 0 0 0-2.202 22.371 11.29 11.29 0 0 0 11.594-4.803 11.29 11.29 0 0 0-1.405-14.261 11.29 11.29 0 0 0-7.987-3.307M131.416 212.1H111.9a49.9 49.9 0 0 1-20.179 40.283l-7.73 5.79 29.958 40.854h24.63l-27.564-37.591a69.15 69.15 0 0 0 20.401-49.336M81.605 212.1h-19.55v86.923h19.55z"/></g></svg>