<svg xmlns="http://www.w3.org/2000/svg" width="512" height="512" fill="none"><g fill="#000"><path d="M90.115 199h-25.21a64.37 64.37 0 0 1-26.048 51.987l-9.977 7.467 38.62 52.717h31.82l-35.575-48.512A89.16 89.16 0 0 0 90.115 199M0 311.171h25.811V199H0zM106.828 311.127h24.31V199.021h-24.31zM344.345 231.505c-9.269 0-18.045 2.875-23.902 10.728v-8.647h-23.13v77.541h23.409v-40.766c0-11.8 7.895-17.572 17.422-17.572 10.213 0 16.07 6.093 16.07 17.401v40.937h23.194v-49.348c0-18.044-14.354-30.317-33.063-30.317zM183.469 292.311a20.51 20.51 0 0 1-21.027-19.953 21.07 21.07 0 0 1 42.075 0 20.513 20.513 0 0 1-21.048 19.953m21.113-58.724v4.956a40.93 40.93 0 0 0-36.57-4.799 40.91 40.91 0 0 0-26.801 45.495 40.92 40.92 0 0 0 40.37 34.035 40.53 40.53 0 0 0 23.001-6.995v4.956h23.236v-77.648zM263.734 243.693v-10.106h-23.773v77.541h23.816v-36.196c0-12.23 13.238-18.795 22.443-18.795h.257v-22.55c-9.419 0-18.087 4.034-22.743 10.106M428.429 292.311a20.51 20.51 0 0 1-21.027-19.953 21.07 21.07 0 0 1 42.075 0 20.513 20.513 0 0 1-21.048 19.953m21.134-58.724v4.956a40.92 40.92 0 0 0-42.162-2.357 40.92 40.92 0 0 0-21.792 36.172 40.916 40.916 0 0 0 63.954 33.814v4.956h23.215v-77.541zM497.432 283.622a14.595 14.595 0 0 0-14.334 17.423A14.59 14.59 0 0 0 512 298.212a14.56 14.56 0 0 0-8.988-13.479 14.6 14.6 0 0 0-5.58-1.111"/></g></svg>