<svg xmlns="http://www.w3.org/2000/svg" width="512" height="512"><g fill="none" fill-rule="evenodd" style="fill-rule:nonzero"><path fill="#231f20" d="M0 0h128v128H0z" style="display:inline;fill:#ffb3c7;fill-opacity:1" transform="scale(4)"/><path fill="#fff" d="M68.26 68.303C78.153 58.758 83.577 45.613 83.577 32H68.899c0 11.736-5.584 22.69-15.156 29.575L48 65.956 70.494 96H89ZM48 96V32H32v64z" style="fill:#000" transform="scale(4)"/><path fill="#fff" d="M95 80c-4.392 0-8 3.608-8 8 0 4.392 3.608 8 8 8 4.392 0 8-3.608 8-8 0-4.392-3.608-8-8-8z" style="display:inline;fill:#000" transform="scale(4)"/></g></svg>