<svg xmlns="http://www.w3.org/2000/svg" width="640" height="360" fill="none"><path fill="#ffb3c7" d="M515.899 76H124.101C90.908 76 64 102.908 64 136.101V223c0 33.193 26.908 60.101 60.101 60.101h391.798C549.092 283.101 576 256.193 576 223v-86.899C576 102.908 549.092 76 515.899 76"/><g fill="#000"><path d="M473.996 166.746a31.71 31.71 0 0 0-32.68-1.829 31.714 31.714 0 1 0 32.68 54.244v3.84h17.994v-60.099h-17.994zm-16.366 41.671a15.486 15.486 0 0 1-9.832-26.699 15.482 15.482 0 0 1 23.586 2.719 15.5 15.5 0 0 1 2.553 8.517 15.903 15.903 0 0 1-16.307 15.463M227.232 136.115H208.4v86.884h18.832zM392.469 161.283a21.854 21.854 0 0 0-18.534 8.388v-6.768h-17.92V223h18.135v-31.583a12.68 12.68 0 0 1 3.64-9.897 12.67 12.67 0 0 1 9.868-3.718c7.909 0 12.455 4.725 12.455 13.491V223h17.974v-38.219c0-13.986-11.121-23.498-25.618-23.498M284.161 166.746a31.71 31.71 0 0 0-32.68-1.829 31.714 31.714 0 1 0 32.68 54.244v3.84h17.994v-60.099h-17.994zm-16.366 41.671a15.486 15.486 0 1 1 6.935-29.689 15.486 15.486 0 0 1 9.369 14.226 15.9 15.9 0 0 1-16.305 15.463zM329.989 170.727v-7.828h-18.424v60.1h18.463v-28.057c0-9.468 10.262-14.557 17.382-14.557.072 0 .141.008.214.008v-17.49a22.43 22.43 0 0 0-17.635 7.824M511.093 201.685a11.293 11.293 0 0 0-2.202 22.371 11.29 11.29 0 0 0 11.594-4.803 11.29 11.29 0 0 0-1.405-14.261 11.29 11.29 0 0 0-7.987-3.307M195.416 136.1H175.9a49.9 49.9 0 0 1-20.179 40.283l-7.731 5.79 29.959 40.854h24.63l-27.564-37.591a69.15 69.15 0 0 0 20.401-49.336M145.605 136.1h-19.55v86.923h19.55z"/></g></svg>