<svg xmlns="http://www.w3.org/2000/svg" width="51" height="32" fill="none"><clipPath id="a"><path d="M0 0h51v32H0z"/></clipPath><g clip-path="url(#a)"><path fill="#fff" fill-rule="evenodd" stroke="#d0d0d0" d="M.5.5h50v31H.5z" clip-rule="evenodd"/><path fill="#ffb3c7" d="M41.305 8h-30.61A4.695 4.695 0 0 0 6 12.695v6.79a4.695 4.695 0 0 0 4.695 4.695h30.61A4.695 4.695 0 0 0 46 19.484v-6.789A4.695 4.695 0 0 0 41.305 8z"/><g fill="#000"><path d="M38.03 15.09a2.477 2.477 0 1 0 0 4.094v.3h1.407V14.79H38.03zm-1.278 3.255a1.21 1.21 0 1 1 1.274-1.208 1.243 1.243 0 0 1-1.274 1.208zM18.752 12.696h-1.47v6.788h1.47zM31.662 14.663a1.708 1.708 0 0 0-1.448.655v-.528h-1.4v4.695h1.416v-2.468a.99.99 0 0 1 1.056-1.063c.618 0 .973.369.973 1.054v2.477h1.404v-2.986c0-1.093-.869-1.836-2.001-1.836zM23.2 15.09a2.477 2.477 0 1 0 0 4.094v.3h1.406V14.79H23.2zm-1.279 3.255a1.21 1.21 0 1 1 1.274-1.208 1.243 1.243 0 0 1-1.274 1.208zM26.78 15.4v-.612h-1.44v4.696h1.443v-2.192c0-.74.802-1.137 1.358-1.137h.017V14.79a1.754 1.754 0 0 0-1.378.611zM40.93 17.82a.882.882 0 1 0 0 1.763.882.882 0 0 0 0-1.764zM16.267 12.695h-1.525a3.9 3.9 0 0 1-1.577 3.147l-.603.453 2.34 3.191h1.924l-2.153-2.936a5.403 5.403 0 0 0 1.594-3.855zM12.375 12.695h-1.527v6.791h1.527z"/></g></g></svg>