<?xml version="1.0" encoding="UTF-8"?>
<svg width="480px" height="270px" viewBox="0 0 480 270" version="1.1" xmlns="http://www.w3.org/2000/svg" xmlns:xlink="http://www.w3.org/1999/xlink">
    <title>background</title>
    <defs>
        <rect id="path-1" x="0" y="0" width="480" height="270"></rect>
    </defs>
    <g id="Cards" stroke="none" stroke-width="1" fill="none" fill-rule="evenodd">
        <g id="Lanschot">
            <g id="background">
                <mask id="mask-2" fill="white">
                    <use xlink:href="#path-1"></use>
                </mask>
                <use id="bg" fill="#2D8F37" xlink:href="#path-1"></use>
                <path d="M414.326316,207 L420,251 L395.053801,251 L391.451462,231.834356 L391.447204,231.818586 C391.356053,231.490879 389.747278,226.165644 381.454971,226.165644 C372.899415,226.165644 372.449123,231.834356 372.449123,231.834356 L368.126316,251 L343,251 L348.673684,207 L414.326316,207 Z M438.676703,90 C445.082821,90.64 445.804638,97.9542857 446.526454,100.788571 L446.526454,100.788571 L446.526454,110.48 C447.24827,110.48 446.526454,111.211429 449.413719,111.942857 C452.300983,112.674286 453.022799,116.971429 453.022799,119.897143 C452.741423,122.581843 452.258818,125.24095 451.579167,127.851429 C450.857351,130.685714 452.300983,129.954286 454.466432,132.148571 C455.558147,135.064478 456.049436,138.175925 455.910064,141.291429 C455.188248,144.217143 453.022799,149.245714 453.022799,149.977143 C453.022799,150.708571 454.466432,152.171429 455.188248,152.902857 C457.320841,157.168169 457.582846,162.146175 455.910064,166.617143 C453.51196,174.604413 448.757323,181.655857 442.285784,186.822857 C440.962454,187.409524 440.852176,189.302222 440.842987,190.176984 L440.842151,234 L435.157849,234 L435.157013,189.832222 C435.147824,189.027302 435.037546,187.127619 433.714216,186.457143 C427.242677,181.290143 422.48804,174.238699 420.089936,166.251429 C418.417154,161.780461 418.679159,156.802455 420.811752,152.537143 C421.533568,151.805714 422.977201,151.074286 422.977201,149.611429 C422.977201,148.148571 420.811752,143.851429 420.089936,140.925714 C419.950564,137.810211 420.441853,134.698763 421.533568,131.782857 C423.699017,129.68 425.142649,130.411429 424.420833,127.485714 C423.741182,124.875236 423.258577,122.216128 422.977201,119.531429 C422.977201,116.605714 424.420833,112.308571 426.586281,111.577143 C428.75173,110.845714 428.75173,110.114286 429.473546,110.114286 L429.473546,110.114286 L429.473546,100.971429 C430.195362,98.1371429 430.917179,90.9142857 437.323297,90.1828571 L437.323297,90.1828571 L438.045114,90.1828571 Z M325.863634,90 L326.590908,90.1828571 L328.045457,90.1828571 C333.77274,90.9142857 335.227288,98.1371429 335.227288,100.971429 L335.227916,101.856058 C335.233885,104.871344 335.296552,109.70068 335.954562,110.114286 C336.811572,110.801612 337.802715,111.300014 338.863659,111.577143 C341.045481,112.308571 341.772755,116.605714 341.772755,119.531429 C341.85777,122.256861 341.361813,124.96903 340.318207,127.485714 C339.590933,130.411429 341.772755,129.68 343.227303,131.782857 C344.659066,134.599835 345.168198,137.800086 344.681851,140.925714 C343.954577,143.851429 341.772755,148.148571 341.772755,149.611429 C341.772755,151.074286 343.227303,151.805714 343.954577,152.537143 C346.031355,156.79331 346.546509,161.650459 345.409125,166.251429 C343.111717,174.465688 338.030592,181.61343 331.045462,186.457143 C329.590914,187.188571 329.590914,189.382857 329.590914,190.022857 L329.590914,234 L323.772721,234 L323.772721,190.388571 C323.772721,189.657143 324.5,187.462857 323.045447,186.822857 C316.026269,181.994622 310.911637,174.844996 308.590875,166.617143 C307.453491,162.016173 307.968645,157.159024 310.045423,152.902857 C310.814826,152.099074 311.322239,151.078451 311.499971,149.977143 C310.600145,147.128533 309.871554,144.228055 309.318149,141.291429 C308.487065,138.174508 309.016108,134.849099 310.772697,132.148571 C312.227245,129.954286 314.409067,130.685714 313.681793,127.851429 C312.329852,125.414717 311.581467,122.686324 311.499971,119.897143 C311.499971,116.971429 312.227245,112.674286 315.136341,111.942857 C316.211678,111.4895 317.174042,110.80263 317.954528,109.931429 C317.905092,106.867413 318.148636,103.805713 318.681803,100.788571 C318.681803,97.9542857 320.136351,90.64 325.863634,90 Z M410.17768,195.8 L413,202.2 L351,202.2 L353.82232,195.8 L410.17768,195.8 Z M403.956747,141 L409,192 L356,192 L360.401384,141 L403.956747,141 Z M372.688581,157.161972 L364.711073,157.161972 L364.711073,172.875 L372.688581,172.875 L372.688581,157.161972 Z M399.555363,157.161972 L391.577855,157.161972 L391.577855,172.875 L399.555363,172.875 L399.555363,157.161972 Z M409,130.85 L406.110733,137.15 L358.889267,137.15 L356,130.85 L409,130.85 Z M364.68189,112 L364.68189,120.584337 L373.299213,120.584337 L373.299213,112 L391.790551,112 L391.790551,120.584337 L400.31811,120.584337 L400.31811,112 L411,112 L411,127 L354,127 L354,112 L364.68189,112 Z M383.096328,15 C388.71979,15.7215686 390.147971,22.8470588 390.147971,25.0117647 C390.636938,27.8409323 390.875909,30.7084389 390.862062,33.5803922 C390.862062,34.3019608 391.576152,35.0235294 393.004333,35.0235294 C395.391142,36.5632556 396.759323,39.2937117 396.574786,42.1490196 C396.370146,44.8077835 395.891494,47.4377115 395.146605,49.9960784 C394.432514,52.1607843 395.860695,52.1607843 397.288876,54.2352941 C399.184841,56.6562824 399.72365,59.8889619 398.717057,62.8039216 C398.717057,64.8784314 396.574786,69.2078431 396.574786,70.6509804 C396.953843,71.433293 397.434107,72.1612337 398.002966,72.8156863 C400.023663,76.7615808 400.53221,81.3222037 399.431147,85.6235294 C397.643012,93.3962803 392.768608,100.083149 385.95269,104.113725 C384.93913,104.691928 384.374141,105.833739 384.524509,107 L380.239966,107 L380.239966,106.819608 C380.390334,105.653347 379.825345,104.511536 378.811785,103.933333 C372.2523,99.7733019 367.645642,93.1001936 366.047418,85.4431373 C364.433777,81.2715983 364.694389,76.5972947 366.761509,72.6352941 C367.330368,71.9808416 367.810633,71.2529008 368.18969,70.4705882 C367.723162,67.7922462 367.005848,65.1647532 366.047418,62.6235294 C366.047418,59.7372549 365.333328,56.2196078 367.475599,54.054902 C369.617871,51.8901961 371.046052,51.8901961 370.331961,49.8156863 C369.228013,47.3573708 368.737627,44.6629709 368.90378,41.9686275 C368.90378,39.8039216 368.90378,36.2862745 371.760142,34.8431373 C373.902413,34.8431373 373.902413,34.1215686 374.616504,33.4 L374.616504,25.0117647 C375.330594,22.8470588 376.044685,15.9921569 381.668147,15 L383.096328,15 Z" id="shape" fill="#000000" fill-rule="nonzero" opacity="0.170410156" mask="url(#mask-2)"></path>
            </g>
        </g>
    </g>
</svg>