<?xml version="1.0" encoding="UTF-8"?>
<svg width="480px" height="270px" viewBox="0 0 480 270" version="1.1" xmlns="http://www.w3.org/2000/svg" xmlns:xlink="http://www.w3.org/1999/xlink">
    <title>background</title>
    <defs>
        <rect id="path-1" x="0" y="0" width="480" height="270"></rect>
    </defs>
    <g id="Cards" stroke="none" stroke-width="1" fill="none" fill-rule="evenodd">
        <g id="Moneyou">
            <g id="background">
                <mask id="mask-2" fill="white">
                    <use xlink:href="#path-1"></use>
                </mask>
                <use id="bg" fill="#FAF1F4" xlink:href="#path-1"></use>
                <g id="shape" mask="url(#mask-2)" fill-rule="nonzero">
                    <g transform="translate(311.000000, -50.000000)">
                        <path d="M69.2132,218.63 C31.04885,218.63 0,187.742769 0,149.773769 C0,125.055385 13.429675,102.106615 35.048825,89.8846923 L46.9889,110.772769 C32.9042,118.737692 24.156125,133.681846 24.156125,149.773769 C24.156125,174.488846 44.372125,194.599615 69.2132,194.599615 C87.364375,194.599615 103.663525,183.849615 110.74245,167.218538 L132.990025,176.579308 C122.123925,202.124615 97.09,218.63 69.2132,218.63" id="Fill-1" fill="#D40D47"></path>
                        <path d="M132.875357,176.390036 L110.645036,166.990393 C112.989964,161.446929 114.179036,155.551393 114.179036,149.473179 C114.179036,124.655464 93.9880714,104.4645 69.1670357,104.4645 C61.3683214,104.4645 53.6925,106.48725 46.9666071,110.310214 L35.0393571,89.3353929 C45.39225,83.4465 57.1966071,80.3343214 69.1670357,80.3343214 C107.293714,80.3343214 138.312536,111.349821 138.312536,149.473179 C138.312536,158.79975 136.482429,167.857286 132.875357,176.390036" id="Fill-4" fill="#FABB2E"></path>
                        <path d="M125.508429,24.7601786 C87.8035714,24.7601786 57.1301786,55.4335714 57.1301786,93.1351071 C57.1301786,130.839964 87.8035714,161.510036 125.508429,161.510036 C163.209964,161.510036 193.883357,130.839964 193.883357,93.1351071 C193.883357,55.4335714 163.209964,24.7601786 125.508429,24.7601786 Z M33,93.1351071 C33,42.1279286 74.4979286,0.63 125.508429,0.63 C176.515607,0.63 218.013536,42.1279286 218.013536,93.1351071 C218.013536,144.145607 176.515607,185.643536 125.508429,185.643536 C74.4979286,185.643536 33,144.145607 33,93.1351071 Z" id="Fill-5" fill="#2AABCE"></path>
                        <path d="M125.508429,185.643536 C74.4979286,185.643536 33,144.145607 33,93.1351071 C33,86.4723214 38.4006429,81.0716786 45.06675,81.0716786 C51.7295357,81.0716786 57.1301786,86.4723214 57.1301786,93.1351071 C57.1301786,130.839964 87.8035714,161.510036 125.508429,161.510036 C132.171214,161.510036 137.571857,166.914 137.571857,173.576786 C137.571857,180.239571 132.171214,185.643536 125.508429,185.643536" id="Fill-6" fill="#555390"></path>
                    </g>
                </g>
            </g>
        </g>
    </g>
</svg>