<?xml version="1.0" encoding="UTF-8"?>
<svg width="480px" height="270px" viewBox="0 0 480 270" version="1.1" xmlns="http://www.w3.org/2000/svg" xmlns:xlink="http://www.w3.org/1999/xlink">
    <title>background</title>
    <defs>
        <rect id="path-1" x="0" y="0" width="480" height="270"></rect>
    </defs>
    <g id="Cards" stroke="none" stroke-width="1" fill="none" fill-rule="evenodd">
        <g id="Knab">
            <g id="background">
                <mask id="mask-2" fill="white">
                    <use xlink:href="#path-1"></use>
                </mask>
                <use id="bg" fill="#EDEDED" xlink:href="#path-1"></use>
                <g id="shape" mask="url(#mask-2)" fill-rule="nonzero">
                    <g transform="translate(255.000000, 27.000000)">
                        <path d="M281.509475,32.3491044 C278.825421,29.6451583 275.184755,28.1260538 271.388567,28.1260538 C267.59238,28.1260538 263.951714,29.6451583 261.26766,32.3491044 C255.348082,38.3114165 254.614682,40.6963414 251.743949,40.6963414 C246.997809,40.6963414 243.833716,31.0405616 234.592887,22.2712141 C223.151862,11.4124191 205.455989,11.0747306 194.339754,22.2712141 C189.000048,27.6466789 186,34.9390478 186,42.5430752 C186,50.1471027 189.000048,57.4394716 194.339754,62.8149363 C205.455989,74.0114198 222.931842,73.4415706 234.592887,62.8149363 C242.366918,55.7234785 246.212024,44.6747337 251.754426,44.6747337 C255.211879,44.6747337 256.81488,48.2310155 261.278137,52.7264932 C264.855132,56.5450485 270.210414,58.1029571 275.257934,56.793365 C280.305453,55.4837729 284.246992,51.5137795 285.547198,46.429822 C286.847404,41.3458643 285.300661,35.9519218 281.509475,32.3491044 Z" id="Path" fill="#E74F59"></path>
                        <path d="M205.686722,51.5064328 C194.593782,40.4869787 176.647026,40.4869787 165.554086,51.5064328 C156.009198,60.9250198 146.863325,68.5436102 136.152889,68.5436102 C127.437534,68.5436102 120.843265,60.6424622 101.795489,41.4494749 C89.6000363,29.2945433 71.2587085,25.658201 55.3241754,32.236096 C39.3896424,38.813991 29,54.3106937 29,71.5 C29,88.6893062 39.3896424,104.186009 55.3241754,110.763904 C71.2587085,117.341799 89.6000363,113.705457 101.795489,101.550525 C118.396665,85.0052072 125.757465,73.9749953 136.257893,73.9749953 C146.758321,73.9749953 153.888111,79.887775 165.564587,91.5040322 C176.646908,102.546175 194.61255,102.543832 205.691971,91.4987997 C216.771393,80.4537676 216.769042,62.5485751 205.686722,51.5064328 L205.686722,51.5064328 Z" id="Path" fill="#003852"></path>
                        <circle id="Oval" fill="#E9E8E2" cx="71.5" cy="71.5" r="28.5"></circle>
                        <circle id="Oval" fill="#00B1AC" cx="14" cy="114" r="7"></circle>
                        <path d="M71.6684255,56.4842526 C63.0568167,56.4842526 61.8009571,59.3190286 58.0333783,55.5708247 C52.4717143,50.0272626 57.3368511,44.210722 57.3368511,27.9790042 C57.0371682,12.4405556 44.290069,0 28.6684255,0 C13.0467821,0 0.299682871,12.4405556 0,27.9790042 C0.0521261635,43.7062863 12.8545706,56.4428936 28.6631489,56.4947517 C44.683274,56.4947517 50.7515032,51.6651332 56.3870413,57.2716904 C60.2707081,61.1353851 57.3368511,62.3322905 57.3368511,70.7421263 C57.3368511,78.6165325 63.7533155,85 71.6684255,85 C79.5835355,85 86,78.6165325 86,70.7421263 C86,62.86772 79.5835355,56.4842526 71.6684255,56.4842526 Z" id="Path" fill="#00B1AC"></path>
                        <circle id="Oval" fill="#FCC11F" cx="128.5" cy="128.5" r="14.5"></circle>
                    </g>
                </g>
            </g>
        </g>
    </g>
</svg>