<?xml version="1.0" encoding="UTF-8"?>
<svg width="480px" height="270px" viewBox="0 0 480 270" version="1.1" xmlns="http://www.w3.org/2000/svg" xmlns:xlink="http://www.w3.org/1999/xlink">
    <title>background</title>
    <defs>
        <rect id="path-1" x="0" y="0" width="480" height="270"></rect>
        <filter id="filter-3">
            <feColorMatrix in="SourceGraphic" type="matrix" values="0 0 0 0 1.000000 0 0 0 0 1.000000 0 0 0 0 1.000000 0 0 0 1.000000 0"></feColorMatrix>
        </filter>
    </defs>
    <g id="Cards" stroke="none" stroke-width="1" fill="none" fill-rule="evenodd">
        <g id="Regiobank">
            <g id="background">
                <mask id="mask-2" fill="white">
                    <use xlink:href="#path-1"></use>
                </mask>
                <use id="bg" fill="#D90800" xlink:href="#path-1"></use>
                <g filter="url(#filter-3)" id="shape" opacity="0.195033482">
                    <g mask="url(#mask-2)">
                        <g transform="translate(151.000000, 2.000000)">
                            <g id="limburg" transform="translate(133.000000, 172.000000)">
                                <path d="M20.609346,76.3627766 L21.4119862,74.2347004 L18.9238011,70.3726359 L21.8133063,67.6928352 L23.9001713,70.4514541 C23.9001713,70.4514541 25.1843962,68.8750991 25.3449255,68.1657414 C25.5054548,67.4563837 25.2646609,66.9834775 25.9870395,66.6682078 C26.709415,66.3529349 28.8765447,65.7223954 29.4383941,64.9342195 C30.0002403,64.1460436 29.6791849,63.9884071 30.481825,62.9637766 C31.2844652,61.9391491 37.2240049,59.7322546 37.3845342,59.2593485 C37.5450635,58.7864423 36.2608386,58.7076241 36.3411001,57.9194482 C36.4213647,57.1312722 38.1069097,57.1312722 38.0266482,56.3430963 C37.9463836,55.5549204 37.3042695,55.5549204 36.9029495,55.5549204 C36.5016294,55.5549204 33.2108041,57.6041784 32.3278993,57.5253602 C31.4449945,57.446542 30.1607696,53.3480259 30.1607696,53.3480259 L31.7660499,52.953938 L30.8028805,51.8504923 C30.8028805,51.8504923 32.3278993,50.8258617 33.2910688,49.3283281 C34.254235,47.8307913 35.5384599,43.7322753 36.2608386,43.2593691 C36.9832141,42.7864629 38.5082298,42.5500114 38.5082298,42.5500114 L38.1069097,41.8406506 L40.7556241,39.1608531 L39.952984,37.899771 L40.5148333,35.929328 L39.6319285,35.6928765 L40.1135133,34.274158 L39.2306084,24.3431376 L33.5318595,17.5648209 L32.0068439,16.5401903 L32.16737,14.806202 C32.16737,14.806202 32.8897487,14.4909323 32.9700102,14.0968443 C33.0502748,13.7027564 32.8897487,11.3382255 32.3278993,11.1805922 C31.7660499,11.0229557 28.7962801,10.7865042 28.4752247,10.0771434 C28.1541692,9.36778567 28.2344307,8.81606127 28.2344307,8.81606127 L28.7962801,8.26434 L27.6725845,6.76680325 L28.8765447,5.89980911 C28.8765447,5.89980911 28.0739046,4.87518166 27.1909998,4.63872701 C26.308095,4.40227548 23.3383251,4.00818752 23.3383251,4.00818752 L23.2580605,3.22001159 C23.2580605,3.22001159 21.0106661,3.3776449 20.4488167,2.58946898 C19.8869705,1.80129306 19.4856505,0.22494121 19.4856505,0.22494121 L18.0408963,0.22494121 L18.2014256,2.82592363 L19.8067059,5.42690293 L23.0172665,6.53035172 L23.6593805,8.18552178 L23.0975312,10.4712345 L25.3449255,13.0722138 L27.1909998,14.7273838 L29.8397142,20.6387064 C29.8397142,20.6387064 28.7160154,21.5057005 27.8331106,21.5057005 C26.9502058,21.5057005 26.709415,20.4810731 26.1475657,20.2446184 C25.5857163,20.0081669 24.2212299,19.7717154 23.1777958,20.1658033 C22.1343617,20.5598913 21.5725155,21.5057005 20.8501368,21.3480672 C20.1277613,21.1904308 18.4422164,19.8505304 17.880367,19.8505304 C17.3185208,19.8505304 16.5961421,20.1658033 16.5961421,20.1658033 L17.0777268,25.5254015 C17.0777268,25.5254015 17.6395762,25.8406712 18.2014256,26.94412 C18.7632718,28.0475657 18.8435364,31.9096302 18.8435364,31.9096302 C18.8435364,31.9096302 19.0040657,31.830812 19.8869705,32.8554425 C20.7698753,33.88007 22.6962111,37.6633163 22.6962111,37.6633163 C22.6962111,37.6633163 19.8067059,40.1854805 18.9238011,40.7372049 C18.0408963,41.2889293 7.84736186,43.4170055 6.80392775,43.7322753 C5.76049364,44.047545 3.83415791,47.5943398 3.43283783,48.5401522 C3.03151775,49.4859614 3.35257318,52.0869438 3.35257318,52.0869438 L0.302538682,52.7174864 C0.302538682,52.7174864 0.864388062,53.5844806 2.30914225,54.2938383 C3.75389326,55.003196 4.55653341,54.6879262 5.51970287,55.3972839 C6.48287233,56.1066448 5.68023217,56.1066448 6.56313698,56.579551 C7.44604178,57.052454 7.60656791,56.579551 8.73026667,56.8948207 C9.85396225,57.2100904 9.29211287,57.446542 10.094753,57.446542 C10.8973964,57.446542 12.5829413,56.9736389 12.5829413,56.9736389 C12.5829413,56.9736389 12.422412,58.628809 12.7434674,59.1017152 C13.064526,59.5746182 13.4658461,59.9687093 13.4658461,59.9687093 C13.4658461,59.9687093 14.4290124,59.0228969 15.7132373,58.9440787 C16.9974622,58.8652605 16.7566714,60.4416124 16.7566714,60.4416124 L14.5895417,61.7815127 L14.5092771,63.0425948 L16.5158806,63.5943192 L15.3119172,64.6977648 L14.0276923,65.2494892 L13.9474277,66.5105713 L14.6698064,67.4563837 L13.8671662,68.0869232 L12.8237321,67.9292899 L12.0210919,69.5844599 L12.422412,72.1854424 L11.9408273,74.8652399 L9.37237752,76.8356828 L10.8171317,79.2790288 L9.77370078,81.4859201 L8.24868194,82.7272961 L7.4460386,84.3627632 C7.4460386,84.3627632 5.76049364,85.5844393 5.43943822,86.0573455 C5.11838279,86.5302517 4.63679806,89.3676856 5.51970287,90.0770433 C6.40260767,90.7864041 5.68023217,91.0228557 7.04472171,91.4169436 C8.40920806,91.8110316 8.32894659,91.8110316 8.32894659,91.8110316 L8.81052814,94.6484687 L7.68683256,97.249448 C7.68683256,97.249448 9.29211287,96.5400903 10.2552823,96.3036387 C11.2184518,96.0671841 11.4592426,96.6977267 11.4592426,96.6977267 C11.4592426,96.6977267 11.9408273,94.1755625 12.9842614,94.1755625 C14.0276923,94.1755625 13.5461076,95.8307325 13.5461076,95.8307325 L15.9540312,97.249448 C15.9540312,97.249448 17.3185208,96.0671841 17.7198409,95.9883659 C18.1211609,95.9095508 18.522481,96.85536 18.522481,96.85536 L20.1277613,95.5154597 L20.2882906,96.6977267 C20.2882906,96.6977267 20.9304015,96.461272 21.4119862,96.5400903 C21.8935709,96.6189085 22.6962111,97.7223541 22.6962111,97.7223541 C22.6962111,97.7223541 23.8199098,96.6977267 24.62255,96.461272 C25.4251902,96.2248205 27.1909998,97.6435359 27.9133753,97.4859026 C28.6357508,97.3282662 29.6791849,96.3824538 29.1173355,95.6730961 C28.5554893,94.9637384 25.1041347,93.0721137 25.1041347,93.0721137 L26.2278303,91.968668 C26.2278303,91.968668 27.2712644,92.9144804 28.1541692,92.2839378 C29.0370709,91.6533983 28.4752247,88.2642399 29.1976002,88.0277853 C29.9199757,87.7913338 30.8028805,88.343055 31.5252591,87.870152 C32.2476347,87.3972458 32.5686901,86.6090699 32.5686901,85.899709 C32.5686901,85.1903513 31.6857853,84.5598087 31.7660499,83.850451 C31.8463146,83.1410933 33.2910688,81.7223748 33.2910688,81.7223748 L31.6857853,80.9341989 L30.2410343,80.6977442 L29.3581295,79.9883865 L27.6725845,79.9883865 C27.6725845,79.9883865 28.3146953,78.8849408 28.39496,78.0179467 C28.4752247,77.1509525 28.0739046,75.8110522 28.0739046,75.8110522 L24.2212299,75.0228763 L20.609346,76.3627766 Z" id="path" fill="#F6F6F6" fill-rule="nonzero"></path>
                            </g>
                            <g id="zeeland" transform="translate(0.000000, 175.000000)">
                                <path d="M0.13602625,35.1807222 C0.13602625,35.1807222 5.62083875,33.0052427 7.04136594,32.3723745 C8.46189281,31.7395094 10.31647,31.6999549 11.0661925,31.8977241 C11.815915,32.0954964 13.3942784,33.5590019 14.4202147,33.9940978 C15.4461509,34.4291937 16.6299234,34.1127581 17.853155,34.6665173 C19.0763866,35.2202766 24.52174,39.0174764 24.52174,39.0174764 C24.52174,39.0174764 24.8768719,37.6726342 25.1925444,37.6330798 C25.5082172,37.5935253 25.5082172,37.5144164 26.1395625,37.830852 C26.7709094,38.1472846 29.6908813,39.4525723 29.6908813,39.4525723 C29.6908813,39.4525723 32.2951781,37.1188749 33.5973281,36.6046701 C34.8994781,36.0904684 34.9783969,36.5651188 35.4124469,36.327792 C35.8464969,36.0904684 36.4778438,32.3723745 36.4778438,32.3723745 C36.4778438,32.3723745 37.0302688,31.976833 37.8589094,32.0163875 C38.68755,32.0559419 39.3978156,32.2141598 39.6740281,33.0843516 C39.9502406,33.9545434 40.1080781,34.5874084 40.6605063,35.1807222 C41.2129313,35.7740328 43.0675094,35.8531417 43.7777719,36.406901 C44.4880375,36.9606602 45.8296469,38.5823805 46.4215313,38.3450537 C47.0134188,38.1077301 45.2377594,36.4464554 45.9085625,36.327792 C46.5793688,36.2091287 47.8026,37.9099578 48.2761094,37.5144164 C48.7496188,37.1188749 47.2896313,35.8531417 48.0393531,35.4180458 C48.7890781,34.9829499 49.8150125,34.7851807 50.6831125,36.0113595 C51.5512125,37.2375383 52.1431,38.5032716 52.1431,38.5032716 C52.1431,38.5032716 51.275,38.898813 50.9987844,39.1361366 C50.7225719,39.3734634 50.84095,39.8876682 50.4069,40.4809788 C49.97285,41.0742925 42.7123781,48.1940417 41.6469813,48.4313684 C40.5815875,48.668692 40.2264563,47.8380547 39.7134875,47.8380547 C39.2005188,47.8380547 36.0043344,51.0419407 35.6492031,50.9628349 C35.2940688,50.883726 34.6232656,50.0530887 34.1892156,50.0135342 C33.7551656,49.9739798 33.1238219,51.8725781 32.2557219,51.951687 C31.3876219,52.0307959 31.2692438,51.7934723 31.190325,51.2001586 C31.1114063,50.6068448 31.8611281,50.6068448 31.8611281,50.2113034 C31.8611281,49.8157619 31.1508656,49.6575472 30.7957344,49.6971017 C30.4406031,49.736653 30.0065531,50.8441716 29.3752063,50.8441716 C28.7438625,50.8441716 26.6130719,51.0814952 26.1395625,50.6859537 C25.6660531,50.2904123 25.5082172,49.6575472 25.4292991,48.9455701 C25.3503809,48.2335961 25.981725,46.8491995 25.5476763,46.2954434 C25.1136263,45.7416841 23.6930994,45.0692614 22.9039175,44.9901557 C22.1147359,44.9110467 22.1147359,45.1088159 21.6412269,45.0297101 C21.1677178,44.9506012 20.8520453,44.2781786 20.1023228,43.961746 C19.3526,43.6453135 17.3796459,43.961746 16.9061369,43.4475412 C16.4326278,42.9333395 14.9726419,41.5489429 14.3412966,41.7071576 C13.7099513,41.8653754 14.3018375,43.684868 13.9861647,43.7639769 C13.6704919,43.8430827 12.9996875,42.7751217 12.3288831,42.7751217 C11.6580788,42.7751217 10.5926834,43.249772 10.2770109,43.7244224 C9.96133813,44.1990728 10.5137653,44.7132745 10.4743063,45.1879248 C10.4348472,45.6625752 9.96133813,45.7416841 9.96133813,46.1372255 C9.96133813,46.532767 10.7505197,46.9678629 10.31647,47.3238499 C9.88242,47.6798369 4.75273906,47.3238499 4.55544375,47.1260807 C4.35814813,46.9283084 3.88463906,46.1372255 3.5295075,45.820793 C3.17437563,45.5043573 2.30627594,45.4252516 1.95114406,45.0297101 C1.5960125,44.6341655 1.28033969,44.4363964 1.20142156,44.0804094 C1.12250344,43.7244224 1.39871688,42.7751217 1.31979875,42.4586892 C1.24088063,42.1422535 0.0176490625,41.9049299 0.254403438,40.75786 C0.491158125,39.610787 1.55655313,39.4130178 1.63547156,38.3054993 C1.71438969,37.1979839 0.806830625,37.1188749 0.57007625,36.4464554 C0.333321563,35.7740328 0.13602625,35.1807222 0.13602625,35.1807222 L0.13602625,35.1807222 Z" id="path" fill="#F6F6F6" fill-rule="nonzero"></path>
                                <path d="M54.9776781,35.1738369 L54.1964281,33.1041304 C54.1964281,33.1041304 54.9776781,32.88038 54.9776781,32.432873 C54.9776781,31.9853692 53.75,29.3003429 53.75,29.3003429 C53.75,29.3003429 53.5267844,29.4122212 52.5223219,29.4681588 C51.5178562,29.5240964 50.1785719,29.3562836 49.1183031,29.4122212 C48.0580344,29.4681588 47.890625,29.8597251 46.8861594,29.8597251 C45.8816969,29.8597251 44.7098219,29.0206549 43.6495531,27.7900186 C42.5892844,26.559379 41.8080344,23.8184152 41.3616062,23.5946648 C40.9151781,23.3709113 40.5803562,23.5387272 40.1897312,23.3709113 C39.7991062,23.2030986 38.125,21.3571424 37.1205344,21.133392 C36.1160719,20.9096386 35.6138406,21.2452672 35.0558031,20.7418258 C34.4977687,20.2383812 34.8325906,19.8468149 34.1629469,19.7349398 C33.4933031,19.6230646 33.2142844,20.0705684 32.4888406,20.0146308 C31.7633937,19.9586933 31.09375,19.2314983 30.8147312,19.2314983 C30.5357156,19.2314983 30.5915187,19.6790022 29.6428562,19.6790022 C28.6941969,19.6790022 25.8482156,18.839932 24.3415178,19.4552487 C22.8348216,20.0705684 22.3325894,21.6368335 21.4397322,21.41308 C20.546875,21.1893296 20.1004466,20.853701 19.9888394,20.3502595 C19.8772322,19.8468149 20.3794644,20.126506 19.7098216,19.4552487 C19.0401787,18.7839945 16.5290178,14.253012 14.0736606,14.253012 C11.6183037,14.253012 7.265625,18.0008619 6.76339281,18.1127371 C6.26116062,18.2246123 5.703125,18.0567995 5.3125,18.6161786 C4.921875,19.1755607 4.97767875,20.3502595 5.03348219,20.6858851 C5.08928562,21.0215137 5.703125,20.7977634 5.98214281,21.41308 C6.26116062,22.0283998 11.171875,27.8459561 12.734375,28.4612728 C14.296875,29.0765925 16.8080356,28.7969014 17.3660716,28.4612728 C17.9241072,28.1256441 19.3191966,26.559379 19.765625,26.559379 C20.2120537,26.559379 20.3794644,26.8390701 20.2120537,27.3425116 C20.0446428,27.8459561 19.375,27.7340778 19.765625,28.29346 C20.15625,28.852839 21.1049106,29.2444053 21.4397322,30.0275378 C21.7745537,30.8106704 22.1651787,31.5378653 22.7790178,31.8175564 C23.3928572,32.0972475 24.9553572,31.5938029 25.4017856,31.873494 C25.8482156,32.1531851 27.0200906,34.5025827 27.8013406,34.5025827 C28.5825906,34.5025827 28.5825906,33.5516342 29.4754469,33.439759 C30.3683031,33.3278839 30.8705344,33.6635125 31.9308031,33.2160055 C32.9910719,32.7685017 32.9352687,28.852839 34.7767844,28.0697065 C36.6183031,27.286574 38.0691969,27.3425116 38.8504469,28.4053352 C39.6316969,29.4681588 39.296875,29.3562836 39.7433031,29.8037875 C40.1897312,30.2512913 40.6919656,29.6919092 41.25,30.2512913 C41.8080344,30.8106704 41.8080344,31.7056812 42.7008937,32.4888137 C43.59375,33.2719463 44.5424094,34.166954 46.2723219,34.0550788 C48.0022312,33.9432005 47.6674094,32.6006889 49.1183031,32.6006889 C50.5691969,32.6006889 52.3549094,34.4466451 52.96875,35.0060241 C53.5825906,35.5654031 53.9174094,35.3416528 53.9174094,35.3416528 L54.9776781,35.1738369 Z" id="path" fill="#F6F6F6" fill-rule="nonzero"></path>
                                <path d="M17.8125,14.8123911 C17.8125,14.8123911 19.3191966,13.9173834 21.0491072,13.8055082 C22.7790178,13.693633 22.890625,14.6445783 24.3415178,14.4208248 C25.7924094,14.1970745 29.0290188,13.4139419 30.4241062,13.8614458 C31.8191969,14.3089496 32.6004469,16.4345969 32.6004469,17.1617887 C32.6004469,17.8889836 31.2611594,18.839932 30.8705344,18.839932 C30.4799094,18.839932 27.3549094,18.0567995 25.9040188,18.0567995 C24.453125,18.0567995 23.8392856,18.3364875 22.9464288,18.8958696 C22.0535716,19.4552487 21.8861606,19.6790022 21.328125,19.6790022 C20.7700894,19.6790022 20.8816966,19.2314983 20.546875,18.2805499 C20.2120537,17.3296046 17.8125,14.8123911 17.8125,14.8123911 Z" id="path" fill="#F6F6F6" fill-rule="nonzero"></path>
                                <path d="M52.1875,10.8407908 C52.1875,10.8407908 48.5602687,8.77108434 46.9977687,8.99483783 C45.4352687,9.21858819 44.2075906,10.2814118 44.5424094,11.0086067 C44.8772312,11.7358017 48.9508937,12.4070559 48.8950906,13.1901884 C48.8392844,13.973321 47.6116062,14.1970745 46.6629469,14.1970745 C45.7142844,14.1970745 45.8258937,13.246126 43.7053562,13.246126 C41.5848219,13.246126 37.9017844,13.8614458 37.9017844,15.0361446 C37.9017844,16.2108434 39.5200906,16.266781 39.8549094,16.7142848 C40.1897312,17.1617887 39.9665187,18.1686747 40.3013406,18.3364875 C40.6361594,18.5043034 41.3058031,18.1127371 41.8638406,18.7280537 C42.421875,19.3433735 41.5848219,20.0146308 42.7008937,20.7418258 C43.8169656,21.4690176 47.6116062,20.7977634 48.2254469,21.3012048 C48.8392844,21.8046463 49.5089281,22.5877788 49.5089281,22.5877788 L51.6294656,22.5877788 L52.0200906,19.0636824 L50.1227687,15.9870899 L50.5133937,12.8545598 L52.1875,10.8407908 Z" id="path" fill="#F6F6F6" fill-rule="nonzero"></path>
                                <path d="M27.2991063,4.63166819 C28.8058031,4.63166819 28.1919656,5.69449181 29.3080344,6.42168675 C30.4241063,7.14888169 31.3169656,6.42168675 31.8191969,7.0929441 C32.3214281,7.76419831 31.875,10.1695366 32.7678562,10.8407908 C33.6607156,11.5120482 34.4977687,10.6170405 35.2790187,11.0086067 C36.0602687,11.400173 35.3348219,12.2392431 36.2276781,12.4070559 C37.1205344,12.5748718 39.7991062,12.4629935 41.6964281,11.1764195 C43.59375,9.88984554 45.1004469,8.82702193 44.4866062,7.0929441 C43.8727687,5.35886313 41.9754469,6.70137783 40.6919656,6.08605807 C39.4084812,5.47074145 39.4084812,3.28915663 38.0691969,2.2822706 C36.7299094,1.27538771 33.1026781,1.10757181 30.4799094,0.939759036 C27.8571437,0.771946265 27.3549094,0.0447513253 25.234375,0.268501687 C23.1138394,0.492255181 21.6071428,1.10757181 20.0446428,2.61789928 C18.4821428,4.12822675 18.7611606,4.68760892 19.1517856,5.41480072 C19.5424106,6.14199566 20.8258928,7.54044795 23.7834822,7.03700651 C26.7410719,6.53356193 25.1785716,4.7994841 27.2991062,4.63166819 L27.2991063,4.63166819 Z" id="path" fill="#F6F6F6" fill-rule="nonzero"></path>
                            </g>
                            <g id="brabant" transform="translate(50.000000, 167.000000)">
                                <path d="M78.5851082,0.00985054348 L76.720845,1.70414402 L73.0021823,1.02445652 L71.4831529,2.09816576 L68.3859113,7.32880435 L64.8349337,9.01324728 L61.283956,8.11684783 L57.2200594,8.28430707 L56.5493191,5.86107337 L54.2905028,4.73811141 L53.2745286,5.52615489 L48.0861557,1.25101902 L43.5783869,0.797894022 L42.1185405,1.75339674 L36.8216655,3.7826087 L34.7305342,4.40319293 L33.2115049,7.55536685 L29.2659742,10.3726223 C29.2659742,10.3726223 27.796264,11.999371 25.4289455,13.0125679 C23.0616271,14.025768 20.6421708,14.7012348 17.8239351,13.8006114 C15.0056961,12.8999912 14.6083275,12.7367527 13.8192214,12.7367527 C13.0301152,12.7367527 12.9216131,13.0125679 12.9216131,13.0125679 C12.9216131,13.0125679 13.1400282,14.3606865 12.1818261,15.7116168 C11.2236272,17.0625503 7.28232288,19.3788339 5.36592179,19.0411005 C3.4495207,18.7033672 2.60405028,18.469769 2.60405028,18.469769 L0.43400838,21.2377717 L0.138093575,23.5723505 L0.128245531,23.6511549 L0.128245531,23.6609897 L2.04182793,26.7442098 L2.15033003,26.9215196 L1.87414288,30.2904054 C1.87414288,30.2904054 4.91502022,31.9298164 4.9713845,34.5753918 C5.00945729,36.3624223 3.89756885,36.9620509 3.16630419,37.1660848 C3.65773425,37.1106759 3.78772528,37.0478783 3.78772528,37.0478783 C3.78772528,37.0478783 5.03056746,39.7497421 5.03056746,40.2000522 C5.03056746,40.6503654 4.24146131,40.8797397 4.24146131,40.8797397 L5.03056746,42.9582043 L4.65574204,43.0173076 L4.91220154,43.0173076 C4.91220154,43.0173076 7.28656511,42.6823891 7.62475391,42.6823891 C7.96294271,42.6823891 8.5265886,45.6600682 10.3866254,45.7163565 C12.2466591,45.772648 14.3814753,44.0811663 14.3814753,44.0811663 L11.7379697,39.1854462 C11.7379697,39.1854462 12.2452513,39.0784992 12.1325228,38.5156092 C12.0197942,37.9527224 11.1165486,37.333544 11.1165486,37.333544 C11.1165486,37.333544 11.8450609,36.5440915 13.5923691,35.9249163 C15.3396742,35.3057379 15.9596876,35.8109305 16.7487937,35.3043321 C17.5378999,34.7977336 16.9192975,34.3994911 17.3702148,34.2306228 C17.8211353,34.0617577 20.0799485,33.3300026 21.2072434,33.8366011 C22.3345384,34.3432027 20.8098717,35.9769839 20.7535074,36.8213158 C20.6971431,37.6656476 21.3157455,38.909631 21.3157455,38.909631 C21.3157455,38.909631 23.1814166,38.4551001 24.590536,38.2299435 C25.9996523,38.00479 26.2744317,39.191076 27.7962797,38.909631 C29.3181278,38.628186 29.0391219,38.5156092 29.0391219,38.5156092 C29.0391219,38.5156092 28.810843,37.3884234 29.7690451,36.7129598 C30.7272441,36.037493 30.838568,36.490618 31.5149425,35.5899978 C32.1913201,34.6893745 31.8009934,34.0687934 32.5900996,33.3933266 C33.3792057,32.7178599 35.0109636,31.5329798 35.6873412,31.3641147 C36.3637188,31.1952496 38.5633522,33.449615 38.6760807,34.1813701 C38.7888124,34.9131252 38.1730256,34.4585943 38.1730256,35.865813 L38.1730256,38.909631 C38.1730256,38.909631 36.7033154,38.0061959 35.5196561,38.456506 C34.3359969,38.9068161 33.8878951,40.1437638 35.9733922,40.2000522 C38.0588861,40.2563437 41.2674485,39.9186103 42.3947434,40.2000522 C43.5220384,40.4814972 44.1406408,41.9435984 44.1406408,41.9435984 L49.4473638,36.8804348 L49.3289979,34.8019701 L51.1932612,33.0485734 C51.1932612,33.0485734 51.1945237,34.006891 52.2092353,34.4572011 C53.2237986,34.9075112 54.0608192,34.7991552 54.793558,36.7129755 C55.5262998,38.6267927 55.6418471,38.7421875 55.6418471,38.7421875 C55.6418471,38.7421875 54.5681009,39.1291736 54.0044518,40.3675272 C53.4408059,41.6058808 53.1589814,42.0069382 54.3990049,43.4704484 C55.6390315,44.9339554 56.3238589,45.7163723 56.9438722,46.8984375 C57.5638824,48.0805027 56.8861002,49.0360054 57.5061103,49.4300272 C58.1261237,49.8240489 58.4065373,49.8268638 59.2520077,49.4891304 C60.0974781,49.1513971 59.1350495,48.6490193 60.544169,48.592731 C61.9532885,48.5364426 63.5329085,49.435657 63.5329085,50.7302989 C63.5329085,52.0249409 62.8029853,53.8824728 62.8029853,53.8824728 C62.8029853,53.8824728 67.9321753,53.7150136 69.5103876,53.7150136 C71.0885999,53.7150136 73.9096543,54.4439538 73.9096543,54.4439538 C73.9096543,54.4439538 74.7480796,53.1493087 75.5371858,52.8678668 C76.3262919,52.5864218 76.6067087,52.9776318 77.2830831,52.8087636 C77.9594607,52.6398985 78.5245175,51.0061141 80.2718226,51.7941576 C82.0191277,52.5822011 81.3483907,53.2070061 81.9684008,53.8824728 C82.5884142,54.5579396 83.0928771,54.719769 83.0928771,54.719769 C83.0928771,54.719769 82.7518696,55.1785207 83.0336941,56.4731658 C83.2098353,57.2823162 83.4718627,57.7424611 83.6452514,57.9704484 L86.6635824,57.3400136 C86.6635824,57.3400136 86.3439344,54.7096663 86.742493,53.7544158 C87.1410516,52.7991621 89.0500761,49.2165147 90.0863303,48.8980978 C91.1225845,48.579681 101.24337,46.4312128 102.120199,45.873981 C102.997029,45.3167491 105.868453,42.7710598 105.868453,42.7710598 C105.868453,42.7710598 103.95382,38.9495974 103.07699,37.9147418 C102.200161,36.8798832 102.041288,36.9592391 102.041288,36.9592391 C102.041288,36.9592391 101.967984,33.059773 101.410003,31.9453125 C100.85202,30.8308488 100.285527,30.5071332 100.285527,30.5071332 L99.8120635,25.0991848 C99.8120635,25.0991848 100.526517,24.7741168 101.084497,24.7741168 C101.64248,24.7741168 103.316377,26.1318905 104.033781,26.2911005 C104.751189,26.4503074 105.315527,25.4972066 106.351781,25.0991848 C107.388035,24.7011629 108.743082,24.9391773 109.301065,25.1779891 C109.859048,25.4168041 110.091222,26.4487092 110.968052,26.4487092 C111.844881,26.4487092 112.960545,25.5720109 112.960545,25.5720109 L110.336767,19.6025815 L108.502095,17.9279891 L106.27287,15.3077446 L106.825244,12.9928668 L106.184096,11.328125 L102.99808,10.205163 L101.410003,7.58491848 L101.400155,7.4076087 L101.133832,7.22044837 L98.5889648,6.43240489 L94.6434341,6.54076087 L89.6326101,3.3294837 L87.0384236,0.344769022 L82.2446038,0.128057065 L80.9524425,1.19191576 L78.585124,0.00985054348 L78.5851082,0.00985054348 Z M46.1627095,36.3189538 L44.4168122,38.9490489 L44.0913059,36.7129755 L46.1627095,36.3189538 Z" id="path" fill="#F6F6F6" fill-rule="nonzero"></path>
                            </g>
                            <g id="gelderland" transform="translate(97.000000, 102.000000)">
                                <path d="M49.9485453,0.0686453975 C49.9485453,0.0686453975 50.4533311,3.60037971 47.0414871,7.74712343 C43.6296461,11.8938672 40.5519935,12.560705 39.7689476,13.1210774 C38.9859016,13.6814467 39.8220819,13.968637 38.5356501,14.6410826 C37.2492152,15.3135251 36.7458294,14.8638295 36.1865122,15.2000523 C35.6271919,15.5362751 36.2424436,15.8668933 35.7949892,16.6514121 C35.3475317,17.435931 33.8345804,17.9963002 33.3871228,19.0049686 C32.9396684,20.0136339 32.3817482,23.2637856 31.6546336,24.104341 C30.9275191,24.9448964 24.1667565,26.1833159 24.1667565,26.1833159 C24.1667565,26.1833159 24.502348,28.2538839 24.9498024,29.2625523 C25.3972568,30.2712176 26.2292432,30.6116423 26.1733118,31.115978 C26.1173804,31.6203107 25.3902658,32.3403891 25.3902658,32.9007584 C25.3902658,33.4611308 28.8091009,34.1363755 29.2565553,34.9208944 C29.7040097,35.7054132 30.2605299,37.1091433 29.1978269,39.2945868 C28.1351207,41.4800335 27.8568606,41.3091213 28.2483836,41.9815638 C28.6399066,42.6540094 29.8102784,42.8795586 31.0967134,41.8148536 C32.3831451,40.7501485 32.3272137,39.5131318 33.0543283,39.9614278 C33.7814397,40.4097238 33.3913168,43.3838912 33.670977,44.16841 C33.9506372,44.9529289 34.5099544,44.675545 34.845546,45.4040272 C35.1811376,46.1325094 34.6218203,46.407091 34.845546,47.2476464 C35.0692747,48.0882019 35.6327859,47.6413086 35.9124461,48.6499738 C36.1921063,49.6586423 35.3489318,49.4891266 36.0201149,50.3857218 C36.6912981,51.2823138 37.8616731,51.3929874 38.0853987,52.1214697 C38.3091275,52.8499519 37.8113326,54.8672856 37.8113326,54.8672856 L34.1212284,54.6515429 L27.9645295,51.2879184 L20.9171157,53.2982479 L19.9676724,54.1416056 L17.168283,53.7493462 L14.8191451,52.0724372 L12.3623384,53.4159257 L10.5123922,52.4646967 C10.5123922,52.4646967 10.5739177,54.3671548 10.2383261,55.1516736 C9.90273457,55.9361925 7.49766523,60.2552479 6.71461925,60.5354341 C5.93157328,60.8156172 5.08979885,60.5312291 4.69827586,61.0355649 C4.30675287,61.5398975 4.41581865,62.3790533 3.85650144,62.7713128 C3.29718422,63.1635722 0.890714799,62.9394257 0.49919181,63.1635722 C0.107668822,63.3877218 -0.170591264,64.5673023 0.33279454,64.7914487 C0.836180345,65.0155983 1.78842376,64.6807751 2.12401221,65.0169979 C2.45960379,65.3532207 1.89888649,67.0861663 1.89888649,67.0861663 L0.773257902,67.6941684 L5.25619612,71.4010199 L6.26436782,70.616501 L8.50583693,71.7344404 L9.17142601,74.1468358 L13.2041128,73.9801255 L16.7278197,74.8725157 L20.2515266,73.1956067 L23.324982,67.988363 L24.8323455,66.9194561 L28.5224497,67.5961036 L30.3723958,65.9093881 L32.7215338,67.0861663 L34.0037716,66.0270659 L38.7607759,66.2428086 L41.3350395,69.2141736 L46.3073815,72.4110879 L50.2226114,72.3032165 L52.7479346,73.0877354 L53.0122126,73.2740586 L52.8556034,70.8322437 L54.2846624,70.8322437 C54.2846624,70.8322437 54.6804107,72.4129299 55.2341056,73.2054132 C55.7878037,73.9978964 58.0041307,73.8428347 58.0041307,73.8428347 L58.0041307,73.8624477 C59.1392624,73.3816946 60.1010934,72.5646088 59.9030172,71.1754707 C59.4555628,68.0373954 57.4951509,67.2528766 57.4951509,67.2528766 L58.7871767,65.9093881 C58.7871767,65.9093881 60.8580546,66.529999 62.9275323,65.0169979 C64.9970101,63.5039969 64.3174389,62.4967312 64.3174389,62.4967312 L69.8574892,64.3403504 C69.8574892,64.3403504 70.0252834,62.7124738 69.4659662,61.927955 C68.9066459,61.1434362 66.2261135,59.2998169 66.2261135,59.2998169 L69.2408405,58.6231695 C69.2408405,58.6231695 71.3089213,61.1994728 72.1478987,61.5356956 C72.9868792,61.8719184 76.3427888,61.4810586 76.8461746,61.7612448 C77.3495635,62.0414278 78.2458693,63.7225418 78.2458693,63.7225418 C78.2458693,63.7225418 80.5418728,63.4479603 81.0452586,63.8402197 C81.5486444,64.2324791 81.8283046,65.1248692 81.8283046,65.1248692 L84.1187141,65.6838389 L84.0697737,63.6735094 C84.0697737,63.6735094 82.2240216,62.7152762 83.2867277,61.9867939 C84.3494339,61.2583117 84.6822253,62.8273494 85.5771372,62.7713128 C86.472046,62.7152762 86.6370432,62.1535042 87.0845007,62.1535042 C87.5319551,62.1535042 87.5906836,63.1607699 88.3177981,63.1047333 C89.0449127,63.0486967 91.9505708,61.2597113 92.1742996,60.6433054 C92.3980252,60.0268964 92.2875625,59.6304351 92.7909483,59.5743985 C93.2943341,59.5183619 93.4649285,60.3042803 94.0242457,60.1922071 C94.583566,60.0801308 95.6994066,58.9075575 97.0977011,58.1230387 C98.4959989,57.3385199 100.229885,56.4951621 100.229885,56.4951621 C100.229885,56.4951621 101.575048,58.2939508 102.637751,58.1818776 C103.700458,58.0698013 104.928161,56.8341872 106.10273,55.7694822 C107.277299,54.7047803 107.776491,53.2492155 107.776491,53.2492155 C107.776491,53.2492155 107.164036,53.0222636 107.443696,52.4058577 C107.723353,51.7894487 108.616868,52.0135983 108.784662,51.2290795 C108.952457,50.4445607 108.731528,49.3266213 108.451868,48.9343619 C108.172208,48.5421025 107.16963,48.5911349 107.16963,48.5911349 C107.16963,48.5911349 105.820273,46.9702626 104.086386,45.7374477 C102.3525,44.5046328 100.171157,43.4917626 100.171157,43.4917626 L100.004759,41.3637552 C100.004759,41.3637552 102.078434,41.8722929 103.029274,40.8636245 C103.980118,39.8549592 103.469738,36.8821914 103.469738,36.8821914 C103.469738,36.8821914 102.07284,36.8821914 100.56268,36.489932 C99.0525191,36.0976726 98.8847248,36.1032741 98.6050647,35.823091 C98.3254045,35.5429048 98.6637931,32.6766119 98.2722701,32.1162395 C97.8807471,31.5558703 97.5479526,31.1650105 97.5479526,31.1650105 C97.5479526,31.1650105 95.5358032,32.4594665 95.0324174,32.4594665 C94.5290316,32.4594665 94.468903,31.1720146 93.9655172,31.115978 C93.4621314,31.0599383 91.3968477,31.4465962 90.7256645,31.3905596 C90.0544814,31.334523 89.3749102,30.9394613 89.3749102,30.9394613 C89.3749102,30.9394613 88.040935,31.8934927 87.5934806,31.5572699 C87.1460262,31.2210471 84.9590884,28.5943086 84.7353628,27.9779027 C84.511634,27.3614937 84.6808283,26.736681 83.7859195,25.8400889 C82.8910107,24.9434969 80.5950072,24.8370282 79.4204382,25.5655073 C78.2458693,26.2939895 78.079472,27.9190638 78.079472,27.9190638 C78.079472,27.9190638 76.6266429,27.0238713 75.1724138,26.9678347 C73.7181847,26.9117981 71.4823096,27.0757061 71.4823096,27.0757061 C71.4823096,27.0757061 71.6473068,26.5153368 71.0320582,26.2911872 C70.4168064,26.0670408 69.5246947,26.6246077 69.5246947,26.6246077 L67.5670797,24.9476987 L65.7171336,20.1817469 C65.7171336,20.1817469 63.4798585,20.1817469 62.9764727,19.7894874 C62.4730869,19.397228 61.6900409,16.261955 62.1934267,15.9257322 C62.6968125,15.5895094 64.4936243,14.5234048 64.4936243,14.5234048 L66.6665769,11.6108787 C66.6665769,11.6108787 64.7662934,11.3306925 64.1510417,10.4341004 C63.5357899,9.53750837 64.0965072,8.52883996 64.3761674,8.47280335 C64.6558244,8.41676674 65.3843391,8.08054393 65.3843391,8.08054393 L62.2521552,3.08904289 L59.73662,1.63768305 L56.3793103,4.88362971 L55.4885955,3.87356172 L54.7055496,4.71691946 L51.230783,0.12748431 L49.9485453,0.0686453975 Z" id="path" fill="#F6F6F6" fill-rule="nonzero"></path>
                            </g>
                            <g id="zuid-holland" transform="translate(29.000000, 119.000000)">
                                <path d="M31.9408096,62.327527 C31.0301641,63.832754 29.4934534,63.9442513 28.2982343,63.832754 C27.1030151,63.7212535 27.1030151,63.7770021 26.2492876,63.7212535 C25.3955602,63.6655017 25.1109833,63.9442513 24.7125769,63.6655048 C24.3141705,63.3867582 24.200341,62.5505218 23.1189514,62.1602779 C22.0375649,61.770034 20.273192,61.4912905 19.3056351,60.8780488 C18.3380749,60.264807 19.0779729,60.097561 17.5412622,59.4843192 C16.0045546,58.8710806 12.8173036,58.982578 12.1912351,58.2578388 C11.5651665,57.5330997 10.711439,51.1776999 8.77632191,50.4529608 C6.84120797,49.7282217 5.36141195,49.8397221 3.65395697,50.7317073 C1.9464988,51.6236925 1.83266932,51.902439 1.26351873,51.7909417 C0.69436494,51.6794412 -0.102447809,50.3972121 0.182129084,49.9512195 C0.466705976,49.5052269 2.06033147,48.0557487 2.68639681,47.8885026 C3.31246534,47.7212535 2.91405896,48.0557487 3.76778645,47.6655048 C4.62151394,47.2752609 9.11839363,45.5659364 9.63063267,45.6774338 C10.1428685,45.7889342 15.6061482,50.0069682 16.9721116,50.8432047 C18.3380749,51.6794412 20.8423458,52.3484316 22.4928861,54.2439024 C24.1434263,56.1393733 24.0865116,56.6968632 25.4524749,57.5888515 C26.8184414,58.4808367 28.3551522,58.6480827 29.9487777,60.0418123 C31.3618709,60.983065 31.7855299,61.6866529 31.9408096,62.327527 L31.9408096,62.327527 Z" id="path" fill="#F6F6F6" fill-rule="nonzero"></path>
                                <path d="M35.1447012,8.55149268 C32.2420271,13.7919095 26.8407745,19.8990174 23.7104382,23.5784585 C20.580102,27.2579028 15.8864542,32.5560976 15.8864542,32.5560976 C15.8864542,32.5560976 17.5953339,35.2891973 16.9123506,34.7317073 C16.2293673,34.1742142 15.0393147,33.5267247 13.9579251,33.3037268 C12.8765355,33.080729 13.0103076,32.7649436 12.3273275,32.5976976 C11.6443442,32.4304515 10.1989418,32.8369951 10.2558566,34.0077268 C10.3127745,35.1784585 10.5406948,34.7832757 10.5976096,35.6195122 C10.6545243,36.4557487 8.7734757,37.9121951 8.54581673,38.302439 C8.31815458,38.6926829 7.75611793,39.1930318 8.49601594,40.0292683 C9.23591394,40.8655079 11.4470693,39.077351 11.9023904,39.7463415 C12.3577116,40.4153288 11.3403538,40.8097561 11.0557769,41.9804878 C10.7712,43.1512195 11.8511649,43.2083637 12.4203187,43.7658537 C12.9894693,44.3233436 13.2126024,44.6223828 13.781753,45.7373659 C14.3509068,46.8523458 14.8148175,47.2909019 15.7236653,47.6300488 C16.5202837,47.9273147 16.3326151,47.965696 17.0433498,48.4331707 C17.3110725,48.6092613 18.2330869,48.0726416 18.9334406,48.2759867 C19.6337912,48.479335 20.1124813,49.4226451 20.4057371,49.8780878 C21.6003761,49.5976367 22.6264096,50.6188176 23.1386486,51.2878049 C23.6508845,51.9567953 23.586706,53.3894962 25.3372908,53.9846244 C27.0833339,54.5782072 28.6354582,54.989312 30.2290837,55.6583024 C31.8227092,56.3272898 32.5142279,56.8682927 35.189243,58.0390244 C37.864255,59.2097561 40.1380175,59.877351 42.6992032,59.7658537 C45.2603857,59.6543563 45.9433689,58.0334517 47.4800797,57.1414634 C49.0167873,56.2494782 51.0657371,57.2 51.0657371,57.2 L54.5916335,54.9658537 L56.3545817,51.9609756 L61.1952191,50.6243902 L63.3565737,48.8878049 L68.6553785,48.7804878 L71.1952191,48.595122 C71.3415968,48.0753452 71.5703044,47.1283762 71.3247012,46.8878049 C70.9832127,46.5533097 70.0142279,46.8865561 69.501992,46.6634146 C68.9897562,46.4404199 69.2729084,45.2669003 69.6713147,45.0439024 C70.0697211,44.8209077 72.5184988,45.0439024 73.0876494,44.6536585 C73.6568,44.2634146 73.5458167,43.4285705 73.9442231,42.9268293 C74.3426295,42.4250849 75.1992032,42.7080117 75.9960159,42.4292683 C76.7928287,42.1505218 79.2401817,37.8536585 79.5816733,37.0731707 C79.8964845,36.3536578 79.8669514,34.75328 79.8605578,34.497561 L78.2669323,32.7804878 L76.3346614,31.3268293 L72.689243,33.6195122 L69.561753,34.1170732 L68.1972112,35.3463415 L64.8406375,37.0731707 L63.187251,37.0731707 C63.187251,37.0731707 62.9553211,35.7379778 61.7031873,34.4 C60.4510534,33.0620222 59.3781992,31.8313584 59.4920319,31.3853659 C59.6058614,30.9393733 60.792545,31.2181198 61.3047809,30.995122 C61.8170199,30.7721272 61.9379633,30.2132386 61.6533865,29.9902439 C61.3688096,29.767246 58.8033594,30.1602779 58.5756972,29.6585366 C58.3480382,29.1567953 59.2586805,27.53728 59.7709163,27.2585366 C60.2831554,26.97979 60.9704032,27.3198611 61.2549801,26.9853659 C61.539557,26.6508706 61.9934534,25.8634146 61.8227092,25.4731707 C61.6519618,25.0829268 60.2290837,25.3658537 60.2290837,25.3658537 C60.2290837,25.3658537 59.7709163,24.6439024 59.37251,23.4731707 C58.9741036,22.302439 59.6599299,21.6320562 59.4322709,20.9073171 C59.2046088,20.1825811 58.4063745,20.519858 58.0079681,19.795122 C57.6095618,19.0703828 58.1203761,18.2829268 58.9741036,17.8926829 C59.8278343,17.502439 61.4200351,17.8439024 61.9322709,17.8439024 C62.4445068,17.8439024 63.2982343,16.387456 63.12749,15.9414634 C62.9567426,15.4954708 60.5705721,14.4947731 59.8306773,13.6585366 C59.0907793,12.8223001 59.4322709,12.595122 59.4322709,12.595122 C59.4322709,12.595122 57.8955602,12.6034888 57.440239,11.9902439 C56.9875697,11.3805799 58.505804,10.6597276 57.9083665,10.0487805 C57.904,10.0503415 57.4124303,9.87237463 57.4124303,9.87237463 L56.3240446,9.75537639 L55.5397227,10.606336 L54.997294,10.6701705 L54.6345849,10.983986 L54.2892398,10.9414931 L53.7073307,11.7458732 L53.0218327,11.2522115 C53.0218327,11.2522115 53.0355378,10.1833272 53.041753,9.2577561 C52.5539952,9.21319961 51.6870948,9.12554146 51.6870948,9.12554146 C51.6870948,9.12554146 51.5139187,9.34610732 50.8615936,9.83750244 C50.4892781,9.87654556 49.9030279,9.45927805 49.9030279,9.45927805 C49.9030279,9.45927805 49.2078279,9.9140558 48.4592606,10.3310392 C47.7106932,10.7480258 47.38909,11.0772574 46.3889976,11.0453916 C45.6143108,11.020697 45.1936606,10.5450646 44.8846215,10.5431571 C44.4047681,10.5403473 44.4461131,10.783513 44.0920861,10.7806377 C43.5947347,10.7766103 43.0383108,10.5323083 42.8738645,10.2090802 C42.7094151,9.88584898 43.0131665,9.3073202 43.4344446,9.01794029 C43.8196016,8.75337366 43.8098454,6.57723005 43.8226231,5.85816039 C44.4959171,5.12552898 45.3223777,4.22403746 45.4361689,3.70095766 C45.6661641,2.64368078 46.1613673,1.80292059 46.2119299,1.64133151 C45.8381291,1.49538341 45.2015904,0.904906927 44.8355729,1.1055079 C44.4937785,1.29283434 44.1941068,1.30158829 43.9343522,1.28514498 C43.71891,1.58731863 43.5383331,1.99969405 43.5383331,1.99969405 L39.3444207,0.198765268 C39.3444207,0.198765268 35.7177275,7.50791805 35.1447012,8.55149268 L35.1447012,8.55149268 Z" id="path" fill="#F6F6F6" fill-rule="nonzero"></path>
                            </g>
                            <g id="noord-holland" transform="translate(69.000000, 37.000000)">
                                <g id="texel" transform="translate(6.901961, 0.000000)" fill="#F6F6F6" fill-rule="nonzero">
                                    <path d="M4.71708549,20.3051852 C5.16526745,21.5903226 1.01960784,22.540206 0.291316078,22.149077 C-0.436975686,21.757948 0.291316078,20.5286857 1.74789961,20.0816816 C3.20448314,19.6346774 4.38095373,19.6346774 4.71708549,20.3051852 L4.71708549,20.3051852 Z" id="path"></path>
                                    <path d="M7.18207373,20.0258065 C9.08683608,20.3051852 10.3753506,16.44977 11.3837522,16.058641 C12.3921569,15.667512 12.3921569,16.3938949 13.1204486,15.7233871 C13.8487404,15.0528793 13.1764706,14.1029958 14.1848753,13.2089844 C15.1932769,12.3149761 15.4733898,12.7619802 15.9215686,11.6444683 C16.3697475,10.5269594 15.4733898,10.4710812 15.6414557,9.24181894 C15.8095247,8.01255671 16.8739482,5.05115297 16.5378165,4.54827055 C16.2016816,4.04539126 15.6974776,4.60414568 15.3613459,3.98951613 C15.025211,3.37488345 15.1932769,0.525229968 13.9607843,0.189976065 C12.7282918,-0.145277839 9.19888,6.00103642 8.30252235,7.73317794 C7.40616157,9.46532258 7.35013961,9.85645161 6.45378196,11.532718 C5.55742431,13.2089844 4.94117647,13.4883632 4.82913255,15.2763829 C4.71708549,17.0643996 4.54901961,19.9699313 7.18207373,20.0258065 L7.18207373,20.0258065 Z" id="path"></path>
                                </g>
                                <path d="M15.6666667,22.0694556 C14.8123263,22.0834111 13.8025224,22.209145 13.1862745,22.6561492 C11.953782,23.5501575 11.6722698,27.0116526 11,30.0289315 C10.3277302,33.0462135 10.7829114,33.4373425 9.7745098,36.678125 C8.7661051,39.9189106 7.19607843,43.8804876 7.19607843,44.774496 C7.19607843,45.6685043 7.92156863,46.674266 7.92156863,47.9035282 C7.92156863,49.1327905 6.74789961,50.251698 6.80392157,53.2131048 C6.85994353,56.1745086 6.96918902,55.9496125 6.35294118,59.2462702 C5.73669333,62.5429309 4.16666667,69.4742944 4.16666667,69.4742944 C4.16666667,69.4742944 3.94117647,71.4285408 3.54901961,73.5518145 C3.15686275,75.6750851 1.75910275,77.6377142 1.25490196,79.3698589 C0.750701176,81.1020004 0.176470588,82.7629032 0.176470588,82.7629032 C0.174105098,82.7797531 0.16899451,82.7949821 0.166666667,82.8117944 L4.26470588,84.6109879 C4.26470588,84.6109879 4.4448,84.2000365 4.65686275,83.8971774 C4.91254275,83.913658 5.20278275,83.8991425 5.53921569,83.7113911 C5.89949176,83.5103352 6.53402353,84.1029144 6.90196078,84.2491935 C6.85219137,84.4111491 6.36364235,85.2527243 6.1372549,86.3123992 C6.02524863,86.8366654 5.21175216,87.739094 4.54901961,88.4733871 C4.53644235,89.1940877 4.54578196,91.3763655 4.16666667,91.6415323 C3.75199686,91.9315685 3.45577725,92.5105115 3.61764706,92.8344758 C3.77951373,93.158437 4.32417569,93.4073547 4.81372549,93.4113911 C5.16219922,93.414273 5.11590902,93.1738976 5.58823529,93.1767137 C5.89242667,93.1786255 6.30609255,93.6506526 7.06862745,93.6754032 C8.05303216,93.7073413 8.37101804,93.3795251 9.10784314,92.9615927 C9.74281412,92.6014349 10.2591341,92.2700234 10.4117647,92.1695565 C10.9708863,91.6137934 11.1776,91.3139351 11.8529412,90.7419355 C12.5138353,90.7485377 12.681029,90.2408961 12.9803922,89.5489919 C14.1693553,89.1714085 14.8368157,88.3105178 15.4117647,88.8058468 C15.9259106,89.2487957 15.8531827,89.6032306 15.5784314,90.5365927 C15.4398024,91.0075246 15.3004016,91.2457191 15.0784314,91.5241935 C14.9989271,91.6239377 14.6159812,91.7586676 13.754902,91.8762097 C13.7087341,91.8825115 13.6667451,91.9077284 13.6176471,91.9446573 C13.6113067,92.8522268 13.5980392,93.880746 13.5980392,93.880746 L14.2745098,94.3794355 L14.8529412,93.5678427 L15.1862745,93.6167339 L15.5490196,93.3038306 L16.0784314,93.2353831 L16.8529412,92.3846774 L17.9215686,92.5020161 C17.9215686,92.5020161 18.3813553,92.673412 18.4019608,92.6780242 C19.1995451,92.2656866 20.0598463,91.8971179 20.6960784,91.4361895 C21.5364141,90.7098097 20.9775906,90.0895886 21.7058824,89.7543347 C22.4341741,89.4190808 23.9481788,89.9834268 24.6764706,89.4805444 C25.4047624,88.9776651 25.5098039,87.691129 25.5098039,87.691129 C25.5098039,87.691129 27.1372549,88.0305727 27.9215686,87.5835685 C28.7058824,87.1365613 28.6484612,85.1208512 29.2647059,84.9532258 C29.8809537,84.7855973 30.4411765,84.8456653 30.4411765,84.8456653 L30.1078431,87.1337702 C30.1078431,87.1337702 32.9663875,85.7955488 33.4705882,86.0190524 C33.9747922,86.2425529 33.4705882,87.5248992 33.4705882,87.5248992 C33.4705882,87.5248992 34.7591059,87.3572738 35.0392157,87.9160282 C35.3193286,88.4747858 35.3179263,89.0321415 34.8137255,89.2556452 C34.3095216,89.4791457 32.9607843,89.0894153 32.9607843,89.0894153 L32.7941176,92.2184476 C32.7941176,92.2184476 33.7507012,93.1096648 34.6470588,93.3331653 C35.5434196,93.556669 37.7773114,92.7744109 38.2254902,93.3331653 C38.6736722,93.8919229 39.0098039,94.7859312 38.6176471,95.2888105 C38.2254902,95.7916929 37.7843137,95.8503623 37.7843137,96.1297379 C37.7843137,96.4091167 37.4439749,97.0265405 39.4607843,96.9706653 C41.4775906,96.9147871 41.8193286,96.5208669 42.3235294,95.3474798 C42.8277302,94.1740927 42.0980392,94.5093466 42.4901961,93.7829637 C42.8823529,93.0565839 43.8291325,90.3731571 44.3333333,89.6467742 C44.8375341,88.9203913 44.5084016,88.5306609 45.0686275,87.9160282 C45.6288502,87.3013987 47.8137255,86.6839718 47.8137255,86.6839718 C47.8137255,86.6839718 47.6428549,85.9017137 46.5784314,85.5105847 C45.5140047,85.1194556 43.3263278,83.9446699 42.2058824,84.1122984 C41.0854337,84.2799238 40.6414588,84.7842017 39.745098,84.7283266 C38.8487404,84.6724515 36.9369757,81.4847499 35.4803922,81.540625 C34.0238118,81.5965001 33.4159655,81.7683184 32.9117647,81.8241935 C32.4075639,81.8800687 30.0546196,80.4859722 28.9901961,80.3183468 C27.9257694,80.1507214 27.0784314,78.5876008 27.0784314,78.5876008 L27.5882353,77.9129032 C27.5882353,77.9129032 28.9271718,77.8584268 29.4313725,77.7466734 C29.9355733,77.6349231 31.0616251,75.5633348 31.9019608,75.1163306 C32.7422965,74.6693265 34.2492988,73.1662739 33.745098,72.4957661 C33.2408973,71.8252583 31.6232471,72.3225523 31.7352941,70.8139113 C31.847338,69.3052703 32.8529412,69.9268838 32.8529412,68.809375 C32.8529412,67.691863 32.6876737,67.2448589 33.3039216,66.4626008 C33.9201663,65.6803427 34.4215686,65.3953786 33.6372549,64.3896169 C32.8529412,63.3838584 30.7745098,59.8650926 30.7745098,59.1387097 C30.7745098,58.4123267 30.3851545,58.2405116 30.0490196,57.681754 C29.7128878,57.1229996 29.3739514,55.2791047 29.9901961,54.5527218 C30.6064439,53.8263388 33.8039216,53.2186933 34.5882353,53.3304435 C35.372549,53.4421938 36.2114824,55.0081055 36.7156863,55.1198589 C37.2198871,55.2316091 41.8683482,52.3260774 42.372549,51.5996976 C42.8767498,50.8733146 42.5406149,50.0337859 43.1568627,49.4191532 C43.7731106,48.8045205 45.9005616,48.1884955 46.0686275,47.2386089 C46.2366965,46.2887254 46.1820737,42.9389806 45.5098039,42.6037298 C44.8375341,42.2684759 42.5994416,41.3674805 41.6470588,41.4792339 C40.6946792,41.5909841 39.3515388,43.4949471 38.3431373,43.3273185 C37.3347325,43.1596932 37.3921569,42.8230406 37,42.3201613 C36.6078431,41.817282 36.7156863,41.0950888 36.3235294,40.6480847 C35.9313725,40.2010774 35.3137255,39.4160282 35.3137255,39.4160282 C35.3137255,39.4160282 36.1540612,33.2110477 35.7058824,32.3170363 C35.2577035,31.423028 31.3921569,24.7780242 31.3921569,24.7780242 L27.4705882,24.3868952 C27.4705882,24.3868952 26.4061616,26.1763105 25.5098039,26.9585685 C24.6134463,27.7408266 23.2156863,28.5230847 23.2156863,28.5230847 C23.2156863,28.5230847 24.6176471,29.4715726 24.6176471,30.2538306 C24.6176471,31.0360887 24.3347357,31.9803837 22.9901961,30.91875 C21.6456596,29.8571132 21.3137255,28.5230847 21.3137255,28.5230847 C21.3137255,28.5230847 18.1162478,28.0160125 17.5,26.283871 C16.8837553,24.5517263 17.2254902,22.1476815 17.2254902,22.1476815 C17.2254902,22.1476815 16.5210071,22.0554876 15.6666667,22.0694556 Z" id="path" fill="#F6F6F6" fill-rule="nonzero"></path>
                                <path d="M36.7731137,70.7608304 C36.1583649,71.2637065 35.0955224,70.9235338 35.0003604,70.8725806 C34.9051984,70.8216275 34.7293811,68.1027018 34.8859905,68.0229272 C35.0425999,67.9431525 35.1772249,68.1990354 35.2862885,68.2464277 C35.3953521,68.29382 35.2379549,69.0584522 35.3148858,69.140436 C35.3918102,69.2224198 36.7159288,70.3138231 36.7731137,70.7608304 L36.7731137,70.7608304 Z" id="path" fill="#F6F6F6" fill-rule="nonzero"></path>
                            </g>
                            <g id="utrecht" transform="translate(85.000000, 121.000000)">
                                <path d="M12.4707031,0.0401785714 C12.2544656,0.0473464286 11.9573125,0.0746164286 11.6503906,0.160714286 C11.0365531,0.332906786 11.09375,2.40353679 10.3125,2.86272321 C9.53125,3.32190643 7.91015625,2.97321429 7.91015625,2.97321429 C7.91015625,2.97321429 7.805525,4.29480321 7.08007813,4.81138393 C6.35463125,5.32796786 4.84654063,4.74824571 4.12109375,5.09263393 C3.39564687,5.43702214 3.9522875,6.07414179 3.11523438,6.8203125 C2.3027125,7.54461643 0.912378125,8.06555893 0.830078125,8.09598214 C1.42749063,8.72598536 -0.064053125,9.4656375 0.380859375,10.0948661 C0.8272875,10.7262418 2.33398438,10.7176339 2.33398438,10.7176339 C2.33398438,10.7176339 1.9991625,10.9515311 2.72460938,11.8125 C3.45005312,12.6734689 5.78961875,13.7037632 5.95703125,14.1629464 C6.12444063,14.6221296 5.2873875,16.1216518 4.78515625,16.1216518 C4.282925,16.1216518 2.72182188,15.7700893 1.88476563,16.171875 C1.0477125,16.5736607 0.546875,17.3844064 0.9375,18.1305804 C1.328125,18.8767511 2.11076875,18.5294989 2.33398438,19.2756696 C2.55719687,20.0218436 1.88476563,20.7120536 2.27539063,21.9174107 C2.66601563,23.1227679 3.11523438,23.8660714 3.11523438,23.8660714 C3.11523438,23.8660714 4.51032187,23.5747768 4.67773438,23.9765625 C4.84514375,24.3783482 4.4001125,25.1890939 4.12109375,25.5334821 C3.842075,25.8778704 3.16825,25.5277286 2.66601563,25.8147321 C2.16378437,26.1017196 1.27092813,27.7691336 1.49414063,28.2857143 C1.71735625,28.802295 4.2327,28.3976389 4.51171875,28.6272321 C4.7907375,28.8568221 4.67215625,29.4322404 4.16992188,29.6618304 C3.66769062,29.8914236 2.50418438,29.6044329 2.39257813,30.0636161 C2.28096875,30.5227993 3.33286875,31.7898611 4.56054688,33.1674107 C5.788225,34.5449604 6.015625,35.9196429 6.015625,35.9196429 L7.63671875,35.9196429 L10.9277344,34.1417411 L12.265625,32.8761161 L15.3320313,32.3638393 L18.90625,30.0033482 L20.8007813,31.5 L22.3632813,33.2678571 C22.3626563,33.24555 22.3632813,33.1674107 22.3632813,33.1674107 L24.2089844,34.1417411 L26.6601563,32.765625 L29.0039063,34.4832589 L31.796875,34.8850446 L32.7441406,34.0212054 L39.7753906,31.9620536 L45.9179688,35.4073661 L49.5996094,35.6283482 C49.5996094,35.6283482 50.0962625,33.5620221 49.8730469,32.8158482 C49.6498344,32.0696743 48.4821438,31.9563129 47.8125,31.0379464 C47.1428563,30.1195768 47.9840969,30.2932093 47.7050781,29.2600446 C47.4260594,28.2268832 46.8638406,28.6846296 46.640625,27.8236607 C46.4174125,26.9626918 46.9754469,26.6814418 46.640625,25.9352679 C46.3058031,25.1890939 45.7477688,25.4732143 45.46875,24.6696429 C45.1897313,23.8660714 45.5789594,20.8196743 44.8535156,20.3604911 C44.1280688,19.9013079 44.1838719,21.1683664 42.9003906,22.2589286 C41.6169063,23.3494907 40.4492188,23.1184639 40.0585938,22.4296875 C39.6679688,21.7409143 39.9455906,21.9159771 41.0058594,19.6774554 C42.066125,17.4389368 41.5108813,16.0011161 41.0644531,15.1975446 C40.618025,14.3939732 37.2070313,13.7023296 37.2070313,13.1283482 C37.2070313,12.55437 37.9324781,11.8168039 37.9882813,11.3002232 C38.0440844,10.7836393 37.2140063,10.4349471 36.7675781,9.40178571 C36.3371688,8.40569464 36.0189844,6.44075679 35.9960938,6.29799107 C34.8460875,5.50845643 33.5743438,4.65074679 33.0761719,4.34933036 C32.1275125,3.77535214 31.3476563,4.0078125 30.5664063,3.20424107 C29.7851563,2.40066964 30.0976563,2.07924107 30.0976563,2.07924107 L29.9804688,1.97879464 C29.6143344,2.089485 27.8931156,2.63791929 27.3925781,3.20424107 C26.8345406,3.83562 27.1623875,4.23596893 26.6601563,4.98214286 C26.157925,5.72831679 25.2148438,8.48485607 24.8242188,9.23102679 C24.4335938,9.97720071 25.1604344,9.6328125 24.6582031,10.8381696 C24.1559719,12.0435268 23.8155688,12.4481796 21.8066406,12.5055804 C19.7977094,12.5629779 20.1367188,11.9287318 20.1367188,11.6417411 C20.1367188,11.3547536 20.5761719,11.2944857 20.9667969,10.7779018 C21.3574219,10.2613211 21.0226031,9.34295464 20.5761719,8.76897321 C20.2037844,8.29018929 18.6022344,8.76010179 17.5585938,8.79909107 C17.5315313,10.3285704 17.4535188,12.6749507 17.1875,13.0580196 C16.7929094,13.6262314 14.5441875,13.7057721 14.2285156,13.2187339 C13.9128438,12.7316957 14.3058469,10.1782157 14.3847656,8.87944821 C14.4554156,7.71669964 15.0391344,7.60598357 15.1660156,7.59373393 L15.3320313,4.41962679 C15.0271625,4.28392607 14.7162844,4.1370975 14.6191406,4.01784107 C14.4029031,3.75237643 14.4907938,3.07795179 14.7558594,2.96315357 C15.0072188,2.85430179 15.75845,2.79789107 15.8398438,2.79239464 C15.8503125,2.7646875 16.3366969,1.48269536 15.8398438,1.25556429 C15.3376125,1.02597107 12.4902344,2.40065357 12.4902344,2.40065357 L12.8222656,0.0502071429 C12.8222656,0.0502071429 12.6869406,0.0329464286 12.4707031,0.0401785714 Z" id="path" fill="#F6F6F6" fill-rule="nonzero"></path>
                            </g>
                            <g id="fleveland" transform="translate(105.000000, 70.000000)">
                                <path d="M33.5893429,0.0800561798 C33.3814573,0.143092416 32.6766457,0.352871629 31.9501202,0.550386236 C31.1087745,0.779119551 30.7750405,0.321656124 30.4385016,0.550386236 C30.1019627,0.779119551 29.8131014,2.38167135 28.6913061,4.38307584 C27.5695139,6.38448034 25.9499194,7.58532303 25.8938301,7.98560393 C25.8377408,8.38588483 25.8910032,10.0970857 26.2275641,12.899052 C26.564103,15.7010183 25.7199524,16.9004296 26.1686699,17.4722612 C26.6173874,18.0440897 27.3507603,17.8182192 28.8090946,19.5337079 C30.2674256,21.2491965 29.8131014,22.1069408 30.2618189,22.3356742 C30.7105396,22.5644043 36.0474751,22.2742038 38.2910657,22.0454705 C40.5346563,21.8167404 48.8920272,19.8167641 48.8920272,18.6731039 C48.8920272,17.5294438 47.705731,18.5087006 46.7522035,17.4222261 C45.7986792,16.3357485 47.2023251,15.8168147 47.3705929,15.130618 L47.9497196,12.7689607 C46.3187703,10.7205728 42.6147849,6.90282809 42.0602965,6.49455758 C41.3463916,5.96891191 39.3653624,6.16838949 38.9290865,5.76404494 C38.4928106,5.35970039 38.1732772,3.62254213 38.1732772,3.62254213 C38.1732772,3.62254213 38.2184295,3.54605646 38.3008814,3.44241573 C38.1354813,3.09308258 37.378648,1.61635989 35.8371394,0.830582865 C35.1329843,0.471642978 34.3389424,0.246723539 33.5893429,0.0800561798 Z" id="path" fill="#F6F6F6" fill-rule="nonzero"></path>
                                <path d="M40.3621795,36.1167723 C38.3429492,39.1474719 36.2676296,40.7485955 33.9118603,41.6063398 C31.5560911,42.4640842 31.2195522,42.3497191 30.7147454,42.9215476 C30.2099354,43.4933793 29.8173072,45.323233 28.5833333,46.0094297 C27.3493594,46.6956265 26.564103,46.238163 25.9471145,46.3525281 C25.3301291,46.4668931 24.2644231,47.6105533 24.2644231,47.6105533 C24.2644231,47.6105533 25.3862184,49.0401293 25.2740398,49.6691403 C25.1618581,50.2981546 23.3669881,54.872792 23.0304492,55.1015253 C22.6939103,55.3302554 17.0288475,56.817014 16.6362193,56.817014 C16.2435911,56.817014 10.6907069,50.0122387 6.93269276,49.3832245 C3.17467859,48.7542135 3.11858929,48.4682976 2.165065,49.0401293 C1.21153756,49.6119578 1.21153756,49.6119578 1.21153756,49.6119578 C1.21153756,49.6119578 0.538462885,48.5826627 0.426281154,48.1251993 C0.314102564,47.6677358 0.145834679,44.1795728 0.314102564,43.6649269 C0.48237359,43.1502809 8.11057737,39.261837 8.11057737,39.261837 C8.11057737,39.261837 9.1762834,40.1195813 10.4663466,39.4333878 C11.7564098,38.747191 12.7660265,36.6314215 12.7660265,36.6314215 C12.7660265,36.6314215 13.9439112,37.2604325 14.5048072,37.2604325 C15.0657065,37.2604325 15.6826919,36.2883231 15.5705133,35.8308597 C15.4583347,35.373393 14.5048072,35.259028 14.5048072,34.8015646 C14.5048072,34.3441011 15.7948736,34.9731121 16.0753201,34.3441011 C16.3557697,33.7150869 17.6458329,29.0832669 19.3285274,28.2827051 C21.0112188,27.4821433 21.8525646,28.1683369 22.3573713,27.6536909 C22.8621813,27.1390449 22.637821,26.3956657 23.4230774,25.7094689 C24.2083338,25.0232754 28.527244,22.4500392 28.9759615,22.5072217 C29.424679,22.5644043 28.7516044,23.1934185 30.5464744,23.8796152 C32.3413475,24.5658088 32.790065,24.5086262 33.7435893,24.7373596 C34.6971167,24.9660897 35.3701914,25.9382022 36.2115403,25.9953848 C37.052886,26.0525673 38.847756,25.8238372 39.4086552,26.1669324 C41.2596145,27.4249608 42.3814098,33.0860759 40.3621795,36.1167723 Z" id="path" fill="#F6F6F6" fill-rule="nonzero"></path>
                            </g>
                            <g id="overijssel" transform="translate(144.000000, 69.000000)">
                                <path d="M18.401343,0.29270362 L16.290031,1.43424774 C16.290031,1.43424774 16.012314,1.27813914 15.699251,1.27813914 C15.386188,1.27813914 15.1131911,2.3774871 14.643595,2.6928733 C14.173999,3.0082595 12.294093,3.87542403 11.9027634,3.67830882 C11.5114339,3.4811905 11.0006405,1.59075285 10.1788481,1.55132919 C9.35705579,1.51190552 8.5762655,2.61283643 8.06753616,2.80995475 C7.55880992,3.00706995 6.65801343,4.54587299 5.24922521,4.62471719 C3.84043698,4.70356452 2.98506818,3.8340209 1.81107955,3.87344457 C0.637090909,3.91286824 0.164643595,4.78082579 0.164643595,4.78082579 C0.164643595,4.78082579 0.479919421,6.47454475 0.910382231,6.86877828 C1.34084504,7.26301181 3.29547831,7.06852235 3.99987087,7.58102376 C4.70426343,8.09352828 10.5759298,14.1300573 10.5759298,14.8791007 C10.5759298,15.6281441 9.43546798,15.5838155 9.20067149,16.332862 C8.9658719,17.0819054 9.39894112,17.637499 9.90767045,17.9134615 C10.4163998,18.1894241 12.1413471,18.1116164 12.4935434,18.7818156 C12.8457397,19.4520117 13.0368316,20.0426704 11.9802428,20.7917138 C10.9236539,21.5407572 3.64624897,23.5859703 3.17665289,24.177319 C2.70705682,24.7686709 2.98595145,24.6114695 3.65121384,26.0701357 C4.31647314,27.5287989 4.4647469,32.0510464 4.4647469,32.0510464 L4.51317149,32.2266686 L5.75284091,32.2852093 L9.19098657,36.8513857 L9.96577996,36.012302 L10.8471074,37.0172511 L14.1690341,33.7877545 L16.6580579,35.231759 L19.7572314,40.1979638 C19.7572314,40.1979638 19.0363946,40.5324827 18.7596849,40.5882353 C18.4829721,40.6439879 17.9281643,41.6475445 18.5369318,42.5395928 C19.1456994,43.431641 21.0259556,43.7104072 21.0259556,43.7104072 L18.8759039,46.6081731 C18.8759039,46.6081731 17.0980289,47.6688748 16.5999483,48.0033937 C16.1018678,48.3379125 16.8766612,51.4572964 17.3747417,51.8475679 C17.8728223,52.2378394 20.0865186,52.2378394 20.0865186,52.2378394 L21.916968,56.979638 L23.8539514,58.6480486 C23.8539514,58.6480486 24.7366612,58.0933074 25.3454287,58.3163179 C25.9541932,58.5393315 25.7909349,59.0968609 25.7909349,59.0968609 C25.7909349,59.0968609 28.0032459,58.9337836 29.4421488,58.9895362 C30.8810517,59.0452888 32.3185692,59.9359446 32.3185692,59.9359446 C32.3185692,59.9359446 32.4832128,58.319106 33.6454029,57.5943156 C34.807593,56.8695284 37.0793988,56.9754574 37.964876,57.8675057 C38.8503533,58.7595539 38.6829421,59.3812002 38.904313,59.9944853 C39.1256808,60.6077673 41.2895702,63.2211938 41.7323089,63.5557127 C42.1750475,63.8902315 43.4949638,62.9410351 43.4949638,62.9410351 C43.4949638,62.9410351 44.1673729,63.3340947 44.8314824,63.3898473 C45.4955919,63.4455999 47.5391095,63.0609015 48.0371901,63.1166572 C48.5352707,63.1724099 48.5947655,64.4533371 49.0928461,64.4533371 C49.5909267,64.4533371 51.5818698,63.1654412 51.5818698,63.1654412 C51.5818698,63.1654412 51.911157,63.5543202 52.2985537,64.1118495 C52.6859504,64.669382 52.3511281,67.5211489 52.6278409,67.7999152 C52.9045537,68.0786783 53.0705795,68.0731052 54.5648244,68.4633767 C55.6005775,68.7338973 56.5487913,68.8086639 57.0538481,68.8341346 L57.4606147,68.8243934 C57.4606147,68.8243934 62.125844,69.1441413 63.3780992,68.3950948 C64.6303543,67.6460514 64.3821818,66.0496505 64.6952479,65.4583018 C65.008311,64.86695 66.181218,63.4023922 66.7290806,63.1264296 C67.2769401,62.8504671 68.2990692,63.1273663 69.1599948,62.0629398 C70.0209205,60.9985071 69.3144143,59.7003611 70.3318698,58.8724704 C71.3493285,58.0445796 72.4050806,58.280875 73.3051395,57.926062 C74.2051983,57.5712521 74.7481921,57.2528437 74.7481921,57.2528437 C74.7481921,57.2528437 72.6748357,54.414958 72.7530992,53.3111016 C72.8313657,52.2072483 73.3798667,49.2484659 73.6537965,48.657114 C73.9277293,48.0657653 74.7110269,47.1626427 74.5544938,45.3885903 C74.3979607,43.6145378 74.2385795,42.4308475 72.9080579,41.6029568 C71.5775362,40.7750661 71.7420837,39.8686246 71.1550878,39.6320857 C70.568095,39.3955438 69.8946229,35.768398 69.0728306,35.768398 C68.2510382,35.768398 67.3168605,39.3190755 66.6516012,39.3979229 C65.9863388,39.4767702 65.0883006,38.9648089 63.5621126,38.3734602 C62.0359277,37.7821083 62.0735362,36.9879964 60.821281,36.9879964 C59.5690258,36.9879964 59.4915961,37.5445298 57.8480114,37.5051061 C56.2044267,37.4656824 53.0346074,35.2593622 53.0346074,33.4853097 C53.0346074,31.7112573 53.4638895,30.9236332 53.1508264,30.489976 C52.8377634,30.0563188 51.8239928,28.3629964 51.8239928,28.3629964 C51.8239928,28.3629964 53.4273626,28.5129137 53.8578254,28.1581038 C54.2882882,27.803294 53.7748419,27.4080176 54.3227014,27.2897498 C54.870564,27.1714788 56.3565341,27.2897498 56.3565341,27.2897498 L53.7416064,24.3724704 L53.6544421,20.6356208 L52.3276085,20.5575665 L53.0733471,19.0159941 L47.2042872,17.0451231 C47.2042872,17.0451231 43.1707903,17.8318573 42.662061,18.1866672 C42.1533316,18.5414771 41.9961632,18.735673 41.7613636,19.4452928 C41.5265671,20.1549156 41.5676653,22.7626005 41.5676653,22.7626005 L39.611312,21.6600835 L38.0423554,22.9967633 L36.90922,21.5820292 L35.0303461,23.0748176 L33.8584711,21.2210281 C33.8584711,21.2210281 34.32728,20.5533578 33.9359504,20.0014296 C33.5446209,19.4495014 30.9626808,18.8208584 30.9626808,18.8208584 L30.4493802,17.9524887 C30.4493802,17.9524887 27.7140558,18.0325256 27.1661932,17.8354072 C26.6183306,17.638292 26.2221849,16.7723139 25.7134556,16.7328903 C25.2047293,16.6934666 22.4721539,16.6466652 22.1590909,16.4889706 C21.8460279,16.331279 18.9522025,10.8535095 19.0696023,10.459276 C19.1870021,10.0650394 23.1740393,7.35002986 23.3697056,7.03464367 C23.5653688,6.71925434 23.5653688,5.5348709 23.3697056,5.25890837 C23.1740393,4.98294271 18.401343,0.29270362 18.401343,0.29270362 Z" id="path" fill="#F6F6F6" fill-rule="nonzero"></path>
                            </g>
                            <g id="drenthe" transform="translate(162.000000, 33.000000)">
                                <path d="M20.6723958,0.126002674 C19.9126777,0.126002674 16.2335873,4.08355048 15.79375,4.74933155 C15.3539127,5.41511572 13.4682292,11.989639 13.4682292,11.989639 L11.3505208,11.989639 C11.3505208,11.989639 10.8323212,12.6165043 11.1921875,12.9298128 C11.5520538,13.2431214 13.6324398,13.4457306 14.0322917,14.1898396 C14.4321435,14.9339486 13.6700123,17.3637174 14.2697917,18.8519385 C14.8695678,20.3401565 18.3072917,22.8043656 18.3072917,23.9792781 C18.3072917,25.1541875 15.7152863,29.1042542 13.6760417,29.339238 C11.636797,29.5742186 11.3901042,27.7399733 11.3901042,27.7399733 C11.3901042,27.7399733 8.3165185,27.6573155 7.91666667,28.1664439 C7.51681167,28.6755691 7.51485467,29.9329409 5.15572917,31.6169786 C2.97924433,33.1706373 0.521755833,35.0340967 0.11875,35.3389037 C0.11875,35.3389037 4.995385,39.9982453 5.1953125,40.272393 C5.39523683,40.5465376 5.39523683,41.7231188 5.1953125,42.0364305 C4.995385,42.349739 0.921519,45.0468631 0.8015625,45.4385027 C0.681606,45.8301391 3.6384525,51.2718232 3.95833333,51.4284759 C4.27821417,51.5851318 7.070299,51.6316248 7.59010417,51.6707888 C8.1099125,51.7099527 8.51468533,52.5702261 9.07447917,52.7660428 C9.634273,52.9618626 12.4291667,52.8823529 12.4291667,52.8823529 L12.9536458,53.7449866 C12.9536458,53.7449866 15.5918148,54.3694884 15.9916667,54.9177807 C16.3915185,55.466073 15.9125,56.1293449 15.9125,56.1293449 L17.1098958,57.9709225 L19.0296875,56.4879679 L20.1875,57.8933824 L21.790625,56.565508 L23.7895833,57.660762 C23.7895833,57.660762 23.7475902,55.0702556 23.9875,54.3653075 C24.227413,53.6603625 24.3880042,53.4674458 24.9078125,53.1149733 C25.4276208,52.7625007 29.5489583,51.9809492 29.5489583,51.9809492 L35.5458333,53.9388369 L34.7838542,55.470254 L36.1395833,55.5477941 L36.2286458,54.8402406 C36.2286458,54.8402406 40.1061563,53.1529555 43.225,53.2312834 C46.3438468,53.3096113 47.7841672,54.4428476 48.0640625,54.4428476 C48.3439578,54.4428476 49.6959187,53.3944836 50.7755208,53.5511364 C51.8551198,53.7077922 53.772603,54.9980782 54.8921875,54.7239305 C56.011772,54.4497859 55.9807292,54.3653075 55.9807292,54.3653075 C55.9807292,54.3653075 55.6129747,49.3163455 55.7729167,46.3399064 C55.9328587,43.3634674 56.7328125,34.7476604 56.7328125,34.7476604 C56.7328125,34.7476604 55.2152825,34.9462344 54.5755208,34.4762701 C53.935756,34.0063057 55.0153582,32.9111974 54.5755208,32.4020722 C54.1356835,31.8929439 52.5369792,31.6945187 52.5369792,31.6945187 C52.5369792,31.6945187 54.2204773,29.0652391 54.1005208,28.3602941 C53.9805643,27.6553491 52.1001058,27.5816457 51.2604167,25.9759358 C50.4207275,24.370226 50.737296,24.3315056 49.6177083,23.0391043 C48.4981238,21.746703 44.6568305,18.0681755 43.9770833,16.9715909 C43.297333,15.8750094 36.7041968,9.2513815 35.6645833,8.78141711 C34.6249667,8.31145273 34.4276042,8.43248663 34.4276042,8.43248663 C34.4276042,8.43248663 33.7005343,9.37383904 33.1807292,9.25635027 C32.6609208,9.1388584 32.3098958,8.51002674 32.3098958,8.51002674 C32.3098958,8.51002674 31.2305977,9.76153957 30.3109375,9.6440508 C29.3912805,9.52655893 28.8622793,8.97580706 28.2625,7.95755348 C27.6627238,6.93929679 28.02234,6.04433818 27.3026042,5.45688503 C26.5828715,4.86942877 26.1049582,5.76601262 25.1453125,4.90441176 C24.18567,4.04281091 24.3528415,3.9673861 24.4328125,3.65407754 C24.5127835,3.34076898 24.9082147,2.94928139 24.8682292,2.67513369 C24.8282437,2.40098909 21.432114,0.126002674 20.6723958,0.126002674 Z" id="path" fill="#F6F6F6" fill-rule="nonzero"></path>
                            </g>
                            <g id="groningen" transform="translate(164.000000, 0.000000)">
                                <path d="M31.4086788,8.625 C31.1080373,8.68047915 31.0573219,9.11589499 30.6382772,9.25513699 C30.1593703,9.41427052 29.7136057,9.10305027 28.3567034,9.54066781 C26.999801,9.97828534 26.1673818,11.0131533 24.8503886,11.4507705 C23.5333954,11.8883881 24.7727795,11.2107205 20.7020725,12.5633562 C16.6313687,13.9159922 15.9487566,13.0355591 14.2326749,13.0753425 C12.5165932,13.1151258 8.16958461,16.265411 7.05213731,16.265411 C5.93469,16.265411 5.09705254,14.991043 4.05942358,14.4340753 C3.02179145,13.8771077 0.741974922,14.4316808 0.622247409,14.6703767 C0.502519896,14.909077 3.41742228,17.0530822 3.41742228,17.0530822 C3.41742228,17.0530822 1.02213876,16.8616122 0.543231865,17.2992295 C0.0643249741,17.736847 1.02238845,18.92605 1.50129534,19.6819349 C1.98020223,20.4378195 1.78637078,19.7587029 2.90382124,19.9576199 C4.02126855,20.1565368 3.9939829,20.9867338 4.13843912,21.0702055 C4.28289534,21.1536772 5.33034119,20.9587021 5.6496114,21.2769692 C5.96888161,21.5952366 6.33112047,22.4637733 6.33112047,23.895976 C6.33112047,25.3281785 5.08983368,25.532243 4.77056347,26.327911 C4.45129326,27.1235789 4.81528627,27.7951985 4.29647021,28.75 C3.77765731,29.7048025 2.73831845,29.9080658 2.49886658,31.2607021 C2.25941155,32.6133352 3.57545337,32.0500715 3.57545337,33.8403253 C3.57545337,35.630576 0.266276062,36.8712118 0.305827131,39.9743151 C0.346094404,43.0774215 3.0564856,43.43527 4.57302461,43.9126712 C6.08956047,44.3900725 5.85061114,43.390839 6.48915155,43.390839 C7.12769513,43.390839 6.84978482,43.8664885 7.32869171,44.5428082 C7.76551492,45.1596966 8.34221461,45.5669541 8.44478627,45.6357021 C8.4597044,45.6155692 8.48429404,45.5766267 8.48429404,45.5766267 L10.5979598,45.5766267 C10.5979598,45.5766267 12.4800437,38.8980663 12.9190415,38.2217466 C13.3580392,37.54543 17.0301064,33.5252568 17.7883744,33.5252568 C18.5466423,33.5252568 21.936289,35.8362433 21.9761982,36.114726 C22.0161074,36.3932119 21.621431,36.7908945 21.5416127,37.109161 C21.4617944,37.4274274 21.294942,37.5040458 22.2527526,38.3792808 C23.2105664,39.2545159 23.6875674,38.3437442 24.4059262,38.9404966 C25.1242881,39.5372458 24.7653584,40.4463664 25.3639896,41.4807363 C25.962624,42.515103 26.4906154,43.0745701 27.4085168,43.1939212 C28.2959941,43.3093119 29.316167,42.1501529 29.3839054,42.0714897 C29.3973381,41.5649415 29.423252,41.1464644 29.462921,41.0278253 C29.6026015,40.6101012 30.0364348,39.9152397 30.9543394,39.9152397 C31.858451,39.9152397 31.5659481,41.8932366 31.5568329,41.953339 C31.6412658,41.937239 31.9238317,41.9366404 32.751943,42.317637 C33.789572,42.7950382 40.3701224,49.5234803 41.0485751,50.6374144 C41.7270247,51.7513516 45.5609853,55.4880892 46.6784326,56.8009418 C47.7958831,58.1137944 47.4799189,58.1531275 48.3180052,59.7842466 C49.1560915,61.4153656 51.0329603,61.4902353 51.1526878,62.2063356 C51.2724153,62.9224359 49.5921308,65.5933219 49.5921308,65.5933219 C49.5921308,65.5933219 51.1877834,65.794887 51.6267811,66.3120719 C52.0657788,66.8292537 50.9882375,67.9416912 51.6267811,68.4190925 C52.2653215,68.8964937 53.7799547,68.6947774 53.7799547,68.6947774 C53.7799547,68.6947774 53.770378,68.8196453 53.7700935,68.822774 C53.9291423,68.2765019 54.5256812,66.292377 54.905942,65.672089 C55.3449397,64.9559888 57.373019,62.6048689 58.5702878,60.1780822 C59.7675535,57.7512955 59.2078769,56.081694 59.6468746,54.172089 C60.0858723,52.2624841 60.8518617,52.5444704 60.8518617,51.8681507 C60.8518617,51.1918341 60.490827,51.2307167 60.0518293,49.9974315 C59.6128316,48.7641463 59.8851254,48.5997656 59.7653979,45.6160103 C59.6456704,42.6322549 58.017179,41.7262345 58.017179,40.8112158 C58.017179,39.896197 58.7748938,39.1741482 59.054258,38.4580479 C59.3336191,37.7419445 58.8926175,38.0245799 59.2517969,37.0697774 C59.6109763,36.1149749 60.1304434,36.1876455 60.1703526,35.7898116 C60.2102618,35.3919778 59.7258902,35.1620755 59.7258902,34.9233733 C59.7258902,34.6846742 60.4073992,34.0424418 60.4073992,33.5252568 C60.4073992,33.0080751 59.3703202,30.6994863 59.3703202,30.6994863 C59.3703202,30.6994863 58.6087431,30.8204379 57.7307477,30.5419521 C56.8527522,30.2634693 56.8929648,30.0635016 55.7356052,29.6656678 C54.5782487,29.2678349 54.6236732,29.989533 53.2268617,29.1142979 C51.8300502,28.2390629 52.2238257,27.4820295 51.784828,26.2885274 C51.3458303,25.0950253 52.5880716,23.7416407 52.2687982,23.4233733 C51.949528,23.1051059 51.7442677,23.7029062 50.8662723,24.2996575 C49.9882768,24.8964086 48.597834,24.453094 45.3253073,22.9015411 C42.0527774,21.3499882 41.1680656,20.1947716 40.0905275,17.1712329 C39.0129862,14.1476942 39.333214,13.4371419 39.0139407,11.7264555 C38.6946705,10.015769 37.3791818,9.29492037 36.9002749,9.25513699 C36.421368,9.2153536 36.1798111,9.97268752 35.142179,10.0920377 C34.1045501,10.2113878 31.9958464,8.70456677 31.5568487,8.625 C31.501974,8.61505329 31.4516442,8.61707603 31.4086946,8.625 L31.4086788,8.625 Z" id="path" fill="#F6F6F6" fill-rule="nonzero"></path>
                                <g id="rotummerplaat" transform="translate(13.590674, 0.000000)" fill="#F6F6F6" fill-rule="nonzero">
                                    <path d="M0.304775596,1.54158445 C0.19189399,2.94814032 4.70706974,1.93542007 5.15858668,1.54158445 C5.61010363,1.14774884 4.08623197,0.416339919 3.18319808,0.416339919 C2.2801642,0.416339919 0.474093264,0.472602173 0.304775596,1.54158445 Z" id="path"></path>
                                    <path d="M7.8676915,0.360077697 C6.90821523,1.09148674 8.09344839,1.76663347 9.16580311,1.93542007 C10.2381578,2.10420699 11.3105125,0.472602173 11.0847525,0.303815475 C10.8589924,0.135028778 8.43208689,0.135028778 7.8676915,0.360077697 L7.8676915,0.360077697 Z" id="path"></path>
                                </g>
                            </g>
                            <g id="friesland" transform="translate(90.000000, 4.000000)">
                                <path d="M70.8548658,10.6348982 C69.0827986,10.65843 63.7955446,11.3740243 62.7126678,11.8544966 C61.5576034,12.3670005 61.6005342,12.4921047 60.4454698,13.122879 C59.2904022,13.7536529 58.6125487,13.390918 57.5769715,13.9034219 C56.5413974,14.4159258 54.6281631,15.2048881 53.7917366,15.7962387 C52.9553101,16.3875893 49.5654713,17.0969121 48.3307466,17.7671097 C47.0960219,18.437307 42.4030089,20.2901553 41.7657299,20.6843891 C41.128454,21.0786227 39.4126197,23.6429243 39.1338087,24.3919683 C38.8550009,25.1410117 37.4594038,26.0142208 36.3441695,26.7238405 C35.2289352,27.4334602 33.9592349,28.2601114 32.9236577,29.7582014 C31.8880805,31.2562881 31.5677424,33.7778479 31.1296141,34.7634333 C30.6914858,35.7490186 30.9684451,37.7972477 30.3311661,38.8222568 C29.6938903,39.8472627 29.1325683,39.6868955 28.7342701,41.0272907 C28.3359719,42.367686 30.1738486,44.4563784 30.1340185,45.9544683 C30.0941915,47.4525551 29.8087248,47.4588463 29.8087248,48.2473133 C29.8087248,49.0357804 30.1702432,50.335909 30.4888842,51.2426471 C30.8075221,52.1493851 31.050755,54.591701 31.050755,56.2869061 C31.050755,57.9821112 30.5717462,59.0046912 30.173448,59.4383484 C29.7751498,59.8720056 28.298946,60.5480963 28.4582634,61.7702206 C28.617584,62.9923448 31.8892823,64.6847244 32.8053691,64.96069 C33.7214559,65.2366526 34.7104968,64.1301767 35.4274329,64.2484446 C36.144369,64.3667156 38.4567028,66.29658 39.1338087,66.3754242 C39.8109179,66.4542715 40.0471922,66.1034237 41.3615772,65.9851527 C42.6759621,65.8668848 41.6406373,65.2776623 42.3177433,64.8045814 C42.9948493,64.3315006 42.760376,64.8048937 43.8357802,64.7655543 C44.9111875,64.7261306 44.6672512,64.092336 45.3045302,64.092336 C45.9418092,64.092336 45.9877399,64.7229616 46.664849,65.0777715 C47.341955,65.4325845 49.6931662,65.5081098 51.4456795,66.3754242 C52.9937334,67.1415521 53.7537801,68.581348 53.9198826,68.9219457 C54.1288212,68.6669642 54.6117352,68.2184205 55.4674916,68.1901867 C56.6623862,68.150763 57.532987,69.0203066 58.9668624,68.9414593 C60.4007378,68.8626151 61.3175753,67.323812 61.8353607,67.1266968 C62.3531493,66.9295785 63.1478436,65.8286476 63.9842701,65.8680713 C64.8206966,65.9074949 65.340586,67.7979326 65.7388842,67.9950509 C66.1371824,68.1921661 68.050565,67.3250016 68.5285235,67.0096154 C69.0064819,66.6942292 69.2843403,65.5948812 69.6029782,65.5948812 C69.9216161,65.5948812 70.2042785,65.7509898 70.2042785,65.7509898 L72.3531879,64.6094457 C72.7546279,64.3026174 75.2025677,62.4268009 77.3705956,60.8628394 C79.7205546,59.1676343 79.722504,57.9019245 80.1208054,57.3894231 C80.5191036,56.8769186 83.5807466,56.9601244 83.5807466,56.9601244 C83.5807466,56.9601244 83.8264809,58.8065332 85.857802,58.5699943 C87.8891231,58.3334524 90.471057,54.3571915 90.471057,53.174491 C90.471057,51.9917872 87.0466907,49.5112372 86.449245,48.0131505 C85.8517961,46.5150605 86.610966,44.0691791 86.2126678,43.3201357 C85.8143696,42.5710924 83.742067,42.3671396 83.383599,42.0517534 C83.0726041,41.7781356 83.4044493,41.2944831 83.5018876,41.1638857 C83.3995191,41.09576 82.8239615,40.692188 82.3880034,40.0808824 C81.9100449,39.4106832 82.1874048,38.9393382 81.5501258,38.9393382 C80.91285,38.9393382 81.1513261,39.9295288 79.6377936,39.456448 C78.124258,38.9833671 75.4192345,38.6287571 75.3794044,35.553733 C75.3395742,32.4787121 78.642198,31.2493038 78.642198,29.4752545 C78.642198,27.7012021 77.3287625,28.2593684 77.5677433,26.9189762 C77.8067209,25.578581 78.8440015,25.3771572 79.3617869,24.4309955 C79.8795755,23.4848347 79.5163034,22.8192932 79.8349413,22.0308258 C80.1535792,21.2423584 81.3924077,21.0401407 81.3924077,19.6208993 C81.3924077,18.2016577 81.0308862,17.340981 80.7122483,17.0255939 C80.4334405,16.7496304 79.5938155,16.8629587 79.2927852,16.8402149 C79.1521795,17.2232467 78.9551896,17.5329468 78.6816275,17.5329468 C77.9646914,17.5329468 78.1235104,17.3726286 76.7692953,16.8207014 C75.4150834,16.2687741 74.7825075,17.533343 74.3443792,17.4939197 C73.9062509,17.4544963 74.2214348,17.0191557 73.7036493,15.7181844 C73.1858607,14.4172131 73.8617681,13.5551 73.8219379,12.293552 C73.7821078,11.0320041 72.5146566,10.7137449 71.1604446,10.6348982 C71.0758068,10.6299714 70.973003,10.6333371 70.8548658,10.6348982 Z M93.2212668,29.2606052 C93.3686291,29.3180844 93.5378228,29.400619 93.7239933,29.4947681 C93.5389332,29.4011779 93.3680456,29.3167887 93.2212668,29.2606052 Z" id="path" fill="#F6F6F6" fill-rule="nonzero"></path>
                                <g id="ameland" transform="translate(41.637584, 3.746606)" fill="#F6F6F6" fill-rule="nonzero">
                                    <path d="M22.0313415,1.17233092 C22.0313415,-0.0103702941 18.207677,0.226169824 16.2958432,0.305016529 C14.3840125,0.383863235 12.7111595,0.305016529 10.7993256,0.778097077 C8.88749497,1.25117762 8.88749497,1.96079829 6.97566114,2.039645 C5.06383047,2.1184917 2.19607973,1.25117762 1.31982309,1.25117762 C0.443569597,1.25117762 -0.512347315,2.98580609 0.363909329,3.93196719 C1.24016597,4.87812797 1.63846416,5.43005522 3.47063456,5.35120852 C5.30280812,5.27236181 6.89600087,2.90695938 8.1705557,2.90695938 C9.44511054,2.90695938 9.04681235,3.69542676 10.0027293,3.69542676 C10.9586462,3.69542676 15.1806089,2.35503213 17.2517601,2.35503213 C19.3229113,2.35503213 22.0313415,2.27618543 22.0313415,1.17233092 L22.0313415,1.17233092 Z" id="path"></path>
                                </g>
                                <g id="terschelling" transform="translate(15.456376, 6.556561)" fill="#F6F6F6" fill-rule="nonzero">
                                    <path d="M23.1197511,0.412391457 C23.8366872,2.14701992 20.0130227,2.14701992 19.2164263,3.01433431 C18.4198299,3.88164839 19.455404,4.11818882 18.4198299,4.67011607 C17.3842528,5.22204333 15.7113997,4.35472894 14.0385467,5.0643496 C12.3656937,5.77397058 12.6046713,6.32589783 11.808075,6.79897807 C11.0114786,7.27205862 10.6131804,6.64128466 10.0555617,6.87782509 C9.49794611,7.1143652 9.65726349,7.27205862 8.70134658,7.42975203 C7.74543282,7.58744575 7.02849356,7.1143652 5.03700262,8.29706642 C3.04551168,9.47976763 3.12516879,8.92784038 2.32857242,9.95284818 C1.53197604,10.977856 1.93027423,11.2932428 1.21333812,11.5297832 C0.496402013,11.7663233 -0.14087698,9.79515476 0.257421208,8.69130026 C0.655719396,7.58744575 4.24040624,5.22204333 5.19632315,4.82780948 C6.15223691,4.43357564 11.808075,2.46240706 13.5605883,2.46240706 C15.3131015,2.46240706 18.1808491,0.885472005 19.8537021,0.491238163 C21.5265552,0.0970046335 22.7214529,-0.218382502 23.1197511,0.412391457 Z" id="path"></path>
                                </g>
                                <g id="vlieland" transform="translate(0.000000, 20.294118)" fill="#F6F6F6" fill-rule="nonzero">
                                    <path d="M23.7693826,4.62232561 C24.0382352,4.79973054 24.1079371,6.95815982 22.9528727,6.28796376 C21.7978051,5.61776457 23.5104883,4.4646322 23.7693826,4.62232561 Z" id="path"></path>
                                    <path d="M16.8688646,0.236475489 C17.3069898,0.591285977 15.8332874,3.03553511 15.0765212,2.64130158 C14.3197518,2.24706774 16.2315856,-0.551991882 16.8688646,0.236475489 Z" id="path"></path>
                                    <path d="M12.3282609,0.394169213 C13.5231554,1.45860037 10.2172795,3.27207554 9.42068315,3.66630907 C8.62408678,4.06054291 8.30544886,3.11438181 7.23004154,3.9028495 C6.15463738,4.69131624 7.26987168,5.44035964 6.79191322,6.11055882 C6.31395477,6.78075489 5.75633919,6.38652136 4.36229396,7.80576394 C2.96824872,9.22500652 3.28688664,9.89520258 2.64961081,10.0923178 C2.01233181,10.2894361 0.0208408725,9.38269805 0.0208408725,8.79134932 C0.0208408725,8.19999747 1.37505597,6.66248701 3.04790899,5.32209176 C4.72076201,3.9816962 7.11055114,2.91726505 8.9427247,1.49802372 C10.7748983,0.0787820769 12.009623,-0.0789113348 12.3282609,0.394169213 Z" id="path"></path>
                                </g>
                                <g id="schiermonnikoog" transform="translate(70.657718, 0.000000)" fill="#F6F6F6" fill-rule="nonzero">
                                    <path d="M13.7227256,0.345825814 C14.0015303,1.09486983 13.2091797,1.35998813 12.3983792,1.64679709 C11.9071125,1.82057593 11.4524238,1.66650736 10.8549749,1.92276087 C9.93042497,2.31931011 9.58042007,3.10546208 7.82790678,3.73623604 C6.07539349,4.36701 4.88049893,3.65738933 3.44662671,4.52470341 C2.01275134,5.3920178 2.25172899,6.65356572 1.53479289,6.65356572 C0.817856779,6.65356572 -0.456698054,5.15547737 0.260238054,3.4208489 C0.977174161,1.68622044 2.41104953,1.05544648 5.51777792,1.37083362 C8.62450315,1.68622044 11.8126488,0.164174104 12.6871485,0.109285385 C13.0828411,0.0844485068 13.597835,0.142356679 13.7227256,0.345825814 Z" id="path"></path>
                                </g>
                            </g>
                        </g>
                    </g>
                </g>
            </g>
        </g>
    </g>
</svg>