<?xml version="1.0" encoding="UTF-8"?>
<svg width="480px" height="270px" viewBox="0 0 480 270" version="1.1" xmlns="http://www.w3.org/2000/svg" xmlns:xlink="http://www.w3.org/1999/xlink">
    <title>background</title>
    <defs>
        <rect id="path-1" x="0" y="0" width="480" height="270"></rect>
    </defs>
    <g id="Cards" stroke="none" stroke-width="1" fill="none" fill-rule="evenodd">
        <g id="ING">
            <g id="background">
                <mask id="mask-2" fill="white">
                    <use xlink:href="#path-1"></use>
                </mask>
                <use id="bg" fill="#FF6200" xlink:href="#path-1"></use>
                <path d="M221.140112,238 C216.87311,238 218.086914,244.602606 216.87311,247.603001 C216.261535,248.200869 215.631272,249.397394 216.261535,250 L225.388426,250 C225.388426,250 226,244.602606 226,243.406871 C225.388426,242.200869 223.553703,239.196525 221.140112,238 Z M232.22233,186.713872 C229.09619,184.239596 224.087667,181.759448 216.577405,179.275106 C214.699819,178.656117 210.320329,179.275106 208.437946,179.275106 C203.419914,187.951849 201.561513,196.019669 197.801544,205.319595 C197.162837,207.190819 195.914366,210.913137 195.914366,210.913137 C192.802696,209.057011 189.657372,207.819033 186.516843,207.819033 C181.498728,207.819033 177.748352,209.67516 175.880441,214.634617 C174.017243,214.016468 171.510542,212.778491 168.379688,213.387414 C164.009873,214.016468 160.235516,216.500809 158.353051,220.218095 C156.485115,222.693211 155.85605,225.177553 156.485115,227.662733 C153.363812,228.904904 151.457416,232.008234 150.2185,234.483349 C148.974779,239.442806 153.363812,248.138841 155.236594,250 L161.49358,250 C160.235516,244.416522 157.733636,241.93218 159.611198,236.348702 C160.87414,233.245372 165.243956,232.008234 166.502102,231.380019 C166.502102,228.904904 163.361574,227.043744 164.009873,224.549338 C165.243956,221.465299 168.999128,221.465299 172.759097,222.074222 C172.130065,225.806606 171.510542,230.761031 170.88151,235.720488 C170.252479,241.313192 173.388128,250 173.388128,250 L179.640409,250 L180.269441,250 C179.640409,248.138841 179.016091,246.272649 179.016091,244.416522 C178.406243,242.551169 178.406243,241.313192 178.406243,239.442806 C179.016091,236.967691 179.016091,234.483349 179.016091,232.636448 C185.277881,229.523892 183.395499,233.864361 184.639257,235.101499 C184.639257,235.101499 187.165142,229.523892 184.024613,227.043744 C183.395499,226.424756 179.640409,227.043744 179.640409,226.424756 C179.640409,225.806606 180.269441,223.940414 180.888881,222.074222 C182.156619,219.589881 182.776059,218.980957 184.024613,217.114765 C184.639257,216.500809 186.516843,216.500809 189.037849,217.114765 C189.657372,217.114765 192.802696,217.733754 194.665812,218.351904 C194.03678,220.218095 191.534958,223.940414 190.92511,225.806606 C188.423206,233.245372 188.423206,241.93218 189.037849,250 L195.914366,250 C195.914366,245.644434 195.294926,240.684977 195.914366,236.348702 C197.162837,230.761031 199.030831,230.142042 199.683926,230.142042 C200.913214,230.142042 202.17136,231.380019 202.819659,232.636448 C204.053742,238.823818 200.303366,244.416522 200.303366,250 L205.311889,250 C205.311889,250 207.199067,249.375979 207.818507,247.519852 C209.062265,243.788307 211.568883,240.056762 212.207507,236.348702 C212.817437,233.245372 211.568883,230.761031 209.681705,227.043744 C207.818507,224.549338 205.940921,222.693211 201.561513,219.589881 C200.303366,217.114765 201.561513,214.016468 201.561513,214.016468 C201.561513,214.634617 204.053742,213.387414 205.311889,213.387414 C210.320329,214.634617 211.568883,214.634617 214.070705,215.872595 C215.948291,216.500809 218.445317,217.733754 220.327699,218.980957 C222.205285,220.218095 224.087667,223.940414 225.965253,228.280883 C225.965253,228.280883 227.213808,220.218095 227.213808,217.733754 C224.726374,215.263671 222.205285,212.778491 218.445317,210.913137 C215.300075,208.427957 208.437946,206.57183 205.311889,205.319595 C205.311889,205.319595 206.56036,203.463468 206.56036,202.226329 C210.320329,201.598115 214.699819,201.598115 216.577405,202.226329 C222.843992,204.092521 230.344744,207.819033 233.485025,210.294149 C233.485025,210.294149 234.723739,207.819033 234.723739,206.57183 C234.723739,206.57183 225.965253,200.989191 226.584776,199.122999 C224.087667,197.266872 222.205285,195.40068 219.708259,194.777498 C215.948291,194.168575 208.437946,193.549586 208.437946,193.549586 C208.437946,193.549586 210.320329,191.07447 212.207507,189.199053 L217.21603,189.199053 C219.708259,189.199053 225.965253,191.07447 229.71563,192.930597 C235.362942,195.40068 238.474611,197.266872 239.112987,198.504011 C239.723248,196.638658 240.361624,194.168575 241,192.930597 C234.104382,190.446256 234.723739,187.951849 232.22233,186.713872 L232.22233,186.713872 Z M218.734055,170.387368 C219.3597,168.521713 218.734055,167.277667 219.3597,165.402118 C219.3597,164.158897 219.359784,161.044249 220,159.177769 C218.734055,158.546266 216.182681,159.800204 214.310408,159.800204 C212.413905,159.800204 208,159.800204 208,160.421815 C208.625644,161.675753 208.625644,162.914852 209.251373,164.158897 C209.881931,165.402118 210.50766,166.646164 210.50766,169.775651 C210.50766,171.641307 211.152789,173.516856 210.50766,176 C210.50766,176 218.734055,171.641307 218.734055,170.387368 L218.734055,170.387368 Z M209.919339,156.642607 C211.132676,154.864979 214.758716,151.3233 216,150.135819 C214.758716,148.956324 214.175376,147.178696 213.564009,146 C211.132676,146 202,149.536888 202,149.536888 C203.829362,152.498004 205.052015,155.463911 206.265353,159 C207.488006,158.410652 208.696686,157.821304 209.919339,156.642607 L209.919339,156.642607 Z M234.469395,158.703308 L230.672978,158.703308 C230.672978,158.703308 229.412251,163.531887 229.412251,167.159156 C228.786843,168.977376 228.13712,170.183687 228.13712,170.786426 C226.876477,173.203216 226.250985,173.806789 225,176.83132 C226.876477,177.434059 228.786843,176.227747 230.037743,176.227747 C231.298386,175.625009 233.194349,175.012266 233.844156,174.418698 C234.469395,173.806789 236.365442,169.570945 237,168.374638 L237,164.144629 C236.365442,162.929148 237,160.512358 237,158.703308 C236.365442,157.487826 235.094633,158.090565 234.469395,158.703308 Z M267,203 C266.417973,202.400553 266.417973,201.192971 265.813002,200.003554 C264.648948,196.389496 265.240153,194.586416 264.648948,191 L259.942256,191 C258.759847,191.58997 258.168642,191 257,191.58997 C257,193.996446 257.586616,195.790049 259.351052,198.795972 C261.10631,202.400553 267,203 267,203 L267,203 Z M203.025514,146 C203.025514,146 205.015362,144.812195 205.015362,143.596748 C208.336717,140.002439 212.321412,136.99187 213,136.413008 C211.653074,133.393496 210.994903,132.795122 208.994889,131 C208.336717,131.598374 205.015362,133.393496 204.336774,134.599187 C203.025514,135.197561 201.688839,135.795935 201,136.413008 C201,137.609756 201.688839,138.198374 202.33676,139.404065 C202.33676,140.600813 203.025514,143.596748 203.025514,146 L203.025514,146 Z M251.741174,167.562082 C251.741174,167 249.879893,167 248.657395,167 C247.412083,167 246.199812,167.562082 244.939553,167.562082 C243.708402,169.232972 243.097153,170.894648 242.48197,173.118406 C241.870721,174.784689 240.630129,175.89196 240,177 C240,177 245.569683,175.89196 246.800834,175.89196 C248.657395,174.784689 249.879893,174.221838 251.120485,172.00192 C251.741174,170.331798 252.365797,169.786608 251.741174,167.562082 L251.741174,167.562082 Z M331.467484,216.073651 C330.219757,215.459956 318.273219,210.012181 316.389266,210.012181 C312.615591,210.616031 306.346461,210.616031 302.553831,212.438246 C301.941505,210.616031 301.320114,207.585296 302.553831,205.767183 C303.175223,204.549638 309.474021,204.549638 311.353029,204.549638 C318.273219,205.163333 322.037005,206.362007 323.920958,206.362007 C325.809856,208.189145 327.703699,208.189145 328.325914,208.189145 C328.325914,208.189145 327.703699,204.549638 327.063352,203.341118 C324.562128,202.132598 322.037005,201.527927 320.148107,200.924078 C317.010658,199.705712 315.762106,199.092017 310.736583,198.497192 C308.861695,198.497192 308.861695,199.092017 305.08802,199.092017 C305.08802,198.497192 305.710236,197.883497 306.346461,197.278827 C307.579354,195.470559 308.861695,194.262039 310.114367,193.043674 L320.148107,193.043674 C322.677351,193.648344 323.920958,194.262039 327.063352,195.470559 C328.937416,195.470559 327.063352,192.449669 327.063352,190.617609 C326.441137,190.003914 325.809856,189.399243 324.562128,188.795394 C322.037005,188.190723 320.148107,187.586053 317.632049,186.368508 C315.762106,185.773683 312.003265,184.560241 308.861695,185.16409 C305.710236,186.368508 305.710236,185.773683 303.175223,186.982203 C300.052607,191.231304 298.168654,196.065384 296.288822,200.924078 C296.288822,202.132598 293.142307,209.398486 293.142307,210.616031 C293.142307,211.220701 292.529981,212.438246 292.529981,212.438246 C289.999913,211.824551 278.694546,210.012181 275.562041,213.033071 C274.319258,214.241591 273.046807,215.459956 271.14802,219.090439 C268.642675,217.282171 266.752953,216.668476 264.247609,216.668476 C261.095325,216.668476 257.341429,218.486589 255.457476,221.507479 C255.457476,222.13102 250.431129,231.210098 251.053344,239.688609 C251.684625,244.547302 253.573523,246.359672 256.078867,250 L263.004002,250 C262.372721,247.578037 261.095325,244.547302 259.852543,240.902051 C259.221262,237.876239 260.483823,232.427643 261.095325,227.579615 C261.095325,227.579615 263.004002,226.370275 264.869,225.75658 C266.141452,224.54806 266.752953,225.142884 268.642675,225.142884 C269.283022,225.142884 269.283022,225.75658 269.283022,225.75658 C266.752953,228.183465 266.752953,230.605428 266.141452,234.240833 C266.141452,236.054024 268.642675,245.151152 271.14802,250 L276.193322,250 C276.193322,250 274.93076,237.876239 275.562041,236.667719 C275.562041,234.240833 276.193322,232.427643 276.815538,230.605428 C278.073155,231.210098 279.316761,231.210098 280.579323,231.813948 C282.458331,233.041338 282.458331,234.240833 282.458331,236.054024 C282.458331,239.084759 282.458331,239.688609 281.846006,241.515746 L281.846006,244.547302 C281.846006,247.578037 282.458331,250 282.458331,250 L287.503634,250 C287.503634,244.547302 288.10607,245.151152 288.747241,242.120417 C289.378521,239.688609 288.747241,238.489934 289.378521,236.667719 C289.378521,235.449353 289.999913,234.240833 290.650973,233.636163 C292.529981,232.427643 293.782653,232.427643 296.288822,233.041338 C296.288822,234.844683 296.288822,236.667719 295.676496,238.489934 C295.02626,241.515746 294.404869,244.547302 293.142307,247.578037 C293.142307,248.182707 292.529981,249.391228 291.888811,250 L299.431216,250 C299.431216,250 300.673999,247.578037 301.320114,244.547302 C303.175223,246.359672 305.710236,245.151152 306.957963,245.151152 C308.861695,244.547302 310.114367,242.725087 311.353029,241.515746 C308.861695,239.688609 303.175223,240.288356 303.175223,237.876239 C301.941505,233.636163 303.175223,233.041338 303.175223,230.605428 C303.175223,226.974945 299.431216,225.75658 295.676496,225.142884 C294.404869,224.54806 291.888811,224.54806 290.650973,224.54806 C289.378521,225.142884 288.10607,226.974945 286.882242,226.974945 C286.882242,226.974945 284.352174,225.142884 282.458331,224.54806 C281.210604,224.54806 277.431984,223.330515 277.431984,223.330515 C278.073155,222.13102 278.694546,220.912654 279.316761,220.298959 C279.938153,219.704134 281.846006,217.881919 282.458331,217.881919 C283.730783,217.282171 285.604846,217.881919 286.882242,218.486589 C289.999913,219.090439 292.529981,219.704134 293.142307,219.704134 C293.782653,219.704134 295.676496,220.912654 295.676496,220.912654 C297.527484,219.704134 297.527484,218.486589 298.790046,218.486589 C302.553831,217.282171 303.825458,216.668476 307.580179,216.668476 C310.736583,216.668476 313.256762,222.13102 315.12176,223.94421 C315.762106,225.142884 320.148107,230.605428 322.677351,235.449353 C323.920958,234.844683 324.562128,233.636163 325.809856,233.636163 C325.809856,232.427643 325.18352,227.579615 324.562128,226.974945 C322.677351,221.507479 318.91439,220.298959 318.91439,219.090439 C320.148107,219.090439 322.677351,220.298959 323.920958,220.298959 C325.18352,220.912654 327.063352,221.507479 328.937416,222.725844 C329.578586,223.330515 330.836203,223.94421 331.467484,224.54806 C332.088875,226.974945 332.088875,228.788135 333.351437,231.210098 C333.351437,231.813948 333.351437,232.427643 333.973653,233.041338 C335.862551,229.396908 337.746504,228.788135 339,225.75658 C337.746504,220.298959 334.595044,217.881919 331.467484,216.073651 L331.467484,216.073651 Z M326.568958,243.564084 C325.286957,246.138948 324,248.703031 324,250 L331.050179,250 C332.980614,247.430941 333.615006,244.856906 332.327223,241 C330.420743,241.641021 326.568958,239.698056 326.568958,243.564084 Z M258.897088,182.601496 C260.678781,182.00309 261.848018,180.79652 263.633688,180.198114 C264.802925,179.599707 266,170 266,170 C266,170 262.455702,170.58865 261.848018,171.196813 C261.253855,171.196813 258.897088,171.196813 257.723079,172.393626 C257.723079,174.194536 257.723079,175.989756 257.138461,178.393138 C255.95093,180.198114 253,181.394927 253,184.397528 C253,184.397528 255.366312,185 255.95093,185 C257.138461,184.397528 258.312469,183.199902 258.897088,182.601496 Z M198,111.237092 L198,114.253201 C198,115.469228 198.654769,122.118546 198.654769,123.927716 C199.28988,125.746799 199.28988,127.556795 199.915161,129.370921 C200.584798,130.57786 201.219908,131.783974 201.219908,133 C201.219908,133 202.509788,132.406031 203.135069,131.180917 C205.065098,129.370921 205.719867,127.556795 207,125.143742 C206.354978,120.911607 205.065098,117.278397 205.065098,116.072284 C205.065098,111.237092 205.719867,110.021066 206.354978,107 C203.79975,108.201983 200.584798,110.021066 198,111.237092 L198,111.237092 Z M282.783315,198 C283.387115,198 284,196.856697 284,196.856697 C283.387115,194.557805 282.783315,191.700699 282.198513,189.405646 C282.198513,189.405646 280.373073,188.253897 278.589758,188.253897 C277.387115,188.253897 276.189427,187.682629 275,188.253897 C275.585628,189.986128 275.585628,191.137877 276.189427,192.852448 C277.976872,195.13368 280.373073,196.276215 282.783315,198 L282.783315,198 Z M226.998486,132.421387 C226.404593,131.210281 224.604576,130.605141 223.412247,130 C222.206123,130 221,132.421387 221,134.851843 C221,136.062124 221.61223,140.322842 222.206123,142.139088 C222.206123,142.744229 223.412247,143.359263 224.604576,143.973472 C226.404593,145.174685 228.195358,145.779825 230,147 C230,147 228.195358,141.543016 227.601547,138.502473 C226.998486,136.686227 228.195358,134.246702 226.998486,132.421387 L226.998486,132.421387 Z M239.4956,150 C240.1116,147.50933 241.9228,146.266881 241.9228,141.906354 C241.9228,141.906354 241.3252,138.789925 240.7276,137.541704 C240.1116,136.299255 239.4956,135.055981 237.694,133.812707 C237.0828,133.812707 235.8884,132.550471 235.2908,133.172108 C235.2908,133.172108 234.6748,138.163341 234.0772,138.789925 C235.2908,140.654011 236.4948,141.906354 237.0828,143.771264 C237.694,145.645244 238.2916,148.130967 239.4956,150 L239.4956,150 Z M258.21481,161 C259.981488,159.173916 258.21481,156.137219 258.21481,154.320079 C257.609091,152.493995 258.21481,150.67279 257.609091,148.846706 C257.021728,147.635279 255.819469,147.030379 254.644742,147.030379 C253.456249,147.030379 250.491136,145.203482 250.491136,146.414909 C247.522198,146.414909 249.903772,149.452419 249.903772,151.273625 C249.903772,153.705422 255.819469,159.77963 255.819469,159.77963 C257.021728,160.385343 257.021728,159.77963 258.21481,161 L258.21481,161 Z M196.286805,110 C197.583538,108.08334 201.458804,104.250021 203.374119,101.680629 C204.685704,100.406445 207.269242,97.2154312 213.708189,94.0193313 C214.351633,91.4604509 215,89.5487928 215,87 C208.546118,88.9116581 204.027492,90.1960998 202.755538,91.4604509 C199.523633,93.382112 198.221977,94.6665536 195,96.5882147 C195,100.406445 195,100.406445 195.638438,102.328275 L196.286805,110 Z M294,178.281427 C292.062225,177.141766 288.846641,173.713308 286.938601,171.998684 C285.631057,170.859023 286.267896,169.149138 284.985132,168 C283.713106,168 282.411344,168 281.134361,168.570225 C279.19576,168.570225 277.923733,168.570225 276,169.149138 C276.636839,170.280111 276.636839,171.428459 277.923733,171.998684 C280.48761,174.282743 280.48761,174.861656 283.057269,178.281427 C283.713106,179.429775 286.938601,180 289.492566,180 C290.794328,180 293.344163,178.86034 294,178.281427 Z M270.087991,144 C267.476981,144.627438 262.289653,145.255746 262.289653,147.148503 C261.637933,149.030816 262.289653,150.918352 262.289653,152.18367 C262.955415,153.439416 262.955415,154.694292 262.955415,156.587049 C262.955415,157.841925 262.289653,159.107243 262.955415,161 C263.607135,159.734681 266.845085,158.479805 267.476981,157.214487 C268.784551,155.332173 270.087991,154.076427 270.729799,152.18367 C271.381519,150.296135 270.729799,147.148503 270.087991,144 L270.087991,144 Z M278.194934,144.24727 C276.276156,145.484589 275,146.104077 275,147.341396 C275,149.826814 275.628579,152.307256 275.628579,153.554527 C275.628579,155.420456 275.628579,156.658604 276.276156,157.277263 C278.194934,157.895923 278.852423,157.895923 281.423733,159.13407 C281.423733,159.762681 284,161 284,161 C284,161 282.723844,155.420456 282.071311,152.925916 L282.071311,143 C279.490088,143.618659 278.852423,144.24727 278.194934,144.24727 L278.194934,144.24727 Z M204.179509,86.836156 C204.820154,86.2003588 211.951329,81.1440912 212.582006,80.5132544 C213.878118,79.2516677 214.528731,79.8824175 215.14944,78.6208308 C215.14944,74.8211896 216.470429,74.8211896 215.819903,73.5695236 C215.14944,72.2880955 209.999662,73.5695236 208.698609,73.5695236 C205.47068,74.1904398 199.640558,76.0778159 199.640558,77.3493234 C199,79.2516677 199,83.6672646 199,84.317856 C199.640558,86.2003588 199.640558,88.1076635 200.271235,90 C202.242751,88.1076635 202.863547,87.4768266 204.179509,86.836156 Z M339.4176,194.879718 C338.8424,194.259666 337.6824,193.630258 336.5136,193 L336.5136,195.51508 C336.5136,198.035262 337.08,198.674877 337.08,199.94475 C337.08,201.205266 338.8424,210.050147 338.8424,212.57033 C341.7424,213.209944 341.7424,215.740334 343.4864,217 C343.4864,217 342.3176,209.419889 342.3176,199.94475 C342.3176,199.305135 340.5912,195.51508 339.4176,194.879718 L339.4176,194.879718 Z M303.192456,171.80568 C305.678689,173.597678 310.637115,172.998963 315,172.404395 C312.494769,170.5983 311.885187,169.39092 310.637115,168.202612 C308.765419,166.995232 307.54543,166.395688 305.055066,164 L297,164 C298.224119,166.995232 298.82957,168.801327 303.192456,171.80568 Z M278.201267,131.595853 C279.470815,130.398341 280.72054,128.008293 280.72054,127.399585 C282,125.004561 282,122.001659 282,119.597512 C276.956498,116.588804 270.633535,116 264.319659,116 C258.631883,116 252.313877,116.588804 246,120.804147 C246.645099,123.208293 247.259637,125.004561 248.534141,127.399585 C249.159416,127.399585 249.793778,128.607049 250.409141,128.607049 C251.678689,127.399585 252.953194,125.603317 254.828194,125.004561 L254.828194,127.399585 C254.828194,129.200829 254.828194,130.398341 255.482379,132.213683 C255.482379,134 257.376377,134 259.89152,134 C262.410793,134 263.060022,129.799585 263.060022,129.200829 C263.060022,129.200829 263.695209,131.595853 267.464207,133.401244 C267.464207,133.401244 271.88326,133.401244 271.88326,132.802488 C272.527533,129.799585 273.16685,129.200829 272.527533,126.800829 C272.527533,126.800829 276.321311,129.200829 278.201267,131.595853 L278.201267,131.595853 Z M299,156.337753 C296.61444,152.416483 296.023978,148.499565 296.023978,147.84776 C294.833875,146.533709 297.205668,141.971078 294.224292,141.971078 C293.047956,141.298388 289.466939,140 289.466939,140 C288.844354,141.971078 288.844354,145.881904 289.466939,147.84776 C289.466939,149.803174 292.429959,155.696391 293.62924,156.337753 C294.224292,157 297.205668,157 297.823664,157 C298.404949,156.337753 299,156.337753 299,156.337753 L299,156.337753 Z M201.227987,75 C202.484803,73.1527624 202.484803,73.1527624 203.731982,71.8952389 C206.250391,70.0383131 207.507126,68.7905621 210.625196,66.3048324 C211.243967,65.0570814 211.872375,65.685801 213.747962,64.4478224 C214.371592,63.8336771 215,63.2049575 215,62.5860104 C215,61.3479475 214.371592,60.1002807 213.747962,58.8719902 C213.119554,57.6242392 211.872375,54.5195624 211.872375,53.8908428 C211.872375,48.9339578 212.510338,47.6959792 213.119554,43.3435513 C210.625196,42.7245199 207.507207,42.7245199 206.250391,45.2102496 C205.003131,47.0769478 205.003131,48.9339578 205.003131,50.8104285 C205.003131,53.8908428 205.621983,56.3862606 206.250391,60.1002807 C203.731982,61.9767513 202.484803,63.2049575 200,64.4478224 C200.618771,68.1715306 201.227987,75 201.227987,75 L201.227987,75 Z M328,162.503283 C326.753494,161.296357 325.511994,160.093463 323.637228,158.876862 C321.120854,158.272996 319.893538,157.056396 318.618664,154.641739 C317.999583,153.434007 317.381336,152.217407 316.120646,151 C314.893329,151 314.265905,151.613541 313.019398,152.217407 C311.758708,153.434007 309.246506,153.434007 308,155.244798 C308.618247,156.45253 309.246506,157.66913 310.50219,158.876862 C311.139627,159.479922 311.758708,160.697329 314.265905,161.899417 C318.618664,164.314074 319.893538,164.91794 319.893538,164.91794 C323.637228,165.531481 328,162.503283 328,162.503283 L328,162.503283 Z M297,135 C297,135 297.609095,138.133691 298.8665,141.253141 C299.504798,142.508795 300.743012,143.754398 301.385482,143.754398 C302.614518,144.37678 305.138506,145 307,145 L307,143.754398 C305.138506,141.875524 302.614518,137.510471 302.614518,136.255654 C301.385482,135.642486 301.385482,135.642486 299.504798,135.642486 C298.8665,135 297.609095,135 297,135 L297,135 Z M352.8276,180 C352.262,181.804478 350.5132,183.001935 350.5132,185.400166 C350.5132,185.400166 353.4196,188.39215 354.002,190.20575 C354.5804,191.403206 354.002,196.802543 354.5804,198 C356.3212,196.194693 357.4868,195.596794 357.4868,193.207685 C356.8948,192.608956 356.3204,187.793421 355.738,184.202709 C355.738,183.001935 354.002,181.206579 352.8276,180 L352.8276,180 Z M403.996715,224 C400.937448,224 397.28917,227.627427 394.86052,239.107807 C394.253561,243.35316 393.641708,246.989674 394.253561,249.391987 L399.71782,250 C400.937448,248.185874 400.937448,245.161504 402.161155,242.74019 C402.161155,241.534077 403.393835,241.534077 404.589805,241.534077 C405.818406,242.137133 408.26582,245.161504 409.465869,246.367617 C410.077722,245.161504 411.292455,242.74019 411.292455,240.921933 C411.292455,240.309789 409.465869,239.107807 408.85891,239.107807 C407.042113,237.90252 405.818406,236.696406 403.393835,236.696406 C402.773008,234.275093 406.42047,231.249897 406.42047,231.249897 C410.680602,231.249897 414.949707,236.083437 414.949707,236.083437 C416.16444,235.48038 416.766504,233.672036 418,232.465923 C414.337853,225.80917 407.644177,224 403.996715,224 L403.996715,224 Z M370.4868,192.035375 C369.8956,190.792757 369.3132,188.934298 368.7436,187.701775 C368.7436,187.085934 368.7436,185.853411 368.1524,184 C368.1524,184 364.0876,187.085934 363.5132,187.701775 C365.8308,190.792757 364.6788,192.661312 365.2388,195.126357 C365.2388,196.348784 367.578,196.969673 368.1524,198.828132 C368.1524,199.434718 367.0132,205 367.0132,205 C370.4868,200.060655 370.4868,193.883739 370.4868,192.035375 L370.4868,192.035375 Z M423.353346,245.0988 C422.779732,246.9156 422.178585,248.1044 421,249.3028 C421.595793,249.9068 422.779732,249.9068 423.353346,249.9068 L429.265392,249.9068 C429.821415,249.3028 429.821415,247.5052 430.417208,246.2972 C430.417208,245.0988 431,243.8908 431,242.0932 L427.46348,242.0932 C425.706692,242.0932 423.944551,243.3004 423.353346,245.0988 Z M336.976899,155.465457 L340.064486,155.465457 C341.311838,155.465457 341.311838,153.053815 340.064486,153.053815 C335.729546,151.838361 332.03019,150.637148 329.558478,147 C328.946709,147.612334 325.223539,148.808522 324,150.023976 C324,150.023976 325.223539,153.053815 328.316053,156.077791 C330.161214,157.88715 333.893417,156.680911 336.976899,155.465457 L336.976899,155.465457 Z M309,134.498744 C310.892287,137.007539 312.770389,138.874686 314.64432,140.746021 C315.252555,142 317.130658,142 318.367152,142 L324.619707,142 C326.498644,141.358351 327.744316,141.358351 329,140.118613 C326.498644,138.874686 323.384047,137.619869 320.868508,136.36589 C318.367152,135.121126 316.508239,133.877199 314.64432,132 C313.379459,132 312.770389,132.622382 312.123775,132.622382 C310.892287,133.264868 310.25485,133.877199 309,134.498744 L309,134.498744 Z M242.0776,105.6236 C242.0776,105.6236 244.4792,105.0724 246.2984,105.0724 C247.5152,105.0724 248.7192,105.0724 249.9224,105.6236 C249.3064,106.1748 246.8952,107.278 246.8952,107.278 C245.7104,107.8292 245.0952,108.3764 243.276,108.9276 C242.6792,107.8292 242.0776,105.6236 242.0776,105.6236 L242.0776,105.6236 Z M241.868299,90.7258477 C243.109799,88.8879125 245.632848,87.6626501 247.503442,87.0499772 C249.997288,86.4373043 249.359851,81.5216418 249.359851,80.9090524 C249.997288,79.6741036 249.359851,77.8360848 249.359851,76.601136 C248.122523,77.2234954 248.122523,76.601136 245.632848,77.2234954 C243.109799,77.2234954 241.868299,75.9885466 240.630971,74.7535978 C239.354428,73.5330952 236.246506,71.0728841 235,68.631879 C238.107922,68 240.630971,68 243.748071,68 L251.877894,68 C253.73347,68.631879 255,69.8572248 255,71.0728841 C255,71.6854735 254.380919,75.3758737 254.380919,75.9885466 C253.73347,79.6741036 253.73347,80.9089689 253.1244,86.4373043 L253.1244,88.2752396 C252.496141,89.5101884 249.997288,90.1228613 248.750782,91.3481236 C248.122523,93.1861423 248.122523,94.4210077 246.241917,95.0336806 C244.35714,95.6559565 243.109799,97.489132 241.868299,96.8764591 C239.9927,95.6559565 240.630971,92.5734694 241.868299,90.7258477 L241.868299,90.7258477 Z M232.498524,60 C231.213506,58.7539071 228.648261,56.8600095 227.373073,54.3382357 C225.474911,51.8213351 226.097802,49.309482 226.097802,48.671598 C227.373073,44.8938106 231.846227,43.6279633 234.420806,43 C235.686247,43 236.971513,43 238.884543,44.2658473 C241.445163,45.5217739 242.729602,45.5217739 244,49.9275246 C244,50.5753293 244,51.1835382 243.362323,51.1835382 C243.362323,51.1835382 239.517264,53.7003517 238.236955,54.9761197 C235.053527,56.8600095 234.420806,60 232.498524,60 Z M251.166902,58.2452809 C253.065518,57.0179209 254.939565,55.8001609 256.218018,55.8001609 C257.487151,55.1912809 260,54.5728009 260,55.8001609 C260,58.2452809 258.11155,59.4631209 256.218018,61.8986409 C254.939565,63.7205609 254.324485,62.5171209 251.166902,62.5171209 L248,62.5171209 C248,60.6904809 249.273369,60.0720009 251.166902,58.2452809 Z M277.083888,56.6725887 C278.253927,56.6725887 288.340999,58.9402687 281.824273,61.7637087 C280.622112,62.9019487 277.670915,62.3283487 274.697232,62.3283487 C274.697232,61.2078687 274.697232,58.9402687 273.522375,58.9402687 C272.316198,57.8019487 270.55351,57.8019487 270.55351,56.6725887 C268.16284,54.4049087 274.110205,56.1078687 277.083888,56.6725887 Z M289.819203,44.1781925 C291.852646,42.2407815 294.569105,41.5982847 297.249159,42.2407815 C300.622629,42.8831912 301.290042,43.525601 302.645671,44.8206022 C304.673914,47.4005099 304.006501,52.5502307 303.313084,55.7675007 C302.645671,57.7049988 300.622629,59 298.604788,59 C295.226117,55.1351858 291.852646,52.5502307 287.133949,51.2552294 C286.456134,48.6854164 288.505179,46.1055087 289.819203,44.1781925 Z M293.709446,69.8893502 C293.064168,71.1260767 291.762677,71.7493822 290.472122,72.392289 C289.811702,72.392289 289.190822,73.6289318 289.190822,74.2522373 C287.875029,76.1269284 285.944245,76.7501501 283.362294,76.7501501 C282.056597,76.7501501 279.474646,76.7501501 278.178203,74.2522373 C278.178203,74.2522373 278.814226,81.7559439 278.814226,83.6256928 C278.814226,84.2489983 279.474646,84.2489983 279.474646,84.2489983 C282.056597,84.87222 282.706922,87.3800173 283.992428,88.6265444 C283.992428,88.6265444 284.642753,89.2497662 285.303174,89.2497662 C287.875029,91.1195988 293.709446,93.6224539 291.122447,93.6224539 C291.122447,94.8787817 289.190822,98 288.550593,98 C286.584474,96.1351096 283.362294,94.8787817 280.755105,93.6224539 C280.114876,92.3759267 279.474646,91.1195988 278.814226,89.8828723 C277.537973,88.6265444 276.887648,88.6265444 274.936673,87.3800173 C274.936673,83.0122718 274.295602,83.0122718 274.295602,78.6297834 C274.295602,78.0065617 273,71.1260767 273,71.1260767 C273,70.502855 274.936673,68.642823 276.887648,68 C276.887648,68 289.190822,68 295,68.642823 C295,68.642823 294.369866,69.8893502 293.709446,69.8893502 L293.709446,69.8893502 Z M286.316,108.604543 C283.9016,107.975743 282.0976,106.082943 279.0776,106.082943 C279.0776,104.205343 279.0776,104.205343 279.6928,103.566143 C283.3144,102.936543 285.1232,104.205343 286.9224,104.834143 C286.9224,105.463743 286.316,108.604543 286.316,108.604543 L286.316,108.604543 Z M245.54143,116.610425 C247.430101,116.610425 249.31298,114.778546 251.191719,114.155508 C254.934302,112.927635 258.081812,111.699763 261.824394,111.086654 C263.097302,110.45286 263.097302,109.234917 263.097302,107.997943 C263.727135,106.775035 263.727135,106.775035 263.727135,104.934054 C263.727135,104.320117 261.214424,103.706181 259.955586,101.231406 C258.705851,99.3806612 259.955586,97.5392662 259.325753,97.5392662 C257.46191,98.7668905 254.934302,99.9944319 254.324332,97.5392662 C253.695327,95.702753 253.695327,93.228226 255.58317,92.6143725 C261.824394,90.1592068 268.728556,90.1592068 275.007851,92.6143725 C276.247654,92.6143725 276.877487,93.8516774 276.877487,95.0792188 C277.496561,96.3068431 276.877487,97.5392662 275.618648,98.7668905 C273.739908,99.3806612 271.846271,96.9254955 271.846271,98.7668905 C271.846271,100.608368 270.607296,103.083143 267.464752,104.320117 C266.854782,104.934054 267.464752,106.775035 268.108655,108.621808 C268.108655,109.234917 268.108655,110.45286 268.728556,110.45286 C271.236301,111.086654 275.007851,111.699763 276.877487,112.927635 C279.370335,114.155508 283.752682,117.838298 284.391619,117.23429 C286.260427,116.006418 286.880328,114.155508 288.153237,112.927635 C295.033397,116.006418 300.664651,117.838298 309.447553,123.395993 C310.69646,123.395993 310.69646,120.931146 310.69646,119.694172 C307.549777,117.838298 298.146974,112.927635 296.912137,112.304598 C294.413496,111.699763 293.164589,110.45286 290.641946,109.848853 L290.641946,104.934054 C295.033397,106.161099 303.778228,106.775035 312.580166,111.699763 C313.190135,109.848853 314.458905,108.621808 313.829072,107.997943 C303.778228,103.083143 296.302167,101.231406 290.022045,101.231406 C290.022045,100.608368 288.754102,99.9944319 290.022045,99.3806612 C291.900785,98.153037 292.525652,97.5392662 293.164589,96.9254955 C295.033397,94.4654481 296.302167,92.0006018 296.912137,89.5454361 C298.785911,85.8529655 300.664651,87.0805897 301.928455,79.0769961 C300.04475,79.0769961 299.405813,80.3046203 297.537004,80.9280717 C298.146974,79.0769961 298.785911,77.2356012 298.785911,75.3845256 C299.405813,71.687256 300.664651,69.2320903 300.664651,64.9161684 C302.548357,64.292717 305.685107,62.456121 306.305009,60.0009553 C306.305009,59.3775039 306.305009,57.5361089 306.939808,55.0712626 C306.939808,51.383591 307.549777,48.3049739 306.305009,45.8401275 C306.305009,45.2263568 301.928455,39.0738388 298.785911,37.2324439 C294.413496,35.3813682 292.525652,36.0048196 289.393039,36.6089925 C285.631421,36.6089925 280.610137,40.301463 280.610137,47.0773497 C276.877487,47.0773497 269.348457,47.6912031 264.96611,51.383591 C261.214424,49.5325981 258.081812,48.9284253 254.934302,48.3049739 L249.31298,48.3049739 C248.693078,45.8401275 247.430101,43.3752812 244.93146,41.5338862 C241.807952,39.6972902 238.027298,37.2324439 233.644951,37.2324439 C231.766708,37.2324439 229.897734,36.6089925 228.014359,37.8558953 C226.135785,39.0738388 223.003173,40.301463 222.383354,42.7614277 C221.124598,45.8401275 219.87536,48.3049739 219.87536,51.383591 C219.87536,54.4670898 221.763535,56.9223382 223.642192,60.0009553 C224.247527,61.2381774 224.886547,61.2381774 226.135785,61.8423502 C226.765122,61.8423502 229.277998,63.0795724 229.897734,63.6885441 C230.517553,64.292717 229.277998,66.1534732 229.277998,69.8555417 C229.277998,72.9245609 229.277998,72.9245609 229.897734,75.3845256 C229.897734,77.8494547 230.517553,80.3046203 231.146972,82.1460153 C229.277998,82.1460153 228.014359,80.3046203 226.765122,81.5418425 C226.765122,82.7791474 228.014359,85.8529655 229.277998,88.3081312 C232.405728,91.386831 235.528657,94.4654481 237.417328,98.153037 C237.417328,98.7668905 237.417328,99.9944319 238.027298,99.9944319 C233.644951,100.608368 229.277998,100.608368 224.886547,101.855271 C221.124598,103.083143 216.742748,104.934054 213,106.775035 C213,109.234917 213.610218,111.086654 213.610218,111.086654 C214.239554,111.086654 219.87536,107.997943 224.886547,106.775035 C233.025546,104.320117 237.417328,104.934054 237.417328,104.934054 C238.027298,106.161099 238.661269,107.997943 238.027298,108.621808 C230.517553,111.699763 223.003173,115.392482 216.094127,119.694172 C216.742748,120.931146 216.094127,122.772955 217.372167,124 C223.642192,120.308109 232.405728,116.006418 238.661269,113.541572 C241.169015,112.927635 241.169015,113.541572 242.427853,113.541572 C243.047754,114.155508 244.292523,116.610425 245.54143,116.610425 L245.54143,116.610425 Z M364.4868,171.465645 C364.4868,171.465645 363.3268,169.133986 363.3268,168.564778 C362.7516,167.398142 362.1756,165.654235 360.4268,165.075352 C360.4268,164.497274 359.842,167.398142 359.2668,168.564778 C358.6732,169.721739 358.6732,169.133986 357.5132,171.465645 C358.6732,173.196652 359.2668,174.353613 360.4268,176.098326 C360.4268,176.67721 362.1756,179 362.1756,179 C362.1756,179 364.4868,174.353613 364.4868,173.196652 L364.4868,171.465645 Z M445.745098,243.976 L442.622028,243.976 C441.377138,243.3776 440.749687,243.3776 440.132249,243.976 C438.254068,245.744 438.254068,248.7 437,250.4728 L444.500209,250.4728 C445.745098,249.28 447,248.7 447,246.324 C447,245.744 447,244.556 445.745098,243.976 Z M356.4864,158.222606 C356.4864,153.219919 355.2216,153.219919 352.6864,151 C352.6864,151 350.7736,154.336405 349.5136,155.99808 C352.0488,158.222606 352.6864,161 352.6864,161 C355.2216,158.776242 355.2216,159.329878 356.4864,158.222606 Z M383,181.179286 C383,179.344083 382.367694,177.518832 381.126896,176.292322 C380.484736,174.467071 379.861463,172.02815 379.861463,170.80164 C379.21027,169.594204 376.708965,165.924627 375.448459,164.099376 C374.193701,162.886964 374.193701,159.835203 373.561395,158 L366,159.217387 C369.790552,164.099376 372.947976,168.976388 374.806299,173.863353 C375.448459,175.69358 381.126896,194 381.126896,194 C383,193.382184 380.484736,184.231047 381.126896,183.622354 C381.735388,182.405796 381.735388,181.787151 383,181.179286 Z M334.801472,130.562383 C334.187147,129.348601 332.93842,126.916847 332.314458,126.309537 C331.704951,125.095755 331.071353,123.881972 330.437754,123.265448 C329.832262,122.66819 327.345248,123.265448 326.111779,123.265448 C324.863052,123.265448 324.248727,123.265448 323,123.881972 C324.248727,125.095755 325.477378,129.348601 326.111779,129.348601 C326.726105,130.562383 326.726105,131.169693 327.96921,131.795432 C331.071353,132.39269 333.553549,131.795432 336.664525,133 C337.888357,131.169693 335.415798,131.169693 334.801472,130.562383 L334.801472,130.562383 Z M351,145.4401 C351,145.4401 343.500405,141.2921 342.243589,139.5273 C340.373752,139.5273 340.373752,139.5273 338.498245,141.2921 C337.232522,141.2921 336.623549,141.9009 336,143.0713 C337.880365,144.2697 338.498245,144.8505 340.373752,146.0305 C341.006208,146.6201 341.624899,146.6201 343.500405,146.0305 L348.511472,146.0305 C349.739135,146.0305 351,146.6201 351,145.4401 L351,145.4401 Z M456.237885,237 C456.237885,237 455.586178,238.766874 454.935297,239.928665 C453.641795,242.871919 453,244.043692 453,245.800584 C454.935297,247 455.586178,246.395685 458.187225,246.395685 C459.480727,246.395685 460.774229,247 461.42511,247 C462.718612,246.395685 461.42511,245.223912 461.42511,244.638793 C460.774229,244.638793 458.187225,239.342778 456.237885,237 L456.237885,237 Z M390.902313,184 C393.504704,182.151549 394.16302,178.436404 394.820501,176.587953 C395.478817,174.73038 394.16302,171.029332 393.504704,169.797032 C391.550616,169.797032 390.25985,168.555609 388.923194,168.555609 C387.61741,168.555609 386.969106,165.465736 385,166.081057 C385.658316,167.323309 386.969106,173.503055 387.61741,174.73038 C388.285738,175.355652 390.902313,179.677826 390.902313,184 L390.902313,184 Z M438.922423,216.498004 C438.922423,215.912648 436.999223,214.733952 436.387223,214.733952 C436.387223,214.135021 435.716023,211.768045 435.075223,211.188279 C433.816823,210.589348 433.816823,210 432.534423,210 C432.534423,210.589348 432.534423,211.188279 431.893623,212.366976 C431.893623,213.545672 430.611223,214.135021 431.261623,215.314516 C431.893623,216.498004 432.534423,216.498004 433.816823,217.087352 C434.448823,217.6767 436.387223,222.410652 436.999223,223 C437.640023,222.410652 437.640023,218.855397 438.922423,216.498004 Z M328.881453,117.788894 C330.652772,117.788894 331.819885,119 333,119 C333,117.192823 332.401147,115.981717 331.819885,114.155577 C331.229446,111.117507 330.053155,109.291368 329.453537,107.479243 C329.453537,105.662173 329.453537,104.441998 328.881453,103.230892 C328.300191,103.230892 327.700574,103.230892 327.119312,102.615034 C325.361759,102.615034 323,102 323,102 C323,103.836033 323.599618,106.86421 323.599618,108.685403 C323.599618,109.291368 325.943021,114.760718 326.528872,115.366683 C327.119312,116.587682 327.700574,117.192823 328.881453,117.788894 Z M389,157.598657 C388.397081,155.802685 386.578777,155.19455 385.359417,153.998026 C385.359417,153.998026 377.451469,151 376.21779,151 C374.99843,151.593919 379.269772,153.998026 379.872691,155.19455 C382.307436,157.598657 388.397081,163 388.397081,163 L389,157.598657 Z M311.62027,80 C310.988638,80.6054675 310.336981,81.8258835 310.336981,82.4217875 C309.052858,84.2475885 307.157129,85.4633052 308.411214,87.2891063 C309.052858,89.7204572 309.052858,92.1421623 310.988638,93.9680457 C312.909399,95.7939292 315.447607,95.1789807 318,97 C318,97 316.079239,89.1054263 314.825154,85.4633052 C314.18351,83.0462995 312.909399,81.8258835 311.62027,80 Z M432.131767,126.922307 C424.058773,118.93373 415.346366,114 406.648715,114 C399.200378,114 393.592401,119.528766 393.592401,125.081598 C393.592401,147.234006 402.309727,161.393688 407.898029,173.687764 C409.753145,176.766677 410.372884,179.230638 410.372884,182.309551 C410.997541,190.312236 404.17386,205.076082 399.815198,213.078767 C399.200378,212.455515 396.077093,211.851351 393.592401,211.851351 C387.379442,211.851351 384.89475,216.147721 383.645436,219.834948 C381.781302,219.834948 380.555761,218.607533 378.662116,218.607533 C371.218698,217.99341 365,224.754571 365,232.153091 C365,240.136689 366.850198,244.462105 369.974302,250 L376.19218,250 C375.562605,248.154312 373.707488,238.914252 373.082831,236.458591 C372.477849,232.776343 373.707488,230.302424 375.562605,228.455906 C378.056314,224.754571 384.260256,226.001074 384.260256,226.001074 C382.405959,229.075008 379.921267,233.99463 379.921267,238.914252 C380.555761,241.997315 381.155826,246.936025 383.039634,250 L388.013116,250 C389.234558,246.302814 388.013116,243.23469 388.013116,240.136689 C388.013116,238.310088 388.013116,236.458591 388.618919,234.607923 C388.618919,233.380507 391.728267,237.072714 391.728267,237.072714 C391.728267,237.072714 394.217058,233.99463 394.217058,231.52984 C394.217058,229.688301 390.497808,230.302424 389.887087,228.455906 C389.233738,226.615197 391.112628,222.299739 391.112628,222.299739 C394.841715,219.834948 397.941227,220.4582 399.200378,220.4582 C401.050576,220.4582 401.665395,221.062364 404.17386,221.062364 C406.024058,221.062364 406.648715,217.380117 406.648715,215.543557 C407.264355,216.147721 409.147343,217.380117 409.753145,217.380117 C411.61318,217.99341 412.237837,217.99341 414.101971,218.607533 C416.59568,219.834948 419.085291,221.062364 421.579,223.536284 L421.579,222.913032 C420.945326,220.4582 422.184802,217.380117 420.329686,216.147721 C420.329686,216.147721 417.21132,213.682931 414.726628,212.455515 C413.487151,211.228099 411.61318,211.228099 410.997541,210.000683 C410.372884,209.386561 410.372884,208.763309 410.372884,207.535893 C410.372884,206.303498 410.997541,204.461959 411.61318,204.461959 C412.852657,203.838707 413.487151,204.461959 415.971023,205.680246 C418.460634,206.92177 420.945326,208.763309 422.809459,210.000683 C422.809459,210.000683 423.424279,211.228099 423.424279,210.613976 C425.918808,209.386561 425.918808,208.763309 425.918808,205.076082 C423.424279,201.98804 425.918808,201.383876 422.184802,198.919085 C420.945326,198.919085 414.101971,196.454295 414.101971,196.454295 C414.101971,195.221899 415.971023,192.153775 415.971023,192.153775 C416.5965,191.549611 417.82614,191.549611 418.460634,192.767068 C422.184802,195.221899 424.669494,195.221899 428.427273,196.454295 C429.013401,194.617735 429.013401,193.39032 427.782942,192.153775 C426.524611,190.312236 424.669494,188.45161 423.424279,187.837487 C420.945326,187.224194 419.70011,186.610071 417.82614,185.996778 C417.82614,184.15026 417.21132,182.309551 416.5965,179.844761 C416.5965,178.607386 417.82614,179.230638 419.085291,179.230638 C421.579,178.607386 432.131767,182.309551 432.131767,182.309551 C432.131767,179.844761 431.507111,177.994093 430.257797,176.766677 C429.013401,175.529303 427.782942,174.301887 424.669494,173.07862 C420.329686,171.842076 416.5965,172.465327 413.487151,170.61466 C410.997541,168.149869 410.372884,167.535747 409.753145,165.070956 C411.61318,164.467622 414.726628,163.84354 416.5965,163.84354 C419.70011,163.84354 421.579,163.230247 425.303169,164.467622 C426.524611,165.070956 430.892291,168.773121 432.766262,168.773121 C432.766262,168.773121 431.507111,163.84354 430.257797,162.007811 C428.427273,162.007811 425.303169,158.305646 424.058773,157.691523 C417.82614,155.227562 416.5965,156.464107 412.852657,157.07823 C410.997541,157.691523 409.147343,157.07823 407.264355,157.07823 C406.648715,155.850814 408.513669,154.000146 407.898029,152.771901 C407.898029,152.148649 405.394483,151.535356 405.394483,150.31209 C405.394483,150.31209 415.346366,149.075545 419.085291,149.688838 C420.329686,150.31209 424.058773,152.771901 425.303169,152.771901 C425.303169,152.771901 426.524611,148.451463 424.669494,144.769216 C421.579,144.165052 418.460634,144.769216 415.971023,144.165052 C413.487151,143.5418 410.997541,144.165052 409.147343,144.165052 C407.264355,144.165052 405.394483,143.5418 403.540186,143.5418 C402.309727,141.701091 401.665395,139.844614 401.665395,138.003905 C401.665395,138.003905 417.21132,137.380654 418.460634,136.77649 C417.82614,136.143279 416.5965,135.549074 415.971023,134.30174 C413.487151,129.996241 411.61318,129.387098 408.513669,129.387098 C406.648715,129.387098 402.309727,131.223657 399.815198,130.609534 C399.815198,125.694891 402.309727,121.389392 406.024058,121.389392 C413.487151,121.389392 420.945326,124.457517 427.158285,131.223657 C442.713227,147.234006 450.777204,177.37997 450.777204,198.919085 C450.777204,208.763309 449.536907,217.99341 448.302349,225.377822 C450.161564,226.001074 451.392023,226.001074 453.265994,226.001074 C455.144884,218.607533 457,208.763309 457,199.533208 C457,168.149869 445.803721,141.701091 432.131767,126.922307 L432.131767,126.922307 Z M337,101.845719 C338.214632,106.788403 340.013767,112.966966 340.621083,120.356358 C340.621083,122.221868 340.013767,124.067337 340.621083,125.923662 L349,129 C349,129 347.822342,121.596413 346.616363,112.966966 C345.415891,105.567554 344.812508,103.09663 343.013374,100 C341.808181,100.615351 341.214239,100.615351 340.013767,100.615351 C338.214632,101.23112 337,101.845719 337,101.845719 L337,101.845719 Z M357.281072,137.08658 C358.560458,138.326822 359.190117,140.812392 359.82981,145.163835 C360.463649,147.654491 361.743035,148.274188 363.002352,152 C364.920595,150.764845 368.103172,151.385389 368.103172,151.385389 C368.103172,148.274188 366.184929,145.163835 366.184929,144.553463 C365.535202,143.293723 363.641209,139.567064 363.002352,138.326822 C363.641209,138.326822 365.535202,140.812392 368.732831,140.812392 C369.381722,140.812392 371.294947,141.422764 372.554265,140.812392 C372.554265,140.812392 374.453275,142.062806 374.453275,143.293723 C375.726807,145.163835 375.726807,146.404077 376.385733,148.274188 C377.625818,148.274188 378.284743,148.274188 378.914402,147.654491 C381.457286,147.654491 382.726637,147.024621 382.726637,147.024621 C382.107013,145.783532 381.457286,144.553463 381.457286,143.293723 C380.818429,142.062806 379.563293,138.947366 379.563293,138.947366 L391,137.08658 C391,135.206295 390.370341,132.715639 388.447081,131.475397 C382.726637,133.355682 376.385733,133.966054 371.915408,133.966054 C365.535202,133.966054 359.190117,132.715639 350.282078,129 C349.647402,130.235155 350.282078,132.715639 350.282078,132.715639 C354.099331,135.846338 354.099331,133.966054 357.281072,137.08658 L357.281072,137.08658 Z M219.786256,34.8538613 C224.250842,32.3895906 231.864154,28.0698478 234.398835,25.6152418 C235.051879,26.8522505 242.679638,31.1622466 245.84799,32.9935568 C248.382503,34.8538613 250.931214,35.4578275 253.465728,36.6851715 C254.738413,34.8538613 255.995231,32.9935568 257.282113,28.6932254 C259.1878,29.9301522 261.727324,29.9301522 263.623825,30.5341185 C263.623825,32.9935568 263.623825,35.4578275 264.27687,37.931763 C264.27687,39.1494422 265.543709,38.5357293 268.088244,37.3084673 C271.894608,36.0811233 275.700971,35.4578275 277.61668,34.8538613 C282.042684,32.3895906 284.591395,27.4658815 288.402769,27.4658815 C291.590327,27.4658815 297.303213,29.3068565 298.580074,30.5341185 C300.48075,31.1622466 301.757611,31.7662948 303.668308,31.7662948 C306.202822,31.7662948 308.108509,29.3068565 310,28.0698478 C304.297135,24.3879634 297.961268,20.6963979 291.590327,18.2369677 C287.773942,21.3003887 285.230242,23.7646512 283.329566,23.7646512 C281.413857,23.7646512 282.690718,20.0827505 282.690718,17.6136507 C280.785031,17.6136507 279.50817,17.6136507 277.61668,17 C276.359026,21.3003887 275.700971,26.8522505 272.533455,28.0698478 C271.265781,28.6932254 270.617747,28.6932254 269.988921,28.6932254 L269.988921,23.7646512 C269.988921,23.1510038 272.533455,18.8506151 271.894608,18.2369677 C271.894608,18.2369677 266.172536,19.4594301 264.914882,20.0827505 C264.27687,20.6963979 260.450464,22.547013 259.821637,22.547013 C259.821637,22.547013 257.910939,21.9237009 257.282113,21.9237009 C255.376425,20.6963979 254.109586,20.6963979 252.198888,19.4594383 C249.664374,26.8522505 249.01133,28.6932254 249.01133,27.4658815 C249.01133,27.4658815 240.115896,21.9237009 236.957566,18.2369677 C228.686283,19.4594301 228.686283,20.6963979 221.69687,23.1510038 C219.157513,25.6152418 215.345972,28.6932254 212.806614,32.3895906 C211.539357,34.8538613 210.26233,36.0811233 209,38.5357293 L215.345972,41 C215.984485,40.3767042 219.157513,36.0811233 219.786256,34.8538613 L219.786256,34.8538613 Z M436.485336,202.622866 C438.182936,203.20738 439.323736,207.318326 440.468536,208.488966 C442.184536,210.839115 441.618136,204.387695 441.043736,203.20738 C441.043736,202.622866 441.043736,197.931437 439.902936,197.931437 C439.323736,197.336443 438.758136,195.576452 438.182936,195 C437.608536,196.751123 438.182936,197.931437 438.182936,199.687398 C438.182936,200.866906 435.883736,202.027871 436.485336,202.622866 L436.485336,202.622866 Z M326.27439,76.2120742 C325.644924,76.2120742 323.737601,75.6060788 321.176128,75 L318,75 C318.629466,76.8275735 320.546662,78.6456431 321.176128,79.857634 C321.176128,80.4732166 321.176128,82.3007901 321.830279,83.5032771 C323.088388,83.5032771 324.996533,84.1092725 326.27439,84.7200198 C326.908792,84.7200198 330.723437,85.3356025 331.99718,86.5475933 C333.265163,86.5475933 337.705159,91.4052273 338.363424,92.0113061 C340.260873,93.2328008 342.173132,94.444875 343.432064,93.8388796 C344.70992,93.8388796 343.432064,92.0113061 343.432064,91.4052273 C340.900212,87.7596675 338.99289,81.079212 338.363424,81.079212 C336.451165,80.4732166 335.172485,81.079212 332.635697,79.857634 C331.372651,78.6456431 327.547309,76.8275735 326.27439,76.2120742 L326.27439,76.2120742 Z M316.336132,61.7450409 C316.974676,63.0294968 318.218246,63.0294968 319.476061,63.6616369 C320.72382,64.9360898 321.986664,65.5733162 323.86375,66.8577721 C326.360944,69.4166808 327.613732,72.622819 330.739415,75.1566354 C331.992203,75.8038648 332.621529,76.4410913 333.2408,76.4410913 C333.879344,76.4410913 336.375701,78.3627736 337,79 C337,73.8872688 335.117886,70.0639102 333.879344,67.4949985 C333.879344,66.8577721 333.2408,66.2205456 331.992203,65.5733162 C330.100871,63.6616369 328.233003,61.7450409 327.613732,61.7450409 C325.741674,59.8333616 324.483858,57.9216823 322.605934,56 C320.72382,56 319.476061,57.9216823 318.218246,58.5589087 C317.598975,59.8333616 315.106808,61.1178175 316.336132,61.7450409 Z M314.144234,46.6072936 C314.144234,48.4027295 314.746831,50.2169215 315.340775,52.0029383 C318.279027,53.8030428 321.838757,55 321.838757,55 C322.423261,53.1951451 321.230653,51.4044597 321.230653,49.5996048 C320.070299,45.4009173 318.279027,41.2068984 317.694524,36.4097323 L317.694524,33.9970617 C315.340775,32.8095235 312.955559,32.2016258 310,31 C310,31 310,34.6049593 311.187888,36.4097323 C312.375776,39.4021254 314.144234,44.2039601 314.144234,46.6072936 Z M445.502295,62.7042608 L443,59.7606137 L449.865248,58 L453,68 L445.502295,62.7042608 Z M424.851112,57.83188 L421.062619,60.03876 L416,56.72844 L421.686975,53.96124 L428,57.83188 L424.851112,57.83188 Z M522.384693,176.5457 C523,172.888339 523,169.2351 523,166.79411 C521.744707,165.577739 519.854365,164.960069 518.623751,164.960069 C518.623751,163.14582 517.983765,160.708954 518.623751,158.267139 C519.854365,158.267139 522.384693,158.874913 522.384693,158.267139 C522.384693,154.609778 521.744707,150.94252 521.134336,149.123323 C519.854365,148.505654 517.983765,147.89788 516.098359,147.280211 C516.098359,145.456066 515.478116,143.63192 514.848002,142.416373 C516.748215,141.798704 517.983765,141.798704 519.234122,141.798704 C519.234122,141.798704 517.983765,136.312249 517.368458,133.870435 C516.098359,133.262661 514.21871,133.262661 512.967531,133.262661 C512.342353,132.056186 511.713061,130.820847 511.082947,128.996702 C512.342353,128.393876 513.607516,128.393876 514.848002,127.785278 C513.607516,124.73569 512.968354,123.510247 511.713061,121.686102 L507.335989,121.686102 C506.715746,120.470555 506.085632,119.245112 506.085632,118.038636 C506.715746,117.406123 507.957055,116.808246 508.591282,116.190576 C507.957055,114.376327 506.715746,112.542286 505.44647,111.326739 C504.196113,111.326739 502.94082,111.924617 501.690463,111.326739 C501.07022,111.326739 499.179878,108.884924 499.809992,108.884924 C500.430235,107.659482 501.690463,107.050883 502.320577,106.448058 C500.430235,104.016139 499.809992,102.182098 497.924586,100.956655 C496.674229,100.956655 495.433743,100.956655 494.163644,101.574325 C494.163644,101.574325 492.908351,99.7311299 492.288108,99.123109 C490.398589,99.123109 493.543401,96.078304 493.543401,96.078304 C491.657994,93.646303 489.787394,91.8126742 487.281745,89.3806732 C486.002597,89.3806732 484.75224,90.5871489 484.131997,90.5871489 C484.131997,90.5871489 481.626348,88.7630862 481.626348,88.1550653 C481.626348,86.939106 484.131997,86.3310851 484.131997,86.3310851 C484.131997,86.3310851 479.736006,81.4526514 476.610113,79.6191052 C475.359756,80.2270436 474.739514,80.2270436 473.464478,80.2270436 C471.593879,78.4030634 469.083294,77.1870216 469.083294,77.1870216 C469.083294,77.1870216 470.973636,75.9614963 470.973636,75.3534754 C467.837872,73.5246297 466.578467,72.3182364 464.072817,70.4750417 C461.562232,69.2590824 460.311875,67.4254536 459.056583,65.5918249 C454.675398,58.8989771 449.033985,49.1469751 435.221654,47.3133464 C435.221654,47.3133464 438.372225,51.5789762 440.256809,54.6333473 C440.256809,55.2318021 440.256809,55.2318021 437.74211,55.2318021 L433.365861,55.2318021 C432.095762,53.3982559 431.475519,52.799801 430.835534,51.5789762 C429.580241,49.1469751 428.988789,48.5293882 427.709641,47.3133464 C425.199056,45.4798002 412.661761,52.1869971 402,54.6333473 C404.529505,57.6734517 407.025283,59.4974319 407.645526,60.7230397 C410.78129,63.7678447 415.172346,69.2590824 418.298238,73.5246297 C418.937401,72.9166913 419.567515,72.3182364 420.822807,71.6910834 C428.988789,70.4750417 428.988789,68.6606275 428.988789,68.6606275 C428.988789,68.6606275 422.693407,63.7678447 427.070479,63.7678447 C427.070479,63.7678447 430.215291,64.3662996 431.475519,63.1646069 C434.606347,62.5470199 438.372225,61.938999 440.256809,63.1646069 C442.757522,64.9838865 444.008702,67.4254536 445.893286,69.2589999 C444.642929,69.2589999 443.397508,68.6606275 442.13728,68.6606275 C438.372225,68.0334745 434.606347,68.6606275 431.475519,69.2589999 C431.475519,69.2589999 436.510673,73.5246297 437.74211,75.3534754 C436.510673,74.7358884 432.725876,75.3534754 432.725876,75.3534754 C430.835534,75.9614963 428.339756,76.5694347 427.709641,76.5694347 C425.839042,77.1870216 423.943764,76.5694347 422.693407,77.1870216 C425.199056,78.4030634 436.510673,82.6782592 442.13728,82.6782592 C447.153514,82.6782592 450.279406,82.0511063 454.675398,80.2270436 C455.295641,79.6191052 456.545998,79.0110843 457.176112,79.6191052 C459.69081,80.2270436 460.941989,80.8446305 462.192346,82.0511063 C478.500455,91.8126742 496.674229,114.9841 502.320577,127.167609 C507.957055,138.753239 511.082947,151.56019 511.082947,163.744522 C511.713061,180.212957 506.085632,196.0596 494.793758,210.08622 C488.503311,217.995522 476.610113,224.712368 464.072817,225.927915 C467.837872,230.198822 469.704359,236.896701 471.593879,243 C471.593879,243 475.98987,242.392227 478.500455,241.17668 C478.500455,236.297998 475.359756,230.816492 475.359756,229.581153 C475.359756,229.581153 479.115763,227.149234 482.256462,227.149234 C482.866833,228.973379 484.75224,232.022968 487.281745,236.297998 C489.787394,235.072556 491.657994,233.846288 493.543401,232.022968 C493.543401,228.973379 491.657994,225.320141 490.398589,221.66278 C494.793758,219.838635 497.304343,219.211069 497.304343,219.211069 C498.568684,221.04511 501.690463,222.869255 502.320577,224.712368 C502.320577,224.712368 505.44647,221.66278 506.715746,218.613192 C505.44647,216.171377 503.565999,214.342284 502.320577,211.901294 L507.335989,206.428859 C507.335989,206.428859 510.462704,208.860777 511.713061,210.08622 C513.607516,207.64523 515.478116,205.203416 516.098359,202.14888 C512.967531,199.109188 511.713061,199.109188 511.082947,197.275147 C512.342353,195.44193 512.967531,193.01496 514.21871,191.180919 C516.098359,191.798588 517.368458,193.01496 518.623751,193.612837 C519.854365,191.180919 521.134336,187.513661 521.134336,185.081743 C519.854365,183.8563 517.983765,183.257598 516.748215,182.037103 C517.368458,178.987515 517.983765,175.937927 517.983765,175.937927 C517.983765,175.937927 521.134336,176.5457 522.384693,176.5457 L522.384693,176.5457 Z" id="shape" fill="#FFFFFF" opacity="0.25" mask="url(#mask-2)"></path>
            </g>
        </g>
    </g>
</svg>