<?xml version="1.0" encoding="UTF-8"?>
<svg width="198px" height="80px" viewBox="0 0 198 80" version="1.1" xmlns="http://www.w3.org/2000/svg" xmlns:xlink="http://www.w3.org/1999/xlink">
    <title>Artboard</title>
    <g id="Artboard" stroke="none" stroke-width="1" fill="none" fill-rule="evenodd">
        <g id="Payment-method/American-Express-(white)" transform="translate(0.000000, -59.000000)" fill="#FFFFFF" fill-rule="nonzero">
            <path d="M77.0967322,118.284476 L85.2279967,109.54118 L85.2279967,127.325043 L77.0967322,118.284476 Z M51.1816052,111.744491 L51.1816052,115.766407 L62.8276744,115.766407 L62.8276744,120.31292 L51.1816052,120.31292 L51.1816052,124.684568 L64.2091151,124.684568 L70.2769619,118.16207 L64.4014676,111.761977 L51.1116589,111.761977 L51.1816052,111.744491 Z M195.341056,115.08443 C197.190814,117.031751 198.147358,119.660662 197.981531,122.341365 C197.981531,129.003756 193.522451,133.008185 185.98573,133.008185 L175.668642,133.008185 C174.203119,133.015849 172.87759,132.139067 172.311217,130.787388 C169.946988,132.334704 167.16103,133.110617 164.337331,133.008185 L154.002757,133.008185 C153.454464,132.99508 152.916317,132.857554 152.428963,132.605993 C151.933837,132.853486 151.390944,132.990701 150.837684,133.008185 L133.141254,133.008185 C132.581509,132.997318 132.031495,132.859814 131.532488,132.605993 C131.02653,132.857891 130.471282,132.99521 129.906235,133.008185 L124.660258,133.008185 C122.645802,132.998615 121.015131,131.367944 121.005561,129.353487 L121.005561,126.135955 C121.005561,125.80371 121.005561,125.349058 121.005561,124.946867 C120.656211,124.923731 120.305714,124.923731 119.956365,124.946867 L117.857974,124.946867 L117.857974,129.388461 C117.857985,130.360784 117.470539,131.29303 116.781363,131.978924 C116.092188,132.664818 115.158103,133.04781 114.18579,133.0432 L108.834894,133.0432 C107.867208,133.0432 106.939409,132.657565 106.256795,131.971669 C105.574181,131.285773 105.193031,130.356135 105.197683,129.388461 L105.197683,123.687832 C102.721818,125.02463 99.9298582,125.66521 97.1188781,125.541411 L94.1286712,125.541411 L94.1286712,129.336001 C94.1333235,130.303675 93.7521733,131.233313 93.069559,131.919209 C92.3869448,132.605105 91.4591461,132.990709 90.4914604,132.990698 L80.1393989,132.990698 C79.0961913,132.994837 78.1019201,132.54869 77.4114908,131.766637 L73.5644409,127.447449 L69.6474447,131.819097 C68.953092,132.568971 67.9764818,132.99386 66.9545097,132.990698 L45.9706013,132.990698 C43.9521677,132.990698 42.3159039,131.354434 42.3159039,129.336001 L42.3159039,107.197977 C42.3159039,106.228691 42.7009513,105.299105 43.38634,104.613716 C44.0717287,103.928327 45.0013153,103.54328 45.9706013,103.54328 L67.2692684,103.54328 C68.3101963,103.532419 69.3049279,103.972397 69.9971765,104.749855 L73.8617129,108.946636 L77.8836287,104.592475 C78.5756545,103.851756 79.5453999,103.433434 80.5590771,103.43836 L97.5035831,103.43836 C100.376076,103.305995 103.22519,104.01068 105.704794,105.466805 C106.300601,104.230503 107.549953,103.442867 108.922327,103.43836 L121.16294,103.43836 C123.942877,103.228205 126.730292,103.733913 129.259231,104.907234 C129.502073,105.07507 129.735575,105.256034 129.958695,105.449318 C130.577713,104.220034 131.834864,103.442764 133.211201,103.43836 L150.890144,103.43836 C152.217842,103.452509 153.428972,104.199373 154.03773,105.379372 C156.119387,104.040019 158.558195,103.36325 161.032366,103.43836 L171.664213,103.43836 C173.238344,103.406957 174.652241,104.396685 175.161531,105.886483 C177.332554,104.205584 180.024306,103.339273 182.768198,103.43836 L193.347585,103.43836 C194.316874,103.442987 195.244625,103.832479 195.926737,104.521149 C196.608849,105.20982 196.989445,106.141255 196.984796,107.110544 L196.984796,111.814437 C196.995681,113.062073 196.369335,114.229057 195.32357,114.909564 L195.445976,115.014483 L195.341056,115.08443 Z M106.369284,114.454912 C106.369284,108.317119 101.647905,107.145518 97.4161502,107.145518 L80.4891307,107.145518 L73.7393068,114.419939 L67.2168086,107.197977 L45.9006549,107.197977 L45.9006549,129.405947 L66.8845634,129.405947 L73.686847,122.061579 L80.1393989,129.353487 L90.4564872,129.353487 L90.4564872,121.921686 L97.0664184,121.921686 C101.700365,121.921686 106.299338,120.627679 106.299338,114.454912 L106.369284,114.454912 Z M126.44389,119.036399 C128.791814,118.025099 130.282782,115.68116 130.203507,113.125932 C130.325641,111.101836 129.270303,109.18861 127.493086,108.2122 C125.488894,107.327056 123.292557,106.966014 121.11048,107.163004 L108.869867,107.163004 L108.869867,129.353487 L114.115844,129.353487 L114.115844,121.18725 L119.781499,121.18725 C121.705024,121.18725 122.911599,121.379602 123.646036,122.166499 C124.660258,123.198208 124.520365,125.174192 124.520365,126.503173 L124.520365,129.283541 L129.871262,129.283541 L129.871262,124.946867 C130.01391,123.534087 129.701447,122.112684 128.979446,120.889978 C128.293604,120.041174 127.385544,119.399479 126.356457,119.036399 L126.44389,119.036399 Z M150.925117,107.163004 L133.158741,107.163004 L133.158741,129.353487 L150.85517,129.353487 L150.85517,124.684568 L138.404718,124.684568 L138.404718,120.31292 L150.522925,120.31292 L150.522925,115.80138 L138.404718,115.80138 L138.404718,111.779464 L150.85517,111.779464 L150.925117,107.163004 Z M172.713408,122.323878 C172.837318,120.617372 172.24123,118.936912 171.069669,117.689932 C169.880581,116.483357 167.922083,115.941273 165.019309,115.941273 L162.168994,115.941273 C161.478401,115.967411 160.787993,115.884798 160.123063,115.69646 C159.41772,115.449899 158.946969,114.782416 158.951462,114.035234 C158.902104,113.391616 159.211336,112.773152 159.755845,112.426468 C160.407158,112.089899 161.142344,111.950153 161.871722,112.024276 L171.594266,112.024276 L171.594266,107.197977 L160.979906,107.197977 C155.41917,107.197977 153.390726,110.572889 153.390726,113.825395 C153.390726,120.820031 159.615952,120.522759 164.564657,120.680139 C165.22758,120.604319 165.89491,120.778947 166.435722,121.169763 C166.847851,121.53812 167.077913,122.068541 167.06524,122.62115 C167.071586,123.177572 166.843026,123.71088 166.435722,124.090024 C165.809666,124.528712 165.044064,124.721668 164.284872,124.632108 L154.002757,124.632108 L154.002757,129.370974 L164.319845,129.370974 C169.670742,129.370974 172.660949,127.167664 172.660949,122.376338 L172.713408,122.323878 Z M194.379294,122.323878 C194.521926,120.611733 193.952628,118.916488 192.805501,117.637472 C191.598926,116.430897 189.622941,115.888813 186.737654,115.888813 L183.88734,115.888813 C183.191055,115.913362 182.495132,115.830795 181.823922,115.644001 C181.196357,115.377664 180.761049,114.793773 180.684968,114.116289 C180.608887,113.438805 180.903844,112.772905 181.456703,112.374008 C182.120576,112.037418 182.866913,111.897859 183.607554,111.971817 L193.312612,111.971817 L193.312612,107.197977 L182.698251,107.197977 C177.120029,107.197977 175.109071,110.572889 175.109071,113.825395 C175.109071,120.820031 181.316811,120.522759 186.283002,120.680139 C186.951353,120.604955 187.62392,120.779324 188.171554,121.169763 C188.600756,121.52555 188.834589,122.064666 188.801071,122.62115 C188.799041,123.17587 188.571848,123.705988 188.171554,124.090024 C187.537422,124.525462 186.767657,124.717903 186.003217,124.632108 L175.738588,124.632108 L175.738588,129.370974 L186.055677,129.370974 C191.336627,129.353487 194.309347,127.115204 194.309347,122.323878 L194.379294,122.323878 Z M97.4686099,111.831924 L90.508947,111.831924 L90.508947,117.462606 L97.3462038,117.462606 C99.3746483,117.462606 100.651169,116.46587 100.651169,114.542345 C100.651169,112.61882 99.3746483,111.744491 97.3986636,111.744491 L97.4686099,111.831924 Z M100.616196,78.1702374 C101.338123,77.7253605 101.755226,76.9180642 101.700365,76.0718465 C101.816719,75.1902811 101.340281,74.3369591 100.528763,73.9734557 C99.7283889,73.6598226 98.8682041,73.5284055 98.0106942,73.5887507 L91.488196,73.5887507 L91.488196,78.5199692 L97.9232613,78.5199692 C98.8201102,78.589226 99.7203409,78.4391875 100.54625,78.0828044 L100.616196,78.1702374 Z M123.348764,112.234115 C122.549933,111.892122 121.678659,111.75392 120.813208,111.831924 L114.18579,111.831924 L114.18579,116.815602 L120.655829,116.815602 C121.554707,116.892104 122.458124,116.735512 123.278817,116.360951 C124.003383,115.88532 124.417221,115.057645 124.362986,114.192614 C124.403198,113.368464 123.968386,112.593956 123.243844,112.199142 L123.348764,112.234115 Z M142.933745,72.8193407 L139.296534,81.685042 L146.588442,81.685042 L142.933745,72.8193407 Z M13.5329762,81.685042 L20.6849916,81.685042 L17.0128077,72.7319078 L13.5329762,81.685042 Z M43.2601798,94.9049189 C41.8071503,94.9049189 40.4908854,94.0477629 39.9027545,92.7190806 L39.2032908,91.1452874 L39.2032908,91.250207 C39.2079432,92.2178815 38.8267929,93.147519 38.1441787,93.833415 C37.4615645,94.519311 36.5337657,94.9049189 35.56608,94.9049189 L24.5670147,94.9049189 C23.0880482,94.9090714 21.753822,94.0172829 21.1921028,92.6491342 L20.0904476,89.9561993 L13.9526544,89.9561993 L12.816026,92.6491342 C12.2567233,94.0113887 10.9311997,94.9019748 9.45860063,94.9049189 L3.65305263,94.9049189 C2.41642242,94.8935378 1.27029401,94.2546041 0.610385902,93.2087051 C-0.0719508991,92.1686318 -0.190035538,90.8565803 0.295627276,89.711387 L9.79084584,67.5209039 C10.356878,66.151435 11.6840629,65.2505996 13.1657578,65.2301605 L21.0172369,65.2301605 C22.48219,65.2385587 23.8048,66.1088772 24.3921488,67.4509575 L26.3681335,72.2247967 L26.3681335,68.9897774 C26.3681224,68.0174541 26.7555692,67.0852076 27.4447446,66.399314 C28.13392,65.7134204 29.0680052,65.3304278 30.0403175,65.3350801 L38.6961797,65.3350801 C40.1218273,65.333312 41.4157351,66.1685329 42.0011453,67.4684441 L45.4984634,74.9876779 L48.6635362,67.555877 C49.2036797,66.1839277 50.5120271,65.2680845 51.9859884,65.2301605 L60.9041495,65.2301605 C61.6150467,65.2456309 62.3043394,65.4774285 62.8801342,65.8946509 C63.4314487,65.493853 64.0878663,65.2628912 64.768686,65.2301605 L82.4651154,65.2301605 C83.0890845,65.2628532 83.6929015,65.4621128 84.2137744,65.807218 C84.7954502,65.440138 85.4670447,65.2404748 86.154786,65.2301605 L98.3953992,65.2301605 C101.236808,64.9916495 104.089633,65.5295763 106.64907,66.7864671 C106.88099,66.9413913 107.102925,67.1107634 107.31356,67.2935782 C107.906537,66.0660295 109.133451,65.2705578 110.49612,65.2301605 L115.916963,65.2301605 C117.681514,65.2867927 119.153327,66.5967065 119.414281,68.3427736 C122.247841,66.1022848 125.812075,64.993135 129.416611,65.2301605 L134.540182,65.2301605 C135.334326,65.2326565 136.106679,65.4901076 136.743492,65.9645973 C137.368121,65.4797187 138.138632,65.2208271 138.929316,65.2301605 L146.885714,65.2301605 C148.34207,65.2388264 149.654275,66.1113397 150.225653,67.4509575 L152.184151,72.0149576 L152.184151,68.9897774 C152.184128,66.9781531 153.809761,65.3447051 155.821362,65.3350801 L163.900167,65.3350801 C165.180128,65.3384161 166.368715,65.9987421 167.047753,67.0837391 L169.600795,71.2630342 L169.600795,68.9722909 C169.60075,68.0015524 169.988752,67.0710738 170.678445,66.3879501 C171.368137,65.7048265 172.302286,65.325746 173.272979,65.3350801 L178.693822,65.3350801 C180.705447,65.335057 182.338895,66.9606895 182.34852,68.9722909 L182.34852,91.1802606 C182.33895,93.1947169 180.708278,94.825388 178.693822,94.834958 L171.209562,94.834958 C169.925206,94.8487215 168.728816,94.1840604 168.061975,93.086299 L164.809469,87.7004291 L164.809469,91.1977472 C164.809469,93.2161808 163.173206,94.8524446 161.154772,94.8524446 L150.383032,94.8524446 C148.896319,94.8512771 147.557001,93.9537961 146.990634,92.5791878 L145.888979,89.8862529 L139.786159,89.8862529 L138.736963,92.5617013 C138.176072,93.9431714 136.835552,94.8483677 135.344565,94.8524446 L129.101852,94.8524446 C125.656662,94.963412 122.272665,93.923602 119.484227,91.8972108 C119.214911,93.6145624 117.725123,94.8734335 115.986909,94.8524446 L110.601039,94.8524446 C109.98919,94.8503864 109.387748,94.6940113 108.85238,94.3977932 C108.35038,94.6826628 107.785677,94.8388572 107.208641,94.8524446 L101.962664,94.8524446 C99.9481522,94.852536 98.3096655,93.2296539 98.2904797,91.2152338 L98.2904797,88.4348659 L98.2904797,87.9277548 C98.2904797,87.6479694 98.2904797,87.2108046 98.2904797,86.8260996 L95.1254068,86.8260996 L95.1254068,91.2327204 C95.1254068,93.2414964 93.4969721,94.8699312 91.488196,94.8699312 L86.2422189,94.8699312 C85.6199004,94.8424672 85.0162105,94.6492864 84.4935599,94.3103603 C83.9677849,94.6426426 83.3659062,94.8352438 82.7449008,94.8699312 L64.8211457,94.8699312 C64.1166502,94.8485646 63.4321866,94.6305055 62.845161,94.2404139 C62.2615455,94.637561 61.5749715,94.8562925 60.8691763,94.8699312 L55.4483333,94.8699312 C54.4790439,94.87458 53.5476086,94.493984 52.8589381,93.8118723 C52.1702676,93.1297606 51.780776,92.2020099 51.7761493,91.2327204 L51.7761493,91.1103143 L51.0766857,92.6491342 C50.5020017,93.9812206 49.1874961,94.8414992 47.7367469,94.834958 L43.0678273,94.834958 L43.2601798,94.9049189 Z M118.609898,80.2511416 C118.609898,84.2555708 119.57166,86.8260996 121.442725,88.6971648 C123.598565,90.4461406 126.330563,91.3256195 129.101852,91.162774 L135.327078,91.162774 L137.303063,86.214069 L148.337101,86.214069 L150.383032,91.1802606 L161.172259,91.1802606 L161.172259,74.5330266 L171.209562,91.1802606 L178.728795,91.1802606 L178.728795,68.9722909 L173.290466,68.9722909 L173.290466,84.4654099 L163.952627,68.9897774 L155.891308,68.9897774 L155.891308,89.9736859 L146.920687,68.9897774 L138.981775,68.9897774 L131.497515,86.4763678 L129.101852,86.4763678 C127.767817,86.5939487 126.441431,86.1790602 125.412181,85.3222528 C124.291697,83.8149036 123.768491,81.9463094 123.943308,80.0762757 C123.810508,78.2726157 124.352713,76.4839626 125.464641,75.0576243 C126.560182,74.0363553 128.053441,73.5556924 129.539017,73.74613 L134.557668,73.74613 L134.557668,68.9722909 L129.416611,68.9722909 C125.761913,68.9722909 123.086465,69.8116472 121.372779,71.5603062 C119.301115,73.979999 118.286904,77.1297208 118.557438,80.3036014 L118.609898,80.2511416 Z M129.62645,77.3833408 C128.367415,77.3833408 128.245009,77.5232335 128.105116,77.6631263 C127.779486,78.4177781 127.63573,79.2383846 127.685438,80.0587891 C127.595296,80.9613616 127.721167,81.8724301 128.052656,82.7167509 C128.400848,82.7631745 128.753661,82.7631745 129.101852,82.7167509 L131.375109,77.4707738 L129.62645,77.3833408 Z M110.54858,91.1802606 L115.951936,91.1802606 L115.951936,68.9722909 L110.54858,68.9722909 L110.54858,91.1802606 Z M86.1722726,91.1802606 L91.4182497,91.1802606 L91.4182497,83.1014559 L97.1013915,83.1014559 C98.9899433,83.1014559 100.214005,83.2763218 100.965928,84.0632183 C101.7348,85.363313 102.031285,86.888976 101.805284,88.3824062 L101.805284,91.162774 L107.243614,91.162774 L107.243614,86.808613 C107.414774,85.3854054 107.10715,83.9457224 106.369284,82.7167509 C105.648058,81.9235642 104.740567,81.3225765 103.728809,80.9680918 C106.059724,79.9421069 107.533723,77.6030836 107.453453,75.0576243 C107.578971,73.0373444 106.530977,71.1250956 104.760518,70.1438924 C102.75066,69.2369934 100.535772,68.8809214 98.3429395,69.1121836 L86.1023262,69.1121836 L86.1023262,91.1802606 L86.1722726,91.1802606 Z M64.7861725,91.1802606 L82.482602,91.1802606 L82.482602,86.5812874 L70.0846094,86.5812874 L70.0846094,82.1746666 L82.18533,82.1746666 L82.18533,77.5931799 L70.0846094,77.5931799 L70.0846094,73.5887507 L82.482602,73.5887507 L82.482602,68.9722909 L64.7861725,68.9722909 L64.7861725,91.1802606 Z M43.0678273,91.1802606 L47.7017738,91.1802606 L55.3958735,73.7985898 L55.3958735,91.1802606 L60.9041495,91.1802606 L60.9041495,68.9722909 L52.0209616,68.9722909 L45.6558427,84.0282452 L38.6612065,68.9722909 L30.0403175,68.9722909 L30.0403175,89.9561993 L20.9997503,68.9722909 L13.1482712,68.9722909 L3.65305263,91.1802606 L9.42362745,91.1802606 L11.4695585,86.214069 L22.4336507,86.214069 L24.4620952,91.1802606 L35.268808,91.1802606 L35.268808,73.7811032 L42.9978809,91.2676936 L43.0678273,91.1802606 Z" id="Shape"></path>
        </g>
    </g>
</svg>