<?xml version="1.0" encoding="UTF-8"?>
<svg width="140px" height="80px" viewBox="0 0 140 80" version="1.1" xmlns="http://www.w3.org/2000/svg" xmlns:xlink="http://www.w3.org/1999/xlink">
    <title>Artboard</title>
    <defs>
        <linearGradient x1="44.1976911%" y1="46.6698492%" x2="83.9152737%" y2="52.2861649%" id="linearGradient-1">
            <stop stop-color="#E53121" offset="0%"></stop>
            <stop stop-color="#C22C1A" offset="100%"></stop>
        </linearGradient>
        <linearGradient x1="0.35889698%" y1="46.0995068%" x2="100.026631%" y2="60.1913413%" id="linearGradient-2">
            <stop stop-color="#DCDAEE" offset="0%"></stop>
            <stop stop-color="#8F88C0" offset="100%"></stop>
        </linearGradient>
        <linearGradient x1="64.689053%" y1="62.8755736%" x2="25.1826763%" y2="44.8576217%" id="linearGradient-3">
            <stop stop-color="#7B73B3" offset="0%"></stop>
            <stop stop-color="#C6C2E2" offset="100%"></stop>
        </linearGradient>
        <linearGradient x1="102.039852%" y1="68.091831%" x2="-1.17950835%" y2="30.6522991%" id="linearGradient-4">
            <stop stop-color="#6C62A8" offset="0%"></stop>
            <stop stop-color="#CBCAE6" offset="100%"></stop>
        </linearGradient>
        <linearGradient x1="20.3681094%" y1="33.6865815%" x2="65.9139393%" y2="98.0574754%" id="linearGradient-5">
            <stop stop-color="#E53121" offset="0%"></stop>
            <stop stop-color="#A62714" offset="100%"></stop>
        </linearGradient>
        <linearGradient x1="33.9414896%" y1="1.2746215%" x2="67.1465704%" y2="102.458254%" id="linearGradient-6">
            <stop stop-color="#E84D2C" offset="0%"></stop>
            <stop stop-color="#811F08" offset="100%"></stop>
        </linearGradient>
        <linearGradient x1="42.6851473%" y1="7.33376301%" x2="79.7867763%" y2="91.1983459%" id="linearGradient-7">
            <stop stop-color="#F3F2F9" offset="0%"></stop>
            <stop stop-color="#BBB7DB" offset="100%"></stop>
        </linearGradient>
        <linearGradient x1="47.6092644%" y1="46.0438191%" x2="51.7318569%" y2="54.7038143%" id="linearGradient-8">
            <stop stop-color="#FFFFFF" offset="0%"></stop>
            <stop stop-color="#BBB7DB" offset="100%"></stop>
        </linearGradient>
        <linearGradient x1="15.8825817%" y1="50.5104419%" x2="99.7432106%" y2="64.4198353%" id="linearGradient-9">
            <stop stop-color="#FFF098" offset="0%"></stop>
            <stop stop-color="#FFD530" offset="100%"></stop>
        </linearGradient>
        <linearGradient x1="21.3166122%" y1="23.4553212%" x2="98.9833295%" y2="58.0974579%" id="linearGradient-10">
            <stop stop-color="#F4A286" offset="0%"></stop>
            <stop stop-color="#E53121" offset="100%"></stop>
        </linearGradient>
        <linearGradient x1="-2.28307343%" y1="66.113192%" x2="102.125101%" y2="31.8473962%" id="linearGradient-11">
            <stop stop-color="#F4A286" offset="0%"></stop>
            <stop stop-color="#E53121" offset="100%"></stop>
        </linearGradient>
        <linearGradient x1="13.5115405%" y1="41.2573456%" x2="76.1720303%" y2="62.7622107%" id="linearGradient-12">
            <stop stop-color="#4464AC" offset="0%"></stop>
            <stop stop-color="#1D3584" offset="100%"></stop>
        </linearGradient>
        <linearGradient x1="1.22440732%" y1="49.9875365%" x2="101.223055%" y2="49.9875365%" id="linearGradient-13">
            <stop stop-color="#4464AC" offset="0%"></stop>
            <stop stop-color="#2F4B97" offset="37.3%"></stop>
            <stop stop-color="#223B89" offset="72.8%"></stop>
            <stop stop-color="#1D3584" offset="100%"></stop>
        </linearGradient>
        <linearGradient x1="-5.58030247%" y1="40.6178202%" x2="105.202732%" y2="60.5816255%" id="linearGradient-14">
            <stop stop-color="#5B62A2" offset="0%"></stop>
            <stop stop-color="#4C579A" offset="15.2%"></stop>
            <stop stop-color="#31438C" offset="48.2%"></stop>
            <stop stop-color="#213783" offset="77.6%"></stop>
            <stop stop-color="#1B3380" offset="100%"></stop>
        </linearGradient>
        <linearGradient x1="49.7818013%" y1="17.163241%" x2="57.0714001%" y2="85.1442194%" id="linearGradient-15">
            <stop stop-color="#FFFFFF" offset="0%"></stop>
            <stop stop-color="#DAD8ED" offset="100%"></stop>
        </linearGradient>
        <linearGradient x1="26.2448031%" y1="39.8169501%" x2="71.7375992%" y2="62.7621488%" id="linearGradient-16">
            <stop stop-color="#FFFFFF" offset="0%"></stop>
            <stop stop-color="#D1CEE8" offset="100%"></stop>
        </linearGradient>
        <linearGradient x1="7.34828733%" y1="37.6635666%" x2="96.1319072%" y2="52.3881369%" id="linearGradient-17">
            <stop stop-color="#D1CEE8" offset="0%"></stop>
            <stop stop-color="#7B73B3" offset="100%"></stop>
        </linearGradient>
        <linearGradient x1="15.2459821%" y1="0.0568189626%" x2="57.2352002%" y2="89.1800687%" id="linearGradient-18">
            <stop stop-color="#E53121" offset="0%"></stop>
            <stop stop-color="#B02916" offset="100%"></stop>
        </linearGradient>
        <linearGradient x1="-1.31104442%" y1="67.8901393%" x2="103.102996%" y2="33.6078345%" id="linearGradient-19">
            <stop stop-color="#E53121" offset="0%"></stop>
            <stop stop-color="#9D2511" offset="100%"></stop>
        </linearGradient>
        <linearGradient x1="43.6321332%" y1="42.0518002%" x2="87.8180592%" y2="95.750968%" id="linearGradient-20">
            <stop stop-color="#F5B0AC" offset="0%"></stop>
            <stop stop-color="#EF8495" offset="100%"></stop>
        </linearGradient>
        <linearGradient x1="1.2659241%" y1="50.0117452%" x2="101.270411%" y2="50.0117452%" id="linearGradient-21">
            <stop stop-color="#F5B0AC" offset="0%"></stop>
            <stop stop-color="#EE788F" offset="100%"></stop>
        </linearGradient>
    </defs>
    <g id="Artboard" stroke="none" stroke-width="1" fill="none" fill-rule="evenodd">
        <g id="Issuer-/-SNS-(white)" transform="translate(0.000000, -30.000000)">
            <g id="Logo-SNS" transform="translate(0.000000, 45.500000)">
                <g id="Figure">
                    <path d="M48.0241957,24.0856213 C48.0241957,37.2341535 37.3661659,47.8911982 24.219604,47.8911982 C11.0710719,47.8911982 0.413041999,37.2341535 0.413041999,24.0861139 C0.413041999,10.9405372 11.0710719,0.281522196 24.219604,0.281522196 C37.3666585,0.281522196 48.0241957,10.9410298 48.0241957,24.0866065 L48.0241957,24.0856213 Z" id="Shape" fill="#FFFFFF" fill-rule="nonzero"></path>
                    <circle id="Oval" fill="#FFFFFF" fill-rule="nonzero" cx="24.2122153" cy="24.0757696" r="23.9129601"></circle>
                    <polyline id="Shape" fill="url(#linearGradient-1)" fill-rule="nonzero" points="24.2127079 24.0757696 33.0905408 19.153875 47.2104477 30.6714631 24.2132004 24.0757696"></polyline>
                    <polygon id="Shape" fill="#E53121" fill-rule="nonzero" points="33.0900483 19.153875 47.2099552 30.6714631 45.8041218 29.9340656 33.0575377 19.5380902"></polygon>
                    <polygon id="Shape" fill="#F08465" fill-rule="nonzero" points="24.2127079 24.0757696 33.0905408 19.153875 33.0575377 19.5380902 25.0432037 23.9802084"></polygon>
                    <polygon id="Shape" fill="#B82B18" fill-rule="nonzero" points="47.2099552 30.6714631 24.2127079 24.0757696 25.0427111 23.9802084 45.8041218 29.9340656"></polygon>
                    <polyline id="Shape" fill="#F5B0AC" fill-rule="nonzero" points="24.2127079 24.0757696 33.0905408 19.153875 30.806431 1.07605943 24.2132004 24.0757696"></polyline>
                    <polygon id="Shape" fill="#D47785" fill-rule="nonzero" points="30.8059384 1.0770446 24.2127079 24.0757696 24.7333687 23.4196484 30.6852555 2.65823773"></polygon>
                    <polygon id="Shape" fill="#D99E9B" fill-rule="nonzero" points="33.0900483 19.153875 30.8059384 1.07605943 30.6852555 2.65823773 32.7472101 18.9775301"></polygon>
                    <polygon id="Shape" fill="#F9D1CD" fill-rule="nonzero" points="24.2127079 24.0757696 33.0905408 19.153875 32.7477027 18.9765449 24.7333687 23.4196484"></polygon>
                    <polyline id="Shape" points="24.2127079 24.0757696 29.1336173 32.9540952 17.6170144 47.0744947 24.2127079 24.0757696"></polyline>
                    <polygon id="Shape" fill="#F9F9FC" fill-rule="nonzero" points="29.1336173 32.9540952 17.6170144 47.0744947 18.3534268 45.6671835 28.7494022 32.9205995"></polygon>
                    <polygon id="Shape" fill="#F3F2F9" fill-rule="nonzero" points="24.2127079 24.0757696 29.1336173 32.9540952 28.7494022 32.9205995 24.3077765 24.9062655"></polygon>
                    <polygon id="Shape" fill="#DCDAEE" fill-rule="nonzero" points="17.6170144 47.0744947 24.2127079 24.0757696 24.3077765 24.9057729 18.3539194 45.6671835"></polygon>
                    <polyline id="Shape" fill="#2B2B85" fill-rule="nonzero" points="24.2127079 24.0757696 29.1336173 32.9540952 47.2104477 30.6714631 24.2127079 24.0757696"></polyline>
                    <polygon id="Shape" fill="#484293" fill-rule="nonzero" points="47.2104477 30.6714631 24.2127079 24.0757696 24.867844 24.5964304 45.6302398 30.5483172"></polygon>
                    <polygon id="Shape" fill="#24236F" fill-rule="nonzero" points="29.1336173 32.9540952 47.2104477 30.6714631 45.6292546 30.5483172 29.3099622 32.6107645"></polygon>
                    <polygon id="Shape" fill="#8F88C0" fill-rule="nonzero" points="24.2127079 24.0757696 29.1336173 32.9540952 29.3099622 32.6107645 24.8668588 24.5964304"></polygon>
                    <polyline id="Shape" fill="url(#linearGradient-2)" fill-rule="nonzero" points="24.2127079 24.0757696 15.3333971 28.9966791 1.21398282 17.4800762 24.2127079 24.0757696"></polyline>
                    <polygon id="Shape" fill="#BBB7DB" fill-rule="nonzero" points="15.3333971 28.9966791 1.21398282 17.4800762 2.61981622 18.215996 15.367878 28.6144343"></polygon>
                    <polygon id="Shape" fill="#B0AAD4" fill-rule="nonzero" points="24.2127079 24.0757696 15.3333971 28.9966791 15.367878 28.6144343 23.382212 24.1713308"></polygon>
                    <polygon id="Shape" fill="#D1CCE6" fill-rule="nonzero" points="1.21398282 17.4800762 24.2127079 24.0757696 23.3817194 24.1708383 2.6203088 18.2155034"></polygon>
                    <polyline id="Shape" fill="#FFDD00" fill-rule="nonzero" points="24.2127079 24.0757696 15.3333971 28.9966791 17.6170144 47.0744947 24.2127079 24.0757696"></polyline>
                    <polygon id="Shape" fill="#DBBB85" fill-rule="nonzero" points="17.6170144 47.0744947 24.2127079 24.0757696 23.6905693 24.7309057 17.7386825 45.4918238"></polygon>
                    <polygon id="Shape" fill="#EBC536" fill-rule="nonzero" points="15.3333971 28.9966791 17.6170144 47.0744947 17.7386825 45.4918238 15.6767279 29.1735166"></polygon>
                    <polygon id="Shape" fill="#FFE167" fill-rule="nonzero" points="24.2127079 24.0757696 15.3333971 28.9966791 15.6767279 29.1740092 23.6900767 24.7309057"></polygon>
                    <polyline id="Shape" fill="#E53121" fill-rule="nonzero" points="24.2127079 24.0757696 19.2898281 15.1964589 30.806431 1.07753718 24.2127079 24.0762622"></polyline>
                    <polygon id="Shape" fill="#EA583C" fill-rule="nonzero" points="19.2898281 15.1964589 30.806431 1.07753718 30.0710038 2.48386316 19.6750284 15.2319249"></polygon>
                    <polygon id="Shape" fill="#D42F1E" fill-rule="nonzero" points="24.2127079 24.0757696 19.2898281 15.1964589 19.6740432 15.2309398 24.1171467 23.2452738"></polygon>
                    <polygon id="Shape" fill="#C22C1A" fill-rule="nonzero" points="30.8059384 1.0770446 24.2127079 24.0757696 24.1171467 23.2447812 30.0710038 2.48337058"></polygon>
                    <polyline id="Shape" fill="#F3F2F9" fill-rule="nonzero" points="24.2127079 24.0757696 19.2898281 15.1964589 1.21349024 17.4800762 24.2122153 24.0757696"></polyline>
                    <polygon id="Shape" fill="#F9F8FB" fill-rule="nonzero" points="1.21349024 17.4800762 24.2122153 24.0757696 23.5570792 23.5536311 2.79468337 17.6017443"></polygon>
                    <polygon id="Shape" fill="#DCDAEE" fill-rule="nonzero" points="19.2898281 15.1964589 1.21349024 17.4800762 2.79468337 17.6017443 19.1139757 15.5407748"></polygon>
                    <polygon id="Shape" fill="#F9F9FC" fill-rule="nonzero" points="24.2127079 24.0757696 19.2898281 15.1964589 19.1139757 15.5412674 23.5570792 23.5531385"></polygon>
                    <path d="M41.4255468,7.45255324 C38.5097796,4.42780112 34.8458428,2.22807952 30.8054458,1.07655201 L33.0910334,19.1533824 L41.4255468,7.45206065 L41.4255468,7.45255324 Z" id="Shape" fill="url(#linearGradient-3)" fill-rule="nonzero"></path>
                    <path d="M30.8059384,1.0770446 L33.0905408,19.153875 L33.3033369,18.3026907 L31.1566579,1.17900939 C31.0384379,1.14452854 30.9231733,1.11004769 30.8069236,1.07655201 L30.8059384,1.0770446 Z" id="Shape" fill="#8F88C0" fill-rule="nonzero"></path>
                    <path d="M41.1999435,7.22300931 L33.3018592,18.3026907 L33.0900483,19.153875 L41.4260393,7.4535384 C41.3511666,7.37472504 41.276294,7.29788201 41.1994509,7.22300931 L41.1999435,7.22300931 Z" id="Shape" fill="#A59FCE" fill-rule="nonzero"></path>
                    <path d="M41.4255468,7.45255324 C38.5097796,4.42780112 34.8458428,2.22807952 30.8054458,1.07655201 L31.2403971,1.87453733 C34.8686243,3.0157458 38.1598373,5.03320827 40.8231171,7.74859594 L41.4250542,7.45206065 L41.4255468,7.45255324 Z" id="Shape" fill="url(#linearGradient-4)" fill-rule="nonzero"></path>
                    <path d="M33.0900483,19.153875 L41.4255468,7.45255324 C44.3394938,10.4772187 46.4098094,14.2127883 47.43014,18.286928 L33.0910334,19.153875 L33.0900483,19.153875 Z" id="Shape" fill="url(#linearGradient-5)" fill-rule="nonzero"></path>
                    <path d="M41.4265319,7.4535384 L33.0900483,19.153875 L33.7368104,18.7957668 L41.6496723,7.68948591 C41.5757847,7.61067255 41.5018972,7.53185918 41.4265319,7.45403099 L41.4265319,7.4535384 Z" id="Shape" fill="#ED6F50" fill-rule="nonzero"></path>
                    <path d="M47.3493563,17.9697042 L33.7363178,18.7952742 L33.0900483,19.153875 L47.43014,18.286928 C47.4040331,18.1810225 47.376941,18.0751171 47.3493563,17.9697042 L47.3493563,17.9697042 Z" id="Shape" fill="#A62714" fill-rule="nonzero"></path>
                    <path d="M46.6981609,18.0071405 C45.707096,14.3538518 43.8449637,10.9953541 41.2713681,8.21950579 L41.424069,7.45255324 C44.3381317,10.4772857 46.4087546,14.2127967 47.4296474,18.286928 L46.6976683,18.0076331 L46.6981609,18.0071405 Z" id="Shape" fill="url(#linearGradient-6)" fill-rule="nonzero"></path>
                    <path d="M33.0900483,19.153875 L47.4306326,18.286928 C48.41777,22.2305517 48.4108738,26.4815476 47.2099552,30.6714631 L33.0900483,19.153875 Z" id="Shape" fill="url(#linearGradient-7)" fill-rule="nonzero"></path>
                    <path d="M47.4306326,18.286928 L33.0905408,19.153875 L33.9249773,19.4218404 L47.506983,18.6016889 C47.4823539,18.496276 47.4577247,18.3908631 47.4311252,18.2864354 L47.4306326,18.286928 Z" id="Shape" fill="#D1CEE8" fill-rule="nonzero"></path>
                    <path d="M47.2099552,30.6714631 C47.2429583,30.5581689 47.273991,30.4448747 47.303546,30.3325657 L33.9249773,19.4218404 L33.0905408,19.153875 L47.2104477,30.6714631 L47.2099552,30.6714631 Z" id="Shape" fill="#F3F2F9" fill-rule="nonzero"></path>
                    <path d="M46.760719,29.892196 C47.745886,26.0835401 47.7261827,22.2374479 46.8607134,18.6450362 L47.4306326,18.286928 C48.41777,22.2305517 48.4108738,26.4795773 47.2099552,30.6714631 L46.760719,29.892196 Z" id="Shape" fill="url(#linearGradient-8)" fill-rule="nonzero"></path>
                    <path d="M7.58899887,6.86194558 C4.66108237,9.68444921 2.41490147,13.2911458 1.21349024,17.4805688 L19.2898281,15.1969515 L7.58850629,6.86243817 L7.58899887,6.86194558 Z" id="Shape" fill="url(#linearGradient-9)" fill-rule="nonzero"></path>
                    <path d="M1.21349024,17.4800762 L19.2898281,15.1959663 L18.4376586,14.9841554 L1.31545503,17.1318196 C1.28097418,17.2480693 1.24649333,17.3633339 1.21349024,17.4800762 L1.21349024,17.4800762 Z" id="Shape" fill="#FFCB00" fill-rule="nonzero"></path>
                    <path d="M7.35846978,7.08656367 L18.4381511,14.9841554 L19.2903206,15.1959663 L7.59146179,6.861453 C7.51264843,6.9363257 7.43629798,7.01070581 7.35846978,7.08705626 L7.35846978,7.08656367 Z" id="Shape" fill="#FFDD00" fill-rule="nonzero"></path>
                    <path d="M7.58801371,6.86194558 C4.56422008,9.77754806 2.36520979,13.4409225 1.21398282,17.4805688 L2.01049039,17.0480804 C3.15186472,13.420072 5.16930958,10.1290569 7.88454899,7.46585299 L7.58801371,6.86194558 L7.58801371,6.86194558 Z" id="Shape" fill="#FFF8C7" fill-rule="nonzero"></path>
                    <path d="M19.2898281,15.1964589 L7.58899887,6.86194558 C10.6134296,3.94820375 14.3486259,1.87790673 18.4223885,0.857352343 L19.2893355,15.1964589 L19.2898281,15.1964589 Z" id="Shape" fill="url(#linearGradient-10)" fill-rule="nonzero"></path>
                    <path d="M7.59146179,6.86194558 L19.2903206,15.1964589 L18.9331976,14.5521597 L7.82642414,6.63831266 C7.7466256,6.71220019 7.66879741,6.78608772 7.59146179,6.86194558 L7.59146179,6.86194558 Z M18.107135,0.93912121 L18.9336902,14.5521597 L19.2908132,15.1964589 L18.4238662,0.857352343 L18.1076276,0.938628626 L18.107135,0.93912121 Z" id="Shape" fill="#E53121" fill-rule="nonzero"></path>
                    <path d="M18.1450639,1.58933147 C14.4904362,2.5796084 11.1306396,4.4418049 8.3539811,7.01612423 L7.58801371,6.86194558 C10.6129544,3.94837098 14.3484187,1.87811364 18.4223885,0.857352343 L18.1445714,1.58982405 L18.1450639,1.58933147 Z" id="Shape" fill="url(#linearGradient-11)" fill-rule="nonzero"></path>
                    <path d="M19.2898281,15.1964589 L18.422881,0.857352343 C22.36749,-0.130277636 26.6165155,-0.12387405 30.806431,1.07802977 L19.2898281,15.1964589 L19.2898281,15.1964589 Z" id="Shape" fill="url(#linearGradient-12)" fill-rule="nonzero"></path>
                    <path d="M18.4223885,0.85685976 L19.2893355,15.1959663 L19.5582861,14.3615298 L18.7376419,0.781001896 C18.6327216,0.805631073 18.5268162,0.830260249 18.4223885,0.856367176 L18.4223885,0.85685976 Z" id="Shape" fill="#1E398E" fill-rule="nonzero"></path>
                    <path d="M30.8059384,1.0770446 C30.6939569,1.04526346 30.5818105,1.01406608 30.4695039,0.983453727 L19.5587787,14.3620224 L19.2898281,15.1959663 L30.806431,1.07753718 L30.8059384,1.0770446 Z" id="Shape" fill="#2F2482" fill-rule="nonzero"></path>
                    <path d="M30.0286416,1.52677336 C26.2190006,0.5416063 22.3738935,0.561309642 18.7809893,1.4267789 L18.422881,0.857352343 C22.3684751,-0.130277636 26.6165155,-0.12387405 30.806431,1.07802977 L30.0291342,1.52628078 L30.0286416,1.52677336 Z" id="Shape" fill="url(#linearGradient-13)" fill-rule="nonzero"></path>
                    <path d="M6.9988838,40.6980009 C9.91405929,43.7226186 13.5772813,45.9224891 17.6170144,47.0744947 L15.3333971,28.9966791 L6.9988838,40.6980009 Z" id="Shape" fill="#2B2B85" fill-rule="nonzero"></path>
                    <path d="M17.6170144,47.0744947 L15.3333971,28.9966791 L15.1215862,29.8488486 L17.2682653,46.9720373 C17.3850075,47.0075033 17.5007647,47.040999 17.6170144,47.0744947 Z" id="Shape" fill="#24236F" fill-rule="nonzero"></path>
                    <polygon id="Shape" fill="#5B549F" fill-rule="nonzero" points="7.22448706 40.9280374 15.1206011 29.8488486 15.3333971 28.9966791 6.9988838 40.6980009 7.22399448 40.9280374"></polygon>
                    <path d="M6.9988838,40.6989861 C9.91432367,43.7232716 13.5774502,45.9230848 17.6170144,47.0754799 L17.1835409,46.2774945 C13.5554259,45.1355388 10.26431,43.1177975 7.60082088,40.4024508 L6.9988838,40.6989861 L6.9988838,40.6989861 Z" id="Shape" fill="url(#linearGradient-14)" fill-rule="nonzero"></path>
                    <path d="M15.3333971,28.9966791 L6.9988838,40.6980009 C4.08513806,37.6736137 2.01454458,33.9386653 0.993305398,29.8651039 L15.3333971,28.9971717 L15.3333971,28.9966791 Z" id="Shape" fill="url(#linearGradient-15)" fill-rule="nonzero"></path>
                    <path d="M6.9988838,40.6980009 L15.3333971,28.9971717 L14.6881127,29.3547873 L6.77426571,40.462546 C6.84815324,40.5413593 6.92351852,40.6201727 6.9988838,40.6989861 L6.9988838,40.6980009 Z" id="Shape" fill="#B0AAD4" fill-rule="nonzero"></path>
                    <path d="M1.07605943,30.1798648 L14.6881127,29.3542948 L15.3333971,28.9971717 L0.994290565,29.8641187 C1.01990491,29.9715019 1.04748959,30.0759296 1.07605943,30.1803573 L1.07605943,30.1798648 Z" id="Shape" fill="#DAD8ED" fill-rule="nonzero"></path>
                    <path d="M1.72577711,30.1443987 C2.71654892,33.7980976 4.57870815,37.1569819 7.15256987,39.9330187 L6.9988838,40.6989861 C4.08521212,37.6741578 2.01464372,33.9389149 0.993305398,29.8651039 L1.72577711,30.1439062 L1.72577711,30.1443987 Z" id="Shape" fill="url(#linearGradient-16)" fill-rule="nonzero"></path>
                    <path d="M15.3333971,28.9966791 L0.993305398,29.8651039 C0.006660586,25.920495 0.0130641719,21.6704843 1.21398282,17.4805688 L15.3333971,28.9971717 L15.3333971,28.9966791 Z" id="Shape" fill="#E53121" fill-rule="nonzero"></path>
                    <path d="M0.993305398,29.8636261 L15.3333971,28.9966791 L14.4989606,28.7296988 L0.918432701,29.550343 C0.942076711,29.6552633 0.967691054,29.7591984 0.993305398,29.8641187 L0.993305398,29.8636261 Z" id="Shape" fill="#CA2D0A" fill-rule="nonzero"></path>
                    <path d="M1.21398282,17.4800762 C1.18245747,17.5933704 1.14994696,17.7056794 1.12039195,17.8174959 L14.4989606,28.7296988 L15.3333971,28.9971717 L1.21398282,17.4805688 L1.21398282,17.4800762 Z M1.663219,18.2583581 C0.678051938,22.0679992 0.69775528,25.9131062 1.56273196,29.5069957 L0.993305398,29.8651039 C-0.0264105257,25.7900385 0.0495518357,21.517793 1.21349024,17.4815539 L1.66371158,18.2583581 L1.663219,18.2583581 Z" id="Shape" fill="#ED6F50" fill-rule="nonzero"></path>
                    <path d="M40.8349391,41.2886085 C43.8591657,38.3735725 46.0585499,34.7104813 47.2099552,30.6709705 L29.1336173,32.9536026 L40.8349391,41.288116 L40.8349391,41.2886085 Z" id="Shape" fill="url(#linearGradient-17)" fill-rule="nonzero"></path>
                    <path d="M47.2104477,30.6714631 L29.1341099,32.9545878 L29.9852943,33.1663987 L47.1074978,31.0202123 C47.1419786,30.9039625 47.1764595,30.7877128 47.2099552,30.6714631 L47.2104477,30.6714631 Z" id="Shape" fill="#7B73B3" fill-rule="nonzero"></path>
                    <path d="M41.0649756,41.0634979 L29.9857868,33.1659061 L29.1336173,32.9540952 L40.8349391,41.2905789 C40.9112896,41.2157062 40.98764,41.1388631 41.0649756,41.0639904 L41.0649756,41.0634979 Z" id="Shape" fill="#D1CEE8" fill-rule="nonzero"></path>
                    <path d="M40.8349391,41.2905789 C43.7628556,38.4680752 46.0090365,34.8599009 47.2099552,30.670478 L46.4134476,31.1039515 C45.2717038,34.7321339 43.2537352,38.0231755 40.5379112,40.6861789 L40.8349391,41.2910715 L40.8349391,41.2905789 Z" id="Shape" fill="#655EA5" fill-rule="nonzero"></path>
                    <path d="M29.1336173,32.9540952 L40.8349391,41.2886085 C37.8100546,44.2017363 34.0750318,46.2719371 30.0015495,47.2932018 L29.1336173,32.9540952 L29.1336173,32.9540952 Z" id="Shape" fill="url(#linearGradient-18)" fill-rule="nonzero"></path>
                    <path d="M40.8344465,41.2905789 L29.1336173,32.9540952 L29.4917256,33.5993796 L40.5975138,41.5137192 C40.6773124,41.4413094 40.7566183,41.3659442 40.8349391,41.2910715 L40.8344465,41.2905789 Z M30.316803,47.2124181 L29.4917256,33.5998722 L29.1336173,32.9545878 L30.0005644,47.2936944 C30.1069624,47.2670949 30.2123753,47.2395102 30.316803,47.2124181 Z" id="Shape" fill="#E53121" fill-rule="nonzero"></path>
                    <path d="M30.2808444,46.5607301 C33.9345553,45.570248 37.2934687,43.7082416 40.0694643,41.1344299 L40.8349391,41.2905789 C37.8095329,44.2030005 34.0747095,46.2730908 30.0015495,47.2951721 L30.2808444,46.5612227 L30.2808444,46.5607301 Z" id="Shape" fill="url(#linearGradient-19)" fill-rule="nonzero"></path>
                    <path d="M29.1336173,32.9540952 L30.0015495,47.2932018 C26.0569406,48.2798466 21.8069299,48.273443 17.6165218,47.0744947 L29.1331248,32.9540952 L29.1336173,32.9540952 Z" id="Shape" fill="url(#linearGradient-20)" fill-rule="nonzero"></path>
                    <path d="M30.0005644,47.2941869 L29.1336173,32.9550804 L28.8646667,33.7885317 L29.6872812,47.3700448 C29.7907238,47.3454156 29.8956441,47.3188161 30.0005644,47.2941869 L30.0005644,47.2941869 Z" id="Shape" fill="#F5B0AC" fill-rule="nonzero"></path>
                    <polygon id="Shape" fill="#FAD9D5" fill-rule="nonzero" points="17.6170144 47.0744947 17.9549267 47.1680856 28.8656519 33.7880391 29.1341099 32.9540952 17.6165218 47.0744947"></polygon>
                    <path d="M18.3952964,46.6242733 C22.20543,47.6094404 26.0510296,47.5897371 29.6434413,46.725253 L30.0020421,47.2951721 C25.9272249,48.314149 21.6554913,48.2381897 17.6194773,47.0749873 L18.395789,46.6247659 L18.3952964,46.6242733 Z" id="Shape" fill="url(#linearGradient-21)" fill-rule="nonzero"></path>
                </g>
                <path d="M67.7876322,20.7882672 C65.7512918,20.2119444 65.2838301,19.3252941 65.2838301,18.1549156 L65.2853078,17.0007924 C65.2853078,16.0762131 65.8099093,15.3368452 66.5039595,15.0787315 C67.0374274,14.8797277 67.6334535,14.8447543 68.6861045,14.8447543 L77.9013572,14.8447543 C78.1387825,14.8447543 78.3299049,14.6491986 78.3323678,14.4073401 L78.3353233,12.3074565 C78.3353233,11.3518445 78.3106941,10.4218468 77.3856222,9.71646714 C76.8718576,9.32437065 76.028062,8.97365118 74.7916774,8.72982233 C73.4538205,8.46678272 71.3288152,8.27171965 68.4895637,8.27171965 C63.9026258,8.27171965 61.3347879,9.20073219 59.5718314,11.2173692 C59.1432838,11.7099527 57.6891772,13.7985069 57.6891772,17.0436472 C57.6891772,18.5657303 57.6852365,19.0721061 57.7064176,19.4031223 C58.0285672,24.4225484 61.3761649,25.8362632 64.7355846,26.7046879 C65.5867689,26.9229025 69.7254558,28.0479632 69.8377648,28.078996 C71.8745977,28.6553187 72.3957511,29.5429543 72.3957511,30.7128401 L72.3947659,32.0181865 C72.3947659,32.9442435 71.8145025,33.6831188 71.1219301,33.9402474 C70.5879695,34.1392512 69.8421981,34.1717617 68.7895471,34.1717617 L58.0778256,34.1732394 C57.8395365,34.1786221 57.6499659,34.3747827 57.6526963,34.6131165 L57.6526963,35.6859635 C57.7009992,37.531674 57.9433503,38.8517978 59.1511651,39.7039673 C60.1043142,40.3763438 61.9096329,41.2979676 67.7910802,41.2979676 L68.444246,41.2979676 C71.8125322,41.1797476 73.9828552,40.7157339 75.4354841,40.0468055 C76.7393527,39.4468387 77.4368509,38.8380055 78.062432,38.1464182 C78.8387437,37.2853822 80.0475436,35.2623416 80.185467,32.5230846 C80.2051704,32.1487211 80.2002445,30.1010514 80.185467,29.8670742 C79.8643026,24.8491258 76.446758,23.0812435 73.0863532,22.2133113 C72.2386169,21.9946042 67.8999412,20.8197925 67.7876322,20.7882672 Z M109.882836,8.69337115 L105.948078,8.69337115 C104.507764,8.69337115 104.191525,9.03719445 104.19054,10.4445056 L104.19054,26.2721996 L103.990551,26.2707219 C103.053657,24.9308947 95.146214,13.5472893 93.3527174,10.9971843 C92.3685355,9.59824709 91.0602336,8.69337115 89.0194601,8.6918934 L86.2777401,8.6918934 C86.0344039,8.6918934 85.8363853,8.88892681 85.8363853,9.13275566 L85.8363853,39.1310927 C85.8378631,40.5388964 86.1545943,40.8827197 87.5949085,40.8827197 L91.534099,40.8827197 C92.9753984,40.8827197 93.2906519,40.5398816 93.291637,39.1320778 L93.291637,23.275814 L93.5073886,23.2807398 L104.416143,38.8577088 C105.399833,40.0990193 106.778574,40.8832123 108.479958,40.8832123 L111.199019,40.8832123 C111.442848,40.8832123 111.639881,40.6861789 111.639881,40.44235 L111.639881,10.444013 C111.639881,9.03670187 111.32315,8.69287857 109.882836,8.69287857 L109.882836,8.69337115 Z M139.89792,29.8680594 C139.575771,24.8486332 136.158226,23.0812435 132.797821,22.2133113 C131.948115,21.9941116 127.609439,20.8192999 127.497623,20.7877746 C125.459805,20.2114518 124.993328,19.3248015 124.993328,18.154423 L124.994313,17.0002998 C124.994313,16.0757205 125.518422,15.3363526 126.213457,15.0782389 C126.74791,14.8792351 127.343444,14.8442617 128.395602,14.8442617 L137.61184,14.8442617 C137.84828,14.8442617 138.040388,14.648706 138.043343,14.4068475 C138.042358,14.368426 138.045314,12.4291246 138.045314,12.3069639 C138.045314,11.3513519 138.019207,10.4213542 137.095613,9.71597456 C136.581848,9.32387807 135.738052,8.97315859 134.501668,8.72932975 C133.164304,8.46629014 131.038806,8.27122706 128.199554,8.27122706 C123.612616,8.27122706 121.045763,9.2002396 119.281822,11.2168766 C118.853274,11.7094601 117.399168,13.7980143 117.399168,17.0431546 C117.399168,18.5652377 117.395227,19.0716136 117.416408,19.4026297 C117.73905,24.4220559 121.087141,25.8357706 124.44656,26.7041954 C125.297252,26.9224099 129.436431,28.0474707 129.547263,28.0785034 C131.584096,28.6548261 132.106234,29.5424617 132.106234,30.7123476 L132.105249,32.0176939 C132.105249,32.9437509 131.524986,33.6826262 130.832413,33.9397548 C130.297467,34.1387586 129.552681,34.1712691 128.500523,34.1712691 L117.788801,34.1727469 C117.550745,34.1781317 117.361601,34.3745334 117.365179,34.6126239 C117.363702,35.185006 117.365179,34.8022686 117.365179,35.6854709 C117.41296,37.5311814 117.655804,38.8513052 118.862633,39.7034747 C119.816275,40.3758513 121.622086,41.297475 127.502548,41.297475 L128.156207,41.297475 C131.524493,41.179255 133.694816,40.7152413 135.14843,40.0463129 C136.451806,39.4463461 137.149304,38.8375129 137.7739,38.1459256 C138.551197,37.2848896 139.76049,35.261849 139.89792,32.522592 C139.917624,32.1482285 139.912698,30.1005588 139.898906,29.8675668 L139.89792,29.8680594 Z" id="Shape" fill="#FFFFFF" fill-rule="nonzero"></path>
            </g>
        </g>
    </g>
</svg>