<?xml version="1.0" encoding="UTF-8"?>
<svg width="233px" height="80px" viewBox="0 0 233 80" version="1.1" xmlns="http://www.w3.org/2000/svg" xmlns:xlink="http://www.w3.org/1999/xlink">
    <title>Artboard</title>
    <g id="Artboard" stroke="none" stroke-width="1" fill="none" fill-rule="evenodd">
        <g id="Issuer-/-Van-Lanschot-(white)" transform="translate(0.000000, -77.000000)" fill="#FFFFFF">
            <g id="Logo-Van-Lanschot" transform="translate(0.000000, 89.316667)">
                <path d="M24.3895512,0.0640621282 L2.54862315,0.0640621282 C2.54862315,0.0640621282 0,0.0640621282 0,2.27286886 L0,52.5811452 C0.0173955022,53.2222819 0.303322565,53.8266219 0.788000829,54.2466764 C1.27267909,54.6667309 1.91152305,54.8638591 2.54862315,54.789952 L12.0634829,54.789952 L12.0634829,44.6881366 C12.0712364,44.626595 12.0712364,44.5643237 12.0634829,44.5027822 C12.0634829,44.2247506 12.0634829,43.8540417 11.8317899,43.7150259 L10.8123406,43.0508393 C9.55781678,42.2231037 8.42896701,41.2191037 7.46051504,40.0697225 C6.39146166,38.6813794 5.67584556,37.0540154 5.37527792,35.3277388 C5.1463781,34.1328597 5.27533786,32.8969953 5.74598674,31.7751126 C5.93439055,31.3823997 6.1847261,31.0225424 6.48740439,30.7093247 C6.79345081,30.3805746 6.84391468,29.8885519 6.61097399,29.5045211 C6.30725069,28.8716571 6.05417015,28.2157136 5.85411015,27.5428536 C5.678517,26.8941624 5.62612427,26.2182962 5.69964814,25.5502936 C5.75349406,24.8798818 6.02465837,24.2453573 6.47195818,23.7430881 C6.84266701,23.3569331 7.30605303,23.2951483 7.59953085,22.6773003 C7.22784185,21.5975775 7.02465963,20.4670508 6.99712902,19.3254747 C6.96876538,18.8073883 7.01032906,18.2878423 7.12069862,17.7808546 C7.32859428,17.1475014 7.82880393,16.6530413 8.4645181,16.4524813 C8.71165732,16.3134655 8.97424273,16.2516807 9.22138195,16.1281111 C9.46852116,16.0045415 9.51485977,15.9118643 9.51485977,15.3712472 C9.51485977,12.9616399 9.83922998,10.737387 11.0594799,9.50169089 C11.673442,8.97226214 12.4765453,8.71571525 13.2837328,8.79116565 C14.1128476,8.74492072 14.9256682,9.03441849 15.5388781,9.59436809 C16.8826976,10.7837256 17.2070678,13.0543171 17.2070678,15.4639244 C17.2070678,16.0045415 17.2070678,16.0817725 17.531438,16.2207883 L18.3191943,16.5451585 C18.9719207,16.7399101 19.4935097,17.2328404 19.7247986,17.8735318 C19.8523931,18.3778198 19.8941669,18.8999924 19.8483682,19.4181519 C19.8170991,20.5606666 19.6086683,21.6914036 19.2305201,22.7699775 C19.523998,23.3878255 20.0182764,23.4496103 20.4044314,23.8512115 C20.8594932,24.3349135 21.1465638,24.952386 21.2230801,25.6120784 C21.2985859,26.2860807 21.2408552,26.9683522 21.0531719,27.6200846 C20.8497979,28.2912475 20.5861385,28.9426413 20.2654156,29.5663059 C20.0151919,29.946275 20.0668401,30.4498449 20.3889852,30.7711096 C20.7067004,31.0785327 20.9680897,31.4392499 21.1612953,31.8368974 C21.6775274,32.9287671 21.8395443,34.1546948 21.6246813,35.343185 C21.2936779,37.0886415 20.5227981,38.7207801 19.3849822,40.0851687 C18.3657944,41.2380928 17.1847309,42.237054 15.8786945,43.0508393 L14.8592453,43.7304721 C14.6738909,43.8694879 14.6893371,44.2247506 14.6275523,44.5027822 C14.6197988,44.5643237 14.6197988,44.626595 14.6275523,44.6881366 L14.6275523,54.789952 L24.4667823,54.789952 C24.4667823,54.789952 27.0154054,54.789952 27.0154054,52.5811452 L27.0154054,2.27286886 C27.000541,1.61634668 26.7040609,0.99792248 26.2015211,0.575197857 C25.6989813,0.152473234 25.0389206,-0.0337222682 24.3895512,0.0640621282 L24.3895512,0.0640621282 Z" id="Shape" fill-rule="nonzero"></path>
                <g id="Group" transform="translate(38.615502, 7.723100)" fill-rule="nonzero">
                    <path d="M0.772310046,1.00628038 L4.63386028,1.00628038 L10.7042172,16.4524813 L16.7436818,1.00628038 L20.5743396,1.00628038 L12.2642835,21.2562498 L9.17504335,21.2562498 L0.772310046,1.00628038 Z M30.8924018,21.117234 L30.8924018,19.2482437 C29.6764151,20.6811008 27.8743901,21.4826324 25.9959561,21.426158 C23.1229628,21.426158 20.5897858,19.7888607 20.5897858,16.7922977 C20.5897858,13.4404721 23.21564,11.818621 26.7682662,11.818621 C28.1931856,11.7918734 29.6127407,12.0006315 30.9696328,12.4364691 L30.9696328,12.1429912 C30.9696328,10.0577541 29.6567058,8.89928905 27.2316522,8.89928905 C25.7323036,8.89790482 24.2508295,9.22477811 22.8912698,9.85695351 L21.9027129,7.06119114 C23.7417718,6.17216248 25.7605456,5.71767414 27.8031617,5.73281787 C32.2825599,5.73281787 34.4759204,8.09608661 34.4759204,12.1429912 L34.4759204,21.1326802 L30.8924018,21.117234 Z M30.985079,14.7688454 C29.8677588,14.3558611 28.6854309,14.1465995 27.4942376,14.1509974 C25.3163233,14.1509974 24.0188424,15.046877 24.0188424,16.4988199 C24.0188424,17.9353166 25.3163233,18.738519 26.9536206,18.738519 C29.2551045,18.738519 30.985079,17.4410382 30.985079,15.5566016 L30.985079,14.7688454 Z M38.6155023,5.94906468 L42.0908975,5.94906468 L42.0908975,8.29688722 C43.0917543,6.62668273 44.9012551,5.61030729 46.8483274,5.62454372 C50.2619378,5.62454372 52.2544977,7.9261784 52.2544977,11.4633584 L52.2544977,21.117234 L48.7018715,21.117234 L48.7018715,12.4982539 C48.7018715,10.1349851 47.5279602,8.79116565 45.4581693,8.79116565 C44.4800791,8.75622402 43.5359745,9.1525057 42.875846,9.87507871 C42.2157176,10.5976517 41.9061495,11.5736335 42.0291127,12.5445925 L42.0291127,21.117234 L38.6155023,21.117234 L38.6155023,5.94906468 Z M65.4301071,1.00628038 L68.9672871,1.00628038 L68.9672871,17.888978 L79.5633809,17.888978 L79.5633809,21.117234 L65.4455533,21.117234 L65.4301071,1.00628038 Z M92.1211423,21.117234 L92.1211423,19.2482437 C90.9051555,20.6811008 89.1031305,21.4826324 87.2246966,21.426158 C84.3517032,21.426158 81.8185263,19.7888607 81.8185263,16.7922977 C81.8185263,13.4404721 84.4443804,11.818621 87.9970066,11.818621 C89.421926,11.7918734 90.8414811,12.0006315 92.1983733,12.4364691 L92.1983733,12.1429912 C92.1983733,10.0577541 90.87,8.89928905 88.4603927,8.89928905 C86.961044,8.89790482 85.4795699,9.22477811 84.1200102,9.85695351 L83.1314533,7.06119114 C84.9413233,6.22672578 86.9155993,5.80969956 88.9083325,5.84094127 C93.403177,5.84094127 95.5810913,8.20421001 95.5810913,12.2511147 L95.5810913,21.2408036 L92.1211423,21.117234 Z M92.2138195,14.7688454 C91.0961511,14.3571473 89.9140568,14.1479271 88.7229781,14.1509641 C86.5450637,14.1509641 85.2475829,15.046877 85.2475829,16.4988199 C85.2475829,17.9353166 86.5450637,18.738519 88.182361,18.738519 C90.483845,18.738519 92.2138195,17.4410382 92.2138195,15.5566016 L92.2138195,14.7688454 Z M99.7052269,5.94906468 L103.196068,5.94906468 L103.196068,8.29688722 C104.189596,6.62681085 105.994853,5.60951595 107.938052,5.62469446 C111.367109,5.62469446 113.344222,7.9261784 113.344222,11.4633584 L113.344222,21.117234 L109.868827,21.117234 L109.868827,12.4982539 C109.868827,10.1349851 108.67947,8.79116565 106.609679,8.79116565 C105.63321,8.76156422 104.692419,9.15944799 104.033503,9.88069455 C103.374586,10.6019411 103.063124,11.5747668 103.180622,12.5445925 L103.180622,21.117234 L99.7052269,21.117234 L99.7052269,5.94906468 Z M116.309893,19.1092279 L117.854513,16.7614053 C119.272631,17.8954191 121.0142,18.5498596 122.82819,18.6303956 C124.37281,18.6303956 125.191458,18.0125476 125.191458,16.9930983 C125.191458,15.8191871 123.646838,15.4484782 121.793294,14.8615226 C119.553595,14.2591208 117.051311,13.3169025 117.051311,10.4130167 C117.051311,7.54002337 119.430025,5.77915647 122.457481,5.77915647 C124.443132,5.81217225 126.377914,6.41243703 128.033559,7.50913097 L126.658848,9.84150731 C125.381063,9.00033385 123.906761,8.50535161 122.38025,8.40501062 C121.020984,8.40501062 120.248674,9.02285866 120.248674,9.94963072 C120.248674,11.046311 121.885971,11.4942508 123.677731,12.0812064 C125.886537,12.7762855 128.311591,13.7802885 128.311591,16.4988199 C128.311591,19.6807373 125.871091,21.271696 122.673728,21.271696 C120.374736,21.2561217 118.142412,20.4975649 116.309893,19.1092279 L116.309893,19.1092279 Z M131.107353,13.6103803 C131.070193,11.5294996 131.864501,9.51973335 133.314234,8.02650854 C134.763967,6.53328374 136.749384,5.6799335 138.830454,5.65558686 L139.015808,5.65558686 C141.327644,5.56245258 143.554184,6.53620807 145.055273,8.29688722 L142.892805,10.6292636 C141.963775,9.42046239 140.53979,8.69428723 139.015808,8.65214984 C137.791409,8.69564358 136.636531,9.23202396 135.813405,10.1394983 C134.990279,11.0469726 134.568751,12.2485388 134.644533,13.4713645 C134.572233,14.7451707 135.028334,15.9924291 135.905311,16.9191011 C136.782287,17.8457732 138.002539,18.3698604 139.278394,18.3678102 C140.800296,18.3174877 142.230405,17.6276703 143.217175,16.4679275 L145.194289,18.5995032 C143.066764,21.1707478 139.55837,22.137011 136.41439,21.0176159 C133.270409,19.8982207 131.162094,16.9321619 131.138246,13.5949341 L131.107353,13.6103803 Z M148.36076,0.141293133 L151.836155,0.141293133 L151.836155,8.29688722 C152.837012,6.62668273 154.646513,5.61030729 156.593585,5.62469446 C160.007195,5.62469446 161.999755,7.9261784 161.999755,11.4633584 L161.999755,21.117234 L158.508914,21.117234 L158.508914,12.4982539 C158.508914,10.1349851 157.335003,8.79116565 155.265212,8.79116565 C154.287121,8.75622402 153.343017,9.1525057 152.682888,9.87507871 C152.02276,10.5976517 151.713192,11.5736335 151.836155,12.5445925 L151.836155,21.117234 L148.36076,21.117234 L148.36076,0.141293133 Z M165.367027,13.6103803 C165.367027,9.14029309 168.990749,5.51657153 173.460836,5.51657153 C177.930924,5.51657153 181.554646,9.14029309 181.554646,13.6103803 C181.546496,15.717319 180.699562,17.7342591 179.201051,19.2153801 C177.702539,20.696501 175.67585,21.5198333 173.56896,21.503389 L173.414498,21.503389 C171.33324,21.5573315 169.315863,20.7819345 167.806518,19.3479119 C166.297173,17.9138892 165.419607,15.9388121 165.367027,13.8575195 L165.367027,13.6103803 Z M178.07925,13.6103803 C178.150681,12.3629637 177.715339,11.1395625 176.87197,10.2176732 C176.028602,9.29578401 174.848684,8.75353983 173.599852,8.71393316 L173.414498,8.71393316 C172.152722,8.7129248 170.945097,9.22649476 170.070549,10.1360245 C169.196002,11.0455542 168.730166,12.2723834 168.780637,13.5331493 C168.713475,14.783179 169.154923,16.0072027 170.004499,16.9266073 C170.854076,17.8460119 172.039494,18.3825696 173.290928,18.4141488 L173.414498,18.4141488 C174.678839,18.4234295 175.892067,17.9156691 176.772894,17.0085923 C177.653721,16.1015155 178.125645,14.873904 178.07925,13.6103803 L178.07925,13.6103803 Z M185.817797,16.9158673 L185.817797,8.93018146 L183.887022,8.93018146 L183.887022,5.94906468 L185.817797,5.94906468 L185.817797,1.77859043 L189.293192,1.77859043 L189.293192,5.94906468 L193.386435,5.94906468 L193.386435,8.93018146 L189.293192,8.93018146 L189.293192,16.3752503 C189.214738,16.8964635 189.387225,17.4240949 189.758406,17.7983183 C190.129587,18.1725416 190.655792,18.3493304 191.177629,18.275133 C191.924679,18.2716424 192.660336,18.0916976 193.324651,17.7499622 L193.324651,20.653848 C192.381549,21.1821613 191.31634,21.4537897 190.235411,21.4416042 C187.640449,21.3798194 185.817797,20.2522467 185.817797,16.9158673 L185.817797,16.9158673 Z" id="Shape"></path>
                </g>
                <g id="Group" transform="translate(45.764816, 36.100049)" fill-rule="nonzero">
                    <path d="M3.66302694,3.76887302 C2.04117585,3.4136104 1.65502082,3.02745538 1.65502082,2.33237634 C1.65502082,1.6681897 2.27286886,1.14301887 3.19964091,1.14301887 C3.97909579,1.1451923 4.73118004,1.43065493 5.31577044,1.94622132 L5.81004887,1.29748088 C5.08327797,0.692355763 4.16038922,0.373739409 3.21508712,0.401601224 C2.62449978,0.332616919 2.03138541,0.508098832 1.57340579,0.887317629 C1.11542616,1.26653643 0.832405757,1.81651643 0.790033571,2.40960734 C0.790033571,3.61441101 1.57778982,4.17047425 3.26142572,4.54118307 C4.94506162,4.91189189 5.17675463,5.25170831 5.17675463,5.93134115 C5.17675463,6.6573126 4.52801419,7.18248343 3.53945733,7.18248343 C2.60924381,7.19575501 1.71287701,6.8338678 1.05261899,6.17848037 L0.527448156,6.7963284 C1.36301156,7.57824034 2.47271672,7.9999283 3.61668834,7.97023967 C5.08407743,7.97023967 6.13441909,7.15159102 6.13441909,5.88500255 C6.05718808,4.72653748 5.30032424,4.12413565 3.66302694,3.76887302 L3.66302694,3.76887302 Z M11.0772034,0.478832228 L11.9112982,0.478832228 L11.9112982,7.84667007 L11.0772034,7.84667007 L11.0772034,0.478832228 Z M22.7545313,6.37928098 L18.1052248,0.478832228 L17.3329148,0.478832228 L17.3329148,7.84667007 L18.1515634,7.84667007 L18.1515634,1.80720551 L22.8935471,7.84667007 L23.5577337,7.84667007 L23.5577337,0.478832228 L22.7545313,0.478832228 L22.7545313,6.37928098 Z M31.4661886,0.478832228 L28.9021192,0.478832228 L28.9021192,7.84667007 L31.4661886,7.84667007 C32.480661,7.91073679 33.4763811,7.55189645 34.2167634,6.85541033 C34.9571457,6.15892421 35.3760984,5.18696566 35.3740774,4.17047425 C35.3850234,3.14985237 34.9693709,2.17100382 34.227404,1.47009441 C33.4854371,0.769185002 32.4845366,0.409866829 31.4661886,0.478832228 L31.4661886,0.478832228 Z M34.5554288,4.18592045 C34.5716533,4.99255108 34.244289,5.76806618 33.6549683,6.31908102 C33.0656476,6.87009586 32.2699121,7.14467916 31.4661886,7.07436002 L29.7362141,7.07436002 L29.7362141,1.25114227 L31.4661886,1.25114227 C32.2742012,1.18515749 33.0722114,1.46548991 33.6614393,2.02231024 C34.2506672,2.57913057 34.5756473,3.36002402 34.5554288,4.17047425 L34.5554288,4.18592045 Z M42.9272697,3.76887302 C41.3054186,3.4136104 40.9347098,3.02745538 40.9347098,2.33237634 C40.9347098,1.6681897 41.5371116,1.14301887 42.4793298,1.14301887 C43.263335,1.14565587 44.0201161,1.43081975 44.6109056,1.94622132 L45.0897378,1.29748088 C44.3706127,0.689540734 43.4513658,0.370281307 42.5102223,0.401601224 C41.9196349,0.332616919 41.3265205,0.508098832 40.8685409,0.887317629 C40.4105613,1.26653643 40.1275409,1.81651643 40.0851687,2.40960734 C40.0851687,3.61441101 40.8574788,4.17047425 42.5565609,4.54118307 C44.255643,4.91189189 44.4718898,5.25170831 44.4718898,5.93134115 C44.4718898,6.6573126 43.8231493,7.18248343 42.8345925,7.18248343 C41.8950113,7.19711837 40.9885473,6.83564498 40.3168617,6.17848037 L39.8071371,6.7963284 C40.6399701,7.58260699 41.7515471,8.00500623 42.8963773,7.97023967 C44.3483202,7.97023967 45.3986618,7.15159102 45.3986618,5.88500255 C45.3677694,4.72653748 44.564567,4.12413565 42.9272697,3.76887302 L42.9272697,3.76887302 Z M58.2962396,1.05034166 L58.4970402,1.7299745 L59.8871983,1.29748088 L59.8871983,7.84667007 L60.7058469,7.84667007 L60.7058469,0.432493626 L60.1034451,0.432493626 L58.2962396,1.05034166 L58.2962396,1.05034166 Z M66.1738021,1.23569607 L70.2207067,1.23569607 L66.8997735,7.84667007 L67.8110994,7.84667007 L71.162925,1.09668027 L71.162925,0.478832228 L66.1738021,0.478832228 L66.1738021,1.23569607 Z M78.4998704,3.66074962 L80.8940315,1.09668027 L80.8940315,0.478832228 L76.2601713,0.478832228 L76.2601713,1.23569607 L79.8591361,1.23569607 L77.5422059,3.84610403 L77.7121141,4.34038246 L78.1755002,4.34038246 C79.39575,4.34038246 80.2452911,4.85010709 80.2452911,5.76143294 C80.1807306,6.56590497 79.5077253,7.18506983 78.700671,7.18248343 C77.7918467,7.28205505 76.8966556,6.90174512 76.3374023,6.17848037 L75.7195542,6.7190974 C76.374295,7.57005191 77.3955968,8.0577522 78.468978,8.03202448 C79.0963033,8.07025096 79.7116962,7.8485205 80.1704755,7.4189628 C80.6292548,6.98940509 80.8909486,6.38991427 80.8940315,5.76143294 C80.8940315,4.38672106 79.7819051,3.76887302 78.4998704,3.66074962 Z M85.7904772,0.478832228 L85.7904772,1.23569607 L89.8373819,1.23569607 L86.5164487,7.84667007 L87.4432207,7.84667007 L90.7796001,1.09668027 L90.7796001,0.478832228 L85.7904772,0.478832228 L85.7904772,0.478832228 Z" id="Shape"></path>
                </g>
            </g>
        </g>
    </g>
</svg>