<?xml version="1.0" encoding="UTF-8"?>
<svg width="159px" height="80px" viewBox="0 0 159 80" version="1.1" xmlns="http://www.w3.org/2000/svg" xmlns:xlink="http://www.w3.org/1999/xlink">
    <title>Artboard</title>
    <g id="Artboard" stroke="none" stroke-width="1" fill="none" fill-rule="evenodd">
        <g id="Issuer-/-RegioBank-(white)" transform="translate(0.000000, -40.000000)" fill="#FFFFFF">
            <g id="Logo-RegioBank" transform="translate(0.000000, 58.666667)">
                <path d="M20.2757797,31.4950516 C18.6637327,27.0553325 17.0975006,23.0706979 16.5434593,21.9276951 C15.5312685,19.7750399 13.7785803,17.6234431 11.2449069,17.1673003 C11.2907219,17.1673003 11.4750471,17.1186168 11.6135575,17.1186168 C16.3122537,16.4783236 18.3419625,13.0461403 18.3419625,9.56527358 C18.3419625,6.59134973 16.6830351,1.92197178 9.03300369,1.92197178 L1.06013667,1.92197178 C0.506095394,1.92197178 0,2.38023122 0,2.92739087 L0,31.7204771 C0,32.2708118 0.507160858,32.7311879 1.06013667,32.7311879 L3.27097444,32.7311879 C3.82922926,32.725422 4.27970613,32.2760748 4.28316523,31.7215355 L4.28316523,18.8616961 L6.45031898,18.8616961 C9.5827831,18.8616961 11.0137012,20.7857507 12.0738379,22.7531971 C13.3630493,25.1344529 14.2388607,28.4290525 15.4375077,31.9988195 C15.6207675,32.5957209 16.0341675,32.7343629 16.5413284,32.7343629 L19.5842936,32.7343629 C20.4132245,32.7343629 20.5517349,32.2284784 20.2747142,31.4982266 L20.2757797,31.4950516 Z M13.963971,10.162175 C13.963971,13.3202493 11.8436977,15.2421873 8.43421293,15.2421873 L4.28316523,15.2421873 L4.28316523,5.72245596 L8.93924286,5.72245596 C12.2560322,5.72245596 13.9618401,7.69096072 13.9618401,10.1632334 L13.963971,10.162175 Z M36.789406,21.6990946 C36.789406,13.2747409 33.1029006,10.300817 28.4042044,10.300817 C23.3347268,10.300817 19.925242,14.6505775 19.925242,21.5615109 C19.925242,29.0704041 23.4732371,32.9597885 29.7861112,32.9597885 C32.4604258,32.9597885 34.0266579,32.5470375 35.5001946,31.9067442 C36.0073555,31.6781437 36.2843761,31.2209426 36.1000508,30.6706079 L35.59289,29.2069294 C35.4085647,28.7031615 35.0388487,28.339094 34.348428,28.5655778 C33.0112707,28.9317621 31.7668088,29.3445131 30.015186,29.3445131 C25.8673347,29.3445131 24.4854279,26.9632573 24.3011026,22.7066303 L35.7761498,22.7066303 C36.3339928,22.7008726 36.7843029,22.2521626 36.7883406,21.6980362 L36.789406,21.6990946 Z M32.5051753,19.545381 L24.3011026,19.545381 C24.7613831,14.7871029 26.8369069,13.6419834 28.5416493,13.6419834 C31.3970928,13.6419834 32.4114145,16.6159073 32.5051753,19.545381 L32.5051753,19.545381 Z M56.7849687,34.7896512 C56.7849687,30.9902254 54.1106541,28.8386285 49.9191187,28.8386285 L46.094103,28.8386285 C44.4341101,28.8386285 43.6968091,28.5634612 43.6968091,27.6035505 C43.6968091,27.0997826 44.0654596,26.5960147 44.527871,26.1853804 C45.2659783,26.3720188 46.0250173,26.4644857 46.7866546,26.4605477 C51.9008818,26.4605477 55.1718562,23.3913737 55.1718562,18.3568698 C55.1718562,16.8011161 54.4793046,15.2876957 53.5129288,13.9616009 L55.0333459,13.7795671 C55.5873872,13.7330003 55.9560377,13.4123245 55.9560377,12.8164814 L55.9560377,11.6279702 C55.9560377,11.0331855 55.5863217,10.5738677 54.9406505,10.5738677 L49.6410326,10.5738677 C48.6714604,10.5738677 47.751965,10.3452671 46.7834582,10.3452671 C41.8535564,10.3452671 38.4888211,13.2281741 38.4888211,18.3568698 C38.4888211,21.3752438 39.7801634,23.663366 41.8066759,24.9947525 C40.7007243,26.0001716 39.779098,27.1907995 39.779098,28.7941784 C39.779098,31.4463681 42.1284461,32.3607703 44.8475102,32.3607703 L49.3181971,32.3607703 C51.8060555,32.3607703 52.7745622,33.3714811 52.7745622,35.2479107 C52.7745622,37.2608655 50.562659,38.4970018 47.751965,38.4970018 C45.5858767,38.4970018 43.1896482,38.0842508 42.8188667,35.658545 C42.7283023,35.0637602 42.3607172,34.7430844 41.8066759,34.697576 L39.5020773,34.6055008 C39.2314822,34.6002689 38.9704138,34.7047387 38.7790379,34.8948343 C38.587662,35.0849299 38.4824885,35.3442517 38.4877556,35.6130365 C38.534636,40.5554651 43.1896482,42.020202 47.6123892,42.020202 C51.8529359,42.020202 56.7828378,40.098264 56.7828378,34.7875345 L56.7849687,34.7896512 Z M50.9302441,18.2616196 C50.9302441,22.3827796 48.9484811,23.2516733 46.8282077,23.2516733 C44.6163045,23.2516733 42.7730518,22.5193049 42.7730518,18.2616196 C42.7730518,14.1870264 44.6163045,13.4567747 46.8282077,13.4567747 C49.0869914,13.4567747 50.9302441,14.2346515 50.9302441,18.2616196 L50.9302441,18.2616196 Z M63.5314867,2.83849066 C63.5314867,1.2827369 62.2870247,0 60.7186617,0 C59.9598496,-0.00365221835 59.2310744,0.294283069 58.6947069,0.827459711 C58.1583395,1.36063635 57.8589413,2.08475808 57.863173,2.83849066 C57.863173,4.4408112 59.1076802,5.72245596 60.7186617,5.72245596 C62.2870247,5.72245596 63.5314867,4.44186953 63.5314867,2.83849066 L63.5314867,2.83849066 Z M62.7963165,31.7204771 L62.7963165,11.5803451 C62.7963165,11.0331855 62.2870247,10.574926 61.7809293,10.574926 L59.7064709,10.574926 C59.1524297,10.574926 58.6463343,11.0331855 58.6463343,11.5824618 L58.6463343,31.7225938 C58.6463343,32.2729285 59.1534951,32.7311879 59.7064709,32.7311879 L61.7809293,32.7311879 C62.2870247,32.7311879 62.795251,32.2718701 62.795251,31.7215355 L62.7963165,31.7204771 Z M82.8046647,21.6535861 C82.8046647,14.6505775 79.39518,10.300817 73.8632909,10.300817 C68.3335328,10.300817 64.8761022,14.6040108 64.8761022,21.6535861 C64.8761022,28.7497283 68.3324674,32.9597885 73.8632909,32.9597885 C79.438864,32.9597885 82.8025338,28.6565947 82.8025338,21.6535861 L82.8046647,21.6535861 Z M78.4256077,21.6535861 C78.4256077,27.1929162 76.6739849,29.4810384 73.7695301,29.4810384 C70.9140866,29.4810384 69.1624638,27.1929162 69.1624638,21.6535861 C69.1624638,16.2063313 70.9140866,13.8261339 73.7705956,13.8261339 C76.6739849,13.8261339 78.4266732,16.2073896 78.4266732,21.6546445 L78.4256077,21.6535861 Z M105.127201,24.0570669 C105.127201,20.0734906 102.915297,16.8709662 98.4893601,16.36614 C102.222746,15.2654707 103.790043,12.9794652 103.790043,9.5451652 C103.790043,5.01337092 100.702329,1.90080506 95.3558305,1.90080506 L86.4165876,1.90080506 C85.8625464,1.90080506 85.3553855,2.35800616 85.3553855,2.90622416 L85.3553855,31.6993104 C85.3553855,32.2475284 85.8636118,32.7068462 86.4165876,32.7068462 L95.8171764,32.7068462 C101.623955,32.7068462 105.126135,29.5487719 105.126135,24.0538919 L105.127201,24.0570669 Z M99.4120519,10.13995 C99.4120519,12.9762902 97.6604291,14.7648778 94.201933,14.7648778 L89.6417471,14.7648778 L89.6417471,5.5584139 L94.5268995,5.5584139 C97.797874,5.5584139 99.4109864,7.20624288 99.4109864,10.136775 L99.4120519,10.13995 Z M100.516938,23.5988075 C100.516938,26.9410322 98.6310668,28.9539871 95.4495913,28.9539871 L89.6428126,28.9539871 L89.6428126,18.1949444 L94.5727145,18.1949444 C98.3092967,18.1949444 100.518004,20.484125 100.518004,23.5966908 L100.516938,23.5988075 Z M123.225172,31.7014271 L122.948151,30.3721572 C122.673262,29.0005539 122.719077,27.7633592 122.719077,26.6203565 L122.719077,18.6542622 C122.719077,14.9458533 122.11922,10.2775336 114.792025,10.2775336 C112.810262,10.2775336 110.551478,10.7802432 109.215386,11.1474857 C108.659214,11.2850694 108.43227,11.7401538 108.571846,12.3370553 L108.936234,14.0303927 C109.074745,14.6262358 109.537156,14.9458533 110.138078,14.7627611 C111.380409,14.4431437 112.763381,13.9838259 114.559753,13.9838259 C117.833924,13.9838259 118.569094,15.2220789 118.569094,17.8763853 L118.569094,18.974938 L113.502813,19.2956138 C109.768362,19.5707811 106.590083,21.4906024 106.590083,26.3885809 C106.590083,30.5055075 108.848866,32.9343884 112.532175,32.9343884 C115.06798,32.9343884 117.465274,32.0199862 118.892995,29.7752558 L119.215831,31.7903273 C119.306395,32.4316788 119.721926,32.7068462 120.275968,32.7068462 L122.396241,32.7068462 C122.996097,32.7068462 123.316802,32.2940952 123.225172,31.6993104 L123.225172,31.7014271 Z M118.569094,25.3831618 C118.569094,27.0764992 116.681092,29.5953387 113.731888,29.5953387 C112.029276,29.5953387 110.827433,28.5899196 110.827433,26.3906976 C110.827433,22.9574559 112.856076,22.1340706 115.667836,22.0409371 L118.569094,21.9499202 L118.569094,25.3831618 L118.569094,25.3831618 Z M141.370024,31.7014271 L141.370024,15.9978391 C141.370024,12.5656558 139.157055,10.2764753 135.701755,10.2764753 C133.258646,10.2764753 131.324829,11.1908775 129.387816,13.4345496 L128.92647,11.3739696 C128.78796,10.7791849 128.466189,10.5484676 127.821584,10.5484676 L126.438611,10.5484676 C125.88457,10.5484676 125.378475,10.9612186 125.378475,11.5115533 L125.378475,31.6993104 C125.378475,32.2475284 125.885636,32.7068462 126.437546,32.7068462 L128.557819,32.7068462 C129.115369,32.7005554 129.565808,32.2531304 129.572141,31.6993104 L129.572141,19.2479887 C129.572141,16.1819896 131.738229,13.8462423 134.545727,13.8462423 C136.434795,13.8462423 137.173161,14.8093279 137.173161,16.9154163 L137.173161,31.7003687 C137.173161,32.2507034 137.681387,32.7079045 138.235429,32.7079045 L140.353571,32.7079045 C140.911775,32.7027467 141.36318,32.2548321 141.368958,31.7003687 L141.370024,31.7014271 Z M159.855824,31.518335 L152.298488,20.0734906 L158.473917,11.6967621 C158.841502,11.1929942 158.612427,10.5516426 157.965691,10.5516426 L155.018617,10.5516426 C154.368684,10.5516426 153.95635,10.8733767 153.680395,11.3305778 L148.103756,19.797265 L148.103756,1.21182839 C148.109024,0.943604863 148.004075,0.684821246 147.813098,0.495122485 C147.622122,0.305423725 147.361595,0.201177001 147.091565,0.20622142 L145.013911,0.20622142 C144.744058,0.201776772 144.483885,0.30621629 144.293042,0.495782473 C144.102199,0.685348656 143.997056,0.943781356 144.001571,1.21182839 L144.001571,31.6993104 C144.001571,32.2475284 144.464131,32.7068462 145.013911,32.7068462 L147.091565,32.7068462 C147.648997,32.7010971 148.099141,32.2530237 148.103756,31.6993104 L148.103756,20.7592923 L154.786346,31.8368941 C155.108116,32.3851121 155.521516,32.7068462 156.029743,32.7068462 L159.303914,32.7068462 C159.948519,32.7068462 160.177594,32.0189278 159.854758,31.5162183 L159.855824,31.518335 Z" id="Shape" fill-rule="nonzero"></path>
            </g>
        </g>
    </g>
</svg>