<?xml version="1.0" encoding="UTF-8"?>
<svg width="201px" height="80px" viewBox="0 0 201 80" version="1.1" xmlns="http://www.w3.org/2000/svg" xmlns:xlink="http://www.w3.org/1999/xlink">
    <title>Artboard</title>
    <g id="Artboard" stroke="none" stroke-width="1" fill="none" fill-rule="evenodd">
        <g id="Issuer-/-ABN-AMRO-(white)" transform="translate(0.000000, -61.000000)">
            <g id="Logo-ABN-Amro" transform="translate(0.000000, 76.212500)">
                <path d="M193.415094,1.89622642 C200.786341,1.89622642 200.993981,7.14303286 200.99983,12.7836913 L200.99983,13.7613859 C200.993981,19.3473786 200.786341,24.6509434 193.415094,24.6509434 C186.043848,24.6509434 185.836207,19.3473786 185.830358,13.7613859 L185.830358,12.7836913 C185.836207,7.14303286 186.043848,1.89622642 193.415094,1.89622642 Z M176.030574,1.89622642 C179.410594,1.89622642 181.577257,3.97397133 181.577257,7.85117001 C181.577257,10.7534362 180.396882,12.9298314 177.17543,13.4328259 L177.17543,13.4328259 L177.17543,13.4961569 C178.262567,13.6234279 181.482116,13.8724894 181.482116,17.9689109 C181.482116,19.4230887 181.577257,23.7058496 182.037736,24.6509434 L182.037736,24.6509434 L177.17543,24.6509434 C176.522133,23.2643592 176.654695,21.7218833 176.654695,20.2439563 C176.654695,17.5329011 176.917917,15.2328886 173.104691,15.2328886 L173.104691,15.2328886 L171.825371,15.2328886 L171.825371,24.6509434 L166.867925,24.6509434 L166.867925,1.89622642 Z M148.072131,1.89622642 L151.744355,17.3733556 L155.572568,1.89622642 L163.075472,1.89622642 L163.075472,24.6509434 L158.380993,24.6509434 L158.317488,7.09789614 L153.881348,24.6509434 L149.286135,24.6509434 L145.010301,7.09789614 L145.010301,24.6509434 L140.320755,24.6509434 L140.320755,1.89622642 L148.072131,1.89622642 Z M130.282242,1.89622642 L136.528302,24.6509434 L131.461151,24.6509434 L130.188053,19.610646 L123.621256,19.610646 L122.316761,24.6509434 L117.566038,24.6509434 L123.942608,1.89622642 L130.282242,1.89622642 Z M93.6853067,1.89622642 L99.7678631,17.6559094 L99.827832,17.6559094 L99.827832,1.89622642 L104.292453,1.89622642 L104.292453,24.6509434 L97.9908265,24.6509434 L91.7516168,8.01010654 L91.6922598,8.01010654 L91.6922598,24.6509434 L87.2264151,24.6509434 L87.2264151,1.89622642 L93.6853067,1.89622642 Z M76.5620294,1.89622642 C80.1209118,1.89622642 83.0655133,2.93509887 83.0655133,7.78966584 C83.0655133,10.4045066 81.7962782,12.2953032 79.253023,12.8634556 C82.5660734,13.3366115 83.4339623,15.5142245 83.4339623,18.6357135 C83.4339623,24.3994461 78.5107418,24.6509434 76.5291321,24.6509434 L68.2641509,24.6509434 L68.2641509,1.89622642 Z M58.2244215,1.89622642 L64.4716981,24.6509434 L59.4072539,24.6509434 L58.1302136,19.610646 L51.5670634,19.610646 L50.2573889,24.6509434 L45.509434,24.6509434 L51.8841684,1.89622642 L58.2244215,1.89622642 Z M75.660047,14.6921391 L72.935558,14.6921391 L72.935558,21.1567757 L75.6209922,21.1566506 C76.6449476,21.1528655 78.7589664,21.0402094 78.7589664,17.9439438 C78.7589664,15.9246583 78.0166852,14.6921391 75.660047,14.6921391 L75.660047,14.6921391 Z M193.41624,5.68867925 C190.053992,5.68867925 189.622642,7.97982898 189.622642,13.2766265 L189.623179,13.5905393 C189.641068,18.6591326 190.121237,20.8584906 193.41624,20.8584906 C196.776196,20.8584906 197.207547,18.5684469 197.207547,13.2766265 C197.207547,7.97982898 196.776196,5.68867925 193.41624,5.68867925 Z M126.841553,6.27702857 L126.778145,6.27702857 L124.575464,16.1103887 L129.165511,16.1103887 L126.841553,6.27702857 Z M54.7812152,6.27702857 L54.7190256,6.27702857 L52.5214571,16.1103887 L57.1123988,16.1103887 L54.7812152,6.27702857 Z M110.924703,9.48113208 L113.773585,12.321496 L110.924703,15.1698113 L108.084906,12.321496 L110.924703,9.48113208 Z M174.03009,5.39222101 L171.825371,5.39222101 L171.825371,11.7314135 L174.03009,11.7314135 C175.993152,11.7314135 176.55448,9.83635419 176.55448,8.38704795 C176.55448,6.21430649 175.601808,5.39222101 174.03009,5.39222101 L174.03009,5.39222101 Z M75.8173556,5.39100311 L72.935558,5.39100311 L72.935558,11.1943176 L76.0643839,11.1943176 C77.0895814,11.1943176 78.5107418,10.501939 78.5107418,8.29205141 C78.5107418,6.62352237 77.3970209,5.39100311 75.8173556,5.39100311 L75.8173556,5.39100311 Z" id="Combined-Shape" fill="#FFFFFF"></path>
                <polygon id="Fill-85" fill="#F6BF37" points="17.4456958 10.9638321 36.0283019 30.7659787 17.8159091 49.3363636"></polygon>
                <polyline id="Fill-88" fill="#178C82" points="17.9682764 49.3018868 0 30.8539802 0 0 36.0283019 0 36.0283019 30.7608786 17.9682764 12.2078016 17.9682764 49.3018868"></polyline>
            </g>
        </g>
    </g>
</svg>