<?xml version="1.0" encoding="UTF-8"?>
<svg width="96px" height="80px" viewBox="0 0 96 80" version="1.1" xmlns="http://www.w3.org/2000/svg" xmlns:xlink="http://www.w3.org/1999/xlink">
    <title>Artboard</title>
    <defs>
        <linearGradient x1="-57.5270968%" y1="50.1241953%" x2="232.39121%" y2="50.1241953%" id="linearGradient-1">
            <stop stop-color="#007940" offset="0%"></stop>
            <stop stop-color="#00873F" offset="22.85%"></stop>
            <stop stop-color="#40A737" offset="74.33%"></stop>
            <stop stop-color="#5CB531" offset="100%"></stop>
        </linearGradient>
        <linearGradient x1="0.182516704%" y1="49.95997%" x2="100.273441%" y2="49.95997%" id="linearGradient-2">
            <stop stop-color="#007940" offset="0%"></stop>
            <stop stop-color="#00873F" offset="22.85%"></stop>
            <stop stop-color="#40A737" offset="74.33%"></stop>
            <stop stop-color="#5CB531" offset="100%"></stop>
        </linearGradient>
        <linearGradient x1="-62.8015845%" y1="49.8578253%" x2="253.671294%" y2="49.8578253%" id="linearGradient-3">
            <stop stop-color="#007940" offset="0%"></stop>
            <stop stop-color="#00873F" offset="22.85%"></stop>
            <stop stop-color="#40A737" offset="74.33%"></stop>
            <stop stop-color="#5CB531" offset="100%"></stop>
        </linearGradient>
        <linearGradient x1="0.175556793%" y1="50.0058048%" x2="101.808162%" y2="50.0058048%" id="linearGradient-4">
            <stop stop-color="#1F286F" offset="0%"></stop>
            <stop stop-color="#004E94" offset="47.51%"></stop>
            <stop stop-color="#0066B1" offset="82.61%"></stop>
            <stop stop-color="#006FBC" offset="100%"></stop>
        </linearGradient>
        <linearGradient x1="-0.575855512%" y1="49.9142191%" x2="98.13299%" y2="49.9142191%" id="linearGradient-5">
            <stop stop-color="#6C2C2F" offset="0%"></stop>
            <stop stop-color="#882730" offset="17.35%"></stop>
            <stop stop-color="#BE1833" offset="57.31%"></stop>
            <stop stop-color="#DC0436" offset="85.85%"></stop>
            <stop stop-color="#E60039" offset="100%"></stop>
        </linearGradient>
    </defs>
    <g id="Artboard" stroke="none" stroke-width="1" fill="none" fill-rule="evenodd">
        <g id="JCB" transform="translate(0.000000, -8.000000)">
            <g id="JCB_logo" transform="translate(0.000000, 10.800000)">
                <path d="M96,59.0317852 C96,67.2469442 89.3105138,73.9364308 81.0953548,73.9364308 L-1.2885898e-08,73.9364308 L-1.2885898e-08,14.9046457 C-1.2885898e-08,6.68948672 6.68948657,1.3852349e-07 14.9046455,1.3852349e-07 L96,1.3852349e-07 L96,59.0317852 Z" id="path6325" fill="#FFFFFF" fill-rule="nonzero"></path>
                <g id="g6327" transform="translate(64.312959, 4.870416)" fill-rule="nonzero">
                    <path d="M5.28117362,39.0220051 L11.4425428,39.0220051 C11.618582,39.0220051 12.0293399,38.9633253 12.205379,38.9633253 C13.3789732,38.7286065 14.3765282,37.6723718 14.3765282,36.2053791 C14.3765282,34.7970662 13.3789732,33.7408314 12.205379,33.4474329 C12.0293399,33.3887532 11.6772617,33.3887532 11.4425428,33.3887532 L5.28117362,33.3887532 L5.28117362,39.0220051 Z" id="path6338" fill="url(#linearGradient-1)"></path>
                    <path d="M10.7383864,0.117359414 C4.87041567,0.117359414 0.0586797068,4.87041567 0.0586797068,10.7970661 L0.0586797068,21.8875307 L15.1393644,21.8875307 C15.4914426,21.8875307 15.9022006,21.8875307 16.1955991,21.9462104 C19.5990221,22.1222495 22.1222495,23.8826407 22.1222495,26.9339854 C22.1222495,29.3398534 20.420538,31.3936432 17.2518338,31.8044011 L17.2518338,31.9217605 C20.7139365,32.1564794 23.3545233,34.0929097 23.3545233,37.0855747 C23.3545233,40.3129586 20.420538,42.425428 16.5476773,42.425428 L8.33888789e-15,42.425428 L8.33888789e-15,64.1369196 L15.6674817,64.1369196 C21.5354524,64.1369196 26.3471884,59.3838633 26.3471884,53.4572129 L26.3471884,0.117359414 L10.7383864,0.117359414 Z" id="path6349" fill="url(#linearGradient-2)"></path>
                    <path d="M13.613692,27.6381419 C13.613692,26.229829 12.616137,25.2909537 11.4425428,25.1149145 C11.3251834,25.1149145 11.0317849,25.0562348 10.8557458,25.0562348 L5.28117362,25.0562348 L5.28117362,30.220049 L10.8557458,30.220049 C11.0317849,30.220049 11.3838631,30.220049 11.4425428,30.1613693 C12.616137,29.9853302 13.613692,29.0464549 13.613692,27.6381419 L13.613692,27.6381419 Z" id="path6360" fill="url(#linearGradient-3)"></path>
                </g>
                <path d="M16.01956,4.98777522 C10.1515893,4.98777522 5.33985331,9.74083147 5.33985331,15.6674819 L5.33985331,42.0146702 C8.33251836,43.4816629 11.4425428,44.4205382 14.5525673,44.4205382 C18.2493888,44.4205382 20.2444988,42.1907094 20.2444988,39.1393646 L20.2444988,26.6992668 L29.3985331,26.6992668 L29.3985331,39.0806849 C29.3985331,43.8924209 26.4058681,47.8239612 16.2542788,47.8239612 C10.0929096,47.8239612 5.2811736,46.474328 5.2811736,46.474328 L5.2811736,68.9486557 L20.9486553,68.9486557 C26.816626,68.9486557 31.628362,64.1955994 31.628362,58.268949 L31.628362,4.98777522 L16.01956,4.98777522 Z" id="path6371" fill="url(#linearGradient-4)" fill-rule="nonzero"></path>
                <path d="M45.5354525,4.98777522 C39.6674818,4.98777522 34.8557459,9.74083147 34.8557459,15.6674819 L34.8557459,29.6332521 C37.5550124,27.3447435 42.2493889,25.8777509 49.8190711,26.2298291 C53.8679709,26.4058682 58.2102692,27.5207826 58.2102692,27.5207826 L58.2102692,32.0391201 C56.03912,30.9242056 53.4572129,29.9266506 50.1124696,29.6919318 C44.3618584,29.2811739 40.8997557,32.0977998 40.8997557,37.0268952 C40.8997557,42.0146702 44.3618584,44.8312962 50.1124696,44.3618585 C53.4572129,44.1271397 56.03912,43.070905 58.2102692,42.0146702 L58.2102692,46.5330077 C58.2102692,46.5330077 53.9266506,47.6479221 49.8190711,47.8239612 C42.2493889,48.1760395 37.5550124,46.7090468 34.8557459,44.4205382 L34.8557459,69.0660151 L50.5232276,69.0660151 C56.3911983,69.0660151 61.2029342,64.3129588 61.2029342,58.3863084 L61.2029342,4.98777522 L45.5354525,4.98777522 Z" id="path6384" fill="url(#linearGradient-5)" fill-rule="nonzero"></path>
            </g>
        </g>
    </g>
</svg>