<?xml version="1.0" encoding="UTF-8"?>
<svg width="174px" height="80px" viewBox="0 0 174 80" version="1.1" xmlns="http://www.w3.org/2000/svg" xmlns:xlink="http://www.w3.org/1999/xlink">
    <title>Artboard</title>
    <g id="Artboard" stroke="none" stroke-width="1" fill="none" fill-rule="evenodd">
        <g id="Issuer-/-ING-(white)" transform="translate(0.000000, -47.000000)" fill="#FFFFFF">
            <g id="logo" transform="translate(0.000000, 65.975000)">
                <path d="M96.9669903,24.7485437 L96.9669903,32.7728155 C92.4058252,34.968932 88.0135922,36.1514563 83.6213592,36.1514563 C71.5427184,36.1514563 64.2786408,29.2252427 64.2786408,20.6097087 C64.3631068,11.1495146 72.6407767,3.37864078 83.1990291,3.37864078 C85.8174757,3.37864078 87.7601942,3.80097087 89.8718447,4.47669903 C91.392233,4.89902913 92.3213592,5.49029126 93.1660194,5.49029126 C94.0106796,5.49029126 94.1796117,4.13883495 94.3485437,3.37864078 L95.531068,3.37864078 L96.5446602,14.1902913 L95.1932039,14.1902913 C94.6019417,12.0786408 93.5883495,10.3048544 92.2368932,9.03786408 C90.0407767,6.92621359 87.084466,5.82815534 83.6213592,5.82815534 C76.3572816,5.82815534 72.1339806,11.4029126 72.1339806,19.7650485 C72.1339806,28.0427184 77.2864078,33.7019417 84.2126214,33.7019417 C86.2398058,33.7019417 88.0980583,33.2796117 90.3786408,32.2660194 L90.3786408,24.0728155 C90.3786408,21.3699029 89.9563107,20.4407767 85.9864078,20.4407767 L85.9864078,19.2582524 L100.514563,19.2582524 L100.514563,20.2718447 C96.8825243,20.2718447 96.9669903,21.3699029 96.9669903,24.7485437 L96.9669903,24.7485437 Z M56.8456311,11.5718447 L56.8456311,35.4757282 L54.9029126,35.4757282 L30.238835,10.8116505 C30.323301,11.4873786 30.323301,11.9941748 30.323301,12.6699029 L30.323301,27.7048544 C30.323301,32.3504854 30.323301,34.0398058 34.715534,34.0398058 L34.715534,35.2223301 L23.0592233,35.2223301 L23.0592233,34.0398058 C27.4514563,34.0398058 27.4514563,32.0126214 27.4514563,27.7048544 L27.4514563,10.5582524 C27.4514563,8.02427184 27.4514563,5.2368932 22.8902913,5.2368932 L22.8902913,4.05436893 L33.7864078,4.05436893 L54.1427184,24.3262136 C54.0582524,23.7349515 54.0582524,23.3970874 54.0582524,22.6368932 L54.0582524,11.6563107 C54.0582524,7.17961165 54.1427184,5.32135922 49.8349515,5.32135922 L49.8349515,4.05436893 L61.4067961,4.05436893 L61.4067961,5.32135922 C57.0990291,5.2368932 56.8456311,7.01067961 56.8456311,11.5718447 L56.8456311,11.5718447 Z M0.675728155,35.3067961 L0.675728155,34.1242718 C3.4631068,34.1242718 5.40582524,33.8708738 5.40582524,29.9854369 L5.40582524,9.37572816 C5.40582524,5.40582524 3.88543689,5.2368932 0.675728155,5.2368932 L0.675728155,4.05436893 L16.9776699,4.05436893 L16.9776699,5.32135922 C13.6834951,5.32135922 12.2475728,5.40582524 12.2475728,9.46019417 L12.2475728,30.0699029 C12.2475728,33.9553398 13.9368932,34.2087379 16.9776699,34.2087379 L16.9776699,35.3912621 L0.675728155,35.3912621 L0.675728155,35.3067961 Z" id="Shape" fill-rule="nonzero"></path>
                <path d="M173.493204,28.0427184 C173.57767,27.3669903 173.57767,26.7757282 173.57767,26.3533981 C173.324272,26.1 172.986408,26.015534 172.817476,26.015534 C172.817476,25.6776699 172.73301,25.2553398 172.817476,24.8330097 C173.070874,24.8330097 173.493204,24.9174757 173.493204,24.8330097 C173.493204,24.1572816 173.408738,23.5660194 173.239806,23.2281553 C172.986408,23.1436893 172.648544,22.9747573 172.395146,22.8902913 C172.395146,22.5524272 172.31068,22.2145631 172.141748,22.0456311 C172.479612,21.961165 172.73301,21.961165 172.901942,21.961165 C172.901942,21.961165 172.648544,21.0320388 172.564078,20.5252427 C172.31068,20.4407767 171.972816,20.4407767 171.803883,20.4407767 C171.719417,20.1873786 171.550485,20.0184466 171.466019,19.6805825 C171.719417,19.5961165 171.88835,19.5961165 172.141748,19.4271845 C171.88835,18.9203883 171.803883,18.6669903 171.550485,18.3291262 C171.297087,18.3291262 171.128155,18.3291262 170.790291,18.3291262 C170.705825,18.0757282 170.536893,17.9067961 170.536893,17.6533981 C170.621359,17.568932 170.874757,17.4 170.959223,17.315534 C170.874757,16.9776699 170.621359,16.6398058 170.367961,16.4708738 C170.114563,16.4708738 169.945631,16.5553398 169.692233,16.4708738 C169.607767,16.4708738 169.269903,16.0485437 169.354369,16.0485437 C169.438835,15.7951456 169.692233,15.7106796 169.776699,15.6262136 C169.438835,15.2038835 169.354369,14.8660194 169.016505,14.6970874 C168.763107,14.6970874 168.594175,14.6970874 168.340777,14.7815534 C168.340777,14.7815534 168.087379,14.4436893 168.002913,14.3592233 C167.665049,14.3592233 168.256311,13.8524272 168.256311,13.8524272 C167.918447,13.4300971 167.580583,13.092233 167.158252,12.6699029 C166.904854,12.6699029 166.735922,12.923301 166.56699,12.923301 C166.56699,12.923301 166.14466,12.5854369 166.14466,12.5009709 C166.14466,12.2475728 166.56699,12.1631068 166.56699,12.1631068 C166.56699,12.1631068 165.806796,11.3184466 165.215534,10.9805825 C164.962136,11.0650485 164.87767,11.0650485 164.624272,11.0650485 C164.286408,10.7271845 163.864078,10.5582524 163.864078,10.5582524 C163.864078,10.5582524 164.201942,10.3048544 164.201942,10.2203883 C163.61068,9.88252427 163.441748,9.71359223 163.019417,9.37572816 C162.597087,9.1223301 162.343689,8.86893204 162.174757,8.53106796 C161.414563,7.34854369 160.400971,5.6592233 157.951456,5.32135922 C157.951456,5.32135922 158.542718,6.0815534 158.796117,6.58834951 C158.796117,6.67281553 158.796117,6.67281553 158.373786,6.67281553 C158.035922,6.67281553 157.951456,6.67281553 157.613592,6.67281553 C157.360194,6.33495146 157.275728,6.25048544 157.191262,5.99708738 C156.937864,5.57475728 156.853398,5.49029126 156.6,5.2368932 C156.17767,4.89902913 153.981553,6.0815534 152.123301,6.5038835 C152.545631,7.01067961 152.967961,7.34854369 153.136893,7.60194175 C153.728155,8.10873786 154.48835,9.1223301 154.995146,9.88252427 C155.079612,9.79805825 155.248544,9.62912621 155.417476,9.54466019 C156.853398,9.29126214 156.853398,9.03786408 156.853398,9.03786408 C156.853398,9.03786408 155.75534,8.19320388 156.515534,8.19320388 C156.515534,8.19320388 157.106796,8.2776699 157.275728,8.10873786 C157.86699,8.02427184 158.458252,7.85533981 158.796117,8.10873786 C159.218447,8.44660194 159.471845,8.86893204 159.809709,9.20679612 C159.556311,9.20679612 159.387379,9.1223301 159.133981,9.1223301 C158.458252,9.03786408 157.782524,9.1223301 157.275728,9.20679612 C157.275728,9.20679612 158.120388,9.96699029 158.373786,10.3048544 C158.120388,10.2203883 157.529126,10.3048544 157.529126,10.3048544 C157.191262,10.3893204 156.768932,10.5582524 156.684466,10.5582524 C156.346602,10.6427184 156.008738,10.5582524 155.839806,10.6427184 C156.262136,10.8961165 158.28932,11.5718447 159.218447,11.5718447 C160.063107,11.5718447 160.654369,11.4873786 161.414563,11.1495146 C161.499029,11.0650485 161.752427,10.8961165 161.836893,11.0650485 C162.259223,11.1495146 162.512621,11.3184466 162.681553,11.4873786 C165.553398,13.176699 168.763107,17.315534 169.692233,19.4271845 C170.705825,21.4543689 171.212621,23.7349515 171.212621,25.8466019 C171.297087,28.7184466 170.367961,31.5058252 168.340777,34.0398058 C167.242718,35.4757282 165.131068,36.6582524 162.934951,36.8271845 C163.61068,37.5873786 163.948544,38.7699029 164.286408,39.8679612 C164.286408,39.8679612 165.046602,39.7834951 165.468932,39.5300971 C165.468932,38.6854369 164.87767,37.6718447 164.87767,37.5029126 C164.87767,37.5029126 165.553398,37.0805825 166.060194,37.0805825 C166.14466,37.4184466 166.482524,37.9252427 166.904854,38.6854369 C167.327184,38.4320388 167.665049,38.2631068 168.002913,37.9252427 C168.002913,37.4184466 167.665049,36.7427184 167.41165,36.0669903 C168.171845,35.7291262 168.594175,35.6446602 168.594175,35.6446602 C168.847573,35.9825243 169.354369,36.3203883 169.438835,36.5737864 C169.438835,36.5737864 170.030097,36.0669903 170.199029,35.4757282 C169.945631,35.0533981 169.607767,34.715534 169.438835,34.2932039 L170.283495,33.3640777 C170.283495,33.3640777 170.874757,33.7864078 171.043689,34.0398058 C171.381553,33.6174757 171.719417,33.1951456 171.803883,32.6038835 C171.212621,32.0970874 171.043689,32.0970874 170.959223,31.7592233 C171.212621,31.4213592 171.297087,30.9990291 171.550485,30.661165 C171.88835,30.7456311 172.141748,30.9990291 172.31068,31.0834951 C172.564078,30.661165 172.73301,29.9854369 172.73301,29.5631068 C172.479612,29.3097087 172.141748,29.2252427 171.972816,29.0563107 C172.057282,28.5495146 172.226214,27.9582524 172.226214,27.9582524 C172.226214,27.9582524 173.324272,28.0427184 173.493204,28.0427184 Z M156.346602,7.01067961 L155.670874,7.43300971 L154.826214,6.75728155 L155.839806,6.25048544 L156.937864,7.01067961 L156.346602,7.01067961 Z M160.316505,7.93980583 L159.894175,7.43300971 L161.076699,7.09514563 L161.667961,8.95339806 L160.316505,7.93980583 Z M137.003883,5.15242718 C137.003883,5.49029126 137.08835,5.82815534 137.257282,6.0815534 C137.764078,6.41941748 138.439806,6.58834951 138.439806,6.58834951 C138.524272,6.25048544 138.35534,5.91262136 138.35534,5.6592233 C138.101942,4.89902913 137.764078,4.13883495 137.679612,3.29417476 C137.679612,3.20970874 137.679612,2.95631068 137.679612,2.87184466 C137.257282,2.6184466 136.834951,2.53398058 136.243689,2.36504854 C136.243689,2.36504854 136.243689,3.0407767 136.497087,3.29417476 C136.666019,3.88543689 137.003883,4.73009709 137.003883,5.15242718 Z M137.426214,7.85533981 C137.51068,8.10873786 137.764078,8.10873786 138.017476,8.19320388 C138.270874,8.44660194 138.439806,8.53106796 138.77767,8.7 C139.2,9.1223301 139.453398,9.62912621 139.960194,10.1359223 C140.213592,10.2203883 140.298058,10.3893204 140.382524,10.3893204 C140.46699,10.3893204 140.973786,10.7271845 141.058252,10.8116505 C141.058252,9.96699029 140.720388,9.29126214 140.46699,8.86893204 C140.46699,8.78446602 140.382524,8.61553398 140.129126,8.53106796 C139.791262,8.19320388 139.453398,7.85533981 139.368932,7.85533981 C139.031068,7.51747573 138.77767,7.17961165 138.524272,6.92621359 C138.186408,6.92621359 137.93301,7.26407767 137.764078,7.34854369 C137.679612,7.51747573 137.172816,7.77087379 137.426214,7.85533981 Z M139.2,10.4737864 C139.115534,10.4737864 138.77767,10.3893204 138.35534,10.2203883 C138.017476,10.2203883 137.764078,10.2203883 137.764078,10.2203883 C137.848544,10.5582524 138.186408,10.8961165 138.35534,11.0650485 C138.35534,11.1495146 138.35534,11.4873786 138.439806,11.7407767 C138.693204,11.7407767 138.946602,11.8252427 139.2,11.9941748 C139.284466,11.9941748 139.960194,12.0786408 140.213592,12.3320388 C140.46699,12.3320388 141.227184,13.176699 141.31165,13.261165 C141.649515,13.5145631 141.987379,13.6834951 142.156311,13.5990291 C142.409709,13.5990291 142.156311,13.261165 142.156311,13.176699 C141.733981,12.5009709 141.396117,11.3184466 141.31165,11.3184466 C140.973786,11.2339806 140.720388,11.3184466 140.298058,11.0650485 C140.04466,10.8961165 139.368932,10.5582524 139.2,10.4737864 Z M158.458252,32.3504854 C158.796117,32.4349515 158.965049,33.1951456 159.218447,33.4485437 C159.556311,33.8708738 159.471845,32.6883495 159.302913,32.5194175 C159.302913,32.4349515 159.302913,31.5902913 159.049515,31.5902913 C158.965049,31.5058252 158.796117,31.1679612 158.71165,31.0834951 C158.627184,31.4213592 158.71165,31.5902913 158.71165,31.9281553 C158.796117,32.0126214 158.373786,32.2660194 158.458252,32.3504854 Z M120.448544,3.12524272 C121.208738,2.70291262 122.560194,1.94271845 122.982524,1.52038835 C123.06699,1.77378641 124.418447,2.44951456 124.925243,2.78737864 C125.347573,3.12524272 125.769903,3.20970874 126.276699,3.4631068 C126.530097,3.12524272 126.699029,2.78737864 126.952427,2.02718447 C127.290291,2.28058252 127.712621,2.28058252 128.050485,2.36504854 C128.050485,2.78737864 128.050485,3.20970874 128.134951,3.63203883 C128.134951,3.88543689 128.38835,3.71650485 128.81068,3.54757282 C129.486408,3.29417476 130.162136,3.20970874 130.5,3.12524272 C131.260194,2.70291262 131.682524,1.85825243 132.358252,1.85825243 C132.949515,1.85825243 133.878641,2.1961165 134.132039,2.36504854 C134.469903,2.44951456 134.723301,2.6184466 134.976699,2.6184466 C135.399029,2.6184466 135.736893,2.1961165 136.074757,1.94271845 C135.061165,1.26699029 133.963107,0.675728155 132.865049,0.253398058 C132.18932,0.760194175 131.76699,1.18252427 131.429126,1.18252427 C131.091262,1.18252427 131.34466,0.506796117 131.34466,0.0844660194 C131.006796,0.0844660194 130.753398,0.0844660194 130.5,0 C130.246602,0.760194175 130.162136,1.68932039 129.65534,1.94271845 C129.401942,2.02718447 129.317476,2.02718447 129.23301,2.02718447 C129.23301,1.94271845 129.23301,1.26699029 129.23301,1.18252427 C129.23301,1.09805825 129.65534,0.337864078 129.570874,0.253398058 C129.570874,0.253398058 128.557282,0.506796117 128.38835,0.591262136 C128.303883,0.675728155 127.628155,1.01359223 127.543689,1.01359223 C127.543689,1.01359223 127.205825,0.929126214 127.121359,0.929126214 C126.783495,0.675728155 126.530097,0.675728155 126.276699,0.506796117 C125.854369,1.77378641 125.685437,2.11165049 125.685437,1.94271845 C125.685437,1.94271845 124.165049,1.01359223 123.573786,0.337864078 C122.137864,0.591262136 122.137864,0.760194175 120.95534,1.18252427 C120.53301,1.60485437 119.857282,2.11165049 119.434951,2.78737864 C119.181553,3.20970874 119.012621,3.4631068 118.759223,3.88543689 L119.857282,4.30776699 C119.772816,4.05436893 120.364078,3.29417476 120.448544,3.12524272 Z M144.774757,20.8631068 C145.028155,21.1165049 145.112621,21.538835 145.197087,22.2990291 C145.281553,22.7213592 145.534951,22.8058252 145.78835,23.4815534 C146.126214,23.2281553 146.63301,23.3970874 146.63301,23.3970874 C146.63301,22.8902913 146.295146,22.2990291 146.295146,22.2145631 C146.21068,21.961165 145.872816,21.3699029 145.703883,21.1165049 C145.78835,21.1165049 146.126214,21.538835 146.717476,21.538835 C146.801942,21.538835 147.139806,21.623301 147.393204,21.538835 C147.393204,21.538835 147.731068,21.792233 147.731068,21.961165 C147.984466,22.2990291 147.984466,22.4679612 148.068932,22.8058252 C148.32233,22.8058252 148.406796,22.8058252 148.491262,22.7213592 C148.913592,22.7213592 149.16699,22.6368932 149.16699,22.6368932 C149.082524,22.3834951 148.913592,22.2145631 148.913592,21.961165 C148.829126,21.707767 148.575728,21.2009709 148.575728,21.2009709 L150.518447,20.8631068 C150.518447,20.5252427 150.433981,20.1029126 150.096117,19.9339806 C149.082524,20.2718447 147.984466,20.3563107 147.224272,20.3563107 C146.126214,20.3563107 145.028155,20.1029126 143.507767,19.5116505 C143.423301,19.7650485 143.507767,20.1873786 143.507767,20.1873786 C144.267961,20.6941748 144.267961,20.3563107 144.774757,20.8631068 Z M141.142718,14.6126214 C141.396117,15.4572816 141.733981,16.5553398 141.818447,17.8223301 C141.818447,18.1601942 141.733981,18.4980583 141.818447,18.7514563 L143.338835,19.2582524 C143.338835,19.2582524 143.085437,17.9912621 142.916505,16.4708738 C142.663107,15.2038835 142.578641,14.7815534 142.240777,14.1902913 C141.987379,14.2747573 141.902913,14.2747573 141.649515,14.2747573 C141.396117,14.5281553 141.142718,14.6126214 141.142718,14.6126214 Z M157.782524,19.1737864 C156.346602,17.7378641 154.826214,16.8932039 153.305825,16.8932039 C151.954369,16.8932039 151.025243,17.8223301 151.025243,18.8359223 C151.025243,22.7213592 152.545631,25.1708738 153.559223,27.3669903 C153.897087,27.8737864 153.981553,28.2961165 153.981553,28.8873786 C154.066019,30.323301 152.883495,32.8572816 152.123301,34.2932039 C152.038835,34.2087379 151.447573,34.0398058 151.025243,34.0398058 C149.927184,34.0398058 149.504854,34.8 149.251456,35.4757282 C148.913592,35.4757282 148.74466,35.2223301 148.406796,35.2223301 C147.05534,35.1378641 145.957282,36.3203883 145.957282,37.5873786 C145.957282,39.023301 146.295146,39.6990291 146.801942,40.7126214 C147.224272,40.7126214 147.47767,40.7126214 147.9,40.7126214 C147.815534,40.3747573 147.47767,38.7699029 147.308738,38.3475728 C147.224272,37.6718447 147.393204,37.2495146 147.731068,36.9116505 C148.153398,36.2359223 149.251456,36.4893204 149.251456,36.4893204 C148.913592,36.9961165 148.491262,37.9252427 148.491262,38.7699029 C148.575728,39.276699 148.74466,40.2058252 149.082524,40.7126214 L149.927184,40.7126214 C150.180583,40.0368932 149.927184,39.5300971 149.927184,39.023301 C149.927184,38.6854369 149.927184,38.3475728 150.01165,38.0941748 C150.01165,37.8407767 150.602913,38.5165049 150.602913,38.5165049 C150.602913,38.5165049 151.025243,38.0097087 151.025243,37.5873786 C151.025243,37.2495146 150.349515,37.3339806 150.265049,37.0805825 C150.180583,36.7427184 150.518447,35.9825243 150.518447,35.9825243 C151.194175,35.5601942 151.700971,35.6446602 151.954369,35.6446602 C152.292233,35.6446602 152.376699,35.7291262 152.799029,35.7291262 C153.136893,35.7291262 153.221359,35.0533981 153.221359,34.8 C153.305825,34.884466 153.643689,35.1378641 153.812621,35.1378641 C154.150485,35.2223301 154.234951,35.2223301 154.572816,35.3912621 C154.995146,35.6446602 155.417476,35.8135922 155.924272,36.2359223 L155.924272,36.1514563 C155.839806,35.7291262 156.008738,35.2223301 155.670874,34.968932 C155.670874,34.968932 155.079612,34.5466019 154.657282,34.2932039 C154.403883,34.0398058 154.066019,34.0398058 153.981553,33.8708738 C153.897087,33.7864078 153.897087,33.6174757 153.897087,33.4485437 C153.897087,33.1951456 153.981553,32.9417476 154.150485,32.9417476 C154.403883,32.8572816 154.48835,32.9417476 154.91068,33.1951456 C155.33301,33.4485437 155.75534,33.7019417 156.093204,33.9553398 C156.093204,33.9553398 156.17767,34.2087379 156.17767,34.0398058 C156.6,33.7864078 156.6,33.7019417 156.6,33.1106796 C156.17767,32.6038835 156.6,32.4349515 155.924272,32.0126214 C155.670874,32.0126214 154.48835,31.5902913 154.48835,31.5902913 C154.48835,31.3368932 154.826214,30.8300971 154.826214,30.8300971 C154.91068,30.7456311 155.164078,30.7456311 155.248544,30.9145631 C155.924272,31.3368932 156.346602,31.3368932 157.02233,31.5902913 C157.106796,31.2524272 157.106796,31.0834951 156.937864,30.8300971 C156.684466,30.492233 156.346602,30.1543689 156.17767,30.0699029 C155.75534,29.9854369 155.501942,29.8165049 155.164078,29.7320388 C155.164078,29.3941748 155.079612,29.0563107 154.91068,28.6339806 C154.91068,28.3805825 155.164078,28.5495146 155.33301,28.5495146 C155.75534,28.4650485 157.613592,29.0563107 157.613592,29.0563107 C157.613592,28.6339806 157.529126,28.2961165 157.275728,28.1271845 C157.02233,27.8737864 156.853398,27.7048544 156.262136,27.4514563 C155.501942,27.1980583 154.826214,27.3669903 154.319417,27.0291262 C153.897087,26.6067961 153.728155,26.5223301 153.643689,26.1 C153.981553,26.015534 154.48835,25.8466019 154.826214,25.8466019 C155.417476,25.8466019 155.670874,25.7621359 156.346602,25.931068 C156.6,26.015534 157.360194,26.6912621 157.698058,26.6912621 C157.698058,26.6912621 157.44466,25.8466019 157.275728,25.5087379 C156.937864,25.5087379 156.431068,24.8330097 156.17767,24.7485437 C155.079612,24.3262136 154.826214,24.4951456 154.234951,24.6640777 C153.897087,24.7485437 153.559223,24.6640777 153.221359,24.6640777 C153.136893,24.4106796 153.474757,24.1572816 153.305825,23.9038835 C153.305825,23.8194175 152.883495,23.6504854 152.883495,23.4815534 C152.883495,23.4815534 154.657282,23.2281553 155.33301,23.3970874 C155.586408,23.4815534 156.17767,23.9038835 156.431068,23.9038835 C156.431068,23.9038835 156.684466,23.1436893 156.346602,22.4679612 C155.839806,22.3834951 155.248544,22.4679612 154.826214,22.3834951 C154.403883,22.2990291 153.981553,22.3834951 153.643689,22.3834951 C153.305825,22.3834951 152.967961,22.2990291 152.630097,22.2990291 C152.376699,21.961165 152.292233,21.623301 152.292233,21.3699029 C152.292233,21.3699029 155.079612,21.2854369 155.248544,21.1165049 C155.164078,21.0320388 154.91068,20.8631068 154.826214,20.6941748 C154.403883,19.9339806 154.066019,19.8495146 153.474757,19.8495146 C153.136893,19.8495146 152.376699,20.1873786 151.954369,20.1029126 C151.954369,19.2582524 152.376699,18.4980583 153.052427,18.4980583 C154.403883,18.4980583 155.670874,19.0048544 156.768932,20.1873786 C159.556311,22.9747573 160.992233,28.2961165 160.992233,32.0126214 C160.992233,33.7019417 160.738835,35.3067961 160.569903,36.6582524 C160.907767,36.7427184 161.076699,36.7427184 161.414563,36.7427184 C161.752427,35.4757282 162.090291,33.7019417 162.090291,32.0970874 C162.174757,26.3533981 160.232039,21.707767 157.782524,19.1737864 Z M136.666019,10.9805825 C136.581553,11.0650485 136.412621,11.3184466 136.412621,11.4029126 C136.159223,11.7407767 135.905825,11.9097087 136.074757,12.2475728 C136.159223,12.6699029 136.159223,13.092233 136.497087,13.4300971 C136.834951,13.7679612 137.257282,13.6834951 137.679612,13.9368932 C137.679612,13.9368932 137.341748,12.5009709 137.172816,11.9097087 C137.08835,11.4873786 136.834951,11.3184466 136.666019,10.9805825 Z M150.180583,24.4951456 C150.096117,24.1572816 149.758252,24.0728155 149.504854,23.8194175 C149.504854,23.8194175 148.068932,23.3126214 147.815534,23.3126214 C147.562136,23.3970874 148.406796,23.8194175 148.491262,24.0728155 C148.913592,24.4951456 150.01165,25.5087379 150.01165,25.5087379 L150.180583,24.4951456 Z M139.706796,17.4 C140.04466,17.4 140.298058,17.6533981 140.46699,17.6533981 C140.46699,17.315534 140.382524,17.1466019 140.213592,16.8087379 C140.129126,16.3019417 139.875728,15.9640777 139.791262,15.6262136 C139.791262,15.2883495 139.791262,15.1194175 139.706796,14.8660194 C139.62233,14.8660194 139.453398,14.8660194 139.368932,14.7815534 C139.031068,14.7815534 138.608738,14.6970874 138.608738,14.6970874 C138.608738,15.0349515 138.693204,15.5417476 138.693204,15.8796117 C138.693204,15.9640777 139.115534,16.9776699 139.284466,17.0621359 C139.368932,17.231068 139.537864,17.315534 139.706796,17.4 Z M158.880583,34.968932 C158.880583,34.884466 158.542718,34.631068 158.458252,34.631068 C158.458252,34.5466019 158.373786,34.1242718 158.204854,33.9553398 C157.951456,33.8708738 157.951456,33.7019417 157.782524,33.7019417 C157.782524,33.7864078 157.782524,33.9553398 157.698058,34.1242718 C157.698058,34.3776699 157.44466,34.4621359 157.613592,34.631068 C157.698058,34.884466 157.86699,34.884466 158.035922,34.968932 C158.120388,35.0533981 158.458252,35.8980583 158.627184,36.0669903 C158.627184,36.0669903 158.627184,35.3912621 158.880583,34.968932 Z M150.433981,29.0563107 C150.856311,28.7184466 150.940777,28.1271845 151.109709,27.7893204 C151.194175,27.4514563 151.025243,26.8601942 150.856311,26.6067961 C150.518447,26.6067961 150.349515,26.3533981 150.096117,26.3533981 C149.842718,26.3533981 149.758252,25.8466019 149.420388,25.931068 C149.504854,26.184466 149.758252,27.1980583 149.842718,27.4514563 C150.01165,27.5359223 150.433981,28.2961165 150.433981,29.0563107 Z M162.174757,38.2631068 C162.174757,38.2631068 162.090291,38.6009709 161.921359,38.7699029 C161.667961,39.276699 161.583495,39.5300971 161.583495,39.8679612 C161.921359,40.1213592 162.005825,39.9524272 162.428155,39.9524272 C162.681553,39.9524272 162.850485,40.0368932 163.019417,40.0368932 C163.272816,39.9524272 163.019417,39.6990291 163.019417,39.6145631 C162.934951,39.6990291 162.512621,38.6854369 162.174757,38.2631068 Z M143.592233,22.3834951 C143.592233,22.3834951 142.240777,21.623301 142.071845,21.2854369 C141.733981,21.2854369 141.733981,21.2854369 141.396117,21.623301 C141.142718,21.623301 141.058252,21.707767 140.973786,21.961165 C141.31165,22.2145631 141.396117,22.2990291 141.733981,22.4679612 C141.818447,22.5524272 141.987379,22.5524272 142.325243,22.4679612 C142.747573,22.4679612 143.085437,22.4679612 143.169903,22.4679612 C143.338835,22.4679612 143.592233,22.5524272 143.592233,22.3834951 Z M140.635922,20.0184466 C140.551456,19.7650485 140.298058,19.3427184 140.213592,19.2582524 C140.129126,19.0048544 139.960194,18.8359223 139.875728,18.7514563 C139.791262,18.6669903 139.368932,18.7514563 139.115534,18.7514563 C138.862136,18.7514563 138.77767,18.7514563 138.524272,18.8359223 C138.77767,19.0893204 138.946602,19.7650485 139.115534,19.7650485 C139.2,20.0184466 139.2,20.1029126 139.453398,20.1873786 C140.04466,20.2718447 140.46699,20.1873786 140.973786,20.4407767 C141.142718,20.1029126 140.720388,20.1029126 140.635922,20.0184466 Z M148.998058,28.4650485 C148.998058,28.1271845 148.913592,27.7893204 148.660194,27.6203883 C148.575728,27.2825243 148.406796,26.8601942 148.406796,26.6912621 C148.32233,26.4378641 147.815534,25.8466019 147.646602,25.5087379 C147.393204,25.2553398 147.393204,24.7485437 147.308738,24.4106796 L145.957282,24.6640777 C146.63301,25.5087379 147.139806,26.3533981 147.47767,27.2825243 C147.562136,27.6203883 148.575728,30.8300971 148.575728,30.8300971 C148.913592,30.7456311 148.491262,29.1407767 148.575728,28.9718447 C148.74466,28.7184466 148.74466,28.6339806 148.998058,28.4650485 Z M144.690291,24.7485437 C144.690291,23.8194175 144.436893,23.8194175 144.014563,23.3126214 C144.014563,23.3126214 143.676699,23.9883495 143.423301,24.2417476 C143.845631,24.6640777 144.014563,25.1708738 144.014563,25.1708738 C144.436893,24.8330097 144.436893,24.9174757 144.690291,24.7485437 Z M160.063107,39.4456311 C160.063107,39.4456311 159.640777,39.4456311 159.471845,39.4456311 C159.218447,39.361165 159.133981,39.361165 159.049515,39.4456311 C158.71165,39.7834951 158.71165,40.2902913 158.458252,40.6281553 C159.049515,40.6281553 159.302913,40.6281553 159.809709,40.6281553 C160.063107,40.3747573 160.232039,40.2902913 160.232039,39.8679612 C160.316505,39.7834951 160.316505,39.6145631 160.063107,39.4456311 Z M146.041748,27.1135922 C146.041748,27.1135922 145.78835,26.6912621 145.78835,26.6067961 C145.703883,26.3533981 145.534951,26.1 145.197087,25.931068 C145.197087,25.8466019 145.112621,26.3533981 144.943689,26.6067961 C144.859223,26.8601942 144.859223,26.6912621 144.605825,27.1135922 C144.859223,27.4514563 144.943689,27.6203883 145.197087,27.9582524 C145.197087,28.0427184 145.534951,28.4650485 145.534951,28.4650485 C145.534951,28.4650485 145.957282,27.6203883 145.957282,27.3669903 C146.041748,27.2825243 146.041748,27.1980583 146.041748,27.1135922 Z M125.094175,17.4 C125.432039,17.4 125.769903,17.0621359 126.107767,16.9776699 C126.783495,16.7242718 127.290291,16.5553398 127.966019,16.4708738 C128.219417,16.3864078 128.219417,16.1330097 128.219417,15.9640777 C128.303883,15.7106796 128.303883,15.7106796 128.303883,15.4572816 C128.303883,15.3728155 127.881553,15.2038835 127.628155,14.7815534 C127.374757,14.4436893 127.628155,14.1058252 127.543689,14.1058252 C127.205825,14.3592233 126.783495,14.5281553 126.699029,14.1058252 C126.614563,13.7679612 126.614563,13.3456311 126.952427,13.261165 C128.050485,12.838835 129.23301,12.838835 130.331068,13.261165 C130.584466,13.261165 130.668932,13.5145631 130.668932,13.6834951 C130.753398,13.9368932 130.668932,14.1058252 130.415534,14.3592233 C130.07767,14.4436893 129.739806,14.0213592 129.739806,14.3592233 C129.739806,14.6970874 129.486408,15.1194175 128.979612,15.2883495 C128.895146,15.3728155 128.979612,15.7106796 129.064078,16.0485437 C129.064078,16.1330097 129.064078,16.3864078 129.148544,16.3864078 C129.570874,16.4708738 130.246602,16.6398058 130.584466,16.8087379 C131.006796,17.0621359 131.76699,17.6533981 131.935922,17.568932 C132.273786,17.315534 132.358252,17.0621359 132.61165,16.8087379 C133.794175,17.315534 134.807767,17.6533981 136.328155,18.6669903 C136.581553,18.6669903 136.581553,18.2446602 136.581553,17.9912621 C135.990291,17.6533981 134.385437,16.8087379 134.132039,16.7242718 C133.709709,16.6398058 133.456311,16.3864078 133.033981,16.3019417 C133.033981,16.3019417 133.033981,15.7951456 133.033981,15.4572816 C133.794175,15.7106796 135.314563,15.7951456 136.919417,16.6398058 C137.003883,16.3019417 137.257282,16.1330097 137.172816,15.9640777 C135.399029,15.1194175 134.132039,14.7815534 132.949515,14.7815534 C132.949515,14.6970874 132.696117,14.5281553 132.949515,14.4436893 C133.287379,14.1902913 133.371845,14.1058252 133.540777,14.0213592 C133.878641,13.5990291 134.132039,13.176699 134.216505,12.7543689 C134.554369,12.0786408 134.892233,12.3320388 135.061165,10.8961165 C134.723301,10.8961165 134.638835,11.1495146 134.300971,11.2339806 C134.385437,10.8961165 134.554369,10.5582524 134.554369,10.3048544 C134.638835,9.62912621 134.892233,9.20679612 134.892233,8.44660194 C135.230097,8.36213592 135.736893,8.02427184 135.905825,7.60194175 C135.905825,7.51747573 135.905825,7.17961165 135.990291,6.75728155 C135.990291,6.0815534 136.074757,5.57475728 135.905825,5.15242718 C135.905825,5.06796117 135.145631,3.96990291 134.554369,3.63203883 C133.794175,3.29417476 133.456311,3.37864078 132.865049,3.54757282 C132.18932,3.54757282 131.34466,4.22330097 131.34466,5.40582524 C130.668932,5.40582524 129.401942,5.49029126 128.557282,6.16601942 C127.881553,5.82815534 127.374757,5.74368932 126.783495,5.6592233 C126.445631,5.6592233 126.107767,5.6592233 125.769903,5.6592233 C125.685437,5.2368932 125.432039,4.81456311 125.009709,4.47669903 C124.418447,4.13883495 123.827184,3.71650485 123.06699,3.71650485 C122.729126,3.71650485 122.391262,3.63203883 122.053398,3.80097087 C121.715534,4.05436893 121.208738,4.22330097 121.039806,4.64563107 C120.786408,5.15242718 120.617476,5.57475728 120.617476,6.16601942 C120.617476,6.67281553 120.95534,7.09514563 121.293204,7.68640777 C121.37767,7.93980583 121.546602,7.93980583 121.715534,8.02427184 C121.8,8.02427184 122.306796,8.2776699 122.391262,8.36213592 C122.475728,8.44660194 122.306796,8.78446602 122.306796,9.46019417 C122.306796,9.96699029 122.306796,9.96699029 122.391262,10.3893204 C122.391262,10.8116505 122.475728,11.2339806 122.64466,11.5718447 C122.306796,11.5718447 122.053398,11.2339806 121.884466,11.4873786 C121.884466,11.7407767 122.137864,12.2475728 122.306796,12.6699029 C122.898058,13.176699 123.404854,13.7679612 123.742718,14.3592233 C123.742718,14.4436893 123.742718,14.6970874 123.827184,14.6970874 C123.06699,14.7815534 122.306796,14.7815534 121.546602,15.0349515 C120.870874,15.2883495 120.11068,15.5417476 119.434951,15.8796117 C119.434951,16.3019417 119.519417,16.6398058 119.519417,16.6398058 C119.603883,16.6398058 120.617476,16.1330097 121.462136,15.8796117 C122.898058,15.4572816 123.658252,15.5417476 123.658252,15.5417476 C123.742718,15.7951456 123.91165,16.0485437 123.742718,16.2174757 C122.391262,16.7242718 121.124272,17.4 119.857282,18.1601942 C119.941748,18.4135922 119.857282,18.6669903 120.11068,18.9203883 C121.208738,18.2446602 122.729126,17.484466 123.827184,17.0621359 C124.249515,16.9776699 124.249515,17.0621359 124.502913,17.0621359 C124.671845,16.9776699 124.840777,17.4 125.094175,17.4 Z M132.104854,15.8796117 C131.682524,15.7951456 131.34466,15.4572816 130.753398,15.4572816 C130.753398,15.1194175 130.753398,15.1194175 130.837864,15.0349515 C131.513592,14.9504854 131.851456,15.1194175 132.18932,15.2883495 C132.273786,15.3728155 132.104854,15.8796117 132.104854,15.8796117 Z M133.371845,9.29126214 C133.287379,9.54466019 133.033981,9.62912621 132.780583,9.71359223 C132.696117,9.71359223 132.527184,9.96699029 132.527184,10.0514563 C132.273786,10.3893204 131.935922,10.4737864 131.513592,10.4737864 C131.260194,10.4737864 130.837864,10.4737864 130.668932,10.0514563 C130.668932,10.0514563 130.753398,11.3184466 130.753398,11.6563107 C130.753398,11.7407767 130.837864,11.7407767 130.837864,11.7407767 C131.260194,11.8252427 131.429126,12.2475728 131.598058,12.5009709 C131.598058,12.5009709 131.682524,12.5854369 131.851456,12.5854369 C132.273786,12.923301 133.287379,13.3456311 132.865049,13.3456311 C132.865049,13.5990291 132.527184,14.1058252 132.442718,14.1058252 C132.104854,13.7679612 131.598058,13.5990291 131.091262,13.3456311 C131.006796,13.092233 130.837864,12.923301 130.753398,12.6699029 C130.5,12.4165049 130.415534,12.4165049 130.07767,12.2475728 C130.07767,11.4873786 129.993204,11.4873786 129.993204,10.7271845 C129.993204,10.6427184 129.739806,9.46019417 129.739806,9.46019417 C129.739806,9.37572816 130.07767,9.03786408 130.415534,8.95339806 C130.415534,8.95339806 132.527184,8.95339806 133.456311,9.03786408 C133.540777,9.03786408 133.456311,9.29126214 133.371845,9.29126214 Z M132.696117,4.73009709 C133.033981,4.39223301 133.456311,4.30776699 133.878641,4.39223301 C134.469903,4.47669903 134.554369,4.64563107 134.723301,4.81456311 C135.061165,5.2368932 134.976699,6.0815534 134.807767,6.67281553 C134.723301,7.01067961 134.385437,7.17961165 134.047573,7.17961165 C133.456311,6.5038835 132.949515,6.0815534 132.18932,5.91262136 C132.104854,5.49029126 132.442718,5.06796117 132.696117,4.73009709 Z M130.584466,6.92621359 C130.837864,6.92621359 132.696117,7.34854369 131.429126,7.85533981 C131.175728,8.10873786 130.668932,7.93980583 130.07767,7.93980583 C130.07767,7.68640777 130.07767,7.26407767 129.824272,7.26407767 C129.570874,7.01067961 129.23301,7.01067961 129.23301,6.84174757 C128.979612,6.41941748 130.07767,6.75728155 130.584466,6.92621359 Z M126.107767,7.34854369 C126.445631,7.09514563 126.783495,6.92621359 126.952427,6.92621359 C127.205825,6.84174757 127.628155,6.67281553 127.628155,6.92621359 C127.628155,7.34854369 127.290291,7.60194175 126.952427,8.02427184 C126.699029,8.36213592 126.614563,8.10873786 126.107767,8.10873786 C126.023301,8.10873786 125.516505,8.10873786 125.516505,8.10873786 C125.516505,7.77087379 125.769903,7.60194175 126.107767,7.34854369 Z M122.813592,7.43300971 C122.560194,7.17961165 122.137864,6.92621359 121.968932,6.5038835 C121.631068,6.0815534 121.715534,5.6592233 121.715534,5.57475728 C121.968932,4.89902913 122.729126,4.73009709 123.151456,4.64563107 C123.404854,4.64563107 123.573786,4.64563107 123.91165,4.89902913 C124.333981,5.15242718 124.587379,5.15242718 124.756311,5.82815534 C124.756311,5.91262136 124.756311,6.0815534 124.671845,6.0815534 C124.671845,6.0815534 123.996117,6.5038835 123.827184,6.75728155 C123.235922,6.92621359 123.06699,7.43300971 122.813592,7.43300971 Z M124.671845,12.923301 C124.925243,12.5854369 125.347573,12.4165049 125.685437,12.2475728 C126.107767,12.1631068 126.023301,11.3184466 126.023301,11.1495146 C126.107767,10.8961165 126.023301,10.6427184 126.023301,10.3893204 C125.769903,10.4737864 125.769903,10.3893204 125.347573,10.4737864 C124.925243,10.4737864 124.671845,10.2203883 124.502913,10.0514563 C124.249515,9.79805825 123.742718,9.37572816 123.48932,8.95339806 C123.996117,8.86893204 124.502913,8.86893204 125.009709,8.86893204 C125.432039,8.86893204 126.445631,8.86893204 126.445631,8.86893204 C126.783495,8.95339806 127.036893,9.20679612 127.036893,9.37572816 C127.036893,9.46019417 126.952427,10.1359223 126.952427,10.2203883 C126.867961,10.8961165 126.867961,11.0650485 126.699029,12.0786408 C126.699029,12.1631068 126.699029,12.3320388 126.699029,12.4165049 C126.614563,12.6699029 126.107767,12.7543689 125.938835,12.923301 C125.854369,13.261165 125.854369,13.4300971 125.516505,13.5990291 C125.178641,13.6834951 124.925243,14.0213592 124.756311,13.9368932 C124.333981,13.7679612 124.418447,13.261165 124.671845,12.923301 Z M124.671845,15.2883495 C124.671845,15.2883495 125.094175,15.2038835 125.432039,15.2038835 C125.685437,15.2038835 125.854369,15.2038835 126.107767,15.2883495 C126.023301,15.3728155 125.516505,15.6262136 125.516505,15.6262136 C125.263107,15.7106796 125.178641,15.8796117 124.840777,15.9640777 C124.756311,15.7106796 124.671845,15.2883495 124.671845,15.2883495 Z M136.243689,20.4407767 C136.581553,20.8631068 136.919417,21.2009709 137.257282,21.538835 C137.341748,21.792233 137.679612,21.792233 137.93301,21.792233 C138.524272,21.792233 138.946602,21.792233 139.031068,21.792233 C139.368932,21.707767 139.62233,21.707767 139.791262,21.4543689 C139.368932,21.2009709 138.77767,21.0320388 138.35534,20.7786408 C137.93301,20.5252427 137.595146,20.3563107 137.257282,20.0184466 C137.003883,20.0184466 136.919417,20.1029126 136.834951,20.1029126 C136.497087,20.1873786 136.412621,20.3563107 136.243689,20.4407767 Z M141.058252,24.0728155 C141.142718,24.0728155 141.649515,24.0728155 141.649515,24.0728155 C141.902913,24.0728155 141.902913,23.6504854 141.649515,23.6504854 C140.88932,23.3970874 140.213592,23.2281553 139.791262,22.5524272 C139.706796,22.6368932 139.031068,22.8902913 138.77767,23.0592233 C138.77767,23.0592233 139.031068,23.5660194 139.537864,24.1572816 C139.875728,24.4951456 140.46699,24.3262136 141.058252,24.0728155 Z M156.008738,39.7834951 C155.924272,40.1213592 155.75534,40.2902913 155.586408,40.5436893 C155.670874,40.6281553 155.924272,40.6281553 156.008738,40.6281553 C156.262136,40.6281553 156.684466,40.6281553 157.106796,40.6281553 C157.191262,40.5436893 157.191262,40.2058252 157.360194,39.9524272 C157.360194,39.6990291 157.44466,39.5300971 157.44466,39.192233 C157.44466,39.192233 157.191262,39.192233 156.768932,39.192233 C156.431068,39.276699 156.17767,39.4456311 156.008738,39.7834951 Z M147.224272,30.323301 C147.139806,30.0699029 146.970874,29.8165049 146.886408,29.5631068 C146.886408,29.4786408 146.886408,29.2252427 146.801942,28.8873786 C146.801942,28.8873786 146.041748,29.3941748 145.957282,29.5631068 C146.379612,30.0699029 146.21068,30.407767 146.295146,30.8300971 C146.295146,31.0834951 146.717476,31.1679612 146.886408,31.5058252 C146.886408,31.5902913 146.63301,32.6038835 146.63301,32.6038835 C147.224272,31.7592233 147.224272,30.661165 147.224272,30.323301 Z M152.967961,36.0669903 C152.376699,36.0669903 151.785437,36.7427184 151.278641,38.7699029 C151.194175,39.5300971 151.025243,40.2058252 151.194175,40.6281553 L152.207767,40.7126214 C152.461165,40.3747573 152.461165,39.8679612 152.630097,39.4456311 C152.630097,39.192233 152.883495,39.192233 153.052427,39.192233 C153.305825,39.276699 153.728155,39.8679612 153.897087,40.0368932 C153.981553,39.7834951 154.234951,39.361165 154.234951,39.107767 C154.234951,39.023301 153.897087,38.7699029 153.812621,38.7699029 C153.474757,38.5165049 153.221359,38.3475728 152.799029,38.3475728 C152.714563,37.9252427 153.305825,37.4184466 153.305825,37.4184466 C154.066019,37.4184466 154.826214,38.2631068 154.826214,38.2631068 C155.079612,38.1786408 155.164078,37.8407767 155.417476,37.5873786 C154.826214,36.3203883 153.643689,36.0669903 152.967961,36.0669903 Z M144.099029,28.4650485 C144.014563,28.8029126 143.676699,28.9718447 143.676699,29.3941748 C143.676699,29.3941748 144.267961,29.9009709 144.352427,30.238835 C144.436893,30.492233 144.352427,31.4213592 144.436893,31.6747573 C144.774757,31.3368932 145.028155,31.2524272 145.028155,30.8300971 C144.943689,30.7456311 144.774757,29.9009709 144.690291,29.2252427 C144.690291,29.0563107 144.352427,28.7184466 144.099029,28.4650485 Z M134.216505,20.7786408 C134.216505,20.7786408 134.300971,21.2854369 134.554369,21.876699 C134.638835,22.1300971 134.892233,22.2990291 134.976699,22.2990291 C135.230097,22.3834951 135.652427,22.5524272 135.990291,22.5524272 C135.990291,22.5524272 135.990291,22.4679612 135.990291,22.2990291 C135.652427,21.961165 135.230097,21.2009709 135.230097,21.0320388 C134.976699,20.9475728 134.976699,20.9475728 134.723301,20.9475728 C134.554369,20.7786408 134.300971,20.7786408 134.216505,20.7786408 Z M139.537864,25.5932039 C139.284466,25.3398058 139.115534,25.1708738 138.77767,24.9174757 C138.35534,24.8330097 138.101942,24.5796117 137.93301,24.1572816 C137.848544,23.9038835 137.679612,23.7349515 137.51068,23.4815534 C137.257282,23.4815534 137.172816,23.5660194 137.003883,23.7349515 C136.750485,23.9883495 136.328155,23.9883495 136.159223,24.2417476 C136.243689,24.4951456 136.412621,24.6640777 136.581553,24.9174757 C136.666019,25.0019417 136.834951,25.2553398 137.257282,25.4242718 C138.017476,25.8466019 138.270874,25.931068 138.270874,25.931068 C138.77767,26.1 139.537864,25.5932039 139.537864,25.5932039 Z M117.407767,9.96699029 C117.661165,9.62912621 117.661165,9.62912621 117.830097,9.46019417 C118.252427,9.1223301 118.505825,8.95339806 119.012621,8.53106796 C119.097087,8.2776699 119.266019,8.44660194 119.603883,8.19320388 C119.68835,8.10873786 119.857282,7.93980583 119.857282,7.85533981 C119.857282,7.60194175 119.772816,7.43300971 119.603883,7.17961165 C119.519417,6.92621359 119.266019,6.41941748 119.266019,6.33495146 C119.266019,5.49029126 119.350485,5.2368932 119.519417,4.47669903 C119.097087,4.39223301 118.505825,4.39223301 118.336893,4.81456311 C118.083495,5.15242718 118.083495,5.49029126 118.083495,5.74368932 C118.083495,6.25048544 118.167961,6.67281553 118.336893,7.34854369 C117.914563,7.68640777 117.661165,7.85533981 117.238835,8.10873786 C117.238835,8.78446602 117.407767,9.96699029 117.407767,9.96699029 Z M134.216505,24.0728155 C133.794175,23.3970874 133.625243,22.8058252 133.625243,22.6368932 C133.371845,22.3834951 133.878641,21.707767 133.287379,21.707767 C133.033981,21.623301 132.442718,21.3699029 132.442718,21.3699029 C132.358252,21.707767 132.358252,22.2990291 132.442718,22.6368932 C132.442718,22.9747573 132.949515,23.9038835 133.202913,24.0728155 C133.287379,24.1572816 133.878641,24.1572816 133.963107,24.1572816 C134.132039,24.0728155 134.216505,24.0728155 134.216505,24.0728155 Z M130.837864,20.1029126 C131.091262,19.8495146 131.260194,19.4271845 131.260194,19.3427184 C131.513592,18.9203883 131.513592,18.4135922 131.513592,17.9067961 C130.668932,17.4 129.570874,17.231068 128.472816,17.231068 C127.459223,17.231068 126.361165,17.315534 125.263107,18.0757282 C125.347573,18.4980583 125.516505,18.8359223 125.685437,19.2582524 C125.769903,19.2582524 125.938835,19.5116505 126.023301,19.5116505 C126.276699,19.2582524 126.445631,19.0048544 126.783495,18.8359223 C126.783495,18.9203883 126.783495,19.0893204 126.783495,19.2582524 C126.783495,19.5961165 126.783495,19.7650485 126.867961,20.1029126 C126.867961,20.4407767 127.205825,20.4407767 127.628155,20.4407767 C128.050485,20.4407767 128.219417,19.6805825 128.219417,19.5961165 C128.219417,19.5961165 128.303883,20.0184466 128.979612,20.3563107 C128.979612,20.3563107 129.739806,20.3563107 129.739806,20.2718447 C129.824272,19.7650485 129.993204,19.5961165 129.824272,19.1737864 C129.824272,19.2582524 130.5,19.6805825 130.837864,20.1029126 Z M135.145631,27.1135922 C135.567961,27.4514563 136.497087,27.3669903 137.257282,27.1980583 C136.834951,26.8601942 136.666019,26.6912621 136.497087,26.4378641 C136.159223,26.184466 135.990291,26.1 135.483495,25.6776699 C135.061165,25.6776699 134.638835,25.6776699 134.047573,25.6776699 C134.216505,26.268932 134.300971,26.6067961 135.145631,27.1135922 Z M141.565049,31.0834951 C141.480583,30.9990291 141.227184,30.8300971 140.973786,30.7456311 C140.973786,30.8300971 140.973786,30.9990291 140.973786,31.1679612 C140.973786,31.5902913 141.058252,31.6747573 141.058252,31.9281553 C141.058252,32.1815534 141.396117,33.6174757 141.396117,34.0398058 C141.987379,34.1242718 141.987379,34.5466019 142.240777,34.8 C142.240777,34.8 141.987379,33.5330097 141.987379,31.9281553 C142.156311,31.8436893 141.818447,31.1679612 141.565049,31.0834951 Z M118.083495,11.9097087 C118.167961,11.8252427 119.434951,10.9805825 119.519417,10.8116505 C119.772816,10.5582524 119.857282,10.7271845 119.941748,10.4737864 C119.941748,9.79805825 120.195146,9.79805825 120.026214,9.62912621 C119.941748,9.37572816 119.012621,9.62912621 118.843689,9.62912621 C118.252427,9.71359223 117.323301,10.0514563 117.323301,10.3048544 C117.238835,10.6427184 117.238835,11.4029126 117.238835,11.4873786 C117.323301,11.8252427 117.323301,12.1631068 117.492233,12.4165049 C117.745631,12.1631068 117.830097,12.0786408 118.083495,11.9097087 Z M130.837864,22.0456311 C130.5,22.2990291 130.331068,22.3834951 130.331068,22.5524272 C130.331068,22.9747573 130.415534,23.3970874 130.415534,23.6504854 C130.415534,23.9883495 130.415534,24.1572816 130.5,24.3262136 C130.837864,24.4106796 130.92233,24.4106796 131.34466,24.6640777 C131.34466,24.7485437 131.76699,25.0019417 131.76699,25.0019417 C131.76699,25.0019417 131.513592,24.0728155 131.429126,23.5660194 C131.429126,23.0592233 131.429126,22.4679612 131.429126,21.876699 C131.006796,21.961165 130.92233,22.0456311 130.837864,22.0456311 Z M129.401942,22.2990291 C128.979612,22.3834951 128.050485,22.5524272 128.050485,22.8058252 C127.966019,23.1436893 128.050485,23.4815534 128.050485,23.6504854 C128.134951,23.9038835 128.134951,24.0728155 128.134951,24.4106796 C128.134951,24.6640777 128.050485,24.8330097 128.134951,25.1708738 C128.219417,24.9174757 128.81068,24.7485437 128.895146,24.4951456 C129.148544,24.1572816 129.317476,23.9883495 129.486408,23.6504854 C129.570874,23.3126214 129.486408,22.8058252 129.401942,22.2990291 Z M133.709709,28.2116505 C133.371845,27.9582524 132.865049,27.3669903 132.527184,27.0291262 C132.273786,26.7757282 132.442718,26.5223301 132.18932,26.268932 C131.935922,26.268932 131.76699,26.268932 131.513592,26.3533981 C131.175728,26.3533981 130.92233,26.3533981 130.668932,26.4378641 C130.753398,26.6912621 130.753398,26.8601942 131.006796,26.9446602 C131.429126,27.3669903 131.429126,27.4514563 131.851456,28.1271845 C131.935922,28.3805825 132.527184,28.4650485 132.949515,28.4650485 C133.118447,28.4650485 133.540777,28.2961165 133.709709,28.2116505 Z M116.647573,16.0485437 C116.900971,15.7106796 117.492233,15.1194175 117.830097,14.6126214 C118.083495,14.3592233 118.505825,13.8524272 119.603883,13.3456311 C119.68835,12.923301 119.857282,12.5854369 119.857282,12.1631068 C118.759223,12.5009709 117.999029,12.6699029 117.745631,12.923301 C117.154369,13.261165 116.985437,13.4300971 116.394175,13.7679612 C116.394175,14.4436893 116.394175,14.4436893 116.478641,14.6970874 L116.647573,16.0485437 Z M127.205825,25.1708738 C127.543689,24.8330097 127.205825,24.3262136 127.205825,23.9883495 C127.121359,23.6504854 127.205825,23.3126214 127.121359,23.0592233 C127.036893,22.8058252 126.783495,22.7213592 126.530097,22.7213592 C126.276699,22.7213592 125.769903,22.3834951 125.769903,22.6368932 C125.178641,22.6368932 125.685437,23.1436893 125.685437,23.4815534 C125.685437,23.9038835 126.783495,25.0019417 126.783495,25.0019417 C126.952427,25.0864078 126.952427,24.9174757 127.205825,25.1708738 Z M124.165049,23.4815534 C124.249515,23.0592233 124.587379,22.8058252 124.587379,22.0456311 C124.587379,22.0456311 124.502913,21.538835 124.333981,21.2854369 C124.249515,21.0320388 124.080583,20.8631068 123.742718,20.6097087 C123.658252,20.6097087 123.404854,20.3563107 123.320388,20.5252427 C123.320388,20.5252427 123.235922,21.3699029 123.06699,21.4543689 C123.320388,21.792233 123.48932,21.961165 123.573786,22.2990291 C123.91165,22.7213592 123.996117,23.1436893 124.165049,23.4815534 Z M121.884466,20.1029126 C121.8,19.8495146 121.462136,19.7650485 121.208738,19.6805825 C120.95534,19.6805825 120.786408,20.1029126 120.786408,20.5252427 C120.786408,20.7786408 120.870874,21.4543689 121.039806,21.792233 C121.039806,21.876699 121.293204,22.0456311 121.462136,22.1300971 C121.8,22.3834951 122.137864,22.4679612 122.475728,22.6368932 C122.475728,22.6368932 122.137864,21.707767 122.053398,21.1165049 C121.884466,20.8631068 122.137864,20.4407767 121.884466,20.1029126 Z M131.682524,31.7592233 C131.76699,31.7592233 131.935922,31.5058252 131.935922,31.5058252 C131.851456,31.0834951 131.682524,30.576699 131.598058,30.0699029 C131.598058,30.0699029 131.260194,29.8165049 130.92233,29.8165049 C130.668932,29.8165049 130.5,29.7320388 130.246602,29.8165049 C130.331068,30.1543689 130.331068,30.323301 130.5,30.661165 C130.837864,31.1679612 131.260194,31.4213592 131.682524,31.7592233 Z M116.732039,16.4708738 C116.732039,16.4708738 116.732039,16.8087379 116.732039,16.9776699 C116.732039,17.231068 116.816505,18.4135922 116.816505,18.6669903 C116.900971,19.0048544 116.900971,19.3427184 117.069903,19.5961165 C117.154369,19.8495146 117.323301,20.0184466 117.323301,20.2718447 C117.323301,20.2718447 117.576699,20.1873786 117.661165,19.9339806 C117.999029,19.5961165 118.083495,19.2582524 118.336893,18.8359223 C118.252427,18.0757282 117.999029,17.4 117.999029,17.231068 C117.999029,16.3864078 118.083495,16.1330097 118.252427,15.6262136 C117.745631,15.8796117 117.154369,16.2174757 116.732039,16.4708738 Z M127.543689,28.8029126 C127.881553,28.7184466 128.134951,28.4650485 128.38835,28.3805825 C128.641748,28.2961165 128.81068,26.5223301 128.81068,26.5223301 C128.81068,26.5223301 128.134951,26.6067961 128.050485,26.7757282 C127.966019,26.7757282 127.459223,26.7757282 127.290291,27.0291262 C127.290291,27.3669903 127.290291,27.7048544 127.205825,28.1271845 C126.952427,28.4650485 126.445631,28.6339806 126.445631,29.2252427 C126.445631,29.2252427 126.867961,29.3097087 127.036893,29.3097087 C127.205825,29.1407767 127.374757,28.9718447 127.543689,28.8029126 Z M139.368932,39.6145631 C139.115534,40.0368932 138.946602,40.4592233 138.946602,40.7126214 L140.129126,40.7126214 C140.46699,40.2902913 140.551456,39.8679612 140.382524,39.192233 C140.04466,39.276699 139.368932,38.938835 139.368932,39.6145631 Z M140.298058,34.631068 C140.04466,34.5466019 138.017476,33.5330097 137.679612,33.5330097 C137.003883,33.6174757 135.905825,33.6174757 135.230097,33.9553398 C135.145631,33.6174757 134.976699,33.1106796 135.230097,32.7728155 C135.314563,32.5194175 136.412621,32.5194175 136.750485,32.5194175 C137.93301,32.6038835 138.608738,32.8572816 138.946602,32.8572816 C139.284466,33.1951456 139.62233,33.1951456 139.706796,33.1951456 C139.706796,33.1951456 139.62233,32.5194175 139.453398,32.3504854 C139.031068,32.0970874 138.608738,32.0126214 138.270874,31.9281553 C137.679612,31.6747573 137.51068,31.5902913 136.581553,31.5058252 C136.243689,31.5058252 136.243689,31.5902913 135.567961,31.5902913 C135.567961,31.5058252 135.652427,31.3368932 135.821359,31.2524272 C136.074757,30.9145631 136.243689,30.7456311 136.497087,30.492233 C137.257282,30.492233 137.93301,30.492233 138.270874,30.492233 C138.693204,30.576699 138.946602,30.7456311 139.453398,30.9145631 C139.791262,30.9145631 139.453398,30.407767 139.453398,30.0699029 C139.368932,29.9854369 139.2,29.8165049 139.031068,29.7320388 C138.608738,29.6475728 138.270874,29.4786408 137.848544,29.3097087 C137.51068,29.2252427 136.834951,28.9718447 136.328155,29.0563107 C135.736893,29.3097087 135.736893,29.1407767 135.314563,29.3941748 C134.807767,30.1543689 134.469903,30.9990291 134.132039,31.8436893 C134.132039,32.0970874 133.540777,33.3640777 133.540777,33.5330097 C133.540777,33.6174757 133.456311,33.8708738 133.456311,33.8708738 C133.033981,33.7864078 131.006796,33.4485437 130.5,33.9553398 C130.246602,34.2087379 130.07767,34.3776699 129.739806,35.0533981 C129.317476,34.715534 128.979612,34.631068 128.557282,34.631068 C127.966019,34.631068 127.374757,34.968932 127.036893,35.4757282 C127.036893,35.5601942 126.192233,37.1650485 126.276699,38.6854369 C126.361165,39.5300971 126.699029,39.8679612 127.121359,40.5436893 L128.303883,40.5436893 C128.219417,40.1213592 127.966019,39.6145631 127.712621,38.938835 C127.628155,38.4320388 127.797087,37.4184466 127.966019,36.5737864 C127.966019,36.5737864 128.303883,36.3203883 128.641748,36.2359223 C128.895146,35.9825243 128.979612,36.1514563 129.317476,36.1514563 C129.401942,36.1514563 129.401942,36.2359223 129.401942,36.2359223 C128.979612,36.6582524 128.979612,37.0805825 128.81068,37.7563107 C128.81068,38.0941748 129.23301,39.6990291 129.65534,40.5436893 C129.908738,40.5436893 130.246602,40.5436893 130.5,40.5436893 C130.5,40.5436893 130.246602,38.4320388 130.415534,38.1786408 C130.415534,37.7563107 130.5,37.4184466 130.668932,37.0805825 C130.92233,37.1650485 131.091262,37.1650485 131.34466,37.3339806 C131.682524,37.5873786 131.682524,37.7563107 131.682524,38.0941748 C131.682524,38.6009709 131.682524,38.7699029 131.598058,39.023301 C131.598058,39.361165 131.598058,39.361165 131.598058,39.5300971 C131.598058,40.0368932 131.682524,40.4592233 131.682524,40.4592233 C132.020388,40.4592233 132.273786,40.4592233 132.527184,40.4592233 C132.527184,39.5300971 132.61165,39.6145631 132.780583,39.023301 C132.865049,38.6009709 132.780583,38.3475728 132.865049,38.0941748 C132.865049,37.8407767 132.949515,37.6718447 133.118447,37.5873786 C133.456311,37.3339806 133.709709,37.3339806 134.132039,37.5029126 C134.132039,37.8407767 134.132039,38.1786408 134.047573,38.4320388 C133.963107,38.938835 133.794175,39.5300971 133.625243,40.0368932 C133.625243,40.1213592 133.540777,40.3747573 133.371845,40.4592233 L134.723301,40.4592233 C134.723301,40.4592233 134.976699,40.0368932 135.061165,39.5300971 C135.399029,39.8679612 135.821359,39.6145631 136.074757,39.6145631 C136.412621,39.5300971 136.666019,39.192233 136.834951,38.938835 C136.412621,38.6009709 135.399029,38.6854369 135.399029,38.2631068 C135.145631,37.5029126 135.399029,37.4184466 135.399029,36.9961165 C135.399029,36.3203883 134.723301,36.1514563 134.047573,36.0669903 C133.794175,35.9825243 133.371845,35.9825243 133.202913,35.9825243 C132.949515,36.0669903 132.780583,36.4048544 132.527184,36.4048544 C132.527184,36.4048544 132.104854,36.0669903 131.76699,35.9825243 C131.513592,35.9825243 130.92233,35.7291262 130.92233,35.7291262 C131.006796,35.4757282 131.175728,35.3067961 131.260194,35.2223301 C131.34466,35.1378641 131.682524,34.8 131.851456,34.8 C132.104854,34.715534 132.442718,34.8 132.61165,34.884466 C133.118447,34.968932 133.625243,35.1378641 133.709709,35.1378641 C133.794175,35.1378641 134.132039,35.3912621 134.132039,35.3912621 C134.469903,35.1378641 134.469903,34.968932 134.638835,34.968932 C135.314563,34.715534 135.483495,34.631068 136.159223,34.631068 C136.750485,34.631068 137.172816,35.5601942 137.51068,35.8980583 C137.595146,36.1514563 138.35534,37.0805825 138.862136,37.9252427 C139.115534,37.8407767 139.2,37.5873786 139.453398,37.5873786 C139.453398,37.3339806 139.368932,36.4893204 139.2,36.4048544 C138.862136,35.4757282 138.186408,35.2223301 138.186408,34.968932 C138.439806,34.968932 138.862136,35.2223301 139.031068,35.2223301 C139.284466,35.3067961 139.62233,35.4757282 139.875728,35.6446602 C139.960194,35.7291262 140.213592,35.8980583 140.298058,35.9825243 C140.382524,36.4048544 140.382524,36.7427184 140.635922,37.1650485 C140.635922,37.2495146 140.635922,37.4184466 140.720388,37.5029126 C141.058252,36.8271845 141.396117,36.7427184 141.565049,36.2359223 C141.396117,35.3912621 140.804854,34.968932 140.298058,34.631068 Z M126.276699,26.1 C126.276699,26.015534 125.938835,26.015534 125.685437,26.015534 C125.432039,26.015534 125.263107,26.1 125.009709,26.1 C124.756311,26.4378641 124.671845,26.7757282 124.587379,27.1980583 C124.502913,27.5359223 124.249515,27.7048544 124.165049,27.9582524 C124.165049,27.9582524 125.178641,27.7048544 125.347573,27.7048544 C125.685437,27.4514563 125.938835,27.3669903 126.107767,26.9446602 C126.276699,26.6912621 126.445631,26.6067961 126.276699,26.1 Z M117.745631,22.3834951 C117.745631,22.3834951 118.083495,22.1300971 118.083495,21.961165 C118.674757,21.2854369 119.266019,20.7786408 119.434951,20.6941748 C119.181553,20.1873786 119.097087,20.0184466 118.759223,19.7650485 C118.674757,19.8495146 118.083495,20.1873786 117.999029,20.4407767 C117.745631,20.5252427 117.576699,20.6941748 117.407767,20.7786408 C117.407767,21.0320388 117.492233,21.1165049 117.661165,21.2854369 C117.576699,21.3699029 117.745631,21.961165 117.745631,22.3834951 Z M129.148544,32.6038835 C129.064078,32.5194175 129.064078,32.2660194 128.895146,32.0970874 C128.641748,31.4213592 128.81068,31.1679612 128.641748,30.492233 C128.641748,30.492233 127.966019,30.492233 127.797087,30.492233 C127.543689,30.576699 127.459223,30.492233 127.205825,30.576699 C127.205825,30.9990291 127.290291,31.3368932 127.628155,31.8436893 C128.050485,32.5194175 129.148544,32.6038835 129.148544,32.6038835 Z M123.235922,24.7485437 C122.982524,24.7485437 122.898058,24.7485437 122.560194,24.7485437 C122.560194,24.7485437 122.306796,25.5932039 122.306796,26.268932 C122.22233,26.6067961 122.053398,26.7757282 122.053398,26.9446602 C121.8,27.3669903 121.715534,27.4514563 121.546602,28.0427184 C121.884466,28.1271845 122.22233,27.9582524 122.391262,27.9582524 C122.64466,27.8737864 122.982524,27.7048544 123.06699,27.6203883 C123.151456,27.5359223 123.48932,26.7757282 123.658252,26.5223301 C123.658252,26.184466 123.658252,25.8466019 123.658252,25.7621359 C123.573786,25.5087379 123.658252,25.0864078 123.658252,24.8330097 C123.573786,24.4951456 123.320388,24.6640777 123.235922,24.7485437 Z M119.012621,24.2417476 C119.266019,23.9038835 119.857282,23.3126214 120.11068,23.0592233 C119.857282,22.8058252 119.772816,22.5524272 119.68835,22.2990291 C119.266019,22.2990291 117.576699,22.9747573 117.576699,22.9747573 C117.914563,23.4815534 118.167961,24.0728155 118.336893,24.6640777 C118.590291,24.4951456 118.843689,24.4106796 119.012621,24.2417476 Z M120.364078,26.6912621 C120.448544,26.3533981 120.364078,26.184466 120.448544,25.8466019 C120.448544,25.5932039 120.448544,25.0864078 120.53301,24.7485437 C120.279612,24.6640777 119.857282,24.8330097 119.519417,24.8330097 C119.181553,24.8330097 118.421359,24.8330097 118.421359,24.9174757 C118.505825,25.1708738 118.505825,25.3398058 118.674757,25.5932039 C118.759223,25.8466019 118.928155,26.015534 118.928155,26.5223301 C118.928155,26.8601942 119.012621,27.1980583 118.928155,27.6203883 C118.928155,27.6203883 120.364078,26.8601942 120.364078,26.6912621 Z M122.898058,29.6475728 C122.306796,29.2252427 121.462136,28.8029126 120.11068,28.3805825 C119.772816,28.2961165 119.012621,28.3805825 118.674757,28.3805825 C117.830097,29.9009709 117.492233,31.2524272 116.816505,32.8572816 C116.732039,33.1951456 116.478641,33.7864078 116.478641,33.7864078 C115.971845,33.4485437 115.380583,33.2796117 114.78932,33.2796117 C113.94466,33.2796117 113.268932,33.6174757 112.931068,34.4621359 C112.593204,34.3776699 112.170874,34.1242718 111.579612,34.2087379 C110.819417,34.2932039 110.143689,34.715534 109.805825,35.3912621 C109.467961,35.8135922 109.383495,36.2359223 109.467961,36.6582524 C108.876699,36.9116505 108.623301,37.4184466 108.369903,37.8407767 C108.116505,38.6854369 108.961165,40.2058252 109.214563,40.5436893 L110.312621,40.5436893 C110.059223,39.6145631 109.636893,39.107767 109.974757,38.1786408 C110.228155,37.6718447 110.98835,37.4184466 111.157282,37.3339806 C111.157282,36.9116505 110.566019,36.5737864 110.734951,36.1514563 C110.98835,35.6446602 111.579612,35.6446602 112.25534,35.7291262 C112.170874,36.4048544 112.001942,37.2495146 111.917476,38.0941748 C111.83301,39.023301 112.339806,40.5436893 112.339806,40.5436893 C112.762136,40.5436893 113.1,40.5436893 113.437864,40.5436893 C113.52233,40.5436893 113.52233,40.5436893 113.52233,40.5436893 C113.437864,40.2058252 113.268932,39.8679612 113.268932,39.6145631 C113.184466,39.276699 113.184466,39.107767 113.184466,38.7699029 C113.268932,38.3475728 113.268932,37.9252427 113.268932,37.5873786 C114.36699,37.0805825 114.029126,37.8407767 114.282524,38.0097087 C114.282524,38.0097087 114.704854,37.0805825 114.198058,36.5737864 C114.113592,36.4893204 113.437864,36.5737864 113.437864,36.4893204 C113.437864,36.4048544 113.52233,36.0669903 113.691262,35.7291262 C113.94466,35.3067961 114.029126,35.2223301 114.282524,34.884466 C114.36699,34.8 114.704854,34.8 115.127184,34.884466 C115.21165,34.884466 115.802913,34.968932 116.140777,35.1378641 C116.056311,35.4757282 115.549515,36.0669903 115.465049,36.4048544 C115.042718,37.6718447 115.042718,39.192233 115.127184,40.6281553 C115.127184,40.6281553 115.802913,40.6281553 116.309709,40.6281553 C116.309709,39.8679612 116.225243,39.023301 116.309709,38.2631068 C116.563107,37.3339806 116.816505,37.1650485 116.985437,37.1650485 C117.238835,37.1650485 117.407767,37.4184466 117.576699,37.5873786 C117.830097,38.6854369 117.154369,39.6145631 117.154369,40.6281553 C117.492233,40.6281553 117.999029,40.6281553 117.999029,40.6281553 C117.999029,40.6281553 118.336893,40.5436893 118.421359,40.2058252 C118.674757,39.5300971 119.097087,38.938835 119.181553,38.2631068 C119.266019,37.7563107 119.097087,37.3339806 118.759223,36.6582524 C118.421359,36.2359223 118.083495,35.8980583 117.323301,35.3912621 C117.069903,34.968932 117.323301,34.4621359 117.323301,34.4621359 C117.323301,34.5466019 117.745631,34.3776699 117.999029,34.3776699 C118.843689,34.631068 119.097087,34.631068 119.519417,34.8 C119.857282,34.884466 120.279612,35.1378641 120.617476,35.3067961 C120.95534,35.5601942 121.293204,36.1514563 121.631068,36.9116505 C121.631068,36.9116505 121.884466,35.4757282 121.884466,35.0533981 C121.462136,34.631068 121.039806,34.2087379 120.364078,33.8708738 C119.772816,33.4485437 118.590291,33.1106796 118.083495,32.9417476 C118.083495,32.9417476 118.336893,32.6038835 118.336893,32.4349515 C119.012621,32.3504854 119.772816,32.3504854 120.11068,32.4349515 C121.208738,32.7728155 122.560194,33.3640777 123.06699,33.8708738 C123.06699,33.8708738 123.320388,33.4485437 123.320388,33.1951456 C123.320388,33.1951456 121.8,32.2660194 121.884466,31.9281553 C121.462136,31.5902913 121.124272,31.2524272 120.701942,31.1679612 C120.026214,31.0834951 118.759223,30.9145631 118.759223,30.9145631 C118.759223,30.9145631 119.097087,30.492233 119.434951,30.1543689 C119.772816,30.1543689 119.941748,30.1543689 120.279612,30.1543689 C120.701942,30.1543689 121.8,30.492233 122.475728,30.8300971 C123.48932,31.2524272 123.996117,31.5902913 124.165049,31.7592233 C124.249515,31.4213592 124.418447,30.9990291 124.502913,30.8300971 C123.235922,30.323301 123.320388,29.9009709 122.898058,29.6475728 Z M120.870874,38.5165049 C120.11068,38.5165049 120.279612,39.6990291 120.11068,40.2058252 C120.026214,40.2902913 119.857282,40.5436893 120.026214,40.6281553 C120.701942,40.6281553 121.039806,40.6281553 121.715534,40.6281553 C121.715534,40.6281553 121.8,39.6990291 121.8,39.4456311 C121.715534,39.276699 121.37767,38.6854369 120.870874,38.5165049 Z" id="Shape" fill-rule="nonzero"></path>
            </g>
        </g>
    </g>
</svg>