<?xml version="1.0" encoding="UTF-8"?>
<svg width="102px" height="80px" viewBox="0 0 102 80" version="1.1" xmlns="http://www.w3.org/2000/svg" xmlns:xlink="http://www.w3.org/1999/xlink">
    <title>Artboard</title>
    <g id="Artboard" stroke="none" stroke-width="1" fill="none" fill-rule="evenodd">
        <g id="Payment-method-/-CartaSi-(white)" transform="translate(0.000000, -11.000000)">
            <g id="CartaSi" transform="translate(0.000000, 14.450000)">
                <g id="Group" transform="translate(0.000000, 46.561919)" fill="#000000" fill-rule="nonzero">
                    <path d="M19.4189046,1.28485086 C18.9029193,1.0177555 16.9404792,0.145643032 13.3490318,0.145643032 C5.36460147,0.145643032 0,5.50301222 0,13.4769682 C0,21.3082738 4.95011736,26.3683716 12.6108411,26.3683716 C15.8346895,26.3683716 18.2525134,25.7154719 19.3435892,25.1565917 C19.4892323,25.0817751 19.5645477,24.9169291 19.525643,24.7578191 L18.8979315,22.1916088 C18.8724939,22.0881125 18.8016675,22.0013252 18.7054034,21.9559364 C18.60889,21.9105477 18.4971638,21.9110465 18.4011491,21.9574328 C17.1330073,22.568934 15.1688215,22.9490024 13.2749633,22.9490024 C7.53203912,22.9490024 4.10319315,19.3670318 4.10319315,13.3672372 C4.10319315,7.29861125 7.68840587,3.52885086 13.4597604,3.52885086 C15.9257164,3.52885086 17.5422543,4.1488313 18.2864303,4.51867482 C18.3792029,4.56481174 18.4879364,4.5678044 18.5827042,4.52715403 C18.6779707,4.48650367 18.7505428,4.40620049 18.7812176,4.30719315 L19.5934768,1.70407335 C19.6448509,1.54022494 19.5712812,1.3636577 19.4189046,1.28485086 Z" id="Path"></path>
                    <path d="M35.9985183,21.3588998 L35.9985183,14.7231638 C35.9985183,11.2673839 34.7585575,7.14773105 28.8520342,7.14773105 C26.6434474,7.14773105 24.36578,7.74327139 22.7584694,8.74057702 C22.618313,8.8273643 22.5569633,8.99919315 22.6103325,9.15506112 L23.3487726,11.3180098 C23.3841858,11.4220049 23.4662347,11.503555 23.5702298,11.5387188 C23.6752225,11.574132 23.7891932,11.5584205 23.88022,11.4973203 C25.0545917,10.7085037 26.7334768,10.2374083 28.3754523,10.2374083 L28.4455306,10.2371589 C30.8568704,10.2371589 32.0796235,11.4875941 32.0796235,13.9533007 L32.0796235,13.9667677 C25.1493594,14.0121565 21.335956,16.4771149 21.335956,20.918978 C21.335956,23.6268411 23.3343081,26.3683716 27.1534474,26.3683716 C29.2465672,26.3683716 31.1795795,25.543643 32.4596919,24.1326015 L32.6352616,25.6523765 C32.6559609,25.8306895 32.8070905,25.96511 32.986401,25.96511 L35.9030024,25.96511 C35.9049976,25.9653594 35.9069927,25.9653594 35.9079902,25.96511 C36.1032616,25.96511 36.2616235,25.8069976 36.2616235,25.6117262 C36.2616235,25.5730709 36.2553888,25.535912 36.2439169,25.5012469 C36.0835599,24.417154 35.9985183,22.9866601 35.9985183,21.3588998 Z M27.965956,23.278445 C26.2915599,23.278445 25.2917604,22.2591932 25.2917604,20.5523765 C25.2917604,18.1315599 27.5432421,16.9043178 31.9833594,16.9043178 C32.0399707,16.9043178 32.0968313,16.9045672 32.1536919,16.9048166 L32.1536919,19.6356235 C32.1536919,19.8570807 32.1304988,20.1969976 32.0250073,20.5471394 C31.5918191,21.8073007 30.2688117,23.278445 27.965956,23.278445 Z" id="Shape"></path>
                    <path d="M48.725824,7.22379462 L48.6502592,7.21431785 C48.3784254,7.1799022 48.1218044,7.14773105 47.7961027,7.14773105 C45.8142103,7.14773105 44.0333252,8.27372127 43.0011051,10.1007433 L42.9068362,7.85275306 C42.8988557,7.66346699 42.7432372,7.51433252 42.5537017,7.51433252 L39.7106699,7.51433252 C39.6126601,7.51433252 39.5191394,7.5547335 39.4525526,7.62630807 C39.385467,7.69763325 39.3515501,7.79364792 39.3580342,7.89140831 C39.4595355,9.40295355 39.5049242,11.1027873 39.5049242,13.4036479 L39.5049242,25.6117262 C39.5049242,25.8069976 39.6630367,25.96511 39.8583081,25.96511 L43.1073447,25.96511 C43.3026161,25.96511 43.4607286,25.8069976 43.4607286,25.6117262 L43.4607286,16.1531589 C43.4607286,15.6356773 43.4993839,15.1092176 43.5657213,14.7139364 C43.996665,12.359956 45.5328998,10.8975403 47.5743961,10.8975403 C48.0023472,10.8975403 48.3113399,10.8975403 48.605868,10.9626308 C48.7108606,10.9860733 48.8198435,10.9601369 48.9033888,10.8930513 C48.986934,10.8259658 49.0353158,10.7247139 49.0353158,10.6177262 L49.0353158,7.57493399 C49.0355648,7.39637164 48.90289,7.24574083 48.725824,7.22379462 Z" id="Path"></path>
                    <path d="M60.9762983,7.51433252 L56.6778337,7.51433252 L56.6778337,3.61488998 C56.6778337,3.50316381 56.6249633,3.39792176 56.5354328,3.33133496 C56.4459022,3.26424939 56.329687,3.24429829 56.2229487,3.27622005 L53.0479804,4.22938386 C52.8983472,4.27427384 52.7960978,4.41168704 52.7960978,4.5678044 L52.7960978,7.51383374 L50.3805183,7.51383374 C50.1852469,7.51383374 50.0271345,7.67194621 50.0271345,7.8672176 L50.0271345,10.3234474 C50.0271345,10.5187188 50.1852469,10.6768313 50.3805183,10.6768313 L52.7960978,10.6768313 L52.7960978,20.0022249 C52.7960978,22.2823863 53.2362689,23.8827139 54.1445428,24.8972274 C55.0166553,25.8459022 56.3546259,26.3678729 57.9120587,26.3678729 C59.3784645,26.3678729 60.4189144,26.0798289 60.9087139,25.908 C61.0578484,25.8556284 61.1541125,25.7107335 61.1446357,25.5531198 L60.9969976,23.09689 C60.9905134,22.9886553 60.9346504,22.8896479 60.845868,22.8277995 C60.7568362,22.7659511 60.6443619,22.7484939 60.5408655,22.7801663 C60.1391002,22.9028655 59.6827188,22.984665 58.760978,22.984665 C57.2811051,22.984665 56.6778337,22.0886112 56.6778337,19.8919951 L56.6778337,10.6768313 L60.9762983,10.6768313 C61.1715697,10.6768313 61.3296822,10.5187188 61.3296822,10.3234474 L61.3296822,7.8672176 C61.3296822,7.67244499 61.1715697,7.51433252 60.9762983,7.51433252 Z" id="Path"></path>
                    <path d="M77.8796186,21.3588998 L77.8796186,14.7231638 C77.8796186,11.2673839 76.6396577,7.14773105 70.7331345,7.14773105 C68.5247971,7.14773105 66.2468802,7.74327139 64.6395697,8.74057702 C64.4996626,8.8273643 64.4380636,8.99919315 64.4914328,9.15506112 L65.2298729,11.3180098 C65.2652861,11.4220049 65.347335,11.503555 65.4513301,11.5387188 C65.5563227,11.574132 65.6702934,11.5584205 65.7613203,11.4973203 C66.9356919,10.7085037 68.614577,10.2374083 70.2565526,10.2374083 L70.3266308,10.2371589 C72.7379707,10.2371589 73.9607237,11.4875941 73.9607237,13.9533007 L73.9607237,13.9667677 C67.0304597,14.0121565 63.2170562,16.4771149 63.2170562,20.918978 C63.2170562,23.6268411 65.2154083,26.3683716 69.0345477,26.3683716 C71.1276675,26.3683716 73.0606797,25.543643 74.3407922,24.1326015 L74.5163619,25.6523765 C74.5370611,25.8306895 74.6881907,25.96511 74.8675012,25.96511 L77.7841027,25.96511 C77.7860978,25.9653594 77.7878435,25.9653594 77.7890905,25.96511 C77.9843619,25.96511 78.1427237,25.8069976 78.1427237,25.6117262 C78.1427237,25.5730709 78.136489,25.535912 78.1250171,25.5012469 C77.9646601,24.417154 77.8796186,22.9866601 77.8796186,21.3588998 Z M69.8470562,23.278445 C68.1726601,23.278445 67.1728606,22.2591932 67.1728606,20.5523765 C67.1728606,18.1315599 69.4243423,16.9043178 73.8644597,16.9043178 C73.9213203,16.9043178 73.9779315,16.9045672 74.0347922,16.9048166 L74.0347922,19.6356235 C74.0347922,19.8570807 74.011599,20.1969976 73.9061076,20.5471394 C73.4729193,21.8073007 72.1501614,23.278445 69.8470562,23.278445 Z" id="Shape"></path>
                    <path d="M89.3103521,11.27711 C85.7366112,9.90347677 84.589423,8.82561858 84.589423,6.84123227 C84.589423,5.17406846 85.9301369,3.49169193 88.9250465,3.49169193 C91.4124499,3.49169193 93.0010562,4.34958924 93.4287579,4.61244499 C93.5200342,4.66905623 93.6322592,4.68027873 93.7337604,4.64386797 C93.8347628,4.6077066 93.9140685,4.52715403 93.9484841,4.42540342 L94.8348117,1.82253301 C94.8891785,1.66317359 94.8233399,1.48760391 94.6779462,1.40306112 C94.0282885,1.02473839 92.1775746,0.145144254 89.0360244,0.145144254 C84.0888998,0.145144254 80.6341174,3.04927628 80.6341174,7.20733496 C80.6341174,10.5139804 82.8601614,12.9253203 87.4361956,14.5777702 C90.6859804,15.7833154 91.8945183,17.0150465 91.8945183,19.1223814 C91.8945183,21.5050416 90.0353252,22.9849144 87.0424108,22.9849144 C85.0817164,22.9849144 83.0649095,22.4170562 81.5094719,21.4272323 C81.4169487,21.3686259 81.3017311,21.3551589 81.1992323,21.393066 C81.0959853,21.4304743 81.0161809,21.5135208 80.9830122,21.6182641 L80.1338435,24.2942054 C80.0862103,24.4445868 80.1438191,24.6086846 80.2754963,24.6957213 C81.7386601,25.6645966 84.4914132,26.3676235 86.8207042,26.3676235 C93.4856186,26.3676235 95.8503227,22.3262787 95.8503227,18.8652616 C95.8503227,15.3034914 93.8943667,13.0340538 89.3103521,11.27711 Z" id="Path"></path>
                    <path d="M101.412939,7.51433252 L98.1639022,7.51433252 C97.9686308,7.51433252 97.8105183,7.67244499 97.8105183,7.86771638 L97.8105183,25.6114768 C97.8105183,25.8067482 97.9686308,25.9648606 98.1639022,25.9648606 L101.412939,25.9648606 C101.60821,25.9648606 101.766323,25.8067482 101.766323,25.6114768 L101.766323,7.86771638 C101.766323,7.67244499 101.60821,7.51433252 101.412939,7.51433252 Z" id="Path"></path>
                    <path d="M101.412939,0.157364303 L98.1639022,0.157364303 C97.9686308,0.157364303 97.8105183,0.315476773 97.8105183,0.510748166 L97.8105183,3.6652665 C97.8105183,3.8605379 97.9686308,4.01865037 98.1639022,4.01865037 L101.412939,4.01865037 C101.60821,4.01865037 101.766323,3.8605379 101.766323,3.6652665 L101.766323,0.510748166 C101.766323,0.315476773 101.60821,0.157364303 101.412939,0.157364303 Z" id="Path"></path>
                </g>
                <g id="Group" transform="translate(26.684597, 0.373044)" fill="#FFFFFF" fill-rule="nonzero">
                    <path d="M33.2786846,21.2794279 C36.3476626,21.432802 46.870621,23.6730611 46.870621,32.1278386 C46.870621,40.8778924 31.3272176,43.84911 23.4278289,43.84911 C17.8165819,43.84911 4.3194132,42.3605086 0.234674817,33.3747824 C-0.388797066,32.0031443 1.06364303,31.6228264 1.98039609,32.7513105 C6.84347677,38.7361418 29.6625477,41.9786944 29.6625477,31.8784499 L29.6625477,25.3943423 C29.6625477,22.0275941 30.7847971,21.1547335 33.2786846,21.2794279 Z M24.3994474,12.1652665 C30.010445,12.1652665 43.5078631,13.653868 47.5923521,22.6395941 C48.215824,24.0112323 46.7636333,24.3915501 45.8466308,23.263066 C40.9837995,17.2777359 18.1647286,14.0356822 18.1647286,24.1359267 L18.1647286,30.6200342 C18.1647286,33.9867824 17.0424792,34.859643 14.5485917,34.7349487 C11.4796137,34.5815746 0.956904645,32.3413154 0.956904645,23.8865379 C0.956904645,15.1362347 16.5000587,12.1652665 24.3994474,12.1652665 Z M24.0832225,0.0519559902 C27.5954294,0.0519559902 30.4426357,1.81052457 30.4426357,3.97982885 C30.4426357,6.14913313 27.5954294,7.90770171 24.0832225,7.90770171 C20.5710156,7.90770171 17.7238093,6.14913313 17.7238093,3.97982885 C17.7238093,1.81052457 20.5710156,0.0519559902 24.0832225,0.0519559902 Z" id="Combined-Shape"></path>
                </g>
            </g>
        </g>
    </g>
</svg>