<?xml version="1.0" encoding="UTF-8"?>
<svg width="98px" height="80px" viewBox="0 0 98 80" version="1.1" xmlns="http://www.w3.org/2000/svg" xmlns:xlink="http://www.w3.org/1999/xlink">
    <title>Artboard</title>
    <g id="Artboard" stroke="none" stroke-width="1" fill="none" fill-rule="evenodd">
        <g id="Payment-method-/-Mastercard" transform="translate(0.000000, -9.000000)">
            <g id="Mastercard" transform="translate(0.000000, 11.433333)">
                <path d="M17.882906,74.3800634 L17.882906,69.4356763 C17.9421584,68.5944673 17.6306287,67.7688487 17.0277941,67.1694511 C16.4249595,66.5700536 15.5891165,66.2548415 14.7335043,66.3042312 C13.6059465,66.2315057 12.5275239,66.7683145 11.9191453,67.7051408 C11.3644786,66.7962466 10.3488656,66.2587062 9.27230769,66.3042312 C8.33495643,66.2576113 7.44260711,66.7028432 6.92700855,67.4744028 L6.92700855,66.5020067 L5.18478632,66.5020067 L5.18478632,74.3800634 L6.94376068,74.3800634 L6.94376068,70.0454841 C6.86800616,69.5000277 7.04366846,68.9497726 7.42281085,68.5448787 C7.80195324,68.1399849 8.34500088,67.922715 8.90376068,67.9523602 C10.0596581,67.9523602 10.6459829,68.6940183 10.6459829,70.0290028 L10.6459829,74.413026 L12.4049573,74.413026 L12.4049573,70.0454841 C12.3323113,69.500648 12.5090477,68.9521758 12.8874871,68.5480326 C13.2659266,68.1438894 13.8070802,67.9257122 14.3649573,67.9523602 C15.554359,67.9523602 16.1239316,68.6940183 16.1239316,70.0290028 L16.1239316,74.413026 L17.882906,74.3800634 Z M43.9073504,66.5020067 L41.042735,66.5020067 L41.042735,64.1122195 L39.2837607,64.1122195 L39.2837607,66.5020067 L37.6923077,66.5020067 L37.6923077,68.0677292 L39.317265,68.0677292 L39.317265,71.6936131 C39.317265,73.5230363 40.0376068,74.6108242 42.0981197,74.6108242 C42.8679294,74.6133456 43.6228218,74.4019653 44.2758974,74.0009938 L43.7733333,72.5341589 C43.306119,72.8083332 42.7758532,72.9614386 42.2321368,72.9791538 C41.3945299,72.9791538 41.0762393,72.4517525 41.0762393,71.6606505 L41.0762393,68.0677292 L43.9241026,68.0677292 L43.9073504,66.5020067 Z M58.7664957,66.3042312 C57.9011786,66.279194 57.0912678,66.7218697 56.6557265,67.4579215 L56.6557265,66.5020067 L54.9302564,66.5020067 L54.9302564,74.3800634 L56.6724786,74.3800634 L56.6724786,69.9630776 C56.6724786,68.6610557 57.2420513,67.9358789 58.3476923,67.9358789 C58.7203303,67.9308641 59.0903271,67.9980669 59.4365812,68.1336544 L59.9726496,66.4855254 C59.5747628,66.3454871 59.1555683,66.2730355 58.7329915,66.2712686 L58.7664957,66.3042312 Z M36.3018803,67.1282957 C35.315703,66.5514316 34.1818555,66.2654019 33.0352137,66.3042312 C31.0082051,66.3042312 29.6847863,67.260146 29.6847863,68.8258686 C29.6847863,70.1114092 30.6564103,70.9025112 32.4488889,71.1497305 L33.2864957,71.2650996 C34.2413675,71.3969499 34.6936752,71.6441692 34.6936752,72.0891641 C34.6936752,72.6989718 34.057094,73.0450789 32.8676923,73.0450789 C31.9109799,73.0723243 30.9727771,72.782062 30.2041026,72.2210144 L29.3664957,73.5559989 C30.3813518,74.2531498 31.5968934,74.6113387 32.834188,74.5778389 C35.1459829,74.5778389 36.4861538,73.5065551 36.4861538,72.0067576 C36.4861538,70.5069602 35.4307692,69.8971525 33.688547,69.6499331 L32.8509402,69.5345641 C32.097094,69.4356763 31.4940171,69.2873447 31.4940171,68.7599434 C31.4940171,68.2325421 32.0635897,67.8369912 33.0184615,67.8369912 C33.9010274,67.8470778 34.7662085,68.0797372 35.5312821,68.5127241 L36.3018803,67.1282957 Z M82.9649573,66.3042312 C82.0996402,66.279194 81.2897293,66.7218697 80.854188,67.4579215 L80.854188,66.5020067 L79.1287179,66.5020067 L79.1287179,74.3800634 L80.8709402,74.3800634 L80.8709402,69.9630776 C80.8709402,68.6610557 81.4405128,67.9358789 82.5461538,67.9358789 C82.9187919,67.9308641 83.2887886,67.9980669 83.6350427,68.1336544 L84.1711111,66.4855254 C83.7732244,66.3454871 83.3540298,66.2730355 82.931453,66.2712686 L82.9649573,66.3042312 Z M60.517094,70.4245538 C60.475195,71.5439918 60.91471,72.6289779 61.7277573,73.4131956 C62.5408046,74.1974133 63.6521072,74.6082547 64.7888889,74.5448764 C65.8349582,74.5972373 66.8629994,74.2620574 67.6702564,73.6054428 L66.8326496,72.2210144 C66.2303859,72.6728581 65.4959821,72.9214085 64.7386325,72.9297099 C63.4032365,72.8234083 62.3745612,71.7261714 62.3745612,70.4080725 C62.3745612,69.0899735 63.4032365,67.9927367 64.7386325,67.886435 C65.4959821,67.8947364 66.2303859,68.1432868 66.8326496,68.5951305 L67.6702564,67.2107021 C66.8629994,66.5540875 65.8349582,66.2189076 64.7888889,66.2712686 C63.6521072,66.2078902 62.5408046,66.6187316 61.7277573,67.4029493 C60.91471,68.187167 60.475195,69.2721532 60.517094,70.3915912 L60.517094,70.4245538 Z M76.8336752,70.4245538 L76.8336752,66.5020067 L75.091453,66.5020067 L75.091453,67.4579215 C74.4912267,66.6980928 73.5560998,66.2687558 72.5786325,66.3042312 C70.2656451,66.3042312 68.3905983,68.1489624 68.3905983,70.4245538 C68.3905983,72.7001451 70.2656451,74.5448764 72.5786325,74.5448764 C73.5560998,74.5803517 74.4912267,74.1510147 75.091453,73.391186 L75.091453,74.3471009 L76.8336752,74.3471009 L76.8336752,70.4245538 Z M70.3505983,70.4245538 C70.4280727,69.1313234 71.5420454,68.1362159 72.8578827,68.1848062 C74.17372,68.2333964 75.2087366,69.3078601 75.1874561,70.6031655 C75.1661756,71.8984709 74.0964042,72.9394643 72.7796581,72.9461912 C72.1091866,72.9545375 71.4656409,72.6870047 71.0044026,72.2081874 C70.5431642,71.7293701 70.3061545,71.0827873 70.3505983,70.4245538 L70.3505983,70.4245538 Z M49.3266667,66.3042312 C47.0136793,66.3360894 45.1648831,68.2066469 45.197265,70.4822383 C45.2296468,72.7578296 47.1309442,74.5767346 49.4439316,74.5448764 C50.6490296,74.6057326 51.8341311,74.2239383 52.7692308,73.4735925 L51.9316239,72.2045331 C51.2702177,72.7263956 50.4508203,73.0163774 49.6030769,73.0285976 C48.405606,73.1299165 47.3436997,72.2751312 47.2075214,71.1002867 L53.1545299,71.1002867 C53.1545299,70.8860299 53.1545299,70.6717731 53.1545299,70.441035 C53.1545299,67.9688415 51.5965812,66.3207125 49.3517949,66.3207125 L49.3266667,66.3042312 Z M49.3266667,67.8369912 C49.8531888,67.8259474 50.3625936,68.0211941 50.7427574,68.3797562 C51.1229212,68.7383183 51.3426843,69.2308066 51.3536752,69.7488209 L47.165641,69.7488209 C47.2287366,68.6485492 48.1736826,67.7994034 49.2931624,67.8369912 L49.3266667,67.8369912 Z M92.974359,70.441035 L92.974359,63.3375989 L91.2991453,63.3375989 L91.2991453,67.4579215 C90.698919,66.6980928 89.7637921,66.2687558 88.7863248,66.3042312 C86.4733374,66.3042312 84.5982906,68.1489624 84.5982906,70.4245538 C84.5982906,72.7001451 86.4733374,74.5448764 88.7863248,74.5448764 C89.7637921,74.5803517 90.698919,74.1510147 91.2991453,73.391186 L91.2991453,74.3471009 L92.974359,74.3471009 L92.974359,70.441035 Z M95.8808547,73.2346138 C95.9897544,73.2333011 96.0978691,73.252895 96.1991453,73.2922983 C96.2953384,73.3309173 96.3833891,73.3868058 96.4588034,73.4571112 C96.5324033,73.5281632 96.5920354,73.6119746 96.6347009,73.7043305 C96.7204392,73.8988487 96.7204392,74.1196201 96.6347009,74.3141383 C96.5920354,74.4064942 96.5324033,74.4903057 96.4588034,74.5613576 C96.3833891,74.631663 96.2953384,74.6875516 96.1991453,74.7261705 C96.0988689,74.769702 95.9904591,74.7921561 95.8808547,74.7920958 C95.5567425,74.7896922 95.2631303,74.6035347 95.1270085,74.3141383 C95.0422629,74.1194186 95.0422629,73.8990502 95.1270085,73.7043305 C95.169674,73.6119746 95.2293062,73.5281632 95.302906,73.4571112 C95.3783203,73.3868058 95.466371,73.3309173 95.5625641,73.2922983 C95.6716623,73.2496021 95.7886658,73.2299489 95.9059829,73.2346138 L95.8808547,73.2346138 Z M95.8808547,74.6272828 C95.9644558,74.6277825 96.0472246,74.6109347 96.1237607,74.5778389 C96.1958253,74.5461846 96.2611821,74.5014541 96.3164103,74.4459886 C96.5335992,74.2128549 96.5335992,73.8550578 96.3164103,73.6219241 C96.2613137,73.5663056 96.1959254,73.5215535 96.1237607,73.4900738 C96.0471491,73.4572112 95.964431,73.4403738 95.8808547,73.440627 C95.7973506,73.441064 95.7147724,73.457873 95.6379487,73.4900738 C95.5626936,73.5204323 95.4943512,73.5652573 95.4369231,73.6219241 C95.2197342,73.8550578 95.2197342,74.2128549 95.4369231,74.4459886 C95.4944922,74.5024861 95.5627982,74.5472871 95.6379487,74.5778389 C95.7224547,74.6136923 95.8140152,74.6305823 95.9059829,74.6272828 L95.8808547,74.6272828 Z M95.9311111,73.646646 C96.0093028,73.6429154 96.0863539,73.6662401 96.1488889,73.7125712 C96.2009063,73.7549248 96.2289737,73.8193566 96.2242735,73.8856247 C96.226705,73.940965 96.2054361,73.9947721 96.165641,74.0339564 C96.1170918,74.07734 96.0551579,74.103454 95.9897436,74.1081222 L96.2326496,74.3800634 L96.04,74.3800634 L95.8138462,74.1081222 L95.7384615,74.1081222 L95.7384615,74.3800634 L95.5793162,74.3800634 L95.5793162,73.6548867 L95.9311111,73.646646 Z M95.7468376,73.786737 L95.7468376,73.9845125 L95.9311111,73.9845125 C95.9639022,73.9941308 95.9988328,73.9941308 96.0316239,73.9845125 C96.0435706,73.9611875 96.0435706,73.9336716 96.0316239,73.9103467 C96.0435706,73.8870217 96.0435706,73.8595058 96.0316239,73.8361809 C95.9988328,73.8265625 95.9639022,73.8265625 95.9311111,73.8361809 L95.7468376,73.786737 Z M86.5331624,70.441035 C86.6106368,69.1478047 87.7246095,68.1526972 89.0404468,68.2012875 C90.3562841,68.2498777 91.3913007,69.3243414 91.3700202,70.6196468 C91.3487397,71.9149522 90.2789683,72.9559456 88.9622222,72.9626725 C88.2917507,72.9710188 87.648205,72.703486 87.1869667,72.2246687 C86.7257283,71.7458514 86.4887186,71.0992686 86.5331624,70.441035 L86.5331624,70.441035 Z M27.7080342,70.441035 L27.7080342,66.5020067 L25.965812,66.5020067 L25.965812,67.4579215 C25.3655857,66.6980928 24.4304588,66.2687558 23.4529915,66.3042312 C21.140004,66.3042312 19.2649573,68.1489624 19.2649573,70.4245538 C19.2649573,72.7001451 21.140004,74.5448764 23.4529915,74.5448764 C24.4304588,74.5803517 25.3655857,74.1510147 25.965812,73.391186 L25.965812,74.3471009 L27.7080342,74.3471009 L27.7080342,70.441035 Z M21.2249573,70.441035 C21.3024317,69.1478047 22.4164043,68.1526972 23.7322416,68.2012875 C25.0480789,68.2498777 26.0830956,69.3243414 26.0618151,70.6196468 C26.0405346,71.9149522 24.9707632,72.9559456 23.6540171,72.9626725 C22.9806562,72.9756781 22.3326302,72.7101849 21.867677,72.2308171 C21.4027238,71.7514493 21.1634889,71.1021747 21.2082051,70.441035 L21.2249573,70.441035 Z" id="Shape" fill="#231F20" fill-rule="nonzero"></path>
                <g id="_Group_" fill-rule="nonzero">
                    <polygon id="Rectangle-path" fill="#FF5F00" points="35.7239316 6.46890647 62.108547 6.46890647 62.108547 53.1191989 35.7239316 53.1191989"></polygon>
                    <path d="M37.3991453,29.798173 C37.3892805,20.6934898 41.6364675,12.0902991 48.9162393,6.46890647 C36.5529868,-3.09019927 18.7988603,-1.69783286 8.13098285,9.66748802 C-2.53689461,21.0328089 -2.53689461,38.5552964 8.13098285,49.9206173 C18.7988603,61.2859382 36.5529868,62.6783046 48.9162393,53.1191989 C41.6387834,47.4995908 37.3918559,38.8999644 37.3991453,29.798173 L37.3991453,29.798173 Z" id="_Path_" fill="#EB001B"></path>
                    <path d="M97.7068376,29.798173 C97.7068376,41.1565677 91.1143867,51.5177534 80.7300173,56.4812947 C70.3456478,61.4448359 57.9922034,60.1393178 48.9162393,53.1191989 C56.1905199,47.4948199 60.4377671,38.8963368 60.4377671,29.7940527 C60.4377671,20.6917685 56.1905199,12.0932854 48.9162393,6.46890647 C57.9922034,-0.551212492 70.3456478,-1.85673061 80.7300173,3.10681068 C91.1143867,8.07035197 97.7068376,18.4315376 97.7068376,29.7899323 L97.7068376,29.798173 Z" id="Shape" fill="#F79E1B"></path>
                    <path d="M94.8254701,48.2612827 L94.8254701,47.2337205 L95.2191453,47.2337205 L95.2191453,47.0211214 L94.2223932,47.0211214 L94.2223932,47.2337205 L94.6495726,47.2337205 L94.6495726,48.2612827 L94.8254701,48.2612827 Z M96.7603419,48.2612827 L96.7603419,47.0211214 L96.4588034,47.0211214 L96.1070085,47.9069509 L95.7552137,47.0211214 L95.4871795,47.0211214 L95.4871795,48.2612827 L95.7049573,48.2612827 L95.7049573,47.3311618 L96.0316239,48.1372666 L96.2577778,48.1372666 L96.5844444,47.3311618 L96.5844444,48.270141 L96.7603419,48.2612827 Z" id="Shape" fill="#F79E1B"></path>
                </g>
            </g>
        </g>
    </g>
</svg>