<?xml version="1.0" encoding="UTF-8"?>
<svg width="140px" height="80px" viewBox="0 0 140 80" version="1.1" xmlns="http://www.w3.org/2000/svg" xmlns:xlink="http://www.w3.org/1999/xlink">
    <title>Artboard</title>
    <g id="Artboard" stroke="none" stroke-width="1" fill="none" fill-rule="evenodd">
        <g id="Issuer-/-Bunq-(white)" transform="translate(0.000000, -30.000000)" fill="#FFFFFF">
            <g id="Logo_bunq" transform="translate(0.000000, 41.416667)">
                <path d="M123.908046,44.8059543 L123.725075,44.8049416 L123.412737,44.7985059 L123.412737,44.7985059 L123.111256,44.7866484 L123.111256,44.7866484 L122.785118,44.7675363 L122.785118,44.7675363 L122.604457,44.7541846 L122.604457,44.7541846 L122.305282,44.7275173 L122.305282,44.7275173 L121.938391,44.6871803 L121.938391,44.6871803 L121.624516,44.6459055 L121.624516,44.6459055 L121.248066,44.5880112 L121.248066,44.5880112 L121.027418,44.5499305 L121.027418,44.5499305 L120.565921,44.4598242 L120.565921,44.4598242 L120.258141,44.3919187 L120.258141,44.3919187 L119.80043,44.2789682 L119.80043,44.2789682 L119.4838,44.1924172 L119.4838,44.1924172 L119.259492,44.1271431 L119.259492,44.1271431 L119.179025,44.1024619 C112.601647,42.0922172 107.816092,35.9993258 107.816092,28.8038278 C107.816092,21.689178 112.494711,15.6524964 118.957848,13.5742373 L119.259572,13.4807801 L119.531218,13.4018317 L119.896286,13.3038367 L119.896286,13.3038367 L120.287809,13.2089207 L120.287809,13.2089207 L120.703171,13.1195553 L120.703171,13.1195553 L121.052528,13.053283 L121.052528,13.053283 L121.420655,12.9919276 L121.420655,12.9919276 L121.723712,12.948028 L121.723712,12.948028 L122.025333,12.9101475 L122.31669,12.8790213 L122.31669,12.8790213 L122.66333,12.8488811 L122.966192,12.8286659 L122.966192,12.8286659 L123.323659,12.8120561 L123.323659,12.8120561 L123.599873,12.8045761 L123.599873,12.8045761 C123.702441,12.8026637 123.805131,12.8017012 123.908046,12.8017012 L124.233219,12.8049867 L124.504975,12.8125319 L124.504975,12.8125319 L124.752868,12.8234163 L125.097791,12.8448679 L125.097791,12.8448679 L125.437246,12.8731775 L125.437246,12.8731775 L125.829322,12.9148618 L125.829322,12.9148618 L126.221,12.9662049 L126.221,12.9662049 L126.573058,13.0207154 L126.573058,13.0207154 L126.912284,13.0808142 L126.912284,13.0808142 C127.14002,13.1235364 127.366248,13.171209 127.590671,13.22356 L127.942355,13.3097956 L127.942355,13.3097956 L128.365906,13.4249455 L128.676516,13.5172502 L128.676516,13.5172502 C128.881942,13.5807992 129.085315,13.6480943 129.286842,13.7192743 L129.688197,13.86732 L129.688197,13.86732 C130.185898,14.0580304 130.671464,14.272693 131.143645,14.5098379 L131.518635,14.7051224 L131.518635,14.7051224 L131.791638,14.8540328 L131.791638,14.8540328 L131.829539,14.8761248 C132.39271,15.1933377 132.934362,15.5436309 133.45218,15.9241208 L133.827939,16.2087767 L133.827939,16.2087767 L134.054023,16.3885779 L134.367816,13.6018075 L140,13.6018075 L140,28.0037214 L139.983908,28.0037214 C139.991954,28.2685566 140,28.5357921 140,28.8038278 L140,57.6076555 L133.563218,57.6076555 L133.563218,41.6031287 C133.209186,41.8680143 132.843702,42.1186944 132.467651,42.3543146 L132.409918,42.3893252 C132.034751,42.623199 131.648625,42.8414114 131.25293,43.0437909 L130.918948,43.2093996 L130.918948,43.2093996 L130.658391,43.3325848 L130.658391,43.3325848 L130.268194,43.5059272 L130.268194,43.5059272 L129.938366,43.6430842 L129.938366,43.6430842 L129.645463,43.7576613 L129.645463,43.7576613 L129.294508,43.8863999 L129.294508,43.8863999 L128.989925,43.990606 L128.989925,43.990606 L128.814876,44.0473938 L128.814876,44.0473938 L128.511651,44.1406147 L128.511651,44.1406147 L128.312755,44.198227 L127.960676,44.2931711 C127.740624,44.3502751 127.518278,44.4026967 127.294213,44.4504763 L126.843528,44.5396271 L126.843528,44.5396271 L126.546926,44.591285 L126.546926,44.591285 L126.146872,44.6519158 L126.146872,44.6519158 L125.999898,44.6717057 L125.999898,44.6717057 L125.739149,44.7032327 L125.739149,44.7032327 L125.597486,44.7186332 L125.597486,44.7186332 L125.334699,44.7437821 L125.334699,44.7437821 L124.970202,44.7715796 L124.970202,44.7715796 L124.679098,44.7878738 L124.679098,44.7878738 L124.25269,44.8023519 L124.25269,44.8023519 L123.908046,44.8059543 Z M6.43678161,0 L6.43678161,16.0045268 C7.89436094,14.9139729 9.54603178,14.0642083 11.3301714,13.5148522 L11.6666667,13.4153828 L11.924625,13.3441501 L12.1647474,13.2823982 L12.1647474,13.2823982 L12.4475961,13.2147735 L12.4475961,13.2147735 C12.6514743,13.1674608 12.8571267,13.1242595 13.0641757,13.0850066 L13.2759823,13.0463474 L13.2759823,13.0463474 L13.6383634,12.9868944 L13.6383634,12.9868944 L14.0024464,12.9356468 L14.0024464,12.9356468 L14.2608513,12.9044229 L14.2608513,12.9044229 L14.6653015,12.8638734 L14.6653015,12.8638734 L15.0305031,12.8360301 L15.0305031,12.8360301 L15.3169479,12.8199684 L15.3169479,12.8199684 L15.5331862,12.8111891 L15.5331862,12.8111891 L15.7170905,12.8059638 L15.7170905,12.8059638 C15.8417148,12.8031286 15.9666706,12.8017012 16.091954,12.8017012 L16.339338,12.8038234 L16.612306,12.8099225 L16.9018529,12.8216489 L16.9018529,12.8216489 L17.0925762,12.8321407 L17.0925762,12.8321407 L17.393812,12.8533329 L17.7341433,12.8840584 L18.0439247,12.9183481 L18.0439247,12.9183481 L18.4293059,12.9694584 L18.4293059,12.9694584 L18.7644827,13.0217282 L18.7644827,13.0217282 L19.0841018,13.0782032 L19.0841018,13.0782032 L19.3417616,13.1286681 L19.3417616,13.1286681 L19.6041903,13.1845926 L19.6041903,13.1845926 L19.8889316,13.2504989 L19.8889316,13.2504989 C20.0804634,13.2965886 20.2706819,13.346126 20.4595036,13.3990188 L20.8209747,13.5051936 L20.8209747,13.5051936 C26.755181,15.3188388 31.2308408,20.4557503 32.0494236,26.7273563 L32.0806762,26.983557 C32.0985805,27.1404144 32.1141992,27.2979566 32.1274983,27.45615 C32.164869,27.9005029 32.183908,28.349972 32.183908,28.8038278 C32.183908,29.3535081 32.1559806,29.8967539 32.1014604,30.4322367 L32.0486633,30.8853619 L32.0486633,30.8853619 C31.3563437,36.1759946 28.061806,40.658217 23.4851126,43.0186624 L23.3218568,43.1016884 C22.8865034,43.3199813 22.4398397,43.519187 21.9829796,43.6981968 L21.9232451,43.7208284 C21.7420853,43.7914021 21.5593195,43.8585275 21.3750274,43.9223203 L21.033639,44.0357718 L21.033639,44.0357718 C20.7832904,44.1163788 20.5301133,44.1909156 20.2743756,44.2592953 L19.8393965,44.3690158 L19.5068137,44.4443504 L19.5068137,44.4443504 L19.2552508,44.4964199 L19.2552508,44.4964199 L18.9633402,44.5515339 L18.9633402,44.5515339 L18.5793446,44.6157279 L18.5793446,44.6157279 L18.2762881,44.6596275 L17.9753251,44.6974316 L17.9753251,44.6974316 L17.6938642,44.727611 L17.6938642,44.727611 L17.3638516,44.7566726 L17.3638516,44.7566726 L17.0516694,44.7779538 L17.0516694,44.7779538 L16.6868321,44.7952236 L16.3579292,44.8038086 L16.3579292,44.8038086 L16.091954,44.8059543 L15.9089676,44.8049385 L15.9089676,44.8049385 L15.7089413,44.8015042 L15.4140734,44.7919795 L15.4140734,44.7919795 L15.1337366,44.7779883 L15.1337366,44.7779883 L14.9384757,44.7653893 L14.5587266,44.7340916 C14.3291526,44.712471 14.1010635,44.686049 13.8744769,44.6549269 L13.6384376,44.6207181 L13.6384376,44.6207181 L13.4264154,44.5868525 L13.4264154,44.5868525 L13.0818617,44.5257385 L13.0818617,44.5257385 L12.7485907,44.4593536 L12.7485907,44.4593536 L12.2993897,44.3579841 L12.2993897,44.3579841 L11.9300585,44.2645716 L11.9300585,44.2645716 L11.6666667,44.1922727 C9.54858009,43.5896585 7.60926197,42.5663185 5.94597701,41.2190776 L5.63218391,44.005848 L0,44.005848 L0,29.6039341 L0.024137931,29.6039341 C0.00804597701,29.3390989 0,29.0718634 0,28.8038278 L0,0 L6.43678161,0 Z M51.8462632,39.1914564 L52.0507958,39.2007311 L52.2319911,39.2049109 L52.2319911,39.2049109 L52.4988871,39.2025382 L52.6843024,39.1949149 L52.9129715,39.1792111 L53.1271388,39.1591784 L53.2454426,39.1449887 L53.2454426,39.1449887 L53.6129788,39.0878965 L53.8188976,39.0477646 L54.0214029,39.0027323 L54.0214029,39.0027323 L54.1714026,38.9657194 L54.1714026,38.9657194 L54.2884541,38.9336499 C54.4042672,38.9013823 54.5190792,38.866364 54.6328286,38.8286624 L54.8742228,38.7440517 L55.1122496,38.6514213 C56.2446614,38.1885264 57.2564647,37.4543974 58.0814981,36.5214627 L58.2126378,36.3696327 L58.4413828,36.0865946 L58.5075489,36.0000061 L58.5075489,36.0000061 C59.439043,34.7650974 60.068805,33.24798 60.2729847,31.5842361 L60.2966874,31.37147 L60.3157272,31.1571794 L60.3157272,31.1571794 L60.3297346,30.9481563 L60.3297346,30.9481563 L60.3410366,30.6771296 C60.343558,30.586437 60.3448276,30.4954005 60.3448276,30.4040404 L60.3448276,13.6018075 L66.7816092,13.6018075 L66.7816092,30.4040404 C66.7816092,30.5722067 66.7787026,30.739704 66.7729367,30.9064852 C66.7661269,31.1033778 66.75533,31.2993159 66.7406236,31.4941769 L66.7159702,31.7823561 L66.7159702,31.7823561 L66.6905278,32.0260378 L66.6905278,32.0260378 L66.6525223,32.3328354 L66.6525223,32.3328354 L66.6012487,32.6805384 L66.6012487,32.6805384 L66.5643533,32.8997966 L66.5643533,32.8997966 C66.5313896,33.0872403 66.4947589,33.2733032 66.4545575,33.4580513 L66.4144244,33.6366086 L66.4144244,33.6366086 L66.3529128,33.8922862 L66.3529128,33.8922862 L66.2836986,34.1571645 L66.2836986,34.1571645 C66.1980368,34.473217 66.1018189,34.7848221 65.9954526,35.0917075 L65.8506082,35.4898682 L65.8506082,35.4898682 L65.7973353,35.6282112 L65.7973353,35.6282112 L65.7329859,35.7889713 L65.7329859,35.7889713 L65.6014215,36.1019791 L65.6014215,36.1019791 L65.4900036,36.3518351 L65.4900036,36.3518351 C65.3748128,36.6041727 65.2524289,36.8523873 65.1232035,37.0964743 L64.9632756,37.3897607 C64.666477,37.9205733 64.3369087,38.4304704 63.9773456,38.917122 L63.7223261,39.2519392 L63.7223261,39.2519392 L63.6284693,39.3699487 L63.6284693,39.3699487 C63.2972267,39.7834034 62.9435556,40.1782152 62.5693428,40.5526825 L62.2248759,40.8860347 L62.2248759,40.8860347 L61.9754273,41.1144966 L61.9754273,41.1144966 L61.7098429,41.3461722 C61.5768973,41.4593969 61.4418716,41.5702691 61.3048315,41.6787235 L61.0084558,41.9071306 L61.0084558,41.9071306 L60.6791274,42.1470934 L60.6791274,42.1470934 L60.4636802,42.2965962 L60.4636802,42.2965962 C60.2997642,42.4082903 60.1335561,42.516546 59.9650331,42.6214478 C59.8671571,42.6821849 59.7687757,42.7417999 59.6696352,42.8002725 C59.2381027,43.0550637 58.7921363,43.2880124 58.3333333,43.4977804 C58.1663045,43.5742722 57.9975415,43.6476797 57.8271171,43.7179304 L57.5052738,43.8452246 L57.5052738,43.8452246 C57.2387891,43.948471 56.9683694,44.0432476 56.6943592,44.1301081 L56.4544406,44.2038608 L56.4544406,44.2038608 L56.392806,44.2211021 C56.1931359,44.2805815 55.9912004,44.3350267 55.7875388,44.3851763 L55.4357321,44.4670327 L55.4357321,44.4670327 L55.089048,44.5382203 L55.089048,44.5382203 C54.8866896,44.5782024 54.6823986,44.6133732 54.476664,44.644236 L54.2217738,44.6801654 L54.2217738,44.6801654 L54.015978,44.7057831 L54.015978,44.7057831 L53.8015975,44.7291828 L53.8015975,44.7291828 L53.6157524,44.7472522 L53.2893522,44.7728257 L53.2893522,44.7728257 L52.9171975,44.7930763 L52.5380863,44.8040231 L52.5380863,44.8040231 L52.2988506,44.8059543 L52.0321289,44.8029128 L51.8670201,44.799647 L51.5777091,44.7883586 L51.5777091,44.7883586 L51.2103037,44.7657356 L51.2103037,44.7657356 L50.8879244,44.7382861 L50.8879244,44.7382861 L50.5540642,44.7021816 L50.5540642,44.7021816 L50.1867343,44.6534657 L50.1867343,44.6534657 L49.8447638,44.5995069 L49.8447638,44.5995069 L49.5217209,44.5408112 L49.5217209,44.5408112 L49.3836825,44.5133437 L49.3836825,44.5133437 L49.1627528,44.4666553 L49.1627528,44.4666553 L48.881589,44.4019035 L48.881589,44.4019035 L48.597464,44.3301653 L48.597464,44.3301653 L48.1752489,44.2127506 L48.1752489,44.2127506 L47.9160089,44.13358 L47.5463411,44.0113541 L47.5463411,44.0113541 L47.4097143,43.9627807 C47.3204507,43.9314808 47.2317722,43.8988294 47.1435179,43.8653445 L47.0597341,43.8326281 C46.9276934,43.7822125 46.7966801,43.7293257 46.6666667,43.6746039 C41.4692789,41.4868573 37.816092,36.3658986 37.816092,30.4040404 L37.816092,13.6018075 L44.2528736,13.6018075 L44.2528736,30.4040404 C44.2528736,32.8327632 45.154023,35.0330556 46.6103448,36.6261673 L46.6666667,36.6864753 C46.7731305,36.8009909 46.882551,36.912281 46.9947874,37.0202011 L47.1592853,37.1739621 L47.3274219,37.322792 L47.4998252,37.4672094 L47.4998252,37.4672094 L47.7609174,37.6710657 L47.9856743,37.8335772 L47.9856743,37.8335772 L48.0794208,37.8973166 L48.2342198,38.0000283 C48.3600332,38.0807598 48.4880426,38.1578617 48.6181198,38.2312022 L48.7846782,38.3219005 L48.9745862,38.4201476 L49.2400634,38.5460349 L49.3806558,38.6074247 C49.6385013,38.717301 49.9027658,38.8130642 50.172604,38.8938451 C50.4417827,38.9744286 50.716508,39.0401029 50.9959406,39.0900052 C51.2749663,39.1398347 51.5586856,39.1739382 51.8462632,39.1914564 Z M14.0590641,18.5386149 L13.9772202,18.5528488 L13.7974773,18.5864101 L13.541642,18.6403987 L13.4125564,18.6705744 L13.1023709,18.750221 L12.9378857,18.796855 L12.6695495,18.8800269 L12.461266,18.9505265 L12.2105219,19.0423496 L12.0908768,19.0888291 L11.9771256,19.1347773 L11.8249769,19.199105 C8.18959563,20.7668969 5.63218391,24.4788236 5.63218391,28.8038278 C5.63218391,33.1665392 8.23438332,36.9054365 11.9203063,38.4490667 C12.0711359,38.5123317 12.2237284,38.5718122 12.3780435,38.6275142 L12.5501802,38.6877242 L12.8696349,38.7895245 L13.0452773,38.8415528 L13.2126385,38.8860737 L13.453497,38.9469363 L13.5890626,38.9777835 L13.5890626,38.9777835 L13.83204,39.0279928 L14.1036951,39.0764159 L14.1036951,39.0764159 L14.3426255,39.1125732 L14.4806506,39.1307047 L14.4806506,39.1307047 L14.717779,39.1572348 L14.717779,39.1572348 L14.8500724,39.1687419 L15.0970387,39.1874452 L15.3795749,39.2003592 C15.4825408,39.2035851 15.585908,39.20521 15.6896552,39.20521 L15.939326,39.202062 L15.939326,39.202062 L16.0561983,39.1984185 L16.0561983,39.1984185 L16.3363532,39.1840161 L16.6234632,39.1608955 L16.7788085,39.1448251 L16.9334528,39.1263233 L17.2533713,39.0800584 C17.4085657,39.0549726 17.5625936,39.0262134 17.7153678,38.9938695 L18.0393171,38.9194719 L18.2087671,38.8757679 L18.3460257,38.8377991 L18.6988708,38.7309634 L18.9023388,38.6624998 C18.9577587,38.6431698 19.0129629,38.6233537 19.0679467,38.6030563 C19.2926022,38.5201244 19.5135786,38.4291589 19.7305519,38.3304951 L19.917924,38.2429044 L20.1468074,38.1292961 L20.1468074,38.1292961 L20.4158952,37.9866827 L20.5251064,37.9249029 C21.4914507,37.3754275 22.3612212,36.6664763 23.1012031,35.8324227 L23.304023,35.5967916 L23.304023,35.5967916 L23.48095,35.3789401 L23.6245746,35.1928555 L23.776916,34.9845543 L23.94181,34.7483801 C24.2910194,34.2310273 24.5959364,33.6794052 24.8508523,33.0993946 C24.8969031,32.9948218 24.9413299,32.8890942 24.9840906,32.7824741 L25.0581559,32.5923337 L25.0581559,32.5923337 L25.1526544,32.3327665 L25.1526544,32.3327665 L25.2187093,32.1372957 C25.2724784,31.9730435 25.3223853,31.8069564 25.368318,31.6391498 L25.4423501,31.3523259 L25.5049968,31.0809016 L25.5541289,30.8403003 L25.5541289,30.8403003 L25.5549346,30.8323559 L25.5704405,30.7534268 L25.5995899,30.5873869 L25.6409451,30.3194264 L25.6591342,30.1846075 L25.6591342,30.1846075 L25.6846498,29.9686694 L25.7158256,29.6297352 L25.7158256,29.6297352 L25.7346708,29.3255575 L25.7334365,29.3381694 L25.7434453,29.0877307 L25.7471264,28.8038278 L25.7471264,28.8038278 C25.7471264,28.6440029 25.743634,28.4850171 25.7367238,28.3269473 C25.7313483,28.2039916 25.7239124,28.0816902 25.7144471,27.9599775 C25.7039866,27.8254814 25.6910352,27.691579 25.6756484,27.5584466 C25.6608713,27.4305372 25.6438465,27.3033733 25.6246172,27.1769626 L25.5765182,26.8907047 L25.535479,26.6726483 L25.4756004,26.3963261 L25.4504944,26.2881937 C25.3894664,26.0344646 25.3194204,25.7844066 25.2407293,25.5384039 L25.2137264,25.4551771 C25.1864788,25.3721786 25.1581038,25.2894136 25.1287511,25.2071366 C24.8087378,24.3104659 24.3728049,23.4719406 23.8397264,22.7108139 L23.6584614,22.459998 C23.5619545,22.3305488 23.4625675,22.2035094 23.3604,22.0789826 L23.2671212,21.9669187 L23.1723626,21.8562848 C22.33122,20.8880883 21.3170873,20.0838063 20.1804487,19.4956846 C20.0575411,19.4320895 19.9332011,19.3710219 19.8074925,19.3125479 L19.6182748,19.2265801 L19.410415,19.1383483 L19.410415,19.1383483 L19.1299451,19.0275024 L19.1299451,19.0275024 L18.8371975,18.9224853 L18.6485864,18.860373 L18.4414979,18.7970252 L18.4414979,18.7970252 L18.0846641,18.699534 L18.0846641,18.699534 L17.8397509,18.6409723 L17.709019,18.6124809 L17.5048788,18.5716817 L17.5048788,18.5716817 L17.3308943,18.5404497 L16.9932615,18.489177 L16.8270098,18.4682386 L16.5580903,18.4409024 L16.2010865,18.415311 L15.9867441,18.4069049 L15.9867441,18.4069049 C15.8880594,18.4039388 15.789023,18.4024455 15.6896552,18.4024455 L15.3565049,18.4080544 C15.1958736,18.4134514 15.0360098,18.4227715 14.8772124,18.4359086 C14.6821717,18.4520439 14.4887396,18.4739373 14.2970677,18.5014209 L14.0590641,18.5386149 Z M87.2875344,18.4138634 L87.1891482,18.4199619 L87.1891482,18.4199619 L86.9764953,18.4374127 L86.7054443,18.469144 L86.5571992,18.4906594 L86.5571992,18.4906594 L86.2731652,18.5405527 L86.2731652,18.5405527 L86.3722064,18.5221277 L86.139189,18.5684385 L85.908548,18.6220204 L85.8234494,18.6432801 C85.7681595,18.6577352 85.7130928,18.6728146 85.6582556,18.688511 L85.5407004,18.7238169 C84.2546516,19.1155157 83.0980235,19.8481854 82.1574449,20.826991 L82.0402769,20.9506007 L81.96646,21.0320217 C81.8636433,21.1464762 81.7636708,21.2639953 81.6666667,21.3844418 L81.5716106,21.5043177 C80.3765912,23.0403505 79.6551724,25.0305474 79.6551724,27.2036151 L79.6551724,44.005848 L73.2183908,44.005848 L73.2183908,27.2036151 C73.2183908,21.4764695 76.589595,16.525316 81.4627443,14.2053872 L81.6780231,14.1043299 L81.9470215,13.9850926 L81.9470215,13.9850926 L82.1129124,13.9152853 L82.1129124,13.9152853 C82.8077266,13.6245705 83.5309115,13.3868206 84.277104,13.2067216 L84.7601664,13.0989733 L84.7601664,13.0989733 L84.9301495,13.0657141 L84.9301495,13.0657141 C85.1202632,13.0283874 85.3118382,12.9954156 85.5046852,12.9662297 L85.7607658,12.9298045 L85.7607658,12.9298045 L86.0565613,12.8934922 L86.4301399,12.8563639 L86.4301399,12.8563639 L86.7164676,12.8344402 L86.7164676,12.8344402 L87.0781476,12.8147742 L87.4110942,12.804529 L87.4110942,12.804529 C87.5075862,12.8026503 87.6042578,12.8017012 87.7011494,12.8017012 L88.0915055,12.8068541 L88.4015936,12.818364 L88.6517264,12.8323176 L88.6517264,12.8323176 L88.7681075,12.8403355 L88.7681075,12.8403355 L89.0843005,12.8667184 L89.0843005,12.8667184 L89.4816731,12.9097963 L89.4816731,12.9097963 L89.7822249,12.9497044 L89.7822249,12.9497044 L90.1599935,13.0089583 L90.1599935,13.0089583 L90.4718,13.0655927 L90.6114328,13.0933171 L90.6114328,13.0933171 L90.9512044,13.1666623 L90.9512044,13.1666623 L91.2820905,13.2463837 L91.2820905,13.2463837 L91.554735,13.3180602 L91.554735,13.3180602 L91.8130509,13.3914571 L91.8130509,13.3914571 L92.1788756,13.5043924 L92.1788756,13.5043924 L92.4014608,13.5783682 L92.6964863,13.6827612 L92.6964863,13.6827612 L93.0801103,13.8293009 L93.0801103,13.8293009 L93.3333333,13.9330516 C93.7386624,14.1035749 94.134597,14.2919454 94.5201374,14.4971701 L94.5629354,14.520836 C96.5635909,15.5937243 98.281989,17.1217054 99.5779559,18.9647177 L99.7520472,19.217977 C100.359047,20.1214527 100.866099,21.096874 101.257395,22.1285394 L101.395154,22.5084561 L101.481279,22.7637284 L101.481279,22.7637284 L101.606132,23.1668777 L101.606132,23.1668777 L101.68609,23.4499932 L101.68609,23.4499932 L101.729435,23.6136604 L101.729435,23.6136604 L101.779364,23.8131248 L101.779364,23.8131248 L101.849355,24.1149361 L101.849355,24.1149361 L101.94454,24.5848319 L101.94454,24.5848319 L101.976631,24.764902 L101.976631,24.764902 L102.024124,25.0593772 C102.04132,25.1739602 102.057166,25.2887257 102.07164,25.4039119 L102.092812,25.5811545 L102.092812,25.5811545 L102.133482,25.9946317 L102.133482,25.9946317 L102.153681,26.2667469 L102.153681,26.2667469 L102.166512,26.4924413 C102.178064,26.7280649 102.183908,26.9651674 102.183908,27.2036151 L102.183908,44.005848 L95.7471264,44.005848 L95.7471264,27.2036151 L95.7401133,26.8333331 L95.7300871,26.6307197 L95.7324594,26.6682867 C95.7238405,26.5114414 95.7114598,26.355698 95.6954148,26.2011632 C95.65035,25.7679657 95.5765047,25.3442568 95.4760133,24.932393 L95.3956819,24.6257528 L95.3354534,24.4198946 L95.3354534,24.4198946 L95.2575821,24.1780203 L95.1844298,23.9669287 C94.7659508,22.8118157 94.1303883,21.7763376 93.3333333,20.9211802 L93.1551464,20.7350453 L93.1551464,20.7350453 L93.036488,20.6176851 L92.8585418,20.4499519 L92.8585418,20.4499519 L92.7719994,20.3716715 L92.7865562,20.3852643 L92.6698918,20.2822829 L92.5664192,20.1946831 C92.512007,20.1493876 92.4570444,20.1048333 92.4015448,20.0610339 L92.2145118,19.9181195 L92.0977931,19.8330047 L92.0247149,19.7809592 L91.8471814,19.6607795 L91.6585794,19.5401842 L91.6585794,19.5401842 L91.3905685,19.3813593 C91.1404646,19.2399228 90.8826948,19.1124006 90.6181714,18.9997311 C90.4442881,18.9256683 90.2674866,18.8580234 90.0880261,18.7970628 L89.8051068,18.7068551 L89.6313805,18.6580385 L89.4205116,18.6044488 L89.4205116,18.6044488 L89.1931852,18.553737 L89.0082666,18.5182581 L88.8019077,18.4844343 C88.6603184,18.4631812 88.5175904,18.4459666 88.3738303,18.4329001 L88.2948424,18.4257802 L87.9115884,18.4048419 L87.7011494,18.4024455 L87.7011494,18.4024455 L87.5256874,18.4045006 L87.2875344,18.4138634 Z M124.844096,18.4168675 L124.706965,18.4103993 L124.619205,18.4072582 C124.516642,18.4040575 124.413682,18.4024455 124.310345,18.4024455 L124.060674,18.4055935 L123.756374,18.4179843 L123.575796,18.4298516 L123.405659,18.4440252 L123.122597,18.4743366 L122.844546,18.5122813 L122.694953,18.5362884 L122.50514,18.569763 L122.388007,18.5924866 L122.388007,18.5924866 L122.055613,18.6648268 L121.966208,18.686896 C121.806054,18.7264916 121.647383,18.7700532 121.490299,18.8174747 L121.206271,18.9073631 L121.09184,18.9471882 L120.874446,19.0260714 L120.874446,19.0260714 L120.659354,19.1099275 L120.501963,19.1750346 L120.287493,19.268977 L120.287493,19.268977 L120.082076,19.3647511 L120.082076,19.3647511 C119.869767,19.4667286 119.661466,19.576144 119.457488,19.6926729 C118.57439,20.1971694 117.772306,20.8349968 117.076675,21.5798266 L116.957163,21.7095881 C116.864805,21.8120357 116.774434,21.9164156 116.686115,22.0226626 C115.169785,23.8442301 114.252874,26.2141253 114.252874,28.8038278 C114.252874,31.3862607 115.164644,33.7501186 116.673248,35.5694756 L116.825877,35.7495941 C116.956917,35.9003302 117.092056,36.0470997 117.231167,36.1897026 L117.443731,36.4013852 L117.654328,36.5993802 C118.297119,37.1869253 119.013032,37.6908367 119.786083,38.0945728 L120.082038,38.2433344 L120.317634,38.3526365 L120.546328,38.4512977 L120.791024,38.5497547 L120.791024,38.5497547 L121.091901,38.6607 L121.40666,38.7645203 L121.40666,38.7645203 L121.594298,38.8210716 L121.767413,38.869477 L121.767413,38.869477 L121.966362,38.9203894 L122.182539,38.9716231 L122.421124,39.0217064 L122.683286,39.0692846 L123.084041,39.1280284 L123.283771,39.1516012 L123.405611,39.1636246 L123.652213,39.1827009 L123.893716,39.1960782 L124.064051,39.2018944 L124.310345,39.20521 L124.310345,39.20521 L124.618994,39.2003968 L124.618994,39.2003968 L124.92465,39.1860923 L125.125145,39.1710684 L125.413219,39.1433485 L125.702932,39.1062346 L125.984792,39.0615863 L126.227657,39.0157754 L126.380208,38.9844922 L126.380208,38.9844922 L126.610781,38.9314565 L126.898752,38.8571259 L127.166283,38.779406 L127.376836,38.7115872 L127.554171,38.6510985 L127.780175,38.5688522 L127.990274,38.4859971 L128.192627,38.4010231 L128.338179,38.3358594 L128.634006,38.1963843 C128.832687,38.0982108 129.027786,37.9934828 129.219042,37.8824716 C131.635166,36.4800737 133.437821,34.0749276 134.095726,31.2138541 C134.190321,30.8024837 134.26125,30.3816878 134.306934,29.9530919 L134.327453,29.7406106 C134.339752,29.5985427 134.349281,29.4556568 134.355984,29.3120111 C134.363845,29.1437482 134.367816,28.974264 134.367816,28.8038278 C134.367816,28.6267868 134.363531,28.4507732 134.355062,28.2758919 L134.339112,28.0132516 L134.339112,28.0132516 L134.311654,27.6991095 L134.311654,27.6991095 L134.286833,27.4796038 C134.244376,27.1350215 134.185577,26.795677 134.111267,26.4624278 C133.424644,23.3831788 131.413828,20.8243458 128.736137,19.4624739 L128.450492,19.322937 L128.265789,19.2387929 L128.071009,19.155134 L127.845332,19.0638701 L127.546029,18.9532101 L127.41584,18.9084665 L127.41584,18.9084665 L127.028582,18.7869674 L126.86583,18.7416009 L126.74959,18.7109206 L126.52433,18.6556687 L126.220657,18.5897976 L126.00349,18.5493322 L125.865781,18.5261814 L125.865781,18.5261814 L125.714318,18.5031359 L125.466649,18.4704883 L125.203775,18.4429474 L125.094812,18.4333413 L124.844096,18.4168675 Z" id="Shape"></path>
            </g>
        </g>
    </g>
</svg>