<?xml version="1.0" encoding="UTF-8"?>
<svg width="140px" height="80px" viewBox="0 0 140 80" version="1.1" xmlns="http://www.w3.org/2000/svg" xmlns:xlink="http://www.w3.org/1999/xlink">
    <title>Artboard</title>
    <g id="Artboard" stroke="none" stroke-width="1" fill="none" fill-rule="evenodd">
        <g id="Issuer-/-Knab" transform="translate(0.000000, -30.000000)" fill="#003B5A">
            <g id="knab-logo" transform="translate(0.000000, 47.250000)">
                <path d="M136.911032,40.5053381 C138.405694,40.5053381 139.551601,41.6512456 139.551601,43.1459075 C139.551601,44.6405694 138.355872,45.7864769 136.911032,45.7864769 C135.41637,45.7864769 134.270463,44.6405694 134.270463,43.1459075 C134.270463,41.6512456 135.41637,40.5053381 136.911032,40.5053381 Z M112.298932,0.448398577 L112.298154,12.3356317 C112.295819,13.5453737 112.286477,14.6850534 112.24911,15.544484 C113.94306,14 116.782918,12.5053381 120.918149,12.5053381 C130.035587,12.5053381 135.814947,19.6298932 135.864769,28.8967972 C135.864769,38.2135231 130.035587,45.3879004 120.868327,45.3879004 C117.330961,45.3879004 114.142349,44.341637 111.800712,42.0996441 L111.800712,42.0996441 L111.850534,44.6903915 L103.629893,44.6903915 C102.83274,44.6903915 102.085409,43.8434164 102.085409,42.8469751 L102.085409,42.8469751 L102.085409,2.29181495 C102.085409,1.44483986 102.782918,0.448398577 103.580071,0.448398577 L103.580071,0.448398577 L112.298932,0.448398577 Z M82.6049822,12.5053381 C88.4839858,12.5053381 91.9217082,13.8505338 94.4128114,16.1921708 C96.8540925,18.4839858 98.1494662,21.5729537 98.1992883,26.9039146 L98.1992883,26.9039146 L98.1992883,44.6405694 L89.7295374,44.6405694 C88.9323843,44.6405694 88.3843416,44.0925267 88.3345196,43.4946619 L88.3345196,43.4946619 L88.1850534,41.3523132 C86.8398577,42.6975089 84.2491103,45.3879004 79.1174377,45.3879004 C73.5373665,45.3879004 67.6085409,42.3487544 67.6085409,35.3238434 C67.6085409,28.2989324 74.0854093,25.9074733 79.9145907,25.658363 L79.9145907,25.658363 L87.886121,25.3594306 L87.886121,24.6619217 C87.886121,21.3238434 85.544484,19.5800712 81.4092527,19.5800712 C77.3736655,19.5800712 73.3879004,21.3736655 71.7437722,22.4199288 L71.7437722,22.4199288 L69.6512456,17.1886121 C69.3523132,16.4412811 69.6512456,15.4448399 70.3985765,15.0960854 C73.2384342,13.9003559 77.5729537,12.5053381 82.6049822,12.5053381 Z M136.911032,40.9039146 C135.66548,40.9039146 134.669039,41.9003559 134.669039,43.1459075 C134.669039,44.3914591 135.66548,45.3879004 136.911032,45.3879004 C138.156584,45.3879004 139.153025,44.3914591 139.153025,43.1459075 C139.153025,41.9003559 138.156584,40.9039146 136.911032,40.9039146 Z M53.2597865,12.5053381 C62.4270463,12.5053381 64.8185053,18.3843416 64.7686833,26.0569395 L64.7686833,26.0569395 L64.7686833,44.7402135 L56,44.7402135 C55.252669,44.7402135 54.5053381,43.8932384 54.5053381,42.8967972 L54.5053381,42.8967972 L54.5053381,28.2989324 C54.5053381,24.113879 53.8576512,20.975089 49.6227758,20.975089 C45.2384342,20.975089 43.9928826,24.5622776 43.9928826,29.0960854 L43.9928826,29.0960854 L43.9928826,44.7402135 L35.2740214,44.7402135 C34.4768683,44.7402135 33.7295374,43.7935943 33.7295374,42.8967972 L33.7295374,42.8967972 L33.7295374,14.9964413 C33.7295374,14.0996441 34.4270463,13.1032028 35.2241993,13.1032028 L35.2241993,13.1032028 L43.9928826,13.1032028 L43.9430605,17.6370107 L44.0925267,17.6370107 C45.8362989,14.8469751 48.7259786,12.5053381 53.2597865,12.5053381 Z M10.5124555,0.398576512 L10.5124555,23.5160142 L19.2313167,14.0996441 C19.7295374,13.5017794 20.5765125,13.0533808 21.3736655,13.0533808 L21.3736655,13.0533808 L31.9359431,13.0533808 L20.3772242,24.911032 L32.8825623,44.6903915 L22.9679715,44.6903915 C21.9217082,44.6903915 21.024911,44.3914591 20.3772242,43.4946619 L20.3772242,43.4946619 L13.3523132,32.3843416 L10.5124555,35.1245552 L10.5124555,44.6903915 L1.74377224,44.6903915 C0.846975089,44.6903915 0.24911032,43.7437722 0.24911032,42.8469751 L0.24911032,42.8469751 L0.24911032,2.24199288 C0.24911032,1.39501779 0.946619217,0.398576512 1.74377224,0.398576512 L1.74377224,0.398576512 L10.5124555,0.398576512 Z M136.960854,41.6014235 C137.608541,41.6014235 138.05694,41.9501779 138.05694,42.5480427 C138.05694,43.1459075 137.658363,43.3451957 137.409253,43.4448399 L138.206406,44.6903915 L137.459075,44.6903915 L136.811388,43.4448399 L136.512456,43.4448399 L136.512456,44.6903915 L135.864769,44.6903915 L135.864769,41.6014235 L136.960854,41.6014235 Z M136.86121,42.1494662 L136.512456,42.1494662 L136.512456,42.9964413 L136.86121,42.9964413 C137.160142,42.9964413 137.409253,42.9466192 137.409253,42.5978648 C137.409253,42.1992883 137.160142,42.1494662 136.86121,42.1494662 Z M87.9857651,30.8896797 L82.9039146,31.1886121 C79.7651246,31.2882562 77.9217082,32.683274 77.9217082,35.024911 C77.9217082,37.4163701 79.9145907,38.911032 82.7544484,38.911032 C85.4946619,38.911032 87.3380783,37.1174377 87.9857651,36.0213523 L87.9857651,36.0213523 L87.9857651,30.8896797 Z M118.725979,20.4270463 C114.391459,20.4270463 111.451957,23.7651246 111.451957,28.6476868 C111.451957,33.5302491 114.441281,36.8683274 118.725979,36.8683274 C123.060498,36.8683274 125.900356,33.5302491 125.900356,28.6476868 C125.900356,23.7651246 123.010676,20.4270463 118.725979,20.4270463 Z" id="logo" fill-rule="nonzero"></path>
            </g>
        </g>
    </g>
</svg>