<?xml version="1.0" encoding="UTF-8"?>
<svg width="240px" height="80px" viewBox="0 0 240 80" version="1.1" xmlns="http://www.w3.org/2000/svg" xmlns:xlink="http://www.w3.org/1999/xlink">
    <title>Artboard</title>
    <defs>
        <linearGradient x1="75.5551195%" y1="90.0119454%" x2="40.9921502%" y2="35.8964164%" id="linearGradient-1">
            <stop stop-color="#F89F20" offset="0%"></stop>
            <stop stop-color="#F79A20" offset="25.02%"></stop>
            <stop stop-color="#F68D20" offset="53.31%"></stop>
            <stop stop-color="#F58720" offset="61.96%"></stop>
            <stop stop-color="#F48120" offset="72.32%"></stop>
            <stop stop-color="#F37521" offset="100%"></stop>
        </linearGradient>
        <linearGradient x1="70.0984642%" y1="89.2836177%" x2="19.5836177%" y2="-9.45051195%" id="linearGradient-2">
            <stop stop-color="#F58720" offset="0%"></stop>
            <stop stop-color="#E16F27" offset="35.87%"></stop>
            <stop stop-color="#D4602C" offset="70.3%"></stop>
            <stop stop-color="#D05B2E" offset="98.16%"></stop>
        </linearGradient>
    </defs>
    <g id="Artboard" stroke="none" stroke-width="1" fill="none" fill-rule="evenodd">
        <g id="Payment-method-/-Discover" transform="translate(0.000000, -80.000000)">
            <g id="Discover-Card-logo-vector-01" transform="translate(0.000000, 100.000000)">
                <path d="M11.1724138,1.24137931 L0.344827586,1.24137931 L0.344827586,39.1724138 L11.1724138,39.1724138 C16.8965517,39.1724138 21.0344828,37.7931034 24.6896552,34.8275862 C29.0344828,31.2413793 31.5862069,25.862069 31.5862069,20.2758621 C31.5172414,9.03448276 23.1724138,1.24137931 11.1724138,1.24137931 Z M19.862069,29.7931034 C17.5172414,31.862069 14.5517241,32.8275862 9.72413793,32.8275862 L7.72413793,32.8275862 L7.72413793,7.72413793 L9.72413793,7.72413793 C14.4827586,7.72413793 17.3793103,8.55172414 19.862069,10.7586207 C22.4137931,13.0344828 23.9310345,16.5517241 23.9310345,20.2068966 C23.9310345,23.862069 22.4137931,27.5172414 19.862069,29.7931034 Z" id="Shape" fill="#231F20" fill-rule="nonzero"></path>
                <rect id="XMLID_422_" fill="#231F20" fill-rule="nonzero" x="34.9655172" y="1.24137931" width="7.37931034" height="37.9310345"></rect>
                <path d="M60.4137931,15.7931034 C56,14.137931 54.6896552,13.0344828 54.6896552,11.0344828 C54.6896552,8.62068966 57.0344828,6.82758621 60.2068966,6.82758621 C62.4137931,6.82758621 64.2758621,7.72413793 66.137931,9.93103448 L70,4.89655172 C66.8275862,2.13793103 63.0344828,0.689655172 58.8275862,0.689655172 C52.137931,0.689655172 46.9655172,5.37931034 46.9655172,11.5862069 C46.9655172,16.8275862 49.3793103,19.5172414 56.2758621,22 C59.1724138,23.0344828 60.6206897,23.7241379 61.3793103,24.137931 C62.8275862,25.1034483 63.5862069,26.4827586 63.5862069,28.0689655 C63.5862069,31.1724138 61.1724138,33.4482759 57.862069,33.4482759 C54.3448276,33.4482759 51.5172414,31.6551724 49.7931034,28.4137931 L45.0344828,33.0344828 C48.4137931,38.0689655 52.5517241,40.2758621 58.137931,40.2758621 C65.7931034,40.2758621 71.2413793,35.1724138 71.2413793,27.7931034 C71.3793103,21.6551724 68.8275862,18.8965517 60.4137931,15.7931034 Z" id="XMLID_421_" fill="#231F20" fill-rule="nonzero"></path>
                <path d="M73.6551724,20.2758621 C73.6551724,31.4482759 82.4137931,40.0689655 93.6551724,40.0689655 C96.8275862,40.0689655 99.5862069,39.4482759 102.896552,37.862069 L102.896552,29.1724138 C99.9310345,32.137931 97.3103448,33.3103448 94,33.3103448 C86.5517241,33.3103448 81.2413793,27.9310345 81.2413793,20.2068966 C81.2413793,12.8965517 86.6896552,7.17241379 93.6551724,7.17241379 C97.1724138,7.17241379 99.862069,8.4137931 102.896552,11.4482759 L102.896552,2.75862069 C99.6551724,1.10344828 96.9655172,0.413793103 93.7931034,0.413793103 C82.6896552,0.413793103 73.6551724,9.24137931 73.6551724,20.2758621 Z" id="XMLID_420_" fill="#231F20" fill-rule="nonzero"></path>
                <polygon id="XMLID_419_" fill="#231F20" fill-rule="nonzero" points="161.655172 26.7586207 151.517241 1.24137931 143.448276 1.24137931 159.517241 40.137931 163.517241 40.137931 179.862069 1.24137931 171.862069 1.24137931"></polygon>
                <polygon id="XMLID_418_" fill="#231F20" fill-rule="nonzero" points="183.241379 39.1724138 204.206897 39.1724138 204.206897 32.7586207 190.62069 32.7586207 190.62069 22.5517241 203.724138 22.5517241 203.724138 16.137931 190.62069 16.137931 190.62069 7.72413793 204.206897 7.72413793 204.206897 1.24137931 183.241379 1.24137931"></polygon>
                <path d="M233.517241,12.4827586 C233.517241,5.37931034 228.62069,1.31034483 220.068966,1.31034483 L209.103448,1.31034483 L209.103448,39.2413793 L216.482759,39.2413793 L216.482759,24 L217.448276,24 L227.655172,39.2413793 L236.758621,39.2413793 L224.827586,23.2413793 C230.413793,22.0689655 233.517241,18.2758621 233.517241,12.4827586 Z M218.62069,18.7586207 L216.482759,18.7586207 L216.482759,7.24137931 L218.758621,7.24137931 C223.37931,7.24137931 225.862069,9.17241379 225.862069,12.8965517 C225.862069,16.6896552 223.37931,18.7586207 218.62069,18.7586207 Z" id="Shape" fill="#231F20" fill-rule="nonzero"></path>
                <circle id="XMLID_415_" fill="url(#linearGradient-1)" fill-rule="nonzero" cx="125.586207" cy="20.3448276" r="20.2068966"></circle>
                <circle id="XMLID_414_" fill="url(#linearGradient-2)" fill-rule="nonzero" opacity="0.65" cx="125.586207" cy="20.3448276" r="20.2068966"></circle>
                <g id="XMLID_436_" transform="translate(233.793103, 0.000000)" fill="#231F20" fill-rule="nonzero">
                    <path d="M4.4137931,2.68965517 C4.4137931,2 3.93103448,1.65517241 3.17241379,1.65517241 L2.06896552,1.65517241 L2.06896552,4.96551724 L2.89655172,4.96551724 L2.89655172,3.65517241 L3.86206897,4.96551724 L4.82758621,4.96551724 L3.72413793,3.5862069 C4.13793103,3.51724138 4.4137931,3.17241379 4.4137931,2.68965517 Z M3.03448276,3.17241379 L2.89655172,3.17241379 L2.89655172,2.27586207 L3.03448276,2.27586207 C3.44827586,2.27586207 3.65517241,2.4137931 3.65517241,2.68965517 C3.65517241,3.03448276 3.44827586,3.17241379 3.03448276,3.17241379 Z" id="Shape"></path>
                    <path d="M3.31034483,0.413793103 C1.72413793,0.413793103 0.413793103,1.72413793 0.413793103,3.31034483 C0.413793103,4.89655172 1.72413793,6.20689655 3.31034483,6.20689655 C4.89655172,6.20689655 6.20689655,4.89655172 6.20689655,3.31034483 C6.20689655,1.72413793 4.89655172,0.413793103 3.31034483,0.413793103 Z M3.31034483,5.72413793 C2.06896552,5.72413793 0.965517241,4.68965517 0.965517241,3.31034483 C0.965517241,2 2,0.896551724 3.31034483,0.896551724 C4.55172414,0.896551724 5.5862069,2 5.5862069,3.31034483 C5.5862069,4.62068966 4.55172414,5.72413793 3.31034483,5.72413793 Z" id="Shape"></path>
                </g>
            </g>
        </g>
    </g>
</svg>