<?xml version="1.0" encoding="UTF-8"?>
<svg width="240px" height="80px" viewBox="0 0 240 80" version="1.1" xmlns="http://www.w3.org/2000/svg" xmlns:xlink="http://www.w3.org/1999/xlink">
    <title>Artboard</title>
    <g id="Artboard" stroke="none" stroke-width="1" fill="none" fill-rule="evenodd">
        <g id="Issuer-/-Handelsbanken-(white)" transform="translate(0.000000, -80.000000)" fill="#FFFFFF">
            <g id="Handelsbanken" transform="translate(120.000000, 119.500000) rotate(-270.000000) translate(-120.000000, -119.500000) translate(107.500000, -0.500000)">
                <path d="M24.1260458,219.027298 L24.1260458,224.332214 L13.7206718,224.332214 L13.7206718,234.084641 L24.1260458,234.084641 L24.1260458,239.387359 L0.015389313,239.387359 L0.015389313,234.084641 L9.26876336,234.084641 L9.26876336,224.332214 L0.015389313,224.332214 L0.015389313,219.027298 L24.1260458,219.027298 Z M24.1260458,199.667542 L24.1260458,204.271145 C23.736916,204.374473 23.7237252,204.365679 23.4247328,204.409649 C23.1455267,204.449221 22.7300153,204.449221 22.4398168,204.471206 C23.2268702,205.236275 23.778687,206.13545 24.0952672,207.170931 C24.4096489,208.204214 24.5679389,209.261679 24.5679389,210.34113 C24.5679389,211.172153 24.4668092,211.946015 24.2623511,212.669313 C24.0622901,213.388214 23.7479084,214.016977 23.3148092,214.557802 C22.8883053,215.096427 22.3496794,215.518534 21.6923359,215.821924 C21.0415878,216.125313 20.2611298,216.277008 19.3575573,216.277008 C18.3682443,216.277008 17.5526107,216.10113 16.908458,215.753771 C16.2665038,215.404214 15.7542595,214.955725 15.3695267,214.406107 C14.9869924,213.85429 14.6989924,213.223328 14.5077252,212.51542 C14.316458,211.805313 14.1647634,211.093008 14.0504427,210.371908 C13.9405191,209.653008 13.8503817,208.945099 13.7800305,208.248183 C13.7140763,207.549069 13.6107481,206.933496 13.4766412,206.392672 C13.3403359,205.854046 13.1446718,205.425344 12.8830534,205.108763 C12.6258321,204.794382 12.2476947,204.649282 11.7530382,204.671267 C11.2341985,204.671267 10.823084,204.754809 10.5174962,204.924092 C10.2141069,205.091176 9.97667176,205.31542 9.80738931,205.596824 C9.64030534,205.876031 9.52598473,206.201405 9.46882443,206.572947 C9.4138626,206.940092 9.38528244,207.338015 9.38528244,207.764519 C9.38528244,208.705466 9.58754198,209.444153 9.99645802,209.982779 C10.4031756,210.519206 11.0847023,210.835786 12.0366412,210.923725 L12.0366412,215.727389 C10.9088244,215.661435 9.97227481,215.377832 9.22919084,214.883176 C8.4839084,214.386321 7.88592366,213.759756 7.43523664,212.992489 C6.98454962,212.229618 6.66577099,211.367817 6.47230534,210.413679 C6.28103817,209.457344 6.18210687,208.496611 6.18210687,207.527084 C6.18210687,206.649893 6.2458626,205.76171 6.3689771,204.862534 C6.49429008,203.963359 6.73612214,203.14113 7.09667176,202.400244 C7.45722137,201.65716 7.95847328,201.050382 8.59822901,200.57771 C9.24238168,200.105038 10.0931908,199.869802 11.152855,199.869802 L20.2413435,199.869802 L22.505771,199.865405 C23.3961527,199.823634 23.4357252,199.821435 24.1260458,199.667542 Z M17.3723359,204.671267 L15.5827786,204.671267 C15.7630534,204.875725 15.9037557,205.126351 16.0048855,205.427542 C16.1082137,205.73313 16.1917557,206.058504 16.2599084,206.408061 C16.3280611,206.75542 16.3830229,207.118168 16.4269924,207.500702 C16.4731603,207.881038 16.5303206,208.263573 16.5962748,208.646107 C16.6644275,209.004458 16.7545649,209.358412 16.8644885,209.705771 C16.9788092,210.055328 17.1305038,210.358718 17.321771,210.615939 C17.5130382,210.87316 17.7570687,211.082015 18.0494656,211.240305 C18.3396641,211.396397 18.7112061,211.475542 19.1618931,211.475542 C19.5883969,211.475542 19.951145,211.396397 20.2413435,211.240305 C20.5359389,211.082015 20.7667786,210.866565 20.9338626,210.60055 C21.103145,210.330137 21.2218626,210.015756 21.2900153,209.657405 C21.3581679,209.296855 21.391145,208.925313 21.391145,208.542779 C21.391145,207.601832 21.232855,206.871939 20.9184733,206.355298 C20.6040916,205.838656 20.2281527,205.458321 19.788458,205.209893 C19.3509618,204.963664 18.9046718,204.814168 18.4539847,204.754809 C18.0032977,204.699847 17.6427481,204.671267 17.3723359,204.671267 Z M24.1238473,180.23084 L24.1238473,185.032305 L14.2570992,185.032305 C12.8170992,185.032305 11.7420458,185.25655 11.0319389,185.709435 C10.3240305,186.160122 9.96787786,186.962565 9.96787786,188.112366 C9.96787786,189.422656 10.3570076,190.370198 11.1352672,190.954992 C11.9113282,191.541985 13.1886412,191.834382 14.9694046,191.834382 L24.1238473,191.834382 L24.1238473,196.611664 L6.66137405,196.611664 L6.66137405,192.060824 L8.66638168,192.060824 L8.66638168,191.959695 C7.776,191.262779 7.23737405,190.645008 6.79328244,189.668885 C6.34259542,188.679573 6.19090076,187.633099 6.19090076,186.621802 C6.19090076,185.335695 6.36677863,184.280427 6.71633588,183.458198 C7.06369466,182.638168 7.54735878,181.989618 8.16732824,181.514748 C8.78729771,181.039878 9.54137405,180.710107 10.4295573,180.51884 C11.3177405,180.325374 12.304855,180.23084 13.3843053,180.23084 L24.1238473,180.23084 Z M24.1260458,160.075237 L24.1260458,164.637069 L22.2903206,164.637069 L22.2903206,164.700824 C23.2268702,165.393344 23.6929466,166.140824 24.0754809,167.064183 C24.4558168,167.985344 24.5679389,169.152733 24.565772,170.001344 C24.559145,171.307237 24.3107176,172.45484 23.8050687,173.446351 C23.2950229,174.435664 22.6112977,175.251298 21.7429008,175.893252 C20.8767023,176.533008 19.8785954,177.01887 18.7529771,177.344244 C17.6251603,177.669618 16.453374,177.834504 15.2354198,177.834504 C14.0680305,177.834504 12.9336183,177.669618 11.8387786,177.344244 C10.7483359,177.016672 9.78760305,176.533008 8.94998473,175.891053 C8.11676336,175.251298 7.44842748,174.44226 6.94058015,173.474931 C6.4349313,172.505405 6.1799084,171.381985 6.1799084,170.098076 C6.1799084,169.060397 6.32720611,168.108458 6.76470229,167.121344 C7.17581679,166.182595 7.64189313,165.558229 8.43334351,164.927267 L8.43334351,164.927267 L8.43334351,164.876702 L0.00219847328,164.876702 L0.00219847328,160.075237 L24.1260458,160.075237 Z M15.3387481,164.696427 C12.4983206,164.696427 9.70845802,165.771481 9.70845802,169.08458 C9.70845802,172.428458 12.4983206,173.582656 15.3695267,173.582656 C18.1088244,173.582656 21.0481832,172.25258 21.0481832,169.088977 C21.0481832,165.705527 18.2099542,164.696427 15.3387481,164.696427 Z M16.5698931,140.196641 L16.5698931,152.791695 C18.1264122,152.723542 19.2520305,152.327817 19.951145,151.606718 C20.6502595,150.890015 20.9998168,149.854534 20.9998168,148.502473 C20.9998168,147.535145 20.7557863,146.701924 20.2677252,146.005008 C19.7818626,145.305893 19.2674198,144.879389 18.7221985,144.718901 L18.7221985,140.497832 C20.8217405,141.174962 22.3210992,142.208244 23.2224733,143.606473 C24.1238473,145.002504 24.5745344,146.690931 24.5745344,148.671756 C24.5745344,150.045802 24.3568855,151.281344 23.9171908,152.387176 C23.4774962,153.490809 22.8531298,154.42516 22.0418931,155.190229 C21.2306565,155.959695 20.2611298,156.548885 19.1355115,156.968794 C18.0076947,157.386504 16.7677557,157.590962 15.4156947,157.590962 C14.112,157.590962 12.8940458,157.379908 11.766229,156.951206 C10.6406107,156.522504 9.66668702,155.913527 8.84445802,155.124275 C8.02222901,154.335023 7.37367939,153.396275 6.90100763,152.301435 C6.42833588,151.210992 6.19090076,150.001832 6.19090076,148.671756 C6.19090076,147.185588 6.47890076,145.892885 7.05270229,144.789252 C7.63090076,143.685618 8.40036641,142.779847 9.36989313,142.06974 C10.3372214,141.361832 11.4430534,140.847389 12.6851908,140.533008 C13.9229313,140.220824 15.2200305,140.106504 16.5698931,140.196641 Z M13.5206107,144.991511 C12.300458,145.215756 11.3749008,145.615878 10.7417405,146.189679 C10.1085802,146.763481 9.792,147.636275 9.792,148.808061 C9.792,149.570931 9.9239084,150.20629 10.1833282,150.714137 C10.4427481,151.221985 10.7637252,151.626504 11.148458,151.929893 C11.5309924,152.235481 11.9377099,152.446534 12.3708092,152.571847 C12.797313,152.69716 13.1820458,152.767511 13.5206107,152.791695 L13.5206107,144.991511 Z M24.124287,132.890279 L24.124287,137.69258 L0.0131908397,137.69258 L0.0131908397,132.890279 L24.124287,132.890279 Z M18.5221374,114.102962 C19.6741374,114.102962 20.6348702,114.333802 21.4131298,114.797679 C22.1913893,115.25716 22.8179542,115.86174 23.2884275,116.602626 C23.7632977,117.34571 24.0952672,118.198718 24.2865344,119.155053 C24.48,120.111389 24.5745344,121.083115 24.5745344,122.074626 C24.5745344,123.088122 24.4756031,124.079634 24.2733435,125.04916 C24.071084,126.018687 23.7325191,126.87829 23.2598473,127.632366 C22.789374,128.388641 22.1650076,129.008611 21.3889466,129.492275 C20.615084,129.975939 19.6433588,130.241954 18.4715725,130.285924 L18.4715725,125.732885 C18.9860153,125.732885 19.4301069,125.62516 19.8016489,125.414107 C20.1731908,125.198656 20.4721832,124.921649 20.7096183,124.583084 C20.944855,124.246718 21.1207328,123.855389 21.2306565,123.417893 C21.3427786,122.978198 21.3977405,122.523115 21.3977405,122.048244 C21.3977405,121.711878 21.3603664,121.357924 21.2812214,120.984183 C21.2020763,120.612641 21.0767634,120.274076 20.9074809,119.972885 C20.7403969,119.665099 20.5161527,119.412275 20.2347481,119.212214 C19.9533435,119.007756 19.5971908,118.906626 19.1684885,118.906626 C18.4473893,118.906626 17.9087634,119.385893 17.5482137,120.342229 C17.1854656,121.298565 16.824916,122.633038 16.4643664,124.34345 C16.3082748,125.042565 16.1214046,125.724092 15.9059542,126.390229 C15.6949008,127.054168 15.4112977,127.645557 15.0639389,128.162198 C14.7121832,128.67884 14.2724885,129.09655 13.744855,129.41313 C13.2150229,129.727511 12.5664733,129.885802 11.7992061,129.885802 C10.6735878,129.885802 9.75022901,129.665954 9.02912977,129.22626 C8.31022901,128.788763 7.74082443,128.203969 7.32091603,127.485069 C6.90760305,126.766168 6.61520611,125.952733 6.44592366,125.051359 C6.27664122,124.149985 6.19090076,123.228824 6.19090076,122.281282 C6.19090076,121.335939 6.28103817,120.416977 6.46131298,119.530992 C6.64158779,118.640611 6.9449771,117.846962 7.37587786,117.147847 C7.80238168,116.448733 8.37178626,115.870534 9.07969466,115.408855 C9.792,114.944977 10.6867786,114.670168 11.770626,114.577832 L11.770626,119.13087 C10.8428702,119.199023 10.2141069,119.546382 9.88433588,120.179542 C9.55676336,120.810504 9.39187786,121.553588 9.39187786,122.413191 C9.39187786,122.679206 9.40946565,122.976 9.44464122,123.29258 C9.47541985,123.606962 9.55236641,123.894962 9.66448855,124.152183 C9.77661069,124.411603 9.93929771,124.63145 10.1547481,124.811725 C10.368,124.992 10.656,125.084336 11.0143511,125.084336 C11.4430534,125.084336 11.7948092,124.923847 12.0630229,124.609466 C12.3334351,124.295084 12.5532824,123.883969 12.7225649,123.376122 C12.8940458,122.870473 13.0457405,122.290076 13.1798473,121.634931 C13.3161527,120.984183 13.4612519,120.320244 13.6217405,119.643115 C13.7778321,118.946198 13.9690992,118.264672 14.195542,117.600733 C14.4197863,116.936794 14.7187786,116.345405 15.0903206,115.828763 C15.4640611,115.309924 15.9257405,114.892214 16.4775573,114.575634 C17.029374,114.261252 17.7130992,114.102962 18.5221374,114.102962 Z M15.2354198,93.8396336 C16.453374,93.8396336 17.6229618,94.0001221 18.7507786,94.3276947 C19.8763969,94.6552672 20.8745038,95.1389313 21.7407023,95.7808855 C22.6090992,96.4206412 23.2950229,97.2384733 23.8028702,98.2277863 C24.3085191,99.2192977 24.559145,100.364702 24.5614693,101.670595 C24.5657405,102.517008 24.4558168,103.684397 24.0754809,104.607756 C23.6929466,105.533313 23.2246718,106.280794 22.2881221,106.968916 L22.2881221,106.968916 L22.2881221,107.037069 L24.1238473,107.037069 L24.1238473,111.598901 L-2.59969823e-12,111.598901 L-2.59969823e-12,106.795237 L8.43114504,106.795237 L8.43114504,106.74687 C7.63969466,106.115908 7.17581679,105.487145 6.76250382,104.550595 C6.32500763,103.561282 6.17770992,102.611542 6.17770992,101.576061 C6.17770992,100.292153 6.43273282,99.1665344 6.94058015,98.1992061 C7.44403053,97.2296794 8.11456489,96.4250382 8.94998473,95.7808855 C9.78320611,95.1411298 10.7461374,94.6574656 11.8387786,94.3276947 C12.9314198,94.0001221 14.0636336,93.8396336 15.2354198,93.8396336 Z M15.3695267,98.0892824 C12.4983206,98.0892824 9.70845802,99.2434809 9.70845802,102.589557 C9.70845802,105.900458 12.4983206,106.975511 15.3365496,106.975511 C18.2077557,106.975511 21.0459847,105.968611 21.0459847,102.58516 C21.0459847,99.4215573 18.1044275,98.0892824 15.3695267,98.0892824 Z M24.1260458,75.576916 L24.1260458,80.184916 C23.736916,80.2860458 23.7237252,80.2772519 23.4247328,80.3234198 C23.1455267,80.3629924 22.7300153,80.3607939 22.4398168,80.3827786 C23.2268702,81.1500458 23.778687,82.0492214 24.0952672,83.0803053 C24.4096489,84.1179847 24.5679389,85.1732519 24.5679389,86.2527023 C24.5679389,87.0859237 24.4668092,87.8597863 24.2623511,88.5808855 C24.0622901,89.3019847 23.7479084,89.9307481 23.3148092,90.469374 C22.8883053,91.008 22.3496794,91.4301069 21.6923359,91.7334962 C21.0415878,92.039084 20.2611298,92.1885802 19.3575573,92.1885802 C18.3682443,92.1885802 17.5526107,92.0149008 16.908458,91.667542 C16.2665038,91.3179847 15.7542595,90.8672977 15.3695267,90.3176794 C14.9869924,89.7658626 14.6989924,89.1370992 14.5077252,88.4291908 C14.316458,87.719084 14.1647634,87.0067786 14.0504427,86.2834809 C13.9405191,85.5667786 13.8503817,84.8566718 13.7800305,84.1597557 C13.7140763,83.4628397 13.6107481,82.8450687 13.4766412,82.3042443 C13.3403359,81.7656183 13.1446718,81.3347176 12.8830534,81.0225344 C12.6258321,80.7081527 12.2476947,80.560855 11.7530382,80.5828397 C11.2341985,80.5828397 10.823084,80.6663817 10.5174962,80.8378626 C10.2141069,81.0049466 9.97667176,81.2269924 9.80738931,81.5105954 C9.64030534,81.7876031 9.52598473,82.1151756 9.46882443,82.4845191 C9.4138626,82.8538626 9.38528244,83.2517863 9.38528244,83.6782901 C9.38528244,84.6192366 9.58754198,85.3579237 9.99645802,85.8965496 C10.4031756,86.4329771 11.0847023,86.7473588 12.0366412,86.8352977 L12.0366412,91.6389618 C10.9088244,91.5730076 9.97227481,91.2894046 9.22919084,90.7947481 C8.4839084,90.3000916 7.88592366,89.6713282 7.43523664,88.9062595 C6.98454962,88.1389924 6.66577099,87.2815878 6.47230534,86.3230534 C6.28103817,85.368916 6.18210687,84.4081832 6.18210687,83.440855 C6.18210687,82.5636641 6.2458626,81.6754809 6.3689771,80.7763053 C6.49429008,79.8749313 6.73612214,79.0549008 7.09667176,78.3118168 C7.45722137,77.5709313 7.95847328,76.9619542 8.59822901,76.4892824 C9.24238168,76.0166107 10.0931908,75.781374 11.152855,75.781374 L20.2413435,75.781374 L22.505771,75.7769771 C23.3961527,75.7374046 23.4357252,75.7352061 24.1260458,75.576916 Z M17.3723359,80.5828397 L15.5827786,80.5828397 C15.7630534,80.7850992 15.9037557,81.0401221 16.0048855,81.341313 C16.1082137,81.6447023 16.1917557,81.9722748 16.2599084,82.3196336 C16.3280611,82.6669924 16.3830229,83.0319389 16.4269924,83.4144733 C16.4731603,83.7948092 16.5303206,84.1773435 16.5962748,84.5576794 C16.6644275,84.918229 16.7545649,85.2721832 16.8644885,85.619542 C16.9788092,85.9669008 17.1305038,86.2724885 17.321771,86.5275115 C17.5130382,86.7869313 17.7570687,86.9957863 18.0494656,87.1518779 C18.3396641,87.3079695 18.7112061,87.3871145 19.1618931,87.3871145 C19.5883969,87.3871145 19.951145,87.3079695 20.2413435,87.1518779 C20.5359389,86.9957863 20.7667786,86.7803359 20.9338626,86.5121221 C21.103145,86.2417099 21.2218626,85.9295267 21.2900153,85.5689771 C21.3581679,85.2084275 21.391145,84.839084 21.391145,84.4543511 C21.391145,83.5134046 21.232855,82.7857099 20.9184733,82.2668702 C20.6040916,81.7524275 20.2281527,81.3698931 19.788458,81.1236641 C19.3509618,80.8752366 18.9046718,80.723542 18.4539847,80.6663817 C18.0032977,80.6114198 17.6427481,80.5828397 17.3723359,80.5828397 Z M24.1238473,56.1556031 L24.1238473,60.9592672 L14.2570992,60.9592672 C12.8170992,60.9592672 11.7420458,61.1857099 11.0319389,61.6385954 C10.3240305,62.0892824 9.96787786,62.8895267 9.96787786,64.0393282 C9.96787786,65.3496183 10.3570076,66.2971603 11.1352672,66.8841527 C11.9113282,67.4689466 13.1886412,67.7613435 14.9694046,67.7613435 L24.1238473,67.7613435 L24.1238473,72.5408244 L6.66137405,72.5408244 L6.66137405,67.9899847 L8.66638168,67.9899847 L8.66638168,67.888855 C7.776,67.1897405 7.23737405,66.5719695 6.79328244,65.5958473 C6.34259542,64.6065344 6.19090076,63.5622595 6.19090076,62.5487634 C6.19090076,61.264855 6.36677863,60.2095878 6.71633588,59.3851603 C7.06369466,58.5651298 7.54735878,57.9165802 8.16732824,57.4417099 C8.78729771,56.9690382 9.54137405,56.6370687 10.4295573,56.4458015 C11.3177405,56.2545344 12.304855,56.1556031 13.3843053,56.1556031 L24.1238473,56.1556031 Z M24.1260458,35.6526412 L24.1260458,41.4588092 L16.3258626,46.2536794 L18.1154198,48.1113893 L24.1260458,48.1113893 L24.1260458,52.912855 L0.015389313,52.912855 L0.015389313,48.1113893 L12.9490076,48.1113893 L6.66577099,42.0677863 L6.66577099,36.3957252 L13.0831145,42.9779542 L24.1260458,35.6526412 Z M16.5698931,18.8101374 L16.5698931,31.4095878 C18.1264122,31.3392366 19.2520305,30.9457099 19.951145,30.2246107 C20.6502595,29.5057099 20.9998168,28.470229 20.9998168,27.1181679 C20.9998168,26.1508397 20.7557863,25.3154198 20.2677252,24.6207023 C19.7818626,23.9215878 19.2674198,23.495084 18.7221985,23.3367939 L18.7221985,19.1157252 C20.8217405,19.7906565 22.3210992,20.8261374 23.2224733,22.2221679 C24.1238473,23.616 24.5745344,25.306626 24.5745344,27.2874504 C24.5745344,28.6614962 24.3568855,29.9014351 23.9171908,31.0028702 C23.4774962,32.1065038 22.8531298,33.0430534 22.0418931,33.8081221 C21.2306565,34.5731908 20.2611298,35.1667786 19.1355115,35.5844885 C18.0076947,36.0021985 16.7677557,36.2110534 15.4156947,36.2110534 C14.112,36.2110534 12.8940458,35.9956031 11.766229,35.5669008 C10.6406107,35.1381985 9.66668702,34.5292214 8.84445802,33.737771 C8.02222901,32.952916 7.37367939,32.0119695 6.90100763,30.9193282 C6.42833588,29.826687 6.19090076,28.6131298 6.19090076,27.2874504 C6.19090076,25.8012824 6.47890076,24.5063817 7.05270229,23.4049466 C7.63090076,22.301313 8.40036641,21.3933435 9.36989313,20.6854351 C10.3372214,19.9775267 11.4430534,19.463084 12.6851908,19.1487023 C13.9229313,18.8343206 15.2200305,18.72 16.5698931,18.8101374 Z M13.5206107,23.6050076 C12.300458,23.8314504 11.3749008,24.229374 10.7417405,24.805374 C10.1085802,25.3791756 9.792,26.2541679 9.792,27.4215573 C9.792,28.186626 9.9239084,28.8241832 10.1833282,29.3320305 C10.4427481,29.8354809 10.7637252,30.2421985 11.148458,30.5455878 C11.5309924,30.8489771 11.9377099,31.0644275 12.3708092,31.187542 C12.797313,31.3106565 13.1820458,31.3832061 13.5206107,31.4095878 L13.5206107,23.6050076 Z M24.1238473,4.60431693e-12 L24.1238473,4.80146565 L14.2570992,4.80146565 C12.8170992,4.80146565 11.7420458,5.0279084 11.0319389,5.47859542 C10.3240305,5.92928244 9.96787786,6.73172519 9.96787786,7.88152672 C9.96787786,9.19181679 10.3570076,10.1393588 11.1352672,10.7241527 C11.9113282,11.3133435 13.1886412,11.603542 14.9694046,11.603542 L24.1238473,11.603542 L24.1238473,16.3808244 L6.66137405,16.3808244 L6.66137405,11.8299847 L8.66638168,11.8299847 L8.66638168,11.7310534 C7.776,11.0319389 7.23737405,10.4141679 6.79328244,9.4380458 C6.34259542,8.44873282 6.19090076,7.40225954 6.19090076,6.38876336 C6.19090076,5.10485496 6.36677863,4.04958779 6.71633588,3.22735878 C7.06369466,2.40732824 7.54735878,1.75877863 8.16732824,1.2839084 C8.78729771,0.809038168 9.54137405,0.479267176 10.4295573,0.285801527 C11.3177405,0.0967328244 12.304855,4.60431693e-12 13.3843053,4.60431693e-12 L24.1238473,4.60431693e-12 Z" id="Combined-Shape"></path>
            </g>
        </g>
    </g>
</svg>