<?xml version="1.0" encoding="UTF-8"?>
<svg width="166px" height="80px" viewBox="0 0 166 80" version="1.1" xmlns="http://www.w3.org/2000/svg" xmlns:xlink="http://www.w3.org/1999/xlink">
    <title>Artboard</title>
    <defs>
        <path d="M9.52160237,0.315744807 C4.44210089,0.315744807 0.437412463,4.31994065 0.437412463,9.40830861 L0.437412463,9.40830861 L0.437412463,52.5037804 C0.437412463,57.4103858 4.61548961,61.5963442 9.52997626,61.5963442 L9.52997626,61.5963442 L20.6248843,61.5963442 L20.6248843,57.9566588 C20.6248843,52.8677982 24.8024688,48.864095 29.7090742,48.864095 L29.7090742,48.864095 L59.8979228,48.864095 C59.8324095,28.1441424 48.5517982,10.0560534 31.7887537,0.315744807 L31.7887537,0.315744807 L9.52160237,0.315744807 Z" id="path-1"></path>
        <polygon id="path-3" points="0.428595252 0.0982700297 145.717953 0.0982700297 145.717953 25.5637537 0.428595252 25.5637537"></polygon>
    </defs>
    <g id="Artboard" stroke="none" stroke-width="1" fill="none" fill-rule="evenodd">
        <g id="Payment-method-/-Carte-Bleue" transform="translate(0.000000, -43.000000)">
            <g id="Group-32" transform="translate(0.000000, 45.650000)">
                <path d="M29.7088279,49.288454 L153.718709,49.288454 L153.718709,9.83266766 C153.718709,4.9265549 149.540632,0.740103858 144.626145,0.740103858 L9.52184866,0.740103858 C4.4418546,0.740103858 0.437658754,4.7442997 0.437658754,9.83266766 L0.437658754,52.928632 C0.437658754,57.8347448 4.61573591,62.0211958 9.53022255,62.0211958 L20.624638,62.0211958 L20.624638,58.3810178 C20.624638,53.2926499 24.8027151,49.288454 29.7088279,49.288454" id="Fill-1" fill="#00468C"></path>
                <g id="Group-5" transform="translate(0.000000, 0.424605)">
                    <mask id="mask-2" fill="white">
                        <use xlink:href="#path-1"></use>
                    </mask>
                    <g id="Clip-4"></g>
                    <path d="M9.52160237,0.315744807 C4.44210089,0.315744807 0.437412463,4.31994065 0.437412463,9.40830861 L0.437412463,9.40830861 L0.437412463,52.5037804 C0.437412463,57.4103858 4.61548961,61.5963442 9.52997626,61.5963442 L9.52997626,61.5963442 L20.6248843,61.5963442 L20.6248843,57.9566588 C20.6248843,52.8677982 24.8024688,48.864095 29.7090742,48.864095 L29.7090742,48.864095 L59.8979228,48.864095 C59.8324095,28.1441424 48.5517982,10.0560534 31.7887537,0.315744807 L31.7887537,0.315744807 L9.52160237,0.315744807 Z" id="Fill-3" mask="url(#mask-2)"></path>
                </g>
                <g id="Group-31" transform="translate(6.403561, 7.320748)">
                    <g id="Group-8" transform="translate(13.792285, 41.869436)">
                        <mask id="mask-4" fill="white">
                            <use xlink:href="#path-3"></use>
                        </mask>
                        <g id="Clip-7"></g>
                        <path d="M136.617064,0.0982700297 L133.522666,0.0982700297 L133.522666,3.73844807 C133.522666,8.64456083 129.344589,12.8310119 124.430595,12.8310119 L0.428595252,12.8310119 L0.428595252,16.4711899 C0.428595252,21.3773027 4.6066724,25.5637537 9.52115905,25.5637537 L136.625438,25.5637537 C141.713313,25.5637537 145.718002,21.5595579 145.718002,16.4711899 L145.718002,9.19920772 C145.709628,4.10246588 141.531551,0.0982700297 136.617064,0.0982700297" id="Fill-6" fill="#AAD7F5" mask="url(#mask-4)"></path>
                    </g>
                    <path d="M147.315099,45.6079828 L147.315099,41.9678047 L23.3052178,41.9678047 C18.2173424,41.9678047 14.212654,45.9720006 14.212654,51.0603685 L14.212654,54.7005466 L138.222535,54.7005466 C143.137022,54.8823092 147.315099,50.3318404 147.315099,45.6079828" id="Fill-9" fill="#50B4E6"></path>
                    <path d="M3.8545003,8.32812641 C6.76664273,8.32812641 7.67693353,6.87205519 7.85869614,5.41598398 L6.40262493,5.41598398 C6.22086231,6.14401958 5.85684451,7.236073 4.2185181,7.236073 C2.76244688,7.236073 1.67039347,6.14401958 1.67039347,4.68794837 C1.67039347,2.86785935 2.76244688,1.95756855 4.03675549,1.95756855 C5.31057151,1.95756855 6.22086231,2.50384154 6.40262493,3.59589496 L8.04095134,3.59589496 C7.85869614,2.13982374 6.58488012,0.865515134 4.03675549,0.865515134 C1.30637567,0.865515134 0.0320670623,2.68560415 0.0320670623,4.68794837 C0.0320670623,6.6898 1.30637567,8.32812641 3.8545003,8.32812641" id="Fill-11" fill="#FFFFFF"></path>
                    <path d="M2.76244688,15.2363864 L4.03675549,12.1419887 L5.31057151,15.0541312 L2.76244688,15.2363864 C2.76244688,15.0541312 2.76244688,15.2363864 2.76244688,15.2363864 L2.76244688,15.2363864 Z M3.12646469,11.0583092 L0.0320670623,18.1485288 L1.67039347,18.1485288 L2.39842908,16.3284398 L5.67458932,16.3284398 L6.40262493,18.1485288 L8.04095134,18.1485288 L4.94655371,11.0583092 L3.12646469,11.0583092 Z" id="Fill-13" fill="#FFFFFF"></path>
                    <path d="M4.76459407,23.9647846 L2.21646944,23.9647846 L2.21646944,21.9624404 L4.76459407,21.9624404 C5.49262967,21.9624404 6.03890267,22.3264582 6.03890267,23.0544938 C6.03890267,23.7825294 5.67488487,23.9647846 4.76459407,23.9647846 M6.40292047,24.5110576 L6.40292047,24.5110576 C7.13095608,24.3288024 7.49497389,23.7825294 7.49497389,22.8727312 C7.49497389,21.7806777 6.94870089,20.8703869 5.12861187,20.8703869 L0.76039822,20.8703869 L0.76039822,27.9606065 L2.21646944,27.9606065 L2.21646944,25.2307193 L4.76459407,25.2307193 C5.85664748,25.2307193 6.03890267,25.9587549 6.03890267,26.8685531 C6.03890267,27.4148261 6.03890267,27.7788439 6.22066528,27.9606065 L7.8506178,27.9606065 C7.4866,27.5965887 7.4866,26.8685531 7.4866,26.5045353 C7.4866,25.4208558 7.30434481,24.6928202 6.40292047,24.5110576" id="Fill-15" fill="#FFFFFF"></path>
                    <polygon id="Fill-17" fill="#FFFFFF" points="0.760250445 31.9651964 3.30837507 31.9651964 3.30837507 37.7894813 4.76444629 37.7894813 4.76444629 31.9651964 7.48645223 31.9651964 7.48645223 30.6908878 0.760250445 30.6908878"></polygon>
                    <polygon id="Fill-19" fill="#FFFFFF" points="2.58043798 44.6979383 7.12253294 44.6979383 7.12253294 43.6058849 2.58043798 43.6058849 2.58043798 41.7857958 7.30429555 41.7857958 7.30429555 40.6937424 1.12436677 40.6937424 1.12436677 47.783962 7.30429555 47.783962 7.30429555 46.7002825 2.58043798 46.7002825"></polygon>
                    <path d="M127.318306,21.9709128 C126.408015,21.9709128 125.679979,21.2428772 125.679979,20.3325864 L125.679979,16.1545092 L139.132875,16.1545092 L139.132875,11.2483964 L125.679979,11.2483964 L125.679979,5.61424807 L139.132875,5.61424807 L139.132875,0.509624926 L125.679979,0.509624926 L120.773866,0.509624926 L120.773866,5.41573769 L120.773866,11.0498861 L120.773866,15.9559988 L120.773866,20.134076 C120.773866,23.7747466 123.686501,26.6785151 127.318306,26.6785151 L139.140757,26.6785151 L139.140757,21.7724024 L127.318306,21.7724024 L127.318306,21.9709128 Z" id="Fill-21" fill="#FFFFFF"></path>
                    <path d="M48.5804665,20.1507745 L48.5804665,0.509575668 L43.6743537,0.509575668 L43.6743537,20.3330297 C43.6743537,23.9732077 46.5864961,26.8769763 50.2187929,26.8769763 L62.0412439,26.8769763 L62.0412439,21.9708635 L50.2187929,21.9708635 C49.3085021,21.9708635 48.5804665,21.2428279 48.5804665,20.1507745" id="Fill-23" fill="#FFFFFF"></path>
                    <path d="M71.497727,0.5097727 L66.5916142,0.5097727 L66.5916142,5.41588546 L66.5916142,11.0500338 L66.5916142,15.9561466 L66.5916142,20.1342237 C66.5916142,23.7744018 69.5037567,26.6786629 73.1360534,26.6786629 L84.9585045,26.6786629 L84.9585045,21.7725501 L73.1276795,21.7725501 C72.2173887,21.7725501 71.4893531,21.0445145 71.4893531,20.1342237 L71.4893531,15.9561466 L84.9417567,15.9561466 L84.9417567,11.0500338 L71.497727,11.0500338 L71.497727,5.59814065 L84.9501306,5.59814065 L84.9501306,0.5097727 L71.497727,0.5097727 Z" id="Fill-25" fill="#FFFFFF"></path>
                    <path d="M109.133375,16.8745157 C109.133375,19.6048955 106.949268,21.9628837 104.045007,21.9628837 L100.587084,21.9628837 C97.8567045,21.9628837 95.4987163,19.7782843 95.4987163,16.8745157 L95.4987163,0.32771454 L90.5842297,0.32771454 L90.5842297,16.6922605 C90.5842297,22.1446463 95.1263246,26.6951151 100.587084,26.6951151 L104.0455,26.6951151 C109.497393,26.6951151 114.047862,22.1530202 114.047862,16.6922605 L114.047862,0.32771454 L109.141749,0.32771454 L109.141749,16.8745157 L109.133375,16.8745157 Z" id="Fill-27" fill="#FFFFFF"></path>
                    <path d="M29.6757757,22.1529217 L19.3093958,22.1529217 L19.3093958,15.6084825 L28.9477401,15.6084825 L29.6757757,15.6084825 C31.4958647,15.6084825 32.9519359,17.0645537 32.9519359,18.8851353 C32.9519359,20.7052243 31.3057282,22.1529217 29.6757757,22.1529217 L29.6757757,22.1529217 Z M19.1271407,5.60612047 L28.7654849,5.60612047 C30.0397935,5.60612047 31.3141021,6.69817389 31.3141021,8.1542451 C31.3141021,9.42855371 30.2220487,10.7023697 28.7654849,10.7023697 L19.1271407,10.7023697 L19.1271407,5.60612047 Z M34.7641436,12.5145774 C35.6739418,11.2402688 36.2202148,9.78419763 36.2202148,8.1542451 C36.2202148,4.15004926 32.943562,0.700007715 28.7654849,0.700007715 L14.0392653,0.700007715 L14.0392653,5.60612047 L14.0392653,10.5122332 L14.0392653,15.418346 L14.0392653,21.9627852 L14.0392653,25.6029632 L14.0392653,26.8767792 L29.4935205,26.8767792 C34.0356154,26.8767792 37.6762861,23.2366012 37.6762861,18.6945062 C37.8580487,16.3286368 36.5842326,13.7883935 34.7641436,12.5145774 L34.7641436,12.5145774 Z" id="Fill-29" fill="#FFFFFF"></path>
                </g>
            </g>
        </g>
    </g>
</svg>