<?xml version="1.0" encoding="UTF-8"?>
<svg width="220px" height="80px" viewBox="0 0 220 80" version="1.1" xmlns="http://www.w3.org/2000/svg" xmlns:xlink="http://www.w3.org/1999/xlink">
    <title>Artboard</title>
    <defs>
        <linearGradient x1="-0.0502729156%" y1="50.0642857%" x2="100.007039%" y2="50.0642857%" id="linearGradient-1">
            <stop stop-color="#CA581A" offset="0%"></stop>
            <stop stop-color="#6E2E2B" offset="100%"></stop>
        </linearGradient>
        <linearGradient x1="-18.0061898%" y1="60.7432908%" x2="99.7886903%" y2="42.162927%" id="linearGradient-2">
            <stop stop-color="#FFE07D" offset="0%"></stop>
            <stop stop-color="#EE7203" offset="100%"></stop>
        </linearGradient>
        <linearGradient x1="42.4652012%" y1="33.8623444%" x2="59.1637423%" y2="72.4481141%" id="linearGradient-3">
            <stop stop-color="#2D2C86" offset="0%"></stop>
            <stop stop-color="#282674" offset="100%"></stop>
        </linearGradient>
    </defs>
    <g id="Artboard" stroke="none" stroke-width="1" fill="none" fill-rule="evenodd">
        <g id="Issuer-/-Rabobank-(White---alt)" transform="translate(0.000000, -70.000000)">
            <g id="rabobank" transform="translate(0.000000, 84.333333)">
                <path d="M150.393443,29.5737705 C149.672131,34.1901639 147.291803,36.5704918 144.478689,36.5704918 C142.67541,36.5704918 141.665574,35.2721311 141.954098,33.3245902 L142.963934,27.1213115 C143.32459,24.8131148 144.767213,23.0098361 147.219672,23.0098361 C149.816393,23.0098361 151.114754,24.8852459 150.393443,29.5737705 Z M140.583607,38.7344262 C140.944262,38.7344262 141.881967,40.3213115 144.911475,40.3213115 C151.259016,40.3213115 154.937705,35.704918 155.947541,29.7180328 C157.245902,22.3606557 153.639344,19.042623 149.167213,19.042623 C147.07541,19.042623 145.488525,19.2590164 144.334426,19.8360656 L146.065574,9.73770492 L140.727869,9.73770492 L135.462295,39.9606557 L139.429508,39.9606557 C139.429508,40.0327869 140.006557,38.7344262 140.583607,38.7344262 L140.583607,38.7344262 Z M197.062295,25.895082 C197.855738,21.3508197 196.196721,19.1147541 191.219672,19.1147541 C187.540984,19.1147541 186.098361,20.7737705 184.727869,22.1442623 L184.872131,19.6196721 L179.967213,19.6196721 L179.606557,23.3704918 L176.793443,40.0327869 L182.203279,40.0327869 L183.934426,29.2131148 C184.583607,25.4622951 187.108197,22.6491803 189.560656,22.6491803 C192.229508,22.6491803 192.229508,24.1639344 191.796721,26.5442623 L189.488525,40.0327869 L194.82623,40.0327869 L197.062295,25.895082 Z M219.422951,19.1147541 L213.147541,19.1147541 L205.934426,26.7606557 L205.862295,26.7606557 L208.747541,9.88196721 L203.554098,9.88196721 L198.288525,40.0327869 L203.62623,40.0327869 L204.131148,37.0032787 L205.213115,30.3672131 C208.02623,30.3672131 209.613115,30.6557377 210.839344,36.2819672 L211.704918,40.0327869 L217.114754,40.0327869 C217.114754,40.0327869 215.744262,34.3344262 214.878689,32.0983607 C213.940984,29.7180328 212.931148,28.2032787 210.767213,27.7704918 L219.422951,19.1147541 Z M65.3508197,26.5442623 C69.2459016,25.6786885 71.2655738,22.5770492 71.7704918,20.4852459 C73.1409836,14.8590164 70.6885246,10.4590164 63.4754098,10.5311475 L55.252459,10.5311475 L50.1311475,39.9606557 L55.5409836,39.9606557 L57.704918,28.2032787 C62.6098361,28.0590164 63.2590164,29.2852459 64.1967213,34.9836066 L65.0622951,40.0327869 L70.6163934,40.0327869 C69.9672131,37.0032787 69.5344262,34.1180328 69.0295082,31.8098361 C68.452459,29.357377 67.5868852,27.4819672 65.2786885,26.6163934 L65.3508197,26.5442623 Z M66.4327869,19.4754098 C66,22.0721311 63.9803279,23.947541 61.4557377,23.947541 L58.2819672,23.947541 L59.9409836,14.642623 L62.8262295,14.642623 C66.2163934,14.642623 66.8655738,16.8786885 66.4327869,19.4754098 Z M90.5967213,25.0295082 C91.3901639,20.557377 89.0098361,19.042623 84.1770492,19.042623 C78.1901639,19.042623 75.5934426,21.8557377 75.5934426,21.8557377 L77.4688525,24.957377 C77.4688525,24.957377 79.4163934,22.7213115 83.3114754,22.7213115 C85.4754098,22.7213115 85.547541,23.8032787 85.3311475,24.957377 L84.8983607,27.6262295 C77.1803279,27.4098361 73.2131148,29.0688525 72.347541,34.1901639 C71.6262295,38.3737705 74.7278689,40.3213115 78.2622951,40.3213115 C80.0655738,40.3213115 81.5081967,40.0327869 83.3114754,38.5180328 C83.6721311,39.5278689 84.2491803,40.0327869 84.9704918,40.1770492 C86.052459,40.3934426 88,40.1770492 88.5770492,39.7442623 C88.504918,39.095082 88.5770492,37.5803279 89.2262295,33.8295082 L90.5967213,25.0295082 Z M84.2491803,30.5114754 C83.3836066,36.5704918 82.5901639,37.2196721 79.6327869,37.2196721 C77.6131148,37.2196721 76.8918033,35.8491803 77.252459,34.0459016 C77.757377,31.5213115 79.6327869,30.5114754 84.2491803,30.5114754 Z M175.422951,25.0295082 C176.216393,20.557377 173.836066,19.042623 169.003279,19.042623 C163.016393,19.042623 160.419672,21.8557377 160.419672,21.8557377 L162.295082,24.957377 C162.295082,24.957377 164.242623,22.7213115 168.137705,22.7213115 C170.301639,22.7213115 170.37377,23.8032787 170.157377,24.957377 L169.72459,27.6262295 C162.006557,27.4098361 158.039344,29.0688525 157.17377,34.1901639 C156.452459,38.3737705 159.554098,40.3213115 163.088525,40.3213115 C164.891803,40.3213115 166.334426,40.0327869 168.137705,38.5180328 C168.498361,39.5278689 169.07541,40.0327869 169.796721,40.1770492 C170.878689,40.3934426 172.82623,40.1770492 173.403279,39.7442623 C173.331148,39.095082 173.403279,37.5803279 174.052459,33.8295082 L175.422951,25.0295082 Z M169.07541,30.5114754 C168.209836,36.5704918 167.416393,37.2196721 164.459016,37.2196721 C162.439344,37.2196721 161.718033,35.8491803 162.078689,34.0459016 C162.511475,31.5213115 164.386885,30.5114754 169.07541,30.5114754 Z M101.344262,40.3934426 C107.691803,40.3934426 111.370492,35.7770492 112.380328,29.7901639 C113.678689,22.4327869 110.072131,19.1147541 105.6,19.1147541 C103.508197,19.1147541 101.993443,19.3311475 100.767213,19.9081967 L102.498361,9.80983607 L97.1606557,9.80983607 L91.895082,40.0327869 L95.8622951,40.0327869 C95.8622951,40.0327869 96.4393443,38.8065574 97.0163934,38.8065574 C97.4491803,38.7344262 98.3147541,40.3934426 101.344262,40.3934426 Z M103.580328,23.0098361 C106.321311,23.0098361 107.47541,24.8852459 106.82623,29.5737705 C106.177049,34.4065574 103.72459,36.5704918 100.839344,36.5704918 C99.0360656,36.5704918 98.0262295,35.2721311 98.3147541,33.3245902 L99.3245902,27.1213115 C99.757377,24.8131148 101.127869,23.0098361 103.580328,23.0098361 L103.580328,23.0098361 Z M114.616393,31.4491803 C115.409836,23.7311475 118.872131,18.9704918 127.167213,18.9704918 C133.298361,18.9704918 135.318033,23.6590164 134.452459,28.6360656 C133.154098,36.642623 129.980328,40.4655738 122.190164,40.4655738 C117.140984,40.4655738 114.111475,36.3540984 114.616393,31.4491803 Z M128.898361,29.0688525 C129.259016,26.9770492 129.691803,22.7934426 126.085246,22.7934426 C123.632787,22.7934426 121.32459,24.452459 120.314754,30.295082 C119.665574,33.8295082 120.386885,36.7147541 123.2,36.7147541 C125.219672,36.7147541 127.816393,34.9836066 128.898361,29.0688525 Z" id="Shape" fill="#FFFFFF" fill-rule="nonzero"></path>
                <g id="Group">
                    <path d="M36.0655738,35.8491803 C36.1377049,35.9213115 36.2819672,35.9934426 36.3540984,36.0655738 C36.2819672,36.1377049 36.2819672,36.2098361 36.2098361,36.2819672 C35.2721311,36.1377049 34.3344262,36.0655738 33.3967213,35.9213115 C33.3245902,35.8491803 33.1803279,35.704918 33.1081967,35.6327869 C33.1803279,35.5606557 33.252459,35.4885246 33.252459,35.4885246 C34.1901639,35.5606557 35.1278689,35.704918 36.0655738,35.8491803 Z" id="Path" fill="#FFFFFF"></path>
                    <path d="M35.9934426,35.9213115 C36.0655738,35.9934426 36.2098361,36.0655738 36.2098361,36.0655738 C36.2098361,36.0655738 36.2098361,35.9934426 36.2819672,35.9934426 C36.2098361,35.9213115 36.0655738,35.8491803 35.9934426,35.7770492 C35.0557377,35.6327869 34.1180328,35.5606557 33.1803279,35.4163934 C33.1081967,35.4885246 33.0360656,35.5606557 33.0360656,35.5606557 C33.0360656,35.5606557 33.1081967,35.5606557 33.1081967,35.6327869 C33.1081967,35.6327869 33.1803279,35.5606557 33.1803279,35.5606557 C34.1901639,35.704918 35.0557377,35.8491803 35.9934426,35.9213115 Z" id="Path" fill="#A81815"></path>
                    <path d="M34.1901639,34.2622951 C33.9737705,34.2622951 33.6852459,34.3344262 33.6852459,34.3344262 L33.0360656,34.695082 C32.9639344,34.8393443 33.252459,34.9836066 33.252459,34.9836066 C33.252459,34.9836066 34.0459016,35.0557377 34.0459016,35.2721311 C34.6229508,35.5606557 35.8491803,35.6327869 36.4262295,35.6327869 L36.4262295,35.6327869 C36.3540984,35.4163934 36.2819672,35.2 36.1377049,34.9836066 C36.0655738,34.7672131 35.9213115,34.5508197 35.8491803,34.4065574 L35.8491803,34.4065574 C35.8491803,34.3344262 35.4163934,34.2622951 34.1901639,34.2622951 Z" id="Path" fill="#4F2644" fill-rule="nonzero" opacity="0.45"></path>
                    <g>
                        <path d="M34.3344262,31.9540984 C35.1278689,32.747541 35.7770492,33.6131148 36.2098361,34.5508197 C37.652459,37.5081967 37.147541,40.7540984 34.2622951,43.5672131 C30.9442623,46.8131148 25.3180328,48.8327869 18.7540984,48.8327869 C12.1901639,48.8327869 6.56393443,46.8131148 3.24590164,43.5672131 C0.360655738,40.7540984 -0.144262295,37.5081967 1.29836066,34.5508197 C1.73114754,33.6131148 2.38032787,32.747541 3.17377049,31.9540984 C2.23606557,32.8196721 1.5147541,33.6131148 0.86557377,34.9836066 C-0.57704918,37.7967213 -0.0721311475,41.8360656 2.8852459,44.7934426 C6.27540984,48.1114754 11.6131148,50.1311475 18.8262295,50.1311475 C26.1114754,50.1311475 31.3770492,48.0393443 34.6229508,44.7934426 C37.7967213,41.6196721 37.9409836,37.4360656 36.642623,34.9114754 C36.0655738,33.8295082 35.3442623,32.8918033 34.3344262,31.9540984 Z" id="Path" fill="url(#linearGradient-1)" fill-rule="nonzero"></path>
                        <g id="SVGID_2_-link" transform="translate(0.000000, 25.967213)" fill="#EE7203" fill-rule="nonzero">
                            <path d="M28.9967213,2.59672131 C25.9672131,1.29836066 22.3606557,0.649180328 18.7540984,0.649180328 C15.147541,0.649180328 11.5409836,1.29836066 8.51147541,2.59672131 C5.12131148,3.96721311 2.52459016,6.05901639 1.29836066,8.58360656 C-0.144262295,11.5409836 0.360655738,14.7868852 3.24590164,17.6 C6.56393443,20.8459016 12.1901639,22.8655738 18.7540984,22.8655738 C25.3180328,22.8655738 30.9442623,20.8459016 34.2622951,17.6 C37.147541,14.7868852 37.652459,11.5409836 36.2098361,8.58360656 C34.9836066,6.05901639 32.3868852,3.96721311 28.9967213,2.59672131 Z" id="SVGID_2_"></path>
                        </g>
                        <path d="M19.3311475,30.0065574 C18.7540984,28.7803279 18.8262295,27.6262295 18.9704918,26.6885246 C18.8983607,26.6885246 18.8262295,26.6885246 18.7540984,26.6885246 C15.147541,26.6885246 11.5409836,27.3377049 8.51147541,28.6360656 C5.12131148,30.0065574 2.52459016,32.0983607 1.29836066,34.6229508 C-0.144262295,37.5803279 0.360655738,40.8262295 3.24590164,43.6393443 C3.46229508,43.8557377 3.67868852,44 3.89508197,44.2163934 C16.0852459,43.4229508 22.4327869,36.2819672 19.3311475,30.0065574 Z" id="Path" fill="url(#linearGradient-2)" fill-rule="nonzero"></path>
                        <path d="M10.8918033,30.2229508 C13.1278689,30.8 15.2918033,31.4491803 17.5278689,32.3147541 C17.9606557,31.0163934 18.3934426,29.7180328 18.9704918,28.4196721 C19.4754098,29.7180328 19.9803279,31.0163934 20.4131148,32.3147541 C22.5770492,31.5213115 24.7409836,30.8721311 26.9770492,30.295082 C25.3901639,31.304918 23.947541,32.3147541 22.504918,33.4688525 C25.5344262,33.8295082 28.2754098,34.3344262 31.2327869,34.9836066 C28.2754098,34.9114754 25.5344262,35.0557377 22.5770492,35.2 C24.6688525,36.9311475 26.4,38.6622951 28.347541,40.5377049 C25.6786885,39.0229508 23.2262295,37.7967213 20.4852459,36.4983607 C19.9803279,38.8065574 19.4754098,41.1147541 18.9704918,43.4229508 C18.4655738,41.1147541 18.0327869,38.9508197 17.5278689,36.642623 C14.7868852,37.9409836 12.2622951,39.1672131 9.52131148,40.6098361 C11.4688525,38.7344262 13.2721311,37.0754098 15.3639344,35.2721311 C12.4065574,35.0557377 9.59344262,35.0557377 6.63606557,34.9836066 C9.59344262,34.3344262 12.4786885,33.8295082 15.5081967,33.4688525 C13.9213115,32.242623 12.4786885,31.1606557 10.8918033,30.2229508 Z M18.8983607,34.1901639 C18.8983607,32.5311475 18.8983607,30.8 18.8983607,29.1409836 C18.3934426,30.5836066 17.9606557,31.9540984 17.5278689,33.3967213 C18.0327869,33.6852459 18.4655738,33.9737705 18.8983607,34.1901639 Z M12.1901639,30.7278689 C13.9934426,31.5213115 15.7967213,32.4590164 17.5278689,33.3967213 C17.095082,33.4688525 16.6622951,33.4688525 16.2295082,33.5409836 C14.9311475,32.6032787 13.6327869,31.5934426 12.1901639,30.7278689 Z M18.8983607,34.1901639 C22.3606557,34.1901639 25.895082,34.3344262 29.357377,34.695082 C26.3278689,34.1180328 23.3704918,33.757377 20.2688525,33.3967213 C19.8360656,33.6852459 19.4032787,33.9737705 18.8983607,34.1901639 Z M25.6786885,30.7278689 C23.8754098,31.5213115 22.0721311,32.4590164 20.3409836,33.3967213 C20.2688525,33.1803279 20.1967213,32.8918033 20.1245902,32.6754098 C21.9278689,31.9540984 23.8032787,31.304918 25.6786885,30.7278689 Z M18.7540984,34.1901639 C18.8262295,36.642623 18.8983607,39.2393443 18.9704918,41.6196721 C19.4032787,39.4557377 19.9081967,37.2196721 20.4131148,35.0557377 C19.9081967,34.7672131 19.2590164,34.4786885 18.7540984,34.1901639 Z M26.6163934,39.2393443 C24.5967213,37.7967213 22.504918,36.3540984 20.3409836,35.0557377 C20.7737705,35.0557377 21.2065574,34.9836066 21.6393443,34.9836066 C23.3704918,36.3540984 25.0295082,37.7967213 26.6163934,39.2393443 Z M18.8983607,34.1901639 C15.3639344,34.2622951 12.6229508,34.4065574 9.16065574,34.695082 C12.1180328,34.695082 14.4262295,34.8393443 17.4557377,35.0557377 C17.9606557,34.7672131 18.4655738,34.4786885 18.8983607,34.1901639 Z M11.252459,39.2393443 C13.2721311,37.7967213 15.3639344,36.3540984 17.5278689,35.0557377 C17.6,35.3442623 17.6721311,35.6327869 17.7442623,35.8491803 C15.5081967,36.9311475 13.3442623,38.0852459 11.252459,39.2393443 Z" id="Shape" fill="#FFFFFF"></path>
                        <path d="M18.8983607,28.4918033 C19.4032787,29.7901639 19.9081967,31.0885246 20.3409836,32.3868852 C22.4327869,31.5934426 24.5245902,30.9442623 26.6885246,30.4393443 C26.7606557,30.3672131 26.8327869,30.3672131 26.904918,30.295082 C24.6688525,30.8721311 22.504918,31.5213115 20.3409836,32.3147541 C19.9081967,31.0163934 19.4754098,29.7180328 18.8983607,28.4196721 C18.3934426,29.7180328 17.8885246,31.0163934 17.4557377,32.3147541 C15.2918033,31.5213115 13.1278689,30.8 10.8196721,30.2229508 C10.8918033,30.295082 10.9639344,30.295082 11.0360656,30.3672131 C13.2,30.9442623 15.2918033,31.5934426 17.4557377,32.3868852 C17.9606557,31.0163934 18.3934426,29.7180328 18.8983607,28.4918033 Z" id="Path" fill="#C51A1B"></path>
                        <path d="M15.2918033,35.2 C13.2721311,36.9311475 11.3967213,38.6622951 9.44918033,40.5377049 C9.52131148,40.4655738 9.66557377,40.3934426 9.73770492,40.3934426 C11.6131148,38.5901639 13.2721311,37.0754098 15.2196721,35.3442623 L15.2196721,35.2 L15.2918033,35.2 Z" id="Path" fill="#C8411B"></path>
                        <path d="M18.8983607,34.1901639 L18.8983607,34.1901639 C18.8983607,34.1901639 18.8983607,34.2622951 18.8983607,34.2622951 L18.8983607,34.2622951 C18.8983607,34.2622951 18.8983607,34.2622951 18.8983607,34.1901639 Z" id="Path" fill="#C00D0D"></path>
                        <path d="M18.8262295,34.2622951 C18.8262295,34.2622951 18.8262295,34.2622951 18.8262295,34.2622951 C18.3213115,34.5508197 17.8885246,34.8393443 17.4557377,35.0557377 L17.4557377,35.1278689 C17.8885246,34.8393443 18.3934426,34.5508197 18.8262295,34.2622951 L18.8262295,34.1901639 C18.8983607,34.2622951 18.8983607,34.2622951 18.8262295,34.2622951 Z" id="Path" fill="#C00D0D"></path>
                        <path d="M17.5278689,33.3967213 C17.4557377,33.3967213 17.4557377,33.3967213 17.3836066,33.3967213 C17.0229508,33.4688525 16.5901639,33.4688525 16.2295082,33.5409836 C14.9311475,32.5311475 13.5606557,31.5934426 12.1901639,30.7278689 L12.1901639,30.8 C13.5606557,31.6655738 14.9311475,32.6032787 16.2295082,33.6131148 C16.6622951,33.5409836 17.095082,33.5409836 17.5278689,33.4688525 C17.9606557,33.6852459 18.3213115,33.9016393 18.7540984,34.1901639 C18.8262295,34.1901639 18.8983607,34.1901639 18.8983607,34.1901639 C18.4655738,33.9737705 17.9606557,33.6852459 17.5278689,33.3967213 Z" id="Path" fill="#C8411B"></path>
                        <path d="M11.252459,39.3836066 C13.3442623,38.157377 15.5081967,37.0754098 17.7442623,35.9934426 L17.7442623,35.8491803 C15.5803279,36.9311475 13.4163934,38.0131148 11.252459,39.2393443 L11.252459,39.3836066 Z" id="Path" fill="#C8411B"></path>
                        <path d="M20.3409836,35.0557377 C19.8360656,37.2196721 19.3311475,39.4557377 18.8983607,41.6196721 L18.8983607,41.6918033 C19.3311475,39.5278689 19.8360656,37.2918033 20.3409836,35.1278689 C21.7836066,35.9934426 23.947541,37.4360656 26.6163934,39.3836066 L26.6163934,39.2393443 C24.5967213,37.7967213 22.504918,36.3540984 20.3409836,35.0557377 Z" id="Path" fill="#A81815"></path>
                        <path d="M22.6491803,35.2721311 L22.5770492,35.2 L22.5770492,35.3442623 C24.5967213,37.0032787 26.1836066,38.5180328 28.0590164,40.3934426 C28.1311475,40.4655738 28.2754098,40.5377049 28.347541,40.5377049 C26.4,38.5901639 24.5967213,36.9311475 22.6491803,35.2721311 Z" id="Path" fill="#A81815"></path>
                        <path d="M15.2918033,33.4688525 C12.3344262,33.8295082 9.44918033,34.3344262 6.49180328,34.9836066 C6.63606557,34.9836066 6.78032787,34.9836066 6.92459016,34.9836066 C9.73770492,34.4065574 12.4786885,33.9016393 15.2918033,33.5409836 L15.2918033,33.4688525 L15.2918033,33.4688525 Z" id="Path" fill="#C8411B"></path>
                        <path d="M17.5278689,35.0557377 C14.7868852,34.8393443 12.0459016,34.695082 9.23278689,34.695082 L9.23278689,34.7672131 C11.9737705,34.7672131 14.642623,34.9114754 17.3836066,35.1278689 C17.4557377,35.1278689 17.4557377,35.1278689 17.5278689,35.0557377" id="Path" fill="#C8411B"></path>
                        <path d="M22.4327869,33.3967213 C25.4622951,33.757377 28.2032787,34.2622951 31.1606557,34.9114754 C31.0163934,34.9114754 30.8,34.9114754 30.6557377,34.9114754 C27.842623,34.3344262 25.2459016,33.9016393 22.4327869,33.5409836 L22.4327869,33.3967213 Z" id="Path" fill="#A81815"></path>
                        <path d="M18.8983607,34.1901639 C22.3606557,34.1901639 25.895082,34.3344262 29.357377,34.695082 L29.357377,34.7672131 C25.895082,34.4065574 22.504918,34.2622951 19.042623,34.2622951 C19.042623,34.2622951 18.9704918,34.2622951 18.9704918,34.1901639 C18.9704918,34.2622951 18.9704918,34.2622951 18.8983607,34.1901639 C18.9704918,34.1901639 18.9704918,34.1901639 19.042623,34.1901639" id="Path" fill="#A81815"></path>
                        <path d="M20.3409836,33.3967213 C20.4131148,33.3967213 20.4131148,33.3967213 20.4852459,33.3967213 C22.1442623,32.4590164 23.8754098,31.5934426 25.6786885,30.8 L25.6786885,30.7278689 C23.8032787,31.5213115 22.0721311,32.4590164 20.3409836,33.3967213" id="Path" fill="#A81815"></path>
                        <path d="M20.3409836,33.3967213 C20.2688525,33.1803279 20.1967213,32.8918033 20.1245902,32.6754098 L20.1245902,32.747541 C20.1967213,32.9639344 20.2688525,33.1803279 20.3409836,33.3967213 C20.3409836,33.3967213 20.3409836,33.3967213 20.3409836,33.3967213" id="Path" fill="#C00D0D"></path>
                        <path d="M19.2590164,48.1836066 C19.1868852,48.2557377 19.042623,48.3278689 18.8983607,48.4 C18.8262295,48.3278689 18.6819672,48.2557377 18.5377049,48.1836066 C18.5377049,47.2459016 18.5377049,46.3081967 18.5377049,45.2983607 C18.6098361,45.2262295 18.7540984,45.1540984 18.8983607,45.0819672 C18.9704918,45.1540984 19.1147541,45.2262295 19.2590164,45.2983607 C19.2590164,46.2360656 19.2590164,47.1737705 19.2590164,48.1836066 Z" id="Path" fill="#FFFFFF"></path>
                        <path d="M2.30819672,41.2590164 C2.23606557,41.3311475 2.16393443,41.4754098 2.16393443,41.547541 C2.23606557,41.6196721 2.45245902,41.6196721 2.52459016,41.6918033 C3.53442623,41.1868852 4.5442623,40.6098361 5.48196721,40.104918 C5.55409836,39.9606557 5.55409836,39.8885246 5.55409836,39.7442623 C5.48196721,39.7442623 5.33770492,39.6721311 5.26557377,39.6721311 C4.32786885,40.1770492 3.31803279,40.7540984 2.30819672,41.2590164 Z" id="Path" fill="#FFFFFF"></path>
                        <path d="M1.58688525,35.4163934 C1.5147541,35.4885246 1.3704918,35.5606557 1.29836066,35.6327869 C1.3704918,35.704918 1.3704918,35.7770492 1.44262295,35.8491803 C2.38032787,35.704918 3.31803279,35.6327869 4.2557377,35.4885246 C4.32786885,35.4163934 4.47213115,35.2721311 4.5442623,35.2 C4.47213115,35.1278689 4.4,35.0557377 4.4,35.0557377 C3.46229508,35.1278689 2.52459016,35.2721311 1.58688525,35.4163934 Z" id="Path" fill="#FFFFFF"></path>
                        <path d="M5.19344262,30.6557377 C5.12131148,30.7278689 4.97704918,30.7278689 4.90491803,30.8 C4.90491803,30.8721311 4.90491803,30.9442623 4.90491803,31.0163934 C5.62622951,31.0885246 6.27540984,31.2327869 6.99672131,31.3770492 C7.06885246,31.304918 7.21311475,31.2327869 7.2852459,31.2327869 C7.2852459,31.1606557 7.2852459,31.0885246 7.2852459,31.0885246 C6.56393443,30.8721311 5.84262295,30.8 5.19344262,30.6557377 Z" id="Path" fill="#FFFFFF"></path>
                        <path d="M26.1836066,27.7704918 C26.2557377,27.7704918 26.3278689,27.7704918 26.4721311,27.7704918 C26.4721311,27.7704918 26.5442623,27.842623 26.5442623,27.842623 C26.1836066,28.0590164 25.8229508,28.2754098 25.4622951,28.5639344 C25.3901639,28.5639344 25.2459016,28.5639344 25.1737705,28.5639344 C25.1737705,28.4918033 25.1016393,28.4918033 25.1016393,28.4196721 C25.4622951,28.2032787 25.8229508,27.9868852 26.1836066,27.7704918 Z" id="Path" fill="#FFFFFF"></path>
                        <path d="M18.6819672,26.7606557 C18.7540984,26.7606557 18.8262295,26.6885246 18.8983607,26.6885246 C18.9704918,26.6885246 19.042623,26.7606557 19.1147541,26.7606557 C19.1147541,27.0491803 19.1147541,27.3377049 19.1147541,27.6262295 C19.042623,27.6262295 18.9704918,27.6983607 18.8983607,27.6983607 C18.8262295,27.6983607 18.7540984,27.6262295 18.6819672,27.6262295 C18.6819672,27.3377049 18.6819672,27.0491803 18.6819672,26.7606557 Z" id="Path" fill="#FFFFFF"></path>
                        <path d="M11.1803279,27.9147541 C11.1803279,27.9147541 11.3245902,27.842623 11.3245902,27.7704918 C11.3967213,27.7704918 11.4688525,27.7704918 11.6131148,27.7704918 C11.9737705,27.9868852 12.3344262,28.2032787 12.695082,28.4918033 C12.695082,28.5639344 12.6229508,28.5639344 12.6229508,28.6360656 C12.5508197,28.6360656 12.4065574,28.6360656 12.3344262,28.6360656 C11.9016393,28.347541 11.5409836,28.1311475 11.1803279,27.9147541 Z" id="Path" fill="#FFFFFF"></path>
                        <path d="M9.01639344,46.3803279 C8.87213115,46.3803279 8.72786885,46.3803279 8.58360656,46.452459 C8.58360656,46.3803279 8.51147541,46.2360656 8.43934426,46.1639344 C9.16065574,45.2983607 9.80983607,44.504918 10.5311475,43.7114754 C10.6754098,43.7114754 10.8196721,43.6393443 10.9639344,43.6393443 C10.9639344,43.7114754 11.0360656,43.8557377 11.1081967,43.9278689 C10.3868852,44.7213115 9.66557377,45.5868852 9.01639344,46.3803279 Z" id="Path" fill="#FFFFFF"></path>
                        <path d="M35.2721311,41.2590164 C35.3442623,41.3311475 35.4163934,41.4754098 35.4163934,41.547541 C35.3442623,41.6196721 35.1278689,41.6196721 35.0557377,41.6918033 C34.0459016,41.1868852 33.0360656,40.6098361 32.0983607,40.104918 C32.0262295,39.9606557 32.0262295,39.8885246 32.0262295,39.7442623 C32.0983607,39.7442623 32.242623,39.6721311 32.3147541,39.6721311 C33.3245902,40.1770492 34.3344262,40.7540984 35.2721311,41.2590164 Z" id="Path" fill="#FFFFFF"></path>
                        <path d="M32.4590164,30.6557377 C32.5311475,30.7278689 32.6754098,30.7278689 32.747541,30.8 C32.747541,30.8721311 32.747541,30.9442623 32.747541,31.0163934 C32.0262295,31.0885246 31.3770492,31.2327869 30.6557377,31.3770492 C30.5836066,31.304918 30.4393443,31.2327869 30.3672131,31.2327869 C30.3672131,31.1606557 30.3672131,31.0885246 30.4393443,31.0885246 C31.0885246,30.8721311 31.7377049,30.8 32.4590164,30.6557377 Z" id="Path" fill="#FFFFFF"></path>
                        <path d="M28.6360656,46.3803279 C28.7803279,46.3803279 28.9245902,46.452459 29.0688525,46.452459 C29.1409836,46.3803279 29.1409836,46.2360656 29.2131148,46.1639344 C28.4918033,45.2983607 27.842623,44.504918 27.1213115,43.7114754 C26.9770492,43.7114754 26.8327869,43.6393443 26.6885246,43.6393443 C26.6885246,43.7114754 26.6163934,43.8557377 26.5442623,43.9278689 C27.2655738,44.7213115 27.9868852,45.5868852 28.6360656,46.3803279 Z" id="Path" fill="#FFFFFF"></path>
                        <path d="M2.30819672,41.4032787 C2.30819672,41.4754098 2.23606557,41.547541 2.23606557,41.547541 C2.23606557,41.547541 2.16393443,41.547541 2.16393443,41.547541 C2.23606557,41.4754098 2.30819672,41.3311475 2.30819672,41.2590164 C3.31803279,40.7540984 4.32786885,40.2491803 5.26557377,39.7442623 C5.33770492,39.7442623 5.48196721,39.8163934 5.55409836,39.8163934 C5.55409836,39.8885246 5.48196721,39.9606557 5.48196721,39.9606557 C5.40983607,39.9606557 5.26557377,39.8885246 5.19344262,39.8885246 C4.32786885,40.3934426 3.31803279,40.8983607 2.30819672,41.4032787 Z" id="Path" fill="#CA581A"></path>
                        <path d="M1.65901639,35.5606557 C1.58688525,35.6327869 1.44262295,35.704918 1.44262295,35.704918 C1.44262295,35.704918 1.44262295,35.6327869 1.3704918,35.6327869 C1.44262295,35.5606557 1.58688525,35.4885246 1.65901639,35.4163934 C2.59672131,35.2721311 3.53442623,35.2 4.47213115,35.0557377 C4.5442623,35.1278689 4.61639344,35.2 4.61639344,35.2 C4.61639344,35.2 4.61639344,35.2 4.5442623,35.2721311 C4.5442623,35.2721311 4.47213115,35.2 4.47213115,35.2 C3.46229508,35.2721311 2.59672131,35.4163934 1.65901639,35.5606557 Z" id="Path" fill="#CA581A"></path>
                        <path d="M4.90491803,30.9442623 C4.90491803,30.8721311 4.90491803,30.8721311 4.90491803,30.8 C4.97704918,30.7278689 5.12131148,30.7278689 5.19344262,30.6557377 C5.9147541,30.7278689 6.56393443,30.8721311 7.21311475,31.0163934 C7.21311475,31.0885246 7.21311475,31.1606557 7.21311475,31.1606557 C7.21311475,31.1606557 5.84262295,30.8721311 5.12131148,30.8 C5.12131148,30.8721311 4.97704918,30.8721311 4.90491803,30.9442623 Z" id="Path" fill="#CA581A"></path>
                        <path d="M26.4,27.9147541 C26.4721311,27.9147541 26.4721311,27.9147541 26.4,27.9147541 C26.4721311,27.9147541 26.4721311,27.9147541 26.4721311,27.842623 C26.4721311,27.842623 26.4,27.7704918 26.4,27.7704918 C26.3278689,27.7704918 26.2557377,27.7704918 26.1114754,27.7704918 C25.7508197,27.9868852 25.3901639,28.2032787 25.0295082,28.4918033 C25.0295082,28.4918033 25.1016393,28.5639344 25.1016393,28.5639344 C25.4622951,28.347541 25.7508197,28.1311475 26.1114754,27.9147541 C26.2557377,27.9147541 26.3278689,27.9147541 26.4,27.9147541 Z" id="Path" fill="#A81815"></path>
                        <path d="M18.6819672,26.904918 C18.7540984,26.904918 18.8262295,26.8327869 18.8983607,26.8327869 C18.9704918,26.8327869 19.042623,26.904918 19.1147541,26.904918 L19.1147541,26.7606557 C19.042623,26.7606557 18.9704918,26.6885246 18.8983607,26.6885246 C18.8262295,26.6885246 18.7540984,26.7606557 18.6819672,26.7606557 L18.6819672,26.904918 Z" id="Path" fill="#B6110E"></path>
                        <path d="M11.6131148,27.9147541 C11.9737705,28.1311475 12.2622951,28.347541 12.6229508,28.5639344 C12.6229508,28.5639344 12.695082,28.4918033 12.695082,28.4918033 C12.3344262,28.2754098 11.9737705,27.9868852 11.6131148,27.7704918 C11.5409836,27.7704918 11.4688525,27.7704918 11.3245902,27.7704918 C11.3245902,27.7704918 11.1803279,27.842623 11.1803279,27.9147541 C11.1803279,27.9147541 11.252459,27.9868852 11.252459,27.9868852 C11.252459,27.9868852 11.3245902,27.9147541 11.3245902,27.9147541 C11.3967213,27.9147541 11.4688525,27.9147541 11.6131148,27.9147541 Z" id="Path" fill="#C8411B"></path>
                        <path d="M10.9639344,43.7114754 C11.0360656,43.7836066 11.0360656,43.8557377 11.1081967,43.9278689 C11.1081967,43.9278689 11.1081967,43.9278689 11.1803279,43.8557377 C11.1803279,43.7836066 11.1081967,43.6393443 11.0360656,43.5672131 C10.8918033,43.5672131 10.747541,43.6393443 10.6032787,43.6393443 C9.88196721,44.4327869 9.16065574,45.2983607 8.51147541,46.0918033 C8.51147541,46.1639344 8.58360656,46.1639344 8.58360656,46.2360656 C9.01639344,45.7311475 10.0262295,44.5770492 10.6754098,43.7114754 C10.6754098,43.7836066 10.8196721,43.7836066 10.9639344,43.7114754 Z" id="Path" fill="#A81815"></path>
                        <path d="M35.2721311,41.4032787 C35.2721311,41.4754098 35.3442623,41.547541 35.3442623,41.547541 C35.3442623,41.547541 35.4163934,41.547541 35.4163934,41.547541 C35.3442623,41.4754098 35.2721311,41.3311475 35.2721311,41.2590164 C34.2622951,40.7540984 33.252459,40.2491803 32.3147541,39.7442623 C32.242623,39.7442623 32.0983607,39.8163934 32.0262295,39.8163934 C32.0262295,39.8885246 32.0983607,39.9606557 32.0983607,39.9606557 C32.1704918,39.9606557 32.3147541,39.8885246 32.3868852,39.8885246 C33.3245902,40.3934426 34.3344262,40.8983607 35.2721311,41.4032787 Z" id="Path" fill="#A81815"></path>
                        <path d="M32.747541,30.9442623 C32.747541,30.8721311 32.747541,30.8721311 32.747541,30.8 C32.6754098,30.7278689 32.5311475,30.7278689 32.4590164,30.6557377 C31.7377049,30.7278689 31.0885246,30.8721311 30.4393443,31.0163934 C30.4393443,31.0885246 30.4393443,31.1606557 30.3672131,31.1606557 C30.3672131,31.1606557 31.7377049,30.8721311 32.4590164,30.8 C32.5311475,30.8721311 32.6754098,30.8721311 32.747541,30.9442623 Z" id="Path" fill="#A81815"></path>
                        <path d="M26.6885246,43.7114754 C26.6163934,43.7836066 26.6163934,43.8557377 26.5442623,43.9278689 C26.5442623,43.9278689 26.5442623,43.9278689 26.4721311,43.8557377 C26.4721311,43.7836066 26.5442623,43.6393443 26.6163934,43.5672131 C26.7606557,43.5672131 26.904918,43.6393443 27.0491803,43.6393443 C27.7704918,44.4327869 28.4918033,45.2983607 29.1409836,46.0918033 C29.1409836,46.1639344 29.1409836,46.1639344 29.0688525,46.2360656 C28.6360656,45.7311475 27.6262295,44.5770492 26.9770492,43.7114754 C26.9770492,43.7836066 26.8327869,43.7836066 26.6885246,43.7114754 Z" id="Path" fill="#A81815"></path>
                        <path d="M19.1868852,45.3704918 L19.2590164,48.1114754 L19.2590164,45.2262295 C19.1868852,45.1540984 19.042623,45.0819672 18.8983607,45.0098361 C18.8262295,45.0819672 18.6819672,45.1540984 18.5377049,45.2262295 L18.5377049,48.1114754 L18.6098361,45.3704918 C18.6819672,45.2983607 18.8262295,45.2262295 18.8983607,45.2262295 C19.042623,45.2983607 19.1147541,45.3704918 19.1868852,45.3704918 Z" id="Path" fill="#A81815"></path>
                        <path d="M5.12131148,35.1278689 C6.34754098,29.5737705 14.0655738,27.9147541 18.8983607,27.9147541 C23.7311475,27.9147541 31.4491803,29.5737705 32.6754098,35.1278689 C34.1901639,42.052459 23.947541,44.5770492 18.8983607,44.5770492 C13.8491803,44.5770492 3.53442623,41.9803279 5.12131148,35.1278689 Z M5.62622951,35.0557377 C6.78032787,29.7180328 14.2098361,28.1311475 18.8983607,28.1311475 C23.5147541,28.1311475 31.0163934,29.7180328 32.1704918,35.0557377 C33.6131148,41.6918033 23.7311475,44.1442623 18.8983607,44.1442623 C14.0655738,44.1442623 4.18360656,41.6918033 5.62622951,35.0557377 Z" id="Shape" fill="#C8411B"></path>
                        <path d="M5.12131148,35.2721311 C6.34754098,29.7180328 13.704918,28.0590164 18.8983607,28.0590164 C24.0196721,28.0590164 31.4491803,29.7180328 32.6754098,35.2721311 C34.1901639,42.1967213 23.8754098,44.7213115 18.8983607,44.7213115 C13.9213115,44.7213115 3.60655738,42.1967213 5.12131148,35.2721311 Z M5.62622951,35.2 C6.78032787,29.8622951 14.2098361,28.2754098 18.8983607,28.2754098 C23.5147541,28.2754098 31.0163934,29.8622951 32.1704918,35.2 C33.6131148,41.8360656 23.7311475,44.2885246 18.8983607,44.2885246 C14.1377049,44.2885246 4.18360656,41.8360656 5.62622951,35.2 Z" id="Shape" fill="#FFFFFF"></path>
                        <path d="M35.3442623,36.4262295 L33.1081967,36.0655738 L32.8196721,35.9934426 C32.4590164,35.9213115 31.7377049,35.4885246 31.3770492,35.0557377 C31.0163934,34.5508197 30.295082,33.6852459 29.8622951,33.1803279 C29.2852459,32.4590164 27.9868852,31.8098361 27.7704918,31.5213115 C27.5540984,31.2327869 27.2655738,30.7278689 27.1934426,30.5114754 C27.1213115,30.295082 26.904918,30.1508197 26.5442623,30.1508197 C26.1836066,30.1508197 26.1836066,30.295082 25.895082,30.295082 C25.6065574,30.295082 25.1737705,30.2229508 25.1737705,30.2229508 C25.0295082,30.1508197 24.8852459,30.1508197 24.7409836,30.1508197 C24.5967213,30.4393443 24.3081967,30.6557377 23.5868852,30.6557377 C23.5147541,30.6557377 23.5147541,30.6557377 23.442623,30.6557377 C23.5147541,30.8 24.1639344,30.8721311 24.2360656,30.8721311 C24.3081967,30.8721311 24.957377,31.0163934 25.0295082,31.0885246 C25.3180328,31.1606557 25.2459016,31.0163934 25.6786885,31.304918 C26.4,31.7377049 27.4819672,32.8918033 27.6983607,33.8295082 C27.842623,34.4065574 28.7803279,35.2721311 28.852459,35.7770492 C27.6262295,35.704918 25.895082,34.8393443 25.895082,34.8393443 L25.6786885,34.7672131 C25.6786885,34.7672131 24.957377,34.4065574 23.8032787,34.3344262 C21.6393443,34.1180328 20.8459016,33.8295082 20.6295082,33.757377 C20.1967213,33.6131148 20.2688525,33.5409836 19.9081967,33.5409836 C19.8360656,33.5409836 19.7639344,33.5409836 19.6918033,33.5409836 C19.6196721,33.6131148 19.6196721,33.6852459 19.4754098,33.757377 C19.042623,34.1180328 18.8262295,34.4065574 18.4655738,34.9836066 C18.3934426,35.1278689 18.2491803,35.2 18.0327869,35.2721311 C18.4655738,35.2 19.2590164,34.9836066 19.2590164,34.9836066 C20.052459,34.9114754 21.2065574,35.2 21.2065574,35.2 C21.6393443,35.2721311 22.3606557,35.5606557 22.3606557,35.5606557 C22.3606557,35.5606557 25.4622951,36.4983607 26.1836066,37.0754098 C26.6885246,37.4360656 29.2131148,38.3737705 29.9344262,38.6622951 C30.5836066,38.8786885 32.242623,39.8163934 32.242623,39.8163934 C32.6754098,40.1770492 35.1278689,41.2590164 35.8491803,41.4754098 C36.7147541,39.9606557 37.0032787,38.3737705 36.7868852,36.8590164 L36.7868852,36.8590164 L35.3442623,36.4262295 Z" id="Path" fill="#4F2644" fill-rule="nonzero" opacity="0.45"></path>
                        <path d="M29.5737705,41.4032787 C29.5737705,41.4032787 29.4295082,41.1868852 28.6360656,41.1868852 C28.1311475,41.1868852 28.852459,42.3409836 28.852459,42.3409836 C29.2852459,42.6295082 30.9442623,43.1344262 31.2327869,43.1344262 C31.5934426,43.2065574 32.6754098,43.495082 32.6754098,43.495082 C32.6754098,43.495082 33.252459,43.5672131 33.9016393,43.7836066 C33.9737705,43.7114754 34.1180328,43.6393443 34.1901639,43.495082 C34.5508197,43.1344262 34.8393443,42.7737705 35.1278689,42.4131148 C33.757377,42.4131148 31.8098361,42.3409836 30.3672131,41.6196721 C30.295082,41.2590164 29.5737705,41.4032787 29.5737705,41.4032787 Z" id="Path" fill="#4F2644" fill-rule="nonzero" opacity="0.45"></path>
                        <path d="M25.4622951,19.9081967 C25.4622951,19.9081967 25.0295082,19.4754098 25.0295082,19.4754098 C25.0295082,19.3311475 25.1737705,19.1147541 25.1737705,18.8983607 C25.1016393,18.8983607 25.1016393,18.8262295 25.0295082,18.8262295 C24.8852459,18.3934426 24.8131148,17.6721311 25.0295082,17.2393443 C25.1016393,17.0229508 25.2459016,16.8065574 25.1737705,16.5180328 C24.8131148,15.2196721 24.0196721,14.1377049 23.5147541,12.9114754 C23.3704918,12.5508197 23.3704918,12.3344262 23.3704918,11.9737705 C22.9377049,11.5409836 22.504918,10.3868852 22.2885246,9.66557377 C21.7836066,10.8918033 21.495082,12.2622951 21.495082,12.5508197 C21.495082,13.9213115 22.8655738,14.5704918 22.3606557,16.8065574 C22.2885246,17.2393443 22.0721311,17.8163934 21.9278689,18.4655738 C22.2163934,20.052459 22.2163934,21.1344262 22.6491803,22.9377049 C23.2262295,23.5147541 23.7311475,24.2360656 23.947541,25.1737705 C24.0918033,25.7508197 24.5967213,27.1213115 25.2459016,27.3377049 C25.6065574,27.4819672 23.947541,27.7704918 23.442623,27.1934426 C23.0098361,26.6163934 22.1442623,26.1114754 21.7836066,25.5344262 C21.495082,25.0295082 20.9901639,24.0196721 20.7016393,23.5147541 L20.3409836,25.4622951 C20.8459016,27.4819672 20.557377,27.9868852 20.1245902,29.6459016 C19.9081967,30.3672131 18.4655738,26.9770492 18.4655738,26.7606557 C18.4655738,26.0393443 18.3934426,25.7508197 18.2491803,25.1016393 C17.9606557,24.5245902 17.9606557,23.6590164 18.0327869,23.0098361 C18.104918,21.9278689 18.104918,19.9081967 18.104918,19.4032787 C17.7442623,18.5377049 16.8065574,16.8786885 16.7344262,15.9409836 C16.5901639,14.4983607 16.8065574,13.0557377 16.6622951,11.6852459 C16.4459016,12.4065574 16.157377,13.2721311 15.5803279,13.8491803 C14.7868852,14.642623 13.9934426,15.5803279 13.2721311,16.4459016 C12.9836066,16.8065574 13.2721311,17.0229508 12.8393443,17.6 C12.4065574,18.1770492 12.6229508,17.8885246 12.5508197,18.4655738 C12.5508197,18.5377049 12.4786885,18.6098361 12.4786885,18.6819672 C12.2622951,18.7540984 12.0459016,18.8983607 11.6852459,18.7540984 C11.1081967,18.4655738 11.0360656,17.9606557 10.9639344,17.3836066 C10.8918033,16.3016393 11.6852459,16.2295082 12.1901639,15.5803279 C13.1278689,14.2819672 13.5606557,12.0459016 14.5704918,11.0360656 C14.642623,10.8196721 14.8590164,10.0983607 15.2918033,9.08852459 C15.2918033,7.79016393 15.652459,6.63606557 16.9508197,6.05901639 C17.5278689,5.84262295 18.2491803,5.7704918 18.2491803,5.04918033 C18.2491803,4.97704918 18.2491803,4.68852459 18.1770492,4.61639344 C17.9606557,4.47213115 17.8163934,4.4 17.6721311,4.32786885 C17.5278689,4.03934426 17.3114754,2.23606557 17.3114754,2.16393443 C17.6,0.649180328 18.3934426,0.144262295 19.2590164,0.144262295 C20.4131148,0.216393443 21.2786885,0.721311475 21.2786885,2.16393443 C21.2065574,3.31803279 19.9803279,4.90491803 21.8557377,5.48196721 C22.5770492,5.69836066 22.7213115,5.55409836 23.2983607,6.13114754 C23.947541,6.78032787 24.1639344,8.00655738 24.2360656,9.16065574 L24.957377,10.747541 C26.1836066,12.8393443 25.7508197,13.5606557 26.2557377,15.7245902 C26.4,16.3016393 26.6163934,16.8065574 26.6163934,18.0327869 C26.5442623,18.5377049 26.1114754,19.8360656 25.4622951,19.9081967 Z" id="Path" fill="#FAB650" fill-rule="nonzero"></path>
                        <path d="M12.3344262,18.3213115 C12.4065574,17.7442623 12.3344262,17.8163934 12.695082,17.3114754 C13.0557377,16.8065574 12.8393443,16.5901639 13.2,16.157377 C13.9213115,15.2196721 14.642623,14.3540984 15.4360656,13.4885246 C16.0131148,12.9114754 16.7344262,11.0360656 16.8786885,10.3868852 C16.8786885,10.3147541 16.9508197,10.242623 17.0229508,10.3147541 C17.1672131,11.5409836 17.3114754,12.6229508 17.2393443,13.8491803 C17.1672131,16.4459016 17.2393443,16.157377 18.3213115,18.6098361 C18.3934426,17.6721311 18.6098361,16.2295082 19.1868852,15.7245902 C18.5377049,18.2491803 18.4655738,21.8557377 18.3934426,22.9377049 C18.3934426,23.5147541 18.1770492,24.3803279 18.4655738,24.8852459 C18.5377049,25.2459016 18.5377049,25.7508197 18.5377049,26.1836066 C18.5377049,26.4 18.5377049,30.5836066 18.5377049,30.5836066 L18.1770492,32.4590164 C18.0327869,33.0360656 17.3114754,33.9737705 16.8065574,34.2622951 C16.6622951,34.3344262 16.2295082,34.5508197 16.2295082,34.7672131 C16.2295082,35.0557377 18.1770492,35.6327869 18.6819672,34.9836066 C19.042623,34.4786885 19.3311475,34.1901639 19.6918033,33.757377 C20.3409836,33.1803279 19.6196721,32.5311475 19.6918033,31.7377049 C19.8360656,30.3672131 20.4131148,29.1409836 20.6295082,27.7704918 C20.7737705,26.9770492 20.7016393,26.2557377 20.3409836,25.3901639 L20.6295082,22.8655738 C20.9180328,23.2983607 21.2065574,24.0196721 21.495082,24.5967213 C22,25.6065574 22,25.7508197 22.8655738,26.5442623 C23.1540984,26.8327869 23.442623,27.1934426 23.6590164,27.4819672 C24.0918033,28.1311475 24.3081967,28.7803279 24.3081967,29.5016393 C24.0196721,30.0065574 23.8754098,30.0065574 23.5147541,30.295082 C23.5147541,30.295082 23.442623,30.5836066 23.8032787,30.5836066 C25.1016393,30.5836066 24.957377,29.9344262 25.3901639,29.0688525 C25.6786885,28.4918033 26.6163934,27.6262295 25.6065574,27.3377049 C25.3180328,27.2655738 25.0295082,27.0491803 24.8131148,26.7606557 C24.1639344,25.6065574 24.0918033,25.6786885 23.7311475,24.5967213 C23.5147541,23.947541 23.0819672,23.442623 22.5770492,23.0098361 C22.2885246,22.2885246 22.1442623,21.7836066 22,20.9901639 C21.8557377,19.9803279 21.7836066,19.1868852 21.5672131,18.1770492 C22.0721311,16.2295082 22.2885246,15.7967213 21.495082,13.8491803 C21.2786885,13.4163934 21.2065574,12.9114754 21.2065574,12.4065574 C21.2065574,11.757377 21.5672131,10.3147541 21.9278689,9.59344262 C22.0721311,9.30491803 22.2163934,9.01639344 22.4327869,8.9442623 C22.6491803,9.73770492 23.3704918,11.3245902 23.7311475,11.6852459 C23.7311475,11.9737705 23.7311475,12.3344262 23.8754098,12.6229508 C24.3803279,13.8491803 25.1737705,15.0032787 25.5344262,16.3016393 C25.6786885,16.7344262 25.4622951,16.9508197 25.3901639,17.3114754 C25.3180328,17.4557377 25.3180328,17.9606557 25.3901639,18.3934426 L25.5344262,18.4655738 C25.5344262,18.6098361 25.3901639,18.8983607 25.3901639,19.042623 C25.3901639,19.1868852 25.6065574,19.3311475 25.6065574,19.3311475 C25.895082,19.2590164 26.3278689,18.2491803 26.2557377,17.8163934 C26.1836066,16.5180328 25.9672131,16.0131148 25.895082,15.5803279 C25.4622951,13.4163934 25.7508197,12.8393443 24.5245902,10.747541 L23.8032787,9.23278689 C23.7311475,8.36721311 23.3704918,6.41967213 22.2885246,6.05901639 C22.0721311,5.98688525 21.9278689,5.98688525 21.6393443,5.9147541 C20.1967213,5.40983607 20.1967213,4.32786885 20.557377,3.10163934 C20.9180328,2.01967213 20.9180328,0.721311475 19.3311475,0.649180328 C18.3213115,0.57704918 18.0327869,1.3704918 17.8163934,2.23606557 C17.8163934,2.30819672 17.8885246,3.75081967 18.104918,4.11147541 C18.5377049,4.4 18.7540984,4.32786885 18.7540984,5.12131148 C18.7540984,5.7704918 18.3213115,6.20327869 17.7442623,6.34754098 C16.8065574,6.70819672 16.3737705,6.85245902 16.0131148,7.79016393 C15.9409836,8.07868852 15.7967213,8.51147541 15.7967213,9.16065574 L15.7967213,9.23278689 C15.5081967,9.88196721 15.2196721,10.6754098 15.0032787,11.3245902 C13.8491803,12.4786885 13.2721311,15.0754098 12.1180328,16.157377 C11.3245902,16.8786885 11.1081967,16.9508197 11.3967213,18.0327869 C11.3967213,18.1770492 11.757377,18.4655738 11.9016393,18.4655738 C11.9737705,18.5377049 12.3344262,18.3213115 12.3344262,18.3213115 Z" id="Path" fill="url(#linearGradient-3)" fill-rule="nonzero"></path>
                    </g>
                </g>
            </g>
        </g>
    </g>
</svg>