<?xml version="1.0" encoding="UTF-8"?>
<svg width="98px" height="80px" viewBox="0 0 98 80" version="1.1" xmlns="http://www.w3.org/2000/svg" xmlns:xlink="http://www.w3.org/1999/xlink">
    <title>Artboard</title>
    <g id="Artboard" stroke="none" stroke-width="1" fill="none" fill-rule="evenodd">
        <g id="Payment-method-/-Maestro-(white)" transform="translate(0.000000, -9.000000)">
            <g id="ms_vrt_pos" transform="translate(0.000000, 10.208333)">
                <path d="M29.642906,76.5672727 L29.642906,71.4763636 C29.7021763,70.6124757 29.3915355,69.7645374 28.7902667,69.1489631 C28.1889979,68.5333888 27.3552736,68.209735 26.5018803,68.2606061 C25.3743226,68.1857254 24.2958999,68.7384421 23.6875214,69.7030303 C23.1328547,68.7672019 22.1172417,68.213732 21.0406838,68.2606061 C20.1033325,68.2126047 19.2109832,68.6710305 18.6953846,69.4654545 L18.6953846,68.4642424 L16.9531624,68.4642424 L16.9531624,76.5672727 L18.7121368,76.5672727 L18.7121368,72.0787879 C18.6332149,71.5165277 18.8077815,70.9480916 19.187644,70.5304072 C19.5675065,70.1127229 20.1124883,69.8899673 20.6721368,69.9236364 C21.8280342,69.9236364 22.414359,70.6872727 22.414359,72.0618182 L22.414359,76.5672727 L24.1733333,76.5672727 L24.1733333,72.0787879 C24.1006873,71.5178061 24.2774238,70.9530805 24.6558632,70.5369609 C25.0343026,70.1208414 25.5754563,69.8961987 26.1333333,69.9236364 C27.322735,69.9236364 27.8923077,70.6872727 27.8923077,72.0618182 L27.8923077,76.5672727 L29.642906,76.5672727 Z M39.442906,72.52 L39.442906,68.4727273 L37.6839316,68.4727273 L37.6839316,69.4569697 C37.0845945,68.6734961 36.1488609,68.2311493 35.1711111,68.2690909 C32.8581237,68.2690909 30.9830769,70.1684889 30.9830769,72.5115152 C30.9830769,74.8545414 32.8581237,76.7539394 35.1711111,76.7539394 C36.1488609,76.791881 37.0845945,76.3495342 37.6839316,75.5660606 L37.6839316,76.550303 L39.4261538,76.550303 L39.442906,72.52 Z M32.9682051,72.52 C33.0456796,71.1884461 34.1596522,70.1638496 35.4754895,70.2138797 C36.7913268,70.2639099 37.8263434,71.3702143 37.8050629,72.7039047 C37.7837824,74.0375952 36.7140111,75.1094374 35.397265,75.1163636 C34.7231214,75.1323796 34.0735341,74.8598333 33.6080022,74.3656456 C33.1424702,73.8714579 32.9041117,73.201401 32.951453,72.52 L32.9682051,72.52 Z M76.6661538,68.2775758 C77.2397261,68.2760742 77.808308,68.3855078 78.3413675,68.6 C78.850181,68.8064095 79.3140498,69.1119842 79.7066667,69.4993939 C80.0942085,69.8833062 80.4018116,70.3420477 80.6112821,70.8484848 C81.0488965,71.9363721 81.0488965,73.1545369 80.6112821,74.2424242 C80.4020125,74.7489717 80.0943837,75.2077515 79.7066667,75.5915152 C79.3140498,75.9789249 78.850181,76.2844996 78.3413675,76.4909091 C77.2368651,76.9256631 76.0116819,76.9256631 74.9071795,76.4909091 C74.4007393,76.2847045 73.9395774,75.9790377 73.5502564,75.5915152 C73.1664178,75.2062476 72.861798,74.7477095 72.6540171,74.2424242 C72.2172924,73.1543605 72.2172924,71.9365485 72.6540171,70.8484848 C72.861798,70.3431996 73.1664178,69.8846615 73.5502564,69.4993939 C73.9395774,69.1118713 74.4007393,68.8062046 74.9071795,68.6 C75.4593944,68.3681326 76.0516316,68.2498774 76.6494017,68.2520899 L76.6661538,68.2775758 Z M76.6661538,69.9745455 C76.3250237,69.969832 75.9863204,70.0332626 75.6694017,70.1612121 C75.370893,70.2824521 75.1000795,70.4643766 74.8736752,70.6957576 C74.6427069,70.9393389 74.4631571,71.2280398 74.3459829,71.5442424 C74.0900991,72.2217091 74.0900991,72.9710181 74.3459829,73.6484848 C74.4629454,73.9647939 74.6425207,74.2535359 74.8736752,74.4969697 C75.0999276,74.7285379 75.3707818,74.9104897 75.6694017,75.0315152 C76.3075225,75.2846304 77.0164091,75.2846304 77.6545299,75.0315152 C77.9674283,74.9143543 78.2527215,74.7322853 78.4921368,74.4969697 C78.7236674,74.2538344 78.9032948,73.9650087 79.0198291,73.6484848 C79.2757129,72.9710181 79.2757129,72.2217091 79.0198291,71.5442424 C78.9032948,71.2277186 78.7236674,70.9388929 78.4921368,70.6957576 C78.2527215,70.460442 77.9674283,70.278373 77.6545299,70.1612121 C77.3385567,70.0146848 76.9967628,69.9338972 76.6494017,69.9236364 L76.6661538,69.9745455 Z M48.9078632,72.52 C48.9078632,69.9745455 47.3499145,68.2775758 45.1135043,68.2775758 C42.800517,68.3103783 40.951721,70.2363678 40.9841029,72.5793939 C41.0164847,74.92242 42.9177819,76.7952264 45.2307692,76.7624242 C46.4232404,76.8036963 47.5890035,76.3989878 48.505812,75.6254545 L47.6682051,74.3187879 C47.0067989,74.8561152 46.1874015,75.1546904 45.3396581,75.1672727 C44.1421872,75.271594 43.0802809,74.3914781 42.9441026,73.1818182 L48.882735,73.1818182 C48.9078632,72.969697 48.9078632,72.7575758 48.9078632,72.52 Z M42.9524786,71.8072727 C43.0197099,70.687909 43.9480876,69.8224095 45.0548718,69.8472727 C45.581394,69.8359017 46.0907988,70.0369343 46.4709625,70.406122 C46.8511263,70.7753098 47.0708894,71.2823924 47.0818803,71.8157576 L42.9524786,71.8072727 Z M56.2369231,70.5345455 C55.4719946,70.0883744 54.6067208,69.8487947 53.7241026,69.8387879 C52.7692308,69.8387879 52.1996581,70.1951515 52.1996581,70.7890909 C52.1996581,71.3830303 52.802735,71.4848485 53.5565812,71.5866667 L54.394188,71.7054545 C56.1364103,71.96 57.1917949,72.7066667 57.1917949,74.1321212 C57.1917949,75.5575758 55.8516239,76.7793939 53.5482051,76.7793939 C52.3136723,76.8126597 51.101163,76.4438855 50.0888889,75.7272727 L50.9264957,74.3527273 C51.6951702,74.9304009 52.633373,75.2292649 53.5900855,75.2012121 C54.7794872,75.2012121 55.4160684,74.8448485 55.4160684,74.2169697 C55.4160684,73.7587879 54.9637607,73.5042424 54.0088889,73.3684848 L53.1712821,73.249697 C51.3788034,72.9951515 50.4071795,72.1806061 50.4071795,70.8569697 C50.4071795,69.2448485 51.7138462,68.2606061 53.7576068,68.2606061 C54.901477,68.2217835 56.0323231,68.5162648 57.0158974,69.1090909 L56.2369231,70.5345455 Z M64.6129915,70.0763636 L61.7735043,70.0763636 L61.7735043,73.7333333 C61.7735043,74.5818182 62.0582906,75.0909091 62.9294017,75.0909091 C63.4731181,75.0726689 64.0033839,74.9150264 64.4705983,74.6327273 L64.9731624,76.1430303 C64.3200868,76.5558842 63.5651943,76.7735286 62.7953846,76.7709325 C60.7348718,76.7709325 60.0145299,75.6509091 60.0145299,73.7672727 L60.0145299,70.0763636 L58.3895726,70.0763636 L58.3895726,68.4642424 L60.0145299,68.4642424 L60.0145299,66.0036364 L61.7735043,66.0036364 L61.7735043,68.4642424 L64.6129915,68.4642424 L64.6129915,70.0763636 Z M70.6353846,68.2606061 C71.057976,68.2622602 71.4771979,68.3368637 71.8750427,68.4812121 L71.3389744,70.1781818 C70.9927813,70.0383619 70.622742,69.9691597 70.2500855,69.9745455 C69.1109402,69.9745455 68.5748718,70.7212121 68.5748718,72.0618182 L68.5748718,76.6012121 L66.8326496,76.6012121 L66.8326496,68.4981818 L68.5581197,68.4981818 L68.5581197,69.4824242 C68.993661,68.7245603 69.8035718,68.2687663 70.6688889,68.2945455 L70.6353846,68.2606061 Z M82.6801709,75.3878788 C82.7890706,75.3865273 82.8971854,75.4067018 82.9984615,75.4472727 C83.0946546,75.4870362 83.1827054,75.5445809 83.2581197,75.6169697 C83.3317195,75.6901272 83.3913516,75.7764223 83.4340171,75.8715152 C83.5197555,76.0717977 83.5197555,76.2991114 83.4340171,76.4993939 C83.3913516,76.5944867 83.3317195,76.6807819 83.2581197,76.7539394 C83.1827054,76.8263282 83.0946546,76.8838729 82.9984615,76.9236364 C82.8981852,76.9684578 82.7897753,76.9915773 82.6801709,76.9915153 C82.3560587,76.9890404 82.0624466,76.7973664 81.9263248,76.4993939 C81.8415791,76.298904 81.8415791,76.0720051 81.9263248,75.8715152 C81.9689903,75.7764223 82.0286224,75.6901272 82.1022222,75.6169697 C82.1776365,75.5445809 82.2656873,75.4870362 82.3618803,75.4472727 C82.450032,75.4117614 82.5434983,75.3916777 82.6382906,75.3878788 L82.6801709,75.3878788 Z M82.6801709,76.8218293 C82.763772,76.8223326 82.8465408,76.8049857 82.9230769,76.7709091 C82.9951416,76.7383167 83.0604983,76.6922607 83.1157265,76.6351515 C83.2599554,76.4880063 83.3231659,76.2782159 83.2846331,76.0745644 C83.2461003,75.8709129 83.110794,75.6996657 82.9230769,75.6169697 C82.8464653,75.5831333 82.7637473,75.565797 82.6801709,75.5660576 C82.5966668,75.5665076 82.5140887,75.5838146 82.437265,75.6169697 C82.3620098,75.6482279 82.2936674,75.6943812 82.2362393,75.7527273 C82.0190504,75.9927697 82.0190504,76.3611697 82.2362393,76.6012121 C82.353407,76.7213884 82.5134315,76.7886763 82.6801709,76.7878788 L82.6801709,76.8218293 Z M82.7304274,75.8121212 C82.8086191,75.8082801 82.8856701,75.832296 82.9482051,75.88 C83.0002225,75.9236087 83.0282899,75.9899499 83.0235897,76.0581818 C83.0260213,76.115162 83.0047524,76.1705637 82.9649573,76.2109091 C82.916408,76.2555784 82.8544741,76.2824662 82.7890598,76.2872727 L83.0319658,76.5672727 L82.8393162,76.5672727 L82.6131624,76.2872727 L82.5377778,76.2872727 L82.5377778,76.5672727 L82.3786325,76.5672727 L82.3786325,75.7866667 L82.7304274,75.8121212 Z M82.5461538,75.9563636 L82.5461538,76.16 L82.7304274,76.16 C82.7632184,76.1699034 82.7981491,76.1699034 82.8309402,76.16 C82.8428868,76.1359838 82.8428868,76.1076525 82.8309402,76.0836364 C82.8428868,76.0596202 82.8428868,76.0312889 82.8309402,76.0072727 C82.7981491,75.9973693 82.7632184,75.9973693 82.7304274,76.0072727 L82.5461538,75.9563636 Z" id="Shape" fill="#FFFFFF" fill-rule="nonzero"></path>
                <g id="_Group_" fill-rule="nonzero">
                    <polygon id="Rectangle-path" fill="#7673C0" points="35.7155556 6.64363636 62.1001709 6.64363636 62.1001709 54.6763636 35.7155556 54.6763636"></polygon>
                    <path d="M37.3907692,30.6642424 C37.3809044,21.289751 41.6280914,12.4316133 48.9078632,6.64363636 C36.5446107,-3.19874394 18.7904842,-1.76511614 8.12260678,9.93700469 C-2.54527068,21.6391255 -2.54527068,39.6808745 8.12260678,51.3829953 C18.7904842,63.0851161 36.5446107,64.5187439 48.9078632,54.6763636 C41.6304073,48.8902241 37.3834798,40.0357563 37.3907692,30.6642424 L37.3907692,30.6642424 Z" id="_Path_" fill="#EB001B"></path>
                    <path d="M94.817094,49.8411785 L94.817094,48.6862963 L95.2107692,48.6862963 L95.2107692,48.4388215 L94.2140171,48.4388215 L94.2140171,48.6862963 L94.6076923,48.6862963 L94.6076923,49.8824242 L94.817094,49.8411785 Z M96.7519658,49.8411785 L96.7519658,48.3975758 L96.4504274,48.3975758 L96.0986325,49.4287205 L95.7468376,48.3975758 L95.4369231,48.3975758 L95.4369231,49.8411785 L95.6547009,49.8411785 L95.6547009,48.7584764 L95.9813675,49.6968182 L96.2075214,49.6968182 L96.534188,48.7584764 L96.534188,49.8514899 L96.7519658,49.8411785 Z" id="Shape" fill="#00A1DF"></path>
                    <path d="M97.6900855,30.6642424 C97.687297,42.356082 91.0963289,53.020559 80.7150964,58.1305233 C70.3338639,63.2404875 57.9839025,61.8993228 48.9078632,54.6763636 C56.1821438,48.8853119 60.429391,40.0320213 60.429391,30.66 C60.429391,21.2879787 56.1821438,12.4346881 48.9078632,6.64363636 C57.9838273,-0.584516821 70.3372717,-1.92872266 80.7216412,3.18190822 C91.1060107,8.2925391 97.6984615,18.9607682 97.6984615,30.6557576 L97.6900855,30.6642424 Z" id="Shape" fill="#00A1DF"></path>
                </g>
            </g>
        </g>
    </g>
</svg>