<?xml version="1.0" encoding="UTF-8"?>
<svg width="150px" height="80px" viewBox="0 0 150 80" version="1.1" xmlns="http://www.w3.org/2000/svg" xmlns:xlink="http://www.w3.org/1999/xlink">
    <title>Artboard</title>
    <g id="Artboard" stroke="none" stroke-width="1" fill="none" fill-rule="evenodd">
        <g id="Payment-method-/-Visa-(white)" transform="translate(0.000000, -35.000000)" fill="#FFFFFF">
            <path d="M74.2689373,51.4875461 L64.2464274,98.6385301 L52.1246906,98.6385301 L62.151784,51.4875461 L74.2689373,51.4875461 Z M125.26304,81.9318881 L131.644751,64.2273985 L135.317634,81.9318881 L125.26304,81.9318881 Z M138.790373,98.6385301 L150,98.6385301 L140.21583,51.4875461 L129.869422,51.4875461 C127.54255,51.4875461 125.579299,52.8482472 124.709969,54.9454182 L106.52278,98.6385301 L119.248006,98.6385301 L121.775023,91.5936347 L137.325192,91.5936347 L138.790373,98.6385301 Z M107.152242,83.2433887 C107.207244,70.8002768 90.0528626,70.1130074 90.1720327,64.5533518 C90.2102283,62.8620849 91.8098575,61.0647294 95.3131525,60.6050123 C97.0472301,60.3759225 101.835423,60.1991082 107.262245,62.7129459 L109.392029,52.7160209 C106.47389,51.6489852 102.72156,50.625 98.0525367,50.625 C86.0728873,50.625 77.6393119,57.0349016 77.5736155,66.2107934 C77.492641,73.0019988 83.5901771,76.7858241 88.1843368,79.0444342 C92.9053056,81.3553198 94.4881288,82.8374846 94.4713228,84.9023678 C94.4361829,88.0681119 90.7037146,89.4641759 87.2156979,89.5179889 C81.1227452,89.6133149 77.5843103,87.8605474 74.768535,86.5382841 L72.5730553,96.8703875 C75.402581,98.178813 80.6307866,99.3196494 86.04997,99.375 C98.7843633,99.375 107.114047,93.0481242 107.152242,83.2433887 L107.152242,83.2433887 Z M56.9495513,51.4875461 L37.3124599,98.6385301 L24.5001477,98.6385301 L14.8366759,61.0078413 C14.2484645,58.6908057 13.7412278,57.8420972 11.9567321,56.8673124 C9.04317624,55.2744465 4.23206592,53.7815191 0,52.8559348 L0.285702645,51.4875461 L20.9112947,51.4875461 C23.5376201,51.4875461 25.9026879,53.2464637 26.5000662,56.2938192 L31.6045183,83.578567 L44.2182137,51.4875461 L56.9495513,51.4875461 L56.9495513,51.4875461 Z" id="Fill-6"></path>
        </g>
    </g>
</svg>