<?xml version="1.0" encoding="UTF-8"?>
<svg width="270px" height="80px" viewBox="0 0 270 80" version="1.1" xmlns="http://www.w3.org/2000/svg" xmlns:xlink="http://www.w3.org/1999/xlink">
    <title>Artboard</title>
    <defs>
        <polygon id="path-1" points="0.297663737 0.43475473 269.382902 0.43475473 269.382902 29.7242818 0.297663737 29.7242818"></polygon>
    </defs>
    <g id="Artboard" stroke="none" stroke-width="1" fill="none" fill-rule="evenodd">
        <g id="Issuer-/-Triodos-Bank" transform="translate(0.000000, -95.000000)">
            <g id="Triodos-Bank" transform="translate(0.000000, 117.000000)">
                <g id="Group-3">
                    <mask id="mask-2" fill="white">
                        <use xlink:href="#path-1"></use>
                    </mask>
                    <g id="Clip-2"></g>
                    <path d="M197.691612,22.1920115 C197.691612,25.3391534 196.096816,27.6111669 192.427836,27.6111669 C191.352773,27.6111669 190.234992,27.3716331 189.1979,26.9732007 L189.1979,15.9356736 L190.91373,15.9356736 C195.738461,15.9356736 197.691612,19.0448696 197.691612,22.1920115 L197.691612,22.1920115 Z M196.414826,9.28090338 C196.414826,13.5853966 193.704622,14.4225791 190.674036,14.4225791 L189.1979,14.4225791 L189.1979,4.61829527 C189.876638,4.41907905 190.553002,4.34081554 191.231739,4.34081554 C194.302671,4.34081554 196.414826,6.212025 196.414826,9.28090338 L196.414826,9.28090338 Z M215.913103,26.4561872 C215.595093,26.6957209 214.838039,27.4119507 213.480564,27.4119507 C211.686419,27.4119507 210.530667,25.9771196 210.530667,24.0655926 C210.530667,21.1152953 213.043894,19.919998 215.315054,19.919998 C215.476432,19.919998 215.595093,19.9603155 215.754098,19.9603155 L215.754098,24.3051264 C215.754098,25.0616736 215.875131,26.0577547 215.913103,26.4561872 L215.913103,26.4561872 Z M202.874698,21.6346804 C202.874698,16.7325385 198.60767,15.1388088 196.13716,14.7806939 L196.13716,14.7000588 C198.249315,14.0644642 201.600285,12.5893155 201.600285,8.32513986 C201.600285,2.82534932 194.979035,2.82534932 193.066229,2.82534932 L181.183577,2.82534932 L181.183577,3.86174797 L182.13998,3.98270068 C184.014814,4.21986284 184.014814,4.21986284 184.014814,8.64530878 L184.014814,23.2284101 C184.014814,27.7321196 184.055158,27.7321196 182.13998,27.9692818 L181.183577,28.0902345 L181.183577,29.1266331 L191.552122,29.1266331 C197.492262,29.1266331 202.874698,27.4522682 202.874698,21.6346804 L202.874698,21.6346804 Z M223.5311,28.7282007 L223.410067,28.2088155 C223.291406,28.2491331 223.210717,28.2491331 223.092057,28.2491331 C220.538485,28.2491331 220.538485,25.3012074 220.538485,22.4315453 L220.538485,17.5294034 C220.538485,12.987748 219.662771,10.3979372 214.63869,10.3979372 C210.611356,10.3979372 207.860808,12.6675791 206.064289,14.6217953 C206.384672,15.5775588 206.584022,15.8953561 207.141726,16.654275 L207.540425,16.654275 C208.060157,15.4589777 209.21591,12.7078966 212.284467,12.7078966 C215.115705,12.7078966 215.754098,14.8210115 215.754098,17.1712885 L215.754098,18.127052 C212.445846,19.004552 205.42827,20.358748 205.42827,25.3794709 C205.42827,27.9313358 207.540425,29.7242818 210.6517,29.7242818 C213.442593,29.7242818 215.077733,28.4886669 216.193141,27.691802 C216.831534,28.6878831 217.548243,29.7242818 220.101815,29.7242818 C221.855615,29.7242818 223.011368,29.0056804 223.5311,28.7282007 L223.5311,28.7282007 Z M246.736328,29.1266331 L246.736328,28.0902345 L245.898585,28.0095993 C244.462795,27.8910182 244.263445,27.4522682 244.263445,25.3391534 L244.263445,17.4890858 C244.263445,12.110248 241.83328,10.3979372 238.242616,10.3979372 C234.853675,10.3979372 232.94087,11.8327682 231.944122,12.7078966 L231.944122,10.3979372 C229.869939,10.5165182 227.757784,10.8366872 224.767542,11.8327682 L224.767542,12.987748 C224.926546,12.9474304 225.443906,12.7482142 226.041954,12.7482142 C227.238051,12.7482142 227.238051,14.5411601 227.238051,15.9356736 L227.238051,25.3391534 C227.238051,27.4522682 227.038702,27.8910182 225.6836,28.0095993 L224.845857,28.0902345 L224.845857,29.1266331 L234.495321,29.1266331 L234.495321,28.0902345 L233.657579,28.0095993 C232.221788,27.8910182 232.022438,27.4522682 232.022438,25.3391534 L232.022438,14.2233628 C232.660831,13.5450791 233.697923,12.7078966 235.333064,12.7078966 C239.479058,12.7078966 239.479058,16.5333223 239.479058,19.6828358 L239.479058,25.3391534 C239.479058,27.4522682 239.279708,27.8910182 237.843918,28.0095993 L237.008548,28.0902345 L237.008548,29.1266331 L246.736328,29.1266331 Z M269.386225,29.1266331 L269.386225,28.0902345 C267.791429,28.0902345 267.430702,27.691802 261.091863,17.6503561 C265.517896,13.1063291 265.55824,12.5086804 267.950434,12.1505655 L268.707487,12.0319845 L268.707487,10.9955858 L259.895766,10.9955858 L259.895766,12.0319845 L261.172552,12.1908831 C261.730256,12.2691466 262.40662,12.3900993 262.40662,12.7078966 C262.40662,13.3055453 262.007921,13.865248 260.612475,15.4969236 L259.297718,17.0123899 C257.821582,18.6843831 256.98384,18.7650182 255.550422,18.7650182 L255.550422,0.43475473 C253.39555,0.43475473 251.601404,0.674288514 248.293152,1.3525723 L248.293152,2.38897095 C248.452157,2.38897095 248.929172,2.30833581 249.40856,2.30833581 C250.763662,2.30833581 250.763662,3.86174797 250.763662,7.36937635 L250.763662,25.3391534 C250.763662,27.4522682 250.523968,27.8910182 249.128522,28.0095993 L248.293152,28.0902345 L248.293152,29.1266331 L258.020932,29.1266331 L258.020932,28.0902345 L257.183189,28.0095993 C255.749772,27.8910182 255.550422,27.4522682 255.550422,25.3391534 L255.550422,20.2804845 L255.987093,20.2804845 C257.662577,20.2804845 257.702922,21.3548291 259.774733,24.464025 C261.848916,27.6514845 262.08861,29.1266331 266.355638,29.1266331 L269.386225,29.1266331 Z M66.5291523,20.5176466 C66.5291523,23.6671601 65.6510654,28.2088155 61.9417413,28.2088155 C58.1137568,28.2088155 56.677966,23.6268426 56.677966,19.443302 C56.677966,16.1348899 57.6770865,11.9110318 61.3033483,11.9110318 C65.3330555,11.9110318 66.5291523,16.3341061 66.5291523,20.5176466 L66.5291523,20.5176466 Z M88.9773267,26.6957209 C88.5382832,27.0538358 87.7005408,27.4119507 86.6634489,27.4119507 C83.4738574,27.4119507 80.0066005,24.3051264 80.0066005,18.9239169 C80.0066005,14.899275 82.0380666,11.9110318 85.5480412,11.9110318 C87.4608468,11.9110318 88.2202734,12.6296331 88.9773267,13.3055453 L88.9773267,26.6957209 Z M112.144583,20.5176466 C112.144583,23.6671601 111.266496,28.2088155 107.559545,28.2088155 C103.731561,28.2088155 102.29577,23.6268426 102.29577,19.443302 C102.29577,16.1348899 103.292517,11.9110318 106.921152,11.9110318 C110.948486,11.9110318 112.144583,16.3341061 112.144583,20.5176466 L112.144583,20.5176466 Z M23.5028915,9.67933581 C23.5028915,9.04374122 23.1445371,3.70284932 22.9855321,2.82534932 L0.815023079,2.82534932 C0.656018143,3.70284932 0.297663737,9.04374122 0.297663737,9.67933581 L1.73345457,9.67933581 C2.76817325,5.37721419 3.20721673,4.34081554 7.71393871,4.34081554 L9.30873448,4.34081554 L9.30873448,23.3469912 C9.30873448,27.4119507 9.30873448,27.6514845 6.71719135,27.9692818 L5.76078853,28.0902345 L5.76078853,29.1266331 L18.0421399,29.1266331 L18.0421399,28.0902345 L17.0833639,27.9692818 C14.4918207,27.6514845 14.4918207,27.4119507 14.4918207,23.3469912 L14.4918207,4.34081554 L16.0866165,4.34081554 C20.5933385,4.34081554 21.032382,5.37721419 22.0671006,9.67933581 L23.5028915,9.67933581 Z M37.5404167,12.1505655 C36.9803396,11.5529169 35.9835923,10.3979372 34.3104807,10.3979372 C32.2766414,10.3979372 30.6011566,12.3094642 29.8037587,13.1466466 C29.8037587,11.9513493 29.6044092,11.1141669 29.4857488,10.3979372 C26.6141671,10.8366872 25.7764247,11.1141669 22.7861827,12.110248 L22.7861827,13.1466466 C23.0258767,13.0660115 23.4649201,12.9071128 24.0629686,12.9071128 C25.2590654,12.9071128 25.2590654,14.7000588 25.2590654,16.0945723 L25.2590654,25.3391534 C25.2590654,27.4522682 25.0597159,27.8910182 23.6239251,28.0095993 L22.7861827,28.0902345 L22.7861827,29.1266331 L33.3137333,29.1266331 L33.3137333,28.0902345 L31.7189375,27.8910182 C30.0434527,27.691802 30.0434527,27.1724169 30.0434527,24.3430723 L30.0434527,14.6621128 C30.560812,14.0241466 31.0402,13.865248 31.6382485,13.865248 C32.1959523,13.865248 34.5098301,14.8210115 35.1482231,14.9799101 C36.4226358,14.1024101 36.9803396,13.426498 37.5404167,12.1505655 L37.5404167,12.1505655 Z M49.1833751,29.1266331 L49.1833751,28.0902345 L48.3456327,28.0095993 C46.9098419,27.8910182 46.7104924,27.4522682 46.7104924,25.3391534 L46.7104924,10.3979372 C44.6363086,10.5165182 42.4434644,10.8366872 39.4532224,11.8327682 L39.4532224,12.987748 C39.6122273,12.9474304 40.1319599,12.7482142 40.7300083,12.7482142 C41.9261051,12.7482142 41.9261051,14.5411601 41.9261051,15.9356736 L41.9261051,25.3391534 C41.9261051,27.4522682 41.7267556,27.8910182 40.2909648,28.0095993 L39.4532224,28.0902345 L39.4532224,29.1266331 L49.1833751,29.1266331 Z M46.8291528,4.26018041 C46.8291528,2.74708581 45.5547401,1.51147095 44.0382602,1.51147095 C42.4434644,1.51147095 41.2473676,2.74708581 41.2473676,4.26018041 C41.2473676,5.8942277 42.4434644,7.089525 44.0382602,7.089525 C45.5547401,7.089525 46.8291528,5.93454527 46.8291528,4.26018041 L46.8291528,4.26018041 Z M71.6315495,19.6828358 C71.6315495,13.2652277 66.9278513,10.3979372 61.7020473,10.3979372 C56.677966,10.3979372 51.5755688,13.426498 51.5755688,20.2804845 C51.5755688,26.9732007 56.3196116,29.7242818 61.424382,29.7242818 C66.5291523,29.7242818 71.6315495,26.7739845 71.6315495,19.6828358 L71.6315495,19.6828358 Z M96.5122621,28.0499169 L96.3936017,26.9732007 L95.5558593,26.9732007 C93.761714,26.9732007 93.761714,26.0577547 93.761714,22.8702953 L93.761714,0.43475473 C91.6092144,0.43475473 89.8150691,0.674288514 86.504444,1.3525723 L86.504444,2.38897095 C86.6634489,2.38897095 87.1428369,2.30833581 87.622225,2.30833581 C88.9773267,2.30833581 88.9773267,3.86174797 88.9773267,7.36937635 L88.9773267,10.6374709 C88.2202734,10.5165182 87.5011914,10.3979372 86.3454391,10.3979372 C83.0371871,10.3979372 74.9018301,11.7118155 74.9018301,20.8378155 C74.9018301,26.8949372 79.2875185,29.7242818 83.7135514,29.7242818 C86.26475,29.7242818 88.1799288,28.4483493 89.1766762,27.8910182 L90.2137681,29.7242818 C92.3259232,29.3258493 94.5187674,28.8467818 96.5122621,28.0499169 L96.5122621,28.0499169 Z M117.24698,19.6828358 C117.24698,13.2652277 112.543282,10.3979372 107.319851,10.3979372 C102.29577,10.3979372 97.1909996,13.426498 97.1909996,20.2804845 C97.1909996,26.9732007 101.937416,29.7242818 107.039813,29.7242818 C112.144583,29.7242818 117.24698,26.7739845 117.24698,19.6828358 L117.24698,19.6828358 Z M133.636355,23.9849574 C133.636355,17.8875182 124.665628,18.565802 124.665628,14.3822615 C124.665628,12.987748 125.662376,11.9110318 126.898817,11.9110318 C129.848715,11.9110318 130.724428,15.1388088 130.845462,16.4550588 L132.440258,16.4550588 C132.440258,14.8210115 132.399913,13.0660115 132.001214,11.5125993 C131.044812,10.9955858 129.328982,10.3979372 127.216827,10.3979372 C120.118562,10.3979372 120.118562,15.2977074 120.118562,15.6178764 C120.118562,21.9927953 129.091661,20.8378155 129.091661,25.5786872 C129.091661,27.0135182 128.132885,28.2088155 126.459774,28.2088155 C123.467158,28.2088155 121.673013,25.0213561 121.435692,22.8299777 L119.838523,22.8299777 C119.838523,25.2205723 120.158907,26.8949372 120.557605,28.4886669 C121.993396,29.2048966 123.706852,29.7242818 126.061075,29.7242818 C131.443511,29.7242818 133.636355,27.0538358 133.636355,23.9849574 L133.636355,23.9849574 Z" id="Fill-1" fill="#00255C" mask="url(#mask-2)"></path>
                </g>
                <path d="M162.334135,15.4179486 C161.496393,18.0077595 159.941941,20.3604081 158.067107,22.1913 C156.23499,20.2394554 154.996176,17.6899622 154.360156,15.1380973 C155.435219,14.9009351 156.553,14.7799824 157.668408,14.7799824 C159.263204,14.7799824 160.820028,15.0195162 162.334135,15.4179486 M175.493573,18.2069757 C175.493573,13.3451514 173.41939,8.6445973 170.668841,5.85557027 C168.912668,4.10057027 167.317872,3.02622568 164.966023,1.98982703 L164.726329,2.42857703 C165.841736,3.10448919 166.760168,3.82309054 167.837604,4.89743514 C170.906162,7.84773243 172.899657,12.9467189 172.899657,17.1302595 C172.899657,17.7682257 172.899657,18.6054081 172.780997,19.2836919 C172.182948,17.5286919 171.145856,16.0155973 169.831099,14.7017189 C169.392056,14.2226514 168.834352,13.6653203 168.354964,13.4257865 C168.354964,14.3412324 167.956265,16.4140297 167.476877,17.609327 C168.074925,18.0883946 168.395308,18.4465095 168.953012,18.963523 C170.229798,20.279773 171.06754,21.9541378 171.06754,23.3486514 C171.06754,24.1455162 170.706813,24.9826986 170.070793,25.6182932 C169.4324,26.2562595 168.11527,26.735327 166.800512,26.735327 C165.243688,26.735327 162.932183,25.8981446 161.736087,25.0206446 C164.168625,22.5517865 165.642387,19.8813405 166.560818,16.5326108 C166.959517,15.1001514 167.158867,13.6653203 167.158867,12.2304892 C167.158867,9.64067838 166.520474,7.16944865 165.405066,5.21760405 C163.610921,2.10840811 160.898344,0.35577973 157.350398,0.35577973 C153.123715,0.35577973 149.17707,2.42857703 146.224799,5.41682027 C142.835858,8.84381351 141.160373,13.0273541 141.160373,17.3294757 C141.160373,18.0883946 141.200718,18.8046243 141.319378,19.6418068 L141.798766,19.6418068 C141.839111,18.3658743 141.998116,17.170577 142.35647,15.6978 C143.035208,13.0273541 144.869697,10.0794284 147.181202,7.7670973 C148.856687,6.09273243 150.691177,4.89743514 152.404633,4.22152297 C151.170565,5.65635405 150.332822,7.28802973 149.81309,9.08097568 C149.654085,9.68099595 149.49508,10.4778608 149.49508,11.0351919 C150.292478,10.5561243 152.285972,9.83989459 153.562758,9.64067838 C153.840424,7.80741486 154.519161,5.77493514 155.874263,4.42073919 C156.553,3.74245541 157.350398,3.30370541 158.347146,3.30370541 C159.861252,3.30370541 161.057349,4.42073919 161.816776,5.6943 C162.573829,7.01055 163.050844,9.36082703 162.851494,10.9545568 C161.178383,10.4778608 159.583587,10.238327 157.988791,10.238327 C156.393995,10.238327 154.796826,10.4778608 153.08337,10.9545568 C150.292478,11.7111041 147.741279,13.1459351 145.906789,14.9791986 C143.951266,16.9310432 142.437159,19.6418068 142.437159,22.4308338 C142.437159,25.3408135 143.913295,27.7717257 145.866445,29.7638878 C149.136725,33.0296108 153.800079,34.7039757 158.38749,34.7039757 C162.094441,34.7039757 165.405066,33.4280432 168.395308,31.2366649 L168.155614,30.8382324 C165.763421,32.1544824 163.250193,32.7924486 160.421329,32.7924486 C156.553,32.7924486 152.366661,31.5971514 149.535424,29.3654554 C150.292478,29.4840365 151.049531,29.5646716 151.768613,29.5646716 C153.164059,29.5646716 155.596598,29.2041851 156.833039,28.4476378 C156.073612,28.0088878 154.478817,26.6143743 153.641074,25.6182932 C152.444977,26.0973608 150.971215,26.4554757 149.654085,26.4554757 C148.417643,26.4554757 147.062542,26.1779959 146.184455,25.2601784 C145.667095,24.6625297 145.346712,23.9059824 145.346712,23.1091176 C145.346712,21.4347527 146.265144,20.0402392 147.380551,18.8852595 C148.177949,18.048077 149.255386,17.2915297 150.093128,16.8930973 C151.009186,20.279773 152.566011,22.9881649 154.996176,25.419077 C158.029136,28.4073203 161.975781,30.0816851 165.443037,30.0816851 C168.074925,30.1220027 170.308114,29.3654554 172.182948,27.4918743 C174.176443,25.4593946 175.493573,21.8735027 175.493573,18.2069757" id="Fill-4" fill="#009B83"></path>
            </g>
        </g>
    </g>
</svg>