<?xml version="1.0" encoding="UTF-8"?>
<svg width="229px" height="80px" viewBox="0 0 229 80" version="1.1" xmlns="http://www.w3.org/2000/svg" xmlns:xlink="http://www.w3.org/1999/xlink">
    <title>Artboard</title>
    <defs>
        <polygon id="path-1" points="27.5107039 0.0831564246 0.264821229 0.0831564246 0.264821229 42.3777933 27.5107039 42.3777933 27.5107039 0.0844357542"></polygon>
    </defs>
    <g id="Artboard" stroke="none" stroke-width="1" fill="none" fill-rule="evenodd">
        <g id="Issuer-/-asn-bank" transform="translate(0.000000, -75.000000)">
            <g id="Logo-ASN-Bank" transform="translate(0.000000, 92.554167)">
                <path d="M169.790067,28.981933 L169.790067,35.6561955 C169.790067,36.4468212 169.428017,37.1811564 168.822894,37.6263631 C168.016916,38.2122961 165.153777,40.1312905 162.144793,40.1312905 C159.285492,40.1312905 155.947721,38.6178436 155.947721,34.3487207 C155.947721,31.3231061 157.607011,30.0527318 162.069313,29.6599777 L169.790067,28.981933 L169.790067,28.981933 Z M172.274525,39.5517542 L172.274525,39.5133743 L172.28348,24.2177095 C172.28348,18.6232011 169.980687,16.4432235 164.070184,16.4432235 C160.784866,16.4432235 158.433458,17.0726536 157.040268,17.6010168 L156.46457,17.8185028 L156.46457,20.3515754 L157.662022,19.9038101 C158.659899,19.5302458 160.791263,18.9033743 163.832229,18.9033743 C168.568307,18.9033743 169.793905,20.0547709 169.793905,24.506838 L169.793905,26.4770056 L161.855665,27.1716816 C157.953709,27.5145419 153.470939,28.640352 153.470939,34.3448827 C153.470939,40.0660447 157.828335,42.6259832 162.144793,42.6259832 C165.407084,42.6259832 168.323955,40.983324 169.820771,39.9649777 L169.820771,40.2528268 C169.820771,41.2289553 170.613955,42.0221397 171.611832,42.0221397 L175.229777,41.8430335 L175.229777,39.7871508 L172.396061,39.5798994 C172.344888,39.5696648 172.306508,39.5607095 172.277084,39.5517542 L172.274525,39.5517542 Z" id="Shape" fill="#525252" fill-rule="nonzero"></path>
                <path d="M169.447207,29.3554972 L162.100017,30.0002793 C157.811704,30.3776816 156.29186,31.5150056 156.29186,34.346162 C156.29186,38.363257 159.444128,39.7884302 162.143514,39.7884302 C165.05143,39.7884302 167.836531,37.9206089 168.622039,37.3474693 C169.138888,36.9687877 169.448486,36.3367989 169.448486,35.6587542 L169.448486,29.3567765 L169.447207,29.3554972 Z M162.142235,40.4728715 C159.128134,40.4728715 155.60486,38.8685922 155.60486,34.3448827 C155.60486,31.1337654 157.408715,29.7239441 162.039888,29.3171173 L170.131648,28.6083687 L170.131648,35.6574749 C170.131648,36.5530056 169.718425,37.3935251 169.023749,37.9001397 C168.196022,38.5039832 165.256123,40.4741508 162.140955,40.4741508 L162.142235,40.4728715 Z M163.83095,18.560514 C168.781955,18.560514 170.135486,19.8398436 170.135486,24.5055587 L170.135486,26.7904413 L161.88381,27.5145419 C157.892302,27.8650782 153.81124,28.9525084 153.81124,34.346162 C153.81124,39.8319274 157.997207,42.2869609 162.143514,42.2869609 C165.332883,42.2869609 168.20114,40.6558156 169.627592,39.6835251 L170.162352,39.3176369 L170.162352,40.2553855 C170.162352,41.0421732 170.812251,41.681838 171.611832,41.681838 L174.886916,41.5180838 L174.886916,40.1069832 L172.328257,39.9150838 C172.264291,39.9022905 172.219514,39.8920559 172.184972,39.8818212 L171.934223,39.8127374 L171.943179,24.2177095 C171.943179,18.7997486 169.809257,16.7848045 164.071464,16.7848045 C160.837318,16.7848045 158.529408,17.404 157.163084,17.9234078 L156.808709,18.0564581 L156.808709,19.8577542 L157.543045,19.5826983 C158.566508,19.2014581 160.741369,18.5592346 163.833508,18.5592346 L163.83095,18.560514 Z M162.142235,42.9701229 C157.655626,42.9701229 153.126799,40.304 153.126799,34.3474413 C153.126799,28.3627374 157.774603,27.1870335 161.82624,26.8301006 L169.451045,26.1622905 L169.451045,24.5055587 C169.451045,20.2300391 168.399436,19.247514 163.832229,19.247514 C160.848832,19.247514 158.760966,19.8590335 157.781,20.2249218 L156.124268,20.8453966 L156.124268,17.5831061 L156.920011,17.279905 C158.340067,16.7425866 160.732413,16.0990838 164.071464,16.0990838 C170.148279,16.0990838 172.626341,18.4504916 172.626341,24.2164302 L172.619944,39.2511117 L175.570078,39.4685978 L175.570078,42.1679832 L171.629743,42.3637207 L171.627184,42.3637207 C170.54743,42.3637207 169.662134,41.5897263 169.500939,40.5816145 C167.89538,41.5986816 165.16657,42.9688436 162.144793,42.9688436 L162.142235,42.9701229 Z M16.6632682,28.981933 L16.6632682,35.6561955 C16.6632682,36.4468212 16.3012179,37.1811564 15.6948156,37.6263631 C14.888838,38.2122961 12.0269777,40.1312905 9.01671508,40.1312905 C6.15869274,40.1312905 2.82092179,38.6178436 2.82092179,34.3487207 C2.82092179,31.3231061 4.48021229,30.0527318 8.94251397,29.6599777 L16.6632682,28.981933 L16.6632682,28.981933 Z M19.1477263,39.5517542 L19.1477263,39.5133743 L19.1566816,24.2177095 C19.1566816,18.6232011 16.8538883,16.4432235 10.9433855,16.4432235 C7.65806704,16.4432235 5.30665922,17.0726536 3.91218994,17.6010168 L3.33649162,17.8185028 L3.33649162,20.3515754 L4.53522346,19.9038101 C5.53310056,19.5302458 7.66446369,18.9033743 10.7054302,18.9033743 C15.4389497,18.9033743 16.6645475,20.0547709 16.6645475,24.506838 L16.6645475,26.4770056 L8.72758659,27.1716816 C4.82563128,27.5145419 0.342860335,28.640352 0.342860335,34.3448827 C0.342860335,40.0660447 4.69897765,42.6259832 9.01671508,42.6259832 C12.2790056,42.6259832 15.1958771,40.983324 16.6926927,39.9649777 L16.6926927,40.2528268 C16.6926927,41.2289553 17.4858771,42.0221397 18.4837542,42.0221397 L22.100419,41.8430335 L22.100419,39.7871508 L19.2654246,39.5798994 C19.2142514,39.5696648 19.1758715,39.5607095 19.1464469,39.5517542 L19.1477263,39.5517542 Z" id="Shape" fill="#525252" fill-rule="nonzero"></path>
                <path d="M16.3204078,29.3554972 L8.97193855,30.0002793 C4.6836257,30.3776816 3.16378212,31.5150056 3.16378212,34.346162 C3.16378212,38.363257 6.31732961,39.7884302 9.01671508,39.7884302 C11.923352,39.7884302 14.7097318,37.9206089 15.4939609,37.3474693 C16.0120894,36.9687877 16.3216872,36.3367989 16.3216872,35.6587542 L16.3216872,29.3567765 L16.3204078,29.3554972 Z M9.01543575,40.4728715 C6.0013352,40.4728715 2.47806145,38.8685922 2.47806145,34.3448827 C2.47806145,31.1337654 4.2819162,29.7239441 8.91308939,29.3171173 L17.0048492,28.6083687 L17.0048492,35.6574749 C17.0048492,36.5530056 16.5916257,37.3935251 15.8969497,37.9001397 C15.0705028,38.5039832 12.129324,40.4741508 9.01671508,40.4741508 L9.01543575,40.4728715 Z M10.7041508,18.560514 C15.6525978,18.560514 17.0074078,19.8398436 17.0074078,24.5055587 L17.0074078,26.7904413 L8.75573184,27.5145419 C4.76422346,27.8650782 0.683162011,28.9525084 0.683162011,34.346162 C0.683162011,39.8319274 4.86912849,42.2869609 9.01671508,42.2869609 C12.2022458,42.2869609 15.0730615,40.6558156 16.4982346,39.6835251 L17.0355531,39.3176369 L17.0355531,40.2553855 C17.0355531,41.0421732 17.6841732,41.681838 18.4837542,41.681838 L21.758838,41.5180838 L21.758838,40.1069832 L19.1976201,39.9150838 C19.1362123,39.9022905 19.0888771,39.8920559 19.0568939,39.8818212 L18.8048659,39.8127374 L18.8125419,24.2177095 C18.8125419,18.7997486 16.6798994,16.7848045 10.9421061,16.7848045 C7.70796089,16.7848045 5.40005028,17.404 4.03372626,17.9234078 L3.67935196,18.0564581 L3.67935196,19.8577542 L4.41368715,19.5826983 C5.43715084,19.2014581 7.61201117,18.5592346 10.7041508,18.5592346 L10.7041508,18.560514 Z M9.01543575,42.9701229 C4.52882682,42.9701229 0,40.304 0,34.3474413 C0,28.3627374 4.64780447,27.1870335 8.69944134,26.8301006 L16.3242458,26.1622905 L16.3242458,24.5055587 C16.3242458,20.2300391 15.2726369,19.247514 10.7041508,19.247514 C7.72075419,19.247514 5.63288827,19.8590335 4.65292179,20.2249218 L2.99491061,20.8453966 L2.99491061,17.5831061 L3.79321229,17.279905 C5.21326816,16.7425866 7.60561453,16.0990838 10.9446648,16.0990838 C17.0214804,16.0990838 19.4995419,18.4504916 19.4995419,24.2164302 L19.4944246,39.2511117 L22.445838,39.4685978 L22.445838,42.1679832 L18.5029441,42.3637207 C17.4244693,42.3637207 16.5391732,41.5897263 16.379257,40.5816145 C14.772419,41.5986816 12.0423296,42.9688436 9.02055307,42.9688436 L9.01543575,42.9701229 Z M148.091358,29.2736201 C148.091358,33.2472179 146.952754,39.9125251 139.331788,39.9125251 C136.602978,39.9125251 134.59443,39.2946089 133.196123,38.021676 C132.709978,37.5815866 132.433642,36.9214525 132.433642,36.2101453 L132.433642,22.3550056 C132.433642,21.6257877 132.715095,20.9605363 133.211475,20.5255642 C134.609782,19.2974078 136.611933,18.6986816 139.331788,18.6986816 C145.225659,18.6986816 148.091358,22.1579888 148.091358,29.2736201 L148.091358,29.2736201 Z M139.331788,16.2884246 C136.453296,16.2884246 134.183765,16.8769162 132.433642,18.0846034 L132.433642,9.04741899 C132.433642,8.11990503 131.678838,7.36510056 130.728296,7.36510056 L127.357263,7.53141341 L127.357263,9.42482123 L129.997799,9.61927933 C130.020827,9.62311732 130.042575,9.62695531 130.059207,9.63207263 L130.059207,41.8302402 L132.102296,41.8302402 L132.263492,40.3666872 C134.037922,41.6792793 136.361184,42.3202235 139.330508,42.3202235 C146.417994,42.3202235 150.481145,37.5662346 150.481145,29.2736201 C150.481145,20.7788715 146.625246,16.2884246 139.330508,16.2884246 L139.331788,16.2884246 Z" id="Shape" fill="#525252" fill-rule="nonzero"></path>
                <path d="M139.331788,19.0415419 C136.696369,19.0415419 134.769698,19.6121229 133.437916,20.7839888 C133.015737,21.1549944 132.776503,21.7255754 132.776503,22.3537263 L132.776503,36.2088659 C132.776503,36.8255028 133.013179,37.3922458 133.426402,37.769648 C134.756905,38.9811732 136.691251,39.5696648 139.331788,39.5696648 C146.65467,39.5696648 147.749777,33.1192849 147.749777,29.2736201 C147.749777,22.3882682 144.99538,19.0415419 139.331788,19.0415419 Z M139.331788,40.2553855 C136.512145,40.2553855 134.429397,39.6080447 132.964564,38.2749832 C132.410615,37.7709274 132.092061,37.0174022 132.092061,36.2101453 L132.092061,22.3550056 C132.092061,21.5285587 132.418291,20.7686369 132.987592,20.2696983 C134.449866,18.9814134 136.526218,18.3558212 139.333067,18.3558212 C145.457218,18.3558212 148.434218,21.9251508 148.434218,29.2736201 C148.434218,38.8302123 142.732246,40.2553855 139.333067,40.2553855 L139.331788,40.2553855 Z M131.988436,39.7385363 L132.468184,40.0929106 C134.182486,41.3594469 136.428989,41.9773631 139.331788,41.9773631 C146.201788,41.9773631 150.142123,37.3461899 150.142123,29.2736201 C150.142123,21.0027542 146.402642,16.6312849 139.331788,16.6312849 C136.514704,16.6312849 134.320654,17.2005866 132.628101,18.3660559 L132.090782,18.7370615 L132.090782,9.04741899 C132.090782,8.30924581 131.479263,7.70796089 130.728296,7.70796089 L127.700123,7.85892179 L127.700123,9.10754749 L130.135966,9.29688827 L130.402067,9.35701676 L130.402067,41.4886592 L131.796536,41.4886592 L131.988436,39.7385363 Z M139.331788,42.6630838 C136.537732,42.6630838 134.30786,42.1104134 132.541106,40.9743687 L132.409335,42.1743799 L129.715067,42.1743799 L129.715067,9.94039106 L127.013123,9.74465363 L127.013123,7.20646369 L130.707827,7.02351955 C131.856665,7.02351955 132.775223,7.93184358 132.775223,9.04741899 L132.775223,17.4602905 C134.502318,16.4432235 136.654151,15.9468436 139.330508,15.9468436 C146.850408,15.9468436 150.824006,20.5549888 150.824006,29.2736201 C150.824006,37.7837207 146.634201,42.6630838 139.330508,42.6630838 L139.331788,42.6630838 Z M227.656704,39.9880056 C226.040911,39.9880056 225.814469,39.8984525 223.086939,36.7052458 L215.890709,28.2399218 L224.636207,19.9882458 C225.493358,19.1669162 225.493358,19.1669162 227.632397,18.9136089 L228.499782,18.8112626 L228.499782,16.7592179 L219.500978,16.7592179 L219.500978,18.8061453 L222.185011,19.0236313 L213.900073,26.8326592 C213.86681,26.8582458 213.724804,26.9043017 213.529067,26.9043017 L211.488536,26.9043017 L211.485978,9.07684358 C211.485978,8.13013966 210.663369,7.33055866 209.664212,7.33055866 L206.050106,7.50710615 L206.050106,9.45168715 L208.882542,9.65637989 C208.936274,9.6653352 208.978492,9.6742905 209.010475,9.68196648 L209.010475,39.5338436 L208.977212,39.5427989 L206.056503,39.7628436 L206.056503,41.8698994 L214.451464,41.8698994 L214.451464,39.7590056 L211.61519,39.5543128 C211.561458,39.5440782 211.521799,39.5351229 211.491095,39.5261676 L211.491095,29.3350279 L213.454866,29.3350279 C213.589196,29.3350279 213.715849,29.3938771 213.800285,29.4962235 L221.125726,38.1521676 C223.601229,41.0856704 224.797402,42.2805642 226.665223,42.2805642 C227.412352,42.2805642 227.91257,42.1743799 228.187626,41.9607318 L228.545838,41.6959106 L228.545838,39.9867263 L227.657983,39.9867263 L227.656704,39.9880056 Z" id="Shape" fill="#525252" fill-rule="nonzero"></path>
                <path d="M211.146955,28.9934469 L213.453587,28.9934469 C213.688983,28.9934469 213.910307,29.0957933 214.061268,29.2748994 L221.38543,37.9295642 C223.79057,40.7786313 224.939408,41.9377039 226.665223,41.9377039 C227.483994,41.9377039 227.831972,41.8046536 227.977816,41.6920726 L228.201698,41.5257598 L228.201698,40.3321453 L227.657983,40.3321453 C225.861804,40.3321453 225.547089,40.1095419 222.828514,36.9291285 L215.421196,28.2130559 L224.402089,19.7400559 C225.343676,18.8381285 225.428112,18.8278939 227.595296,18.5733073 L228.16076,18.5055028 L228.16076,17.1020782 L219.847676,17.1020782 L219.847676,18.4901508 L222.984592,18.7460168 L214.138028,27.0821285 C213.974274,27.2100615 213.715849,27.2446034 213.532905,27.2446034 L211.150793,27.2446034 L211.148235,9.07556425 C211.148235,8.31436313 210.47019,7.67086034 209.66805,7.67086034 L206.396804,7.83205587 L206.396804,9.13441341 L208.908128,9.31351955 C209.013034,9.33015084 209.064207,9.34294413 209.102587,9.35189944 L209.354615,9.42226257 L209.354615,39.515933 L209.40067,39.8229721 L209.004078,39.8831006 L206.400642,40.0775587 L206.400642,41.5257598 L214.109883,41.5257598 L214.109883,40.0762793 L211.547385,39.8882179 C211.483419,39.8754246 211.438642,39.8651899 211.404101,39.8562346 L211.127765,39.7820335 L211.148235,39.4980223 L211.148235,28.9921676 L211.146955,28.9934469 Z M226.665223,42.6234246 C224.650279,42.6234246 223.411888,41.3952682 220.862184,38.3734916 L213.538022,29.7175475 C213.516274,29.6919609 213.486849,29.6791676 213.452307,29.6791676 L211.831397,29.6791676 L211.833955,39.2255251 L214.791765,39.4391732 L214.791765,42.2089218 L205.712363,42.2089218 L205.712363,39.4417318 L208.665056,39.2204078 L208.667615,9.98132961 L205.707246,9.77151955 L205.707246,7.18087709 L209.647581,6.98897765 C210.837358,6.98897765 211.828838,7.94463687 211.828838,9.07684358 L211.832676,26.560162 L213.530346,26.5627207 C213.616061,26.5627207 213.683866,26.5499274 213.715849,26.5409721 L221.391827,19.3050838 L219.160676,19.1221397 L219.160676,16.4163575 L228.845201,16.4163575 L228.845201,19.115743 L227.674615,19.2539106 C225.653274,19.4918659 225.653274,19.4918659 224.872883,20.2351564 L216.362782,28.2642291 L223.35048,36.4839218 C226.052425,39.6438659 226.203385,39.6438659 227.659263,39.6438659 L228.887419,39.6438659 L228.887419,41.8698994 L228.394877,42.237067 C228.053296,42.5006089 227.504464,42.6234246 226.667782,42.6234246 L226.665223,42.6234246 Z M34.2182291,27.6207263 C29.8211732,26.3222067 28.2629497,25.1311508 28.2629497,23.0727095 C28.2629497,22.096581 28.7388603,21.1025419 29.5678659,20.3502961 C30.2932458,19.6888827 31.6480559,18.9008156 33.9687598,18.9008156 C35.6165363,18.9008156 37.2054637,19.3102011 38.689486,20.1123408 C39.0221117,20.2914469 39.1973799,20.5153296 39.2140112,20.7737542 L39.4417318,24.3072626 L41.6511341,24.3072626 L41.7969777,17.4666872 L39.7244637,17.4666872 L39.6668939,17.6509106 C38.5372458,17.0816089 36.6028994,16.375419 33.9687598,16.375419 C30.002838,16.375419 25.7848883,18.7229888 25.7848883,23.0727095 C25.7848883,27.0514246 28.7580503,28.7068771 33.554257,30.0898324 C37.4012011,31.2028492 40.5867318,32.3542458 40.5867318,35.1483017 C40.5867318,37.6992849 37.7683687,39.7730782 34.3052235,39.7730782 C32.4207709,39.7730782 30.7231006,39.3035642 29.2557095,38.3811676 C28.6672179,38.010162 28.2450391,37.3960838 28.1004749,36.6924525 L27.6104916,34.2975475 L25.422838,34.2975475 L25.9038659,41.794419 L27.9252067,41.8200056 L28.0403464,41.103581 C28.065933,40.9244749 28.0915196,40.7607207 28.1119888,40.6110391 C29.5614693,41.4553966 31.6685251,42.2971955 34.3039441,42.2971955 C39.2165698,42.2971955 43.067352,39.1564413 43.067352,35.145743 C43.067352,30.3175531 38.7867151,29.0126369 34.2207877,27.6207263 L34.2182291,27.6207263 Z" id="Shape" fill="#525252" fill-rule="nonzero"></path>
                <path d="M27.8420503,40.059648 L28.2821397,40.315514 C29.5665866,41.0639218 31.6544525,41.9556145 34.3026648,41.9556145 C39.0233911,41.9556145 42.7206536,38.9658212 42.7206536,35.149581 C42.7206536,30.5721397 38.7355419,29.3567765 34.1197207,27.949514 C29.5422793,26.5972626 27.9200894,25.3204916 27.9200894,23.0727095 C27.9200894,22.0006313 28.4369385,20.9157598 29.3363073,20.0969888 C30.1090223,19.3933575 31.5393128,18.556676 33.9700391,18.556676 C35.6766648,18.556676 37.3218827,18.9788547 38.8570782,19.810419 C39.403352,20.1046648 39.5402402,20.4833464 39.5581508,20.7481676 L39.7628436,23.9592849 L41.3172291,23.9592849 L41.4477207,17.8057095 L39.9764916,17.8057095 L39.8715866,18.1357765 L39.5133743,17.9566704 C38.3914022,17.3899274 36.519743,16.7157207 33.9700391,16.7157207 C30.1665922,16.7157207 26.1277486,18.9417542 26.1277486,23.0701508 C26.1277486,26.8313799 29.0036816,28.4177486 33.647648,29.758486 C37.6302011,30.9124413 40.9270335,32.1124525 40.9270335,35.1444637 C40.9270335,37.8847877 37.9564302,40.1133799 34.3039441,40.1133799 C32.3542458,40.1133799 30.5938883,39.6272346 29.071486,38.6677374 C28.403676,38.250676 27.926486,37.5547207 27.7640112,36.7589777 L27.3290391,34.6391285 L25.7887263,34.6391285 L26.2236983,41.4553966 L27.6335196,41.4720279 L27.8446089,40.0558101 L27.8420503,40.059648 Z M34.3026648,42.6413352 C31.7862235,42.6413352 29.7482514,41.8814134 28.3755307,41.1534749 L28.2143352,42.1679832 L25.5789162,42.1385587 L25.0543911,33.9572458 L27.8893855,33.9572458 L28.4356592,36.6259274 C28.5635922,37.2374469 28.9269218,37.7722067 29.4373743,38.0920391 C30.8497542,38.9811732 32.4872961,39.4314972 34.3052235,39.4314972 C37.5803073,39.4314972 40.2438715,37.5125028 40.2438715,35.1508603 C40.2438715,32.5960391 37.1709218,31.497095 33.4583073,30.4224581 C28.5111397,28.9947263 25.4433073,27.2676313 25.4433073,23.0752682 C25.4433073,18.5016648 29.8378045,16.0351173 33.9725978,16.0351173 C36.4007654,16.0351173 38.2532346,16.6197709 39.4634804,17.1737207 L39.4788324,17.1263855 L42.1500726,17.1263855 L41.9914358,24.6514022 L39.1218994,24.6514022 L38.8788268,20.7967821 C38.8685922,20.6637318 38.7508939,20.5345196 38.5334078,20.4168212 C37.098,19.6402682 35.5653631,19.2462346 33.9725978,19.2462346 C31.7593575,19.2462346 30.4838659,19.9856872 29.8019832,20.606162 C29.0433408,21.297 28.6083687,22.1950894 28.6083687,23.0752682 C28.6083687,24.9430894 30.1026257,26.0497095 34.3180168,27.2970559 L34.3205754,27.2970559 C38.9939665,28.7209497 43.4076536,30.0668045 43.4076536,35.1521397 C43.4076536,39.3534581 39.4097486,42.6438939 34.3052235,42.6438939 L34.3026648,42.6413352 Z M68.0142793,39.4993017 L68.0142793,39.4647598 L68.0193966,24.0577933 C68.0193966,21.3161899 67.5140615,19.5507151 66.3844134,18.331514 C65.1102011,16.9549553 63.0658324,16.3152905 59.9493855,16.3152905 C56.0986034,16.3152905 53.4759777,17.4462179 51.8051732,18.5924972 L51.8051732,18.3430279 C51.8051732,17.388648 51.0222235,16.6133743 50.0371397,16.6133743 L46.5279385,16.7924804 L46.5279385,18.7242682 L49.2784972,18.9238436 L49.3526983,18.9404749 L49.3143184,39.4865084 L49.3143184,39.5031397 C49.3053631,39.5069777 49.2938492,39.5095363 49.2823352,39.512095 L46.3603464,39.729581 L46.3603464,41.8404749 L54.7527486,41.8404749 L54.7527486,39.729581 L51.9190335,39.5248883 C51.8653017,39.5146536 51.8243631,39.504419 51.7949385,39.4954637 L51.7949385,22.9550112 C51.7949385,22.197648 52.1493128,21.4914581 52.7633911,21.0168268 C54.7591453,19.4790726 57.0427486,18.762648 59.9481061,18.762648 C64.6304525,18.762648 65.4594581,20.0650056 65.5259832,24.2202682 L65.5311006,39.4916257 L65.5311006,39.504419 C65.5221453,39.508257 65.5106313,39.5108156 65.4991173,39.5133743 L62.5771285,39.7308603 L62.5771285,41.8417542 L70.9720894,41.8417542 L70.9720894,39.7308603 L68.1319777,39.5261676 C68.0808045,39.515933 68.0424246,39.5056983 68.0117207,39.4980223 L68.0142793,39.4993017 Z" id="Shape" fill="#525252" fill-rule="nonzero"></path>
                <path d="M62.9225475,41.4988939 L70.6317877,41.4988939 L70.6317877,40.0532514 L68.0692905,39.8639106 C68.0078827,39.8511173 67.9605475,39.838324 67.9247263,39.830648 L67.6509497,39.7564469 L67.6726983,39.4749944 L67.6765363,24.0590726 C67.6765363,21.4108603 67.2006257,19.7157486 66.1336648,18.564352 C64.9285363,17.2658324 62.963486,16.6607095 59.9506648,16.6607095 C56.0487095,16.6607095 53.473419,17.865838 51.9996313,18.8777877 L51.4623128,19.2462346 L51.4623128,18.3455866 C51.4623128,17.5805475 50.822648,16.9587933 50.038419,16.9587933 L46.8707989,17.1212682 L46.8707989,18.4082737 L49.347581,18.5873799 L49.4396927,18.6091285 L49.6981173,18.673095 L49.6597374,39.4877877 L49.689162,39.7666816 L49.3092011,39.8562346 L46.704486,40.0506927 L46.704486,41.4963352 L54.4137263,41.4963352 L54.4137263,40.0506927 L51.8960056,39.8677486 C51.7885419,39.849838 51.738648,39.8370447 51.7002682,39.8255307 L51.4392849,39.7487709 L51.4546369,39.4775531 L51.4546369,22.9550112 C51.4546369,22.0901844 51.8576257,21.2842067 52.557419,20.7456089 C54.6171397,19.1592402 56.9647095,18.4197877 59.9519441,18.4197877 C64.8965531,18.4197877 65.8010391,19.938352 65.8701229,24.2151508 L65.8752402,39.4724358 L65.9200168,39.741095 L65.5259832,39.8562346 L62.9212682,40.0519721 L62.9212682,41.4976145 L62.9225475,41.4988939 Z M71.3175084,42.1846145 L62.2393855,42.1846145 L62.2393855,39.4161453 L65.1895196,39.1948212 L65.1844022,24.2202682 C65.1204358,20.2581844 64.4270391,19.1055084 59.9519441,19.1055084 C57.1246257,19.1055084 54.9075475,19.8001844 52.9744804,21.289324 C52.444838,21.6987095 52.1429162,22.3051117 52.1429162,22.9562905 L52.1403575,39.2037765 L55.0994469,39.4161453 L55.0994469,42.1846145 L46.017486,42.1846145 L46.017486,39.4161453 L48.9727374,39.1935419 L49.0085587,19.2487933 L46.1812402,19.0441006 L46.1812402,16.4700894 L50.0153911,16.2730726 C51.070838,16.2730726 51.9382235,17.0150838 52.1134916,17.9848156 C53.7203296,17.0022905 56.2802682,15.9737095 59.9481061,15.9737095 C63.1656201,15.9737095 65.2905866,16.6491955 66.6338827,18.0973966 C67.8274972,19.3856816 68.3609777,21.2240782 68.3609777,24.0590726 L68.3571397,39.1999385 L71.3162291,39.4174246 L71.3162291,42.1858939 L71.3175084,42.1846145 Z M200.376279,39.4993017 L200.376279,39.4647598 L200.380117,24.0577933 C200.380117,21.3161899 199.874782,19.5507151 198.745134,18.331514 C197.470922,16.9549553 195.426553,16.3152905 192.310106,16.3152905 C188.459324,16.3152905 185.836698,17.4462179 184.164615,18.5924972 L184.164615,18.3430279 C184.164615,17.388648 183.384223,16.6133743 182.39914,16.6133743 L182.396581,16.6133743 L178.888659,16.7924804 L178.888659,18.7242682 L181.639218,18.9238436 L181.715978,18.9391955 L181.677598,39.4877877 L181.677598,39.5031397 L181.644335,39.512095 L178.723626,39.729581 L178.723626,41.8404749 L187.119866,41.8404749 L187.119866,39.729581 L184.284872,39.5248883 C184.23114,39.5146536 184.190201,39.504419 184.159497,39.4954637 L184.159497,22.9550112 C184.159497,22.197648 184.512592,21.4914581 185.12795,21.0168268 C187.123704,19.4790726 189.407307,18.762648 192.312665,18.762648 C196.995011,18.762648 197.822737,20.0650056 197.890542,24.2202682 L197.89438,39.4916257 L197.89438,39.504419 L197.861117,39.5133743 L194.941687,39.7308603 L194.941687,41.8417542 L203.336648,41.8417542 L203.336648,39.7308603 L200.496536,39.5261676 C200.445363,39.515933 200.406983,39.5056983 200.376279,39.4980223 L200.376279,39.4993017 Z" id="Shape" fill="#525252" fill-rule="nonzero"></path>
                <path d="M195.284547,41.4988939 L202.993788,41.4988939 L202.993788,40.0532514 L200.47095,39.8690279 C200.368603,39.8511173 200.321268,39.8396034 200.285447,39.830648 L200.021905,39.7577263 L200.03214,39.4801117 L200.375,39.496743 L200.033419,39.4737151 L200.035978,24.0577933 C200.035978,21.409581 199.560067,19.7157486 198.493106,18.564352 C197.287978,17.2658324 195.322927,16.6607095 192.310106,16.6607095 C188.408151,16.6607095 185.831581,17.865838 184.357793,18.8777877 L183.820475,19.2462346 L183.820475,18.3455866 C183.820475,17.5805475 183.18081,16.9587933 182.396581,16.9587933 L179.228961,17.1212682 L179.228961,18.4082737 L181.78762,18.6065698 L182.056279,18.6666983 L182.017899,39.489067 L182.048603,39.7833128 L181.667363,39.8549553 L179.063927,40.0506927 L179.063927,41.4963352 L186.771888,41.4963352 L186.771888,40.0506927 L184.254168,39.8677486 C184.146704,39.849838 184.095531,39.8370447 184.05843,39.8255307 L183.796168,39.7487709 L183.81152,39.4775531 L183.81152,22.9550112 C183.81152,22.0901844 184.214508,21.2842067 184.914302,20.7456089 C186.974022,19.1592402 189.321592,18.4197877 192.308827,18.4197877 C197.253436,18.4197877 198.157922,19.938352 198.227006,24.2151508 L198.232123,39.4903464 L198.270503,39.7897095 L197.882866,39.8562346 L195.280709,40.0519721 L195.280709,41.4976145 L195.284547,41.4988939 Z M203.67695,42.1846145 L194.600106,42.1846145 L194.600106,39.4161453 L197.552799,39.1935419 L197.547682,24.2202682 C197.483715,20.2581844 196.790318,19.1055084 192.315223,19.1055084 C189.487905,19.1055084 187.270827,19.8001844 185.33776,21.289324 C184.808117,21.6987095 184.506196,22.3051117 184.506196,22.9562905 L184.503637,39.2037765 L187.462726,39.4161453 L187.462726,42.1846145 L178.384603,42.1846145 L178.384603,39.4161453 L181.339855,39.1935419 L181.374397,19.2487933 L178.550916,19.0441006 L178.550916,16.4700894 L182.383788,16.2730726 C183.437955,16.2730726 184.305341,17.0150838 184.47933,17.9848156 C186.087447,17.0022905 188.647385,15.9737095 192.315223,15.9737095 C195.531458,15.9737095 197.656425,16.6491955 198.999721,18.0973966 C200.193335,19.3856816 200.726816,21.2240782 200.726816,24.0590726 L200.722978,39.2012179 L203.680788,39.4148659 L203.680788,42.1833352 L203.67695,42.1846145 Z" id="Shape" fill="#525252" fill-rule="nonzero"></path>
                <g id="Group-2" transform="translate(75.986364, 0.000000)">
                    <g id="Group" transform="translate(0.210508, 0.326229)">
                        <g id="Clipped">
                            <mask id="mask-2" fill="white">
                                <use xlink:href="#path-1"></use>
                            </mask>
                            <g id="a"></g>
                            <path d="M9.25722905,24.8113184 C9.53100559,23.5115196 9.97749162,22.2744078 10.5723799,21.1268492 C10.9267542,20.4449665 11.2120447,19.7272626 11.3732402,18.9775754 C11.4474413,18.6372737 11.5011732,18.2867374 11.5011732,17.9796983 C11.5011732,14.8606927 8.97449721,12.3314581 5.85932961,12.3314581 C3.51048045,12.3314581 1.49681564,13.7668659 0.648620112,15.8112346 C0.39275419,14.7903296 0.257145251,13.7220894 0.264821229,12.6218659 C0.314715084,5.66103352 5.92841341,0.0831564246 12.8854078,0.0831564246 C19.6466648,0.0831564246 25.1669721,5.4051676 25.4868045,12.0935028 C25.6249721,14.9515251 24.6168603,17.5779888 23.0778268,19.9485866 C21.0692793,23.0445642 18.7882346,25.9435251 18.7882346,29.8173352 C18.7882346,35.4271955 22.4522346,40.179905 27.5132626,41.8136089 C26.1750838,42.1974078 24.7575866,42.3969832 23.2914749,42.376514 C15.6078212,42.2780056 9.27513966,36.1218715 8.95530726,28.4394972 C8.90413408,27.1908715 9.01159777,25.9755084 9.25722905,24.8113184" id="Shape" fill="#EF533D" fill-rule="nonzero" mask="url(#mask-2)"></path>
                        </g>
                    </g>
                    <path d="M31.5719939,18.6948436 C31.5719939,18.0142402 31.0218822,17.4628492 30.3399995,17.4628492 C29.6619548,17.4628492 29.1092844,18.0129609 29.1092844,18.6948436 C29.1092844,19.3767263 29.6619548,19.9281173 30.3412788,19.9281173 C31.0231615,19.9281173 31.5745526,19.3780056 31.5745526,18.6948436" id="Shape" fill="#EF533D" fill-rule="nonzero"></path>
                    <path d="M29.8551336,5.57531844 C29.8551336,5.58811173 29.8512956,5.60090503 29.8500163,5.61625698 L29.8692062,5.57787709 L29.8564129,5.57531844 L29.8551336,5.57531844 Z" id="Shape" fill="#EA553F" fill-rule="nonzero"></path>
                    <path d="M35.1822621,33.2587318 C35.0722397,31.0966648 36.3234241,29.1853464 38.1810107,28.3461061 L38.1810107,28.2923743 C37.6616028,28.1900279 37.1242844,28.1362961 36.5741727,28.1362961 C31.9519548,28.1362961 28.207357,31.8847318 28.207357,36.512067 C28.207357,38.3197598 28.7804967,39.9918436 29.7527872,41.3607263 C32.3434297,40.1581564 34.5208487,38.2135754 36.0138263,35.7994804 C35.531519,35.0638659 35.2295973,34.2003184 35.1822621,33.2587318 M36.9349436,13.4329609 C37.2573347,12.6013966 37.4364408,11.6994693 37.4364408,10.755324 C37.4364408,9.39667598 37.0654352,8.12886034 36.4257704,7.03503352 C36.1865358,8.76212849 35.4956978,10.3357039 34.4735135,11.6406201 L34.4044297,11.7557598 C33.9630609,11.5229218 33.485871,11.2900838 32.9715805,11.0559665 C32.5903403,10.8615084 32.2513179,10.6555363 31.9455582,10.4418883 C30.6572732,9.69220112 29.6888207,8.45508939 29.2973459,6.98002235 C29.0542732,7.78344134 28.9263403,8.63547486 28.9263403,9.51821229 C28.9263403,12.4389218 30.3489548,15.0244469 32.5404464,16.6184916 L32.566033,16.6338436 C33.0176364,16.9831006 33.4487704,17.3451508 33.8581559,17.7468603 C35.4765079,19.3281117 36.7276922,21.2867654 37.4697034,23.478257 C38.2296252,22.4547933 38.7541503,21.2445475 38.9626811,19.9281173 C39.0304855,19.5084972 39.0650274,19.0773631 39.0650274,18.6385531 C39.0650274,16.3485531 38.4445526,14.7749777 36.936223,13.4316816" id="Shape" fill="#EF533D" fill-rule="nonzero"></path>
                </g>
            </g>
        </g>
    </g>
</svg>