<?xml version="1.0" encoding="UTF-8"?>
<svg width="121px" height="80px" viewBox="0 0 121 80" version="1.1" xmlns="http://www.w3.org/2000/svg" xmlns:xlink="http://www.w3.org/1999/xlink">
    <title>Artboard</title>
    <g id="Artboard" stroke="none" stroke-width="1" fill="none" fill-rule="evenodd">
        <g id="Payment-method-/-UnionPay" transform="translate(0.000000, -21.000000)">
            <g id="UnionPay_logo" transform="translate(0.000000, 22.687500)">
                <path d="M23.6524897,0.000315527968 L53.7978341,0.000315527968 C58.005853,0.000315527968 60.6230976,3.43021456 59.6414473,7.65219394 L45.6066354,67.9090833 C44.6161676,72.1163673 40.4030055,75.5492053 36.1920477,75.5492053 L6.04964234,75.5492053 C1.84750173,75.5492053 -0.775621552,72.1163673 0.206029067,67.9090833 L14.2467189,7.65219394 C15.2283696,3.43021456 19.4393275,0.000315527968 23.6524897,0.000315527968" id="Path" fill="#E21836" fill-rule="nonzero"></path>
                <path d="M51.2894814,0.000315527968 L85.9558562,0.000315527968 C90.1631396,0.000315527968 88.2659678,3.43021456 87.2762346,7.65219394 L73.2436274,67.9090833 C72.2590376,72.1163673 72.5661706,75.5492053 68.3500693,75.5492053 L33.6836952,75.5492053 C29.4675939,75.5492053 26.8584312,72.1163673 27.8488992,67.9090833 L41.8807717,7.65219394 C42.8771176,3.43021456 47.0792583,0.000315527968 51.2894814,0.000315527968" id="Path" fill="#00447C" fill-rule="nonzero"></path>
                <path d="M84.5808103,0.000315527968 L114.726154,0.000315527968 C118.940052,0.000315527968 121.557297,3.43021456 120.567563,7.65219394 L106.534956,67.9090833 C105.544488,72.1163673 101.328387,75.5492053 97.1152249,75.5492053 L66.9838412,75.5492053 C62.7677399,75.5492053 60.1526993,72.1163673 61.140228,67.9090833 L75.1750393,7.65219394 C76.1566905,3.43021456 80.364709,0.000315527968 84.5808103,0.000315527968" id="Path" fill="#007B84" fill-rule="nonzero"></path>
                <path d="M31.5253863,19.3109115 C28.4253985,19.3425066 27.509877,19.3109115 27.2174392,19.2418433 C27.1050195,19.7760199 25.0131337,29.4257338 25.0072555,29.4338162 C24.5568425,31.3860959 24.2291359,32.7777472 23.1159617,33.6763691 C22.4840609,34.1987894 21.7463534,34.4508149 20.8910829,34.4508149 C19.5163312,34.4508149 18.7154336,33.7682151 18.5809709,32.4735532 L18.5552541,32.0290183 C18.5552541,32.0290183 18.9740721,29.4139774 18.9740721,29.3992821 C18.9740721,29.3992821 21.1695602,20.6055735 21.5626613,19.4431699 C21.5832348,19.3770407 21.5891129,19.3425066 21.5942563,19.3109115 C17.3208431,19.3483847 16.5632968,19.3109115 16.5111283,19.2418433 C16.4824723,19.3366284 16.3766657,19.8818266 16.3766657,19.8818266 L14.1348872,29.7931179 L13.9423779,30.6336931 L13.5698503,33.3831965 C13.5698503,34.1987894 13.7300298,34.8644896 14.0489193,35.4273222 C15.0702474,37.2120748 17.9836043,37.4795305 19.6316898,37.4795305 C21.7551706,37.4795305 23.7471277,37.0283827 25.0932234,36.2047073 C27.4297871,34.8240774 28.0411145,32.6660625 28.5863126,30.748317 L28.8390729,29.764462 C28.8390729,29.764462 31.1006903,20.6312904 31.484974,19.4431699 C31.4996696,19.3770407 31.5055475,19.3425066 31.5253863,19.3109115 Z M39.2203957,26.6787285 C38.6751974,26.6787285 37.6788515,26.8109867 36.7839036,27.2496436 C36.459136,27.4164359 36.1520028,27.6089453 35.8279698,27.8007199 L36.1204076,26.7448576 L35.9602282,26.5670436 C34.0623212,26.9513275 33.6376252,27.0027613 31.8844678,27.2496436 L31.737514,27.3473676 C31.5339832,29.0351309 31.35323,30.3040759 30.598623,33.6215553 C30.3113286,34.84421 30.0130125,36.078621 29.7139617,37.2983365 L29.7947862,37.4533727 C31.5912952,37.3585876 32.1364933,37.3585876 33.6978761,37.3843044 L33.8242563,37.2469028 C34.0226439,36.230718 34.0483606,35.9926531 34.4877523,33.9345667 C34.6942222,32.9587942 35.1247965,30.8147398 35.3371446,30.0513156 C35.7273065,29.8705624 36.1123252,29.6927484 36.4797093,29.6927484 C37.3548187,29.6927484 37.2482772,30.4561729 37.2144778,30.7603671 C37.1770047,31.2710311 36.8581151,32.9389556 36.5311433,34.3710192 L36.312917,35.2953578 C36.16082,35.9779578 35.9940274,36.6414535 35.8419304,37.3181753 L35.9080595,37.4533727 C37.6788515,37.3585876 38.2189064,37.3585876 39.7310597,37.3843044 L39.9088737,37.2469028 C40.1822075,35.6598029 40.2622972,35.2351069 40.7472444,32.92426 L40.9911875,31.8625197 C41.4651133,29.7845945 41.7031782,28.7309367 41.3446112,27.8727272 C40.9654707,26.9109152 40.0558275,26.6787285 39.2203957,26.6787285 Z M47.8165985,28.8543042 C46.8753601,29.0350574 46.2750542,29.1555593 45.6784224,29.2334447 C45.0869337,29.32823 44.5101404,29.4141979 43.6004972,29.5405779 L43.5284899,29.6059723 L43.4623608,29.658141 C43.3675757,30.3355976 43.3014464,30.9212078 43.1758011,31.609686 C43.0692597,32.3216764 42.9054063,33.1306565 42.6386854,34.2930602 C42.4322155,35.1828647 42.325674,35.4929371 42.208111,35.8059485 C42.0934871,36.1189597 41.9671071,36.4231539 41.7349201,37.298263 L41.7892931,37.3790877 L41.8348486,37.4532992 C42.6849757,37.4128869 43.2411955,37.3842309 43.8128453,37.3790877 C44.3837604,37.3585141 44.9752488,37.3790877 45.8907703,37.3842309 L45.9708602,37.3188365 L46.0568281,37.2468293 C46.1890863,36.4576881 46.2089251,36.2453399 46.2897496,35.8603212 C46.3698393,35.4473813 46.5079759,34.8757317 46.8467041,33.3488828 C47.0068838,32.6317489 47.1854325,31.9168192 47.3514901,31.1849897 C47.5241609,30.4560994 47.7049136,29.7382307 47.8768494,29.0210968 L47.8511327,28.9343942 L47.8165985,28.8543042 Z M47.8366576,25.9209617 C46.9813873,25.416176 45.4802553,25.5763554 44.4699486,26.2736507 C43.4625813,26.9569852 43.3479574,27.9268796 44.2002888,28.4382783 C45.0408637,28.9291037 46.5478738,28.7828849 47.5493629,28.0797114 C48.5545265,27.3816815 48.6801717,26.4206043 47.8366576,25.9209617 Z M53.0090597,37.6114949 C54.7394396,37.6114949 56.5131705,37.1346301 57.8482448,35.7194661 C58.8754512,34.5717579 59.3464375,32.8641561 59.5095564,32.1609828 C60.0407941,29.8302973 59.6271192,28.7421051 59.1076379,28.0793441 C58.3184967,27.0690374 56.9239064,26.7450046 55.4771473,26.7450046 C54.6071814,26.7450046 52.5351344,26.8309725 50.9164398,28.3232872 C49.7540358,29.3997228 49.2169202,30.8604426 48.8928874,32.2609111 C48.5659156,33.6878314 48.1897138,36.2565818 50.5519945,37.2125156 C51.2808847,37.525527 52.3316038,37.6114949 53.0090597,37.6114949 Z M52.8738625,32.3674525 C53.272842,30.6025389 53.7438284,29.1212456 54.9459095,29.1212456 C55.8878827,29.1212456 55.956216,30.2233984 55.5373982,31.9941902 C55.4624519,32.3872913 55.1185803,33.8487458 54.6534719,34.4710947 C54.3287041,34.9303249 53.9444204,35.2088021 53.5197241,35.2088021 C53.3933439,35.2088021 52.6416758,35.2088021 52.6299194,34.0926889 C52.6240415,33.5416126 52.7364609,32.9787799 52.8738625,32.3674525 Z M63.8351381,37.3845249 L63.9703353,37.2471232 C64.1621099,36.2309385 64.1937051,35.9921387 64.6184014,33.9347872 C64.8307493,32.9590146 65.2701405,30.8149603 65.4766109,30.0515359 C65.8675075,29.8700482 66.2459133,29.6922342 66.6250536,29.6922342 C67.4942845,29.6922342 67.388478,30.4556586 67.3539443,30.7598526 C67.3223487,31.2712516 67.0034598,32.9384411 66.6706091,34.3705047 L66.4641396,35.2948435 C66.3061642,35.978178 66.1342284,36.6409392 65.9821314,37.3183958 L66.0482607,37.4535932 C67.8249307,37.3588079 68.3444116,37.3588079 69.8653825,37.3845249 L70.0490747,37.2471232 C70.3157956,35.6592887 70.3878028,35.2345924 70.8874454,32.9244805 L71.1255105,31.8620055 C71.6016403,29.7840803 71.842644,28.7311572 71.4899555,27.8729477 C71.0997933,26.9111357 70.1842719,26.678949 69.3605965,26.678949 C68.8146634,26.678949 67.8131743,26.8104724 66.9233696,27.2498641 C66.6052152,27.4166564 66.2863254,27.608431 65.973314,27.8009404 L66.2459133,26.7450781 L66.0996942,26.5665293 C64.2025225,26.951548 63.7690088,27.0029818 62.0180556,27.2498641 L61.8835929,27.3475881 C61.671245,29.0353512 61.4985742,30.3035616 60.7439672,33.6217758 C60.456673,34.8444305 60.158357,36.0788413 59.8600409,37.298557 L59.9401306,37.4535932 C61.7395784,37.3588079 62.2766945,37.3588079 63.8351381,37.3845249 Z M76.8886663,37.4532257 C77.0003512,36.9080276 77.6638472,33.676516 77.6697251,33.676516 C77.6697251,33.676516 78.234762,31.3054182 78.2692967,31.2194503 C78.2692967,31.2194503 78.4471104,30.9725683 78.6249242,30.874844 L78.8865016,30.874844 C81.3545892,30.874844 84.1415656,30.874844 86.326032,29.2679054 C87.8124688,28.1657528 88.8286533,26.5382406 89.2820053,24.5602442 C89.3995686,24.075297 89.4862713,23.4985037 89.4862713,22.9217106 C89.4862713,22.1641643 89.3341743,21.4147005 88.8947826,20.8290901 C87.7808736,19.2706462 85.5626081,19.2419903 83.0019399,19.2302339 C82.9938575,19.2302339 81.7396074,19.2419903 81.7396074,19.2419903 C78.4618058,19.2824025 77.1473048,19.2706462 76.6072501,19.2045171 C76.5616946,19.4433168 76.4757264,19.868013 76.4757264,19.868013 C76.4757264,19.868013 75.3015665,25.309708 75.3015665,25.3185252 C75.3015665,25.3185252 72.4918123,36.8881888 72.3595536,37.4333869 C75.2214768,37.398853 76.3949022,37.398853 76.8886663,37.4532257 Z M79.0643158,27.7866123 C79.0643158,27.7866123 80.3126875,22.3559389 80.3068095,22.3765124 L80.3472212,22.0980352 L80.364856,21.8856871 L80.8637635,21.9371208 C80.8637635,21.9371208 83.4383921,22.1582861 83.4986435,22.1641643 C84.5148279,22.5572654 84.9336458,23.5705111 84.6412082,24.8930941 C84.3744873,26.1017882 83.5904896,27.1179731 82.583122,27.6087983 C81.7535682,28.0246772 80.7373833,28.0592113 79.6903386,28.0592113 L79.0128823,28.0592113 L79.0643158,27.7866123 Z M86.8369905,32.4680425 C86.5070792,33.8743891 86.1279385,36.4431397 88.4784627,37.3586611 C89.2279263,37.6775505 89.8995047,37.7723356 90.5821049,37.7378016 C91.3029128,37.6988588 91.9708172,37.3373529 92.5894921,36.8171367 C92.5336501,37.0309544 92.4778077,37.244772 92.4219652,37.4593244 L92.5285062,37.596726 C94.2192085,37.5254535 94.7438333,37.5254535 96.5756107,37.5394141 L96.7416685,37.4130339 C97.0091244,35.8406294 97.2611499,34.3137807 97.956241,31.3056387 C98.2949687,29.8647577 98.6329624,28.4378376 98.9805079,27.0028348 L98.9261354,26.8448596 C97.0348411,27.1953441 96.5293206,27.2702906 94.7100336,27.5281943 L94.5718975,27.6406137 C94.5535282,27.7868328 94.5344244,27.9271734 94.5167896,28.0675143 C94.2339038,27.6104883 93.8239034,27.2203264 93.1912676,26.977118 C92.3822872,26.6589632 90.4821764,27.0689639 88.8487861,28.5561352 C87.7010779,29.6178757 87.1500019,31.072717 86.8369905,32.4680425 Z M90.8091482,32.5540104 C91.2140057,30.8206915 91.6791141,29.3540938 92.8841347,29.3540938 C93.6460892,29.3540938 94.0472727,30.0572671 93.9657135,31.2564092 C93.9010541,31.55546 93.8312508,31.8706757 93.7482217,32.2270384 C93.6277203,32.742111 93.4969311,33.252775 93.3698164,33.7641739 C93.2404967,34.1139237 93.0898696,34.4438347 92.9245468,34.6635305 C92.6144743,35.1029219 91.8767671,35.375521 91.4520708,35.375521 C91.3315685,35.375521 90.5879829,35.375521 90.5622661,34.2792466 C90.5563877,33.7333137 90.6688076,33.1712158 90.8091482,32.5540104 Z M111.552028,26.8308255 L111.40581,26.6640331 C109.534354,27.0431736 109.195626,27.1034245 107.476268,27.3356115 L107.349887,27.4619915 C107.34401,27.482565 107.338866,27.5141602 107.330049,27.5428162 L107.324171,27.5141602 C106.044204,30.4671945 106.081677,29.8301503 105.039776,32.1549576 C105.033897,32.0491509 105.033897,31.9830218 105.02802,31.8706022 L104.767176,26.8308255 L104.603323,26.6640331 C102.642961,27.0431736 102.596671,27.1034245 100.786201,27.3356115 L100.645126,27.4619915 C100.625287,27.5222426 100.625287,27.5883717 100.613531,27.660379 L100.625287,27.686096 C100.851596,28.8426216 100.797223,28.5847179 101.024266,30.4098826 C101.130073,31.3055652 101.271149,32.2063913 101.376955,33.0910526 C101.555504,34.5716109 101.655433,35.3005012 101.873659,37.5599142 C100.651004,39.5775882 100.361505,40.3410127 99.1844061,42.1118046 L99.1924886,42.129439 L98.3636698,43.4402658 C98.2688847,43.5784024 98.182917,43.6731875 98.0624147,43.7135998 C97.9301565,43.7789942 97.7582207,43.7907503 97.5194206,43.7907503 L97.0601906,43.7907503 L96.3775909,46.0611849 L98.7192977,46.1015972 C100.094049,46.095719 100.958137,45.4527966 101.423246,44.5887089 L102.895721,42.0655141 L102.872209,42.0655141 L103.027245,41.8877001 C104.017713,39.7554022 111.552028,26.8308255 111.552028,26.8308255 Z M86.8369167,56.6495649 L85.8435096,56.6495649 L89.5202912,44.4884129 L90.7400066,44.4884129 L91.1272293,43.2356328 L91.1647024,44.6287538 C91.1191469,45.4899023 91.7966037,46.2533267 93.5762126,46.1269467 L95.6342988,46.1269467 L96.3426157,43.7852396 L95.5681699,43.7852396 C95.1229003,43.7852396 94.9164303,43.67282 94.9421476,43.4318161 L94.904674,42.0144476 L91.0934301,42.0144476 L91.0934301,42.0217953 C89.8612238,42.0475123 86.1815032,42.1400931 85.4364481,42.3384807 C84.5348875,42.5706674 83.5848314,43.2540021 83.5848314,43.2540021 L83.9580937,41.9997523 L80.3929974,41.9997523 L79.6501468,44.4884129 L75.9241361,56.8354616 L75.2011238,56.8354616 L74.4920723,59.1602691 L81.5928746,59.1602691 L81.3548094,59.9354494 L84.8537763,59.9354494 L85.0859635,59.1602691 L86.0676143,59.1602691 L86.8369167,56.6495649 Z M83.92356,46.9594392 C83.3526451,47.1174144 82.2901697,47.5964834 82.2901697,47.5964834 L83.2350818,44.4884129 L86.0676143,44.4884129 L85.3842796,46.7529693 C85.3842796,46.7529693 84.5091702,46.804403 83.92356,46.9594392 Z M83.977933,51.3996448 C83.977933,51.3996448 83.0881283,51.5113297 82.5025176,51.6435879 C81.9257243,51.8184632 80.8441455,52.3695392 80.8441455,52.3695392 L81.8199178,49.1350887 L84.6671457,49.1350887 L83.977933,51.3996448 Z M82.3908332,56.6782211 L79.5494838,56.6782211 L80.3731591,53.9485566 L83.2056911,53.9485566 L82.3908332,56.6782211 Z M89.233437,49.1350887 L93.3290365,49.1350887 L92.7404869,51.0410779 L88.5905154,51.0410779 L87.9674311,53.1248813 L91.5986567,53.1248813 L88.8491538,56.996376 C88.6566442,57.2807317 88.4839734,57.3813947 88.2921993,57.4614844 C88.0996897,57.5592084 87.8469297,57.6738323 87.5544916,57.6738323 L86.5471241,57.6738323 L85.8549719,59.9560232 L88.4898514,59.9560232 C89.8594599,59.9560232 90.6684399,59.3329394 91.2658069,58.515142 L93.1512228,55.9346355 L93.5560803,58.5548201 C93.6420479,59.0456448 93.9947369,59.3329394 94.2335366,59.4446243 C94.4973185,59.5768825 94.7699178,59.8039262 95.1549365,59.8377254 C95.5678759,59.8553597 95.866192,59.8693206 96.0645795,59.8693206 L97.3592417,59.8693206 L98.1366265,57.3152653 L97.6259625,57.3152653 C97.3327895,57.3152653 96.8280039,57.2660358 96.7420363,57.1741897 C96.6560681,57.0625049 96.6560681,56.8905691 96.6097776,56.6289916 L96.1990422,54.0029291 L94.5171568,54.0029291 L95.254865,53.1248813 L99.3967541,53.1248813 L100.033798,51.0410779 L96.1990422,51.0410779 L96.7964088,49.1350887 L100.619409,49.1350887 L101.32846,46.7845644 L89.9307326,46.7845644 L89.233437,49.1350887 Z M54.6418625,57.2089446 L55.5977961,54.0288671 L59.5266032,54.0288671 L60.2444716,51.6636474 L56.311991,51.6636474 L56.9122971,49.7062243 L60.7551356,49.7062243 L61.4671265,47.415951 L51.8519466,47.415951 L51.1546515,49.7062243 L53.3391179,49.7062243 L52.7564467,51.6636474 L50.5661018,51.6636474 L49.840151,54.0692792 L52.0238824,54.0692792 L50.749794,58.2765631 C50.5778582,58.8335176 50.8306187,59.0458655 50.9907981,59.3045039 C51.1546515,59.5565294 51.3207093,59.7233218 51.6939717,59.8181069 C52.0789903,59.904075 52.3427722,59.9555085 52.7013392,59.9555085 L57.1305234,59.9555085 L57.9196646,57.3353244 L55.956363,57.6049847 C55.5772228,57.6049847 54.5272386,57.5594292 54.6418625,57.2089446 Z M55.0924958,41.9854244 L54.0968847,43.7848724 C53.8838018,44.1779732 53.6920272,44.4219166 53.5193569,44.534336 C53.3672599,44.6291213 53.0660048,44.6687986 52.6295522,44.6687986 L52.1100708,44.6687986 L51.4157147,46.9708281 L53.1409511,46.9708281 C53.9705044,46.9708281 54.6075486,46.6666341 54.9117431,46.5145369 C55.2387149,46.3396621 55.3246825,46.4395906 55.577443,46.1956475 L56.1601147,45.6908615 L61.5474365,45.6908615 L62.2623664,43.294047 L58.3188639,43.294047 L59.0073421,41.9854244 L55.0924958,41.9854244 Z M63.0459232,57.2551614 C62.9540771,57.1229028 63.0202064,56.8899815 63.1605471,56.4050343 L64.633023,51.5313155 L69.8711872,51.5313155 C70.6346117,51.5202941 71.1856877,51.5114767 71.5442547,51.48576 C71.9292734,51.4453474 72.3480917,51.3079457 72.8043827,51.0610637 C73.2753695,50.8024252 73.5163732,50.5298259 73.7199042,50.2168145 C73.9469474,49.9045381 74.3113928,49.2212034 74.6244042,48.1675458 L76.4752859,41.9998993 L71.0394691,42.0314944 C71.0394691,42.0314944 69.3656667,42.2783765 68.628694,42.5509756 C67.8851083,42.8551698 66.8226329,43.7045622 66.8226329,43.7045622 L67.3134585,42.0138599 L63.9555662,42.0138599 L59.2545182,57.6049115 C59.0877258,58.21036 58.9760409,58.6497517 58.9501683,58.9135336 C58.9415068,59.1978892 59.3088911,59.4793054 59.5469563,59.6916534 C59.8283725,59.9040017 60.2442509,59.8694676 60.6432304,59.9040017 C61.0627833,59.9355969 61.6594154,59.9554352 62.4830903,59.9554352 L65.0635972,59.9554352 L65.8556774,57.2808782 L63.5455657,57.4991045 C63.2986837,57.4991045 63.1201349,57.3668459 63.0459232,57.2551614 Z M65.5830786,48.2395526 L71.0850247,48.2395526 L70.7352751,49.3358272 C70.6860456,49.361544 70.5684823,49.2814543 70.0085888,49.3475836 L65.2443504,49.3475836 L65.5830786,48.2395526 Z M66.6852312,44.5627717 L72.2334674,44.5627717 L71.8344883,45.8831504 C71.8344883,45.8831504 69.2194476,45.8574336 68.8006298,45.9345841 C66.95783,46.2534737 65.8813946,47.2380635 65.8813946,47.2380635 L66.6852312,44.5627717 Z M70.8584219,53.0069507 C70.8128664,53.1708041 70.7408591,53.2707326 70.6401961,53.3456788 C70.5285107,53.4176861 70.347758,53.4434029 70.0780981,53.4434029 L69.2940999,53.4434029 L69.3403905,52.1083291 L66.0794882,52.1083291 L65.94723,58.635277 C65.9420865,59.1062634 65.9876421,59.3788627 66.3322487,59.597089 C66.6768548,59.8696878 67.7385953,59.904222 69.1677197,59.904222 L71.211111,59.904222 L71.9488186,57.4611171 L70.1699438,57.5588412 L69.5784556,57.5933753 C69.4976309,57.5588412 69.4204802,57.527246 69.3345125,57.4412783 C69.2595658,57.3670666 69.133186,57.4126226 69.1537593,56.9416358 L69.1677197,55.2685683 L71.0332972,55.1914176 C72.0406647,55.1914176 72.471239,54.8637103 72.8386229,54.5514339 C73.1891074,54.2523834 73.3037313,53.9085118 73.4359899,53.4434029 L73.7490013,51.96211 L71.1853937,51.96211 L70.8584219,53.0069507 Z" id="Shape" fill="#FEFEFE" fill-rule="nonzero"></path>
            </g>
        </g>
    </g>
</svg>