<?xml version="1.0" encoding="UTF-8"?>
<svg width="122px" height="80px" viewBox="0 0 122 80" version="1.1" xmlns="http://www.w3.org/2000/svg" xmlns:xlink="http://www.w3.org/1999/xlink">
    <title>Artboard</title>
    <g id="Artboard" stroke="none" stroke-width="1" fill="none" fill-rule="evenodd">
        <g id="Payment-method-/-Dankort" transform="translate(0.000000, -21.000000)">
            <g id="dankort-casino" transform="translate(0.000000, 24.400000)">
                <path d="M36.4351036,0 C16.3727314,0 0,16.3727314 0,36.4351036 C0,56.4974759 16.3727314,72.8702072 36.4351036,72.8702072 L85.5532978,72.8702072 C105.61567,72.8702072 121.988401,56.4974759 121.988401,36.4351036 C121.988401,16.3727314 105.61567,0 85.5533592,0 L36.4351036,0 Z" id="XMLID_963_" fill="#FFFFFF" fill-rule="nonzero"></path>
                <path d="M94.3161871,34.1290704 L110.688919,53.4996388 C114.147938,48.6570121 115.992789,42.661338 115.992789,36.2044819 C115.992789,29.517004 113.686756,23.2907696 109.997115,18.2175211 L94.3161871,34.1290704 Z M47.9652082,16.8339135 C60.1871167,16.8339135 69.4111881,19.8317505 70.3336137,30.2088078 L83.0167042,16.8339135 L108.613507,16.8339135 C103.079076,10.3770573 94.7773692,6.22623441 85.5532978,6.22623441 L36.4351036,6.22623441 C27.2110322,6.22623441 18.9093249,10.3770573 13.3748944,16.8339135 L47.9652082,16.8339135 Z M27.902836,29.7476258 L23.5213913,41.7389738 L41.04717,41.7389738 C46.3510402,41.7389738 47.7346479,39.6635624 48.8876338,35.5127394 C50.0406197,31.3619165 47.0428441,29.7476258 43.5837636,29.7476258 L27.902836,29.7476258 Z M83.247326,55.3444899 L69.6418099,38.2799547 C67.1052163,50.0406811 58.8035091,55.3444899 43.5837636,55.3444899 L12.9137123,55.3444899 C18.4481429,62.2625282 26.9804105,66.8745946 36.6657254,66.8745946 L85.7839195,66.8745946 C95.4692344,66.8745946 104.001502,62.4931499 109.535933,55.3444899 L83.247326,55.3444899 L83.247326,55.3444899 Z" id="XMLID_965_" fill="#E21E27" fill-rule="nonzero"></path>
            </g>
        </g>
    </g>
</svg>