<?xml version="1.0" encoding="UTF-8"?>
<svg width="190px" height="80px" viewBox="0 0 190 80" version="1.1" xmlns="http://www.w3.org/2000/svg" xmlns:xlink="http://www.w3.org/1999/xlink">
    <title>Artboard</title>
    <g id="Artboard" stroke="none" stroke-width="1" fill="none" fill-rule="evenodd">
        <g id="Moneyou" transform="translate(0.000000, 25.000000)" fill="#D40D47" fill-rule="nonzero">
            <path d="M121.271889,0.552995392 C121.714286,0.552995392 121.990783,0.829493088 122.156682,1.16129032 L122.156682,1.16129032 L127.576037,13.2165899 L127.631336,13.2165899 L132.995392,1.16129032 C133.271889,0.608294931 133.603687,0.552995392 134.267281,0.552995392 L134.267281,0.552995392 L138.525346,0.552995392 C139.410138,0.552995392 139.852535,1.21658986 139.410138,1.93548387 L139.410138,1.93548387 L127.465438,28.4792627 C127.354839,28.8110599 127.023041,29.1428571 126.580645,29.1428571 L126.580645,29.1428571 L121.990783,29.1428571 C121.21659,29.1428571 120.718894,28.4792627 121.105991,27.7050691 L121.105991,27.7050691 L124.258065,20.40553 L115.576037,1.93548387 C115.24424,1.2718894 115.686636,0.552995392 116.460829,0.552995392 L116.460829,0.552995392 Z M152.682028,0 C158.875576,0 163.907834,5.03225806 163.907834,11.2258065 C163.907834,17.4193548 158.875576,22.4516129 152.682028,22.4516129 C146.488479,22.4516129 141.456221,17.4193548 141.456221,11.2258065 C141.456221,5.03225806 146.488479,0 152.682028,0 Z M103.797235,0 C110.211982,0 113.751152,5.0875576 113.751152,10.8940092 C113.751152,11.281106 113.695853,11.9447005 113.640553,12.3317972 C113.585253,12.8294931 113.142857,13.2165899 112.645161,13.2165899 L112.645161,13.2165899 L98.9861751,13.2165899 C99.1520737,15.3732719 100.700461,16.921659 103.797235,16.921659 C105.788018,16.921659 107.281106,16.5345622 108.552995,15.8709677 C109.050691,15.59447 109.714286,15.7050691 110.046083,16.202765 L110.046083,16.202765 L111.59447,18.4147465 C111.926267,18.9124424 111.870968,19.5760369 111.428571,19.9631336 C109.658986,21.4562212 107.225806,22.4516129 103.852535,22.4516129 C97.437788,22.4516129 92.9032258,17.3640553 92.9032258,11.2258065 C92.9032258,5.19815668 97.437788,0 103.797235,0 Z M51.2073733,0 C57.4009217,0 62.4331797,5.03225806 62.4331797,11.2258065 C62.4331797,17.4193548 57.4009217,22.4516129 51.2073733,22.4516129 C45.0138249,22.4516129 39.9815668,17.4193548 39.9815668,11.2258065 C39.9815668,5.03225806 45.0138249,0 51.2073733,0 Z M173.695853,0.552995392 C174.193548,0.552995392 174.691244,0.940092166 174.691244,1.5483871 L174.691244,1.5483871 L174.691244,12.0552995 C174.691244,14.875576 176.184332,16.6451613 178.617512,16.6451613 C180.829493,16.6451613 182.543779,14.5990783 182.875576,12.6635945 L182.875576,12.6635945 L182.875576,1.5483871 C182.875576,0.774193548 183.207373,0.552995392 184.036866,0.552995392 L184.036866,0.552995392 L188.073733,0.552995392 C188.571429,0.552995392 189.069124,0.940092166 189.179724,1.49308756 L189.179724,1.49308756 L189.179724,20.8479263 C189.179724,21.4009217 188.737327,21.843318 188.184332,21.843318 L188.184332,21.843318 L185.695853,21.843318 C185.253456,21.843318 184.976959,21.5668203 184.75576,21.235023 C184.75576,21.235023 184.313364,20.40553 183.926267,19.8525346 L183.926267,19.8525346 L183.808673,19.9573926 C182.681206,20.9528705 180.70936,22.3963134 177.345622,22.3963134 C170.709677,22.3963134 168.331797,17.3640553 168.331797,11.8894009 L168.331797,11.8894009 L168.331797,1.5483871 C168.331797,0.995391705 168.774194,0.552995392 169.327189,0.552995392 L169.327189,0.552995392 Z M79.0230415,1.77635684e-15 C85.8248848,1.77635684e-15 88.5345622,5.0875576 88.4239631,10.6175115 L88.4239631,10.6175115 L88.4239631,20.8479263 C88.4239631,21.3456221 87.9815668,21.843318 87.4285714,21.843318 L87.4285714,21.843318 L83.0599078,21.843318 C82.5069124,21.843318 82.0645161,21.4009217 82.0645161,20.8479263 L82.0645161,20.8479263 L82.0645161,10.2857143 C82.0645161,7.52073733 80.6267281,5.75115207 78.0829493,5.75115207 C75.3732719,5.75115207 73.6589862,7.57603687 73.1059908,9.01382488 L73.1059908,9.01382488 L73.1059908,20.9032258 C73.1059908,21.4009217 72.6635945,21.8986175 72.1105991,21.8986175 L72.1105991,21.8986175 L67.797235,21.8986175 C67.2995392,21.8986175 66.8018433,21.4562212 66.8018433,20.9032258 L66.8018433,20.9032258 L66.8018433,1.5483871 C66.8018433,0.995391705 67.2442396,0.552995392 67.797235,0.552995392 L67.797235,0.552995392 L70.2857143,0.552995392 C70.7281106,0.552995392 71.0046083,0.829493088 71.2258065,1.16129032 C71.2258065,1.16129032 71.6682028,1.99078341 72.0552995,2.5437788 L72.0552995,2.5437788 L72.0552995,2.59907834 C73.2165899,1.60368664 75.59447,1.77635684e-15 79.0230415,1.77635684e-15 Z M26.3225806,1.77635684e-15 C33.124424,1.77635684e-15 35.6682028,5.0875576 35.4470046,10.6728111 L35.4470046,10.6728111 L35.4470046,20.8479263 C35.4470046,21.3456221 35.0599078,21.843318 34.4516129,21.843318 L34.4516129,21.843318 L30.1382488,21.843318 C29.5852535,21.843318 29.1428571,21.4009217 29.1428571,20.8479263 L29.1428571,20.8479263 L29.1428571,10.2857143 C29.1428571,7.52073733 27.8156682,5.75115207 25.1612903,5.75115207 C22.0645161,5.75115207 20.6820276,8.01843318 20.6820276,8.01843318 C20.6820276,8.01843318 20.7373272,9.12442396 20.7373272,10.0645161 L20.7373272,10.0645161 L20.7373272,20.8479263 C20.7373272,21.3456221 20.2949309,21.843318 19.7419355,21.843318 L19.7419355,21.843318 L15.7603687,21.843318 C15.2073733,21.843318 14.764977,21.4009217 14.764977,20.8479263 L14.764977,20.8479263 L14.764977,10.2857143 C14.764977,7.52073733 13.4930876,5.75115207 10.7834101,5.75115207 C8.12903226,5.75115207 6.85714286,7.68663594 6.30414747,9.12442396 L6.30414747,9.12442396 L6.30414747,20.9032258 C6.30414747,21.4009217 5.86175115,21.8986175 5.30875576,21.8986175 L5.30875576,21.8986175 L0.995391705,21.8986175 C0.497695853,21.8986175 4.26325641e-14,21.4562212 4.26325641e-14,20.9032258 L4.26325641e-14,20.9032258 L4.26325641e-14,1.5483871 C4.26325641e-14,0.995391705 0.442396313,0.552995392 0.995391705,0.552995392 L0.995391705,0.552995392 L3.48387097,0.552995392 C3.92626728,0.552995392 4.20276498,0.829493088 4.42396313,1.16129032 C4.42396313,1.16129032 4.86635945,1.99078341 5.25345622,2.5437788 C6.47004608,1.49308756 8.68202765,1.77635684e-15 11.8341014,1.77635684e-15 C14.875576,1.77635684e-15 17.0322581,1.16129032 18.8018433,3.31797235 C19.6866359,2.37788018 22.4516129,1.77635684e-15 26.3225806,1.77635684e-15 Z M152.682028,5.97235023 C149.806452,5.97235023 147.428571,8.35023041 147.428571,11.2258065 C147.428571,14.1013825 149.806452,16.4792627 152.682028,16.4792627 C155.557604,16.4792627 157.935484,14.1013825 157.935484,11.2258065 C157.935484,8.35023041 155.557604,5.97235023 152.682028,5.97235023 Z M51.2073733,5.97235023 C48.3317972,5.97235023 45.9539171,8.35023041 45.9539171,11.2258065 C45.9539171,14.1013825 48.3317972,16.4792627 51.2073733,16.4792627 C54.1382488,16.4792627 56.4608295,14.1013825 56.4608295,11.2258065 C56.4608295,8.35023041 54.0829493,5.97235023 51.2073733,5.97235023 Z M103.576037,4.92165899 C101.474654,4.92165899 99.7050691,6.52534562 99.4285714,8.57142857 L99.4285714,8.57142857 L107.502304,8.57142857 C107.336406,6.58064516 105.62212,4.92165899 103.576037,4.92165899 Z" id="Combined-Shape"></path>
        </g>
    </g>
</svg>