<svg xmlns="http://www.w3.org/2000/svg" width="640" height="360"><g fill="none" fill-rule="evenodd"><path fill="#C11E47" d="M180.554 230.573v-81.987c0-10.193-8.294-18.532-18.435-18.532H99.012c-10.138 0-18.435 8.34-18.435 18.532v63.452c0 10.196 8.297 18.535 18.435 18.535h81.542Z"/><path fill="#FFFFFE" d="M103.534 166.274c0-3.47 2.483-7.144 7.114-7.144h39.831c4.62 0 7.112 3.674 7.112 7.144 0 3.474-2.492 7.156-7.112 7.156h-39.83c-4.632 0-7.115-3.682-7.115-7.156m0 28.067c0-3.477 2.483-7.156 7.114-7.156h39.831c4.62 0 7.112 3.68 7.112 7.156 0 3.464-2.492 7.144-7.112 7.144h-39.83c-4.632 0-7.115-3.68-7.115-7.144"/><path fill="#3E535D" d="M240.789 230.553h-24.862c-3.76 0-6.937-3.193-6.937-6.974v-86.53c0-3.781 3.176-6.975 6.937-6.975h24.862c15.225 0 27.617 12.403 27.617 27.644a27.766 27.766 0 0 1-9.02 20.515c6.791 5.591 10.811 14.014 10.811 22.753 0 16.304-13.192 29.567-29.408 29.567zm-17.928-13.946h17.928c8.567 0 15.537-6.956 15.537-15.501 0-8.613-6.97-15.622-15.537-15.622h-17.928v31.123zm0-45.072h17.928c7.512 0 13.623-6.197 13.623-13.817v-1.703c-.892-6.76-6.661-11.992-13.623-11.992h-17.928v27.512zm83.252 60.22c-15.097 0-27.855-12.274-27.855-26.804v-22.233c0-14.783 11.96-26.805 26.66-26.805 14.703 0 26.663 12.022 26.663 26.805v8.413c0 3.78-3.177 6.974-6.937 6.974h-32.512v6.846c0 6.729 6.665 12.855 13.981 12.855 4.556 0 8.105-1.377 10.854-4.214 1.418-2.041 3.326-3.117 5.524-3.117 3.755 0 7.176 3.323 7.176 6.974 0 1.414-.437 2.7-1.37 4.04.006 0-.529.916-1.66 2.053-4.84 5.21-12.327 8.213-20.524 8.213zm-13.98-47.599h25.574v-1.438c0-7.209-5.617-12.855-12.79-12.855-7.169 0-12.785 5.646-12.785 12.855v1.438zm57.079 46.397c-3.446 0-6.937-2.394-6.937-6.974v-86.53c0-4.58 3.491-6.975 6.937-6.975 3.445 0 6.934 2.395 6.934 6.975v86.53c0 4.58-3.489 6.974-6.934 6.974m33.906 0c-3.448 0-6.937-2.394-6.937-6.974v-52.515h-5.264c-4.556 0-6.937-3.51-6.937-6.974 0-3.468 2.381-6.975 6.937-6.975h5.264v-7.93c0-11.58 9.252-20.313 21.52-20.313 10.653 0 15.422 5.072 15.422 10.098 0 3.772-2.568 6.615-5.98 6.615-1.461 0-2.804-.403-4.1-1.233-.764-.445-2.88-1.53-5.341-1.53-5.644 0-7.65 3.427-7.65 6.362v7.931h14.58c4.556 0 6.941 3.507 6.941 6.975 0 3.464-2.385 6.974-6.94 6.974h-14.58v52.515c0 4.58-3.489 6.974-6.935 6.974m44.11 0c-3.446 0-6.935-2.394-6.935-6.974v-59.49c0-4.58 3.489-6.974 6.934-6.974 3.45 0 6.937 2.395 6.937 6.975v59.489c0 4.58-3.488 6.974-6.937 6.974m0-81.525c-3.445 0-6.934-2.398-6.934-6.975v-5.004c0-4.58 3.489-6.975 6.934-6.975 3.45 0 6.937 2.395 6.937 6.975v5.004c0 4.577-3.488 6.975-6.937 6.975m46.242 82.727c-14.7 0-26.656-12.025-26.656-26.804V164.09c0-4.58 3.488-6.975 6.934-6.975 3.448 0 6.937 2.395 6.937 6.975v40.861c0 7.208 5.62 12.855 12.785 12.855 7.17 0 12.79-5.647 12.79-12.855V164.09c0-4.58 3.485-6.975 6.933-6.975 3.446 0 6.937 2.395 6.937 6.975v40.861c0 14.78-11.96 26.804-26.66 26.804m58.178 0c-7.25 0-16.788-3.326-21.004-9.682-.896-1.288-1.355-2.687-1.355-4.141 0-3.652 3.422-6.975 7.173-6.975 2.122 0 4.152 1.107 5.558 3.037l.223.332c2.043 2.214 5.464 3.48 9.405 3.48 7.686 0 11.706-4.23 11.706-8.407 0-5.868-6.136-8.275-13.241-11.063-9.068-3.557-20.347-7.983-20.347-21.868 0-13.494 11.429-20.555 22.716-20.555 8.188 0 16.825 4.531 21.007 11.014.734 1.11 1.11 2.422 1.11 3.891 0 3.781-3.287 6.975-7.176 6.975-2.317 0-4.289-1.162-5.558-3.277-2.855-3.218-5.75-4.653-9.383-4.653-5.368 0-8.841 2.59-8.841 6.605 0 4.47 5.518 6.655 11.905 9.185 9.66 3.824 21.685 8.585 21.685 23.746 0 14.521-13.183 22.356-25.583 22.356"/></g></svg>