<svg xmlns="http://www.w3.org/2000/svg" width="51" height="32"><g fill="none" fill-rule="evenodd"><path fill="#FFF" stroke="#D0D0D0" d="M.5.5h50v31H.5z"/><path fill="#C11E47" d="M38 28V8.425A4.438 4.438 0 0 0 33.574 4H18.426A4.438 4.438 0 0 0 14 8.425v15.15A4.439 4.439 0 0 0 18.426 28H38Z"/><path fill="#FFFFFE" d="M19.25 13.248c0-.97.597-1.998 1.71-1.998h9.58c1.11 0 1.71 1.028 1.71 1.998 0 .972-.6 2.002-1.71 2.002h-9.58c-1.113 0-1.71-1.03-1.71-2.002m0 6.004c0-.973.597-2.002 1.71-2.002h9.58c1.11 0 1.71 1.03 1.71 2.002 0 .969-.6 1.998-1.71 1.998h-9.58c-1.113 0-1.71-1.03-1.71-1.998"/></g></svg>