<svg xmlns="http://www.w3.org/2000/svg" width="51" height="32"><path fill="#fff" stroke="#d0d0d0" stroke-linecap="round" stroke-linejoin="round" d="M.5.5h50v31H.5Z"/><path fill="#fff" d="M36.239 10.434h-21.2a1.4 1.4 0 0 0-1.4 1.399v8.558a1.4 1.4 0 0 0 1.4 1.399h21.2a1.4 1.4 0 0 0 1.4-1.399v-8.558a1.4 1.4 0 0 0-1.4-1.399"/><defs><linearGradient id="a" x1="5.111" x2="5.111" y1="1.983" y2="1.808" gradientUnits="userSpaceOnUse"><stop offset="0" stop-color="#5a5a5a"/><stop offset=".146" stop-color="#484848"/><stop offset=".52" stop-color="#212121"/><stop offset=".817" stop-color="#080808"/><stop offset="1"/></linearGradient></defs><path fill="url(#a)" d="M36.239 10.58h-21.2c-.692 0-1.253.561-1.254 1.253v8.558c.001.332.133.651.368.886s.554.367.886.366h21.2a1.25 1.25 0 0 0 1.253-1.252v-8.558c0-.692-.561-1.253-1.253-1.253"/><path fill="#fff" d="M32.444 20.17h1.806l-2.169-2.802 1.967-2.408H32.41l-1.932 2.423v-5.166h-1.402v7.953h1.402l-.001-2.78ZM26.431 14.96h1.402v5.21h-1.402ZM23.785 12.216h1.402v7.954h-1.402ZM20.14 14.908a2.64 2.64 0 0 0-1.258.316v-3.008H17.48v5.351a2.658 2.658 0 1 0 2.659-2.659Zm0 3.939a1.28 1.28 0 1 1 0-2.56 1.28 1.28 0 0 1 0 2.56"/><defs><linearGradient id="b" x1="20.309" x2="20.435" y1="14.288" y2="14.163" gradientUnits="userSpaceOnUse"><stop offset="0" stop-color="#e52f08"/><stop offset="1" stop-color="#e94f96"/></linearGradient></defs><path fill="url(#b)" d="M21.553 11.813a1.255 1.255 0 1 1-.018 2.51 1.255 1.255 0 0 1 .018-2.51"/></svg>