<svg width="640" height="360" xmlns="http://www.w3.org/2000/svg"><path d="M545.741 59H93.491c-16.483.01-29.848 13.363-29.873 29.847v182.572c.027 16.482 13.39 29.832 29.873 29.843h452.25c16.483-.011 29.848-13.36 29.877-29.843V88.847c-.026-16.484-13.392-29.836-29.876-29.847Z" fill="#fff"/><defs><linearGradient id="a" gradientUnits="userSpaceOnUse" x1="-118.305" y1="-121.277" x2="-118.305" y2="-125.01"><stop offset="0" stop-color="#5a5a5a"/><stop offset=".146" stop-color="#484848"/><stop offset=".52" stop-color="#212121"/><stop offset=".817" stop-color="#080808"/><stop offset="1"/></linearGradient></defs><path d="M545.741 62.122H93.491c-14.766-.009-26.743 11.955-26.751 26.721v182.576a26.732 26.732 0 0 0 26.749 26.717h452.252a26.734 26.734 0 0 0 26.748-26.717V88.843c-.007-14.763-11.981-26.726-26.746-26.721Z" fill="url(#a)"/><path d="M464.8 266.712h38.525l-46.286-59.78 41.971-51.367h-34.942l-41.217 51.687V97.03h-29.914v169.682h29.914l-.022-59.316ZM336.508 155.557h29.907v111.147h-29.907ZM280.061 97.008h29.907v169.696h-29.907ZM202.305 154.448a56.491 56.491 0 0 0-26.83 6.734V97.011h-29.911v114.156c0 22.962 13.823 43.65 35.024 52.431 21.201 8.781 45.604 3.926 61.83-12.302 16.225-16.227 21.077-40.631 12.293-61.831-8.784-21.199-29.473-35.02-52.421-35.017Zm0 84.025c-15.078 0-27.301-12.223-27.302-27.301-.001-15.079 12.222-27.303 27.3-27.304 15.078-.001 27.303 12.22 27.305 27.299a27.293 27.293 0 0 1-27.304 27.306Z" fill="#fff"/><defs><linearGradient id="b" gradientUnits="userSpaceOnUse" x1="205.903" y1="141.213" x2="208.592" y2="138.562"><stop offset="0" stop-color="#e52f08"/><stop offset="1" stop-color="#e94f96"/></linearGradient></defs><path d="M232.45 88.429c14.776.096 26.677 12.152 26.581 26.928-.096 14.777-12.152 26.677-26.928 26.581-14.777-.096-26.677-12.152-26.581-26.928.096-14.776 12.152-26.677 26.928-26.581Z" fill="url(#b)"/></svg>