<svg xmlns="http://www.w3.org/2000/svg" width="240" height="80"><defs><linearGradient id="a" x1="75.555%" x2="40.992%" y1="90.012%" y2="35.896%"><stop offset="0%" stop-color="#F89F20"/><stop offset="25.02%" stop-color="#F79A20"/><stop offset="53.31%" stop-color="#F68D20"/><stop offset="61.96%" stop-color="#F58720"/><stop offset="72.32%" stop-color="#F48120"/><stop offset="100%" stop-color="#F37521"/></linearGradient><linearGradient id="b" x1="70.098%" x2="19.584%" y1="89.284%" y2="-9.451%"><stop offset="0%" stop-color="#F58720"/><stop offset="35.87%" stop-color="#E16F27"/><stop offset="70.3%" stop-color="#D4602C"/><stop offset="98.16%" stop-color="#D05B2E"/></linearGradient></defs><g fill="none" fill-rule="nonzero" transform="translate(0 20)"><path fill="#231F20" d="M11.172 1.241H.345v37.931h10.827c5.725 0 9.862-1.379 13.518-4.344 4.344-3.587 6.896-8.966 6.896-14.552C31.517 9.034 23.172 1.24 11.172 1.24m8.69 28.552c-2.345 2.07-5.31 3.035-10.138 3.035h-2V7.724h2c4.759 0 7.655.828 10.138 3.035 2.552 2.275 4.069 5.793 4.069 9.448s-1.517 7.31-4.069 9.586M34.966 1.241h7.379v37.931h-7.379zM60.414 15.793C56 14.138 54.69 13.034 54.69 11.034c0-2.413 2.344-4.206 5.517-4.206 2.207 0 4.069.896 5.93 3.103L70 4.897C66.828 2.137 63.034.69 58.828.69c-6.69 0-11.862 4.69-11.862 10.896 0 5.242 2.413 7.931 9.31 10.414 2.896 1.034 4.345 1.724 5.103 2.138 1.449.965 2.207 2.345 2.207 3.931 0 3.103-2.414 5.38-5.724 5.38-3.517 0-6.345-1.794-8.069-5.035l-4.759 4.62c3.38 5.035 7.518 7.242 13.104 7.242 7.655 0 13.103-5.104 13.103-12.483.138-6.138-2.413-8.896-10.827-12M73.655 20.276c0 11.172 8.759 19.793 20 19.793 3.173 0 5.931-.62 9.242-2.207v-8.69C99.93 32.138 97.31 33.31 94 33.31c-7.448 0-12.759-5.379-12.759-13.103 0-7.31 5.449-13.035 12.414-13.035 3.517 0 6.207 1.242 9.242 4.276v-8.69C99.655 1.104 96.966.415 93.793.415 82.69.414 73.655 9.24 73.655 20.276M161.655 26.759 151.517 1.24h-8.069l16.07 38.897h4L179.861 1.24h-8zM183.241 39.172h20.966V32.76H190.62V22.552h13.103v-6.414h-13.103V7.724h13.586V1.241H183.24zM233.517 12.483c0-7.104-4.896-11.173-13.448-11.173h-10.966v37.931h7.38V24h.965l10.207 15.241h9.104l-11.931-16c5.586-1.172 8.69-4.965 8.69-10.758m-14.896 6.276h-2.138V7.24h2.276c4.62 0 7.103 1.931 7.103 5.656 0 3.793-2.483 5.862-7.241 5.862"/><circle cx="125.586" cy="20.345" r="20.207" fill="url(#a)"/><circle cx="125.586" cy="20.345" r="20.207" fill="url(#b)" opacity=".65"/><g fill="#231F20"><path d="M238.207 2.69c0-.69-.483-1.035-1.241-1.035h-1.104v3.31h.828v-1.31l.965 1.31h.966l-1.104-1.379c.414-.069.69-.414.69-.896m-1.38.482h-.137v-.896h.138q.62 0 .62.414c0 .344-.207.482-.62.482"/><path d="M237.103.414a2.914 2.914 0 0 0-2.896 2.896 2.914 2.914 0 0 0 2.896 2.897A2.914 2.914 0 0 0 240 3.31a2.914 2.914 0 0 0-2.897-2.896m0 5.31c-1.24 0-2.344-1.034-2.344-2.414 0-1.31 1.034-2.413 2.344-2.413 1.242 0 2.276 1.103 2.276 2.413s-1.034 2.414-2.276 2.414"/></g></g></svg>