<svg xmlns="http://www.w3.org/2000/svg" width="640" height="360"><path fill="#ea1d25" d="M143.476 176.889c-.201-3.023-1.007-6.046-2.62-8.665l-13.702-23.98c-1.008-1.814-1.814-3.829-2.217-5.844l-.605 1.008c-3.425 5.843-3.425 13.299 0 19.143l11.084 19.144c3.425 5.844 3.425 13.299 0 19.143l-.605 1.008c-.403-2.015-1.209-4.03-2.217-5.844l-10.075-17.531-6.448-11.285c-1.008-1.814-1.814-3.829-2.217-5.844l-.605 1.008c-3.425 5.843-3.425 13.098 0 19.143l11.083 19.144c3.426 5.844 3.426 13.3 0 19.143l-.604 1.008c-.403-2.015-1.209-4.03-2.217-5.844l-13.904-23.98c-1.814-3.224-2.62-6.851-2.62-10.478C90.277 180.314 80 188.576 80 198.047c0 13.3 19.748 23.98 44.131 23.98s44.131-10.68 44.131-23.98c.201-9.068-9.874-17.33-24.786-21.158m41.713 40.906c.201-3.425.604-5.642 1.612-8.463 4.635 2.217 10.68 3.224 15.113 3.224 7.658 0 12.091-2.418 12.091-7.456 0-4.836-3.224-7.053-10.882-10.478l-4.231-1.612c-7.859-3.426-13.099-7.859-13.099-16.524 0-9.471 6.65-15.517 19.95-15.517q8.162 0 15.113 2.418a31.6 31.6 0 0 1-1.612 8.262c-4.433-1.612-9.874-2.418-13.702-2.418-7.255 0-10.479 2.821-10.479 7.255 0 4.231 3.224 6.851 9.068 9.269l4.433 1.814c10.479 4.433 14.912 9.269 14.912 17.33 0 9.471-7.254 16.121-21.36 16.121-6.65 0-12.292-1.008-16.927-3.225m82.821-39.697v41.511h-8.463l-.403-5.038c-2.419 3.627-5.844 6.046-11.688 6.046-10.882 0-18.338-8.061-18.338-21.965 0-14.509 7.859-22.972 23.174-22.972 6.046.201 11.083.806 15.718 2.418m-9.068 32.04v-25.995c-1.814-.403-4.03-.403-6.65-.403-9.471 0-13.904 5.844-13.904 15.113 0 8.464 3.426 14.509 11.486 14.509 3.829-.201 6.65-1.41 9.068-3.224m55.819-18.338v27.809h-9.068v-26.196c0-6.65-2.217-9.673-11.285-9.673q-3.325 0-7.254.605v35.264h-9.068v-41.511c5.843-1.411 12.292-2.418 16.524-2.418 15.314.201 20.151 6.045 20.151 16.12m25.39 21.159c2.62 0 5.239-.403 7.053-1.209-.201 2.418-.604 5.239-1.007 7.658-2.419 1.007-5.24 1.41-7.658 1.41-8.866 0-14.509-4.03-14.509-14.106v-43.728c2.821-1.007 6.247-1.41 9.068-1.41v15.718h14.509c-.201 2.821-.403 5.44-.806 7.859h-13.703v20.352c0 5.24 2.62 7.456 7.053 7.456m48.967-34.861v41.511h-8.463l-.403-5.038c-2.418 3.627-5.844 6.046-11.688 6.046-10.881 0-18.337-8.061-18.337-21.965 0-14.509 7.859-22.972 23.174-22.972 6.045.201 10.881.806 15.717 2.418m-9.269 32.04v-25.995c-1.814-.403-4.03-.403-6.65-.403-9.471 0-13.904 5.844-13.904 15.113 0 8.464 3.425 14.509 11.486 14.509 3.829-.201 6.851-1.41 9.068-3.224m56.02-18.338v27.809h-9.27v-26.196c0-6.65-2.216-9.673-11.284-9.673q-3.325 0-7.255.605v35.264h-9.068v-41.511c5.844-1.411 12.293-2.418 16.524-2.418 15.315.201 20.353 6.045 20.353 16.12m46.146-30.226v58.035h-8.463l-.403-5.239c-2.419 3.828-5.844 6.247-11.89 6.247-10.881 0-18.337-8.061-18.337-21.965 0-14.509 7.859-22.972 23.174-22.972 2.418 0 4.634.201 6.851.604v-13.703c2.821-.806 6.045-1.007 9.068-1.007m-9.068 48.564v-25.592c-2.418-.403-4.836-.806-7.254-.806-9.068 0-13.3 5.642-13.3 15.113 0 8.464 3.426 14.509 11.486 14.509 3.627-.201 6.65-1.41 9.068-3.224m55.013-8.262h-29.219c1.209 7.456 5.44 10.882 13.702 10.882 5.038 0 10.076-1.008 14.509-3.225-.403 2.419-.806 5.643-1.41 8.262-4.232 1.814-8.464 2.62-13.502 2.62-15.315 0-22.569-8.463-22.569-22.569 0-12.292 5.642-22.166 20.151-22.166 13.098 0 18.741 8.463 18.741 18.942 0 2.821 0 4.836-.403 7.254m-29.219-7.657h20.554c0-6.852-3.628-10.882-9.874-10.882-6.65.202-10.076 3.829-10.68 10.882M560 176.284c0 2.821-.403 6.045-.806 7.859-2.217-.201-4.232-.403-6.851-.403-2.217 0-4.434.202-6.65.403v35.466h-9.068v-41.511c3.828-1.411 10.478-2.418 15.516-2.418 2.62.201 5.844.201 7.859.604"/></svg>