<svg width="51" height="32" xmlns="http://www.w3.org/2000/svg"><path d="M.5.5h50v31H.5Z" fill="#fff" stroke="#d0d0d0" stroke-linejoin="round"/><path d="M11.821 15.887a1.412 1.412 0 0 0-.196-.65l-1.028-1.799a1.552 1.552 0 0 1-.166-.438l-.045.076a1.432 1.432 0 0 0 0 1.435l.831 1.436c.257.438.257.998 0 1.436l-.045.075a1.554 1.554 0 0 0-.167-.438l-.755-1.315-.484-.846a1.522 1.522 0 0 1-.166-.438l-.046.075a1.434 1.434 0 0 0 0 1.436l.832 1.436c.257.438.257.997 0 1.436l-.046.075a1.522 1.522 0 0 0-.166-.438l-1.043-1.799a1.595 1.595 0 0 1-.196-.786c-1.104.288-1.874.907-1.874 1.618 0 .997 1.481 1.798 3.31 1.798 1.828 0 3.309-.801 3.309-1.798.015-.681-.74-1.3-1.859-1.587Zm3.129 3.068c.015-.257.045-.424.121-.635.347.166.801.242 1.133.242.575 0 .907-.182.907-.559 0-.363-.242-.529-.816-.786l-.317-.121c-.59-.257-.983-.59-.983-1.24 0-.71.499-1.163 1.496-1.163.409 0 .786.06 1.134.181a2.392 2.392 0 0 1-.121.62 3.278 3.278 0 0 0-1.028-.182c-.544 0-.786.212-.786.544 0 .318.242.514.681.696l.332.136c.786.332 1.118.695 1.118 1.299 0 .711-.544 1.209-1.602 1.209-.498 0-.922-.075-1.269-.241Zm6.211-2.978v3.114h-.634l-.031-.378c-.181.272-.438.453-.876.453-.816 0-1.375-.604-1.375-1.647 0-1.088.589-1.723 1.738-1.723.453.015.831.06 1.178.181Zm-.68 2.403v-1.949c-.136-.03-.302-.03-.498-.03-.711 0-1.043.438-1.043 1.133 0 .635.257 1.088.861 1.088.287-.015.499-.106.68-.242Zm4.187-1.375v2.086h-.68v-1.965c0-.499-.167-.725-.847-.725a3.63 3.63 0 0 0-.544.045v2.645h-.68v-3.114c.438-.105.922-.181 1.239-.181 1.149.015 1.512.453 1.512 1.209Zm1.904 1.587c.197 0 .393-.03.529-.091a7.072 7.072 0 0 1-.076.575 1.548 1.548 0 0 1-.574.105c-.665 0-1.088-.302-1.088-1.058v-3.279c.212-.076.468-.106.68-.106v1.179h1.088a6.5 6.5 0 0 1-.06.589h-1.028v1.527c0 .393.197.559.529.559Zm3.673-2.615v3.114h-.635l-.03-.378c-.182.272-.439.453-.877.453-.816 0-1.375-.604-1.375-1.647 0-1.088.589-1.723 1.738-1.723.453.015.816.06 1.179.181Zm-.696 2.403v-1.949c-.136-.03-.302-.03-.498-.03-.711 0-1.043.438-1.043 1.133 0 .635.257 1.088.861 1.088.287-.015.514-.106.68-.242Zm4.202-1.375v2.086h-.695v-1.965c0-.499-.167-.725-.847-.725a3.63 3.63 0 0 0-.544.045v2.645h-.68v-3.114c.438-.105.922-.181 1.239-.181 1.149.015 1.527.453 1.527 1.209Zm3.461-2.267v4.353h-.635l-.03-.393c-.182.287-.438.468-.892.468-.816 0-1.375-.604-1.375-1.647 0-1.088.589-1.723 1.738-1.723.181 0 .347.015.514.045v-1.027c.211-.061.453-.076.68-.076Zm-.68 3.642v-1.919c-.182-.03-.363-.06-.544-.06-.68 0-.998.423-.998 1.133 0 .635.257 1.088.862 1.088a1.23 1.23 0 0 0 .68-.242Zm4.126-.619h-2.192c.091.559.408.816 1.028.816a2.44 2.44 0 0 0 1.088-.242c-.03.181-.06.423-.106.62a2.466 2.466 0 0 1-1.012.196c-1.149 0-1.693-.635-1.693-1.693 0-.921.423-1.662 1.511-1.662.983 0 1.406.635 1.406 1.421 0 .211 0 .362-.03.544Zm-2.192-.575h1.542c0-.513-.272-.816-.741-.816-.498.015-.755.287-.801.816Zm4.595-1.345c0 .212-.031.454-.061.59-.166-.015-.317-.03-.514-.03-.166 0-.332.015-.498.03v2.66h-.68v-3.114c.287-.105.785-.181 1.163-.181.197.015.439.015.59.045Z" fill="#ea1d25"/></svg>