<svg xmlns="http://www.w3.org/2000/svg" xmlns:xlink="http://www.w3.org/1999/xlink" width="480" height="270"><defs><path id="a" d="M0 0h480v270H0z"/></defs><g fill="none" fill-rule="evenodd"><mask id="b" fill="#fff"><use xlink:href="#a"/></mask><use xlink:href="#a" fill="#FF6200"/><path fill="#FFF" d="M221.14 238c-4.267 0-3.053 6.603-4.267 9.603-.611.598-1.242 1.794-.611 2.397h9.126s.612-5.397.612-6.593c-.612-1.206-2.446-4.21-4.86-5.407m11.082-51.286c-3.126-2.474-8.134-4.955-15.645-7.439-1.877-.619-6.257 0-8.14 0-5.017 8.677-6.875 16.745-10.635 26.045-.64 1.87-1.888 5.593-1.888 5.593-3.111-1.856-6.257-3.094-9.397-3.094-5.018 0-8.769 1.856-10.637 6.816-1.863-.619-4.37-1.857-7.5-1.248-4.37.63-8.144 3.114-10.027 6.831-1.868 2.475-2.497 4.96-1.868 7.445-3.121 1.242-5.028 4.345-6.267 6.82-1.243 4.96 3.146 13.656 5.019 15.517h6.257c-1.258-5.583-3.76-8.068-1.883-13.651 1.263-3.104 5.633-4.34 6.891-4.969 0-2.475-3.14-4.336-2.492-6.83 1.234-3.085 4.99-3.085 8.75-2.476-.63 3.733-1.25 8.687-1.878 13.646-.63 5.593 2.506 14.28 2.506 14.28h6.882c-.63-1.861-1.254-3.727-1.254-5.583-.61-1.866-.61-3.104-.61-4.974.61-2.475.61-4.96.61-6.807 6.262-3.112 4.38 1.228 5.623 2.465 0 0 2.526-5.577-.614-8.057-.63-.62-4.385 0-4.385-.62 0-.617.63-2.484 1.249-4.35 1.268-2.484 1.887-3.093 3.136-4.96.614-.613 2.492-.613 5.013 0 .62 0 3.765.62 5.628 1.238-.63 1.866-3.131 5.588-3.74 7.455-2.503 7.438-2.503 16.125-1.888 24.193h6.876c0-4.356-.62-9.315 0-13.651 1.249-5.588 3.117-6.207 3.77-6.207 1.23 0 2.487 1.238 3.136 2.494 1.234 6.188-2.517 11.78-2.517 17.364h5.009s1.887-.624 2.507-2.48c1.243-3.732 3.75-7.463 4.389-11.171.61-3.104-.64-5.588-2.526-9.305-1.863-2.495-3.741-4.35-8.12-7.454-1.259-2.475 0-5.574 0-5.574 0 .619 2.492-.629 3.75-.629 5.008 1.248 6.257 1.248 8.759 2.486 1.877.628 4.374 1.86 6.257 3.108 1.877 1.237 3.76 4.96 5.637 9.3 0 0 1.249-8.063 1.249-10.547-2.488-2.47-5.009-4.956-8.769-6.82-3.145-2.486-10.007-4.342-13.133-5.594 0 0 1.248-1.857 1.248-3.094 3.76-.628 8.14-.628 10.017 0 6.267 1.867 13.768 5.593 16.908 8.068 0 0 1.239-2.475 1.239-3.722 0 0-8.759-5.583-8.14-7.449-2.496-1.856-4.379-3.722-6.876-4.346-3.76-.608-11.27-1.227-11.27-1.227s1.882-2.476 3.77-4.35h5.008c2.492 0 8.75 1.874 12.5 3.73 5.647 2.47 8.759 4.337 9.397 5.574.61-1.865 1.249-4.335 1.887-5.573-6.896-2.485-6.276-4.98-8.778-6.217m-13.488-16.327c.626-1.865 0-3.11.626-4.985 0-1.243 0-4.358.64-6.224-1.266-.632-3.817.622-5.69.622-1.896 0-6.31 0-6.31.622.626 1.254.626 2.493 1.251 3.737.63 1.243 1.257 2.487 1.257 5.617 0 1.865.645 3.74 0 6.224 0 0 8.226-4.359 8.226-5.613m-8.815-13.744c1.214-1.778 4.84-5.32 6.081-6.507-1.241-1.18-1.825-2.957-2.436-4.136-2.431 0-11.564 3.537-11.564 3.537 1.83 2.961 3.052 5.927 4.265 9.463 1.223-.59 2.432-1.179 3.654-2.357m24.55 2.06h-3.796s-1.26 4.829-1.26 8.456c-.626 1.818-1.276 3.025-1.276 3.627-1.26 2.417-1.886 3.02-3.137 6.045 1.876.603 3.787-.603 5.038-.603 1.26-.603 3.156-1.216 3.806-1.81.625-.611 2.521-4.847 3.156-6.043v-4.23c-.635-1.216 0-3.633 0-5.442-.635-1.215-1.905-.612-2.53 0M267 203c-.582-.6-.582-1.807-1.187-2.996-1.164-3.615-.573-5.418-1.164-9.004h-4.707c-1.182.59-1.773 0-2.942.59 0 2.406.587 4.2 2.351 7.206C261.106 202.401 267 203 267 203m-63.974-57s1.99-1.188 1.99-2.403c3.32-3.595 7.305-6.605 7.984-7.184-1.347-3.02-2.005-3.618-4.005-5.413-.658.598-3.98 2.393-4.658 3.6-1.311.598-2.648 1.196-3.337 1.813 0 1.197.689 1.785 1.337 2.991 0 1.197.689 4.193.689 6.596m48.715 21.562c0-.562-1.861-.562-3.084-.562-1.245 0-2.457.562-3.717.562-1.232 1.671-1.843 3.333-2.458 5.556-.611 1.667-1.852 2.774-2.482 3.882 0 0 5.57-1.108 6.8-1.108 1.857-1.107 3.08-1.67 4.32-3.89.621-1.67 1.246-2.215.621-4.44m79.726 48.512c-1.247-.614-13.194-6.062-15.078-6.062-3.773.604-10.043.604-13.835 2.426-.612-1.822-1.234-4.853 0-6.67.621-1.218 6.92-1.218 8.799-1.218 6.92.613 10.684 1.812 12.568 1.812 1.889 1.827 3.783 1.827 4.405 1.827 0 0-.622-3.64-1.263-4.848-2.5-1.208-5.026-1.813-6.915-2.417-3.137-1.218-4.386-1.832-9.411-2.427-1.875 0-1.875.595-5.649.595 0-.595.622-1.209 1.258-1.813 1.233-1.808 2.516-3.017 3.768-4.235h10.034c2.53.604 3.773 1.218 6.915 2.427 1.874 0 0-3.021 0-4.853-.622-.614-1.253-1.219-2.5-1.823-2.526-.604-4.415-1.209-6.931-2.426-1.87-.595-5.629-1.809-8.77-1.205-3.152 1.205-3.152.61-5.687 1.818-3.122 4.25-5.006 9.083-6.886 13.942 0 1.209-3.147 8.474-3.147 9.692 0 .605-.612 1.822-.612 1.822-2.53-.613-13.835-2.426-16.968.595-1.243 1.209-2.515 2.427-4.414 6.057-2.505-1.808-4.395-2.422-6.9-2.422-3.153 0-6.907 1.819-8.79 4.84 0 .623-5.027 9.702-4.405 18.18.632 4.86 2.52 6.672 5.026 10.312h6.925c-.631-2.422-1.909-5.453-3.151-9.098-.632-3.026.63-8.474 1.242-13.322 0 0 1.909-1.21 3.774-1.823 1.272-1.209 1.884-.614 3.774-.614.64 0 .64.614.64.614-2.53 2.426-2.53 4.848-3.142 8.484 0 1.813 2.502 10.91 5.007 15.759h5.045s-1.262-12.124-.631-13.332c0-2.427.631-4.24 1.254-6.063 1.257.605 2.5.605 3.763 1.209 1.88 1.227 1.88 2.427 1.88 4.24 0 3.03 0 3.635-.613 5.462v3.031c0 3.031.612 5.453.612 5.453h5.046c0-5.453.602-4.849 1.243-7.88.632-2.431 0-3.63.632-5.452 0-1.219.62-2.427 1.272-3.032 1.879-1.208 3.132-1.208 5.638-.595 0 1.804 0 3.627-.613 5.449-.65 3.026-1.271 6.057-2.534 9.088 0 .605-.612 1.813-1.253 2.422h7.542s1.243-2.422 1.89-5.453c1.854 1.813 4.39.604 5.637.604 1.904-.604 3.156-2.426 4.395-3.635-2.491-1.827-8.178-1.228-8.178-3.64-1.233-4.24 0-4.835 0-7.27 0-3.631-3.744-4.85-7.499-5.463-1.271-.595-3.787-.595-5.025-.595-1.272.595-2.545 2.427-3.769 2.427 0 0-2.53-1.832-4.424-2.427-1.247 0-5.026-1.217-5.026-1.217.641-1.2 1.263-2.418 1.885-3.032.621-.595 2.529-2.417 3.141-2.417 1.273-.6 3.147 0 4.424.605 3.118.603 5.648 1.217 6.26 1.217.64 0 2.534 1.209 2.534 1.209 1.851-1.209 1.851-2.426 3.114-2.426 3.764-1.205 5.035-1.819 8.79-1.819 3.157 0 5.677 5.463 7.542 7.276.64 1.199 5.026 6.661 7.555 11.505 1.244-.604 1.885-1.813 3.133-1.813 0-1.208-.626-6.056-1.248-6.661-1.885-5.468-5.648-6.676-5.648-7.885 1.234 0 3.763 1.209 5.007 1.209 1.263.614 3.142 1.208 5.016 2.427.642.605 1.9 1.218 2.53 1.822.622 2.427.622 4.24 1.884 6.662 0 .604 0 1.218.623 1.831 1.889-3.644 3.773-4.253 5.026-7.284-1.253-5.458-4.405-7.875-7.533-9.683m-4.898 27.49C325.287 246.14 324 248.703 324 250h7.05c1.93-2.57 2.565-5.143 1.277-9-1.906.641-5.758-1.302-5.758 2.564m-67.672-60.963c1.782-.598 2.951-1.804 4.737-2.403C264.803 179.6 266 170 266 170s-3.544.589-4.152 1.197c-.594 0-2.95 0-4.125 1.197 0 1.8 0 3.596-.585 6-1.187 1.804-4.138 3-4.138 6.004 0 0 2.366.602 2.95.602 1.188-.602 2.362-1.8 2.947-2.399M198 111.237v3.016c0 1.216.655 7.866.655 9.675.635 1.819.635 3.629 1.26 5.443.67 1.207 1.305 2.413 1.305 3.629 0 0 1.29-.594 1.915-1.82 1.93-1.81 2.585-3.623 3.865-6.036-.645-4.232-1.935-7.866-1.935-9.072 0-4.835.655-6.05 1.29-9.072-2.555 1.202-5.77 3.021-8.355 4.237M282.783 198c.604 0 1.217-1.143 1.217-1.143-.613-2.3-1.217-5.156-1.801-7.451 0 0-1.826-1.152-3.61-1.152-1.202 0-2.4-.571-3.589 0 .586 1.732.586 2.884 1.19 4.598 1.787 2.282 4.183 3.424 6.593 5.148m-55.785-65.579c-.593-1.21-2.393-1.816-3.586-2.421-1.206 0-2.412 2.421-2.412 4.852 0 1.21.612 5.47 1.206 7.287 0 .605 1.206 1.22 2.399 1.834 1.8 1.202 3.59 1.807 5.395 3.027 0 0-1.805-5.457-2.398-8.498-.604-1.816.593-4.255-.604-6.08M239.496 150c.616-2.49 2.427-3.733 2.427-8.094 0 0-.598-3.116-1.195-4.364-.616-1.243-1.232-2.486-3.034-3.73-.611 0-1.806-1.262-2.403-.64 0 0-.616 4.991-1.214 5.618 1.214 1.864 2.418 3.116 3.006 4.981.611 1.874 1.209 4.36 2.413 6.229m18.719 11c1.766-1.826 0-4.863 0-6.68-.606-1.826 0-3.647-.606-5.473-.587-1.212-1.79-1.817-2.964-1.817-1.189 0-4.154-1.827-4.154-.615-2.969 0-.587 3.037-.587 4.859 0 2.431 5.915 8.506 5.915 8.506 1.203.605 1.203 0 2.396 1.22m-61.928-51c1.297-1.917 5.172-5.75 7.087-8.32 1.312-1.274 3.895-4.465 10.334-7.66.644-2.56 1.292-4.471 1.292-7.02-6.454 1.912-10.973 3.196-12.244 4.46-3.232 1.922-4.534 3.207-7.756 5.128 0 3.818 0 3.818.638 5.74zM294 178.281c-1.938-1.14-5.153-4.568-7.061-6.282-1.308-1.14-.671-2.85-1.954-3.999-1.272 0-2.574 0-3.85.57-1.94 0-3.211 0-5.135.58.637 1.13.637 2.278 1.924 2.849 2.564 2.284 2.564 2.863 5.133 6.282.656 1.149 3.882 1.719 6.436 1.719 1.301 0 3.851-1.14 4.507-1.719M270.088 144c-2.611.627-7.798 1.256-7.798 3.149-.652 1.882 0 3.77 0 5.035.665 1.255.665 2.51.665 4.403 0 1.255-.665 2.52 0 4.413.652-1.265 3.89-2.52 4.522-3.786 1.308-1.882 2.611-3.138 3.253-5.03.652-1.888 0-5.035-.642-8.184m8.107.247c-1.919 1.238-3.195 1.857-3.195 3.094 0 2.486.629 4.966.629 6.214 0 1.865 0 3.104.647 3.722 1.919.619 2.576.619 5.148 1.857 0 .629 2.576 1.866 2.576 1.866s-1.276-5.58-1.929-8.074V143c-2.58.619-3.219 1.247-3.876 1.247m-74.015-57.41c.64-.637 7.771-5.693 8.402-6.324 1.296-1.261 1.947-.63 2.567-1.892 0-3.8 1.321-3.8.67-5.051-.67-1.282-5.82 0-7.12 0-3.228.62-9.058 2.508-9.058 3.78-.641 1.902-.641 6.317-.641 6.968.64 1.882.64 3.79 1.271 5.682 1.972-1.892 2.593-2.523 3.909-3.164M339.418 194.88c-.576-.62-1.736-1.25-2.904-1.88v2.515c0 2.52.566 3.16.566 4.43 0 1.26 1.762 10.105 1.762 12.625 2.9.64 2.9 3.17 4.644 4.43 0 0-1.168-7.58-1.168-17.055 0-.64-1.727-4.43-2.9-5.065m-36.226-23.074c2.487 1.792 7.445 1.193 11.808.598-2.505-1.806-3.115-3.013-4.363-4.201-1.872-1.208-3.092-1.807-5.582-4.203H297c1.224 2.995 1.83 4.801 6.192 7.806m-24.99-40.21c1.269-1.198 2.519-3.588 2.519-4.196 1.279-2.395 1.279-5.398 1.279-7.802-5.044-3.01-11.366-3.598-17.68-3.598-5.688 0-12.006.589-18.32 4.804.645 2.404 1.26 4.2 2.534 6.596.625 0 1.26 1.207 1.875 1.207 1.27-1.207 2.544-3.004 4.42-3.602v2.395c0 1.8 0 2.998.653 4.814 0 1.786 1.894 1.786 4.41 1.786 2.519 0 3.168-4.2 3.168-4.8 0 0 .635 2.396 4.404 4.201 0 0 4.42 0 4.42-.599.644-3.002 1.283-3.601.644-6.001 0 0 3.793 2.4 5.673 4.795M299 156.338c-2.386-3.922-2.976-7.838-2.976-8.49-1.19-1.314 1.182-5.877-1.8-5.877-1.176-.673-4.757-1.971-4.757-1.971-.623 1.971-.623 5.882 0 7.848 0 1.955 2.963 7.848 4.162 8.49.595.662 3.577.662 4.195.662.58-.662 1.176-.662 1.176-.662M201.228 75c1.257-1.847 1.257-1.847 2.504-3.105 2.518-1.857 3.775-3.104 6.893-5.59.619-1.248 1.247-.62 3.123-1.857.624-.614 1.252-1.243 1.252-1.862 0-1.238-.628-2.486-1.252-3.714-.628-1.248-1.876-4.352-1.876-4.981 0-4.957.638-6.195 1.248-10.547-2.495-.62-5.613-.62-6.87 1.866-1.247 1.867-1.247 3.724-1.247 5.6 0 3.08.619 5.576 1.247 9.29-2.518 1.877-3.765 3.105-6.25 4.348.619 3.724 1.228 10.552 1.228 10.552M328 162.503c-1.247-1.207-2.488-2.41-4.363-3.626-2.516-.604-3.743-1.82-5.018-4.235-.62-1.208-1.238-2.425-2.498-3.642-1.228 0-1.855.614-3.102 1.217-1.26 1.217-3.772 1.217-5.019 3.028.618 1.208 1.247 2.424 2.502 3.632.638.603 1.257 1.82 3.764 3.022 4.353 2.415 5.628 3.019 5.628 3.019 3.743.613 8.106-2.415 8.106-2.415M297 135s.61 3.134 1.866 6.253c.639 1.256 1.877 2.501 2.52 2.501 1.229.623 3.753 1.246 5.614 1.246v-1.246c-1.861-1.878-4.385-6.244-4.385-7.498-1.23-.614-1.23-.614-3.11-.614-.639-.642-1.896-.642-2.505-.642m55.828 45c-.566 1.804-2.315 3.002-2.315 5.4 0 0 2.907 2.992 3.489 4.806.578 1.197 0 6.597.578 7.794 1.741-1.805 2.907-2.403 2.907-4.792-.592-.599-1.167-5.415-1.749-9.005 0-1.201-1.736-2.996-2.91-4.203m51.169 44c-3.06 0-6.708 3.627-9.136 15.108-.607 4.245-1.22 7.882-.607 10.284l5.464.608c1.22-1.814 1.22-4.838 2.443-7.26 0-1.206 1.233-1.206 2.429-1.206 1.228.603 3.676 3.628 4.876 4.834.612-1.206 1.826-3.628 1.826-5.446 0-.612-1.826-1.814-2.433-1.814-1.817-1.205-3.04-2.412-5.465-2.412-.621-2.42 3.026-5.446 3.026-5.446 4.26 0 8.53 4.833 8.53 4.833 1.214-.603 1.817-2.411 3.05-3.617-3.662-6.657-10.356-8.466-14.003-8.466m-33.51-31.965c-.591-1.242-1.174-3.1-1.743-4.333 0-.616 0-1.849-.592-3.702 0 0-4.064 3.086-4.639 3.702 2.318 3.09 1.166 4.96 1.726 7.424 0 1.223 2.339 1.844 2.913 3.702 0 .607-1.139 6.172-1.139 6.172 3.474-4.94 3.474-11.116 3.474-12.965m52.866 53.064c-.573 1.817-1.174 3.005-2.353 4.204.596.604 1.78.604 2.353.604h5.912c.556-.604.556-2.402 1.152-3.61 0-1.198.583-2.406.583-4.204h-3.537c-1.756 0-3.518 1.207-4.11 3.006m-86.376-89.634h3.087c1.248 0 1.248-2.411 0-2.411-4.334-1.216-8.034-2.417-10.506-6.054-.611.612-4.334 1.809-5.558 3.024 0 0 1.224 3.03 4.316 6.054 1.845 1.81 5.577.603 8.66-.613M309 134.5c1.892 2.509 3.77 4.376 5.644 6.247.609 1.254 2.487 1.254 3.723 1.254h6.253c1.879-.642 3.124-.642 4.38-1.881-2.501-1.244-5.616-2.5-8.131-3.753-2.502-1.245-4.36-2.489-6.225-4.366-1.265 0-1.874.622-2.52.622-1.232.643-1.87 1.255-3.124 1.877m-66.922-28.875s2.401-.552 4.22-.552c1.217 0 2.421 0 3.624.552-.616.55-3.027 1.654-3.027 1.654-1.185.551-1.8 1.098-3.619 1.65-.597-1.099-1.198-3.304-1.198-3.304m-.21-14.898c1.242-1.838 3.765-3.063 5.635-3.676 2.494-.613 1.857-5.528 1.857-6.14.637-1.236 0-3.074 0-4.309-1.237.622-1.237 0-3.727.622-2.523 0-3.765-1.234-5.002-2.47-1.277-1.22-4.384-3.68-5.631-6.121 3.108-.632 5.631-.632 8.748-.632h8.13c1.855.632 3.122 1.857 3.122 3.073 0 .612-.62 4.303-.62 4.916-.647 3.685-.647 4.92-1.256 10.448v1.838c-.628 1.235-3.127 1.848-4.373 3.073-.628 1.838-.628 3.073-2.51 3.686-1.884.622-3.131 2.455-4.373 1.842-1.875-1.22-1.237-4.303 0-6.15M232.498 60c-1.284-1.246-3.85-3.14-5.125-5.662-1.898-2.517-1.275-5.029-1.275-5.666 1.275-3.778 5.748-5.044 8.323-5.672 1.265 0 2.55 0 4.464 1.266 2.56 1.256 3.845 1.256 5.115 5.662 0 .647 0 1.256-.638 1.256 0 0-3.845 2.516-5.125 3.792-3.183 1.884-3.816 5.024-5.738 5.024m18.669-1.755c1.899-1.227 3.773-2.445 5.051-2.445 1.27-.609 3.782-1.227 3.782 0 0 2.445-1.888 3.663-3.782 6.099-1.278 1.822-1.894.618-5.051.618H248c0-1.827 1.273-2.445 3.167-4.272m25.917-1.572c1.17 0 11.257 2.267 4.74 5.09-1.202 1.139-4.153.565-7.127.565 0-1.12 0-3.388-1.175-3.388-1.206-1.138-2.968-1.138-2.968-2.267-2.391-2.268 3.556-.565 6.53 0m12.735-12.495c2.034-1.937 4.75-2.58 7.43-1.937 3.374.642 4.041 1.285 5.397 2.58 2.028 2.58 1.36 7.73.667 10.947-.667 1.937-2.69 3.232-4.708 3.232-3.379-3.865-6.752-6.45-11.471-7.745-.678-2.57 1.371-5.15 2.685-7.077m3.89 25.711c-.645 1.237-1.946 1.86-3.237 2.503-.66 0-1.281 1.237-1.281 1.86-1.316 1.875-3.247 2.498-5.829 2.498-1.305 0-3.887 0-5.184-2.498 0 0 .636 7.504.636 9.374 0 .623.66.623.66.623 2.583.623 3.233 3.131 4.518 4.378 0 0 .65.623 1.311.623 2.572 1.87 8.406 4.372 5.82 4.372 0 1.257-1.932 4.378-2.572 4.378-1.967-1.865-5.189-3.121-7.796-4.378-.64-1.246-1.28-2.502-1.94-3.74-1.277-1.255-1.927-1.255-3.878-2.502 0-4.368-.641-4.368-.641-8.75 0-.623-1.296-7.504-1.296-7.504 0-.623 1.937-2.483 3.888-3.126 0 0 12.303 0 18.112.643 0 0-.63 1.246-1.29 1.246m-7.393 38.716c-2.414-.63-4.218-2.522-7.238-2.522 0-1.878 0-1.878.615-2.517 3.621-.63 5.43.64 7.23 1.268 0 .63-.607 3.77-.607 3.77m-40.775 8.005c1.89 0 3.772-1.831 5.65-2.454 3.743-1.228 6.89-2.456 10.633-3.07 1.273-.633 1.273-1.851 1.273-3.088.63-1.223.63-1.223.63-3.064 0-.614-2.513-1.228-3.771-3.703-1.25-1.85 0-3.692-.63-3.692-1.864 1.228-4.392 2.455-5.002 0-.629-1.836-.629-4.31 1.26-4.925 6.24-2.455 13.145-2.455 19.424 0 1.24 0 1.87 1.238 1.87 2.465.619 1.228 0 2.46-1.26 3.688-1.878.614-3.772-1.842-3.772 0 0 1.841-1.239 4.316-4.381 5.553-.61.614 0 2.455.644 4.302 0 .613 0 1.83.62 1.83 2.507.635 6.279 1.248 8.148 2.476 2.493 1.228 6.876 4.91 7.515 4.306 1.868-1.228 2.488-3.078 3.761-4.306 6.88 3.078 12.512 4.91 21.295 10.468 1.248 0 1.248-2.465 1.248-3.702-3.146-1.856-12.549-6.766-13.784-7.39-2.499-.604-3.747-1.851-6.27-2.455v-4.915c4.391 1.227 13.136 1.841 21.938 6.766.61-1.851 1.879-3.078 1.25-3.702-10.052-4.915-17.528-6.767-23.808-6.767 0-.623-1.268-1.237 0-1.85 1.879-1.228 2.504-1.842 3.143-2.456 1.868-2.46 3.137-4.924 3.747-7.38 1.874-3.692 3.753-2.464 5.016-10.468-1.883 0-2.522 1.228-4.391 1.851.61-1.851 1.249-3.692 1.249-5.543.62-3.698 1.879-6.153 1.879-10.469 1.883-.623 5.02-2.46 5.64-4.915 0-.623 0-2.465.635-4.93 0-3.687.61-6.766-.635-9.23 0-.615-4.377-6.767-7.52-8.609-4.372-1.85-6.26-1.227-9.392-.623-3.762 0-8.783 3.692-8.783 10.468-3.733 0-11.262.614-15.644 4.307-3.752-1.851-6.884-2.456-10.032-3.079h-5.621c-.62-2.465-1.883-4.93-4.382-6.771-3.123-1.837-6.904-4.302-11.286-4.302-1.878 0-3.747-.623-5.63.624-1.88 1.218-5.012 2.445-5.632 4.905-1.258 3.08-2.508 5.544-2.508 8.623 0 3.083 1.889 5.538 3.767 8.617.606 1.237 1.245 1.237 2.494 1.841.63 0 3.142 1.238 3.762 1.847.62.604-.62 2.464-.62 6.167 0 3.069 0 3.069.62 5.529 0 2.464.62 4.92 1.249 6.761-1.869 0-3.133-1.841-4.382-.604 0 1.237 1.25 4.311 2.513 6.766 3.128 3.079 6.25 6.157 8.14 9.845 0 .614 0 1.841.61 1.841-4.383.614-8.75.614-13.141 1.861-3.762 1.228-8.144 3.08-11.887 4.92 0 2.46.61 4.312.61 4.312.63 0 6.265-3.09 11.277-4.312 8.139-2.455 12.53-1.84 12.53-1.84.61 1.226 1.244 3.063.61 3.687-7.51 3.078-15.024 6.77-21.933 11.072.649 1.237 0 3.079 1.278 4.306 6.27-3.692 15.034-7.994 21.29-10.458 2.507-.614 2.507 0 3.766 0 .62.614 1.865 3.068 3.113 3.068m118.946 54.856s-1.16-2.332-1.16-2.901c-.575-1.167-1.151-2.91-2.9-3.49 0-.578-.585 2.323-1.16 3.49-.594 1.157-.594.569-1.754 2.9 1.16 1.732 1.754 2.889 2.914 4.633 0 .58 1.749 2.902 1.749 2.902s2.31-4.646 2.31-5.803zm81.258 72.51h-3.123c-1.245-.598-1.872-.598-2.49 0-1.878 1.768-1.878 4.724-3.132 6.497h7.5c1.245-1.193 2.5-1.773 2.5-4.149 0-.58 0-1.768-1.255-2.348m-89.259-85.753c0-5.003-1.264-5.003-3.8-7.223 0 0-1.912 3.336-3.172 4.998 2.535 2.225 3.172 5.002 3.172 5.002 2.536-2.224 2.536-1.67 3.8-2.777M383 181.179c0-1.835-.632-3.66-1.873-4.887-.642-1.825-1.266-4.264-1.266-5.49-.65-1.208-3.152-4.877-4.413-6.703-1.254-1.212-1.254-4.264-1.887-6.099L366 159.217c3.79 4.882 6.948 9.76 8.806 14.646.642 1.83 6.32 20.137 6.32 20.137 1.874-.618-.641-9.769 0-10.378.61-1.216.61-1.835 1.874-2.443m-48.199-50.617c-.614-1.213-1.863-3.645-2.487-4.252-.609-1.214-1.243-2.428-1.876-3.045-.606-.597-3.093 0-4.326 0-1.249 0-1.863 0-3.112.617 1.249 1.214 2.477 5.467 3.112 5.467.614 1.213.614 1.82 1.857 2.446 3.102.598 5.585 0 8.696 1.205 1.223-1.83-1.25-1.83-1.864-2.438M351 145.44s-7.5-4.148-8.756-5.913c-1.87 0-1.87 0-3.746 1.765-1.265 0-1.874.609-2.498 1.78 1.88 1.198 2.498 1.779 4.374 2.958.632.59 1.25.59 3.126 0h5.011c1.228 0 2.489.59 2.489-.59M456.238 237s-.652 1.767-1.303 2.929c-1.293 2.943-1.935 4.115-1.935 5.872 1.935 1.199 2.586.595 5.187.595 1.294 0 2.587.604 3.238.604 1.294-.604 0-1.776 0-2.361-.65 0-3.238-5.296-5.187-7.639m-65.336-53c2.603-1.848 3.261-5.564 3.919-7.412.658-1.858-.658-5.559-1.316-6.791-1.954 0-3.245-1.241-4.582-1.241-1.306 0-1.954-3.09-3.923-2.475.658 1.242 1.97 7.422 2.617 8.65.669.625 3.285 4.947 3.285 9.269m48.02 32.498c0-.585-1.923-1.764-2.535-1.764 0-.599-.671-2.966-1.312-3.546-1.258-.599-1.258-1.188-2.54-1.188 0 .59 0 1.188-.641 2.367 0 1.179-1.283 1.768-.632 2.948.632 1.183 1.272 1.183 2.555 1.772.632.59 2.57 5.324 3.182 5.913.641-.59.641-4.145 1.923-6.502m-110.04-98.71c1.77 0 2.938 1.212 4.118 1.212 0-1.807-.599-3.018-1.18-4.844-.59-3.038-1.767-4.865-2.366-6.677 0-1.817 0-3.037-.573-4.248-.58 0-1.18 0-1.762-.616-1.757 0-4.119-.615-4.119-.615 0 1.836.6 4.864.6 6.685 0 .606 2.343 6.076 2.929 6.682.59 1.22 1.172 1.826 2.352 2.422M389 157.599c-.603-1.795-2.421-2.403-3.64-3.6 0 0-7.909-2.998-9.142-2.998-1.22.594 3.052 2.998 3.655 4.195 2.434 2.404 8.524 7.805 8.524 7.805zM311.62 80c-.631.605-1.283 1.826-1.283 2.422-1.284 1.826-3.18 3.041-1.926 4.867.642 2.431.642 4.853 2.578 6.679 1.92 1.826 4.459 1.211 7.011 3.032 0 0-1.92-7.895-3.175-11.537-.641-2.417-1.916-3.637-3.205-5.463m120.512 46.922C424.059 118.934 415.346 114 406.649 114c-7.449 0-13.057 5.529-13.057 11.082 0 22.152 8.718 36.312 14.306 48.606 1.855 3.079 2.475 5.543 2.475 8.622.625 8.002-6.2 22.766-10.558 30.769-.615-.623-3.738-1.228-6.223-1.228-6.213 0-8.697 4.297-9.947 7.984-1.864 0-3.09-1.227-4.983-1.227-7.443-.615-13.662 6.147-13.662 13.545 0 7.984 1.85 12.31 4.974 17.847h6.218c-.63-1.846-2.485-11.086-3.11-13.541-.604-3.683.625-6.157 2.48-8.003 2.494-3.701 8.698-2.455 8.698-2.455-1.854 3.074-4.339 7.994-4.339 12.913.635 3.083 1.235 8.022 3.119 11.086h4.973c1.222-3.697 0-6.765 0-9.863 0-1.827 0-3.678.606-5.53 0-1.226 3.11 2.466 3.11 2.466s2.488-3.078 2.488-5.543c0-1.842-3.72-1.228-4.33-3.074-.653-1.84 1.226-6.156 1.226-6.156 3.729-2.465 6.828-1.842 8.087-1.842 1.85 0 2.465.604 4.974.604 1.85 0 2.475-3.682 2.475-5.518.615.604 2.498 1.836 3.104 1.836 1.86.613 2.485.613 4.349 1.228 2.494 1.227 4.983 2.454 7.477 4.928v-.623c-.634-2.455.606-5.533-1.25-6.765 0 0-3.118-2.465-5.602-3.692-1.24-1.228-3.114-1.228-3.73-2.455-.624-.614-.624-1.238-.624-2.465 0-1.233.625-3.074 1.24-3.074 1.24-.623 1.874 0 4.358 1.218 2.49 1.242 4.974 3.083 6.838 4.32 0 0 .615 1.228.615.614 2.495-1.227 2.495-1.85 2.495-5.538-2.495-3.088 0-3.692-3.734-6.157-1.24 0-8.083-2.465-8.083-2.465 0-1.232 1.869-4.3 1.869-4.3.625-.604 1.855-.604 2.49.613 3.724 2.455 6.208 2.455 9.966 3.687.586-1.836.586-3.064-.644-4.3-1.258-1.842-3.114-3.702-4.359-4.317-2.479-.613-3.724-1.227-5.598-1.84 0-1.847-.615-3.687-1.23-6.152 0-1.238 1.23-.614 2.49-.614 2.493-.624 13.046 3.079 13.046 3.079 0-2.465-.625-4.316-1.874-5.543-1.245-1.238-2.475-2.465-5.589-3.688-4.34-1.237-8.072-.614-11.182-2.464-2.49-2.465-3.114-3.08-3.734-5.544 1.86-.603 4.974-1.227 6.844-1.227 3.103 0 4.982-.614 8.706.624 1.222.603 5.59 4.305 7.463 4.305 0 0-1.259-4.93-2.508-6.765-1.83 0-4.955-3.702-6.2-4.316-6.232-2.464-7.462-1.228-11.205-.614-1.855.614-3.706 0-5.589 0-.615-1.227 1.25-3.078.634-4.306 0-.623-2.504-1.237-2.504-2.46 0 0 9.952-1.236 13.691-.623 1.245.623 4.974 3.083 6.218 3.083 0 0 1.222-4.32-.634-8.003-3.09-.604-6.208 0-8.698-.604-2.484-.623-4.973 0-6.824 0-1.883 0-3.753-.623-5.607-.623-1.23-1.84-1.875-3.697-1.875-5.538 0 0 15.546-.623 16.796-1.228-.635-.633-1.865-1.227-2.49-2.474-2.484-4.306-4.358-4.915-7.457-4.915-1.865 0-6.204 1.837-8.699 1.223 0-4.915 2.495-9.22 6.21-9.22 7.462 0 14.92 3.068 21.133 9.834 15.555 16.01 23.62 46.156 23.62 67.695 0 9.844-1.241 19.074-2.476 26.459 1.86.623 3.09.623 4.964.623 1.879-7.393 3.734-17.238 3.734-26.468 0-31.383-11.196-57.832-24.868-72.61M337 101.846c1.215 4.942 3.014 11.121 3.621 18.51 0 1.866-.607 3.711 0 5.568L349 129s-1.178-7.404-2.384-16.033c-1.2-7.4-1.803-9.87-3.603-12.967-1.205.615-1.799.615-3 .615-1.798.616-3.013 1.23-3.013 1.23m20.281 35.24c1.28 1.24 1.91 3.726 2.549 8.078.634 2.49 1.913 3.11 3.172 6.836 1.919-1.235 5.101-.615 5.101-.615 0-3.11-1.918-6.221-1.918-6.832-.65-1.26-2.544-4.986-3.183-6.226.64 0 2.533 2.485 5.73 2.485.65 0 2.563.61 3.822 0 0 0 1.9 1.25 1.9 2.482 1.273 1.87 1.273 3.11 1.932 4.98 1.24 0 1.899 0 2.528-.62 2.543 0 3.813-.63 3.813-.63-.62-1.24-1.27-2.47-1.27-3.73-.639-1.231-1.894-4.347-1.894-4.347l11.437-1.86c0-1.88-.63-4.371-2.553-5.612-5.72 1.88-12.061 2.491-16.532 2.491-6.38 0-12.725-1.25-21.633-4.966-.635 1.235 0 3.716 0 3.716 3.817 3.13 3.817 1.25 7 4.37M219.786 34.855c4.465-2.464 12.078-6.784 14.613-9.239.653 1.237 8.28 5.547 11.449 7.379 2.535 1.86 5.083 2.464 7.618 3.691 1.272-1.831 2.53-3.691 3.816-7.992 1.906 1.237 4.445 1.237 6.342 1.841 0 2.46 0 4.924.653 7.398 0 1.217 1.267.604 3.811-.624 3.807-1.227 7.613-1.85 9.529-2.454 4.426-2.464 6.974-7.388 10.786-7.388 3.187 0 8.9 1.84 10.177 3.068 1.9.628 3.178 1.232 5.088 1.232 2.535 0 4.44-2.46 6.332-3.696-5.703-3.682-12.039-7.374-18.41-9.833-3.816 3.063-6.36 5.528-8.26 5.528-1.916 0-.64-3.682-.64-6.151-1.905 0-3.182 0-5.073-.614-1.258 4.3-1.916 9.852-5.084 11.07-1.267.623-1.915.623-2.544.623v-4.928c0-.614 2.544-4.914 1.906-5.528 0 0-5.722 1.222-6.98 1.846-.638.613-4.465 2.464-5.093 2.464 0 0-1.911-.623-2.54-.623-1.906-1.228-3.172-1.228-5.083-2.465-2.535 7.393-3.188 9.234-3.188 8.007 0 0-8.895-5.542-12.053-9.229-8.272 1.222-8.272 2.46-15.261 4.914-2.54 2.464-6.351 5.542-8.89 9.239-1.268 2.464-2.545 3.691-3.807 6.146L215.346 41c.638-.623 3.812-4.919 4.44-6.146m216.7 167.769c1.697.584 2.838 4.695 3.983 5.866 1.716 2.35 1.15-4.101.575-5.282 0-.584 0-5.276-1.141-5.276-.58-.595-1.145-2.355-1.72-2.931-.574 1.751 0 2.931 0 4.687 0 1.18-2.3 2.34-1.698 2.936M326.273 76.213c-.63 0-2.536-.607-5.098-1.213H318c.63 1.828 2.547 3.646 3.176 4.858 0 .615 0 2.443.654 3.645 1.258 0 3.167.606 4.444 1.217.635 0 4.45.616 5.723 1.828 1.268 0 5.708 4.857 6.366 5.463 1.898 1.222 3.81 2.434 5.07 1.828 1.277 0 0-1.828 0-2.434-2.533-3.645-4.44-10.326-5.07-10.326-1.912-.606-3.19 0-5.727-1.221-1.263-1.212-5.089-3.03-6.362-3.646m-9.938-14.468c.639 1.284 1.882 1.284 3.14 1.917 1.248 1.274 2.51 1.911 4.388 3.196 2.497 2.559 3.75 5.765 6.875 8.299 1.253.647 1.883 1.284 2.502 1.284.638 0 3.135 1.922 3.759 2.559 0-5.113-1.882-8.936-3.12-11.505 0-.637-.64-1.274-1.888-1.922-1.891-1.911-3.759-3.828-4.378-3.828-1.872-1.912-3.13-3.823-5.008-5.745-1.882 0-3.13 1.922-4.388 2.559-.619 1.274-3.111 2.559-1.882 3.186m-2.192-15.138c0 1.796.603 3.61 1.197 5.396 2.938 1.8 6.498 2.997 6.498 2.997.584-1.805-.608-3.596-.608-5.4-1.16-4.2-2.952-8.393-3.536-13.19v-2.413C315.34 32.81 312.955 32.202 310 31c0 0 0 3.605 1.188 5.41 1.188 2.992 2.956 7.794 2.956 10.197m131.358 16.097L443 59.761 449.865 58 453 68zm-20.65-4.872-3.79 2.207-5.062-3.31 5.687-2.768 6.313 3.87zm97.533 118.714c.615-3.658.615-7.31.615-9.752-1.255-1.216-3.146-1.834-4.376-1.834 0-1.814-.64-4.251 0-6.693 1.23 0 3.76.608 3.76 0 0-3.657-.64-7.324-1.25-9.144-1.28-.617-3.15-1.225-5.036-1.843 0-1.824-.62-3.648-1.25-4.864 1.9-.617 3.136-.617 4.386-.617 0 0-1.25-5.487-1.866-7.929-1.27-.607-3.15-.607-4.4-.607-.626-1.207-1.255-2.442-1.885-4.266 1.26-.603 2.525-.603 3.765-1.212-1.24-3.05-1.88-4.275-3.135-6.099h-4.377c-.62-1.215-1.25-2.44-1.25-3.647.63-.633 1.871-1.23 2.505-1.848-.634-1.815-1.875-3.649-3.145-4.864-1.25 0-2.505.598-3.756 0-.62 0-2.51-2.442-1.88-2.442.62-1.226 1.88-1.834 2.51-2.437-1.89-2.432-2.51-4.266-4.395-5.491-1.25 0-2.491 0-3.761.617 0 0-1.256-1.843-1.876-2.45-1.89 0 1.255-3.046 1.255-3.046-1.885-2.432-3.756-4.265-6.261-6.697-1.28 0-2.53 1.206-3.15 1.206 0 0-2.506-1.824-2.506-2.432 0-1.216 2.506-1.824 2.506-1.824s-4.396-4.878-7.522-6.712c-1.25.608-1.87.608-3.146.608-1.87-1.824-4.38-3.04-4.38-3.04s1.89-1.226 1.89-1.834c-3.136-1.828-4.396-3.035-6.901-4.878-2.51-1.216-3.761-3.05-5.016-4.883-4.382-6.693-10.023-16.445-23.835-18.279 0 0 3.15 4.266 5.035 7.32 0 .599 0 .599-2.515.599h-4.376c-1.27-1.834-1.89-2.432-2.53-3.653-1.256-2.432-1.847-3.05-3.126-4.266-2.51-1.833-15.048 4.874-25.71 7.32 2.53 3.04 5.025 4.864 5.646 6.09 3.135 3.045 7.526 8.536 10.652 12.802.64-.608 1.27-1.207 2.525-1.834 8.166-1.216 8.166-3.03 8.166-3.03s-6.296-4.893-1.919-4.893c0 0 3.145.598 4.406-.603 3.13-.618 6.896-1.226 8.78 0 2.502 1.819 3.753 4.26 5.637 6.094-1.25 0-2.495-.598-3.756-.598-3.765-.628-7.53 0-10.661.598 0 0 5.035 4.266 6.266 6.094-1.231-.617-5.016 0-5.016 0-1.89.608-4.386 1.216-5.016 1.216-1.871.618-3.766 0-5.017.618 2.506 1.216 13.818 5.491 19.444 5.491 5.017 0 8.142-.627 12.538-2.451.62-.608 1.871-1.216 2.501-.608 2.515.608 3.766 1.226 5.016 2.432 16.308 9.762 34.482 32.933 40.129 45.117 5.636 11.585 8.762 24.392 8.762 36.577.63 16.468-4.997 32.315-16.29 46.341-6.29 7.91-18.183 14.626-30.72 15.842 3.765 4.27 5.631 10.969 7.52 17.072 0 0 4.397-.608 6.907-1.823 0-4.879-3.14-10.36-3.14-11.596 0 0 3.756-2.432 6.896-2.432.61 1.824 2.496 4.874 5.026 9.149 2.505-1.225 4.376-2.452 6.261-4.275 0-3.05-1.885-6.703-3.144-10.36 4.395-1.824 6.905-2.452 6.905-2.452 1.265 1.834 4.386 3.658 5.017 5.501 0 0 3.125-3.05 4.395-6.099-1.27-2.442-3.15-4.27-4.395-6.712l5.015-5.472s3.127 2.432 4.377 3.657c1.895-2.44 3.765-4.883 4.385-7.937-3.13-3.04-4.385-3.04-5.015-4.874 1.26-1.833 1.885-4.26 3.136-6.094 1.88.618 3.15 1.834 4.405 2.432 1.23-2.432 2.51-6.1 2.51-8.531-1.28-1.226-3.15-1.824-4.386-3.045.62-3.05 1.236-6.1 1.236-6.1s3.15.609 4.4.609" mask="url(#b)" opacity=".25"/></g></svg>