<svg xmlns="http://www.w3.org/2000/svg" width="640" height="360"><g fill="none" fill-rule="nonzero" style="fill:#fff"><path fill="#78A22F" d="M33.267 1.29a28.3 28.3 0 0 0-11.202 0C8.69 4.006 0 14.597 0 28.311v42.976c0 1.765.204 2.987.747 4.006l.068.068c.61 1.154 1.765 2.036 3.055 2.376a4.79 4.79 0 0 0 3.938-.747c2.24-1.494 2.512-4.073 2.512-5.907V53.771h34.76v17.448c0 2.105.612 3.327.951 4.074.611 1.154 1.765 2.037 3.055 2.376.34.068.747.136 1.154.136 1.019 0 1.97-.272 2.784-.883 2.037-1.358 2.308-3.598 2.308-5.906V28.243C55.264 14.53 46.642 4.006 33.267 1.29m11.746 27.09v15.75H10.388V28.38c0-6.79 2.376-11.543 7.604-14.937 3.666-2.58 8.486-3.53 13.239-2.648 2.308.407 4.345 1.29 6.11 2.58l.068.068c5.16 3.462 7.604 8.215 7.604 14.936m113.109 26.002c-.543-1.154-1.63-2.037-2.852-2.444-1.29-.408-2.648-.204-3.87.407-2.376 1.154-2.851 3.734-2.987 4.617l-.407 2.172-.068.68c-1.562 6.72-6.993 10.387-13.918 9.368-4.481-.678-10.456-3.055-10.456-15.411v-.815h13.579c1.63 0 6.585 0 6.585-4.888 0-2.444-1.833-4.481-4.005-4.617-1.019-.136-1.901-.136-2.92-.136h-13.239V24.51c0-1.765-.203-2.987-.746-4.005v-.068c-.611-1.155-1.766-2.037-3.056-2.377a4.79 4.79 0 0 0-3.937.747c-2.037 1.358-2.309 3.599-2.309 5.907v28.04c0 15.954 5.771 23.966 18.739 26.07q2.24.408 4.48.408c10.184 0 18.739-6.314 21.455-16.363.203-.814.339-1.561.475-2.308v-.068c.407-2.92.271-4.549-.543-6.11m66.33-13.375c-4.345-16.226-20.91-25.595-37.748-21.386-8.622 2.172-15.615 7.4-19.688 14.733-4.074 7.332-4.82 16.09-2.105 24.645 4.073 12.56 15.683 20.435 28.922 20.435 2.376 0 4.888-.271 7.332-.814 3.735-.815 7.4-2.377 10.66-4.481 2.444-1.63 4.48-3.395 5.567-4.753 1.697-2.037 2.715-3.666 2.512-5.567-.136-1.29-.815-2.444-1.833-3.259-1.087-.815-2.512-1.154-3.802-.882l-.204.067c-1.29.408-2.308.95-3.123 1.766l-.883 1.086-1.29 1.154-.067.068c-2.852 2.851-6.314 4.82-10.049 5.567-10.116 2.308-20.096-3.055-23.762-12.696-.271-.814-.475-1.561-.679-2.24h44.402l.95-.136 1.494-.068c1.63-.136 2.851-.747 3.666-1.9 1.494-2.106 1.426-5.229-.271-11.339m-49.697 1.697c3.463-10.998 14.53-16.905 25.664-13.646 6.993 2.037 12.424 7.74 14.19 14.868.135.544.27 1.087.339 1.63l-40.872-.34c.136-.882.408-1.629.68-2.512m79.435-24.51c10.048-.067 18.195 5.704 21.725 15.48l.204.612c.203.679.475 1.425.679 2.308.679 3.327 1.018 7.332-2.105 9.03-2.172 1.086-4.82.61-6.314-1.087l-.204-.271c-.679-.95-1.222-2.444-2.24-7.332-.34-1.358-1.154-2.92-2.512-4.55-2.784-3.326-7.265-4.82-11.813-3.801-6.79 1.358-9.709 5.838-9.709 15.072v27.787c-.01 1.943-.145 4.153-2.105 5.48-.814.611-1.765.883-2.783.883a6 6 0 0 1-1.154-.136c-1.29-.34-2.445-1.222-3.056-2.376-.475-.95-.95-2.105-.95-4.074V43.655c0-17.448 9.505-23.22 17.516-24.985 1.562-.339 3.055-.475 4.82-.475m-169.324 0c10.048-.067 18.195 5.704 21.725 15.48l.204.612c.271.679.475 1.425.679 2.308.679 3.327 1.018 7.332-2.173 9.03-2.172 1.086-4.82.61-6.314-1.087l-.203-.271c-.68-.95-1.222-2.444-2.24-7.332-.34-1.358-1.155-2.852-2.513-4.55-2.783-3.326-7.264-4.82-11.813-3.801-6.722 1.425-9.64 5.838-9.709 14.8h14.53q3.36 0 4.887 1.63c.544.61 1.223 1.697 1.155 3.462-.136 2.105-1.29 4.549-6.043 4.549h-14.46l.203 11.474v6.518c0 2.24-.272 4.548-2.309 5.906-.814.611-1.765.883-2.783.883a6 6 0 0 1-1.154-.136c-1.29-.34-2.444-1.222-3.056-2.376v-.068c-.339-.679-.95-1.901-.95-4.006V43.655c0-17.448 9.505-23.22 17.516-24.985 1.562-.339 2.988-.475 4.82-.475" style="fill:#fff" transform="translate(80 132)"/><path fill="#685446" d="M335.864 10.048c-5.024-6.042-12.56-9.505-20.707-9.37-15.276.205-25.595 11.271-25.595 27.565V71.22c0 1.97.475 3.123.95 4.074.611 1.154 1.765 2.037 3.055 2.376.34.068.747.136 1.154.136 1.019 0 1.97-.272 2.784-.883 2.105-1.426 2.376-3.802 2.376-5.906V51.53h14.869c14.053 0 23.626-7.332 26.274-20.096 1.562-7.672-.272-15.411-5.16-21.386m-4.752 16.294c-.204 9.166-6.925 15.48-16.43 15.48h-.204l-14.461-.204V27.361c0-6.382.95-9.37 4.006-12.493 2.987-3.123 6.925-4.616 11.61-4.548 9.165.203 15.547 6.789 15.479 16.022m74.41 19.553c-.136-2.444-.475-4.616-1.086-6.585-2.105-7.333-7.061-13.443-13.918-17.245-7.333-4.006-15.955-4.888-24.238-2.444-10.795 3.19-18.942 11.881-21.182 22.812-3.327 16.43 5.906 31.774 21.454 35.78a34 34 0 0 0 8.622 1.085c4.345 0 8.554-.882 12.356-2.58 3.123-1.425 5.907-3.326 8.08-5.635v.136c0 1.833 0 2.92.543 4.006l.068.068c.61 1.154 1.765 2.037 3.055 2.376a4.79 4.79 0 0 0 3.938-.747c2.104-1.426 2.444-3.802 2.444-5.906V47.05zm-25.528 23.152c-11.202 2.58-21.59-3.53-24.577-14.53v-.067c-.475-1.426-.679-2.852-.814-4.277-.611-9.71 5.227-18.467 14.257-21.25a22.2 22.2 0 0 1 6.586-1.02c4.209 0 8.215 1.223 11.677 3.667 5.228 3.666 8.35 9.64 8.555 16.362.407 10.388-5.84 18.874-15.684 21.115m79.435-46.642-2.105 1.018zl-.068-.136c-.611-1.154-1.766-2.037-3.055-2.376a4.79 4.79 0 0 0-3.938.746c-2.037 1.358-2.24 3.667-2.24 5.907v27.36c0 5.364-1.63 9.71-4.55 12.29-2.58 2.24-6.042 3.122-10.048 2.58-6.925-.951-10.727-5.908-10.727-13.987V26.41c0-1.697-.135-2.92-.679-4.073-.61-1.155-1.765-2.037-3.055-2.377a4.79 4.79 0 0 0-3.937.747c-2.105 1.426-2.445 3.802-2.445 5.907v28.379c0 11.338 5.16 19.35 14.597 22.608 7.265 2.512 15.208 1.29 20.708-2.783v.203c-.883 5.975-3.938 9.573-9.37 10.999-2.919.815-5.906.61-8.215-.543-1.9-.95-3.258-2.037-4.073-3.191l-1.494-1.901-.95-1.087c-.611-.814-1.087-1.222-1.358-1.425l-.272-.272-.271-.136a4.77 4.77 0 0 0-4.481-.203c-1.494.679-2.58 2.036-2.852 3.598-.34 2.173.543 4.006 2.105 6.382l.068.068c1.154 1.63 2.716 3.259 4.413 4.616 3.666 2.92 8.486 4.413 13.578 4.413q3.259 0 6.518-.814c10.93-2.784 16.973-11.542 16.973-24.645V26.41c.068-2.104-.543-3.259-.882-4.005m18.059-6.586q-2.24 2.24-5.296 2.24-3.157 0-5.295-2.24c-1.426-1.494-2.173-3.259-2.173-5.296 0-2.036.747-3.802 2.173-5.295 1.493-1.494 3.259-2.173 5.295-2.173 2.105 0 3.87.747 5.296 2.173 1.494 1.425 2.173 3.19 2.173 5.295 0 2.037-.747 3.802-2.173 5.296m-9.912-9.912c-1.222 1.29-1.901 2.783-1.901 4.548s.61 3.327 1.9 4.617 2.784 1.901 4.55 1.901c1.765 0 3.326-.61 4.548-1.9s1.901-2.784 1.901-4.618c0-1.765-.61-3.326-1.9-4.548-1.29-1.29-2.784-1.901-4.55-1.901-1.765 0-3.258.679-4.548 1.9m4.413.407c1.018 0 1.765.068 2.24.272.815.339 1.29 1.018 1.29 2.104q0 1.12-.815 1.63-.407.305-1.222.407.917.204 1.426.815c.272.407.475.882.475 1.29v1.222c0 .203 0 .34.068.407l.068.068h-1.358v-1.086c0-.95-.271-1.562-.747-1.901-.339-.204-.814-.272-1.629-.272h-1.154v3.259h-1.494V6.314zm1.561 1.358c-.34-.204-.95-.34-1.765-.34h-1.222v2.988h1.29c.61 0 1.086-.068 1.358-.204.543-.204.882-.679.882-1.29 0-.543-.135-.95-.543-1.154" style="fill:#fff" transform="translate(80 132)"/></g></svg>