<svg xmlns="http://www.w3.org/2000/svg" width="51" height="32"><g fill="none" fill-rule="evenodd"><path fill="#FFF" stroke="#D0D0D0" d="M.5.5h50v31H.5z"/><g fill-rule="nonzero"><path fill="#78A22F" d="M9.495 12.497a2.121 2.121 0 0 0-.84 0C7.652 12.7 7 13.495 7 14.523v3.224a.62.62 0 0 0 .056.3l.005.005a.36.36 0 0 0 .524.122c.169-.112.189-.305.189-.443v-1.298h2.607v1.308c0 .158.046.25.071.306a.368.368 0 0 0 .316.188.34.34 0 0 0 .209-.066c.153-.102.173-.27.173-.443v-3.208c-.005-1.028-.652-1.818-1.655-2.021Zm.881 2.031v1.182H7.779v-1.182c0-.509.178-.865.57-1.12.275-.193.637-.265.993-.198.173.03.326.096.459.193l.005.005c.387.26.57.616.57 1.12Zm8.483 1.95a.364.364 0 0 0-.214-.183.385.385 0 0 0-.29.03c-.178.087-.214.28-.224.347l-.03.163-.006.051c-.117.504-.524.78-1.044.703-.336-.051-.784-.23-.784-1.156v-.061h1.019c.122 0 .494 0 .494-.367 0-.183-.138-.336-.3-.346-.077-.01-.143-.01-.22-.01h-.993v-1.41a.62.62 0 0 0-.056-.301v-.005a.36.36 0 0 0-.524-.122c-.153.101-.173.27-.173.442v2.103c0 1.197.433 1.798 1.405 1.956.112.02.224.03.336.03a1.63 1.63 0 0 0 1.61-1.227c.014-.061.025-.117.035-.173v-.005c.03-.219.02-.341-.04-.458Zm4.975-1.002c-.326-1.217-1.568-1.92-2.831-1.604-.647.163-1.171.555-1.477 1.105-.305.55-.361 1.206-.158 1.848.306.942 1.177 1.533 2.17 1.533.178 0 .366-.02.55-.062.28-.06.554-.178.799-.336.183-.122.336-.254.417-.356.128-.153.204-.275.189-.418a.363.363 0 0 0-.138-.244.36.36 0 0 0-.285-.066l-.015.005a.554.554 0 0 0-.234.132l-.067.082-.096.086-.005.005a1.486 1.486 0 0 1-.754.418 1.527 1.527 0 0 1-1.782-.952c-.02-.061-.036-.117-.051-.168h3.33l.071-.01.112-.006c.123-.01.214-.056.275-.142.112-.158.107-.392-.02-.85Zm-3.727.127a1.532 1.532 0 0 1 1.924-1.024 1.55 1.55 0 0 1 1.09 1.238l-3.065-.026c.01-.066.03-.122.05-.188Zm5.957-1.838c.754-.005 1.365.427 1.63 1.16l.015.046c.015.051.036.107.05.174.052.25.077.55-.157.677a.399.399 0 0 1-.474-.082l-.015-.02c-.05-.071-.092-.183-.168-.55a.89.89 0 0 0-.188-.341.889.889 0 0 0-.886-.285c-.51.102-.728.438-.728 1.13v2.052c0 .153 0 .336-.158.443a.34.34 0 0 1-.209.066.368.368 0 0 1-.316-.188.625.625 0 0 1-.071-.306v-2.067c0-1.309.713-1.741 1.314-1.874.117-.025.229-.035.361-.035Zm-12.7 0c.755-.005 1.366.427 1.63 1.16l.016.046c.02.051.035.107.05.174.051.25.077.55-.162.677a.399.399 0 0 1-.474-.082l-.015-.02c-.051-.071-.092-.183-.168-.55a.926.926 0 0 0-.189-.341.889.889 0 0 0-.886-.285c-.504.107-.723.438-.728 1.11h1.09c.168 0 .29.04.366.122.041.046.092.127.087.26-.01.157-.097.34-.453.34h-1.085l.016.861v.49c0 .167-.02.34-.174.442a.34.34 0 0 1-.208.066.368.368 0 0 1-.316-.188c-.025-.056-.071-.148-.071-.306v-2.067c0-1.309.713-1.741 1.313-1.874.118-.025.224-.035.362-.035Z"/><path fill="#685446" d="M32.19 13.154a1.964 1.964 0 0 0-1.553-.703c-1.146.015-1.92.845-1.92 2.067v3.223c0 .148.036.235.071.306a.368.368 0 0 0 .316.188.34.34 0 0 0 .209-.066c.158-.107.178-.285.178-.443v-1.461h1.115c1.054 0 1.772-.55 1.97-1.507a1.908 1.908 0 0 0-.386-1.604zm-.357 1.222c-.015.687-.519 1.16-1.232 1.16h-.015l-1.085-.015v-1.069c0-.479.072-.703.3-.937.225-.234.52-.346.871-.341.688.015 1.166.51 1.161 1.202zm5.581 1.466a2.158 2.158 0 0 0-1.125-1.787 2.37 2.37 0 0 0-1.818-.183c-.81.239-1.42.89-1.589 1.71-.25 1.233.443 2.383 1.61 2.684.213.056.432.081.646.081.326 0 .642-.066.927-.193a1.93 1.93 0 0 0 .606-.423v.01c0 .138 0 .22.04.3l.006.006a.36.36 0 0 0 .524.122c.158-.107.183-.285.183-.443V15.93l-.01-.087zM35.5 17.58c-.84.193-1.62-.265-1.844-1.09v-.005a1.426 1.426 0 0 1-.06-.321c-.047-.728.391-1.385 1.068-1.594.163-.05.331-.076.494-.076.316 0 .617.091.876.275.392.275.627.723.642 1.227.03.779-.438 1.415-1.176 1.584zm5.957-3.499-.158.077.158-.077-.005-.01a.36.36 0 0 0-.524-.122c-.153.102-.168.275-.168.443v2.052c0 .402-.123.728-.342.922-.193.168-.453.234-.753.193-.52-.071-.805-.443-.805-1.049v-2.128a.687.687 0 0 0-.05-.306.36.36 0 0 0-.524-.122c-.159.107-.184.285-.184.443v2.128c0 .85.387 1.452 1.094 1.696.545.188 1.14.097 1.553-.209v.016c-.066.448-.295.718-.702.824a.872.872 0 0 1-.616-.04.81.81 0 0 1-.306-.24l-.112-.142-.071-.082a.518.518 0 0 0-.102-.107l-.02-.02-.02-.01a.357.357 0 0 0-.337-.015.371.371 0 0 0-.214.27c-.025.162.041.3.158.478l.005.005c.087.122.204.245.331.346.275.22.637.331 1.019.331.162 0 .325-.02.488-.06.82-.21 1.273-.866 1.273-1.849v-3.335c.005-.158-.04-.245-.066-.3zm1.355-.494a.543.543 0 0 1-.398.168.527.527 0 0 1-.397-.168.558.558 0 0 1-.163-.397.558.558 0 0 1 .958-.397c.112.107.163.24.163.397a.558.558 0 0 1-.163.397zm-.744-.743a.482.482 0 0 0 0 .687.462.462 0 0 0 .341.143c.133 0 .25-.046.341-.143a.485.485 0 0 0 .143-.346.454.454 0 0 0-.143-.341.482.482 0 0 0-.682 0zm.331.03c.077 0 .133.006.168.02.061.026.097.077.097.159 0 .056-.02.097-.061.122a.193.193 0 0 1-.092.03c.046.01.082.031.107.062.02.03.036.066.036.096v.092c0 .015 0 .025.005.03l.005.006h-.102v-.082c0-.071-.02-.117-.056-.142-.025-.016-.061-.02-.122-.02h-.087v.244h-.112v-.616h.214zm.117.102a.274.274 0 0 0-.132-.025h-.092v.224h.097a.25.25 0 0 0 .102-.015.1.1 0 0 0 .066-.097c0-.04-.01-.071-.04-.087z"/></g></g></svg>