<svg xmlns="http://www.w3.org/2000/svg" xmlns:xlink="http://www.w3.org/1999/xlink" width="229" height="80"><defs><path id="a" d="M27.51.083H.266v42.295H27.51V.084z"/></defs><g fill="none" fill-rule="evenodd"><path fill="#525252" fill-rule="nonzero" d="M169.79 46.536v6.674c0 .791-.362 1.525-.967 1.97-.806.586-3.67 2.505-6.678 2.505-2.86 0-6.197-1.513-6.197-5.782 0-3.026 1.659-4.296 6.121-4.689zm2.485 10.57v-.038l.008-15.296c0-5.595-2.302-7.775-8.213-7.775-3.285 0-5.637.63-7.03 1.158l-.575.218v2.533l1.197-.448c.998-.374 3.13-1 6.17-1 4.736 0 5.962 1.15 5.962 5.603v1.97l-7.938.695c-3.902.343-8.385 1.469-8.385 7.173 0 5.721 4.357 8.281 8.674 8.281 3.262 0 6.179-1.643 7.676-2.66v.287c0 .976.793 1.77 1.79 1.77l3.619-.18v-2.056l-2.834-.207q-.076-.016-.119-.028z"/><path fill="#525252" fill-rule="nonzero" d="m169.447 46.91-7.347.644c-4.288.378-5.808 1.515-5.808 4.346 0 4.017 3.152 5.443 5.852 5.443 2.907 0 5.693-1.868 6.478-2.441.517-.379.826-1.011.826-1.69V46.91m-7.305 11.117c-3.014 0-6.537-1.604-6.537-6.128 0-3.211 1.804-4.62 6.435-5.028l8.092-.708v7.049c0 .895-.414 1.736-1.108 2.242-.828.604-3.768 2.574-6.883 2.574zm1.689-21.912c4.951 0 6.304 1.279 6.304 5.945v2.285l-8.251.724c-3.992.35-8.073 1.438-8.073 6.831 0 5.486 4.186 7.941 8.333 7.941 3.189 0 6.057-1.631 7.484-2.603l.534-.366v.938c0 .786.65 1.426 1.45 1.426l3.275-.164v-1.41l-2.559-.193a2 2 0 0 1-.143-.033l-.25-.07.008-15.594c0-5.418-2.134-7.433-7.872-7.433-3.234 0-5.542.62-6.908 1.139l-.354.133v1.8l.734-.274c1.024-.381 3.198-1.024 6.29-1.024zm-1.689 24.41c-4.486 0-9.015-2.667-9.015-8.623 0-5.985 4.648-7.16 8.7-7.518l7.624-.668V42.06c0-4.276-1.052-5.258-5.619-5.258-2.983 0-5.071.611-6.051.977l-1.657.62v-3.262l.796-.303c1.42-.537 3.812-1.18 7.151-1.18 6.077 0 8.555 2.35 8.555 8.117l-.006 15.034 2.95.218v2.7l-3.94.195h-.003a2.14 2.14 0 0 1-2.126-1.782c-1.606 1.017-4.334 2.387-7.356 2.387zM16.663 46.535v6.674c0 .791-.362 1.525-.968 1.97-.806.586-3.668 2.505-6.678 2.505-2.858 0-6.196-1.513-6.196-5.782 0-3.026 1.66-4.296 6.122-4.689zm2.485 10.57v-.038l.009-15.296c0-5.595-2.303-7.775-8.214-7.775-3.285 0-5.636.63-7.03 1.158l-.577.218v2.533l1.2-.448c.997-.374 3.128-1 6.17-1 4.733 0 5.959 1.15 5.959 5.603v1.97l-7.937.695c-3.902.343-8.385 1.469-8.385 7.173 0 5.721 4.356 8.281 8.674 8.281 3.262 0 6.179-1.643 7.676-2.66v.287c0 .976.793 1.77 1.79 1.77l3.617-.18v-2.056l-2.835-.207q-.075-.016-.119-.028z"/><path fill="#525252" fill-rule="nonzero" d="m16.32 46.91-7.348.644c-4.288.378-5.808 1.515-5.808 4.346 0 4.017 3.153 5.443 5.853 5.443 2.906 0 5.693-1.868 6.477-2.441.518-.379.828-1.011.828-1.69v-6.301zM9.015 58.027c-3.014 0-6.537-1.604-6.537-6.128 0-3.211 1.804-4.62 6.435-5.028l8.092-.708v7.049c0 .895-.413 1.736-1.108 2.242-.826.604-3.768 2.574-6.88 2.574zm1.69-21.912c4.948 0 6.302 1.279 6.302 5.945v2.285l-8.251.724C4.764 45.419.683 46.507.683 51.9c0 5.486 4.186 7.941 8.334 7.941 3.185 0 6.056-1.631 7.481-2.603l.538-.366v.938c0 .786.648 1.426 1.448 1.426l3.275-.164v-1.41l-2.561-.193a2 2 0 0 1-.141-.033l-.252-.07.008-15.594c0-5.418-2.133-7.433-7.87-7.433-3.235 0-5.543.62-6.91 1.139l-.354.133v1.8l.735-.274c1.023-.381 3.198-1.024 6.29-1.024zm-1.69 24.41C4.53 60.524 0 57.857 0 51.901c0-5.985 4.648-7.16 8.7-7.518l7.624-.668V42.06c0-4.276-1.051-5.258-5.62-5.258-2.983 0-5.071.611-6.051.977l-1.658.62v-3.262l.798-.303c1.42-.537 3.813-1.18 7.152-1.18 6.076 0 8.555 2.35 8.555 8.117l-.006 15.034 2.952.218v2.7l-3.943.195a2.135 2.135 0 0 1-2.124-1.782c-1.607 1.017-4.337 2.387-7.358 2.387zm139.076-13.697c0 3.973-1.138 10.639-8.76 10.639-2.728 0-4.737-.618-6.135-1.891-.486-.44-.762-1.1-.762-1.812V39.91c0-.729.281-1.394.777-1.83 1.399-1.227 3.4-1.826 6.12-1.826 5.895 0 8.76 3.46 8.76 10.575m-8.76-12.985c-2.878 0-5.147.588-6.897 1.796v-9.037a1.69 1.69 0 0 0-1.706-1.683l-3.37.167v1.893l2.64.194.061.013v32.198h2.043l.161-1.463c1.775 1.312 4.098 1.953 7.068 1.953 7.087 0 11.15-4.754 11.15-13.046 0-8.495-3.856-12.985-11.15-12.985"/><path fill="#525252" fill-rule="nonzero" d="M139.332 36.596c-2.636 0-4.562.57-5.894 1.742-.422.371-.661.942-.661 1.57v13.855c0 .617.236 1.183.65 1.56 1.33 1.212 3.264 1.8 5.905 1.8 7.323 0 8.418-6.45 8.418-10.295 0-6.886-2.755-10.232-8.418-10.232m0 21.214c-2.82 0-4.903-.648-6.367-1.98-.554-.505-.873-1.258-.873-2.066V39.91c0-.826.326-1.586.896-2.085 1.462-1.288 3.538-1.914 6.345-1.914 6.124 0 9.101 3.57 9.101 10.918 0 9.556-5.702 10.982-9.1 10.982zm-7.344-.517.48.354c1.714 1.267 3.961 1.885 6.864 1.885 6.87 0 10.81-4.632 10.81-12.704 0-8.271-3.74-12.643-10.81-12.643-2.817 0-5.011.57-6.704 1.735l-.537.371v-9.69c0-.738-.612-1.339-1.363-1.339l-3.028.151v1.249l2.436.19.266.06v32.13h1.395zm7.344 2.924c-2.794 0-5.024-.552-6.79-1.688l-.133 1.2h-2.694V27.495l-2.702-.196V24.76l3.695-.183c1.149 0 2.067.908 2.067 2.024v8.412c1.727-1.017 3.88-1.513 6.556-1.513 7.52 0 11.493 4.608 11.493 13.327 0 8.51-4.19 13.39-11.493 13.39m88.325-2.675c-1.616 0-1.843-.09-4.57-3.283l-7.196-8.465 8.745-8.252c.857-.82.857-.82 2.996-1.074l.868-.103v-2.052H219.5v2.047l2.684.218-8.285 7.809c-.033.025-.175.071-.37.071h-2.041l-.003-17.827c0-.947-.823-1.746-1.822-1.746l-3.614.176v1.945l2.833.205q.08.013.127.025v29.852l-.033.009-2.92.22v2.107h8.394v-2.11l-2.836-.206a1 1 0 0 1-.124-.028V46.89h1.964c.134 0 .26.058.345.16l7.326 8.656c2.475 2.934 3.671 4.129 5.54 4.129.746 0 1.247-.106 1.522-.32l.358-.265v-1.71h-.888z"/><path fill="#525252" fill-rule="nonzero" d="M211.147 46.548h2.307c.235 0 .456.102.607.281l7.324 8.655c2.406 2.849 3.554 4.008 5.28 4.008.819 0 1.167-.133 1.313-.246l.224-.166v-1.194h-.544c-1.796 0-2.11-.222-4.83-3.403l-7.407-8.716 8.981-8.473c.942-.902 1.026-.912 3.193-1.167l.566-.067v-1.404h-8.313v1.388l3.137.256-8.847 8.336c-.164.128-.422.163-.605.163h-2.382l-.003-18.17c0-.76-.678-1.404-1.48-1.404l-3.271.161v1.303l2.511.179c.105.016.156.03.195.038l.252.07V57.07l.046.307-.397.06-2.603.195v1.448h7.709v-1.45l-2.563-.188a3 3 0 0 1-.143-.032l-.276-.074.02-.284V46.546zm15.518 13.63c-2.015 0-3.253-1.229-5.803-4.25l-7.324-8.656a.1.1 0 0 0-.086-.039h-1.62l.002 9.547 2.958.213v2.77h-9.08v-2.767l2.953-.221.003-29.24-2.96-.21v-2.59l3.94-.192c1.19 0 2.18.956 2.18 2.088l.005 17.483 1.697.003a.7.7 0 0 0 .186-.022l7.676-7.236-2.231-.183v-2.705h9.684v2.699l-1.17.138c-2.022.238-2.022.238-2.802.981l-8.51 8.03 6.987 8.22c2.702 3.159 2.853 3.159 4.31 3.159h1.227v2.226l-.492.367c-.342.264-.89.387-1.727.387zM34.218 45.175c-4.397-1.299-5.955-2.49-5.955-4.548 0-.976.476-1.97 1.305-2.723.725-.661 2.08-1.449 4.4-1.449 1.649 0 3.237.41 4.721 1.212.333.179.508.402.525.66l.228 3.534h2.21l.145-6.84h-2.073l-.057.184c-1.13-.57-3.064-1.275-5.698-1.275-3.966 0-8.184 2.347-8.184 6.697 0 3.979 2.973 5.634 7.77 7.017 3.846 1.113 7.032 2.264 7.032 5.058 0 2.551-2.819 4.625-6.282 4.625-1.884 0-3.582-.47-5.05-1.392a2.62 2.62 0 0 1-1.155-1.688l-.49-2.395h-2.187l.48 7.497 2.022.025.115-.716q.04-.269.072-.493a12.26 12.26 0 0 0 6.192 1.686c4.913 0 8.763-3.14 8.763-7.151 0-4.828-4.28-6.133-8.846-7.525z"/><path fill="#525252" fill-rule="nonzero" d="m27.842 57.614.44.256a12 12 0 0 0 6.02 1.64c4.721 0 8.419-2.99 8.419-6.806 0-4.578-3.985-5.793-8.601-7.2-4.578-1.353-6.2-2.63-6.2-4.877 0-1.072.517-2.157 1.416-2.976.773-.703 2.203-1.54 4.634-1.54 1.707 0 3.352.422 4.887 1.254.546.294.683.673.701.937l.205 3.211h1.554l.13-6.153h-1.47l-.105.33-.359-.18c-1.122-.566-2.993-1.24-5.543-1.24-3.803 0-7.842 2.226-7.842 6.354 0 3.762 2.876 5.348 7.52 6.689 3.982 1.154 7.279 2.354 7.279 5.386 0 2.74-2.97 4.969-6.623 4.969-1.95 0-3.71-.487-5.233-1.446a2.95 2.95 0 0 1-1.307-1.909l-.435-2.12h-1.54l.435 6.817 1.41.016.21-1.416zm6.46 2.582c-2.516 0-4.554-.76-5.926-1.488l-.162 1.014-2.635-.03-.525-8.18h2.835l.547 2.668a2.28 2.28 0 0 0 1.001 1.466c1.413.89 3.05 1.34 4.868 1.34 3.275 0 5.939-1.92 5.939-4.281 0-2.555-3.073-3.654-6.786-4.728-4.947-1.428-8.015-3.155-8.015-7.348 0-4.573 4.395-7.04 8.53-7.04 2.428 0 4.28.585 5.49 1.139l.016-.047h2.671l-.159 7.525h-2.87l-.242-3.855c-.01-.133-.128-.262-.346-.38a9.5 9.5 0 0 0-4.56-1.17c-2.214 0-3.49.739-4.171 1.36-.759.69-1.194 1.588-1.194 2.468 0 1.868 1.495 2.975 5.71 4.222h.003c4.673 1.424 9.087 2.77 9.087 7.855 0 4.202-3.998 7.492-9.103 7.492zm33.712-3.143v-.034l.005-15.407c0-2.742-.505-4.507-1.635-5.726-1.274-1.377-3.318-2.017-6.435-2.017-3.85 0-6.473 1.131-8.144 2.278v-.25c0-.954-.783-1.73-1.768-1.73l-3.51.18v1.931l2.751.2.075.017-.039 20.546v.016q-.014.006-.032.01l-2.922.217v2.11h8.393v-2.11l-2.834-.205a1 1 0 0 1-.124-.03V40.51c0-.757.354-1.463.968-1.938 1.996-1.538 4.28-2.254 7.185-2.254 4.682 0 5.511 1.302 5.578 5.457l.005 15.272v.013l-.032.009-2.922.217v2.11h8.395v-2.11l-2.84-.205q-.076-.016-.12-.028z"/><path fill="#525252" fill-rule="nonzero" d="M62.923 59.053h7.709v-1.446l-2.563-.189q-.09-.021-.144-.033l-.274-.074.022-.282.004-15.416c0-2.648-.476-4.343-1.543-5.494-1.205-1.299-3.17-1.904-6.183-1.904-3.902 0-6.478 1.205-7.951 2.217l-.538.368v-.9c0-.765-.64-1.387-1.424-1.387l-3.167.162v1.287l2.477.18.092.021.258.064-.038 20.815.03.279-.38.09-2.606.194v1.446h7.71v-1.446l-2.518-.183a2 2 0 0 1-.196-.042l-.26-.077.015-.271V40.509c0-.865.403-1.67 1.102-2.21 2.06-1.586 4.408-2.325 7.395-2.325 4.945 0 5.849 1.519 5.918 5.795l.005 15.258.045.268-.394.115-2.605.196v1.446zm8.395.686h-9.079V56.97l2.95-.221-.005-14.975c-.064-3.962-.757-5.114-5.232-5.114-2.827 0-5.044.694-6.978 2.183a2.1 2.1 0 0 0-.831 1.667l-.003 16.248 2.96.212v2.769h-9.083V56.97l2.956-.222.036-19.945-2.828-.205v-2.574l3.834-.197c1.056 0 1.923.742 2.098 1.712 1.607-.983 4.167-2.011 7.835-2.011 3.218 0 5.343.675 6.686 2.124 1.193 1.288 1.727 3.126 1.727 5.961l-.004 15.141 2.96.218v2.768zm129.058-2.686v-.034l.004-15.407c0-2.742-.505-4.507-1.635-5.726-1.274-1.377-3.318-2.017-6.435-2.017-3.85 0-6.473 1.131-8.145 2.278v-.25c0-.954-.78-1.73-1.766-1.73h-.002l-3.508.18v1.931l2.75.2.077.015-.038 20.549v.015l-.034.01-2.92.217v2.11h8.396v-2.11l-2.835-.205a1 1 0 0 1-.126-.03V40.51c0-.757.354-1.463.969-1.938 1.996-1.538 4.28-2.254 7.185-2.254 4.682 0 5.51 1.302 5.578 5.457l.003 15.272v.013l-.033.009-2.92.217v2.11h8.396v-2.11l-2.84-.205q-.076-.016-.12-.028z"/><path fill="#525252" fill-rule="nonzero" d="M195.285 59.053h7.709v-1.446l-2.523-.184a2 2 0 0 1-.186-.038l-.263-.073.01-.278.343.017-.342-.023.003-15.416c0-2.648-.476-4.342-1.543-5.493-1.205-1.299-3.17-1.904-6.183-1.904-3.902 0-6.478 1.205-7.952 2.217l-.538.368v-.9c0-.765-.64-1.387-1.423-1.387l-3.168.162v1.287l2.559.199.268.06-.038 20.822.03.294-.38.072-2.604.196v1.446h7.708v-1.446l-2.518-.183a2 2 0 0 1-.196-.042l-.262-.077.016-.271V40.509c0-.865.403-1.67 1.102-2.21 2.06-1.586 4.408-2.325 7.395-2.325 4.944 0 5.849 1.519 5.918 5.795l.005 15.276.039.299-.388.066-2.602.196v1.446zm8.392.686H194.6V56.97l2.953-.222-.005-14.974c-.064-3.962-.758-5.114-5.233-5.114-2.827 0-5.044.694-6.977 2.183a2.1 2.1 0 0 0-.832 1.667l-.002 16.248 2.959.212v2.769h-9.078V56.97l2.955-.222.034-19.945-2.823-.205v-2.574l3.833-.197c1.054 0 1.921.742 2.095 1.712 1.608-.983 4.168-2.011 7.836-2.011 3.216 0 5.341.675 6.685 2.124 1.193 1.288 1.727 3.126 1.727 5.961l-.004 15.142 2.958.214v2.769z"/><g transform="translate(76.197 17.88)"><mask id="b" fill="#fff"><use xlink:href="#a"/></mask><path fill="#EF533D" fill-rule="nonzero" d="M9.257 24.811c.274-1.3.72-2.537 1.315-3.684.355-.682.64-1.4.801-2.15.074-.34.128-.69.128-.997A5.646 5.646 0 0 0 5.86 12.33a5.64 5.64 0 0 0-5.21 3.48 12.7 12.7 0 0 1-.384-3.19A12.597 12.597 0 0 1 12.885.084c6.762 0 12.282 5.322 12.602 12.01.138 2.859-.87 5.485-2.41 7.856-2.008 3.096-4.289 5.995-4.289 9.868 0 5.61 3.664 10.363 8.725 11.997a14.6 14.6 0 0 1-4.222.563c-7.683-.099-14.016-6.255-14.336-13.938a14.7 14.7 0 0 1 .302-3.628" mask="url(#b)"/></g><path fill="#EF533D" fill-rule="nonzero" d="M107.558 36.249a1.23 1.23 0 1 0-2.462 0 1.233 1.233 0 1 0 2.465 0"/><path fill="#EA553F" fill-rule="nonzero" d="M105.841 23.13q-.001.018-.005.04l.02-.038-.013-.003z"/><path fill="#EF533D" fill-rule="nonzero" d="M111.169 50.813a5.105 5.105 0 0 1 2.998-4.913v-.053a8.3 8.3 0 0 0-1.606-.157c-4.623 0-8.367 3.749-8.367 8.376 0 1.808.573 3.48 1.545 4.849A14.6 14.6 0 0 0 112 53.354a5.1 5.1 0 0 1-.831-2.541m1.752-19.826a7.4 7.4 0 0 0 .502-2.678 7.34 7.34 0 0 0-1.01-3.72 9.6 9.6 0 0 1-1.953 4.606l-.07.115a28 28 0 0 0-1.432-.7 9 9 0 0 1-1.026-.614 5.7 5.7 0 0 1-2.648-3.462 8.8 8.8 0 0 0-.371 2.538 8.76 8.76 0 0 0 3.614 7.1l.025.016c.452.35.883.711 1.293 1.113a14.54 14.54 0 0 1 3.611 5.731 8.07 8.07 0 0 0 1.493-3.55q.102-.63.102-1.29c0-2.29-.62-3.863-2.128-5.206"/></g></svg>