<svg xmlns="http://www.w3.org/2000/svg" xmlns:xlink="http://www.w3.org/1999/xlink" width="480" height="270"><defs><path id="a" d="M0 0h480v270H0z"/></defs><g fill="none" fill-rule="evenodd"><mask id="b" fill="#fff"><use xlink:href="#a"/></mask><use xlink:href="#a" fill="#2D8F37"/><path fill="#000" fill-rule="nonzero" d="M414.326 207 420 251h-24.946l-3.603-19.166-.004-.015c-.09-.328-1.7-5.653-9.992-5.653-8.556 0-9.006 5.668-9.006 5.668L368.126 251H343l5.674-44zm24.35-117c6.407.64 7.129 7.954 7.85 10.789v9.691c.722 0 0 .731 2.888 1.463 2.887.731 3.609 5.028 3.609 7.954a54 54 0 0 1-1.444 7.954c-.722 2.835.722 2.103 2.887 4.298a23.1 23.1 0 0 1 1.444 9.142c-.722 2.926-2.887 7.955-2.887 8.686 0 .732 1.443 2.194 2.165 2.926a17.2 17.2 0 0 1 .722 13.714c-2.398 7.987-7.153 15.039-13.624 20.206-1.324.587-1.434 2.48-1.443 3.354V234h-5.685l-.001-44.168c-.01-.805-.12-2.704-1.443-3.375-6.471-5.167-11.226-12.218-13.624-20.206a17.2 17.2 0 0 1 .722-13.714c.722-.731 2.165-1.463 2.165-2.926 0-1.462-2.165-5.76-2.887-8.685a23.1 23.1 0 0 1 1.444-9.143c2.165-2.103 3.609-1.372 2.887-4.297a54 54 0 0 1-1.444-7.955c0-2.925 1.444-7.222 3.61-7.954s2.165-1.463 2.887-1.463v-9.143c.721-2.834 1.443-10.057 7.85-10.788h.721Zm-112.812 0 .727.183h1.454c5.728.731 7.182 7.954 7.182 10.788v.885c.007 3.015.07 7.845.728 8.258a7.8 7.8 0 0 0 2.909 1.463c2.181.732 2.909 5.029 2.909 7.954a19.2 19.2 0 0 1-1.455 7.955c-.727 2.925 1.455 2.194 2.91 4.297a15.07 15.07 0 0 1 1.454 9.143c-.727 2.925-2.91 7.223-2.91 8.685s1.455 2.195 2.183 2.926a20.22 20.22 0 0 1 1.454 13.714 36.57 36.57 0 0 1-14.364 20.206c-1.454.732-1.454 2.926-1.454 3.566V234h-5.818v-43.611c0-.732.727-2.926-.728-3.566a36.56 36.56 0 0 1-14.454-20.206 20.22 20.22 0 0 1 1.454-13.714 5.5 5.5 0 0 0 1.455-2.926 75 75 0 0 1-2.182-8.686 11.4 11.4 0 0 1 1.455-9.142c1.454-2.195 3.636-1.463 2.909-4.298a17.45 17.45 0 0 1-2.182-7.954c0-2.926.727-7.223 3.636-7.954a7.9 7.9 0 0 0 2.819-2.012c-.05-3.064.194-6.125.727-9.142 0-2.835 1.454-10.149 7.182-10.789m84.314 105.8 2.822 6.4h-62l2.822-6.4zm-6.221-54.8L409 192h-53l4.401-51zm-31.268 16.162h-7.978v15.713h7.978zm26.866 0h-7.977v15.713h7.977zM409 130.85l-2.89 6.3h-47.22l-2.89-6.3zM364.682 112v8.584h8.617V112h18.492v8.584h8.527V112H411v15h-57v-15zm18.414-97c5.624.722 7.052 7.847 7.052 10.012a49 49 0 0 1 .714 8.568c0 .722.714 1.444 2.142 1.444a7.87 7.87 0 0 1 3.57 7.125 38.7 38.7 0 0 1-1.427 7.847c-.714 2.165.714 2.165 2.142 4.24a9.1 9.1 0 0 1 1.428 8.568c0 2.074-2.142 6.404-2.142 7.847.379.782.86 1.51 1.428 2.165a18.2 18.2 0 0 1 1.428 12.808c-1.788 7.772-6.662 14.46-13.478 18.49a2.895 2.895 0 0 0-1.428 2.886h-4.285v-.18a2.895 2.895 0 0 0-1.428-2.887c-6.56-4.16-11.166-10.833-12.765-18.49a15.57 15.57 0 0 1 .715-12.808 9.8 9.8 0 0 0 1.428-2.164 43.3 43.3 0 0 0-2.143-7.847c0-2.887-.714-6.404 1.429-8.57 2.142-2.164 3.57-2.164 2.856-4.238a16.66 16.66 0 0 1-1.428-7.847c0-2.165 0-5.683 2.856-7.126 2.142 0 2.142-.721 2.857-1.443v-8.388c.714-2.165 1.428-9.02 7.051-10.012z" mask="url(#b)" opacity=".17"/></g></svg>