<svg xmlns="http://www.w3.org/2000/svg" width="233" height="80"><g fill="#FFF" fill-rule="nonzero"><path d="M24.39 12.38H2.549S0 12.38 0 14.59v50.308a2.286 2.286 0 0 0 2.549 2.209h9.514V57.005a.7.7 0 0 0 0-.186c0-.278 0-.648-.231-.787l-1.02-.664a15.7 15.7 0 0 1-3.351-2.982 10.8 10.8 0 0 1-2.086-4.742 6.2 6.2 0 0 1 .371-3.552c.188-.393.439-.753.741-1.066.306-.329.357-.82.124-1.205a13 13 0 0 1-.757-1.961 5.4 5.4 0 0 1-.154-1.993 3.1 3.1 0 0 1 .772-1.807c.37-.386.834-.448 1.128-1.066a11.1 11.1 0 0 1-.603-3.352 5.8 5.8 0 0 1 .124-1.544 2.07 2.07 0 0 1 1.344-1.329c.247-.139.51-.2.756-.324.248-.124.294-.216.294-.757 0-2.41.324-4.634 1.544-5.87a2.98 2.98 0 0 1 2.225-.71 3.1 3.1 0 0 1 2.255.803c1.344 1.19 1.668 3.46 1.668 5.87 0 .54 0 .617.324.756l.788.325a2.15 2.15 0 0 1 1.406 1.328c.127.504.17 1.027.123 1.545a11 11 0 0 1-.617 3.352c.293.617.787.68 1.173 1.08a3.1 3.1 0 0 1 .82 1.762 5.2 5.2 0 0 1-.17 2.008 11.6 11.6 0 0 1-.789 1.946.96.96 0 0 0 .124 1.205c.318.307.58.668.772 1.066a5.8 5.8 0 0 1 .464 3.506 10.44 10.44 0 0 1-2.24 4.742 16 16 0 0 1-3.506 2.966l-1.02.68c-.185.138-.17.493-.231.771a.7.7 0 0 0 0 .186v10.102h9.839s2.548 0 2.548-2.21V14.59a2.286 2.286 0 0 0-2.625-2.21M39.388 21.046h3.861l6.07 15.446 6.04-15.446h3.83l-8.31 20.25h-3.088zm30.12 20.111v-1.869a6.18 6.18 0 0 1-4.897 2.178c-2.873 0-5.406-1.637-5.406-4.634 0-3.352 2.626-4.974 6.179-4.974a13 13 0 0 1 4.201.618v-.293c0-2.085-1.313-3.244-3.738-3.244-1.5-.001-2.98.326-4.34.958l-.989-2.796a13.3 13.3 0 0 1 5.9-1.328c4.48 0 6.673 2.363 6.673 6.41v8.99zm.093-6.348a10 10 0 0 0-3.491-.618c-2.178 0-3.476.896-3.476 2.348 0 1.436 1.298 2.24 2.935 2.24 2.302 0 4.032-1.298 4.032-3.183zm7.63-8.82h3.475v2.348a5.5 5.5 0 0 1 4.758-2.673c3.413 0 5.406 2.302 5.406 5.84v9.653h-3.553v-8.619c0-2.363-1.174-3.707-3.243-3.707a3.336 3.336 0 0 0-3.43 3.753v8.573h-3.413zm26.815-4.943h3.537v16.883h10.596v3.228H104.06zm26.69 20.111v-1.869a6.18 6.18 0 0 1-4.896 2.178c-2.873 0-5.406-1.637-5.406-4.634 0-3.352 2.626-4.974 6.179-4.974a13 13 0 0 1 4.2.618v-.293c0-2.085-1.327-3.244-3.737-3.244-1.5-.001-2.98.326-4.34.958l-.989-2.796a13.3 13.3 0 0 1 5.777-1.22c4.495 0 6.673 2.363 6.673 6.41v8.99zm.093-6.348c-1.117-.412-2.3-.621-3.49-.618-2.178 0-3.476.896-3.476 2.348 0 1.436 1.298 2.24 2.935 2.24 2.301 0 4.031-1.298 4.031-3.183zm7.492-8.82h3.49v2.348a5.47 5.47 0 0 1 4.743-2.673c3.429 0 5.406 2.302 5.406 5.84v9.653h-3.476v-8.619c0-2.363-1.189-3.707-3.259-3.707a3.352 3.352 0 0 0-3.429 3.753v8.573h-3.475zm16.604 13.16 1.545-2.348a8.57 8.57 0 0 0 4.974 1.87c1.544 0 2.363-.619 2.363-1.638 0-1.174-1.545-1.545-3.398-2.132-2.24-.602-4.742-1.544-4.742-4.448 0-2.873 2.379-4.634 5.406-4.634a10.4 10.4 0 0 1 5.576 1.73l-1.375 2.332a8.84 8.84 0 0 0-4.278-1.436c-1.36 0-2.132.618-2.132 1.544 0 1.097 1.637 1.545 3.43 2.132 2.208.695 4.633 1.7 4.633 4.418 0 3.182-2.44 4.772-5.638 4.772a10.66 10.66 0 0 1-6.364-2.162m14.798-5.499a7.816 7.816 0 0 1 7.723-7.955h.185a7.54 7.54 0 0 1 6.04 2.642l-2.163 2.332a5.07 5.07 0 0 0-3.877-1.977 4.54 4.54 0 0 0-4.371 4.82 4.634 4.634 0 0 0 4.634 4.896 5.4 5.4 0 0 0 3.939-1.9l1.977 2.131a7.94 7.94 0 0 1-14.056-5.004zm17.253-13.469h3.476v8.156c1-1.67 2.81-2.687 4.757-2.673 3.414 0 5.406 2.302 5.406 5.84v9.653h-3.49v-8.619c0-2.363-1.174-3.707-3.244-3.707a3.336 3.336 0 0 0-3.43 3.753v8.573h-3.475zm17.007 13.47a8.094 8.094 0 0 1 16.187 0 7.924 7.924 0 0 1-7.986 7.892h-.154a7.847 7.847 0 0 1-8.047-7.646zm12.712 0a4.634 4.634 0 0 0-4.48-4.897h-.185a4.634 4.634 0 0 0-4.634 4.819 4.634 4.634 0 0 0 4.51 4.88h.124a4.634 4.634 0 0 0 4.665-4.803m7.738 3.305V28.97h-1.93v-2.981h1.93v-4.17h3.476v4.17h4.093v2.98h-4.093v7.446a1.668 1.668 0 0 0 1.884 1.9 4.74 4.74 0 0 0 2.147-.525v2.904c-.943.528-2.008.8-3.09.787-2.594-.061-4.417-1.189-4.417-4.525M49.428 52.186c-1.622-.356-2.008-.742-2.008-1.437 0-.664.618-1.19 1.544-1.19.78.003 1.532.288 2.117.804l.494-.649a3.88 3.88 0 0 0-2.595-.896 2.18 2.18 0 0 0-2.425 2.008c0 1.205.788 1.761 2.471 2.132 1.684.37 1.916.71 1.916 1.39 0 .726-.65 1.251-1.638 1.251a3.46 3.46 0 0 1-2.487-1.004l-.525.618a4.36 4.36 0 0 0 3.09 1.174c1.467 0 2.517-.819 2.517-2.085-.077-1.159-.834-1.761-2.471-2.116m7.414-3.29h.834v7.367h-.834zm11.677 5.9-4.649-5.9h-.772v7.367h.818v-6.04l4.742 6.04h.665v-7.367h-.804zm8.712-5.9h-2.564v7.367h2.564a3.676 3.676 0 0 0 3.908-3.676 3.66 3.66 0 0 0-3.908-3.691m3.09 3.707a2.84 2.84 0 0 1-3.09 2.888h-1.73v-5.823h1.73a2.86 2.86 0 0 1 3.09 2.92zm8.371-.417c-1.622-.356-1.992-.742-1.992-1.437 0-.664.602-1.19 1.544-1.19a3.26 3.26 0 0 1 2.132.804l.479-.649a3.8 3.8 0 0 0-2.58-.896 2.18 2.18 0 0 0-2.425 2.008c0 1.205.772 1.761 2.471 2.132 1.7.37 1.916.71 1.916 1.39 0 .726-.649 1.251-1.638 1.251a3.52 3.52 0 0 1-2.517-1.004l-.51.618a4.3 4.3 0 0 0 3.09 1.174c1.451 0 2.501-.819 2.501-2.085-.03-1.159-.834-1.761-2.47-2.116m15.37-2.719.2.68 1.39-.433v6.55h.819v-7.415h-.603zm7.877.185h4.047l-3.321 6.611h.91l3.353-6.75v-.617h-4.99zm12.326 2.425 2.394-2.564v-.617h-4.634v.756h3.599l-2.317 2.61.17.495h.463c1.22 0 2.07.51 2.07 1.421a1.545 1.545 0 0 1-1.545 1.421c-.908.1-1.804-.28-2.363-1.004l-.618.54a3.37 3.37 0 0 0 2.75 1.314 2.286 2.286 0 0 0 2.425-2.27c0-1.376-1.112-1.993-2.394-2.102m7.29-3.181v.756h4.047l-3.32 6.611h.926l3.336-6.75v-.617z"/></g></svg>