<svg xmlns="http://www.w3.org/2000/svg" width="51" height="32"><g fill="none" fill-rule="evenodd"><path fill="#FFF" stroke="#D0D0D0" d="M.5.5h50v31H.5z"/><path fill="#FF4785" d="M18.019 14.095c.398-.264.847-.39 1.29-.39.781 0 1.547.39 2.003 1.106.345.542.463 1.19.33 1.823a2.412 2.412 0 0 1-.839 1.386l3.75-2.743a5.44 5.44 0 0 0-.79-2.085 5.268 5.268 0 0 0-3.342-2.344 5.188 5.188 0 0 0-3.993.75l1.59 2.496v.001zm13.95 4.405a2.368 2.368 0 0 1-1.5-1.053c-.714-1.121-.4-2.625.703-3.353L27.23 16.98c.112.723.37 1.434.785 2.087a5.28 5.28 0 0 0 4.459 2.461c.988 0 1.987-.28 2.876-.866l-1.59-2.498a2.326 2.326 0 0 1-1.792.337"/><path fill="#C40041" d="M36.916 13.192a5.293 5.293 0 0 0-3.343-2.344c-1.385-.3-2.803-.035-4.05.79l-.307.225-4.664 3.413-3.748 2.744a2.36 2.36 0 0 1-.577.345 2.356 2.356 0 0 1-2.738-.681 2.462 2.462 0 0 1-.173-.237l-2.452 1.619a5.267 5.267 0 0 0 3.891 2.433h.006c.184.02.37.03.554.03 1.018 0 2.025-.303 2.94-.908l.006-.005.301-.22 4.669-3.417 3.94-2.885a2.45 2.45 0 0 1 .386-.205l.048-.02c.066-.026.132-.05.2-.07l.019-.005a2.39 2.39 0 0 1 .188-.045l.047-.009c.062-.01.125-.02.188-.025l.023-.003c.063-.005.127-.008.191-.008h.02c.047.001.093.005.14.008.033.002.067.003.1.007a2.242 2.242 0 0 1 .678.179l.063.03c.046.022.091.043.135.068l.071.041c.04.024.079.048.117.074l.07.05a2.687 2.687 0 0 1 .278.239c.018.018.036.035.053.054.04.041.076.085.112.13.01.013.023.025.033.039.047.06.091.122.133.187l2.452-1.618"/><path fill="#D62560" d="m18.019 14.094-1.59-2.496c-2.454 1.62-3.156 4.97-1.566 7.467l2.453-1.618a2.422 2.422 0 0 1-.382-1.361 2.437 2.437 0 0 1 1.085-1.992m16.445.717a2.44 2.44 0 0 1 .33 1.823 2.407 2.407 0 0 1-1.032 1.529l1.59 2.498a5.368 5.368 0 0 0 2.301-3.405 5.607 5.607 0 0 0 .117-1.02l.001-.04a5.431 5.431 0 0 0-.854-3.004l-2.453 1.618"/><path fill="#FF4785" d="M18.019 14.095c.398-.264.847-.39 1.29-.39.781 0 1.547.39 2.003 1.106.345.542.463 1.19.33 1.823a2.412 2.412 0 0 1-.839 1.386l3.75-2.743a5.44 5.44 0 0 0-.79-2.085 5.268 5.268 0 0 0-3.342-2.344 5.188 5.188 0 0 0-3.993.75l1.59 2.496v.001zm13.95 4.405a2.368 2.368 0 0 1-1.5-1.053c-.714-1.121-.4-2.625.703-3.353L27.23 16.98c.112.723.37 1.434.785 2.087a5.28 5.28 0 0 0 4.459 2.461c.988 0 1.987-.28 2.876-.866l-1.59-2.498a2.326 2.326 0 0 1-1.792.337"/><path fill="#C40041" d="M36.916 13.192a5.293 5.293 0 0 0-3.343-2.344c-1.385-.3-2.803-.035-4.05.79l-.307.225-4.664 3.413-3.748 2.744a2.36 2.36 0 0 1-.577.345 2.356 2.356 0 0 1-2.738-.681 2.462 2.462 0 0 1-.173-.237l-2.452 1.619a5.267 5.267 0 0 0 3.891 2.433h.006c.184.02.37.03.554.03 1.018 0 2.025-.303 2.94-.908l.006-.005.301-.22 4.669-3.417 3.94-2.885a2.45 2.45 0 0 1 .386-.205l.048-.02c.066-.026.132-.05.2-.07l.019-.005a2.39 2.39 0 0 1 .188-.045l.047-.009c.062-.01.125-.02.188-.025l.023-.003c.063-.005.127-.008.191-.008h.02c.047.001.093.005.14.008.033.002.067.003.1.007a2.242 2.242 0 0 1 .678.179l.063.03c.046.022.091.043.135.068l.071.041c.04.024.079.048.117.074l.07.05a2.687 2.687 0 0 1 .278.239c.018.018.036.035.053.054.04.041.076.085.112.13.01.013.023.025.033.039.047.06.091.122.133.187l2.452-1.618"/><path fill="#D62560" d="m18.019 14.094-1.59-2.496c-2.454 1.62-3.156 4.97-1.566 7.467l2.453-1.618a2.422 2.422 0 0 1-.382-1.361 2.437 2.437 0 0 1 1.085-1.992m16.445.717a2.44 2.44 0 0 1 .33 1.823 2.407 2.407 0 0 1-1.032 1.529l1.59 2.498a5.368 5.368 0 0 0 2.301-3.405 5.607 5.607 0 0 0 .117-1.02l.001-.04a5.431 5.431 0 0 0-.854-3.004l-2.453 1.618"/></g></svg>