<svg xmlns="http://www.w3.org/2000/svg" width="51" height="32"><g fill="none" fill-rule="evenodd"><path fill="#FFF" stroke="#D0D0D0" d="M.5.5h50v31H.5z"/><path fill="#FF4785" d="M18.019 14.095c.398-.264.847-.39 1.29-.39.781 0 1.547.39 2.003 1.106.345.542.463 1.19.33 1.823a2.4 2.4 0 0 1-.839 1.386l3.75-2.743a5.4 5.4 0 0 0-.79-2.085 5.27 5.27 0 0 0-3.342-2.344 5.19 5.19 0 0 0-3.993.75zm13.95 4.405a2.37 2.37 0 0 1-1.5-1.053c-.714-1.121-.4-2.625.703-3.353L27.23 16.98c.112.723.37 1.434.785 2.087a5.28 5.28 0 0 0 4.459 2.461c.988 0 1.987-.28 2.876-.866l-1.59-2.498a2.33 2.33 0 0 1-1.792.337"/><path fill="#C40041" d="M36.916 13.192a5.3 5.3 0 0 0-3.343-2.344c-1.385-.3-2.803-.035-4.05.79l-.307.225-4.664 3.413-3.748 2.744q-.094.076-.195.143a2.356 2.356 0 0 1-3.12-.48 3 3 0 0 1-.173-.236l-2.452 1.619a5.27 5.27 0 0 0 3.891 2.433h.006q.277.03.554.03c1.018 0 2.025-.303 2.94-.908l.006-.005.301-.22 4.669-3.417 3.94-2.885a2.5 2.5 0 0 1 .386-.205l.048-.02q.098-.04.2-.07l.019-.005a2 2 0 0 1 .188-.045l.047-.009q.093-.016.188-.025l.023-.003q.095-.008.191-.008h.02q.07.003.14.008.05.002.1.007a2.2 2.2 0 0 1 .678.179l.063.03q.069.032.135.068l.071.041q.06.035.117.074l.07.05a3 3 0 0 1 .278.239q.027.026.053.054.059.062.112.13.017.019.033.039.07.09.133.187z"/><path fill="#D62560" d="m18.019 14.094-1.59-2.496c-2.454 1.62-3.156 4.97-1.566 7.467l2.453-1.618a2.42 2.42 0 0 1-.382-1.361 2.44 2.44 0 0 1 1.085-1.992m16.445.717a2.44 2.44 0 0 1 .33 1.823 2.4 2.4 0 0 1-1.032 1.529l1.59 2.498a5.37 5.37 0 0 0 2.301-3.405 5.6 5.6 0 0 0 .117-1.02l.001-.04a5.43 5.43 0 0 0-.854-3.004z"/><path fill="#FF4785" d="M18.019 14.095c.398-.264.847-.39 1.29-.39.781 0 1.547.39 2.003 1.106.345.542.463 1.19.33 1.823a2.4 2.4 0 0 1-.839 1.386l3.75-2.743a5.4 5.4 0 0 0-.79-2.085 5.27 5.27 0 0 0-3.342-2.344 5.19 5.19 0 0 0-3.993.75zm13.95 4.405a2.37 2.37 0 0 1-1.5-1.053c-.714-1.121-.4-2.625.703-3.353L27.23 16.98c.112.723.37 1.434.785 2.087a5.28 5.28 0 0 0 4.459 2.461c.988 0 1.987-.28 2.876-.866l-1.59-2.498a2.33 2.33 0 0 1-1.792.337"/><path fill="#C40041" d="M36.916 13.192a5.3 5.3 0 0 0-3.343-2.344c-1.385-.3-2.803-.035-4.05.79l-.307.225-4.664 3.413-3.748 2.744q-.094.076-.195.143a2.356 2.356 0 0 1-3.12-.48 3 3 0 0 1-.173-.236l-2.452 1.619a5.27 5.27 0 0 0 3.891 2.433h.006q.277.03.554.03c1.018 0 2.025-.303 2.94-.908l.006-.005.301-.22 4.669-3.417 3.94-2.885a2.5 2.5 0 0 1 .386-.205l.048-.02q.098-.04.2-.07l.019-.005a2 2 0 0 1 .188-.045l.047-.009q.093-.016.188-.025l.023-.003q.095-.008.191-.008h.02q.07.003.14.008.05.002.1.007a2.2 2.2 0 0 1 .678.179l.063.03q.069.032.135.068l.071.041q.06.035.117.074l.07.05a3 3 0 0 1 .278.239q.027.026.053.054.059.062.112.13.017.019.033.039.07.09.133.187z"/><path fill="#D62560" d="m18.019 14.094-1.59-2.496c-2.454 1.62-3.156 4.97-1.566 7.467l2.453-1.618a2.42 2.42 0 0 1-.382-1.361 2.44 2.44 0 0 1 1.085-1.992m16.445.717a2.44 2.44 0 0 1 .33 1.823 2.4 2.4 0 0 1-1.032 1.529l1.59 2.498a5.37 5.37 0 0 0 2.301-3.405 5.6 5.6 0 0 0 .117-1.02l.001-.04a5.43 5.43 0 0 0-.854-3.004z"/></g></svg>