<svg xmlns="http://www.w3.org/2000/svg" xmlns:xlink="http://www.w3.org/1999/xlink" width="640" height="360"><defs><path id="a" d="M.912.503h13.433v13.236H.912z"/></defs><g fill="none" fill-rule="evenodd"><g transform="translate(490.973 145.5)"><mask id="b" fill="#fff"><use xlink:href="#a"/></mask><path fill="#FF4785" d="M7.625 13.74C3.915 13.734.908 10.77.912 7.115.915 3.46 3.925.501 7.637.503c3.711.004 6.717 2.97 6.713 6.625-.002 3.655-3.014 6.615-6.725 6.611" mask="url(#b)"/></g><path fill="#FF4785" d="M422.917 202.876c-11.089 0-20.114-8.886-20.114-19.81 0-7.394 4.134-14.123 10.794-17.557 2.815-1.45 6.304-.385 7.78 2.395 1.477 2.777.39 6.208-2.43 7.664-2.848 1.467-4.617 4.342-4.617 7.499 0 4.662 3.855 8.455 8.587 8.455 3.391 0 6.473-1.97 7.85-5.02 1.3-2.864 4.713-4.15 7.613-2.874 2.909 1.277 4.215 4.633 2.919 7.495-3.232 7.138-10.448 11.753-18.382 11.753M538.262 211.747h11.528v-48.216h-11.528zM232.826 211.747h11.528v-48.216h-11.528zM448.027 202.744h11.528v-39.211h-11.528zM305.392 202.744h11.528v-39.211h-11.528z"/><path fill="#FF4785" d="M382.674 202.876c-11.09 0-20.113-8.886-20.113-19.81 0-10.922 9.023-19.81 20.113-19.81 6.782 0 13.062 3.337 16.8 8.926l-9.627 6.246a8.607 8.607 0 0 0-7.173-3.818c-4.734 0-8.587 3.794-8.587 8.457 0 4.662 3.853 8.455 8.587 8.455a8.617 8.617 0 0 0 7.139-3.756l9.574 6.322c-3.747 5.504-9.994 8.788-16.713 8.788m-129.557-28.267c-4.734 0-8.587 3.795-8.587 8.458 0 4.662 3.853 8.455 8.587 8.455 4.735 0 8.588-3.793 8.588-8.455 0-4.663-3.853-8.458-8.588-8.458m0 28.267c-11.09 0-20.113-8.887-20.113-19.81 0-10.922 9.023-19.81 20.113-19.81 11.091 0 20.114 8.888 20.114 19.81 0 10.923-9.023 19.81-20.114 19.81m43.75-28.267c-4.734 0-8.587 3.795-8.587 8.458 0 4.662 3.853 8.455 8.587 8.455 4.735 0 8.588-3.793 8.588-8.455 0-4.663-3.853-8.458-8.588-8.458m0 28.267c-11.09 0-20.113-8.887-20.113-19.81 0-10.922 9.023-19.81 20.113-19.81 11.091 0 20.114 8.888 20.114 19.81 0 10.923-9.023 19.81-20.114 19.81m232.72-28.267c-4.735 0-8.588 3.795-8.588 8.458 0 4.662 3.853 8.455 8.588 8.455 4.734 0 8.587-3.793 8.587-8.455 0-4.663-3.853-8.458-8.587-8.458m0 28.267c-11.091 0-20.114-8.887-20.114-19.81 0-10.922 9.023-19.81 20.114-19.81 11.09 0 20.114 8.888 20.114 19.81 0 10.923-9.023 19.81-20.114 19.81m-101.359-.996c-2.292 0-4.457-1.355-5.357-3.578-1.178-2.91.265-6.214 3.222-7.374 3.287-1.29 5.412-4.374 5.412-7.862 0-4.663-3.853-8.458-8.587-8.458-3.568 0-6.8 2.21-8.044 5.497-1.12 2.939-4.44 4.424-7.417 3.333-2.984-1.096-4.498-4.365-3.385-7.304 2.92-7.704 10.495-12.877 18.846-12.877 11.09 0 20.114 8.886 20.114 19.809 0 8.162-4.975 15.389-12.673 18.41a5.864 5.864 0 0 1-2.13.404m57.173.606h-11.528v-20.122c0-2.493-.715-4.406-2.131-5.684-1.24-1.125-2.986-1.742-4.914-1.742-.75 0-7.333.202-7.333 7.182h-11.527c0-12.04 9.717-18.536 18.86-18.536 9.23 0 18.573 6.452 18.573 18.78v20.122zM343.221 211.805l-22.117-48.187h12.477l15.005 34.761z"/><path fill="#FF4785" d="M343.187 211.873h-11.7l19.353-48.254h11.697zM109.606 173.705a11.657 11.657 0 0 1 6.297-1.84c3.81 0 7.546 1.84 9.768 5.22a11.194 11.194 0 0 1 1.612 8.603c-.565 2.612-2 4.893-4.09 6.539l18.29-12.946a25.163 25.163 0 0 0-3.848-9.838c-3.757-5.713-9.552-9.642-16.31-11.063-6.765-1.42-13.68-.166-19.478 3.542l7.759 11.779v.004zm68.063 20.786a11.555 11.555 0 0 1-7.324-4.967c-3.48-5.292-1.943-12.388 3.432-15.822l-19.226 13.611a25.075 25.075 0 0 0 3.83 9.849c4.95 7.52 13.269 11.616 21.753 11.616 4.823 0 9.696-1.325 14.034-4.09L186.41 192.9c-2.604 1.668-5.7 2.227-8.742 1.591"/><path fill="#C40041" d="M201.804 169.443a25.599 25.599 0 0 0-11.439-9.537 26.206 26.206 0 0 0-4.87-1.526c-6.76-1.415-13.676-.162-19.758 3.73l-1.502 1.063-22.754 16.107-18.288 12.947c-.303.239-.62.465-.95.676-.6.383-1.226.693-1.863.954-4.645 1.906-10.09.627-13.356-3.215-.3-.353-.586-.722-.847-1.117l-11.964 7.637c3.757 5.713 9.55 9.642 16.31 11.064a26.261 26.261 0 0 0 2.676.418l.027.004c.901.095 1.803.143 2.705.143 4.966 0 9.878-1.435 14.34-4.288l.034-.026 1.47-1.038 22.775-16.125 19.225-13.613a12.054 12.054 0 0 1 1.16-.643c.238-.117.48-.225.722-.325.078-.032.155-.066.233-.094.321-.125.647-.237.977-.331l.091-.022c.303-.084.61-.155.92-.215l.226-.04c.305-.052.61-.092.92-.12.037-.004.073-.01.11-.012.31-.026.62-.04.934-.04.033 0 .067.004.1.004.226.002.45.02.676.036.165.01.331.014.496.032.393.04.786.1 1.177.182.378.08.75.177 1.117.291.342.108.68.235 1.01.37.104.045.205.097.31.145.221.1.44.203.655.317.118.062.232.13.348.196.193.113.384.227.572.35.114.075.225.154.34.232a13.063 13.063 0 0 1 .84.655c.177.153.35.313.517.475.086.084.175.167.259.253.189.196.368.403.545.611.053.064.11.125.16.187.229.284.447.577.65.886l11.964-7.636v-.002"/><path fill="#D62560" d="m109.606 173.701-7.759-11.78c-11.97 7.645-15.394 23.453-7.635 35.24l11.966-7.636a11.248 11.248 0 0 1-1.864-6.427 11.41 11.41 0 0 1 5.292-9.397m80.234 3.383a11.2 11.2 0 0 1 1.612 8.603c-.647 2.991-2.436 5.55-5.04 7.213l7.757 11.788c5.8-3.706 9.789-9.409 11.23-16.068.203-.942.348-1.888.443-2.833.068-.661.11-1.323.125-1.98l.008-.19c.073-4.99-1.35-9.89-4.169-14.173l-11.966 7.636"/><path fill="#FF4785" d="M109.606 173.705a11.657 11.657 0 0 1 6.297-1.84c3.81 0 7.546 1.84 9.768 5.22a11.194 11.194 0 0 1 1.612 8.603c-.565 2.612-2 4.893-4.09 6.539l18.29-12.946a25.163 25.163 0 0 0-3.848-9.838c-3.757-5.713-9.552-9.642-16.31-11.063-6.765-1.42-13.68-.166-19.478 3.542l7.759 11.779v.004zm68.063 20.786a11.555 11.555 0 0 1-7.324-4.967c-3.48-5.292-1.943-12.388 3.432-15.822l-19.226 13.611a25.075 25.075 0 0 0 3.83 9.849c4.95 7.52 13.269 11.616 21.753 11.616 4.823 0 9.696-1.325 14.034-4.09L186.41 192.9c-2.604 1.668-5.7 2.227-8.742 1.591"/><path fill="#C40041" d="M201.804 169.443a25.599 25.599 0 0 0-11.439-9.537 26.206 26.206 0 0 0-4.87-1.526c-6.76-1.415-13.676-.162-19.758 3.73l-1.502 1.063-22.754 16.107-18.288 12.947c-.303.239-.62.465-.95.676-.6.383-1.226.693-1.863.954-4.645 1.906-10.09.627-13.356-3.215-.3-.353-.586-.722-.847-1.117l-11.964 7.637c3.757 5.713 9.55 9.642 16.31 11.064a26.261 26.261 0 0 0 2.676.418l.027.004c.901.095 1.803.143 2.705.143 4.966 0 9.878-1.435 14.34-4.288l.034-.026 1.47-1.038 22.775-16.125 19.225-13.613a12.054 12.054 0 0 1 1.16-.643c.238-.117.48-.225.722-.325.078-.032.155-.066.233-.094.321-.125.647-.237.977-.331l.091-.022c.303-.084.61-.155.92-.215l.226-.04c.305-.052.61-.092.92-.12.037-.004.073-.01.11-.012.31-.026.62-.04.934-.04.033 0 .067.004.1.004.226.002.45.02.676.036.165.01.331.014.496.032.393.04.786.1 1.177.182.378.08.75.177 1.117.291.342.108.68.235 1.01.37.104.045.205.097.31.145.221.1.44.203.655.317.118.062.232.13.348.196.193.113.384.227.572.35.114.075.225.154.34.232a13.063 13.063 0 0 1 .84.655c.177.153.35.313.517.475.086.084.175.167.259.253.189.196.368.403.545.611.053.064.11.125.16.187.229.284.447.577.65.886l11.964-7.636v-.002"/><path fill="#D62560" d="m109.606 173.701-7.759-11.78c-11.97 7.645-15.394 23.453-7.635 35.24l11.966-7.636a11.248 11.248 0 0 1-1.864-6.427 11.41 11.41 0 0 1 5.292-9.397m80.234 3.383a11.2 11.2 0 0 1 1.612 8.603c-.647 2.991-2.436 5.55-5.04 7.213l7.757 11.788c5.8-3.706 9.789-9.409 11.23-16.068.203-.942.348-1.888.443-2.833.068-.661.11-1.323.125-1.98l.008-.19c.073-4.99-1.35-9.89-4.169-14.173l-11.966 7.636"/><path fill="#FF4785" d="M492.858 202.744h11.525v-39.285h-11.525z"/></g></svg>