<svg xmlns="http://www.w3.org/2000/svg" width="98" height="80"><g fill="none" fill-rule="nonzero"><path fill="#FFF" d="M29.643 77.776v-5.091a3.04 3.04 0 0 0-.853-2.328 2.95 2.95 0 0 0-2.288-.888 3.09 3.09 0 0 0-2.814 1.442 2.93 2.93 0 0 0-2.647-1.442 2.64 2.64 0 0 0-2.346 1.205v-1.001h-1.742v8.103h1.76v-4.489a1.9 1.9 0 0 1 .475-1.548c.38-.418.924-.64 1.484-.607 1.156 0 1.742.764 1.742 2.138v4.506h1.76v-4.489a1.93 1.93 0 0 1 .482-1.542c.378-.416.92-.64 1.477-.613 1.19 0 1.76.764 1.76 2.138v4.506zm9.8-4.048v-4.047h-1.76v.984a3.02 3.02 0 0 0-2.512-1.188c-2.313 0-4.188 1.9-4.188 4.243s1.875 4.242 4.188 4.242a3.02 3.02 0 0 0 2.513-1.188v.985h1.742zm-6.475 0c.078-1.331 1.192-2.356 2.507-2.306s2.351 1.157 2.33 2.49-1.091 2.406-2.408 2.413a2.38 2.38 0 0 1-1.789-.751 2.44 2.44 0 0 1-.657-1.846zm43.698-4.242a4.5 4.5 0 0 1 1.675.322c.51.207.973.512 1.366.9.387.384.695.842.904 1.349a4.55 4.55 0 0 1 0 3.394c-.209.506-.517.965-.904 1.349a4.2 4.2 0 0 1-1.366.9 4.68 4.68 0 0 1-3.434 0 4.1 4.1 0 0 1-1.357-.9 4.1 4.1 0 0 1-.896-1.35 4.56 4.56 0 0 1 0-3.393c.208-.505.512-.964.896-1.35.39-.387.85-.692 1.357-.899a4.5 4.5 0 0 1 1.742-.348zm0 1.697a2.6 2.6 0 0 0-.997.187c-.298.12-.569.303-.795.534a2.5 2.5 0 0 0-.528.849 2.98 2.98 0 0 0 0 2.104c.117.316.297.605.528.848.226.232.497.414.795.535a2.7 2.7 0 0 0 1.986 0c.312-.117.598-.3.837-.535.232-.243.411-.532.528-.848a2.98 2.98 0 0 0 0-2.104 2.5 2.5 0 0 0-.528-.849 2.4 2.4 0 0 0-.837-.534 2.6 2.6 0 0 0-1.006-.238zm-27.758 2.545c0-2.545-1.558-4.242-3.794-4.242-2.313.033-4.162 1.959-4.13 4.302s1.934 4.216 4.247 4.183a4.82 4.82 0 0 0 3.275-1.137l-.838-1.307a3.78 3.78 0 0 1-2.328.849c-1.198.104-2.26-.776-2.396-1.986h5.939c.025-.212.025-.424.025-.662m-5.956-.712a2.07 2.07 0 0 1 2.103-1.96 1.97 1.97 0 0 1 1.416.558c.38.37.6.877.61 1.41zm13.285-1.273a5.1 5.1 0 0 0-2.513-.696c-.955 0-1.524.356-1.524.95s.603.696 1.357.798l.837.119c1.742.254 2.798 1.001 2.798 2.426s-1.34 2.648-3.644 2.648a5.72 5.72 0 0 1-3.46-1.052l.838-1.375a4.23 4.23 0 0 0 2.664.849c1.19 0 1.826-.357 1.826-.985 0-.458-.452-.712-1.407-.848l-.838-.119c-1.792-.255-2.764-1.07-2.764-2.393 0-1.612 1.307-2.596 3.35-2.596a5.9 5.9 0 0 1 3.259.848zm8.376-.458h-2.84v3.657c0 .848.285 1.357 1.156 1.357a3.2 3.2 0 0 0 1.542-.458l.502 1.51a4.05 4.05 0 0 1-2.178.628c-2.06 0-2.78-1.12-2.78-3.003v-3.691H58.39v-1.612h1.625v-2.461h1.759v2.46h2.839zm6.022-1.816c.423.002.842.076 1.24.22l-.536 1.698a2.8 2.8 0 0 0-1.089-.204c-1.14 0-1.675.747-1.675 2.087v4.54h-1.742v-8.103h1.725v.984a2.36 2.36 0 0 1 2.11-1.188zm12.045 7.127a.8.8 0 0 1 .318.06q.146.06.26.17.111.11.176.254a.8.8 0 0 1-.176.882.8.8 0 0 1-.26.17.8.8 0 0 1-.318.068.84.84 0 0 1-.754-.492.8.8 0 0 1 0-.628.9.9 0 0 1 .176-.255.828.828 0 0 1 .536-.23zm0 1.434a.59.59 0 0 0 .436-.187.633.633 0 0 0-.193-1.018.6.6 0 0 0-.486 0 .6.6 0 0 0-.2.136.634.634 0 0 0 0 .849c.116.12.276.187.443.186zm.05-1.01a.33.33 0 0 1 .218.068c.052.044.08.11.076.179a.2.2 0 0 1-.059.152.3.3 0 0 1-.176.077l.243.28h-.193l-.226-.28h-.075v.28h-.16v-.781zm-.184.145v.203h.184q.05.015.1 0a.09.09 0 0 0 0-.076.09.09 0 0 0 0-.076.2.2 0 0 0-.1 0z"/><path fill="#7673C0" d="M35.716 7.852H62.1v48.033H35.716z"/><path fill="#EB001B" d="M37.39 31.873c-.01-9.375 4.238-18.233 11.518-24.021C36.545-1.99 18.79-.557 8.123 11.145c-10.668 11.702-10.668 29.744 0 41.446s28.422 13.136 40.785 3.294c-7.278-5.786-11.525-14.64-11.517-24.012"/><path fill="#00A1DF" d="M94.817 51.05v-1.155h.394v-.248h-.997v.248h.394v1.196zm1.935 0v-1.444h-.302l-.351 1.031-.352-1.031h-.31v1.444h.218v-1.083l.326.938h.227l.326-.938v1.093zM97.69 31.873c-.003 11.691-6.594 22.356-16.975 27.466s-22.731 3.769-31.807-3.454c7.274-5.791 11.521-14.645 11.521-24.017S56.182 13.643 48.908 7.852C57.984.624 70.338-.72 80.722 4.39s16.976 15.78 16.976 27.474z"/></g></svg>