<svg width="107" height="32" xmlns="http://www.w3.org/2000/svg"><g fill="none" fill-rule="evenodd"><path stroke="#D0D0D0" fill="#FFF" d="M.5.5h50v31H.5z"/><path d="M15.529 21.686a.76.76 0 0 1 .505.282c.064.079.112.162.154.256l.013.03c.043.104.081.225.123.38l.01.038c.029.117.185.76.243.967.096.342.195.605.302.794.05.09.1.157.143.2a.26.26 0 0 0 .056.041c.096.03.123.027.149.012.046-.028.11-.1.199-.233l.015-.024.167-.266c.071-.11.133-.195.204-.275.113-.126.239-.226.396-.292a.889.889 0 0 1 .589-.031c.118.032.227.082.343.15l.026.016.028.017c.05.031.104.067.168.11l.262.184.037.025.032.02c.453.3.714.353 1.01.183l.014-.009.015-.009a.687.687 0 1 1 .724 1.169 1.979 1.979 0 0 1-1.566.26c-.35-.086-.65-.24-1.01-.483l-.026-.017a9.346 9.346 0 0 1-.074-.052l-.108-.075-.065.104-.022.034c-.197.302-.386.515-.654.674-.37.22-.801.264-1.262.12-.425-.132-.742-.442-.988-.877a4.427 4.427 0 0 1-.356-.857l-.01-.03-.036.094c-.08.2-.148.357-.217.5l-.015.03c-.078.16-.154.293-.236.404-.137.186-.289.323-.508.393-.282.09-.531.024-.759-.12a1.943 1.943 0 0 1-.366-.314 6.92 6.92 0 0 1-.6-.761l-.02-.028c-.06-.085-.121-.175-.186-.271l-.054-.082-.144-.217-.342-.526-.051-.077-.041-.062a4.324 4.324 0 0 0-.059-.085l-.012-.017h-.001a.687.687 0 0 1-.225-.584l.002-.012a.687.687 0 0 1 .766-.599c.164.02.267.078.366.159.037.03.067.06.097.093.03.034.06.071.092.115l.012.017c.049.066.105.15.183.266l.335.516.069.104.08.121.068.102.044.066.128.185.037.052.039.055c.052.073.101.14.148.202l.024.032.018-.043.015-.035c.044-.107.093-.233.15-.383l.19-.494c.175-.456.219-.554.32-.742l.003-.007c.065-.12.13-.22.207-.306a.884.884 0 0 1 .221-.18.756.756 0 0 1 .472-.097Zm8.238-1.14 3.695 3.697-4.12 1a.42.42 0 0 1-.511-.492l.002-.01.934-4.195Zm-11.99 2.492.003.002a.575.575 0 0 0 .004.002l-.006-.004Zm22.349-12.853 3.697 3.697-9.36 9.36-3.695-3.697 9.358-9.36Zm-15.42 8.566c.407.882 1.889 1.587 3.798 1.82l-.378 1.446c-2.03-.324-3.493-1.192-3.53-2.218v-.558c0-.168.038-.332.11-.49Zm-7.595-1.41c.499 1.087 2.621 1.904 5.164 1.904.49 0 .964-.031 1.414-.088l.056-.007v.635c0 .29.067.571.197.837-.524.079-1.084.122-1.667.122-2.884 0-5.228-1.05-5.274-2.354L11 18.35v-.518c0-.168.038-.332.11-.49Zm7.596-1.271c.5 1.087 2.63 1.903 5.181 1.903.119 0 .236-.002.353-.005l-1.418 1.384-.019.07c-2.375-.223-4.167-1.167-4.208-2.303v-.559c0-.168.038-.332.11-.49Zm-7.596-1.41c.498 1.087 2.617 1.904 5.157 1.904.49 0 .963-.03 1.412-.088l.056-.007v1.5c-.466.061-.958.094-1.468.094-2.88 0-5.22-1.05-5.267-2.353L11 15.67v-.519c0-.168.038-.332.11-.49Zm7.596-1.408c.5 1.086 2.63 1.903 5.181 1.903 1.704 0 3.22-.364 4.188-.93l-2.334 2.278c-.577.098-1.202.151-1.854.151-2.894 0-5.245-1.05-5.292-2.354v-.558c0-.168.038-.332.11-.49Zm-2.439-3.197c.49 0 .963.03 1.412.087l.056.008v5.104c-.466.061-.958.094-1.468.094-2.88 0-5.22-1.048-5.267-2.348L11 12.96v-.517c0-1.319 2.359-2.388 5.268-2.388Zm12.801.55c.07.152.109.309.112.47v.54c0 1.321-2.37 2.393-5.293 2.393-2.894 0-5.245-1.05-5.292-2.354v-.558c0-.169.038-.332.11-.49.5 1.086 2.63 1.902 5.182 1.902 2.552 0 4.681-.816 5.181-1.903Zm9.892-2.98.02.019 1.648 1.649c.49.49.495 1.275.015 1.77l-.015.016-1.842 1.842-3.698-3.697 1.58-1.58a1.636 1.636 0 0 1 2.292-.019ZM23.888 6c2.894 0 5.245 1.048 5.292 2.348v.557c0 1.319-2.369 2.388-5.292 2.388-2.894 0-5.245-1.048-5.292-2.348v-.558C18.595 7.07 20.964 6 23.887 6Z" fill="#2C3341" fill-rule="nonzero"/><path stroke="#D0D0D0" fill="#FFF" d="M56.5.5h50v31h-50z"/><path d="M76.422 13.25c-.41 0-.809.094-1.182.27-.534.251-1.018.672-1.413 1.23a5.332 5.332 0 0 0-.649 1.25c-.324.886-.32 1.605.011 2.078.188.268.579.588 1.374.589h.003c1.448 0 2.53-.947 3.214-2.813.18-.493.42-1.415-.017-2.037-.263-.376-.714-.566-1.341-.567Zm8.737 0c-.41 0-.808.094-1.181.27-.534.251-1.018.672-1.413 1.23a5.321 5.321 0 0 0-.649 1.25c-.325.886-.32 1.605.011 2.078.188.268.579.588 1.374.589h.003c1.448 0 2.53-.947 3.213-2.813.182-.493.42-1.415-.016-2.037-.264-.376-.714-.566-1.342-.567Zm-13.388.075c-.476 0-.94 0-1.354.21-.415.21-.781.63-1.063 1.47-.06.18-.093.335-.097.47-.005.136.019.25.07.351.064.122.167.237.295.334.129.097.283.175.449.226l.2.056.305.09a.622.622 0 0 1 .142.06.283.283 0 0 1 .112.113.25.25 0 0 1 .027.108.353.353 0 0 1-.021.126.343.343 0 0 1-.21.233c-.11.044-.275.059-.524.06h-3.11L66.5 18.58h3.33c.312 0 .885 0 1.436-.233.55-.233 1.078-.699 1.301-1.631.084-.35.058-.636-.08-.86-.137-.224-.387-.387-.751-.49l-.177-.052-.262-.075a.351.351 0 0 1-.207-.148.292.292 0 0 1-.031-.236.345.345 0 0 1 .173-.207.7.7 0 0 1 .337-.075h1.935l.04-.06a4.267 4.267 0 0 1 1.25-1.187H71.77Zm8.698 0c-.86 0-1.502.434-1.805 1.247l-1.462 4.007h1.602l.752-2.06 1.416.001.403-1.103h-1.411l.227-.64a.338.338 0 0 1 .326-.205h1.67l.04-.06c.354-.499.854-.902 1.323-1.187h-3.08Zm7.435.003-1.919 5.254h1.63l.698-1.85c.034.077.446 1.85.446 1.85h1.713s-.311-1.303-.54-1.829c-.06-.135-.12-.287-.203-.414.484-.18 1.186-.564 1.476-1.344.178-.48.168-.867-.03-1.152-.24-.345-.73-.514-1.496-.515h-1.775Zm3.344 0c.103.081.192.174.266.28.19.273.262.597.219.968h.97l-1.462 4.008h1.461l1.464-4.008h1.878l.456-1.248h-5.252Zm-2.27 1.085h.27c.491 0 .675.144.508.591-.156.42-.437.68-.972.68h-.279l.473-1.271Zm-12.94.026c.5 0 .615.29.175 1.489-.452 1.232-.78 1.543-1.273 1.543-.482 0-.65-.304-.2-1.53.336-.917.77-1.502 1.297-1.502Zm8.737 0c.5 0 .616.29.176 1.489-.452 1.232-.78 1.543-1.273 1.543h-.001c-.481 0-.65-.304-.2-1.53.336-.917.772-1.502 1.298-1.502Z" fill="#EE7F00" fill-rule="nonzero"/></g></svg>