<svg width="640" height="360" xmlns="http://www.w3.org/2000/svg"><path d="m286.919 216.1 33.435-30.264a6.521 6.521 0 0 1 4.345-1.668h40.637c1.73 0 3.34.675 4.587 1.906l24.422 23.473h50.937c1.77 0 3.219-1.43 3.219-3.177v-6.355c0-1.748-1.449-3.177-3.219-3.177h-45.666l-20.6-19.819a19.271 19.271 0 0 0-13.64-5.6h-40.637c-4.184 0-8.087 1.549-11.386 3.971-3.38-2.581-7.524-4.091-11.789-4.091h-27.963c-5.109 0-10.018 2.026-13.679 5.601l-20.077 19.898h-45.626c-1.771 0-3.219 1.43-3.219 3.177v6.355c0 1.747 1.448 3.177 3.219 3.177h50.937l23.859-23.552a6.505 6.505 0 0 1 4.546-1.867h27.963c.362.874.121.278.443 1.152l-23.739 21.487a26.972 26.972 0 0 0-1.689 38.486c5.753 6.196 23.577 15.609 38.987 1.668l9.173-8.301 50.535 40.472c2.736 2.184 3.178 6.235.925 8.936l-3.822 4.647c-2.173 2.621-6.196 3.217-9.053.914l-7.162-5.72-16.697 20.256c-3.018 3.694-8.449 4.051-11.829 1.35l-12.312-10.366-4.184 5.084c-6.719 8.142-18.91 9.413-26.796 3.138l-36.171-34.197h-53.914c-1.771 0-3.219 1.43-3.219 3.178v6.354c0 1.748 1.448 3.178 3.219 3.178h48.764l32.791 30.979c11.99 9.572 28.888 9.294 40.637-.079l2.897 2.462c3.862 3.098 8.57 4.726 13.478 4.726 6.438 0 12.513-2.78 16.657-7.784l8.812-10.684c6.598 3.535 17.26 3.575 24.14-4.766l3.823-4.647c2.494-3.018 3.862-6.593 4.224-10.207h54.84c1.77 0 3.219-1.43 3.219-3.178v-6.354c0-1.748-1.449-3.178-3.219-3.178h-58.42c-1.006-1.39-2.133-2.74-3.541-3.892l-49.046-39.32 11.427-10.366c2.615-2.383 2.816-6.395.402-8.976-2.414-2.582-6.478-2.741-9.093-.397l-30.216 27.325c-5.794 5.203-15.531 4.766-20.801-.874-5.432-5.838-5.07-15.052.925-20.494Z"/><path d="M276.291 75.361c-3.529 0-6.951.808-10.165 2.317-4.59 2.167-8.754 5.781-12.152 10.576-2.208 3.114-4.098 6.723-5.578 10.759-2.79 7.619-2.759 13.798.094 17.871 1.617 2.302 4.98 5.052 11.816 5.06h.026c12.454 0 21.75-8.137 27.638-24.186 1.555-4.246 3.607-12.171-.143-17.519-2.265-3.233-6.14-4.873-11.536-4.878Zm75.144 0c-3.526 0-6.951.808-10.163 2.317-4.592 2.167-8.753 5.781-12.152 10.576-2.21 3.114-4.098 6.723-5.578 10.759-2.793 7.619-2.759 13.798.096 17.871 1.615 2.302 4.975 5.052 11.817 5.06h.021c12.456 0 21.755-8.137 27.637-24.186 1.561-4.246 3.607-12.171-.14-17.519-2.268-3.233-6.142-4.873-11.538-4.878Zm-115.139.645c-4.098 0-8.08 0-11.648 1.804-3.565 1.804-6.714 5.415-9.138 12.637-.525 1.553-.803 2.891-.839 4.052-.037 1.164.166 2.154.608 3.015.546 1.05 1.431 2.037 2.536 2.87a12.491 12.491 0 0 0 3.858 1.944l1.715.487c.904.26 1.963.57 2.634.772.392.12.824.275 1.214.511.392.231.744.542.965.972.145.285.223.599.231.934.011.337-.047.7-.18 1.084-.332.979-.837 1.612-1.799 1.998-.957.386-2.369.51-4.512.526h-26.748l-4.229 11.58h28.632c2.694 0 7.619 0 12.352-2.006 4.733-2.004 9.274-6.009 11.195-14.027.723-3.013.499-5.468-.684-7.396-1.188-1.926-3.336-3.326-6.465-4.22 0 0-.699-.203-1.523-.439-.819-.236-1.769-.505-2.252-.645-.801-.228-1.418-.69-1.782-1.278a2.507 2.507 0 0 1-.265-2.027c.216-.757.736-1.361 1.485-1.779.754-.415 1.742-.643 2.897-.643h16.643c.117-.168.223-.352.34-.52 3.04-4.288 6.72-7.756 10.751-10.206Zm74.805 0c-7.406 0-12.919 3.735-15.522 10.726l-12.582 34.46h13.783l6.465-17.713 12.181.008 3.466-9.488-12.141-.008 1.955-5.493c.406-.985 1.381-1.768 2.806-1.768l14.362.005c.12-.171.226-.355.343-.523 3.04-4.288 7.344-7.756 11.375-10.206Zm63.941.025-16.506 45.189h14.02l5.999-15.906c.294.655 3.833 15.906 3.833 15.906h14.74s-2.681-11.207-4.653-15.733c-.507-1.164-1.035-2.468-1.742-3.559 4.163-1.542 10.196-4.853 12.695-11.562 1.534-4.124 1.446-7.458-.259-9.902-2.068-2.969-6.275-4.425-12.868-4.433Zm28.755 0a11.29 11.29 0 0 1 2.288 2.411c1.631 2.343 2.255 5.128 1.883 8.319h8.348l-12.581 34.47h12.57l12.589-34.47h16.152l3.918-10.73Zm-19.518 9.329h2.314c4.231.003 5.809 1.237 4.376 5.087-1.344 3.613-3.762 5.845-8.36 5.845h-.018l-2.38-.002 4.068-10.93Zm-111.296.224h.003c4.306.006 5.292 2.494 1.511 12.807-3.885 10.6-6.704 13.267-10.948 13.267h-.008c-4.135-.003-5.586-2.611-1.716-13.162 2.889-7.875 6.631-12.912 11.159-12.912Zm75.144 0h.005c4.304.006 5.292 2.494 1.508 12.807-3.882 10.6-6.704 13.267-10.945 13.267h-.01c-4.137-.003-5.581-2.611-1.714-13.162 2.886-7.875 6.631-12.912 11.156-12.912Z" fill="#ee7f00"/></svg>