<svg xmlns="http://www.w3.org/2000/svg" xmlns:xlink="http://www.w3.org/1999/xlink" width="640" height="360"><defs><path id="a" d="M0 0h184.3v193.136H0z"/><path id="c" d="M92.024.316C25.498.316.567 28.528.441 96.188v7.638C.126 193.642-4.608 192.57 92.15 192.57c66.524 0 91.455-28.277 91.583-95.875v-7.7C184.048 1.262 188.528.251 98.713.251c-2.21.065-4.418.065-6.689.065"/><linearGradient id="d" x1="49.994%" x2="49.994%" y1="7.677%" y2="89.436%"><stop offset="0%" stop-color="#EF4136"/><stop offset="100%" stop-color="#B22E25"/></linearGradient></defs><g fill="none" fill-rule="evenodd"><path fill="#414042" fill-rule="nonzero" d="M201.9 285.214h31.812v5.555H207.77v21.018h21.334v5.427H207.77v21.839h-5.87zM241.792 312.419c0-18.242 5.49-28.026 20.828-28.026 15.335 0 20.764 9.658 20.764 28.026 0 18.87-5.429 27.391-20.764 27.391-15.528.064-20.828-8.962-20.828-27.391m35.47 0c0-15.023-3.725-22.532-14.642-22.532-11.045 0-14.645 7.445-14.645 22.532 0 15.083 3.41 21.9 14.645 21.9 11.107 0 14.642-6.311 14.642-21.9m48.346 25.877s-8.52 1.578-14.327 1.578c-15.715 0-19.186-10.288-19.186-27.581 0-17.737 3.723-27.9 19.186-27.9 6.753 0 14.391 1.643 14.391 1.643l-.315 5.364s-8.331-1.326-13.445-1.326c-11.676 0-13.695 7.828-13.695 22.219 0 14.073 1.957 21.9 13.885 21.9 4.482 0 13.319-1.262 13.319-1.262zm28.215-4.166c8.331 0 12.875-3.346 12.875-11.297v-37.619h5.87v37.619c0 11.738-6.186 16.977-18.745 16.977-12.056 0-18.242-5.175-18.242-16.977v-37.619h5.87v37.619c-.064 7.89 4.354 11.297 12.372 11.297M386.328 285.214h10.35l15.212 45.634 15.21-45.634h10.288v53.839h-5.87v-47.211h-1.073l-15.337 45.318h-6.563l-15.274-45.318h-1.075v47.211h-5.868z"/><g transform="translate(230.367 20)"><mask id="b" fill="#fff"><use xlink:href="#a"/></mask><g mask="url(#b)"><mask id="e" fill="#fff"><use xlink:href="#c"/></mask><path fill="url(#d)" fill-rule="nonzero" d="M-4.608.316h193.2v193.326h-193.2z" mask="url(#e)"/></g></g><path fill="#FFF" fill-rule="nonzero" d="M289.129 54.65h77.695v23.227h-53.018v37.619h42.162v22.468h-42.162v41.91h-24.677z"/></g></svg>