<svg xmlns="http://www.w3.org/2000/svg" xmlns:xlink="http://www.w3.org/1999/xlink" width="51" height="32"><defs><path id="a" d="M0 0h13.822v14.485H0z"/><path id="c" d="M6.902.024C1.912.024.042 2.14.033 7.214v.573c-.024 6.736-.379 6.656 6.878 6.656 4.99 0 6.86-2.121 6.869-7.191v-.577c.024-6.58.36-6.656-6.377-6.656-.165.005-.33.005-.501.005"/><linearGradient id="d" x1="49.994%" x2="49.994%" y1="7.677%" y2="89.436%"><stop offset="0%" stop-color="#EF4136"/><stop offset="100%" stop-color="#B22E25"/></linearGradient></defs><g fill="none" fill-rule="evenodd"><path fill="#FFF" stroke="#D0D0D0" d="M.5.5h50v31H.5z"/><path fill="#414042" fill-rule="nonzero" d="M17.143 23.891h2.385v.417h-1.945v1.576h1.6v.407h-1.6v1.638h-.44zM20.134 25.931c0-1.368.412-2.101 1.563-2.101 1.15 0 1.557.724 1.557 2.101 0 1.416-.407 2.055-1.557 2.055-1.165.005-1.563-.672-1.563-2.055m2.66 0c0-1.126-.279-1.69-1.097-1.69-.829 0-1.099.559-1.099 1.69 0 1.132.256 1.643 1.099 1.643.833 0 1.098-.473 1.098-1.643m3.626 1.941s-.64.119-1.075.119c-1.179 0-1.439-.772-1.439-2.069 0-1.33.28-2.092 1.44-2.092.506 0 1.078.123 1.078.123l-.023.402s-.625-.1-1.009-.1c-.875 0-1.027.588-1.027 1.667 0 1.055.147 1.643 1.042 1.643.336 0 .999-.095.999-.095l.014.402zm2.116-.312c.625 0 .965-.251.965-.848v-2.82h.44v2.82c0 .88-.463 1.274-1.405 1.274-.904 0-1.368-.388-1.368-1.274v-2.82h.44v2.82c-.005.592.326.848.928.848M30.975 23.891h.776l1.141 3.423 1.141-3.423h.771v4.038h-.44v-3.541h-.081l-1.15 3.399h-.492l-1.146-3.399h-.08v3.541h-.44z"/><g transform="translate(19.278 4)"><mask id="b" fill="#fff"><use xlink:href="#a"/></mask><g mask="url(#b)"><mask id="e" fill="#fff"><use xlink:href="#c"/></mask><path fill="url(#d)" fill-rule="nonzero" mask="url(#e)" d="M-.346.024h14.49v14.499H-.346z"/></g></g><path fill="#FFF" fill-rule="nonzero" d="M23.685 6.599h5.827v1.742h-3.977v2.821h3.163v1.685h-3.163v3.144h-1.85z"/></g></svg>