<svg xmlns="http://www.w3.org/2000/svg" width="51" height="32"><g fill="none" fill-rule="evenodd"><path fill="#FFF" stroke="#D0D0D0" d="M.5.5h50v31H.5z"/><path fill="#1A1919" d="M16.514 11.387c.34-.425.571-.997.51-1.58-.497.025-1.105.328-1.456.754-.316.364-.595.96-.523 1.518.56.049 1.117-.279 1.47-.692m.503.802c-.811-.049-1.501.46-1.889.46-.387 0-.98-.436-1.623-.424-.835.012-1.61.484-2.034 1.235-.872 1.503-.23 3.732.618 4.956.412.605.908 1.272 1.562 1.248.617-.024.86-.4 1.61-.4s.969.4 1.623.388c.678-.012 1.102-.606 1.514-1.212.472-.69.665-1.356.678-1.393-.013-.012-1.308-.51-1.32-2-.012-1.247 1.017-1.84 1.065-1.878-.58-.86-1.489-.956-1.804-.98m6.093 3.11h1.619c1.228 0 1.927-.66 1.927-1.807s-.699-1.802-1.92-1.802H23.11zm1.997-4.8c1.764 0 2.992 1.217 2.992 2.986 0 1.777-1.254 2.999-3.036 2.999H23.11v3.105h-1.41v-9.09zm7.625 6.62v-.51l-1.569.101c-.881.057-1.341.384-1.341.958 0 .554.478.913 1.228.913.957 0 1.682-.611 1.682-1.461m-4.283.587c0-1.166.888-1.833 2.525-1.934l1.758-.107v-.504c0-.737-.485-1.14-1.348-1.14-.712 0-1.228.365-1.336.926h-1.272c.038-1.178 1.146-2.035 2.646-2.035 1.612 0 2.664.844 2.664 2.155v4.522h-1.304v-1.09h-.032c-.371.712-1.19 1.159-2.078 1.159-1.31 0-2.223-.78-2.223-1.952m6.836 4.314v-1.09c.088.013.302.025.415.025.624 0 .976-.264 1.19-.944l.127-.403-2.388-6.614h1.474l1.663 5.366h.032l1.662-5.366h1.436l-2.475 6.948c-.567 1.593-1.216 2.116-2.589 2.116-.107 0-.453-.013-.547-.038"/></g></svg>