<svg xmlns="http://www.w3.org/2000/svg" width="640" height="360"><path fill="#1A1919" fill-rule="evenodd" d="M206.174 124.642c4.082-5.103 6.85-11.957 6.12-18.959-5.972.297-13.261 3.94-17.48 9.05-3.79 4.372-7.142 11.51-6.27 18.219 6.706.581 13.405-3.35 17.63-8.31m6.042 9.621c-9.735-.581-18.013 5.525-22.663 5.525-4.652 0-11.773-5.234-19.476-5.091-10.022.145-19.321 5.812-24.41 14.826-10.462 18.034-2.76 44.782 7.415 59.466 4.94 7.266 10.895 15.265 18.74 14.98 7.412-.29 10.32-4.8 19.328-4.8 9.005 0 11.622 4.8 19.47 4.655 8.136-.145 13.224-7.27 18.164-14.544 5.667-8.282 7.988-16.278 8.136-16.717-.148-.148-15.693-6.109-15.835-23.992-.149-14.974 12.203-22.095 12.785-22.537-6.976-10.317-17.874-11.48-21.654-11.77m73.12 37.329h19.424c14.74 0 23.128-7.936 23.128-21.692 0-13.754-8.389-21.616-23.052-21.616h-19.5zm23.96-57.594c21.163 0 35.902 14.588 35.902 35.826 0 21.314-15.042 35.978-36.431 35.978h-23.43v37.262h-16.93V114zm91.495 79.44v-6.124l-18.82 1.21c-10.58.68-16.096 4.608-16.096 11.488 0 6.65 5.742 10.959 14.736 10.959 11.488 0 20.18-7.333 20.18-17.534m-51.394 7.027c0-13.983 10.656-21.994 30.307-23.203l21.087-1.286v-6.045c0-8.845-5.819-13.68-16.173-13.68-8.543 0-14.74 4.381-16.025 11.11h-15.268c.456-14.135 13.756-24.413 31.746-24.413 19.348 0 31.97 10.127 31.97 25.85v54.266h-15.646V209.99h-.378c-4.457 8.54-14.285 13.905-24.942 13.905-15.72 0-26.678-9.369-26.678-23.428m82.03 51.772v-13.073c1.058.148 3.625.3 4.986.3 7.482 0 11.715-3.173 14.286-11.338l1.512-4.835-28.647-79.36h17.685l19.955 64.394h.378l19.953-64.395h17.234L469.064 227.3c-6.801 19.12-14.588 25.396-31.063 25.396-1.286 0-5.444-.151-6.575-.457"/></svg>