<svg width="641" height="361" xmlns="http://www.w3.org/2000/svg"><g fill="#ff5b24"><path d="M524.417 119.4c18.091 0 30.955 8.442 36.583 29.347l-19.699 3.216c-.402-10.452-6.834-14.071-16.482-14.071-7.236 0-12.864 3.217-12.864 8.443 0 4.02 2.814 8.04 11.256 9.648l14.874 2.814c14.473 2.814 22.513 12.462 22.513 25.327 0 19.296-17.286 28.944-33.769 28.944-17.286 0-36.583-8.844-39.397-30.552l19.699-3.217c1.206 11.257 8.04 15.277 19.296 15.277 8.442 0 14.07-3.216 14.07-8.442 0-4.824-2.814-8.443-12.06-10.051l-13.668-2.412c-14.473-2.814-23.317-12.864-23.317-25.728.402-20.101 18.493-28.543 32.965-28.543ZM411.854 121.812v12.06c6.03-8.442 15.277-14.472 28.945-14.472 17.286 0 37.387 14.472 37.387 45.427 0 32.563-19.297 48.241-39.397 48.241-10.452 0-20.101-4.02-27.337-14.07v42.613h-21.708V121.812Zm0 44.221c0 18.091 10.453 27.739 22.111 27.739 11.256 0 22.512-8.844 22.512-27.739 0-18.492-11.256-27.337-22.512-27.337-11.658 0-22.111 8.443-22.111 27.337ZM307.332 121.812v12.06c6.03-8.442 15.276-14.472 28.944-14.472 17.287 0 37.387 14.472 37.387 45.427 0 32.563-19.296 48.241-39.397 48.241-10.452 0-20.1-4.02-27.336-14.07v42.613h-21.709V121.812Zm0 44.221c0 18.091 10.452 27.739 22.11 27.739 11.256 0 22.513-8.844 22.513-27.739 0-18.492-11.257-27.337-22.513-27.337-11.256 0-22.11 8.443-22.11 27.337ZM222.91 196.586c14.874 0 23.316-7.236 31.356-17.689 4.422-5.628 10.051-6.834 14.071-3.618 4.02 3.216 4.422 9.247 0 14.875-11.659 15.276-26.533 24.522-45.427 24.522-20.503 0-38.593-11.256-51.056-30.954-3.618-5.227-2.814-10.855 1.206-13.669s10.051-1.608 13.669 4.02c8.844 13.267 20.904 22.513 36.181 22.513Zm27.738-49.447c0 7.236-5.628 12.06-12.06 12.06s-12.06-4.824-12.06-12.06c0-7.236 5.628-12.061 12.06-12.061s12.06 5.227 12.06 12.061ZM105.121 121.812l20.502 59.9 20.101-59.9h23.718l-35.377 88.844h-17.688L81 121.812Z"/></g></svg>