<svg xmlns="http://www.w3.org/2000/svg" width="51" height="32"><path fill="#fff" stroke="#d0d0d0" stroke-linecap="round" stroke-linejoin="round" d="M.5.5h50v31H.5Z"/><g fill="#ff5b24"><path d="M41.288 12.2c1.341 0 2.295.626 2.712 2.175l-1.46.239c-.03-.775-.507-1.043-1.222-1.043-.536 0-.954.238-.954.626 0 .298.209.596.835.715l1.102.208c1.073.209 1.669.924 1.669 1.878 0 1.43-1.281 2.145-2.503 2.145-1.281 0-2.712-.655-2.92-2.264l1.46-.239c.089.835.596 1.133 1.43 1.133.626 0 1.043-.239 1.043-.626 0-.358-.208-.626-.894-.745l-1.013-.179c-1.073-.209-1.728-.954-1.728-1.907.029-1.49 1.37-2.116 2.443-2.116M32.944 12.379v.894c.447-.626 1.132-1.073 2.146-1.073 1.281 0 2.771 1.073 2.771 3.367 0 2.414-1.43 3.576-2.92 3.576-.775 0-1.49-.298-2.027-1.043v3.159h-1.609v-8.88Zm0 3.278c0 1.341.775 2.056 1.639 2.056.835 0 1.669-.656 1.669-2.056 0-1.371-.834-2.027-1.669-2.027-.864 0-1.639.626-1.639 2.027M25.196 12.379v.894c.447-.626 1.132-1.073 2.146-1.073 1.281 0 2.771 1.073 2.771 3.367 0 2.414-1.43 3.576-2.92 3.576-.775 0-1.49-.298-2.027-1.043v3.159h-1.609v-8.88Zm0 3.278c0 1.341.775 2.056 1.639 2.056.834 0 1.669-.656 1.669-2.056 0-1.371-.835-2.027-1.669-2.027s-1.639.626-1.639 2.027M18.938 17.922c1.103 0 1.728-.537 2.324-1.312.328-.417.745-.506 1.043-.268.298.239.328.686 0 1.103-.864 1.132-1.966 1.818-3.367 1.818-1.52 0-2.861-.835-3.785-2.295-.268-.387-.208-.805.09-1.013.298-.209.745-.119 1.013.298.656.983 1.55 1.669 2.682 1.669m2.056-3.666a.877.877 0 0 1-.894.894.877.877 0 0 1-.894-.894c0-.536.417-.894.894-.894s.894.388.894.894M10.206 12.379l1.52 4.44 1.49-4.44h1.758l-2.622 6.586h-1.311l-2.623-6.586Z"/></g></svg>