<svg width="166" height="80" xmlns="http://www.w3.org/2000/svg" xmlns:xlink="http://www.w3.org/1999/xlink"><defs><path d="M9.522.316C4.442.316.437 4.32.437 9.408v43.096c0 4.906 4.178 9.092 9.093 9.092h11.095v-3.64c0-5.088 4.177-9.092 9.084-9.092h30.189c-.066-20.72-11.346-38.808-28.11-48.548H9.523Z" id="a"/><path id="c" d="M.429.098h145.289v25.466H.428z"/></defs><g fill="none" fill-rule="evenodd"><path d="M29.709 51.938h124.01V12.483c0-4.906-4.178-9.093-9.093-9.093H9.522c-5.08 0-9.084 4.004-9.084 9.093v43.096c0 4.906 4.178 9.092 9.092 9.092h11.095v-3.64c0-5.088 4.178-9.093 9.084-9.093" fill="#00468C"/><g transform="translate(0 3.075)"><mask id="b" fill="#fff"><use xlink:href="#a"/></mask><path d="M9.522.316C4.442.316.437 4.32.437 9.408v43.096c0 4.906 4.178 9.092 9.093 9.092h11.095v-3.64c0-5.088 4.177-9.092 9.084-9.092h30.189c-.066-20.72-11.346-38.808-28.11-48.548H9.523Z" mask="url(#b)"/></g><g transform="translate(20.196 51.84)"><mask id="d" fill="#fff"><use xlink:href="#c"/></mask><path d="M136.617.098h-3.094v3.64c0 4.907-4.178 9.093-9.092 9.093H.429v3.64c0 4.906 4.178 9.093 9.092 9.093h127.104c5.088 0 9.093-4.004 9.093-9.093V9.2c-.008-5.097-4.186-9.1-9.1-9.1" fill="#AAD7F5" mask="url(#d)"/></g><path d="M153.719 55.579v-3.64H29.709c-5.088 0-9.093 4.004-9.093 9.092v3.64h124.01c4.915.182 9.093-4.368 9.093-9.092" fill="#50B4E6"/><path d="M10.258 18.299c2.912 0 3.822-1.456 4.004-2.912h-1.456c-.182.728-.546 1.82-2.184 1.82-1.456 0-2.548-1.092-2.548-2.548 0-1.82 1.092-2.73 2.366-2.73s2.184.546 2.366 1.638h1.639c-.183-1.456-1.457-2.73-4.005-2.73-2.73 0-4.004 1.82-4.004 3.822s1.274 3.64 3.822 3.64M9.166 25.207l1.274-3.094 1.274 2.912-2.548.182c0-.182 0 0 0 0Zm.364-4.178-3.094 7.09h1.638l.728-1.82h3.276l.728 1.82h1.639l-3.095-7.09H9.53ZM11.168 33.936H8.62v-2.003h2.548c.728 0 1.274.364 1.274 1.092 0 .728-.364.91-1.274.91m1.638.547c.729-.182 1.093-.729 1.093-1.639 0-1.092-.547-2.002-2.367-2.002H7.164v7.09H8.62v-2.73h2.548c1.092 0 1.274.729 1.274 1.638 0 .547 0 .91.182 1.092h1.63c-.364-.364-.364-1.092-.364-1.456 0-1.083-.182-1.811-1.084-1.993M7.164 41.936h2.548v5.824h1.456v-5.824h2.722v-1.274H7.164zM8.984 54.669h4.542v-1.092H8.984v-1.82h4.724v-1.093h-6.18v7.09h6.18v-1.083H8.984zM133.722 31.942c-.91 0-1.638-.728-1.638-1.639v-4.178h13.452V21.22h-13.452v-5.634h13.452V10.48h-18.359v19.625a6.517 6.517 0 0 0 6.545 6.544h11.822v-4.906h-11.822v.199ZM54.984 30.122V10.48h-4.906v19.824a6.516 6.516 0 0 0 6.544 6.544h11.823v-4.906H56.622c-.91 0-1.638-.728-1.638-1.82M77.901 10.48h-4.906v19.625a6.517 6.517 0 0 0 6.545 6.544h11.822v-4.906h-11.83c-.911 0-1.64-.728-1.64-1.638v-4.178h13.453V21.02H77.901v-5.452h13.453V10.48H77.9ZM115.537 26.845c0 2.73-2.184 5.089-5.088 5.089h-3.458c-2.73 0-5.089-2.185-5.089-5.089V10.298h-4.914v16.365c0 5.452 4.542 10.003 10.003 10.003h3.458c5.452 0 10.002-4.542 10.002-10.003V10.298h-4.906v16.547h-.008ZM36.08 32.124H25.712v-6.545h10.366a3.263 3.263 0 0 1 3.276 3.277c0 1.82-1.646 3.268-3.276 3.268ZM25.53 15.577h9.639c1.274 0 2.549 1.092 2.549 2.548 0 1.274-1.092 2.548-2.549 2.548h-9.638v-5.096Zm15.638 6.908c.91-1.274 1.456-2.73 1.456-4.36 0-4.004-3.277-7.454-7.455-7.454H20.443v26.177h15.454a8.153 8.153 0 0 0 8.183-8.183c.182-2.366-1.092-4.906-2.912-6.18Z" fill="#FFF"/></g></svg>