<svg width="51" height="32" xmlns="http://www.w3.org/2000/svg"><path d="M.5.5h50v31H.5Z" fill="#fff" stroke="#d0d0d0" stroke-linejoin="round" stroke-linecap="round"/><path d="M36.457 16.15a.408.408 0 0 1-.054-.063l-.055-.077a2.777 2.777 0 0 1-.168-.275c-.058-.107-.125-.221-.187-.335-.062-.113-.122-.242-.179-.364-.057-.123-.114-.236-.159-.335-.046-.099-.089-.198-.123-.275a1.113 1.113 0 0 1-.061-.167.232.232 0 0 1-.016-.044v-.042a.23.23 0 0 1 .071-.167.266.266 0 0 1 .196-.069.206.206 0 0 1 .167.057.38.38 0 0 1 .069.112l.055.124.104.236c.04.094.088.198.142.312.054.114.105.222.167.335l.159.313c.044.084.092.165.144.244.086-.133.163-.271.233-.413.082-.168.167-.327.236-.489.069-.163.141-.305.198-.427l.098-.233a.387.387 0 0 1 .071-.112.192.192 0 0 1 .167-.057.262.262 0 0 1 .196.069.216.216 0 0 1 .07.167.148.148 0 0 1 0 .042l-.013.043-.065.168a7.007 7.007 0 0 1-.121.274c-.048.108-.099.22-.156.335-.057.116-.12.243-.182.365a4.578 4.578 0 0 1-.186.335c-.062.1-.12.203-.167.276a.913.913 0 0 1-.109.131v1.172a.248.248 0 0 1-.07.185.255.255 0 0 1-.36 0 .257.257 0 0 1-.079-.192v-1.172M33.283 16.527c-.057.181-.108.348-.149.502-.042.154-.086.28-.123.379a.253.253 0 0 1-.502-.067c0-.025.004-.05.012-.074l.07-.233c.04-.13.092-.293.156-.49.064-.198.136-.409.213-.641a28.1 28.1 0 0 1 .239-.692c.082-.227.167-.44.244-.636a4.1 4.1 0 0 1 .226-.479.264.264 0 0 1 .123-.128.504.504 0 0 1 .207-.034.555.555 0 0 1 .213.039c.056.027.1.076.12.135.054.112.117.265.189.454s.153.395.233.616c.08.221.167.445.241.669.074.225.152.442.218.64l.167.502c.045.136.077.229.087.271a.234.234 0 0 1 .012.074.21.21 0 0 1-.069.167.26.26 0 0 1-.196.066.204.204 0 0 1-.145-.042.29.29 0 0 1-.076-.121 8.369 8.369 0 0 1-.133-.378c-.052-.154-.106-.321-.168-.502h-1.414m1.255-.491c-.08-.244-.154-.468-.226-.669-.072-.201-.135-.394-.216-.585a1.98 1.98 0 0 1-.058-.145l-.037-.096a.424.424 0 0 0-.037.091 10.026 10.026 0 0 0-.278.735c-.07.206-.144.428-.223.669ZM30.321 15.181a38.73 38.73 0 0 0-.167.67c-.059.243-.117.46-.168.669-.05.21-.108.4-.167.563a1.832 1.832 0 0 1-.127.335.336.336 0 0 1-.317.157.682.682 0 0 1-.167-.025.272.272 0 0 1-.167-.144 2.075 2.075 0 0 1-.128-.348c-.05-.168-.103-.372-.167-.598-.064-.226-.112-.464-.167-.716-.056-.253-.109-.487-.153-.703-.043-.216-.083-.402-.114-.553a8.81 8.81 0 0 1-.051-.274.254.254 0 0 1 0-.039v-.022a.188.188 0 0 1 .073-.155.272.272 0 0 1 .181-.059.297.297 0 0 1 .167.044.23.23 0 0 1 .091.149s.01.062.03.167c.02.105.048.231.08.387.032.155.069.334.107.53.039.196.081.395.126.596.045.201.087.394.131.583.043.189.082.35.12.485.037-.127.079-.273.124-.437l.137-.502c.045-.167.087-.35.129-.524l.117-.489c.037-.154.066-.282.092-.4.027-.117.047-.202.062-.259a.324.324 0 0 1 .107-.168.307.307 0 0 1 .186-.077.311.311 0 0 1 .205.066.284.284 0 0 1 .1.167c.045.183.089.39.137.618.049.228.101.457.153.69.051.232.108.462.167.686.059.224.112.422.167.594.037-.135.079-.296.123-.484.043-.187.085-.381.13-.582.045-.201.091-.395.131-.591.04-.196.08-.372.114-.527.033-.156.061-.283.08-.38.018-.098.032-.151.032-.154a.245.245 0 0 1 .09-.148.29.29 0 0 1 .167-.043.28.28 0 0 1 .183.058.197.197 0 0 1 .074.156v.062c0 .03-.022.12-.054.274l-.115.551c-.046.216-.098.451-.153.7-.055.249-.114.487-.167.713a5.883 5.883 0 0 1-.168.596 1.929 1.929 0 0 1-.127.345.302.302 0 0 1-.167.151.6.6 0 0 1-.236.03.393.393 0 0 1-.198-.076.244.244 0 0 1-.08-.1 2.604 2.604 0 0 1-.121-.355c-.048-.167-.098-.352-.154-.559-.055-.208-.107-.429-.167-.656-.06-.228-.102-.441-.147-.638" fill="#1d1d1b"/><path d="m14.932 20.133-.04.315a.258.258 0 0 0 .226.288h10.23a.26.26 0 0 0 .264-.258.171.171 0 0 0 0-.032l-.042-.315a.449.449 0 0 1 .724-.395c.091.073.149.18.162.296l.04.307c.079.681-.308 1.28-1.004 1.28H15.006c-.69 0-1.075-.599-.996-1.28l.04-.307a.436.436 0 0 1 .482-.391.45.45 0 0 1 .398.492" fill="red"/><path d="M24.357 17.768a.837.837 0 0 0 .88-.832c-.01-.488-.453-.802-.947-.804h-1a.418.418 0 1 1 0-.837h.67c.45-.018.797-.291.819-.715.021-.457-.37-.798-.847-.798h-1.621v3.979h2.046m1.227-3.181c.001.353-.139.691-.39.939l-.025.029.033.02c.498.277.815.793.837 1.363.012.92-.72 1.677-1.64 1.695h-2.511a.44.44 0 0 1-.434-.443v-4.776a.437.437 0 0 1 .444-.446h2.034a1.61 1.61 0 0 1 1.652 1.562v.056M17.642 16.992l.012.034.012-.034c.114-.314.253-.669.398-1.042.146-.374.301-.782.45-1.147.149-.365.295-.7.432-.988.091-.212.203-.415.335-.604a.674.674 0 0 1 .538-.25h.102a.49.49 0 0 1 .321.104c.07.058.116.141.127.231l.638 4.939a.413.413 0 0 1-.109.299.43.43 0 0 1-.309.101.506.506 0 0 1-.322-.094.346.346 0 0 1-.149-.248c-.022-.167-.04-.346-.06-.547-.02-.201-.127-1.06-.156-1.279-.028-.219-.204-1.617-.266-2.124v-.044l-.204.429a9.77 9.77 0 0 0-.226.529c-.082.205-.168.423-.246.654-.079.231-.484 1.349-.484 1.349-.037.102-.107.308-.167.503a4.937 4.937 0 0 1-.138.391.573.573 0 0 1-.77.25.585.585 0 0 1-.256-.253c-.017-.032-.074-.203-.139-.392-.065-.189-.129-.393-.167-.502 0 0-.394-1.128-.482-1.349-.089-.221-.168-.447-.246-.655-.079-.207-.159-.381-.226-.529l-.206-.423v.043c-.062.502-.24 1.902-.268 2.125-.029.222-.132 1.073-.156 1.272-.023.199-.042.383-.062.547a.343.343 0 0 1-.149.248.5.5 0 0 1-.319.094.433.433 0 0 1-.307-.101.413.413 0 0 1-.109-.299l.63-4.934a.358.358 0 0 1 .129-.221.482.482 0 0 1 .321-.114h.102a.672.672 0 0 1 .534.245c.133.189.245.391.335.604q.206.432.432.988t.452 1.147c.146.378.283.728.397 1.042" fill="#1d1d1b"/><path d="M16.394 9.975h7.743c.73 0 1.094.547 1.172 1.271l.034.231a.456.456 0 0 1-.4.502.447.447 0 0 1-.481-.405l-.033-.223c-.032-.274-.148-.487-.427-.487h-7.471c-.28 0-.395.213-.429.487l-.03.219a.446.446 0 0 1-.482.404.455.455 0 0 1-.4-.502l.032-.231c.087-.722.448-1.271 1.172-1.271" fill="red"/></svg>