<svg width="640" height="360" xmlns="http://www.w3.org/2000/svg"><path d="M543.081 187.82c-.419-.42-.801-.873-1.143-1.357l-1.179-1.643c-1.142-1.607-2.321-3.571-3.571-5.857s-2.678-4.714-4-7.143c-1.321-2.428-2.607-5.178-3.821-7.785s-2.428-5.035-3.393-7.142a351.778 351.778 0 0 1-2.607-5.857 23.537 23.537 0 0 1-1.321-3.571 4.771 4.771 0 0 1-.321-.929v-.893a4.924 4.924 0 0 1 1.5-3.571 5.64 5.64 0 0 1 4.178-1.464 4.427 4.427 0 0 1 3.571 1.214 7.835 7.835 0 0 1 1.464 2.393l1.179 2.643a333.497 333.497 0 0 1 2.214 5.035c.857 2 1.893 4.214 3.036 6.643 1.142 2.428 2.249 4.749 3.571 7.142l3.392 6.678a51.143 51.143 0 0 0 3.072 5.214 88.745 88.745 0 0 0 4.964-8.821c1.75-3.571 3.571-6.964 5.035-10.428 1.464-3.464 3-6.499 4.214-9.106l2.107-4.964a7.983 7.983 0 0 1 1.5-2.393 4.142 4.142 0 0 1 3.571-1.214 5.573 5.573 0 0 1 4.179 1.464 4.682 4.682 0 0 1 1.5 3.571c.037.297.037.596 0 .893l-.286.928-1.393 3.572c-.678 1.678-1.535 3.571-2.571 5.856-1.036 2.286-2.107 4.679-3.321 7.143a818.455 818.455 0 0 1-3.893 7.785c-1.321 2.607-2.643 5-3.964 7.143-1.321 2.142-2.571 4.321-3.571 5.892a19.28 19.28 0 0 1-2.322 2.786v24.998a5.319 5.319 0 0 1-1.499 3.964 5.464 5.464 0 0 1-7.679 0 5.535 5.535 0 0 1-1.678-4.107v-24.998M475.37 195.855c-1.214 3.857-2.285 7.428-3.178 10.713a91.116 91.116 0 0 1-2.607 8.071 5.404 5.404 0 1 1-10.714-1.428 4.686 4.686 0 0 1 .25-1.571l1.5-4.964c.857-2.786 1.964-6.25 3.321-10.464 1.357-4.214 2.893-8.714 4.536-13.678a596.585 596.585 0 0 1 5.107-14.749c1.75-4.857 3.571-9.392 5.214-13.571a82.312 82.312 0 0 1 4.821-10.213 5.57 5.57 0 0 1 2.607-2.75 11.094 11.094 0 0 1 4.428-.714 11.598 11.598 0 0 1 4.536.821 5 5 0 0 1 2.571 2.893c1.143 2.392 2.5 5.642 4.035 9.678 1.536 4.035 3.25 8.428 4.964 13.142 1.715 4.714 3.572 9.499 5.143 14.285 1.571 4.785 3.25 9.428 4.643 13.642 1.392 4.214 2.606 7.821 3.571 10.713.964 2.893 1.642 4.893 1.857 5.786.172.505.257 1.037.25 1.571a4.5 4.5 0 0 1-1.465 3.571 5.57 5.57 0 0 1-4.178 1.393 4.424 4.424 0 0 1-3.107-.893 5.932 5.932 0 0 1-1.607-2.571c-.821-2.107-1.75-4.785-2.857-8.071-1.107-3.285-2.25-6.857-3.571-10.714h-30.177m26.784-10.463c-1.714-5.214-3.285-10-4.821-14.285-1.535-4.286-2.893-8.393-4.607-12.464a43.071 43.071 0 0 1-1.25-3.107c-.428-1.214-.714-1.821-.785-2.035a9.057 9.057 0 0 0-.786 1.928c-.464 1.286-.857 2.321-1.286 3.214-1.607 3.929-3.142 8.071-4.642 12.464-1.5 4.392-3.071 9.142-4.75 14.285ZM412.195 167.142a842.925 842.925 0 0 0-3.571 14.285c-1.25 5.178-2.5 9.821-3.571 14.285a114.113 114.113 0 0 1-3.571 11.999 38.964 38.964 0 0 1-2.714 7.143 7.144 7.144 0 0 1-6.75 3.357 14.573 14.573 0 0 1-3.571-.536 5.824 5.824 0 0 1-3.572-3.071 43.133 43.133 0 0 1-2.714-7.428c-1.071-3.572-2.214-7.929-3.571-12.75-1.357-4.821-2.393-9.892-3.571-15.285-1.179-5.392-2.321-10.392-3.25-14.999-.928-4.607-1.786-8.571-2.428-11.785-.643-3.214-1-5.178-1.107-5.857a5.625 5.625 0 0 1 0-.821v-.464a4.033 4.033 0 0 1 1.571-3.321 5.817 5.817 0 0 1 3.857-1.25 6.283 6.283 0 0 1 3.571.928 4.967 4.967 0 0 1 1.929 3.179s.214 1.321.642 3.571c.429 2.25 1.036 4.928 1.715 8.249.678 3.322 1.464 7.143 2.285 11.321a474.33 474.33 0 0 0 2.679 12.714c.964 4.285 1.857 8.392 2.785 12.428.929 4.035 1.75 7.463 2.571 10.356a721.962 721.962 0 0 0 2.643-9.321c.964-3.5 1.964-7.142 2.928-10.713.965-3.572 1.857-7.464 2.75-11.178.893-3.714 1.715-7.143 2.5-10.428.786-3.286 1.393-6.036 1.964-8.536.572-2.499 1-4.321 1.322-5.535a6.787 6.787 0 0 1 2.285-3.571 6.358 6.358 0 0 1 3.964-1.643 6.572 6.572 0 0 1 4.357 1.393 6.104 6.104 0 0 1 2.143 3.571c.964 3.893 1.893 8.321 2.928 13.178 1.036 4.857 2.143 9.749 3.25 14.713a417.534 417.534 0 0 0 3.571 14.642c1.25 4.786 2.393 9 3.572 12.678a285.544 285.544 0 0 0 2.607-10.321c.928-3.999 1.821-8.142 2.785-12.428.964-4.285 1.929-8.428 2.786-12.606.857-4.178 1.714-7.928 2.428-11.249.714-3.322 1.322-6.036 1.714-8.107.393-2.071.679-3.214.679-3.286a5.326 5.326 0 0 1 1.928-3.142 6.144 6.144 0 0 1 3.572-.929 6.032 6.032 0 0 1 3.892 1.25 4.146 4.146 0 0 1 1.572 3.321v.465c.017.285.017.571 0 .857 0 .643-.465 2.571-1.143 5.857-.679 3.285-1.5 7.142-2.464 11.749-.965 4.607-2.072 9.607-3.25 14.928-1.179 5.321-2.429 10.392-3.571 15.213-1.143 4.821-2.286 9.071-3.572 12.714a41.27 41.27 0 0 1-2.714 7.356 6.318 6.318 0 0 1-3.571 3.214c-1.152.39-2.356.606-3.571.643a9.936 9.936 0 0 1-1.464 0 13.344 13.344 0 0 1-2.072-.464 8.23 8.23 0 0 1-2.143-1.143 5.334 5.334 0 0 1-1.714-2.143 54.014 54.014 0 0 1-2.571-7.57c-1.036-3.572-2.107-7.5-3.285-11.928-1.179-4.429-2.286-9.143-3.572-14-1.285-4.856-2.178-9.392-3.142-13.606" fill="#1d1d1b"/><path d="m83.893 272.779-.857 6.714a5.496 5.496 0 0 0 4.821 6.142h218.237a5.57 5.57 0 0 0 5.643-5.499 4.051 4.051 0 0 0 0-.679l-.893-6.714a9.57 9.57 0 0 1 8.5-10.463 9.426 9.426 0 0 1 10.392 8.356l.857 6.536c1.678 14.534-6.571 27.319-21.427 27.319H85.464c-14.713 0-22.927-12.785-21.249-27.319l.857-6.536a9.353 9.353 0 0 1 10.286-8.356c5.23.58 9.02 5.262 8.499 10.499" fill="red"/><path d="M284.953 222.318c9.826.527 18.228-6.996 18.784-16.821a8.45 8.45 0 0 0 0-.928c-.214-10.393-9.678-17.107-20.213-17.142h-21.32a8.928 8.928 0 0 1-8.928-8.928 8.928 8.928 0 0 1 8.928-8.928h14.285c9.606-.393 16.999-6.214 17.463-15.249.464-9.75-7.892-17.035-18.07-17.035h-34.57v84.888h43.641m26.177-67.853a27.996 27.996 0 0 1-8.322 20.034l-.535.607.714.429a34.782 34.782 0 0 1 17.856 29.069c.259 19.629-15.372 35.786-34.998 36.177h-53.568a9.392 9.392 0 0 1-9.249-9.464V129.287a9.355 9.355 0 0 1 9.463-9.499h43.391c18.929-.52 34.703 14.39 35.248 33.319v1.179M141.711 205.783l.25.714.25-.714c2.428-6.714 5.392-14.285 8.499-22.249 3.107-7.964 6.429-16.678 9.607-24.463 3.178-7.785 6.285-14.927 9.214-21.07a71.045 71.045 0 0 1 7.142-12.892 14.284 14.284 0 0 1 11.464-5.321h2.178a10.393 10.393 0 0 1 6.857 2.214 7.677 7.677 0 0 1 2.714 4.928l13.606 105.351a8.82 8.82 0 0 1-2.321 6.393 9.287 9.287 0 0 1-6.607 2.143 10.714 10.714 0 0 1-6.856-2 7.395 7.395 0 0 1-3.179-5.286c-.464-3.571-.857-7.392-1.285-11.678-.429-4.285-2.715-22.606-3.322-27.284a12461.99 12461.99 0 0 1-5.678-45.319v-.928l-4.357 9.142c-1.464 3.143-3.071 6.893-4.821 11.285-1.75 4.393-3.571 9.035-5.25 13.964-1.678 4.928-10.32 28.784-10.32 28.784a284.19 284.19 0 0 0-3.572 10.713c-1.285 4.143-2.607 7.679-2.928 8.357-3.068 6.004-10.422 8.386-16.428 5.321a12.362 12.362 0 0 1-5.464-5.392c-.357-.679-1.571-4.321-2.964-8.357-1.393-4.035-2.75-8.392-3.571-10.714 0 0-8.392-24.07-10.285-28.784-1.893-4.714-3.571-9.535-5.25-13.963-1.678-4.429-3.393-8.143-4.821-11.285l-4.393-9.035v.928c-1.321 10.714-5.106 40.569-5.714 45.319-.607 4.75-2.821 22.891-3.321 27.141s-.893 8.178-1.321 11.678a7.395 7.395 0 0 1-3.179 5.286 10.714 10.714 0 0 1-6.821 1.999 9.178 9.178 0 0 1-6.535-2.142 8.82 8.82 0 0 1-2.321-6.393L84.036 126.93a7.712 7.712 0 0 1 2.749-4.714 10.289 10.289 0 0 1 6.857-2.428h2.179a14.283 14.283 0 0 1 11.392 5.214 69.029 69.029 0 0 1 7.142 12.892q4.393 9.214 9.214 21.07 4.821 11.857 9.642 24.463c3.107 8.071 6.036 15.535 8.464 22.249" fill="#1d1d1b"/><path d="M115.07 56.077h165.204c15.571 0 23.32 11.678 24.999 27.106l.714 4.928a9.714 9.714 0 0 1-8.535 10.714 9.535 9.535 0 0 1-10.249-8.643l-.715-4.749c-.678-5.857-3.142-10.393-9.106-10.393H117.998c-5.964 0-8.428 4.536-9.142 10.393l-.643 4.678a9.5 9.5 0 0 1-10.285 8.607 9.677 9.677 0 0 1-8.536-10.714l.679-4.928c1.857-15.392 9.571-27.106 24.999-27.106" fill="red"/></svg>