<svg xmlns="http://www.w3.org/2000/svg" width="51" height="32"><path fill="#fff" stroke="#d0d0d0" stroke-linecap="round" stroke-linejoin="round" d="M.5.5h50v31H.5Z"/><path fill="#1d1d1b" d="M36.457 16.15a.4.4 0 0 1-.054-.063l-.055-.077a3 3 0 0 1-.168-.275c-.058-.107-.125-.221-.187-.335-.062-.113-.122-.242-.179-.364-.057-.123-.114-.236-.159-.335-.046-.099-.089-.198-.123-.275a1 1 0 0 1-.061-.167.2.2 0 0 1-.016-.044v-.042a.23.23 0 0 1 .071-.167.27.27 0 0 1 .196-.069.2.2 0 0 1 .167.057.4.4 0 0 1 .069.112l.055.124.104.236q.06.141.142.312c.054.114.105.222.167.335l.159.313q.066.126.144.244.129-.2.233-.413c.082-.168.167-.327.236-.489.069-.163.141-.305.198-.427l.098-.233a.4.4 0 0 1 .071-.112.2.2 0 0 1 .167-.057.26.26 0 0 1 .196.069.22.22 0 0 1 .07.167.2.2 0 0 1 0 .042l-.013.043-.065.168a7 7 0 0 1-.121.274q-.071.162-.156.335c-.057.116-.12.243-.182.365a5 5 0 0 1-.186.335c-.062.1-.12.203-.167.276a1 1 0 0 1-.109.131v1.172a.25.25 0 0 1-.07.185.255.255 0 0 1-.36 0 .26.26 0 0 1-.079-.192v-1.172M33.283 16.527q-.087.271-.149.502c-.042.154-.086.28-.123.379a.253.253 0 0 1-.502-.067q0-.038.012-.074l.07-.233q.06-.195.156-.49c.064-.198.136-.409.213-.641a28 28 0 0 1 .239-.692c.082-.227.167-.44.244-.636a4 4 0 0 1 .226-.479.26.26 0 0 1 .123-.128.5.5 0 0 1 .207-.034.6.6 0 0 1 .213.039c.056.027.1.076.12.135q.081.17.189.454c.072.189.153.395.233.616s.167.445.241.669.152.442.218.64l.167.502c.045.136.077.229.087.271a.2.2 0 0 1 .012.074.21.21 0 0 1-.069.167.26.26 0 0 1-.196.066.2.2 0 0 1-.145-.042.3.3 0 0 1-.076-.121 8 8 0 0 1-.133-.378q-.076-.23-.168-.502h-1.414m1.255-.491q-.119-.367-.226-.669c-.072-.201-.135-.394-.216-.585a2 2 0 0 1-.058-.145l-.037-.096a.4.4 0 0 0-.037.091q-.032.09-.06.15-.114.277-.218.585-.105.308-.223.669ZM30.321 15.181a39 39 0 0 0-.167.67c-.059.243-.117.46-.168.669q-.077.317-.167.563a2 2 0 0 1-.127.335.34.34 0 0 1-.317.157.7.7 0 0 1-.167-.025.27.27 0 0 1-.167-.144 2 2 0 0 1-.128-.348c-.05-.168-.103-.372-.167-.598s-.112-.464-.167-.716q-.086-.38-.153-.703-.066-.325-.114-.553a9 9 0 0 1-.051-.274v-.061a.19.19 0 0 1 .073-.155.27.27 0 0 1 .181-.059.3.3 0 0 1 .167.044.23.23 0 0 1 .091.149s.01.062.03.167.048.231.08.387q.049.234.107.53.059.294.126.596.066.3.131.583.064.283.12.485.056-.19.124-.437l.137-.502c.045-.167.087-.35.129-.524l.117-.489c.037-.154.066-.282.092-.4q.04-.175.062-.259a.32.32 0 0 1 .107-.168.3.3 0 0 1 .186-.077.3.3 0 0 1 .205.066.3.3 0 0 1 .1.167q.066.275.137.618.074.341.153.69.078.349.167.686c.059.224.112.422.167.594q.056-.202.123-.484.064-.28.13-.582c.045-.201.091-.395.131-.591q.061-.294.114-.527.05-.234.08-.38c.018-.098.032-.151.032-.154a.25.25 0 0 1 .09-.148.3.3 0 0 1 .167-.043.28.28 0 0 1 .183.058.2.2 0 0 1 .074.156v.062c0 .03-.022.12-.054.274l-.115.551q-.07.325-.153.7c-.055.249-.114.487-.167.713a6 6 0 0 1-.168.596 2 2 0 0 1-.127.345.3.3 0 0 1-.167.151.6.6 0 0 1-.236.03.393.393 0 0 1-.198-.076.24.24 0 0 1-.08-.1 3 3 0 0 1-.121-.355q-.071-.25-.154-.559c-.055-.208-.107-.429-.167-.656s-.102-.441-.147-.638"/><path fill="red" d="m14.932 20.133-.04.315a.26.26 0 0 0 .226.288h10.23a.26.26 0 0 0 .264-.258v-.032l-.042-.315a.449.449 0 0 1 .724-.395c.091.073.149.18.162.296l.04.307c.079.681-.308 1.28-1.004 1.28H15.006c-.69 0-1.075-.599-.996-1.28l.04-.307a.436.436 0 0 1 .482-.391.45.45 0 0 1 .398.492"/><path fill="#1d1d1b" d="M24.357 17.768a.837.837 0 0 0 .88-.832c-.01-.488-.453-.802-.947-.804h-1a.418.418 0 1 1 0-.837h.67c.45-.018.797-.291.819-.715.021-.457-.37-.798-.847-.798h-1.621v3.979h2.046m1.227-3.181c.001.353-.139.691-.39.939l-.025.029.033.02c.498.277.815.793.837 1.363.012.92-.72 1.677-1.64 1.695h-2.511a.44.44 0 0 1-.434-.443v-4.776a.437.437 0 0 1 .444-.446h2.034a1.61 1.61 0 0 1 1.652 1.562zM17.642 16.992l.012.034.012-.034c.114-.314.253-.669.398-1.042.146-.374.301-.782.45-1.147s.295-.7.432-.988q.137-.32.335-.604a.67.67 0 0 1 .538-.25h.102a.5.5 0 0 1 .321.104c.07.058.116.141.127.231l.638 4.939a.41.41 0 0 1-.109.299.43.43 0 0 1-.309.101.5.5 0 0 1-.322-.094.35.35 0 0 1-.149-.248c-.022-.167-.04-.346-.06-.547s-.127-1.06-.156-1.279-.204-1.617-.266-2.124v-.044l-.204.429a10 10 0 0 0-.226.529c-.082.205-.168.423-.246.654-.079.231-.484 1.349-.484 1.349-.037.102-.107.308-.167.503a5 5 0 0 1-.138.391.573.573 0 0 1-.77.25.6.6 0 0 1-.256-.253c-.017-.032-.074-.203-.139-.392s-.129-.393-.167-.502c0 0-.394-1.128-.482-1.349-.089-.221-.168-.447-.246-.655-.079-.207-.159-.381-.226-.529l-.206-.423v.043c-.062.502-.24 1.902-.268 2.125-.029.222-.132 1.073-.156 1.272q-.033.3-.062.547a.34.34 0 0 1-.149.248.5.5 0 0 1-.319.094.43.43 0 0 1-.307-.101.41.41 0 0 1-.109-.299l.63-4.934a.36.36 0 0 1 .129-.221.48.48 0 0 1 .321-.114h.102a.67.67 0 0 1 .534.245q.2.284.335.604.206.432.432.988t.452 1.147c.146.378.283.728.397 1.042"/><path fill="red" d="M16.394 9.975h7.743c.73 0 1.094.547 1.172 1.271l.034.231a.456.456 0 0 1-.4.502.447.447 0 0 1-.481-.405l-.033-.223c-.032-.274-.148-.487-.427-.487h-7.471c-.28 0-.395.213-.429.487l-.03.219a.446.446 0 0 1-.482.404.455.455 0 0 1-.4-.502l.032-.231c.087-.722.448-1.271 1.172-1.271"/></svg>