<svg width="270" height="80" xmlns="http://www.w3.org/2000/svg" xmlns:xlink="http://www.w3.org/1999/xlink"><defs><path id="a" d="M.298.435h269.085v29.29H.298z"/></defs><g fill="none" fill-rule="evenodd"><g transform="translate(0 22)"><mask id="b" fill="#fff"><use xlink:href="#a"/></mask><path d="M197.692 22.192c0 3.147-1.595 5.42-5.264 5.42-1.075 0-2.193-.24-3.23-.639V15.936h1.716c4.824 0 6.778 3.109 6.778 6.256Zm-1.277-12.911c0 4.304-2.71 5.142-5.741 5.142h-1.476V4.618a7.152 7.152 0 0 1 2.034-.277c3.07 0 5.183 1.871 5.183 4.94Zm19.498 17.175c-.318.24-1.075.956-2.432.956-1.795 0-2.95-1.435-2.95-3.346 0-2.95 2.513-4.146 4.784-4.146.161 0 .28.04.44.04v4.345c0 .757.12 1.753.158 2.151Zm-13.038-4.821c0-4.902-4.267-6.496-6.738-6.854v-.08c2.112-.637 5.463-2.112 5.463-6.376 0-5.5-6.621-5.5-8.534-5.5h-11.882v1.037l.956.12c1.875.238 1.875.238 1.875 4.663v14.583c0 4.504.04 4.504-1.875 4.741l-.956.121v1.037h10.368c5.94 0 11.323-1.675 11.323-7.492Zm20.656 7.093-.12-.52c-.12.041-.2.041-.319.041-2.554 0-2.554-2.948-2.554-5.817v-4.903c0-4.541-.875-7.131-5.9-7.131-4.027 0-6.777 2.27-8.574 4.224.32.956.52 1.273 1.078 2.032h.398c.52-1.195 1.676-3.946 4.744-3.946 2.832 0 3.47 2.113 3.47 4.463v.956c-3.308.878-10.326 2.232-10.326 7.252 0 2.552 2.112 4.345 5.224 4.345 2.79 0 4.426-1.235 5.541-2.032.639.996 1.355 2.032 3.909 2.032 1.754 0 2.91-.718 3.43-.996Zm23.205.399V28.09l-.837-.08c-1.436-.119-1.636-.558-1.636-2.67v-7.85c0-5.38-2.43-7.092-6.02-7.092-3.39 0-5.302 1.435-6.299 2.31v-2.31c-2.074.119-4.186.439-7.176 1.435v1.155c.159-.04.676-.24 1.274-.24 1.196 0 1.196 1.793 1.196 3.188v9.403c0 2.113-.2 2.552-1.554 2.67l-.838.081v1.037h9.65V28.09l-.838-.08c-1.436-.119-1.636-.558-1.636-2.67V14.222c.639-.678 1.676-1.515 3.311-1.515 4.146 0 4.146 3.825 4.146 6.975v5.656c0 2.113-.2 2.552-1.635 2.67l-.835.081v1.037h9.727Zm22.65 0V28.09c-1.595 0-1.955-.398-8.294-10.44 4.426-4.544 4.466-5.141 6.858-5.5l.757-.118v-1.036h-8.811v1.036l1.277.159c.557.078 1.234.2 1.234.517 0 .598-.4 1.157-1.795 2.789l-1.314 1.515c-1.476 1.672-2.314 1.753-3.748 1.753V.435c-2.154 0-3.949.24-7.257.918v1.036c.16 0 .636-.08 1.116-.08 1.355 0 1.355 1.553 1.355 5.06v17.97c0 2.113-.24 2.552-1.635 2.67l-.836.081v1.037h9.728V28.09l-.838-.08c-1.433-.119-1.633-.558-1.633-2.67v-5.06h.437c1.676 0 1.716 1.075 3.788 4.184 2.074 3.187 2.314 4.663 6.58 4.663h3.031ZM66.53 20.517c0 3.15-.878 7.692-4.587 7.692-3.828 0-5.264-4.582-5.264-8.766 0-3.308 1-7.532 4.625-7.532 4.03 0 5.226 4.423 5.226 8.607Zm22.448 6.179c-.439.358-1.276.716-2.314.716-3.19 0-6.656-3.107-6.656-8.488 0-4.025 2.031-7.013 5.541-7.013 1.913 0 2.672.719 3.43 1.395v13.39Zm23.168-6.178c0 3.15-.879 7.69-4.585 7.69-3.828 0-5.264-4.581-5.264-8.765 0-3.308.997-7.532 4.625-7.532 4.027 0 5.224 4.423 5.224 8.607ZM23.503 9.679c0-.635-.358-5.976-.517-6.854H.815C.656 3.703.298 9.044.298 9.68h1.435c1.035-4.302 1.474-5.338 5.98-5.338H9.31v19.006c0 4.065 0 4.304-2.592 4.622l-.956.121v1.037h12.281V28.09l-.959-.12c-2.591-.319-2.591-.558-2.591-4.623V4.341h1.595c4.506 0 4.945 1.036 5.98 5.338h1.436Zm14.037 2.472c-.56-.598-1.556-1.753-3.23-1.753-2.033 0-3.709 1.911-4.506 2.749 0-1.196-.2-2.033-.318-2.75-2.872.44-3.71.717-6.7 1.713v1.037c.24-.081.679-.24 1.277-.24 1.196 0 1.196 1.793 1.196 3.188v9.244c0 2.113-.2 2.552-1.635 2.67l-.838.081v1.037h10.528V28.09l-1.595-.199c-1.676-.2-1.676-.719-1.676-3.548v-9.68c.518-.639.997-.798 1.595-.798.558 0 2.872.956 3.51 1.115 1.275-.878 1.832-1.554 2.392-2.83Zm11.643 16.976V28.09l-.837-.08c-1.436-.119-1.636-.558-1.636-2.67V10.397c-2.074.119-4.267.439-7.257 1.435v1.155c.16-.04.679-.24 1.277-.24 1.196 0 1.196 1.793 1.196 3.188v9.403c0 2.113-.2 2.552-1.635 2.67l-.838.081v1.037h9.73ZM46.83 4.26c0-1.513-1.274-2.749-2.79-2.749-1.596 0-2.792 1.236-2.792 2.75 0 1.633 1.196 2.829 2.791 2.829 1.517 0 2.791-1.155 2.791-2.83Zm24.803 15.423c0-6.418-4.704-9.285-9.93-9.285-5.024 0-10.126 3.028-10.126 9.882 0 6.693 4.744 9.444 9.848 9.444 5.105 0 10.208-2.95 10.208-10.041Zm24.88 8.367-.118-1.077h-.838c-1.794 0-1.794-.915-1.794-4.103V.435c-2.153 0-3.947.24-7.258.918v1.036c.16 0 .639-.08 1.118-.08 1.355 0 1.355 1.553 1.355 5.06v3.268c-.757-.12-1.476-.24-2.632-.24-3.308 0-11.443 1.315-11.443 10.44 0 6.058 4.386 8.887 8.812 8.887 2.55 0 4.466-1.276 5.463-1.833l1.037 1.833c2.112-.398 4.305-.877 6.298-1.674Zm20.735-8.367c0-6.418-4.704-9.285-9.927-9.285-5.024 0-10.129 3.028-10.129 9.882 0 6.693 4.746 9.444 9.849 9.444 5.105 0 10.207-2.95 10.207-10.041Zm16.39 4.302c0-6.097-8.971-5.42-8.971-9.603 0-1.394.996-2.471 2.233-2.471 2.95 0 3.825 3.228 3.946 4.544h1.595c0-1.634-.04-3.389-.439-4.942-.956-.517-2.672-1.115-4.784-1.115-7.098 0-7.098 4.9-7.098 5.22 0 6.375 8.973 5.22 8.973 9.96 0 1.436-.96 2.63-2.632 2.63-2.993 0-4.787-3.187-5.024-5.378h-1.597c0 2.39.32 4.065.719 5.659 1.435.716 3.149 1.235 5.503 1.235 5.383 0 7.575-2.67 7.575-5.739Z" fill="#00255C" mask="url(#b)"/></g><path d="M162.334 37.418c-.838 2.59-2.392 4.942-4.267 6.773-1.832-1.952-3.07-4.501-3.707-7.053a15.416 15.416 0 0 1 3.308-.358c1.595 0 3.152.24 4.666.638m13.16 2.789c0-4.862-2.075-9.562-4.825-12.351-1.756-1.755-3.351-2.83-5.703-3.866l-.24.439c1.116.675 2.034 1.394 3.112 2.468 3.068 2.95 5.062 8.05 5.062 12.233 0 .638 0 1.475-.119 2.154-.598-1.755-1.635-3.268-2.95-4.582-.439-.48-.997-1.037-1.476-1.276 0 .915-.399 2.988-.878 4.183.598.48.918.838 1.476 1.355 1.277 1.316 2.115 2.99 2.115 4.385 0 .797-.361 1.634-.997 2.27-.639.637-1.956 1.116-3.27 1.116-1.557 0-3.869-.837-5.065-1.714 2.433-2.47 3.906-5.14 4.825-8.488.399-1.433.598-2.868.598-4.303 0-2.59-.639-5.06-1.754-7.012-1.794-3.11-4.507-4.862-8.055-4.862-4.226 0-8.173 2.073-11.125 5.06-3.39 3.428-5.065 7.611-5.065 11.913 0 .76.04 1.476.16 2.313h.479c.04-1.276.2-2.471.557-3.944.68-2.67 2.514-5.619 4.825-7.93 1.676-1.675 3.51-2.87 5.224-3.546-1.234 1.434-2.072 3.066-2.592 4.859-.159.6-.318 1.397-.318 1.954.797-.479 2.791-1.195 4.068-1.394.277-1.834.956-3.866 2.311-5.22.679-.679 1.476-1.117 2.473-1.117 1.514 0 2.71 1.117 3.47 2.39.757 1.317 1.234 3.667 1.034 5.26-1.673-.476-3.267-.716-4.862-.716-1.595 0-3.192.24-4.906.717-2.79.756-5.342 2.19-7.176 4.024-1.956 1.952-3.47 4.663-3.47 7.452 0 2.91 1.476 5.34 3.43 7.333 3.27 3.266 7.933 4.94 12.52 4.94 3.707 0 7.018-1.276 10.008-3.467l-.24-.399c-2.392 1.316-4.905 1.954-7.734 1.954-3.868 0-8.054-1.195-10.886-3.427.757.119 1.515.2 2.234.2 1.395 0 3.828-.36 5.064-1.117-.76-.44-2.354-1.834-3.192-2.83-1.196.48-2.67.837-3.987.837-1.236 0-2.591-.277-3.47-1.195-.517-.597-.837-1.354-.837-2.15 0-1.675.918-3.07 2.034-4.225.797-.837 1.874-1.593 2.712-1.992.916 3.387 2.473 6.095 4.903 8.526 3.033 2.988 6.98 4.663 10.447 4.663 2.632.04 4.865-.717 6.74-2.59 1.993-2.033 3.31-5.618 3.31-9.285" fill="#009B83"/></g></svg>