<?xml version="1.0" encoding="UTF-8"?>
<svg width="512px" height="512px" viewBox="0 0 512 512" version="1.1" xmlns="http://www.w3.org/2000/svg" xmlns:xlink="http://www.w3.org/1999/xlink">
	<path d="M256,0 C397.384896,0 512,114.615104 512,256 C512,397.384896 397.384896,512 256,512 C207.150162,512 161.496017,498.317606 122.660823,474.576074 L174.556745,384 L267.545098,384 C338.237546,384 395.545098,326.692448 395.545098,256 C395.545098,185.307552 338.237546,128 267.545098,128 L220.862745,128 C205.615354,128 193.254902,140.360452 193.254902,155.607843 C193.254902,170.855234 205.615354,183.215686 220.862745,183.215686 L267.545098,183.215686 C307.742765,183.215686 340.329412,215.802334 340.329412,256 C340.329412,296.197666 307.742765,328.784314 267.545098,328.784314 L167.152941,328.784314 C154.284071,328.784314 143.471694,337.589208 140.411589,349.503141 C140.18754,350.146093 139.985448,350.801998 139.806396,351.470228 L109.183983,465.743328 C43.1613677,419.443176 0,342.762027 0,256 C0,114.615104 114.615104,0 256,0 Z M267.545098,220.862745 L201.788235,220.862745 C182.382465,220.862745 166.65098,236.59423 166.65098,256 C166.65098,275.40577 182.382465,291.137255 201.788235,291.137255 L267.545098,291.137255 C286.950868,291.137255 302.682353,275.40577 302.682353,256 C302.682353,236.59423 286.950868,220.862745 267.545098,220.862745 Z" fill="#FFFFFF"></path>
</svg>
