<svg xmlns="http://www.w3.org/2000/svg" width="51" height="32"><path fill="#fff" stroke="#d0d0d0" stroke-linejoin="round" d="M.5.5h50v31H.5Z"/><path fill="#d13239" d="m14.771 17.079 3.006-.004-.11.684-2.514 2.401 2.11-.004-.123.738-3.107.002.13-.763 2.41-2.308H14.65ZM11.482 15.908a.74.74 0 0 0-.263-.165 2 2 0 0 0-.35-.094 3 3 0 0 0-.4-.042c-.096-.004-.157-.004-.157-.004H8.019l-.877 5.293h.819l.323-1.961 1.588.008s.618.025 1.057-.207c.438-.233.555-.762.555-.762s.048-.196.088-.434a25 25 0 0 0 .127-.865s.012-.054.012-.138a.95.95 0 0 0-.108-.463.7.7 0 0 0-.121-.166m-.63.934c0 .01-.073.435-.169.938-.037.193-.185.296-.354.333-.281.059-.582.048-.582.048l-1.327-.004.293-1.759 1.201.004s.081-.002.194 0c.129.002.3.008.44.027.121.016.217.041.248.079.04.05.056.115.061.173.008.085-.005.156-.005.161M21.853 15.603h.788l-.882 5.293-.79-.002ZM26.058 17.079l.756-.002.267 2.687 1.163-2.691.932.002.275 2.698 1.16-2.696h.785l-1.665 3.815h-.93l-.269-2.672-1.175 2.672-.914.004Z"/><g fill="#d13239"><path d="M20.398 17.11c-.221-.072-.603-.087-.928-.083-.313.004-.458.019-.575.044 0 0-.557.081-.874.473s-.412 1.249-.412 1.249-.188.948-.132 1.265c.055.315.153.609.511.746.357.138.661.13.661.13s.638.05 1.119-.063c.48-.114.734-.452.734-.452s.113-.146.194-.319.106-.294.11-.309l.05-.206-.817.002s-.045.54-.487.59c-.44.05-.676.031-.763.027-.084-.004-.557.017-.519-.379q0-.007.002-.025c.022-.449.072-.567.072-.567l2.565-.007.11-.635c.127-.718.036-1.266-.621-1.481m-.171 1.391-1.759-.002.07-.279s.061-.219.182-.311c.123-.092.279-.109.425-.123s.536-.042.853.023c.106.021.206.081.233.169.061.208-.004.523-.004.523"/><path d="m18.276 19.808-.002.017c-.002.031.002-.019.002-.017"/></g><g fill="#d13239"><path d="m23.116 19.81-.002.017c0 .031.002-.019.002-.017"/><path d="M25.24 17.112c-.222-.072-.604-.087-.929-.083-.313.004-.457.019-.574.044 0 0-.558.081-.875.473s-.411 1.249-.411 1.249-.189.948-.133 1.265c.056.315.154.609.511.746.358.138.662.13.662.13s.638.05 1.118-.063c.481-.114.734-.452.734-.452s.114-.146.194-.319c.081-.173.106-.294.11-.309l.05-.206-.817.002s-.044.54-.486.59c-.44.05-.677.031-.763.029-.085-.004-.558.015-.519-.379q0-.008.002-.025c.021-.45.071-.567.071-.567l2.566-.007.109-.635c.127-.72.037-1.27-.62-1.483m-.179 1.389-1.759-.002.069-.279s.062-.219.183-.311.279-.109.425-.123.536-.042.853.023c.106.021.206.081.233.169.061.206-.004.523-.004.523"/></g><path fill="#d13239" d="m32.303 17.079.505 2.791 1.428-2.793.804.008-2.059 3.988s-.373.722-.603.905c-.231.183-.373.265-.562.284-.188.02-.265.033-.445 0l-.193-.034.12-.713s.319.059.507-.016c.19-.075.342-.397.342-.397l.096-.162-.744-3.863Z"/><path fill="#b3b2b1" d="m35.332 17.457.828.002.05-.321s.088-.58.286-.691a1 1 0 0 1 .283-.091c.217-.038.492-.042.717-.034.344.011.475.015.824.055.35.041.262.379.262.379l-.069.505s-.031.227-.112.368c-.071.124-.267.209-.38.246-.273.088-1.207.326-1.207.326l-.735.212s-.451.13-.703.409a1.7 1.7 0 0 0-.388.763c-.035.165-.229 1.309-.229 1.309l3.963.002.133-.792-3.135.004.056-.323s.036-.333.171-.442c.042-.035.063-.081.313-.169.15-.054.661-.19.661-.19l1.182-.323s.646-.166.9-.519c.253-.352.351-1.027.351-1.027s.07-.655.016-.861a.92.92 0 0 0-.483-.557c-.236-.106-.482-.167-1.195-.158s-1.067.043-1.428.177c-.361.133-.571.375-.704.717-.144.325-.228 1.024-.228 1.024M42.793 18.93l.555-3.329h-.984l-3.063 3.29-.139.834h2.679l-.196 1.169.823.002.194-1.171.759.002.137-.797Zm-.819.002-1.732-.002 2.109-2.247ZM13.22 16.039h2.523s.565-.457.967-.751 1.132-.758 1.132-.758l-1.426-.667s-1.205.746-1.717 1.098c-.495.325-1.479 1.078-1.479 1.078M18.643 14.059l-1.17-.788s1.059-.601 2.468-1.162c1.407-.562 2.158-.796 2.158-.796l.238 1.117s-1.355.453-2.131.82c-.803.342-1.563.809-1.563.809M23.202 12.186l-.204-1.144s1.446-.384 2.768-.63c1.324-.246 3.079-.364 3.079-.364l-.58 1.767s-1.544-.212-2.993-.014c-1.128.135-2.07.385-2.07.385M29.183 11.965l.977-1.963s2.139-.042 3.984.244c1.845.285 3.532.723 3.496.742l-4.678 2.447s-1.094-.692-2.451-1.117c-.768-.227-1.328-.353-1.328-.353M33.8 13.967l1.028.781h8.451s-.017-.273-.242-.662c-.14-.242-.396-.499-.663-.767a7 7 0 0 0-.779-.59c-.745-.484-1.162-.67-1.937-1.022Z"/><path fill="#d13239" d="M13.767 17.075c-.317 0-.617.125-.872.265l.044-.265h-.84l-.673 3.8h.842l.373-2.105c.077-.427.396-.955 1.019-.955l.434-.002.131-.738Z"/></svg>