<svg xmlns="http://www.w3.org/2000/svg" width="640" height="360"><path fill="#d13239" d="m170.854 193.285 42.585-.054-1.552 9.693-35.614 34.008 29.896-.054-1.742 10.455-44.028.028 1.851-10.81 34.144-32.701h-27.255ZM124.267 176.703c-.926-.98-2.26-1.742-3.731-2.341-1.552-.599-3.267-1.035-4.955-1.334a42 42 0 0 0-5.664-.599c-1.361-.055-2.232-.055-2.232-.055H75.202l-12.417 74.987h11.6l4.574-27.773 22.491.109s8.767.354 14.975-2.941 7.869-10.782 7.869-10.782.681-2.778 1.252-6.154c.627-3.73 1.253-8.196 1.58-10.564.136-1.035.218-1.689.218-1.689s.163-.762.163-1.96c.027-1.661-.218-4.166-1.525-6.562a10.8 10.8 0 0 0-1.715-2.342m-8.931 13.233c0 .136-1.035 6.154-2.396 13.288-.518 2.722-2.614 4.193-5.01 4.71-3.976.844-8.25.681-8.25.681l-18.788-.055 4.139-24.913 17.018.054s1.143-.027 2.75 0c1.824.027 4.247.109 6.235.381 1.715.218 3.077.572 3.512 1.117.572.708.79 1.633.872 2.45.108 1.198-.082 2.206-.082 2.287M271.19 172.374h11.164l-12.498 74.987-11.191-.028ZM330.765 193.285l10.701-.027 3.785 38.065 16.473-38.119 13.206.027 3.893 38.228 16.446-38.201h11.109l-23.579 54.048H369.62l-3.812-37.847-16.636 37.847-12.961.055Z"/><g fill="#d13239"><path d="M250.578 193.721c-3.131-1.007-8.549-1.225-13.151-1.171-4.438.055-6.48.272-8.141.626 0 0-7.896 1.144-12.389 6.699s-5.827 17.698-5.827 17.698-2.668 13.423-1.878 17.916c.789 4.465 2.178 8.631 7.242 10.565 5.065 1.96 9.367 1.851 9.367 1.851s9.039.708 15.847-.898c6.807-1.607 10.401-6.399 10.401-6.399s1.606-2.069 2.75-4.52 1.497-4.166 1.552-4.384l.708-2.913-11.572.027s-.627 7.651-6.889 8.359c-6.235.708-9.584.436-10.81.381-1.198-.054-7.896.245-7.351-5.364 0-.081 0-.19.027-.354.299-6.371 1.007-8.032 1.007-8.032l36.35-.109 1.552-8.985c1.797-10.183.517-17.943-8.795-20.993m-2.423 19.713-24.914-.027.98-3.948s.872-3.104 2.587-4.411c1.743-1.307 3.948-1.552 6.018-1.743 2.069-.19 7.596-.599 12.089.327 1.497.3 2.913 1.144 3.295 2.396.871 2.941-.055 7.406-.055 7.406"/><path d="M220.518 231.949c0 .082-.027.164-.027.245-.027.436.027-.272.027-.245"/></g><g fill="#d13239"><path d="M289.079 231.977c0 .081-.027.163-.027.245 0 .435.027-.273.027-.245"/><path d="M319.166 193.748c-3.131-1.007-8.549-1.225-13.151-1.171-4.438.055-6.48.273-8.141.627 0 0-7.896 1.143-12.389 6.698-4.493 5.554-5.827 17.698-5.827 17.698s-2.668 13.424-1.879 17.916c.79 4.466 2.179 8.632 7.243 10.565 5.064 1.96 9.367 1.851 9.367 1.851s9.039.708 15.846-.898c6.807-1.607 10.402-6.399 10.402-6.399s1.606-2.069 2.75-4.52 1.497-4.166 1.552-4.383l.708-2.914-11.572.027s-.627 7.652-6.889 8.359c-6.235.708-9.585.436-10.81.409-1.198-.055-7.896.218-7.351-5.364 0-.082 0-.191.027-.354.299-6.371 1.007-8.032 1.007-8.032l36.35-.109 1.552-8.986c1.797-10.21.517-17.997-8.795-21.02m-2.532 19.686-24.914-.027.98-3.948s.872-3.104 2.587-4.411 3.948-1.552 6.018-1.743c2.069-.19 7.596-.599 12.089.327 1.497.3 2.913 1.144 3.294 2.396.872 2.914-.054 7.406-.054 7.406"/></g><path fill="#d13239" d="m419.23 193.285 7.161 39.536 20.23-39.563 11.382.109-29.162 56.499s-5.282 10.237-8.549 12.824c-3.268 2.587-5.283 3.758-7.951 4.03s-3.757.463-6.317 0l-2.723-.49 1.689-10.102s4.519.844 7.188-.218c2.695-1.062 4.846-5.636 4.846-5.636l1.362-2.287-10.538-54.729Z"/><path fill="#b3b2b1" d="m462.142 198.649 11.735.028.708-4.548s1.252-8.222 4.057-9.802c.898-.517 2.341-.98 4.002-1.279 3.077-.545 6.971-.599 10.156-.491 4.874.164 6.726.218 11.681.79 4.956.572 3.703 5.364 3.703 5.364l-.98 7.161s-.435 3.213-1.579 5.201c-1.008 1.769-3.785 2.968-5.391 3.485-3.867 1.252-17.1 4.629-17.1 4.629l-10.401 2.995s-6.398 1.851-9.965 5.799c-3.594 3.976-5.01 8.468-5.5 10.81s-3.241 18.542-3.241 18.542l56.145.028 1.879-11.218-44.409.054.789-4.574s.518-4.711 2.424-6.263c.599-.49.898-1.143 4.438-2.396 2.124-.762 9.366-2.695 9.366-2.695l16.746-4.575s9.148-2.341 12.742-7.351c3.594-4.983 4.983-14.54 4.983-14.54s.98-9.285.218-12.199c-.735-2.913-3.485-6.398-6.834-7.896-3.349-1.497-6.835-2.369-16.936-2.232-10.102.136-15.112.599-20.231 2.505-5.119 1.878-8.087 5.309-9.965 10.156-2.042 4.601-3.24 14.512-3.24 14.512M567.841 219.506l7.869-47.159h-13.941l-43.401 46.615-1.961 11.817h37.956l-2.777 16.554 11.654.028 2.75-16.582 10.755.027 1.933-11.3Zm-11.599.027-24.532-.027 29.869-31.83ZM148.881 178.555h35.751s8.005-6.48 13.695-10.646c5.691-4.166 16.038-10.728 16.038-10.728l-20.203-9.448s-17.073 10.564-24.315 15.547c-7.025 4.601-20.966 15.275-20.966 15.275M225.719 150.51l-16.582-11.164s15.003-8.522 34.961-16.473c19.931-7.95 30.577-11.272 30.577-11.272l3.377 15.819s-19.196 6.426-30.196 11.627c-11.382 4.846-22.137 11.463-22.137 11.463M290.304 123.962l-2.886-16.2s20.476-5.446 39.209-8.931c18.76-3.485 43.619-5.146 43.619-5.146l-8.223 25.022s-21.864-2.995-42.394-.19c-15.983 1.906-29.325 5.445-29.325 5.445M375.038 120.831l13.832-27.8s30.305-.599 56.444 3.458c26.14 4.03 50.046 10.238 49.529 10.51l-66.274 34.662s-15.493-9.802-34.716-15.82c-10.891-3.213-18.815-5.01-18.815-5.01M440.441 149.203l14.567 11.055H574.73s-.245-3.867-3.431-9.367c-1.987-3.431-5.609-7.079-9.393-10.864-1.389-1.361-6.889-5.663-11.028-8.359-10.564-6.862-16.473-9.503-27.446-14.485Z"/><path fill="#d13239" d="M156.641 193.231c-4.493 0-8.74 1.77-12.362 3.757l.627-3.757h-11.899l-9.53 53.83h11.926l5.282-29.815c1.089-6.044 5.609-13.532 14.431-13.532l6.154-.027 1.851-10.456Z"/></svg>