<svg xmlns="http://www.w3.org/2000/svg" width="640" height="360"><g fill-rule="evenodd" clip-rule="evenodd"><path fill="#2e3235" d="M824.633 330.606h-480.01l31.994-190.329h480.007z" style="stroke-width:4.78399" transform="translate(-280.624 -55.442)"/><path fill="#e5e5e0" d="M497.714 251.158c-8.196 0-13.953-5.332-13.953-13.657 0-9.213 7.157-17.86 17.442-17.86 8.195 0 13.953 5.576 13.953 13.902 0 9.214-7.157 17.615-17.442 17.615m4.798-47.437c-21.54 0-37.84 15.759-37.84 34.588 0 17.052 13.422 28.855 31.733 28.855 21.54 0 37.84-16.249 37.84-35.078 0-17.05-13.422-28.365-31.733-28.365M627.504 251.158c-8.196 0-13.942-5.332-13.942-13.657 0-9.213 7.146-17.86 17.43-17.86 8.197 0 13.954 5.576 13.954 13.902 0 9.214-7.146 17.615-17.442 17.615m4.798-47.437c-21.54 0-37.84 15.759-37.84 34.588 0 17.052 13.422 28.855 31.733 28.855 21.54 0 37.852-16.249 37.852-35.078 0-17.05-13.434-28.365-31.745-28.365M696.762 233.772h-2.811l2.111-12.706h2.551c5.972 0 9.133 1.793 9.133 5.7 0 4.644-4.482 7.006-10.984 7.006m30.66-10.018c0-11.402-8.952-18.732-25.117-18.732h-22.85l-10.013 60.838h19.237l3.16-19.14h.881l10.194 19.14h22.048l-14.146-21.257c10.375-3.585 16.607-11.32 16.607-20.849M442.624 229.293c-7.293-3.666-8.952-4.643-8.952-6.597 0-2.444 2.89-3.666 6.931-3.666 4.64 0 11.65.517 18.514 7.026 1.705-5.216 4.47-9.965 8.094-14.055-9.73-5.437-18.694-8.28-26.958-8.28-16.425 0-25.829 8.714-25.829 19.22 0 9.038 6.852 13.762 15.026 17.914 7.292 3.748 9.132 4.889 9.132 7.17 0 2.444-3.07 3.826-7.112 3.826-7.033 0-15.206-4.397-20.038-8.876l-2.81 16.94c5.012 3.58 12.214 7.245 23.108 7.245 16.956 0 26.1-8.466 26.1-19.379 0-8.88-5.893-13.764-15.206-18.488M584.865 231.734h-22.522l1.762-10.668h24.158c3.127-6.417 7.97-11.904 14.01-16.044h-39.535c-8.771 0-16.222 5.936-17.542 13.97l-7.722 46.868h19.248l3.16-19.14h22.85l1.648-10.401c.079-1.555.237-3.083.485-4.585M727.84 205.022c5.137 3.92 8.31 9.398 8.987 16.044h16.087l-7.384 44.794h19.237l7.394-44.794h17.826l2.641-16.044z" style="stroke-width:4.78399" transform="translate(-280.624 -55.442)"/></g></svg>