<svg xmlns="http://www.w3.org/2000/svg" width="51" height="32"><g fill="none" fill-rule="evenodd"><path fill="#FFF" stroke="#D0D0D0" d="M.5.5h50v31H.5z"/><g clip-rule="evenodd"><path fill="#2e3235" d="M39.5 21.948h-30l2-11.896h30z"/><path fill="#e5e5e0" d="M19.068 16.982c-.512 0-.872-.333-.872-.853 0-.576.447-1.117 1.09-1.117.512 0 .872.349.872.87 0 .575-.447 1.1-1.09 1.1zm.3-2.965c-1.346 0-2.365.985-2.365 2.162 0 1.066.839 1.804 1.983 1.804 1.347 0 2.365-1.016 2.365-2.193 0-1.065-.839-1.773-1.983-1.773zM27.18 16.982c-.512 0-.871-.333-.871-.853 0-.576.446-1.117 1.089-1.117.512 0 .872.349.872.87 0 .575-.447 1.1-1.09 1.1zm.3-2.965c-1.346 0-2.365.985-2.365 2.162 0 1.066.839 1.804 1.983 1.804 1.346 0 2.366-1.016 2.366-2.193 0-1.065-.84-1.773-1.984-1.773zM31.509 15.896h-.176l.132-.794h.16c.373 0 .57.112.57.356 0 .29-.28.438-.686.438zm1.916-.626c0-.713-.56-1.171-1.57-1.171h-1.428l-.626 3.802h1.202l.198-1.196h.055l.637 1.196h1.378l-.884-1.328c.648-.224 1.038-.708 1.038-1.303zM15.625 15.616c-.456-.23-.56-.29-.56-.413 0-.152.181-.229.434-.229.29 0 .728.033 1.157.44a2.49 2.49 0 0 1 .506-.879c-.608-.34-1.169-.518-1.685-.518-1.027 0-1.614.545-1.614 1.202 0 .565.428.86.939 1.12.455.234.57.305.57.448 0 .152-.191.239-.444.239-.44 0-.95-.275-1.252-.555L13.5 17.53c.313.223.763.452 1.444.452 1.06 0 1.631-.529 1.631-1.21 0-.556-.368-.861-.95-1.156zM24.515 15.768h-1.408l.11-.666h1.51c.196-.402.499-.744.876-1.003h-2.47c-.55 0-1.015.37-1.097.873l-.483 2.93h1.203l.198-1.197h1.428l.103-.65c.005-.097.015-.193.03-.287zM33.451 14.099c.321.245.52.587.562 1.003h1.005l-.461 2.8h1.202l.462-2.8h1.114l.165-1.003z"/></g></g></svg>