<svg xmlns="http://www.w3.org/2000/svg" width="640" height="360"><defs><linearGradient id="a" x1="0%" x2="0%" y1="0%" y2="100%"><stop offset="0%" stop-color="#39ADFF"/><stop offset="100%" stop-color="#1B67DE"/></linearGradient></defs><path fill="url(#a)" d="M110 220C49.28 220 0 170.72 0 110S49.28 0 110 0c30.36 0 57.904 12.32 77.792 32.208l-18.304 18.304c-15.224-15.224-36.256-24.64-59.488-24.64-46.464 0-84.128 37.664-84.128 84.128S63.536 194.128 110 194.128c42.064 0 76.824-30.888 82.984-71.192H110V97.064h109.208c.532 4.291.797 8.612.792 12.936 0 60.72-49.28 110-110 110" transform="translate(210 70)"/></svg>