<svg xmlns="http://www.w3.org/2000/svg" width="51" height="32"><defs><linearGradient id="a" x1="0%" x2="0%" y1="0%" y2="100%"><stop offset="0%" stop-color="#39ADFF"/><stop offset="100%" stop-color="#1B67DE"/></linearGradient></defs><g fill="none" fill-rule="evenodd"><path fill="#FFF" stroke="#D0D0D0" d="M.5.5h50v31H.5z"/><path fill="url(#a)" fill-rule="nonzero" d="M12 24C5.376 24 0 18.624 0 12S5.376 0 12 0c3.312 0 6.317 1.344 8.486 3.514L18.49 5.51A9.15 9.15 0 0 0 12 2.822 9.177 9.177 0 0 0 2.822 12 9.177 9.177 0 0 0 12 21.178c4.589 0 8.38-3.37 9.053-7.767H12V10.59h11.914Q24 11.292 24 12c0 6.624-5.376 12-12 12" transform="translate(14 4)"/></g></svg>