<svg xmlns="http://www.w3.org/2000/svg" id="svg928" width="640" height="360" version="1.1" viewBox="0 0 480.006 270.003"><defs id="defs880"><style id="style878">.a{fill:#fff}.b{fill:#c06}</style></defs><g id="g1123" transform="matrix(.5697 0 0 .5697 135.186 30.185)"><path id="rect882" d="M0 0h367.97v367.97H0z" class="a"/><path id="path884" d="M350.31 231.9v-37.65h-17.67v20h-38.41a101.5 101.5 0 0 1-6 17.66z" class="b"/><path id="path886" d="M332.64 153.69v20h17.67V136h-62a99.7 99.7 0 0 1 6 17.66z" class="b"/><path id="polygon888" d="M35.32 173.13H17.65v58.77H64.8v-17.66H35.32z" class="b"/><path id="polygon890" d="M17.65 114.5H64.8V96.84H35.32V35.32h61.52v45.5h17.66V17.65H17.65z"/><path id="polygon892" d="M114.5 350.31v-63.16H96.84v45.49H35.32v-61.51H64.8v-17.67H17.65v96.85z"/><path id="path894" d="M274.53 114.5h75.78V17.65h-96.85v79.46a86.6 86.6 0 0 1 21.07 17.39m-3.4-79.18h61.52v61.52h-61.52z"/><path id="rect896" d="M287.15 51.34h29.48v29.48h-29.48z"/><path id="rect898" d="M51.34 51.34h29.48v29.48H51.34z"/><path id="rect900" d="M51.34 287.15h29.48v29.48H51.34z"/><path id="path902" d="M231.14 17.65H137v17.67h76.44v47.82a134 134 0 0 1 17.66 4.17z" class="b"/><path id="path904" d="M213.48 332.65h-34.61v-45.51h-17.66v45.5H137v17.66h94.1v-69.68a135 135 0 0 1-17.66 4.19z" class="b"/><path id="rect906" d="M161.24 51.34h17.67v29.47h-17.67z" class="b"/><path id="rect908" d="M17.65 136.03H64.8v17.66H17.65z" class="b"/><path id="path910" d="M274.4 253.46a86.5 86.5 0 0 1-20.94 17.32v.35h38.71v30.76h17.66v-30.76h22.81v61.52h-61.51v-30.76h-17.67v48.42h96.85v-96.85z" class="b"/><path id="path912" d="M184.4 271.14H95.54a14.74 14.74 0 0 1-14.72-14.72V111.56a14.73 14.73 0 0 1 14.72-14.72h88.86c84.67 0 97.31 54.48 97.31 86.95 0 56.33-34.56 87.35-97.31 87.35M95.54 102.48a9.09 9.09 0 0 0-9.08 9.08v144.86a9.09 9.09 0 0 0 9.08 9.08h88.86c59.12 0 91.67-29 91.67-81.71 0-70.75-57.43-81.31-91.67-81.31z"/><path id="path914" d="M135.73 125.6v126.31h55c49.95 0 71.61-28.23 71.61-68 0-38.14-21.66-67.79-71.61-67.79h-45.47a9.53 9.53 0 0 0-9.53 9.48" class="b"/><path id="path916" d="M156.63 167.41a15 15 0 0 1 5.21.89A11.4 11.4 0 0 1 166 171a12.45 12.45 0 0 1 2.76 4.46 18.2 18.2 0 0 1 1 6.29 20.2 20.2 0 0 1-.81 5.85 13 13 0 0 1-2.45 4.62 11.5 11.5 0 0 1-4.1 3.06 13.8 13.8 0 0 1-5.78 1.12H144.4v-29zm-.45 23.59a8.4 8.4 0 0 0 2.68-.44 6 6 0 0 0 2.31-1.48 7.3 7.3 0 0 0 1.62-2.7 11.8 11.8 0 0 0 .61-4.06 17.2 17.2 0 0 0-.42-4 8 8 0 0 0-1.4-3 6.2 6.2 0 0 0-2.58-1.92 10.2 10.2 0 0 0-3.95-.67h-4.28V191Z" class="a"/><path id="path918" d="M196 167.41v5.36h-15V179h13.76v4.95h-13.83V191h15.34v5.35h-21.71v-29z" class="a"/><path id="path920" d="m217.5 167.41 10.83 29h-6.62l-2.19-6.45h-10.83l-2.27 6.45H200l11-29zm.36 17.77-3.65-10.63h-.08l-3.77 10.63z" class="a"/><path id="path922" d="M238.43 167.46v23.61h13.84v5.36h-20.21v-29z" class="a"/><path id="path924" d="M110.88 203.82a10.55 10.55 0 0 1 10.55 10.55v37.54a21.09 21.09 0 0 1-21.09-21.09v-16.46a10.55 10.55 0 0 1 10.54-10.54"/><circle id="circle926" cx="110.88" cy="181.9" r="13.92"/></g></svg>