<svg xmlns="http://www.w3.org/2000/svg" id="svg1291" version="1.1" height="32" width="51"><defs id="defs1295"><style id="style1373">.a{fill:#fff}.b{fill:#c06}</style></defs><path fill="#fff" stroke="#d0d0d0" id="rect1249" style="fill-rule:evenodd" d="M.5.5h50v31H.5z"/><g transform="matrix(.0651 0 0 .0651 13.521 4.021)" id="g1453"><path class="a" id="rect1377" d="M0 0h367.97v367.97H0z"/><path class="b" d="M350.31 231.9v-37.65h-17.67v20h-38.41a101.46 101.46 0 0 1-6 17.66z" id="path1379"/><path class="b" d="M332.64 153.69v20h17.67V136h-62a99.74 99.74 0 0 1 6 17.66z" id="path1381"/><path class="b" id="polygon1383" d="M35.32 214.24v-41.11H17.65v58.77H64.8v-17.66z"/><path id="polygon1385" d="M17.65 17.65v96.85H64.8V96.84H35.32V35.32h61.52v45.5h17.66V17.65z"/><path id="polygon1387" d="M17.65 350.31h96.85v-63.16H96.84v45.49H35.32v-61.51H64.8v-17.67H17.65z"/><path d="M274.53 114.5h75.78V17.65h-96.85v79.46a86.58 86.58 0 0 1 21.07 17.39zm-3.4-79.18h61.52v61.52h-61.52z" id="path1389"/><path id="rect1391" d="M287.15 51.34h29.48v29.48h-29.48z"/><path id="rect1393" d="M51.34 51.34h29.48v29.48H51.34z"/><path id="rect1395" d="M51.34 287.15h29.48v29.48H51.34z"/><path class="b" d="M231.14 17.65H137v17.67h76.44v47.82a133.58 133.58 0 0 1 17.66 4.17z" id="path1397"/><path class="b" d="M213.48 332.65h-34.61v-45.51h-17.66v45.5H137v17.66h94.1v-69.68a135.15 135.15 0 0 1-17.66 4.19z" id="path1399"/><path class="b" id="rect1401" d="M161.24 51.34h17.67v29.47h-17.67z"/><path class="b" id="rect1403" d="M17.65 136.03H64.8v17.66H17.65z"/><path class="b" d="M274.4 253.46a86.45 86.45 0 0 1-20.94 17.32v.35h38.71v30.76h17.66v-30.76h22.81v61.52h-61.51v-30.76h-17.67v48.42h96.85v-96.85z" id="path1405"/><path d="M184.4 271.14H95.54a14.74 14.74 0 0 1-14.72-14.72V111.56a14.73 14.73 0 0 1 14.72-14.72h88.86c84.67 0 97.31 54.48 97.31 86.95 0 56.33-34.56 87.35-97.31 87.35zM95.54 102.48a9.09 9.09 0 0 0-9.08 9.08v144.86a9.09 9.09 0 0 0 9.08 9.08h88.86c59.12 0 91.67-29 91.67-81.71 0-70.75-57.43-81.31-91.67-81.31z" id="path1407"/><path class="b" d="M135.73 125.6v126.31h55c49.95 0 71.61-28.23 71.61-68 0-38.14-21.66-67.79-71.61-67.79h-45.47a9.53 9.53 0 0 0-9.53 9.48z" id="path1409"/><path class="a" d="M156.63 167.41a15 15 0 0 1 5.21.89A11.41 11.41 0 0 1 166 171a12.45 12.45 0 0 1 2.76 4.46 18.17 18.17 0 0 1 1 6.29 20.18 20.18 0 0 1-.81 5.85 13 13 0 0 1-2.45 4.62 11.53 11.53 0 0 1-4.1 3.06 13.77 13.77 0 0 1-5.78 1.12H144.4v-29zm-.45 23.59a8.41 8.41 0 0 0 2.68-.44 6 6 0 0 0 2.31-1.48 7.31 7.31 0 0 0 1.62-2.7 11.77 11.77 0 0 0 .61-4.06 17.18 17.18 0 0 0-.42-4 8 8 0 0 0-1.4-3 6.22 6.22 0 0 0-2.58-1.92 10.22 10.22 0 0 0-3.95-.67h-4.28V191Z" id="path1411"/><path class="a" d="M196 167.41v5.36h-15V179h13.76v4.95h-13.83V191h15.34v5.35h-21.71v-29z" id="path1413"/><path class="a" d="m217.5 167.41 10.83 29h-6.62l-2.19-6.45h-10.83l-2.27 6.45H200l11-29zm.36 17.77-3.65-10.63h-.08l-3.77 10.63z" id="path1415"/><path class="a" d="M238.43 167.46v23.61h13.84v5.36h-20.21v-29z" id="path1417"/><path d="M110.88 203.82a10.55 10.55 0 0 1 10.55 10.55v37.54a21.09 21.09 0 0 1-21.09-21.09v-16.46a10.55 10.55 0 0 1 10.54-10.54z" id="path1419"/><circle cx="110.88" cy="181.9" r="13.92" id="circle1421"/></g></svg>