<svg xmlns="http://www.w3.org/2000/svg" width="198" height="80"><path fill="#FFF" fill-rule="nonzero" d="m77.097 59.284 8.131-8.743v17.784zm-25.915-6.54v4.022h11.646v4.547H51.182v4.372h13.027l6.068-6.523-5.876-6.4h-13.29zm144.16 3.34a9.67 9.67 0 0 1 2.64 7.257c0 6.663-4.46 10.667-11.996 10.667h-10.317a3.62 3.62 0 0 1-3.358-2.22 13.66 13.66 0 0 1-7.974 2.22h-10.334a3.6 3.6 0 0 1-1.574-.402 3.8 3.8 0 0 1-1.591.402H133.14a3.7 3.7 0 0 1-1.609-.402 3.85 3.85 0 0 1-1.626.402h-5.246a3.67 3.67 0 0 1-3.654-3.655v-4.407q-.525-.033-1.05 0h-2.098v4.442a3.655 3.655 0 0 1-3.672 3.655h-5.351a3.637 3.637 0 0 1-3.637-3.655v-5.7a15.56 15.56 0 0 1-8.08 1.853h-2.99v3.795a3.637 3.637 0 0 1-3.637 3.655H80.14a3.62 3.62 0 0 1-2.728-1.224l-3.847-4.32-3.917 4.372a3.66 3.66 0 0 1-2.692 1.172H45.97a3.655 3.655 0 0 1-3.655-3.655V48.198a3.655 3.655 0 0 1 3.655-3.655h21.298c1.041-.01 2.036.43 2.728 1.207l3.865 4.197 4.022-4.355a3.64 3.64 0 0 1 2.675-1.154h16.945a14.85 14.85 0 0 1 8.2 2.029 3.59 3.59 0 0 1 3.218-2.029h12.24c2.78-.21 5.568.296 8.097 1.47q.365.251.7.541a3.66 3.66 0 0 1 3.252-2.01h17.68a3.59 3.59 0 0 1 3.147 1.94 12.24 12.24 0 0 1 6.994-1.94h10.632a3.62 3.62 0 0 1 3.498 2.447 11.73 11.73 0 0 1 7.606-2.448h10.58a3.655 3.655 0 0 1 3.637 3.673v4.703a3.66 3.66 0 0 1-1.661 3.096l.122.104zm-88.973-.63c0-6.137-4.721-7.308-8.953-7.308H80.49l-6.75 7.274-6.522-7.222H45.9v22.208h20.984l6.802-7.344 6.452 7.291h10.317v-7.431h6.61c4.634 0 9.233-1.294 9.233-7.467zm20.075 4.582a6.225 6.225 0 0 0 3.76-5.91 5.25 5.25 0 0 0-2.71-4.914 12.9 12.9 0 0 0-6.384-1.049h-12.24v22.19h5.246v-8.166h5.665c1.924 0 3.13.193 3.865.98 1.014 1.031.874 3.007.874 4.336v2.78h5.351v-4.336a6.66 6.66 0 0 0-.892-4.057 5.9 5.9 0 0 0-2.623-1.854zm24.481-11.873H133.16v22.19h17.696v-4.668h-12.45v-4.372h12.118V56.8h-12.118V52.78h12.45zm21.788 15.16a6.12 6.12 0 0 0-1.643-4.633c-1.19-1.207-3.148-1.749-6.05-1.749h-2.851a6.6 6.6 0 0 1-2.046-.245 1.75 1.75 0 0 1-1.172-1.66c-.049-.644.26-1.263.805-1.61a3.8 3.8 0 0 1 2.116-.402h9.722v-4.826H160.98c-5.56 0-7.59 3.375-7.59 6.627 0 6.995 6.226 6.698 11.175 6.855a2.68 2.68 0 0 1 1.87.49c.413.368.643.899.63 1.451a1.98 1.98 0 0 1-.63 1.469 3.1 3.1 0 0 1-2.15.542h-10.282v4.739h10.317c5.35 0 8.34-2.203 8.34-6.995zm21.666 0a6.24 6.24 0 0 0-1.573-4.686c-1.207-1.206-3.183-1.748-6.068-1.748h-2.85a6.8 6.8 0 0 1-2.064-.245 1.889 1.889 0 0 1-.367-3.27 3.9 3.9 0 0 1 2.15-.402h9.706v-4.774h-10.615c-5.578 0-7.589 3.375-7.589 6.627 0 6.995 6.208 6.698 11.174 6.855.668-.075 1.34.1 1.889.49.429.356.663.895.63 1.451a2.05 2.05 0 0 1-.63 1.469 3.2 3.2 0 0 1-2.169.542H175.74v4.739h10.317c5.28-.018 8.253-2.256 8.253-7.047zM97.47 52.833h-6.96v5.63h6.837c2.029 0 3.305-.996 3.305-2.92s-1.276-2.798-3.252-2.798zm3.147-33.662a2.29 2.29 0 0 0 1.084-2.098 2.01 2.01 0 0 0-1.171-2.099 5.8 5.8 0 0 0-2.518-.384h-6.523v4.931h6.435c.897.07 1.797-.08 2.623-.437zm22.733 34.064a5.25 5.25 0 0 0-2.536-.402h-6.627v4.984h6.47a5.25 5.25 0 0 0 2.623-.455 2.41 2.41 0 0 0 1.084-2.168 2.15 2.15 0 0 0-1.12-1.994zm19.585-39.415-3.637 8.866h7.291zM13.533 22.685h7.152l-3.672-8.953zm29.727 13.22a3.67 3.67 0 0 1-3.357-2.186l-.7-1.574v.105a3.637 3.637 0 0 1-3.637 3.655H24.567a3.64 3.64 0 0 1-3.375-2.256l-1.102-2.693h-6.137l-1.137 2.693a3.64 3.64 0 0 1-3.357 2.256H3.653A3.64 3.64 0 0 1 .61 34.209a3.73 3.73 0 0 1-.314-3.498L9.79 8.521a3.71 3.71 0 0 1 3.375-2.29h7.851a3.71 3.71 0 0 1 3.375 2.22l1.976 4.774V9.99a3.655 3.655 0 0 1 3.672-3.655h8.656a3.62 3.62 0 0 1 3.305 2.133l3.497 7.52 3.166-7.432a3.67 3.67 0 0 1 3.322-2.326h8.918c.711.016 1.4.247 1.976.665a3.5 3.5 0 0 1 1.889-.665h17.696a3.5 3.5 0 0 1 1.749.577 3.74 3.74 0 0 1 1.94-.577h12.241c2.842-.238 5.695.3 8.254 1.556q.348.233.665.508a3.66 3.66 0 0 1 3.182-2.064h5.421a3.655 3.655 0 0 1 3.497 3.113 14.58 14.58 0 0 1 10.003-3.113h5.123c.794.003 1.567.26 2.203.735a3.5 3.5 0 0 1 2.186-.735h7.957a3.66 3.66 0 0 1 3.34 2.221l1.958 4.564V9.99a3.655 3.655 0 0 1 3.637-3.655h8.08a3.73 3.73 0 0 1 3.147 1.749l2.553 4.179v-2.29a3.637 3.637 0 0 1 3.672-3.638h5.42a3.655 3.655 0 0 1 3.656 3.637V32.18a3.67 3.67 0 0 1-3.655 3.655h-7.484a3.64 3.64 0 0 1-3.148-1.749l-3.253-5.386v3.498a3.655 3.655 0 0 1-3.654 3.654h-10.772a3.67 3.67 0 0 1-3.392-2.273l-1.102-2.693h-6.103l-1.049 2.676a3.67 3.67 0 0 1-3.392 2.29h-6.243a15.5 15.5 0 0 1-9.618-2.955 3.5 3.5 0 0 1-3.497 2.955H110.6a3.64 3.64 0 0 1-1.749-.454 3.5 3.5 0 0 1-1.643.454h-5.246a3.67 3.67 0 0 1-3.673-3.637v-4.389h-3.165v4.407a3.637 3.637 0 0 1-3.637 3.637h-5.246a3.5 3.5 0 0 1-1.748-.56 3.66 3.66 0 0 1-1.75.56H64.822a3.8 3.8 0 0 1-1.976-.63 3.64 3.64 0 0 1-1.976.63h-5.42a3.655 3.655 0 0 1-3.673-3.637v-.123l-.7 1.54a3.62 3.62 0 0 1-3.34 2.185h-4.668zm75.35-14.654c0 4.005.962 6.575 2.833 8.446a11.12 11.12 0 0 0 7.659 2.466h6.225l1.976-4.949h11.034l2.046 4.966h10.79V15.533L171.21 32.18h7.519V9.972h-5.439v15.493L163.953 9.99h-8.062v20.984l-8.97-20.984h-7.94l-7.483 17.486h-2.396a5.07 5.07 0 0 1-3.69-1.154 7.6 7.6 0 0 1-1.469-5.246 7.3 7.3 0 0 1 1.522-5.018 5.04 5.04 0 0 1 4.074-1.312h5.019V9.972h-5.141c-3.655 0-6.33.84-8.044 2.588a11.9 11.9 0 0 0-2.816 8.744zm11.016-2.868c-1.259 0-1.381.14-1.52.28a5.25 5.25 0 0 0-.42 2.396c-.09.902.035 1.813.367 2.658a4 4 0 0 0 1.049 0l2.273-5.246zM110.55 32.18h5.403V9.972h-5.403zm-24.377 0h5.246v-8.079h5.683c1.889 0 3.113.175 3.865.962a6.56 6.56 0 0 1 .84 4.32v2.78h5.438v-4.354a6.45 6.45 0 0 0-.875-4.092 6.45 6.45 0 0 0-2.64-1.749 6.24 6.24 0 0 0 3.724-5.91 5.25 5.25 0 0 0-2.692-4.914 12.43 12.43 0 0 0-6.418-1.032h-12.24V32.18zm-21.386 0h17.697v-4.599H70.085v-4.406h12.1v-4.582h-12.1V14.59h12.398V9.972H64.786zm-21.718 0h4.634L55.396 14.8V32.18h5.508V9.972h-8.883l-6.365 15.056L38.66 9.972h-8.62v20.984L21 9.972h-7.852L3.653 32.18h5.77l2.047-4.966h10.964l2.028 4.966H35.27V14.781l7.729 17.487z"/></svg>