<svg xmlns="http://www.w3.org/2000/svg" width="640" height="360"><path d="m286.919 216.1 33.435-30.264a6.52 6.52 0 0 1 4.345-1.668h40.637c1.73 0 3.34.675 4.587 1.906l24.422 23.473h50.937c1.77 0 3.219-1.43 3.219-3.177v-6.355c0-1.748-1.449-3.177-3.219-3.177h-45.666l-20.6-19.819a19.27 19.27 0 0 0-13.64-5.6h-40.637c-4.184 0-8.087 1.549-11.386 3.971-3.38-2.581-7.524-4.091-11.789-4.091h-27.963c-5.109 0-10.018 2.026-13.679 5.601l-20.077 19.898h-45.626c-1.771 0-3.219 1.43-3.219 3.177v6.355c0 1.747 1.448 3.177 3.219 3.177h50.937l23.859-23.552a6.5 6.5 0 0 1 4.546-1.867h27.963c.362.874.121.278.443 1.152l-23.739 21.487a26.97 26.97 0 0 0-1.689 38.486c5.753 6.196 23.577 15.609 38.987 1.668l9.173-8.301 50.535 40.472c2.736 2.184 3.178 6.235.925 8.936l-3.822 4.647c-2.173 2.621-6.196 3.217-9.053.914l-7.162-5.72-16.697 20.256c-3.018 3.694-8.449 4.051-11.829 1.35l-12.312-10.366-4.184 5.084c-6.719 8.142-18.91 9.413-26.796 3.138l-36.171-34.197h-53.914c-1.771 0-3.219 1.43-3.219 3.178v6.354c0 1.748 1.448 3.178 3.219 3.178h48.764l32.791 30.979c11.99 9.572 28.888 9.294 40.637-.079l2.897 2.462c3.862 3.098 8.57 4.726 13.478 4.726 6.438 0 12.513-2.78 16.657-7.784l8.812-10.684c6.598 3.535 17.26 3.575 24.14-4.766l3.823-4.647c2.494-3.018 3.862-6.593 4.224-10.207h54.84c1.77 0 3.219-1.43 3.219-3.178v-6.354c0-1.748-1.449-3.178-3.219-3.178h-58.42c-1.006-1.39-2.133-2.74-3.541-3.892l-49.046-39.32 11.427-10.366c2.615-2.383 2.816-6.395.402-8.976s-6.478-2.741-9.093-.397l-30.216 27.325c-5.794 5.203-15.531 4.766-20.801-.874-5.432-5.838-5.07-15.052.925-20.494"/><path fill="#1e3764" d="M226.6 151.535v-26.983h8.327c6.051 0 9.945 2.274 9.945 6.977 0 2.66-1.234 4.51-2.969 5.589 2.506 1.156 3.971 3.392 3.971 6.437 0 5.436-3.971 7.98-10.138 7.98Zm5.358-15.766h3.971c2.428 0 3.469-1.195 3.469-3.392 0-2.352-1.889-3.122-4.433-3.122h-3.007Zm0 11.063h3.315c3.238 0 5.127-.81 5.127-3.354 0-2.505-1.619-3.546-4.664-3.546h-3.778Zm24.306 5.165c-5.281 0-7.94-2.582-7.94-6.052 0-3.816 3.122-6.052 7.748-6.09 1.149.021 2.295.124 3.43.308v-.925c0-2.351-1.349-3.469-3.932-3.469a13.5 13.5 0 0 0-5.088.925l-.963-4.163c1.657-.694 4.317-1.156 6.668-1.156 5.666 0 8.48 3.006 8.48 8.21v10.716c-1.58.81-4.548 1.696-8.403 1.696m3.238-4.356v-4.124a13 13 0 0 0-2.737-.309c-1.773 0-3.16.694-3.16 2.506 0 1.619 1.156 2.467 3.199 2.467a6 6 0 0 0 2.698-.54m8.91 3.894v-18.464a23.5 23.5 0 0 1 8.712-1.696c5.628 0 8.866 2.775 8.866 7.902v12.258h-5.32v-11.873c0-2.66-1.233-3.893-3.585-3.893a8.1 8.1 0 0 0-3.392.694v15.072Zm36.167-19.004-1.002 4.202a11.7 11.7 0 0 0-4.356-.964c-3.122 0-4.818 2.197-4.818 5.821 0 3.97 1.773 6.013 5.088 6.013a10.9 10.9 0 0 0 4.279-1.002l.848 4.278a13 13 0 0 1-5.551 1.118c-6.399 0-10.099-3.97-10.099-10.253 0-6.245 3.662-10.369 9.791-10.369a14.85 14.85 0 0 1 5.82 1.156m11.492 19.466c-5.936 0-9.637-4.124-9.637-10.33 0-6.168 3.701-10.292 9.637-10.292 5.975 0 9.598 4.124 9.598 10.292 0 6.206-3.623 10.33-9.598 10.33m0-4.394c2.737 0 4.163-2.274 4.163-5.936 0-3.624-1.426-5.898-4.163-5.898-2.698 0-4.202 2.274-4.202 5.898 0 3.662 1.504 5.936 4.202 5.936m12.676 3.932v-18.464a23.5 23.5 0 0 1 8.712-1.696c5.628 0 8.866 2.775 8.866 7.902v12.258h-5.32v-11.873c0-2.66-1.233-3.893-3.585-3.893a8.1 8.1 0 0 0-3.392.694v15.072Zm29.574.462c-4.587 0-6.938-2.505-6.938-7.594v-8.326h-2.621v-4.24h2.621v-4.279l5.319-.269v4.548h4.279v4.24h-4.279v8.249c0 2.236.925 3.277 2.66 3.277a9.4 9.4 0 0 0 2.043-.231l.27 4.278c-1.101.244-2.226.36-3.354.347m13.427 0c-5.281 0-7.941-2.582-7.941-6.052 0-3.816 3.122-6.052 7.748-6.09q1.727.032 3.431.308v-.925c0-2.351-1.349-3.469-3.932-3.469a13.5 13.5 0 0 0-5.088.925l-.964-4.163c1.658-.694 4.317-1.156 6.669-1.156 5.666 0 8.48 3.006 8.48 8.21v10.716c-1.58.81-4.549 1.696-8.403 1.696m3.238-4.356v-4.124a13 13 0 0 0-2.737-.309c-1.773 0-3.161.694-3.161 2.506 0 1.619 1.156 2.467 3.199 2.467a6 6 0 0 0 2.699-.54m23.365-15.11-1.003 4.202a11.7 11.7 0 0 0-4.355-.964c-3.123 0-4.819 2.197-4.819 5.821 0 3.97 1.773 6.013 5.089 6.013a10.9 10.9 0 0 0 4.278-1.002l.848 4.278a13 13 0 0 1-5.55 1.118c-6.399 0-10.1-3.97-10.1-10.253 0-6.245 3.662-10.369 9.791-10.369 1.998-.01 3.978.383 5.821 1.156m11.695 19.466c-4.587 0-6.938-2.505-6.938-7.594v-8.326h-2.622v-4.24h2.622v-4.279l5.319-.269v4.548h4.279v4.24h-4.279v8.249c0 2.236.925 3.277 2.66 3.277a9.4 9.4 0 0 0 2.043-.231l.27 4.278a14.7 14.7 0 0 1-3.354.347"/><defs><linearGradient id="a" x1="245.492" x2="313.818" y1="94.028" y2="68.65" gradientUnits="userSpaceOnUse"><stop offset="0" stop-color="#005ab9"/><stop offset="1" stop-color="#1e3764"/></linearGradient></defs><path fill="url(#a)" d="M263.705 111.061c28.147 0 42.221-18.765 56.295-37.531h-93.4v37.531Z"/><defs><linearGradient id="b" x1="325.655" x2="398.203" y1="76.785" y2="52.034" gradientUnits="userSpaceOnUse"><stop offset="0" stop-color="#fba900"/><stop offset="1" stop-color="#ffd800"/></linearGradient></defs><path fill="url(#b)" d="M376.295 36C348.148 36 334.074 54.765 320 73.53h93.4V36Z"/></svg>