<svg xmlns="http://www.w3.org/2000/svg" width="107" height="32"><path fill="#fff" stroke="#d0d0d0" stroke-linecap="round" stroke-linejoin="round" d="M.5.5h50v31H.5Z"/><path fill="#2c3341" d="M15.529 21.686a.77.77 0 0 1 .505.282c.064.079.112.162.154.256l.013.03c.043.104.081.225.123.381l.01.037c.029.117.185.76.243.967q.143.512.302.794.076.135.143.2a.3.3 0 0 0 .056.041c.096.03.123.027.149.012.046-.028.11-.099.199-.233l.015-.024.167-.266a2 2 0 0 1 .204-.275c.113-.126.239-.226.396-.292a.9.9 0 0 1 .589-.031c.118.032.227.082.343.151l.026.015.028.017c.051.031.104.067.168.111l.262.183.037.025.032.021c.453.299.714.352 1.009.182l.015-.009.015-.009a.688.688 0 0 1 .724 1.169l-.068.041a1.98 1.98 0 0 1-1.498.219c-.35-.086-.651-.24-1.01-.483l-.026-.017-.074-.052-.108-.075-.065.104-.022.034c-.197.302-.386.515-.654.674-.369.221-.801.264-1.262.12-.425-.132-.742-.442-.988-.877a4.5 4.5 0 0 1-.356-.857l-.009-.03-.037.094a8 8 0 0 1-.217.5l-.015.031a2.6 2.6 0 0 1-.236.403c-.137.186-.289.323-.508.393-.282.091-.531.024-.759-.12a2 2 0 0 1-.366-.314 7 7 0 0 1-.6-.761l-.019-.028q-.09-.127-.187-.271l-.054-.082-.144-.217-.342-.526-.051-.077-.041-.062-.059-.085-.012-.017-.001-.001a.68.68 0 0 1-.225-.583l.002-.012a.69.69 0 0 1 .766-.599c.164.02.267.078.366.159a1 1 0 0 1 .097.093q.044.05.092.115l.012.017c.049.066.105.149.183.266l.335.516.069.104.08.121.068.102.044.066.128.185.037.052.039.055q.078.11.148.202l.024.032.018-.043.015-.035q.065-.16.15-.383l.189-.494c.176-.456.22-.554.32-.742l.004-.007c.065-.12.129-.219.207-.306a.9.9 0 0 1 .221-.18.76.76 0 0 1 .472-.097m8.238-1.14 3.695 3.697-4.12.999a.42.42 0 0 1-.511-.491l.002-.009Zm-11.989 2.492.002.002.004.002Zm22.348-12.853 3.697 3.697-9.359 9.36-3.696-3.697Zm-15.419 8.566c.406.882 1.888 1.587 3.797 1.82l-.378 1.446c-2.031-.324-3.493-1.192-3.53-2.218l-.001-.039v-.519q.001-.252.112-.49m-7.596-1.409c.499 1.086 2.621 1.903 5.164 1.903.49 0 .964-.031 1.414-.088l.056-.007v.635q.001.437.197.837c-.524.079-1.084.122-1.667.122-2.884 0-5.228-1.05-5.274-2.354L11 18.351v-.519q0-.252.111-.49m7.596-1.272c.5 1.087 2.63 1.903 5.181 1.903q.178 0 .353-.005l-1.418 1.384-.019.07c-2.375-.223-4.167-1.167-4.208-2.303l-.001-.04v-.519q.001-.253.112-.49m-7.596-1.409c.498 1.086 2.617 1.903 5.157 1.903.489 0 .963-.031 1.412-.088l.056-.007v1.5q-.701.093-1.468.094c-2.88 0-5.221-1.05-5.267-2.353L11 15.67v-.519q0-.253.111-.49m7.596-1.409c.5 1.086 2.63 1.903 5.181 1.903 1.704 0 3.22-.364 4.188-.93l-2.334 2.278c-.577.098-1.202.151-1.854.151-2.894 0-5.245-1.05-5.292-2.354l-.001-.039v-.519q.001-.252.112-.49m-2.439-3.197c.489 0 .963.031 1.412.087l.056.008v5.104q-.701.093-1.468.094c-2.88 0-5.221-1.048-5.267-2.348L11 12.961v-.518c0-1.319 2.359-2.388 5.268-2.388m12.801.55q.106.228.112.47v.54c0 1.321-2.37 2.393-5.293 2.393-2.894 0-5.245-1.05-5.292-2.354l-.001-.039v-.519q.001-.253.112-.491c.5 1.087 2.63 1.903 5.181 1.903s4.681-.816 5.181-1.903m9.892-2.98.019.019 1.649 1.649a1.26 1.26 0 0 1 .015 1.771l-.015.015-1.842 1.842-3.698-3.697 1.58-1.58a1.636 1.636 0 0 1 2.292-.019M23.888 6c2.894 0 5.245 1.048 5.292 2.348l.001.039v.518c0 1.319-2.37 2.388-5.293 2.388-2.894 0-5.245-1.048-5.292-2.348l-.001-.04v-.518c0-1.318 2.37-2.387 5.293-2.387"/><path fill="#fff" stroke="#d0d0d0" stroke-linecap="round" stroke-linejoin="round" d="M56.5.5h50v31h-50Z"/><path fill="#1e3764" d="M70 23.771v-3.467h1.07c.777 0 1.277.293 1.277.897a.81.81 0 0 1-.381.718c.322.148.51.436.51.827 0 .698-.51 1.025-1.302 1.025Zm.688-2.025h.511c.312 0 .445-.154.445-.436 0-.302-.242-.401-.569-.401h-.387Zm0 1.421h.426c.416 0 .659-.104.659-.431 0-.322-.208-.456-.599-.456h-.486Zm3.123.664c-.678 0-1.02-.332-1.02-.778 0-.49.401-.778.995-.783q.222.004.441.04v-.119c0-.302-.173-.445-.505-.445a1.8 1.8 0 0 0-.654.118l-.123-.534c.212-.09.554-.149.856-.149.728 0 1.09.386 1.09 1.055v1.377c-.203.104-.585.218-1.08.218m.416-.56v-.53a1.7 1.7 0 0 0-.351-.04c-.228 0-.407.089-.407.322 0 .208.149.317.412.317a.8.8 0 0 0 .346-.069m1.145.5v-2.372a3 3 0 0 1 1.119-.218c.723 0 1.139.356 1.139 1.015v1.575h-.683v-1.525c0-.342-.159-.5-.461-.5a1 1 0 0 0-.435.089v1.936Zm4.647-2.441-.129.539a1.5 1.5 0 0 0-.56-.123c-.401 0-.619.282-.619.747 0 .51.228.773.654.773.19-.005.377-.049.55-.129l.109.55c-.225.1-.468.149-.713.143-.823 0-1.298-.51-1.298-1.317 0-.802.47-1.332 1.258-1.332.257-.001.511.049.748.149m1.476 2.501c-.762 0-1.238-.53-1.238-1.328 0-.792.476-1.322 1.238-1.322.768 0 1.233.53 1.233 1.322 0 .798-.465 1.328-1.233 1.328m0-.565c.352 0 .535-.292.535-.763 0-.465-.183-.757-.535-.757-.346 0-.54.292-.54.757 0 .471.194.763.54.763m1.629.505v-2.372a3 3 0 0 1 1.119-.218c.723 0 1.139.356 1.139 1.015v1.575h-.683v-1.525c0-.342-.159-.5-.461-.5a1 1 0 0 0-.436.089v1.936Zm3.8.06c-.59 0-.892-.322-.892-.976v-1.07h-.337v-.545h.337v-.549l.684-.035v.584h.549v.545h-.549v1.06c0 .287.118.421.341.421q.134 0 .263-.03l.034.55a2 2 0 0 1-.43.044Zm1.725 0c-.679 0-1.021-.332-1.021-.778 0-.49.402-.778.996-.783q.221.004.441.04v-.119c0-.302-.174-.445-.506-.445a1.7 1.7 0 0 0-.653.118l-.124-.534c.213-.09.555-.149.857-.149.728 0 1.089.386 1.089 1.055v1.377c-.203.104-.584.218-1.079.218m.416-.56v-.53a1.7 1.7 0 0 0-.352-.04c-.228 0-.406.089-.406.322 0 .208.148.317.411.317a.8.8 0 0 0 .347-.069m3.002-1.941-.129.539a1.5 1.5 0 0 0-.56-.123c-.401 0-.619.282-.619.747 0 .51.228.773.654.773.19-.005.377-.049.55-.129l.108.55c-.224.1-.467.149-.713.143-.822 0-1.297-.51-1.297-1.317 0-.802.47-1.332 1.258-1.332.256-.001.511.049.748.149m1.502 2.501c-.589 0-.891-.322-.891-.976v-1.07h-.337v-.545h.337v-.549l.683-.035v.584h.55v.545h-.55v1.06c0 .287.119.421.342.421q.132 0 .262-.03l.035.55a2 2 0 0 1-.431.044Z"/><defs><linearGradient id="a" x1="72.427" x2="81.206" y1="16.383" y2="13.122" gradientUnits="userSpaceOnUse"><stop offset="0" stop-color="#005ab9"/><stop offset="1" stop-color="#1e3764"/></linearGradient></defs><path fill="url(#a)" d="M74.767 18.571c3.617 0 5.425-2.411 7.233-4.822H70v4.822Z"/><defs><linearGradient id="b" x1="82.727" x2="92.048" y1="14.167" y2="10.987" gradientUnits="userSpaceOnUse"><stop offset="0" stop-color="#fba900"/><stop offset="1" stop-color="#ffd800"/></linearGradient></defs><path fill="url(#b)" d="M89.233 8.927c-3.617 0-5.425 2.411-7.233 4.822h12V8.927Z"/></svg>