<svg xmlns="http://www.w3.org/2000/svg" width="51" height="32"><g fill="none" fill-rule="evenodd"><path fill="#FFF" stroke="#D0D0D0" d="M.5.5h50v31H.5z"/><path fill="#2C3341" d="M38 14.784v7.806a1.2 1.2 0 0 1-1.2 1.201H15.2A1.2 1.2 0 0 1 14 22.59v-7.806zM23.804 20.2h-6.41c-.222 0-.401.18-.401.404 0 .216.168.393.38.403l.02.001h6.41c.222 0 .401-.18.401-.404a.4.4 0 0 0-.4-.404m-3.62-2.005h-2.792c-.22 0-.4.18-.4.404 0 .216.168.393.38.403l.02.001h2.793c.22 0 .399-.18.399-.404a.4.4 0 0 0-.4-.404m4.609 0H22c-.22 0-.399.18-.399.404 0 .216.168.393.38.403l.019.001h2.793c.22 0 .399-.18.399-.404a.4.4 0 0 0-.399-.404m4.608 0h-2.793c-.22 0-.399.18-.399.404 0 .216.168.393.38.403l.02.001H29.4c.22 0 .4-.18.4-.404a.4.4 0 0 0-.38-.403zm4.609 0h-2.793c-.22 0-.399.18-.399.404 0 .216.168.393.379.403l.02.001h2.793c.22 0 .399-.18.399-.404a.4.4 0 0 0-.38-.403zM36.8 8.2c.663 0 1.2.536 1.2 1.197v1.796H14V9.397c0-.661.537-1.197 1.2-1.197z"/></g></svg>