<svg xmlns="http://www.w3.org/2000/svg" width="51" height="32"><path fill="#fff" stroke="#d0d0d0" stroke-linecap="round" stroke-linejoin="round" d="M.5.5h50v31H.5Z"/><path d="M10.006 16.02c0-.629-.469-1.071-1.044-1.071s-1.044.45-1.044 1.071c0 .615.468 1.071 1.044 1.071s1.044-.441 1.044-1.071m.008 1.873v-.487a1.55 1.55 0 0 1-1.212.546c-1.052 0-1.85-.824-1.85-1.932 0-1.101.829-1.939 1.873-1.939.491 0 .906.21 1.189.539v-.472h.944v3.745Zm5.529-.832c-.331 0-.422-.119-.422-.434v-1.663h.606v-.817h-.606v-.913h-.968v.913h-1.246v-.227c0-.315.123-.435.461-.435h.212v-.726h-.465c-.798 0-1.174.254-1.174 1.033v.355h-.537v.817h.537v2.928h.967v-2.928h1.246v1.835c0 .764.299 1.094 1.082 1.094h.499v-.831h-.193Zm3.469-1.378c-.069-.487-.476-.779-.952-.779s-.867.285-.967.779h1.918Zm-1.927.584c.069.554.476.869.99.869.407 0 .722-.187.906-.487h.99c-.23.794-.959 1.303-1.919 1.303-1.158 0-1.972-.793-1.972-1.924s.86-1.948 1.996-1.948c1.143 0 1.972.824 1.972 1.948q0 .125-.023.239Zm9.113-.247c0-.607-.468-1.071-1.044-1.071-.575 0-1.044.45-1.044 1.071 0 .615.469 1.071 1.044 1.071s1.044-.464 1.044-1.071m-3.04-1.872h.944v.487a1.53 1.53 0 0 1 1.213-.554c1.036 0 1.849.831 1.849 1.932s-.829 1.94-1.872 1.94c-.484 0-.883-.188-1.159-.502v1.983h-.975Zm7.408 1.872c0-.629-.468-1.071-1.044-1.071-.575 0-1.044.45-1.044 1.071 0 .615.469 1.071 1.044 1.071s1.044-.441 1.044-1.071m.008 1.873v-.487a1.55 1.55 0 0 1-1.212.546c-1.052 0-1.85-.824-1.85-1.932 0-1.101.829-1.939 1.873-1.939.491 0 .905.21 1.189.539v-.472h.944v3.745Zm-9.117-3.378s.24-.434.829-.434c.251 0 .414.084.414.084v.955s-.355-.213-.681-.17-.532.335-.531.726v2.218h-.975v-3.746h.944Zm14.469-.367-2.383 5.274h-1.005l.936-2.039-1.582-3.235h1.139l.925 2.161.95-2.161Zm7.606-.085-2.362-1.331c-.693-.39-1.56.098-1.56.88v.136c0 .123.068.237.177.299l.446.251c.131.074.294-.018.294-.166v-.339c0-.17.188-.276.339-.191l2.046 1.153c.15.084.15.296 0 .381l-2.046 1.153c-.151.084-.339-.021-.339-.191v-.181c0-.782-.867-1.27-1.561-.879l-2.362 1.331a1.002 1.002 0 0 0 0 1.758l2.362 1.33c.694.391 1.561-.097 1.561-.879v-.136a.34.34 0 0 0-.177-.299l-.446-.252c-.131-.074-.294.019-.294.166v.339c0 .17-.188.276-.339.191l-2.046-1.152a.219.219 0 0 1 0-.382l2.046-1.153c.151-.085.339.021.339.191v.181c0 .781.867 1.27 1.56.879l2.362-1.331a1.002 1.002 0 0 0 0-1.757"/></svg>