<svg width="512" height="512" fill="none" xmlns="http://www.w3.org/2000/svg"><path d="m326.806 39.837 151.798 85.476v.024A64.386 64.386 0 0 1 512 181.784a64.389 64.389 0 0 1-33.396 56.447l-151.798 85.504c-44.547 25.141-100.231-6.276-100.231-56.494v-11.602c0-10.932-12.077-17.743-21.747-12.282l-131.49 74.079a14.014 14.014 0 0 0-7.244 12.277c0 5.084 2.766 9.782 7.245 12.259l131.489 74.055c9.647 5.466 21.747-1.35 21.747-12.259v-21.812c0-9.47 10.504-15.406 18.912-10.662l28.652 16.193a22.103 22.103 0 0 1 11.379 19.182v8.771c0 50.241-55.749 81.589-100.3 56.494L33.42 386.453C12.799 375.14 0 353.486 0 329.96c0-23.521 12.799-45.176 33.42-56.489l151.798-85.504c44.593-25.142 100.3 6.276 100.3 56.493v11.603c0 10.931 12.077 17.724 21.747 12.282l131.467-74.056c9.67-5.442 9.67-19.07 0-24.513L307.265 95.698c-9.67-5.466-21.77 1.373-21.77 12.277v21.817c0 9.465-10.481 15.402-18.889 10.634l-28.675-16.146c-7.017-3.934-11.356-11.267-11.356-19.182v-8.772c0-50.24 55.702-81.588 100.231-56.489Z" fill="#000"/></svg>