<svg width="640" height="360" xmlns="http://www.w3.org/2000/svg"><path d="M106.091 178.868c0-8.685-6.463-14.785-14.404-14.785s-14.403 6.206-14.403 14.785c0 8.477 6.462 14.78 14.403 14.78 7.951 0 14.404-6.095 14.404-14.78Zm.116 25.842v-6.719c-3.917 4.651-9.752 7.54-16.732 7.54-14.51 0-25.523-11.371-25.523-26.663 0-15.196 11.433-26.769 25.847-26.769 6.781 0 12.496 2.898 16.413 7.438v-6.511h13.027v51.684Zm76.298-11.477c-4.559 0-5.825-1.652-5.825-5.99v-22.948h8.371v-11.274h-8.371v-12.607h-13.351v12.607h-17.195v-3.139c0-4.348 1.7-6.004 6.361-6.004h2.927v-10.023h-6.424c-11.013 0-16.2 3.516-16.2 14.264v4.897h-7.415v11.279h7.415v40.41h13.35v-40.41h17.196v25.325c0 10.544 4.125 15.094 14.925 15.094h6.888v-11.476h-2.656Zm47.873-19.021c-.952-6.715-6.569-10.748-13.134-10.748-6.569 0-11.969 3.927-13.341 10.748h26.47Zm-26.586 8.066c.957 7.646 6.569 11.993 13.665 11.993 5.613 0 9.96-2.589 12.496-6.723h13.669c-3.183 10.955-13.244 17.983-26.484 17.983-15.988 0-27.213-10.95-27.213-26.562 0-15.606 11.863-26.875 27.542-26.875 15.78 0 27.213 11.37 27.213 26.875 0 1.14-.101 2.271-.314 3.309Zm125.76-3.41c0-8.376-6.463-14.785-14.404-14.785-7.94 0-14.403 6.206-14.403 14.785 0 8.477 6.463 14.78 14.403 14.78 7.941 0 14.404-6.405 14.404-14.78Zm-41.945-25.842h13.027v6.719c3.912-4.758 9.737-7.646 16.732-7.646 14.297 0 25.518 11.476 25.518 26.663 0 15.2-11.433 26.778-25.837 26.778-6.676 0-12.182-2.589-15.988-6.926v27.363h-13.452Zm102.227 25.842c0-8.685-6.454-14.785-14.404-14.785-7.941 0-14.404 6.206-14.404 14.785 0 8.477 6.463 14.78 14.404 14.78 7.95 0 14.404-6.095 14.404-14.78Zm.115 25.842v-6.719c-3.917 4.651-9.752 7.54-16.731 7.54-14.51 0-25.523-11.371-25.523-26.663 0-15.196 11.433-26.769 25.841-26.769 6.777 0 12.496 2.898 16.413 7.438v-6.511h13.023v51.684Zm-125.817-46.617s3.313-5.989 11.433-5.989c3.473 0 5.719 1.159 5.719 1.159v13.186s-4.898-2.951-9.4-2.357c-4.502.594-7.347 4.628-7.332 10.028v30.599h-13.448v-51.683h13.028Zm199.672-5.067-32.884 72.787h-13.868l12.911-28.141-21.833-44.646h15.718l12.771 29.832 13.105-29.832Zm104.975-1.174-32.604-18.359c-9.564-5.391-21.528 1.342-21.528 12.133v1.884c0 1.7.932 3.275 2.439 4.12l6.159 3.468c1.806 1.024 4.057-.251 4.057-2.284v-4.686c0-2.342 2.599-3.811 4.676-2.637l28.237 15.911a3.003 3.003 0 0 1 0 5.265l-28.237 15.906c-2.077 1.169-4.671-.29-4.671-2.638v-2.492c0-10.786-11.965-17.534-21.543-12.134l-32.604 18.365a13.836 13.836 0 0 0-7.178 12.133c0 5.053 2.749 9.704 7.178 12.134l32.604 18.36c9.569 5.39 21.543-1.343 21.543-12.134v-1.884a4.747 4.747 0 0 0-2.444-4.12l-6.154-3.478c-1.806-1.019-4.062.256-4.062 2.29v4.685c0 2.343-2.599 3.807-4.671 2.633l-28.242-15.906a3.01 3.01 0 0 1 0-5.27l28.242-15.911c2.077-1.173 4.671.29 4.671 2.638v2.492c0 10.786 11.96 17.534 21.528 12.134l32.604-18.365a13.83 13.83 0 0 0 7.173-12.124 13.83 13.83 0 0 0-7.173-12.124Z"/></svg>