<svg xmlns="http://www.w3.org/2000/svg" width="51" height="32"><defs><linearGradient id="a" x1="0%" x2="0%" y1="0%" y2="100%"><stop offset="0%" stop-color="#F9AA4B"/><stop offset="100%" stop-color="#F7931A"/></linearGradient></defs><g fill="none" fill-rule="evenodd"><path fill="#FFF" stroke="#D0D0D0" d="M.5.5h50v31H.5z"/><g fill-rule="nonzero"><path fill="url(#a)" d="M23.638 14.944c-1.602 6.4-8.113 10.294-14.543 8.698C2.668 22.047-1.244 15.565.36 9.166 1.962 2.766 8.473-1.13 14.9.466c6.43 1.595 10.341 8.078 8.738 14.478" transform="translate(14 4)"/><path fill="#FFF" d="M30.792 14.352c.228-1.59-.935-2.444-2.525-3.014l.516-2.153-1.26-.326-.502 2.096a51 51 0 0 0-1.01-.247l.507-2.11-1.26-.327-.515 2.152a41 41 0 0 1-.805-.196l.002-.007-1.737-.451-.336 1.4s.935.222.915.236c.51.133.603.484.587.762l-1.413 5.899c-.063.161-.22.403-.578.311.013.02-.915-.237-.915-.237l-.625 1.5 1.639.425c.305.08.604.163.898.241l-.522 2.178 1.259.327.516-2.155a46 46 0 0 0 1.004.271l-.515 2.145 1.26.326.521-2.173c2.148.422 3.763.252 4.443-1.77.548-1.627-.027-2.566-1.157-3.178.823-.198 1.443-.761 1.608-1.925m-2.878 4.2c-.39 1.627-3.023.747-3.877.527l.692-2.885c.854.221 3.592.66 3.185 2.358m.39-4.223c-.356 1.48-2.548.728-3.259.544l.627-2.617c.711.184 3.001.529 2.632 2.073"/></g></g></svg>