<svg xmlns="http://www.w3.org/2000/svg" width="640" height="360"><defs><linearGradient id="a" x1="0%" x2="0%" y1="0%" y2="100%"><stop offset="0%" stop-color="#F9AA4B"/><stop offset="100%" stop-color="#F7931A"/></linearGradient></defs><g fill="none" fill-rule="nonzero"><path fill="url(#a)" d="M216.686 136.987c-14.692 58.662-74.377 94.364-133.313 79.735C24.46 202.096-11.403 142.678 3.296 84.019c14.685-58.67 74.37-94.374 133.29-79.749 58.932 14.626 94.792 74.051 80.1 132.717" transform="translate(210 70)"/><path fill="#FFF" d="M363.926 164.897c2.095-14.57-8.567-22.403-23.145-27.629l4.729-19.737-11.547-2.995-4.604 19.218c-3.035-.787-6.153-1.53-9.25-2.265l4.636-19.345-11.54-2.994-4.732 19.731a374 374 0 0 1-7.373-1.803l.013-.062-15.923-4.137-3.072 12.832s8.567 2.043 8.386 2.17c4.677 1.215 5.522 4.435 5.38 6.987l-12.957 54.07c-.572 1.479-2.022 3.696-5.291 2.855.115.174-8.393-2.18-8.393-2.18l-5.732 13.753 15.026 3.897c2.795.729 5.535 1.492 8.231 2.21l-4.778 19.964 11.533 2.995 4.732-19.752c3.15.89 6.21 1.711 9.202 2.484l-4.716 19.66 11.546 2.994 4.779-19.926c19.689 3.877 34.494 2.313 40.726-16.217 5.022-14.92-.25-23.526-10.61-29.138 7.545-1.81 13.228-6.974 14.744-17.64m-26.381 38.494c-3.569 14.92-27.71 6.854-35.537 4.831l6.34-26.448c7.827 2.033 32.926 6.057 29.197 21.617m3.57-38.71c-3.255 13.572-23.348 6.677-29.866 4.986l5.748-23.988c6.518 1.69 27.51 4.846 24.119 19.003"/></g></svg>