<svg xmlns="http://www.w3.org/2000/svg" width="51" height="32" fill="none"><linearGradient id="b" x1="11.583" x2="24.541" y1="16.005" y2="11.192" gradientUnits="userSpaceOnUse"><stop offset="0" stop-color="#005ab9"/><stop offset="1" stop-color="#1e3764"/></linearGradient><linearGradient id="c" x1="26.788" x2="40.547" y1="12.735" y2="8.041" gradientUnits="userSpaceOnUse"><stop offset="0" stop-color="#fba900"/><stop offset="1" stop-color="#ffd800"/></linearGradient><clipPath id="a"><path d="M0 0h51v32H0z"/></clipPath><g fill-rule="evenodd" clip-path="url(#a)" clip-rule="evenodd"><path fill="#fff" stroke="#d0d0d0" d="M.5.5h50v31H.5z"/><path fill="#1e3764" d="M8 26.912v-5.118h1.58c1.147 0 1.885.432 1.885 1.324 0 .504-.234.855-.563 1.06.475.219.753.643.753 1.22 0 1.031-.753 1.514-1.922 1.514zm1.016-2.99h.753c.46 0 .658-.227.658-.644 0-.446-.358-.592-.84-.592h-.57zm0 2.098h.629c.614 0 .972-.154.972-.636 0-.475-.307-.673-.884-.673h-.717zm4.61.98c-1.002 0-1.506-.49-1.506-1.148 0-.724.592-1.148 1.47-1.155.217.004.435.023.65.058v-.175c0-.446-.256-.658-.746-.658a2.564 2.564 0 0 0-.965.175l-.183-.79c.315-.13.82-.219 1.265-.219 1.075 0 1.608.57 1.608 1.557v2.033c-.3.153-.862.321-1.593.321zm.614-.827v-.782a2.455 2.455 0 0 0-.52-.058c-.335 0-.599.131-.599.475 0 .307.22.468.607.468.176.006.351-.03.512-.103zm1.69.739V23.41a4.464 4.464 0 0 1 1.652-.322c1.067 0 1.681.527 1.681 1.499v2.325h-1.009V24.66c0-.504-.233-.738-.68-.738a1.533 1.533 0 0 0-.643.131v2.859zm6.859-3.604-.19.796a2.227 2.227 0 0 0-.826-.182c-.592 0-.914.416-.914 1.104 0 .753.336 1.14.965 1.14a2.07 2.07 0 0 0 .811-.19l.161.811c-.33.148-.69.22-1.052.212-1.214 0-1.916-.753-1.916-1.944 0-1.184.695-1.967 1.857-1.967.379-.002.754.073 1.104.22zm2.18 3.691c-1.127 0-1.828-.782-1.828-1.959 0-1.17.702-1.952 1.827-1.952 1.133 0 1.82.783 1.82 1.952 0 1.177-.687 1.96-1.82 1.96zm0-.833c.518 0 .789-.431.789-1.126 0-.687-.27-1.118-.79-1.118-.511 0-.797.431-.797 1.118 0 .695.286 1.126.797 1.126zm2.403.746V23.41a4.465 4.465 0 0 1 1.653-.322c1.067 0 1.681.527 1.681 1.499v2.325h-1.009V24.66c0-.504-.234-.738-.68-.738a1.534 1.534 0 0 0-.643.131v2.859zm5.61.087c-.87 0-1.317-.475-1.317-1.44V23.98h-.497v-.804h.497v-.811l1.01-.052v.863h.81v.804h-.81v1.565c0 .424.175.621.504.621.13 0 .26-.015.387-.044l.051.812a2.787 2.787 0 0 1-.636.065zm2.546 0c-1.002 0-1.506-.49-1.506-1.147 0-.724.592-1.148 1.47-1.155.217.004.435.023.65.058v-.175c0-.446-.256-.658-.746-.658a2.564 2.564 0 0 0-.965.175l-.183-.79c.315-.13.82-.219 1.265-.219 1.075 0 1.608.57 1.608 1.557v2.033c-.3.153-.862.321-1.593.321zm.614-.826v-.782a2.457 2.457 0 0 0-.52-.058c-.336 0-.599.131-.599.475 0 .307.22.468.607.468.176.006.351-.03.512-.103zm4.431-2.865-.19.797a2.226 2.226 0 0 0-.826-.183c-.592 0-.914.416-.914 1.104 0 .753.336 1.14.965 1.14a2.07 2.07 0 0 0 .812-.19l.16.811a2.46 2.46 0 0 1-1.052.212c-1.214 0-1.916-.753-1.916-1.944 0-1.184.695-1.967 1.857-1.967.38-.002.755.073 1.104.22zm2.218 3.691c-.87 0-1.316-.475-1.316-1.44V23.98h-.497v-.804h.497v-.811l1.009-.052v.863h.811v.804h-.811v1.565c0 .424.175.621.504.621.13 0 .26-.015.388-.044l.051.812a2.787 2.787 0 0 1-.636.065z"/><path fill="url(#b)" d="M15.037 19.235c5.338 0 8.007-3.559 10.677-7.117H8v7.117z"/><path fill="url(#c)" d="M36.392 5c-5.339 0-8.008 3.559-10.677 7.118h17.713V5z"/></g></svg>