<svg xmlns="http://www.w3.org/2000/svg" width="640" height="360" fill="none"><linearGradient id="a" x1="183.021" x2="308.781" y1="180.055" y2="133.344" gradientUnits="userSpaceOnUse"><stop offset="0" stop-color="#005ab9"/><stop offset="1" stop-color="#1e3764"/></linearGradient><linearGradient id="b" x1="330.569" x2="464.1" y1="148.318" y2="102.76" gradientUnits="userSpaceOnUse"><stop offset="0" stop-color="#fba900"/><stop offset="1" stop-color="#ffd800"/></linearGradient><path fill="#fff" d="M125.4 36h389.518a14.4 14.4 0 0 1 14.4 14.4v259.2a14.4 14.4 0 0 1-14.4 14.4H125.4a14.4 14.4 0 0 1-10.182-4.218A14.4 14.4 0 0 1 111 309.6V50.4A14.4 14.4 0 0 1 125.4 36"/><path fill="#1e3764" d="M148.249 285.901v-49.664h15.325c11.139 0 18.305 4.186 18.305 12.842 0 4.895-2.271 8.301-5.463 10.287 4.611 2.128 7.307 6.243 7.307 11.848 0 10.004-7.307 14.687-18.659 14.687zm9.862-29.018h7.308c4.469 0 6.385-2.2 6.385-6.244 0-4.328-3.476-5.746-8.159-5.746h-5.534zm0 20.362h6.101c5.96 0 9.437-1.49 9.437-6.172 0-4.612-2.98-6.528-8.585-6.528h-6.953zm44.737 9.507c-9.72 0-14.615-4.753-14.615-11.139 0-7.024 5.747-11.139 14.26-11.21 2.116.039 4.226.229 6.315.568v-1.703c0-4.328-2.483-6.385-7.237-6.385a24.9 24.9 0 0 0-9.365 1.703l-1.774-7.663c3.051-1.277 7.946-2.128 12.274-2.128 10.43 0 15.609 5.534 15.609 15.112v19.724c-2.909 1.49-8.372 3.121-15.467 3.121m5.96-8.017v-7.591a23.8 23.8 0 0 0-5.037-.568c-3.264 0-5.818 1.277-5.818 4.612 0 2.98 2.128 4.54 5.888 4.54 1.71.056 3.41-.284 4.967-.993m16.4 7.166v-33.985a43.3 43.3 0 0 1 16.035-3.121c10.358 0 16.318 5.108 16.318 14.544v22.562h-9.791v-21.852c0-4.896-2.271-7.166-6.598-7.166a14.9 14.9 0 0 0-6.244 1.277v27.741zm66.569-34.978-1.845 7.734a21.6 21.6 0 0 0-8.017-1.774c-5.747 0-8.869 4.044-8.869 10.713 0 7.308 3.264 11.068 9.366 11.068a20.1 20.1 0 0 0 7.875-1.845l1.561 7.876a23.9 23.9 0 0 1-10.217 2.057c-11.778 0-18.589-7.307-18.589-18.872 0-11.494 6.741-19.085 18.022-19.085a27.4 27.4 0 0 1 10.713 2.128m21.151 35.829c-10.926 0-17.737-7.591-17.737-19.014 0-11.352 6.811-18.943 17.737-18.943 10.997 0 17.667 7.591 17.667 18.943 0 11.423-6.67 19.014-17.667 19.014m0-8.088c5.038 0 7.663-4.186 7.663-10.926 0-6.669-2.625-10.855-7.663-10.855-4.966 0-7.733 4.186-7.733 10.855 0 6.74 2.767 10.926 7.733 10.926m23.332 7.237v-33.985a43.3 43.3 0 0 1 16.035-3.121c10.358 0 16.318 5.108 16.318 14.544v22.562h-9.791v-21.852c0-4.896-2.27-7.166-6.598-7.166a14.9 14.9 0 0 0-6.244 1.277v27.741zm54.434.851c-8.443 0-12.771-4.611-12.771-13.977v-15.324h-4.824v-7.805h4.824v-7.875l9.791-.497v8.372h7.875v7.805h-7.875v15.183c0 4.115 1.703 6.03 4.896 6.03a17.2 17.2 0 0 0 3.76-.425l.497 7.875a27 27 0 0 1-6.173.638m24.713 0c-9.72 0-14.616-4.753-14.616-11.139 0-7.024 5.747-11.139 14.261-11.21 2.116.039 4.226.229 6.315.568v-1.703c0-4.328-2.484-6.385-7.237-6.385a24.9 24.9 0 0 0-9.365 1.703l-1.774-7.663c3.051-1.277 7.946-2.128 12.274-2.128 10.43 0 15.609 5.534 15.609 15.112v19.724c-2.909 1.49-8.372 3.121-15.467 3.121m5.96-8.017v-7.591a23.8 23.8 0 0 0-5.038-.568c-3.263 0-5.817 1.277-5.817 4.612 0 2.98 2.128 4.54 5.888 4.54 1.71.056 3.41-.284 4.967-.993m43.005-27.812-1.845 7.734a21.6 21.6 0 0 0-8.017-1.774c-5.747 0-8.868 4.044-8.868 10.713 0 7.308 3.263 11.068 9.365 11.068a20.1 20.1 0 0 0 7.875-1.845l1.561 7.876a23.9 23.9 0 0 1-10.217 2.057c-11.777 0-18.588-7.307-18.588-18.872 0-11.494 6.74-19.085 18.021-19.085a27.4 27.4 0 0 1 10.713 2.128m21.526 35.829c-8.442 0-12.77-4.611-12.77-13.977v-15.324h-4.825v-7.805h4.825v-7.875l9.791-.497v8.372h7.875v7.805h-7.875v15.183c0 4.115 1.702 6.03 4.895 6.03a17.2 17.2 0 0 0 3.76-.425l.497 7.875a27 27 0 0 1-6.173.638"/><path fill="url(#a)" d="M216.543 211.405c51.808 0 77.713-34.539 103.617-69.079H148.249v69.079z"/><path fill="url(#b)" d="M423.777 73.248c-51.808 0-77.713 34.539-103.617 69.078h171.911V73.248z"/></svg>