<svg xmlns="http://www.w3.org/2000/svg" width="640" height="360" viewBox="0 0 480.006 270.003"><g transform="matrix(4.77033 0 0 4.77033 -728.381 -182.957)"><path d="M90.32 7.72H48.66c3.7 4.18 5.43 9.78 5.43 16.1s-1.74 12.01-5.46 16.21h41.68c11.87 0 17.02-6.71 17.02-16.19S102.18 7.72 90.31 7.72z" class="cls-2" style="stroke-width:0" transform="matrix(.75 0 0 .75 162.752 48.75)"/><path d="M0 3.54V44.2c0 1.95 1.59 3.54 3.54 3.54h24.3c18.37 0 26.33-10.28 26.33-23.92S46.2 0 27.83 0H3.54C1.59 0 0 1.59 0 3.54" class="cls-3" style="fill:#fff;stroke-width:0" transform="matrix(.75 0 0 .75 162.752 48.75)"/><path d="M16.26 9.98v30.05h13.08c11.87 0 17.02-6.71 17.02-16.19S41.21 7.72 29.34 7.72H18.53c-1.26 0-2.27 1.03-2.27 2.26" class="cls-1" style="fill:#c06;stroke-width:0" transform="matrix(.75 0 0 .75 162.752 48.75)"/><path d="M27.83 44.5H6.71c-1.88 0-3.4-1.52-3.4-3.4V6.65c0-1.88 1.52-3.4 3.4-3.4h21.13c20.05 0 23.04 12.9 23.04 20.58 0 13.32-8.19 20.67-23.04 20.67zM6.71 4.39c-1.26 0-2.26 1.01-2.26 2.26V41.1a2.26 2.26 0 0 0 2.26 2.27h21.13c14.12 0 21.91-6.94 21.91-19.54 0-16.92-13.73-19.45-21.91-19.45H6.71Z" class="cls-2" style="stroke-width:0" transform="matrix(.75 0 0 .75 162.752 48.75)"/><path d="M20.86 19.78c.46 0 .88.07 1.29.21s.74.37 1.04.65c.28.3.51.67.69 1.1.16.44.25.96.25 1.56 0 .53-.07 1.01-.19 1.45-.14.44-.34.83-.6 1.15s-.6.57-1.01.76c-.41.18-.88.28-1.43.28h-3.1v-7.18h3.06zm-.11 5.86c.23 0 .44-.04.67-.11.21-.07.41-.19.57-.37s.3-.39.41-.67.16-.6.16-1.01c0-.35-.04-.69-.11-.97s-.19-.55-.35-.74-.37-.37-.64-.48-.58-.16-.97-.16h-1.13v4.53h1.4v-.02zM30.52 19.78v1.33h-3.79v1.54h3.49v1.22h-3.49v1.75h3.88v1.33h-5.45v-7.18h5.36v.02zM35.94 19.78l2.69 7.18h-1.65l-.55-1.59h-2.69l-.57 1.59h-1.59l2.71-7.18zm.09 4.41-.9-2.64h-.02l-.94 2.64zM41.19 19.78v5.86h3.5v1.33h-5.08v-7.18h1.57z" class="cls-3" style="fill:#fff;stroke-width:0" transform="matrix(.75 0 0 .75 162.752 48.75)"/><circle cx="170.515" cy="66.286" r="2.483" class="cls-2" style="stroke-width:0"/><path d="M172.39 78.773a3.755 3.755 0 0 1-3.758-3.757v-2.933c0-1.035.833-1.882 1.883-1.882 1.035 0 1.882.832 1.882 1.882v6.69h-.015z" class="cls-2" style="stroke-width:0"/><path d="M63.3 15.7c-.8 0-1.42-.19-1.88-.57-.45-.38-.68-.93-.68-1.64 0-.64.23-1.16.69-1.57s1.08-.61 1.86-.61 1.42.19 1.86.57.67.92.67 1.61-.23 1.19-.68 1.6-1.07.61-1.85.61zm-2.13 16.92V18.49h4.26v14.13zM69.41 32.61V18.48h4.04l.13 2.87-.85.32q.3-.96 1.05-1.74c.5-.52 1.11-.94 1.82-1.26s1.45-.48 2.23-.48c1.06 0 1.96.22 2.69.65s1.28 1.08 1.65 1.94.56 1.91.56 3.15v8.67h-4.28v-8.33q0-.855-.24-1.41c-.16-.37-.4-.65-.73-.84s-.73-.27-1.21-.25c-.37 0-.72.06-1.04.17-.32.12-.59.28-.82.51-.23.22-.41.47-.55.76s-.2.59-.2.93v8.46H69.4ZM98.01 24.11c-.32-.72-.76-1.34-1.33-1.88-.57-.53-1.22-.95-1.94-1.25-.49-.2-1.02-.31-1.56-.38l4.78-5.13-.82-1.65H85.7v3.8l5.97.12-3.95 4.29.98 2.63c.35-.18.7-.32 1.04-.43s.66-.19.96-.25.59-.09.85-.09c.59 0 1.09.1 1.5.29s.74.48.96.86.33.85.33 1.4c0 .51-.13.98-.39 1.38-.26.41-.59.72-1.01.94s-.87.33-1.37.33-.97-.08-1.42-.25-.89-.44-1.3-.81c-.42-.37-.82-.87-1.21-1.49l-3.25 2.1c.92 1.54 1.95 2.63 3.07 3.26 1.13.63 2.44.94 3.95.94 1.31 0 2.5-.28 3.58-.85 1.07-.57 1.92-1.33 2.55-2.3s.94-2.07.94-3.31c0-.82-.16-1.58-.48-2.3z" class="cls-3" style="fill:#fff;stroke-width:0" transform="matrix(.75 0 0 .75 162.752 48.75)"/></g></svg>