<svg width="240" height="80" xmlns="http://www.w3.org/2000/svg"><g fill-rule="nonzero" fill="none"><path d="M45.987 71.19C62.985 71.273 78.5 57.329 78.5 40.366 78.5 21.815 62.985 8.994 45.987 9H31.36C14.16 8.994 0 21.82 0 40.365c0 16.967 14.158 30.907 31.36 30.826h14.627Z" fill="#0079BE"/><path d="M31.428 11.57C15.711 11.575 2.974 24.316 2.97 40.04 2.974 55.76 15.71 68.5 31.428 68.505 47.15 68.5 59.89 55.761 59.891 40.04 59.89 24.316 47.15 11.575 31.428 11.57ZM13.39 40.04c.014-7.684 4.813-14.236 11.58-16.84v33.675c-6.767-2.602-11.566-9.15-11.58-16.835Zm24.494 16.843V23.199c6.77 2.597 11.576 9.153 11.588 16.84-.012 7.69-4.818 14.241-11.588 16.844Z" fill="#FFF"/><g fill="#211E1F"><path d="M88.467 22.38c0-2.942-1.534-2.748-3.005-2.78v-.85c1.275.062 2.582.062 3.86.062 1.372 0 3.237-.063 5.658-.063 8.467 0 13.078 5.657 13.078 11.449 0 3.239-1.895 11.382-13.472 11.382-1.667 0-3.206-.065-4.742-.065-1.47 0-2.91.032-4.382.065v-.85c1.961-.197 2.911-.262 3.005-2.487V22.38Zm3.206 15.341c0 2.518 1.8 2.812 3.402 2.812 7.065 0 9.385-5.332 9.385-10.206 0-6.114-3.925-10.529-10.235-10.529-1.343 0-1.96.096-2.552.131v17.792Zm17.533 3.01h.62c.914 0 1.569 0 1.569-1.083v-8.862c0-1.437-.49-1.637-1.7-2.287v-.525c1.536-.461 3.37-1.078 3.498-1.177.23-.13.425-.165.59-.165.161 0 .23.197.23.46v12.556c0 1.083.718 1.083 1.634 1.083h.555v.85c-1.113 0-2.258-.065-3.432-.065-1.178 0-2.356.032-3.564.065v-.85Zm3.498-19.135c-.851 0-1.602-.785-1.602-1.635 0-.82.785-1.573 1.602-1.573.848 0 1.603.69 1.603 1.573 0 .884-.722 1.635-1.603 1.635Zm6.605 9.385c0-1.209-.362-1.535-1.895-2.157v-.62c1.405-.458 2.744-.884 4.315-1.572.097 0 .193.067.193.327v2.127c1.868-1.34 3.47-2.454 5.664-2.454 2.777 0 3.757 2.028 3.757 4.579v8.438c0 1.082.72 1.082 1.637 1.082h.588v.85c-1.147 0-2.291-.065-3.466-.065-1.178 0-2.357.032-3.533.065v-.85h.588c.918 0 1.568 0 1.568-1.082v-8.47c0-1.866-1.139-2.78-3.006-2.78-1.045 0-2.713.85-3.797 1.57v9.68c0 1.082.723 1.082 1.64 1.082h.588v.85c-1.144 0-2.29-.066-3.468-.066-1.176 0-2.355.033-3.531.066v-.85h.59c.915 0 1.568 0 1.568-1.083v-8.667Zm16.746 1.572c-.068.295-.068.785 0 1.898.192 3.106 2.192 5.657 4.805 5.657 1.8 0 3.209-.981 4.417-2.19l.457.458c-1.506 1.994-3.37 3.695-6.05 3.695-5.2 0-6.247-5.039-6.247-7.13 0-6.412 4.317-8.31 6.604-8.31 2.65 0 5.498 1.668 5.528 5.135 0 .199 0 .392-.03.591l-.297.196h-9.187Zm5.79-1.047c.815 0 .911-.426.911-.817 0-1.668-1.013-3.01-2.845-3.01-1.993 0-3.367 1.47-3.759 3.827h5.692Zm4.477 9.225h.884c.913 0 1.567 0 1.567-1.083V30.46c0-1.013-1.208-1.21-1.7-1.472V28.5c2.387-1.016 3.696-1.867 3.994-1.867.193 0 .29.098.29.427v2.943h.069c.815-1.275 2.191-3.37 4.184-3.37.818 0 1.863.555 1.863 1.733 0 .884-.619 1.671-1.534 1.671-1.018 0-1.018-.787-2.161-.787-.557 0-2.386.753-2.386 2.716v7.683c0 1.083.652 1.083 1.569 1.083h1.83v.85c-1.8-.034-3.168-.066-4.577-.066-1.34 0-2.714.033-3.891.066v-.85Zm12.591-3.699c.426 2.16 1.733 3.992 4.122 3.992 1.925 0 2.645-1.177 2.645-2.322 0-3.86-7.127-2.617-7.127-7.882 0-1.833 1.473-4.188 5.069-4.188 1.045 0 2.45.296 3.725.951l.232 3.333h-.754c-.326-2.058-1.47-3.236-3.565-3.236-1.308 0-2.549.752-2.549 2.158 0 3.83 7.586 2.649 7.586 7.783 0 2.158-1.734 4.45-5.625 4.45-1.308 0-2.845-.458-3.988-1.11l-.36-3.763.59-.166Zm38.914-12.362h-.816c-.622-3.825-3.336-5.364-6.998-5.364-3.763 0-9.224 2.517-9.224 10.366 0 6.611 4.712 11.352 9.746 11.352 3.237 0 5.92-2.223 6.575-5.659l.75.195-.75 4.776c-1.374.852-5.07 1.735-7.23 1.735-7.65 0-12.489-4.94-12.489-12.299 0-6.705 5.984-11.515 12.393-11.515 2.648 0 5.198.854 7.717 1.737l.326 4.676Zm1.18 16.06h.619c.917 0 1.573 0 1.573-1.082V21.433c0-2.127-.49-2.193-1.735-2.552v-.523c1.308-.424 2.682-1.014 3.369-1.408.356-.195.62-.36.717-.36.2 0 .265.197.265.46v22.598c0 1.083.718 1.083 1.635 1.083h.552v.85c-1.107 0-2.252-.066-3.43-.066-1.177 0-2.354.033-3.566.066v-.85Zm20.997-.95c0 .59.358.622.913.622.393 0 .882-.032 1.31-.032v.689c-1.409.13-4.09.817-4.712 1.012l-.164-.1v-2.646c-1.96 1.602-3.466 2.746-5.79 2.746-1.765 0-3.596-1.144-3.596-3.89v-8.376c0-.85-.13-1.668-1.959-1.83v-.623c1.179-.032 3.79-.228 4.216-.228.363 0 .363.228.363.948v8.436c0 .984 0 3.796 2.843 3.796 1.112 0 2.583-.85 3.955-1.992v-8.803c0-.651-1.568-1.01-2.743-1.339v-.588c2.94-.198 4.774-.458 5.099-.458.265 0 .265.228.265.59v12.065Zm6.507-10.793c1.307-1.112 3.072-2.355 4.872-2.355 3.795 0 6.081 3.307 6.081 6.869 0 4.284-3.138 8.57-7.817 8.57-2.418 0-3.693-.786-4.544-1.144l-.98.75-.685-.358c.29-1.93.457-3.827.457-5.822V21.433c0-2.127-.494-2.193-1.735-2.552v-.523c1.311-.424 2.681-1.014 3.368-1.408.36-.195.621-.36.722-.36.195 0 .26.197.26.46v11.937Zm0 8.896c0 1.244 1.176 3.339 3.367 3.339 3.5 0 4.97-3.437 4.97-6.349 0-3.531-2.678-6.474-5.23-6.474-1.213 0-2.225.786-3.107 1.54v7.944ZM85.425 60.597h.25c.64 0 1.316-.086 1.316-1.013V50.26c0-.928-.676-1.015-1.315-1.015h-.25v-.535c.694 0 1.761.07 2.636.07.888 0 1.955-.07 2.791-.07v.535h-.25c-.638 0-1.316.087-1.316 1.015v9.324c0 .927.678 1.013 1.316 1.013h.25v.537c-.854 0-1.924-.07-2.81-.07-.873 0-1.923.07-2.618.07v-.537Z"/><path d="M90.854 61.21c-.86 0-1.926-.072-2.812-.072-.87 0-1.917.071-2.616.071h-.077v-.688h.326c.645-.015 1.233-.067 1.239-.937V50.26c-.006-.87-.594-.928-1.24-.94h-.325v-.689h.077c.7 0 1.765.07 2.635.07.886 0 1.951-.07 2.793-.07h.079v.689h-.329c-.645.012-1.236.07-1.24.94v9.324c.004.87.595.922 1.24.937h.329v.688h-.08Zm-.077-.153v-.38h-.172c-.636 0-1.392-.11-1.396-1.093V50.26c.004-.983.76-1.094 1.396-1.094h.172v-.378c-.822 0-1.852.07-2.716.07-.845 0-1.868-.065-2.556-.07v.378h.17c.634 0 1.393.11 1.393 1.094v9.324c0 .983-.759 1.093-1.393 1.093h-.17v.38c.688-.007 1.694-.071 2.537-.071.866 0 1.896.066 2.735.071Zm12.301-3.431.036-.035v-6.673c0-1.461-1.016-1.673-1.549-1.673h-.392v-.535c.838 0 1.656.07 2.491.07.73 0 1.462-.07 2.19-.07v.535h-.266c-.75 0-1.586.142-1.586 2.26v8.099c0 .622.019 1.243.106 1.795h-.677l-9.162-10.216v7.334c0 1.548.3 2.08 1.672 2.08h.301v.537c-.764 0-1.528-.07-2.294-.07-.798 0-1.617.07-2.42.07v-.537h.25c1.227 0 1.6-.834 1.6-2.257v-7.496c0-.996-.82-1.6-1.617-1.6h-.233v-.533c.677 0 1.37.07 2.045.07.534 0 1.052-.07 1.584-.07l7.921 8.915Z"/><path d="m104.108 61.477-.734-.027-9.03-10.066v7.133c.02 1.547.256 1.986 1.597 2.004h.38v.688h-.078c-.77 0-1.536-.071-2.295-.071-.798 0-1.614.071-2.421.071h-.078v-.688h.328c1.176-.007 1.512-.762 1.525-2.18v-7.496c-.002-.947-.78-1.522-1.542-1.525h-.311v-.686h.077c.68 0 1.378.068 2.045.068.53 0 1.045-.068 1.645-.042l7.82 8.804V50.92c-.01-1.416-.953-1.586-1.471-1.599h-.472v-.686h.08c.84 0 1.659.068 2.49.068.725 0 1.454-.068 2.19-.068h.077v.686h-.343c-.734.021-1.488.085-1.509 2.184v8.098c0 .622.019 1.244.105 1.783l.017.092h-.092Zm-.676-.157h.588c-.08-.534-.093-1.127-.093-1.718v-8.098c0-2.136.894-2.338 1.66-2.338h.188v-.378c-.7.005-1.404.07-2.111.07-.814 0-1.607-.065-2.412-.07l-.002.378h.315c.547 0 1.626.244 1.626 1.753l-.024 6.725-.036.037-.06.056-7.914-8.949c-.528 0-1.044.07-1.585.07-.653 0-1.32-.065-1.966-.07l-.004.378h.158c.836 0 1.693.638 1.693 1.68v7.494c0 1.423-.396 2.333-1.676 2.338l-.171-.005v.384c.771-.007 1.563-.072 2.342-.072.743 0 1.482.065 2.217.072v-.379h-.224c-1.4-.005-1.749-.614-1.75-2.162v-7.533l9.24 10.337Zm-.354-3.696.056-.051-.056.051Zm-.041-.034v-.006l-.015-.013.015.019Zm5.481-7.991c-1.336 0-1.387.32-1.653 1.619h-.535c.07-.497.16-.995.214-1.513.071-.499.106-.995.106-1.51h.428c.143.534.587.515 1.07.515h9.18c.48 0 .925-.017.962-.552l.424.071c-.07.481-.14.962-.195 1.443-.032.48-.032.96-.032 1.44l-.536.198c-.037-.657-.125-1.711-1.316-1.711h-2.918v9.47c0 1.371.623 1.528 1.474 1.528h.34v.537c-.694 0-1.941-.07-2.9-.07-1.068 0-2.315.07-3.01.07v-.537h.34c.98 0 1.476-.088 1.476-1.492V49.6h-2.919Z"/><path d="M115.533 61.21c-.7 0-1.946-.072-2.902-.072-1.066 0-2.311.071-3.01.071h-.074v-.688h.414c.98-.024 1.375-.036 1.398-1.416v-9.428h-2.84v-.157h2.994v9.585c0 1.428-.575 1.572-1.552 1.573h-.262v.375c.702-.003 1.9-.067 2.932-.067.928 0 2.118.064 2.82.067v-.375h-.26c-.86 0-1.552-.212-1.552-1.61V49.52h2.996c1.195.005 1.35 1.02 1.39 1.68l.383-.141c0-.464.003-.93.035-1.398.052-.458.117-.912.184-1.366l-.272-.046c-.082.518-.582.544-1.03.54h-9.27c-.418 0-.876-.02-1.035-.518h-.293a10.52 10.52 0 0 1-.105 1.444c-.052.489-.134.959-.2 1.429h.381c.234-1.24.388-1.643 1.715-1.624v.157c-1.315.023-1.288.245-1.578 1.56l-.014.061h-.684l.01-.092c.071-.499.161-.995.214-1.513.074-.494.109-.987.109-1.498v-.078h.564l.012.055c.122.45.452.452.905.46h9.269c.496-.008.856-.015.887-.48l.007-.085.08.018.503.079-.011.078c-.072.476-.142.957-.194 1.435-.036.473-.036.955-.036 1.435v.055l-.05.02-.63.23-.004-.104c-.047-.67-.118-1.637-1.242-1.637h-2.84v9.392c.016 1.342.549 1.435 1.396 1.452h.417v.689h-.075Zm3.75-.613h.25c.64 0 1.317-.086 1.317-1.013V50.26c0-.928-.677-1.015-1.316-1.015h-.25v-.535c1.083 0 2.936.07 4.428.07 1.498 0 3.345-.07 4.554-.07-.03.764-.013 1.941.04 2.723l-.537.143c-.085-1.156-.299-2.08-2.168-2.08h-2.472v4.66h2.115c1.068 0 1.3-.603 1.406-1.567h.533a39.713 39.713 0 0 0 0 4.113l-.533.106c-.105-1.068-.16-1.761-1.388-1.761h-2.132v4.145c0 1.158 1.027 1.158 2.168 1.158 2.135 0 3.077-.144 3.611-2.17l.499.122a37.912 37.912 0 0 0-.604 2.832c-1.14 0-3.187-.07-4.786-.07-1.604 0-3.72.07-4.735.07v-.537Z"/><path d="M128.803 61.21c-1.143 0-3.189-.074-4.787-.074-1.603 0-3.718.073-4.733.073h-.075v-.688h.324c.645-.01 1.23-.067 1.24-.937V50.26c-.01-.868-.595-.926-1.24-.94h-.324v-.686h.075c1.086 0 2.937.068 4.428.068 1.497 0 3.343-.068 4.555-.068h.08l-.004.079a27.461 27.461 0 0 0 .036 2.715l.003.064-.06.017-.625.163-.004-.091c-.105-1.155-.259-1.993-2.091-2.01h-2.398l-.002 4.505h2.043c1.025-.01 1.208-.534 1.33-1.493l.005-.07h.683l-.001.08a41.96 41.96 0 0 0-.057 2.08c0 .674.022 1.349.057 2.026v.063l-.063.015-.619.123-.006-.084c-.122-1.086-.13-1.68-1.313-1.694l-2.057-.001v4.07c.002 1.082.934 1.075 2.094 1.082 2.142-.013 3.001-.116 3.538-2.115l.017-.072.076.014.57.146-.018.074c-.23.943-.443 1.883-.602 2.826l-.015.063h-.06Zm-.066-.156c.155-.898.358-1.798.577-2.694l-.352-.089c-.533 1.992-1.565 2.17-3.665 2.156-1.12 0-2.243 0-2.248-1.236V54.97h2.211c1.242-.014 1.37.737 1.457 1.75l.385-.08a38.746 38.746 0 0 1 0-3.972h-.385c-.098.926-.388 1.578-1.473 1.565h-2.195v-4.817h2.552c1.85-.012 2.158.943 2.237 2.062l.384-.104a30.058 30.058 0 0 1-.052-1.74c0-.306.007-.593.017-.845-1.21.005-3.01.07-4.475.07-1.463 0-3.263-.065-4.353-.07v.378h.173c.634 0 1.392.11 1.394 1.094v9.324c-.002.981-.76 1.09-1.394 1.094h-.173v.376c1.038-.002 3.094-.068 4.657-.068 1.57 0 3.574.066 4.721.068Zm3.072-10.458c0-1.298-.71-1.351-1.265-1.351h-.32v-.536c.57 0 1.672.072 2.758.072 1.068 0 1.923-.072 2.865-.072 2.24 0 4.236.606 4.236 3.136 0 1.598-1.068 2.577-2.473 3.131l3.041 4.554c.499.752.853.963 1.727 1.067v.537c-.588 0-1.158-.07-1.744-.07-.551 0-1.123.07-1.672.07-1.37-1.798-2.547-3.72-3.703-5.769h-1.17v3.81c0 1.373.637 1.422 1.455 1.422h.32v.537c-1.016 0-2.044-.07-3.06-.07-.854 0-1.691.07-2.58.07v-.537h.32c.661 0 1.265-.299 1.265-.959v-9.042Zm2.279 4.129h.869c1.78 0 2.739-.676 2.739-2.777 0-1.582-1.013-2.597-2.599-2.597-.534 0-.761.055-1.01.071v5.303Z"/><path d="M142.378 61.21c-.596 0-1.163-.072-1.748-.072-.543 0-1.11.071-1.73.041-1.366-1.79-2.535-3.701-3.685-5.735h-1.052v3.73c.019 1.338.557 1.327 1.38 1.347h.398v.688h-.079c-1.016 0-2.05-.071-3.06-.071-.85 0-1.684.071-2.578.071h-.077v-.688h.397c.642-.004 1.182-.283 1.185-.883v-9.042c-.014-1.263-.632-1.256-1.185-1.274h-.397v-.69h.077c.577 0 1.675.07 2.758.07 1.063 0 1.918-.07 2.866-.07 2.242.005 4.307.624 4.313 3.208 0 1.608-1.062 2.61-2.435 3.171l2.99 4.477c.497.738.807.922 1.673 1.033l.065.01v.678h-.076Zm-8.292-5.921h1.216l.021.039c1.16 2.045 2.329 3.965 3.64 5.73.542 0 1.113-.074 1.667-.074.57 0 1.117.062 1.671.07v-.39c-.835-.103-1.226-.352-1.713-1.091l-3.096-4.634.088-.036c1.392-.547 2.422-1.499 2.424-3.063-.002-2.47-1.92-3.042-4.156-3.052-.94 0-1.793.07-2.866.07-1.045 0-2.1-.065-2.682-.07v.378h.244c.553.001 1.34.092 1.34 1.43v9.042c0 .715-.67 1.04-1.34 1.042h-.244v.375c.856-.003 1.667-.07 2.502-.07.996 0 2 .067 2.984.07v-.375h-.243c-.812-.002-1.535-.103-1.535-1.507v-3.884h.077Zm0-.49h-.078v-5.448l.068-.006c.243-.019.484-.07 1.021-.07 1.622 0 2.676 1.054 2.678 2.677-.005 2.125-1.024 2.847-2.818 2.848h-.871Zm.87-.152c1.763-.015 2.649-.627 2.667-2.695-.01-1.555-.976-2.52-2.526-2.526-.48 0-.707.045-.934.064v5.157h.794Zm19.503 2.979.032-.035v-6.673c0-1.461-1.013-1.673-1.546-1.673h-.39v-.535c.836 0 1.653.07 2.49.07.73 0 1.458-.07 2.192-.07v.535h-.268c-.748 0-1.584.142-1.584 2.26v8.099c0 .622.017 1.243.105 1.795h-.675l-9.164-10.216v7.334c0 1.548.303 2.08 1.672 2.08h.303v.537c-.764 0-1.53-.07-2.294-.07-.804 0-1.622.07-2.421.07v-.537h.247c1.229 0 1.602-.834 1.602-2.257v-7.496c0-.996-.818-1.6-1.617-1.6h-.232v-.533c.674 0 1.37.07 2.046.07.53 0 1.049-.07 1.583-.07l7.92 8.915Z"/><path d="m155.49 61.475-.733-.024-9.03-10.067v7.131c.02 1.549.255 1.988 1.597 2.006h.377v.688h-.078c-.77 0-1.533-.073-2.295-.073-.795 0-1.617.073-2.418.073h-.08v-.688h.327c1.175-.005 1.512-.762 1.523-2.186v-7.491c-.001-.948-.777-1.523-1.538-1.524h-.312v-.688h.08c.679 0 1.375.07 2.046.07.523 0 1.04-.07 1.636-.046l7.822 8.808v-6.547c-.005-1.414-.952-1.59-1.47-1.597h-.47v-.688h.078c.842 0 1.661.07 2.493.07.725 0 1.455-.07 2.188-.07h.077v.688h-.342c-.734.02-1.49.085-1.509 2.184v8.098c0 .622.016 1.24.107 1.787l.01.086h-.086Zm-.676-.155h.585c-.078-.534-.095-1.127-.095-1.718v-8.098c.001-2.136.902-2.333 1.664-2.34h.187v-.376c-.699.005-1.403.07-2.11.07-.817 0-1.61-.065-2.416-.07v.377h.316c.547.006 1.626.245 1.626 1.752l-.025 6.727-.034.037-.054.057-7.92-8.95c-.528 0-1.044.07-1.582.07-.659 0-1.324-.065-1.972-.07v.377h.158c.836.006 1.693.636 1.693 1.679v7.491c0 1.429-.402 2.338-1.678 2.343h-.173v.375c.77-.003 1.563-.067 2.344-.067.746 0 1.485.064 2.22.067v-.375h-.224c-1.401 0-1.752-.614-1.754-2.163v-7.53l9.244 10.335Zm-.355-3.696.054-.05-.054.05Zm-.045-.033v-.006l-.013-.014.013.02Zm5.684.997c-.18.603-.395 1.07-.395 1.387 0 .536.75.622 1.334.622h.199v.537a40.35 40.35 0 0 0-2.157-.07c-.64 0-1.277.032-1.919.07v-.537h.107c.694 0 1.283-.409 1.545-1.158l2.85-8.166c.23-.659.554-1.548.661-2.208a9.068 9.068 0 0 0 1.617-.764c.055-.019.086-.037.142-.037.053 0 .087 0 .126.055.052.14.104.303.161.444l3.274 9.31c.213.621.424 1.279.655 1.814.215.499.59.71 1.178.71h.105v.537c-.8-.039-1.603-.07-2.454-.07-.873 0-1.765.032-2.672.07v-.537h.198c.407 0 1.103-.07 1.103-.515 0-.23-.16-.71-.359-1.282l-.692-2.064h-4.039l-.568 1.852Zm2.596-7.885h-.036l-1.654 5.037h3.325l-1.635-5.037Z"/><path d="M169.576 61.21c-.8-.037-1.602-.074-2.45-.074-.872 0-1.758.037-2.668.073l-.08.005v-.696h.273c.412 0 1.024-.094 1.024-.435.005-.203-.155-.692-.351-1.258l-.678-2.012h-3.925l-.553 1.797c-.18.608-.393 1.078-.392 1.368.006.434.671.54 1.261.54h.274v.696l-.08-.005c-.712-.036-1.439-.073-2.148-.073-.638 0-1.28.037-1.918.073l-.082.005v-.696h.183c.663-.002 1.216-.379 1.472-1.103l2.85-8.167c.233-.66.554-1.548.708-2.257a9.034 9.034 0 0 0 1.615-.764c.05-.016.099-.04.172-.04a.22.22 0 0 1 .196.103c.05.147.106.305.16.45l3.278 9.307c.21.624.422 1.282.654 1.807.206.476.533.662 1.105.664h.182v.696l-.082-.005Zm-5.043-.16c.88-.031 1.743-.066 2.594-.066.826 0 1.6.035 2.373.066v-.372h-.024c-.61.004-1.03-.235-1.249-.76-.232-.54-.449-1.2-.657-1.823l-3.277-9.307c-.054-.142-.106-.303-.153-.43-.014-.016-.01-.016-.025-.016h-.033c-.037 0-.058.01-.103.023-.343.223-1.058.573-1.585.712-.11.674-.429 1.562-.661 2.221l-2.848 8.169c-.271.772-.895 1.213-1.619 1.211h-.028v.372c.61-.031 1.226-.066 1.844-.066.688 0 1.391.035 2.07.066v-.372h-.115c-.579-.007-1.388-.072-1.41-.7 0-.356.22-.811.393-1.412l.078.023-.078-.026.586-1.902h4.149l.714 2.115c.2.571.362 1.045.362 1.306-.025.547-.776.585-1.18.596h-.118v.372Zm-3.638-5.233 1.704-5.191h.097v.077l-.02.004.02-.004v-.077h.053l1.689 5.19h-3.543Zm.214-.155h3.114l-1.549-4.769-1.565 4.77Zm1.509-4.936.04-.014-.04.014Zm7.745-1.127c-1.335 0-1.388.32-1.656 1.619h-.534c.07-.497.16-.995.216-1.513.071-.499.104-.995.104-1.51h.429c.142.534.589.515 1.066.515h9.184c.478 0 .922-.017.96-.552l.425.071c-.068.481-.138.962-.193 1.443-.038.48-.038.96-.038 1.44l-.533.198c-.033-.657-.122-1.711-1.315-1.711h-2.919v9.47c0 1.371.625 1.528 1.476 1.528h.338v.537c-.693 0-1.937-.07-2.9-.07-1.066 0-2.313.07-3.007.07v-.537h.337c.981 0 1.48-.088 1.48-1.492V49.6h-2.92Z"/><path d="M177.373 61.21c-.698 0-1.944-.072-2.9-.072-1.063 0-2.31.071-3.007.071h-.078v-.688h.415c.981-.024 1.375-.036 1.4-1.416l-.003-9.428h-2.837v-.157h2.994v9.585c0 1.428-.576 1.568-1.554 1.572h-.261v.38c.704-.007 1.899-.071 2.932-.071.929 0 2.118.064 2.821.071v-.38h-.262c-.856-.004-1.549-.21-1.551-1.609V49.52h2.996c1.194.005 1.35 1.02 1.384 1.68l.389-.141c0-.464.001-.93.036-1.396.049-.458.115-.914.181-1.369l-.269-.045c-.081.518-.584.547-1.027.54h-9.274c-.42.004-.874-.02-1.035-.52h-.291c-.006.493-.039.972-.11 1.446-.046.49-.134.961-.2 1.429h.381c.236-1.24.39-1.643 1.72-1.624v.157c-1.319.022-1.29.245-1.58 1.56l-.014.061h-.686l.01-.089c.075-.502.164-.998.215-1.513.073-.497.108-.99.108-1.501v-.078h.562l.015.055c.125.45.45.452.905.46l.09.002h9.184c.491-.01.85-.017.881-.481l.005-.085.084.017.505.079-.014.078c-.073.476-.14.957-.195 1.435-.036.474-.036.956-.036 1.435v.055l-.05.02-.63.23-.004-.104c-.046-.669-.116-1.636-1.24-1.636h-2.842v9.391c.018 1.343.55 1.435 1.397 1.452h.417v.69h-.077Zm3.84-.613h.25c.643 0 1.315-.086 1.315-1.013V50.26c0-.928-.672-1.015-1.315-1.015h-.25v-.535c.696 0 1.762.07 2.632.07.893 0 1.96-.07 2.797-.07v.535h-.25c-.64 0-1.318.087-1.318 1.015v9.324c0 .927.678 1.013 1.319 1.013h.249v.537c-.855 0-1.924-.07-2.81-.07-.874 0-1.923.07-2.618.07v-.537Z"/><path d="M186.643 61.21c-.86 0-1.925-.074-2.812-.074-.87 0-1.922.073-2.616.073h-.078v-.688h.327c.643-.01 1.233-.066 1.235-.937V50.26c-.002-.868-.592-.928-1.235-.94h-.327v-.686h.078c.694 0 1.763.068 2.63.068.888 0 1.955-.068 2.798-.068h.075v.686h-.325c-.65.012-1.234.072-1.242.94v9.324c.008.871.592.927 1.242.937h.325v.688h-.075Zm-.08-.156v-.377h-.17c-.638 0-1.393-.112-1.393-1.093V50.26c0-.983.755-1.094 1.393-1.094h.17v-.378c-.822.005-1.85.07-2.718.07-.842 0-1.863-.065-2.553-.07v.378h.172c.633 0 1.39.11 1.393 1.094v9.324c-.002.98-.76 1.093-1.393 1.093h-.172v.377c.687-.008 1.694-.068 2.539-.068.862 0 1.892.064 2.731.068Zm7.175-12.61c3.793 0 6.817 2.352 6.817 6.141 0 4.095-2.936 6.815-6.724 6.815-3.776 0-6.656-2.563-6.656-6.39 0-3.7 2.863-6.566 6.563-6.566Zm.27 12.173c3.452 0 4.053-3.046 4.053-5.64 0-2.602-1.402-5.75-4.357-5.75-3.115 0-4.039 2.776-4.039 5.158 0 3.186 1.459 6.232 4.342 6.232Z"/><path d="M187.095 55.01c.008-3.743 2.905-6.639 6.643-6.644v.153c-3.658 0-6.488 2.83-6.492 6.492.009 3.783 2.848 6.308 6.584 6.309 3.751-.001 6.645-2.684 6.651-6.739-.004-3.74-2.981-6.057-6.743-6.062v-.153c3.822.003 6.886 2.378 6.894 6.215-.004 4.138-2.978 6.887-6.802 6.894-3.805-.007-6.727-2.596-6.734-6.464Zm2.493-.625c.005-2.393.94-5.239 4.116-5.239 3.021.008 4.431 3.216 4.436 5.83-.005 2.595-.615 5.715-4.132 5.715v-.15c3.384-.006 3.97-2.97 3.978-5.565 0-2.58-1.39-5.668-4.282-5.672-3.052.004-3.956 2.71-3.962 5.081.003 3.17 1.448 6.148 4.266 6.155v.15c-2.954-.003-4.415-3.1-4.42-6.305Zm22.958 3.24.036-.034v-6.673c0-1.461-1.017-1.673-1.551-1.673h-.385v-.535c.834 0 1.652.07 2.486.07.732 0 1.461-.07 2.192-.07v.535h-.27c-.745 0-1.583.142-1.583 2.26v8.099c0 .622.018 1.243.108 1.795h-.675l-9.166-10.216v7.334c0 1.548.301 2.08 1.67 2.08h.306v.537c-.767 0-1.53-.07-2.296-.07-.8 0-1.62.07-2.422.07v-.537h.25c1.231 0 1.6-.834 1.6-2.257v-7.496c0-.996-.815-1.6-1.618-1.6h-.232v-.533c.676 0 1.371.07 2.046.07.535 0 1.05-.07 1.585-.07l7.919 8.915Z"/><path d="m213.58 61.476-.736-.026-9.03-10.066v7.133c.02 1.547.256 1.985 1.592 2.001h.386v.691h-.078c-.772 0-1.535-.071-2.295-.071-.799 0-1.616.071-2.424.071h-.074v-.69h.326c1.173-.005 1.51-.76 1.525-2.179v-7.496c-.003-.948-.779-1.523-1.544-1.524h-.307v-.686h.074c.682 0 1.376.068 2.047.068.528 0 1.042-.068 1.644-.042l7.818 8.804V50.92c-.005-1.416-.953-1.586-1.473-1.599h-.468v-.686h.08c.838 0 1.659.068 2.486.068.73 0 1.457-.068 2.194-.068h.077v.686h-.346c-.732.021-1.489.088-1.504 2.184v8.099c0 .622.014 1.242.1 1.786l.015.087h-.085Zm-.676-.156h.582c-.077-.534-.09-1.127-.09-1.718v-8.098c0-2.14.896-2.333 1.659-2.34h.192v-.376c-.702.005-1.405.07-2.117.07-.81 0-1.605-.065-2.411-.07v.377h.312c.552.006 1.625.249 1.625 1.754l-.02 6.725-.033.037-.057.057-7.919-8.95c-.524 0-1.044.07-1.584.07-.656 0-1.323-.065-1.971-.07v.377h.157c.835.006 1.695.636 1.695 1.679v7.496c0 1.423-.397 2.334-1.677 2.338h-.175v.376c.772-.004 1.565-.068 2.347-.068.742 0 1.478.064 2.217.068v-.376h-.23c-1.396 0-1.745-.614-1.745-2.161v-7.534l9.243 10.337Zm-.358-3.696.057-.05-.057.05Zm-.042-.033v-.006l-.015-.014.015.02Zm5.68.997c-.175.603-.39 1.07-.39 1.387 0 .536.748.622 1.332.622h.198v.537a40.385 40.385 0 0 0-2.154-.07c-.643 0-1.28.032-1.919.07v-.537h.101c.698 0 1.287-.409 1.55-1.158l2.85-8.166c.23-.659.552-1.548.656-2.208.57-.194 1.28-.55 1.622-.764.051-.019.087-.037.141-.037.053 0 .087 0 .122.055.055.14.11.303.163.444l3.273 9.31c.213.621.426 1.279.66 1.814.213.499.588.71 1.173.71h.109v.537a50.699 50.699 0 0 0-2.458-.07c-.87 0-1.76.032-2.67.07v-.537h.199c.405 0 1.104-.07 1.104-.515 0-.23-.162-.71-.36-1.282l-.691-2.064h-4.04l-.572 1.852Zm2.6-7.885h-.035l-1.658 5.037h3.33l-1.637-5.037Z"/><path d="M227.663 61.21c-.8-.033-1.6-.072-2.45-.072-.868 0-1.758.039-2.667.071l-.079.005v-.693h.27c.415 0 1.028-.097 1.03-.439.003-.202-.157-.687-.356-1.257l-.676-2.012h-3.927l-.55 1.797c-.178.61-.39 1.078-.387 1.365 0 .437.666.546 1.255.546h.271v.693l-.079-.005c-.712-.032-1.44-.071-2.148-.071-.638 0-1.277.039-1.919.071l-.078.005v-.693h.18c.663-.003 1.218-.384 1.478-1.106l2.848-8.167c.227-.66.547-1.548.705-2.255a9.461 9.461 0 0 0 1.62-.766c.046-.016.094-.037.167-.037a.2.2 0 0 1 .195.103c.053.14.105.301.164.446l3.272 9.307c.213.625.426 1.283.657 1.812.208.471.533.658 1.1.663h.186v.693l-.082-.005Zm-5.043-.158c.88-.033 1.746-.068 2.593-.068.828 0 1.604.035 2.379.066l-.003-.372h-.03c-.602.002-1.022-.235-1.243-.76-.235-.54-.447-1.2-.659-1.821l-3.275-9.309c-.053-.142-.107-.303-.15-.424-.015-.023-.014-.023-.028-.023h-.033c-.037 0-.057.013-.1.025-.347.219-1.06.574-1.587.71-.11.675-.433 1.562-.662 2.222l-2.85 8.169c-.27.772-.892 1.213-1.62 1.211h-.026v.372c.612-.031 1.224-.066 1.844-.066.69 0 1.392.035 2.077.066v-.372h-.121c-.579-.007-1.391-.07-1.412-.703.004-.353.225-.806.396-1.41l.073.024-.073-.026.586-1.902h4.15l.713 2.115c.196.572.358 1.045.358 1.306-.026.547-.772.585-1.18.596h-.117v.374Zm-3.635-5.236 1.707-5.19h.092v.077l-.018.004.018-.004v-.077h.056l1.682 5.19h-3.537Zm.214-.154h3.112l-1.548-4.766-1.564 4.766Zm1.511-4.936.036-.014-.036.014Zm11.445 8.663c0 .712.493.924 1.063.997.73.054 1.53.054 2.352-.036.746-.09 1.387-.517 1.705-.961.284-.392.445-.891.552-1.282h.516c-.195 1.014-.444 2.014-.659 3.027-1.562 0-3.132-.07-4.695-.07-1.568 0-3.132.07-4.698.07v-.537h.245c.644 0 1.34-.086 1.34-1.19V50.26c0-.928-.696-1.015-1.34-1.015h-.245v-.535c.94 0 1.867.07 2.809.07.91 0 1.799-.07 2.707-.07v.535h-.448c-.674 0-1.204.02-1.204.96v9.184Z"/><path d="M237.684 61.21c-1.568 0-3.134-.072-4.695-.072-1.567 0-3.133.071-4.701.071h-.076v-.688h.324c.645-.015 1.255-.06 1.262-1.115v-9.15c-.007-.864-.613-.923-1.262-.936h-.324v-.686h.076c.946 0 1.873.068 2.813.068.903 0 1.792-.068 2.706-.068h.073v.686h-.52c-.69.02-1.119-.012-1.132.885v9.184c.005.663.44.842.994.92.315.022.644.035.988.035.435 0 .888-.02 1.347-.07.725-.085 1.35-.504 1.656-.928.274-.38.432-.869.538-1.257l.016-.06h.67l-.016.094c-.201 1.018-.446 2.013-.661 3.026l-.015.06h-.061Zm-.064-.156c.206-.965.44-1.91.63-2.872h-.365c-.11.388-.269.865-.549 1.254-.332.461-.99.896-1.762.99-.466.049-.928.073-1.365.073-.344 0-.678-.016-1-.038-.579-.064-1.14-.31-1.138-1.072v-9.184c0-.989.625-1.04 1.29-1.04h.367v-.377c-.877.005-1.74.07-2.627.07-.922 0-1.823-.065-2.736-.07v.378h.17c.636 0 1.413.11 1.413 1.09v9.15c0 1.151-.773 1.271-1.412 1.271h-.17v.376c1.538 0 3.077-.067 4.623-.067 1.546 0 3.091.066 4.63.068Zm.507-12.85c1.072 0 1.873.825 1.873 1.881 0 1.051-.8 1.868-1.873 1.868-1.072 0-1.874-.817-1.874-1.868 0-1.056.801-1.88 1.874-1.88Zm0 3.4c.838 0 1.482-.716 1.482-1.519 0-.808-.634-1.53-1.482-1.53-.843 0-1.487.722-1.487 1.53 0 .803.644 1.519 1.487 1.519Zm-.933-.532v-.092c.23-.032.273-.025.273-.168v-1.387c0-.195-.021-.262-.264-.252v-.095h.958c.331 0 .633.157.633.497 0 .28-.185.485-.443.566l.308.429c.144.195.306.378.413.442v.06h-.365c-.175 0-.328-.369-.674-.864h-.207v.623c0 .124.043.116.274.149v.092h-.906Zm.632-.987h.22c.242 0 .356-.184.356-.479 0-.298-.175-.403-.368-.403h-.208v.882Z"/></g><path d="M45.987 71.19C62.985 71.273 78.5 57.329 78.5 40.366 78.5 21.815 62.985 8.994 45.987 9H31.36C14.16 8.994 0 21.82 0 40.365c0 16.967 14.158 30.907 31.36 30.826h14.627Z" fill="#0079BE"/><path d="M31.428 11.57C15.711 11.575 2.974 24.316 2.97 40.04 2.974 55.76 15.71 68.5 31.428 68.505 47.15 68.5 59.89 55.761 59.891 40.04 59.89 24.316 47.15 11.575 31.428 11.57ZM13.39 40.04c.014-7.684 4.813-14.236 11.58-16.84v33.675c-6.767-2.602-11.566-9.15-11.58-16.835Zm24.494 16.843V23.199c6.77 2.597 11.576 9.153 11.588 16.84-.012 7.69-4.818 14.241-11.588 16.844Z" fill="#FFF"/><g fill="#211E1F"><path d="M88.467 22.38c0-2.942-1.534-2.748-3.005-2.78v-.85c1.275.062 2.582.062 3.86.062 1.372 0 3.237-.063 5.658-.063 8.467 0 13.078 5.657 13.078 11.449 0 3.239-1.895 11.382-13.472 11.382-1.667 0-3.206-.065-4.742-.065-1.47 0-2.91.032-4.382.065v-.85c1.961-.197 2.911-.262 3.005-2.487V22.38Zm3.206 15.341c0 2.518 1.8 2.812 3.402 2.812 7.065 0 9.385-5.332 9.385-10.206 0-6.114-3.925-10.529-10.235-10.529-1.343 0-1.96.096-2.552.131v17.792Zm17.533 3.01h.62c.914 0 1.569 0 1.569-1.083v-8.862c0-1.437-.49-1.637-1.7-2.287v-.525c1.536-.461 3.37-1.078 3.498-1.177.23-.13.425-.165.59-.165.161 0 .23.197.23.46v12.556c0 1.083.718 1.083 1.634 1.083h.555v.85c-1.113 0-2.258-.065-3.432-.065-1.178 0-2.356.032-3.564.065v-.85Zm3.498-19.135c-.851 0-1.602-.785-1.602-1.635 0-.82.785-1.573 1.602-1.573.848 0 1.603.69 1.603 1.573 0 .884-.722 1.635-1.603 1.635Zm6.605 9.385c0-1.209-.362-1.535-1.895-2.157v-.62c1.405-.458 2.744-.884 4.315-1.572.097 0 .193.067.193.327v2.127c1.868-1.34 3.47-2.454 5.664-2.454 2.777 0 3.757 2.028 3.757 4.579v8.438c0 1.082.72 1.082 1.637 1.082h.588v.85c-1.147 0-2.291-.065-3.466-.065-1.178 0-2.357.032-3.533.065v-.85h.588c.918 0 1.568 0 1.568-1.082v-8.47c0-1.866-1.139-2.78-3.006-2.78-1.045 0-2.713.85-3.797 1.57v9.68c0 1.082.723 1.082 1.64 1.082h.588v.85c-1.144 0-2.29-.066-3.468-.066-1.176 0-2.355.033-3.531.066v-.85h.59c.915 0 1.568 0 1.568-1.083v-8.667Zm16.746 1.572c-.068.295-.068.785 0 1.898.192 3.106 2.192 5.657 4.805 5.657 1.8 0 3.209-.981 4.417-2.19l.457.458c-1.506 1.994-3.37 3.695-6.05 3.695-5.2 0-6.247-5.039-6.247-7.13 0-6.412 4.317-8.31 6.604-8.31 2.65 0 5.498 1.668 5.528 5.135 0 .199 0 .392-.03.591l-.297.196h-9.187Zm5.79-1.047c.815 0 .911-.426.911-.817 0-1.668-1.013-3.01-2.845-3.01-1.993 0-3.367 1.47-3.759 3.827h5.692Zm4.477 9.225h.884c.913 0 1.567 0 1.567-1.083V30.46c0-1.013-1.208-1.21-1.7-1.472V28.5c2.387-1.016 3.696-1.867 3.994-1.867.193 0 .29.098.29.427v2.943h.069c.815-1.275 2.191-3.37 4.184-3.37.818 0 1.863.555 1.863 1.733 0 .884-.619 1.671-1.534 1.671-1.018 0-1.018-.787-2.161-.787-.557 0-2.386.753-2.386 2.716v7.683c0 1.083.652 1.083 1.569 1.083h1.83v.85c-1.8-.034-3.168-.066-4.577-.066-1.34 0-2.714.033-3.891.066v-.85Zm12.591-3.699c.426 2.16 1.733 3.992 4.122 3.992 1.925 0 2.645-1.177 2.645-2.322 0-3.86-7.127-2.617-7.127-7.882 0-1.833 1.473-4.188 5.069-4.188 1.045 0 2.45.296 3.725.951l.232 3.333h-.754c-.326-2.058-1.47-3.236-3.565-3.236-1.308 0-2.549.752-2.549 2.158 0 3.83 7.586 2.649 7.586 7.783 0 2.158-1.734 4.45-5.625 4.45-1.308 0-2.845-.458-3.988-1.11l-.36-3.763.59-.166Zm38.914-12.362h-.816c-.622-3.825-3.336-5.364-6.998-5.364-3.763 0-9.224 2.517-9.224 10.366 0 6.611 4.712 11.352 9.746 11.352 3.237 0 5.92-2.223 6.575-5.659l.75.195-.75 4.776c-1.374.852-5.07 1.735-7.23 1.735-7.65 0-12.489-4.94-12.489-12.299 0-6.705 5.984-11.515 12.393-11.515 2.648 0 5.198.854 7.717 1.737l.326 4.676Zm1.18 16.06h.619c.917 0 1.573 0 1.573-1.082V21.433c0-2.127-.49-2.193-1.735-2.552v-.523c1.308-.424 2.682-1.014 3.369-1.408.356-.195.62-.36.717-.36.2 0 .265.197.265.46v22.598c0 1.083.718 1.083 1.635 1.083h.552v.85c-1.107 0-2.252-.066-3.43-.066-1.177 0-2.354.033-3.566.066v-.85Zm20.997-.95c0 .59.358.622.913.622.393 0 .882-.032 1.31-.032v.689c-1.409.13-4.09.817-4.712 1.012l-.164-.1v-2.646c-1.96 1.602-3.466 2.746-5.79 2.746-1.765 0-3.596-1.144-3.596-3.89v-8.376c0-.85-.13-1.668-1.959-1.83v-.623c1.179-.032 3.79-.228 4.216-.228.363 0 .363.228.363.948v8.436c0 .984 0 3.796 2.843 3.796 1.112 0 2.583-.85 3.955-1.992v-8.803c0-.651-1.568-1.01-2.743-1.339v-.588c2.94-.198 4.774-.458 5.099-.458.265 0 .265.228.265.59v12.065Zm6.507-10.793c1.307-1.112 3.072-2.355 4.872-2.355 3.795 0 6.081 3.307 6.081 6.869 0 4.284-3.138 8.57-7.817 8.57-2.418 0-3.693-.786-4.544-1.144l-.98.75-.685-.358c.29-1.93.457-3.827.457-5.822V21.433c0-2.127-.494-2.193-1.735-2.552v-.523c1.311-.424 2.681-1.014 3.368-1.408.36-.195.621-.36.722-.36.195 0 .26.197.26.46v11.937Zm0 8.896c0 1.244 1.176 3.339 3.367 3.339 3.5 0 4.97-3.437 4.97-6.349 0-3.531-2.678-6.474-5.23-6.474-1.213 0-2.225.786-3.107 1.54v7.944ZM85.425 60.597h.25c.64 0 1.316-.086 1.316-1.013V50.26c0-.928-.676-1.015-1.315-1.015h-.25v-.535c.694 0 1.761.07 2.636.07.888 0 1.955-.07 2.791-.07v.535h-.25c-.638 0-1.316.087-1.316 1.015v9.324c0 .927.678 1.013 1.316 1.013h.25v.537c-.854 0-1.924-.07-2.81-.07-.873 0-1.923.07-2.618.07v-.537Z"/><path d="M90.854 61.21c-.86 0-1.926-.072-2.812-.072-.87 0-1.917.071-2.616.071h-.077v-.688h.326c.645-.015 1.233-.067 1.239-.937V50.26c-.006-.87-.594-.928-1.24-.94h-.325v-.689h.077c.7 0 1.765.07 2.635.07.886 0 1.951-.07 2.793-.07h.079v.689h-.329c-.645.012-1.236.07-1.24.94v9.324c.004.87.595.922 1.24.937h.329v.688h-.08Zm-.077-.153v-.38h-.172c-.636 0-1.392-.11-1.396-1.093V50.26c.004-.983.76-1.094 1.396-1.094h.172v-.378c-.822 0-1.852.07-2.716.07-.845 0-1.868-.065-2.556-.07v.378h.17c.634 0 1.393.11 1.393 1.094v9.324c0 .983-.759 1.093-1.393 1.093h-.17v.38c.688-.007 1.694-.071 2.537-.071.866 0 1.896.066 2.735.071Zm12.301-3.431.036-.035v-6.673c0-1.461-1.016-1.673-1.549-1.673h-.392v-.535c.838 0 1.656.07 2.491.07.73 0 1.462-.07 2.19-.07v.535h-.266c-.75 0-1.586.142-1.586 2.26v8.099c0 .622.019 1.243.106 1.795h-.677l-9.162-10.216v7.334c0 1.548.3 2.08 1.672 2.08h.301v.537c-.764 0-1.528-.07-2.294-.07-.798 0-1.617.07-2.42.07v-.537h.25c1.227 0 1.6-.834 1.6-2.257v-7.496c0-.996-.82-1.6-1.617-1.6h-.233v-.533c.677 0 1.37.07 2.045.07.534 0 1.052-.07 1.584-.07l7.921 8.915Z"/><path d="m104.108 61.477-.734-.027-9.03-10.066v7.133c.02 1.547.256 1.986 1.597 2.004h.38v.688h-.078c-.77 0-1.536-.071-2.295-.071-.798 0-1.614.071-2.421.071h-.078v-.688h.328c1.176-.007 1.512-.762 1.525-2.18v-7.496c-.002-.947-.78-1.522-1.542-1.525h-.311v-.686h.077c.68 0 1.378.068 2.045.068.53 0 1.045-.068 1.645-.042l7.82 8.804V50.92c-.01-1.416-.953-1.586-1.471-1.599h-.472v-.686h.08c.84 0 1.659.068 2.49.068.725 0 1.454-.068 2.19-.068h.077v.686h-.343c-.734.021-1.488.085-1.509 2.184v8.098c0 .622.019 1.244.105 1.783l.017.092h-.092Zm-.676-.157h.588c-.08-.534-.093-1.127-.093-1.718v-8.098c0-2.136.894-2.338 1.66-2.338h.188v-.378c-.7.005-1.404.07-2.111.07-.814 0-1.607-.065-2.412-.07l-.002.378h.315c.547 0 1.626.244 1.626 1.753l-.024 6.725-.036.037-.06.056-7.914-8.949c-.528 0-1.044.07-1.585.07-.653 0-1.32-.065-1.966-.07l-.004.378h.158c.836 0 1.693.638 1.693 1.68v7.494c0 1.423-.396 2.333-1.676 2.338l-.171-.005v.384c.771-.007 1.563-.072 2.342-.072.743 0 1.482.065 2.217.072v-.379h-.224c-1.4-.005-1.749-.614-1.75-2.162v-7.533l9.24 10.337Zm-.354-3.696.056-.051-.056.051Zm-.041-.034v-.006l-.015-.013.015.019Zm5.481-7.991c-1.336 0-1.387.32-1.653 1.619h-.535c.07-.497.16-.995.214-1.513.071-.499.106-.995.106-1.51h.428c.143.534.587.515 1.07.515h9.18c.48 0 .925-.017.962-.552l.424.071c-.07.481-.14.962-.195 1.443-.032.48-.032.96-.032 1.44l-.536.198c-.037-.657-.125-1.711-1.316-1.711h-2.918v9.47c0 1.371.623 1.528 1.474 1.528h.34v.537c-.694 0-1.941-.07-2.9-.07-1.068 0-2.315.07-3.01.07v-.537h.34c.98 0 1.476-.088 1.476-1.492V49.6h-2.919Z"/><path d="M115.533 61.21c-.7 0-1.946-.072-2.902-.072-1.066 0-2.311.071-3.01.071h-.074v-.688h.414c.98-.024 1.375-.036 1.398-1.416v-9.428h-2.84v-.157h2.994v9.585c0 1.428-.575 1.572-1.552 1.573h-.262v.375c.702-.003 1.9-.067 2.932-.067.928 0 2.118.064 2.82.067v-.375h-.26c-.86 0-1.552-.212-1.552-1.61V49.52h2.996c1.195.005 1.35 1.02 1.39 1.68l.383-.141c0-.464.003-.93.035-1.398.052-.458.117-.912.184-1.366l-.272-.046c-.082.518-.582.544-1.03.54h-9.27c-.418 0-.876-.02-1.035-.518h-.293a10.52 10.52 0 0 1-.105 1.444c-.052.489-.134.959-.2 1.429h.381c.234-1.24.388-1.643 1.715-1.624v.157c-1.315.023-1.288.245-1.578 1.56l-.014.061h-.684l.01-.092c.071-.499.161-.995.214-1.513.074-.494.109-.987.109-1.498v-.078h.564l.012.055c.122.45.452.452.905.46h9.269c.496-.008.856-.015.887-.48l.007-.085.08.018.503.079-.011.078c-.072.476-.142.957-.194 1.435-.036.473-.036.955-.036 1.435v.055l-.05.02-.63.23-.004-.104c-.047-.67-.118-1.637-1.242-1.637h-2.84v9.392c.016 1.342.549 1.435 1.396 1.452h.417v.689h-.075Zm3.75-.613h.25c.64 0 1.317-.086 1.317-1.013V50.26c0-.928-.677-1.015-1.316-1.015h-.25v-.535c1.083 0 2.936.07 4.428.07 1.498 0 3.345-.07 4.554-.07-.03.764-.013 1.941.04 2.723l-.537.143c-.085-1.156-.299-2.08-2.168-2.08h-2.472v4.66h2.115c1.068 0 1.3-.603 1.406-1.567h.533a39.713 39.713 0 0 0 0 4.113l-.533.106c-.105-1.068-.16-1.761-1.388-1.761h-2.132v4.145c0 1.158 1.027 1.158 2.168 1.158 2.135 0 3.077-.144 3.611-2.17l.499.122a37.912 37.912 0 0 0-.604 2.832c-1.14 0-3.187-.07-4.786-.07-1.604 0-3.72.07-4.735.07v-.537Z"/><path d="M128.803 61.21c-1.143 0-3.189-.074-4.787-.074-1.603 0-3.718.073-4.733.073h-.075v-.688h.324c.645-.01 1.23-.067 1.24-.937V50.26c-.01-.868-.595-.926-1.24-.94h-.324v-.686h.075c1.086 0 2.937.068 4.428.068 1.497 0 3.343-.068 4.555-.068h.08l-.004.079a27.461 27.461 0 0 0 .036 2.715l.003.064-.06.017-.625.163-.004-.091c-.105-1.155-.259-1.993-2.091-2.01h-2.398l-.002 4.505h2.043c1.025-.01 1.208-.534 1.33-1.493l.005-.07h.683l-.001.08a41.96 41.96 0 0 0-.057 2.08c0 .674.022 1.349.057 2.026v.063l-.063.015-.619.123-.006-.084c-.122-1.086-.13-1.68-1.313-1.694l-2.057-.001v4.07c.002 1.082.934 1.075 2.094 1.082 2.142-.013 3.001-.116 3.538-2.115l.017-.072.076.014.57.146-.018.074c-.23.943-.443 1.883-.602 2.826l-.015.063h-.06Zm-.066-.156c.155-.898.358-1.798.577-2.694l-.352-.089c-.533 1.992-1.565 2.17-3.665 2.156-1.12 0-2.243 0-2.248-1.236V54.97h2.211c1.242-.014 1.37.737 1.457 1.75l.385-.08a38.746 38.746 0 0 1 0-3.972h-.385c-.098.926-.388 1.578-1.473 1.565h-2.195v-4.817h2.552c1.85-.012 2.158.943 2.237 2.062l.384-.104a30.058 30.058 0 0 1-.052-1.74c0-.306.007-.593.017-.845-1.21.005-3.01.07-4.475.07-1.463 0-3.263-.065-4.353-.07v.378h.173c.634 0 1.392.11 1.394 1.094v9.324c-.002.981-.76 1.09-1.394 1.094h-.173v.376c1.038-.002 3.094-.068 4.657-.068 1.57 0 3.574.066 4.721.068Zm3.072-10.458c0-1.298-.71-1.351-1.265-1.351h-.32v-.536c.57 0 1.672.072 2.758.072 1.068 0 1.923-.072 2.865-.072 2.24 0 4.236.606 4.236 3.136 0 1.598-1.068 2.577-2.473 3.131l3.041 4.554c.499.752.853.963 1.727 1.067v.537c-.588 0-1.158-.07-1.744-.07-.551 0-1.123.07-1.672.07-1.37-1.798-2.547-3.72-3.703-5.769h-1.17v3.81c0 1.373.637 1.422 1.455 1.422h.32v.537c-1.016 0-2.044-.07-3.06-.07-.854 0-1.691.07-2.58.07v-.537h.32c.661 0 1.265-.299 1.265-.959v-9.042Zm2.279 4.129h.869c1.78 0 2.739-.676 2.739-2.777 0-1.582-1.013-2.597-2.599-2.597-.534 0-.761.055-1.01.071v5.303Z"/><path d="M142.378 61.21c-.596 0-1.163-.072-1.748-.072-.543 0-1.11.071-1.73.041-1.366-1.79-2.535-3.701-3.685-5.735h-1.052v3.73c.019 1.338.557 1.327 1.38 1.347h.398v.688h-.079c-1.016 0-2.05-.071-3.06-.071-.85 0-1.684.071-2.578.071h-.077v-.688h.397c.642-.004 1.182-.283 1.185-.883v-9.042c-.014-1.263-.632-1.256-1.185-1.274h-.397v-.69h.077c.577 0 1.675.07 2.758.07 1.063 0 1.918-.07 2.866-.07 2.242.005 4.307.624 4.313 3.208 0 1.608-1.062 2.61-2.435 3.171l2.99 4.477c.497.738.807.922 1.673 1.033l.065.01v.678h-.076Zm-8.292-5.921h1.216l.021.039c1.16 2.045 2.329 3.965 3.64 5.73.542 0 1.113-.074 1.667-.074.57 0 1.117.062 1.671.07v-.39c-.835-.103-1.226-.352-1.713-1.091l-3.096-4.634.088-.036c1.392-.547 2.422-1.499 2.424-3.063-.002-2.47-1.92-3.042-4.156-3.052-.94 0-1.793.07-2.866.07-1.045 0-2.1-.065-2.682-.07v.378h.244c.553.001 1.34.092 1.34 1.43v9.042c0 .715-.67 1.04-1.34 1.042h-.244v.375c.856-.003 1.667-.07 2.502-.07.996 0 2 .067 2.984.07v-.375h-.243c-.812-.002-1.535-.103-1.535-1.507v-3.884h.077Zm0-.49h-.078v-5.448l.068-.006c.243-.019.484-.07 1.021-.07 1.622 0 2.676 1.054 2.678 2.677-.005 2.125-1.024 2.847-2.818 2.848h-.871Zm.87-.152c1.763-.015 2.649-.627 2.667-2.695-.01-1.555-.976-2.52-2.526-2.526-.48 0-.707.045-.934.064v5.157h.794Zm19.503 2.979.032-.035v-6.673c0-1.461-1.013-1.673-1.546-1.673h-.39v-.535c.836 0 1.653.07 2.49.07.73 0 1.458-.07 2.192-.07v.535h-.268c-.748 0-1.584.142-1.584 2.26v8.099c0 .622.017 1.243.105 1.795h-.675l-9.164-10.216v7.334c0 1.548.303 2.08 1.672 2.08h.303v.537c-.764 0-1.53-.07-2.294-.07-.804 0-1.622.07-2.421.07v-.537h.247c1.229 0 1.602-.834 1.602-2.257v-7.496c0-.996-.818-1.6-1.617-1.6h-.232v-.533c.674 0 1.37.07 2.046.07.53 0 1.049-.07 1.583-.07l7.92 8.915Z"/><path d="m155.49 61.475-.733-.024-9.03-10.067v7.131c.02 1.549.255 1.988 1.597 2.006h.377v.688h-.078c-.77 0-1.533-.073-2.295-.073-.795 0-1.617.073-2.418.073h-.08v-.688h.327c1.175-.005 1.512-.762 1.523-2.186v-7.491c-.001-.948-.777-1.523-1.538-1.524h-.312v-.688h.08c.679 0 1.375.07 2.046.07.523 0 1.04-.07 1.636-.046l7.822 8.808v-6.547c-.005-1.414-.952-1.59-1.47-1.597h-.47v-.688h.078c.842 0 1.661.07 2.493.07.725 0 1.455-.07 2.188-.07h.077v.688h-.342c-.734.02-1.49.085-1.509 2.184v8.098c0 .622.016 1.24.107 1.787l.01.086h-.086Zm-.676-.155h.585c-.078-.534-.095-1.127-.095-1.718v-8.098c.001-2.136.902-2.333 1.664-2.34h.187v-.376c-.699.005-1.403.07-2.11.07-.817 0-1.61-.065-2.416-.07v.377h.316c.547.006 1.626.245 1.626 1.752l-.025 6.727-.034.037-.054.057-7.92-8.95c-.528 0-1.044.07-1.582.07-.659 0-1.324-.065-1.972-.07v.377h.158c.836.006 1.693.636 1.693 1.679v7.491c0 1.429-.402 2.338-1.678 2.343h-.173v.375c.77-.003 1.563-.067 2.344-.067.746 0 1.485.064 2.22.067v-.375h-.224c-1.401 0-1.752-.614-1.754-2.163v-7.53l9.244 10.335Zm-.355-3.696.054-.05-.054.05Zm-.045-.033v-.006l-.013-.014.013.02Zm5.684.997c-.18.603-.395 1.07-.395 1.387 0 .536.75.622 1.334.622h.199v.537a40.35 40.35 0 0 0-2.157-.07c-.64 0-1.277.032-1.919.07v-.537h.107c.694 0 1.283-.409 1.545-1.158l2.85-8.166c.23-.659.554-1.548.661-2.208a9.068 9.068 0 0 0 1.617-.764c.055-.019.086-.037.142-.037.053 0 .087 0 .126.055.052.14.104.303.161.444l3.274 9.31c.213.621.424 1.279.655 1.814.215.499.59.71 1.178.71h.105v.537c-.8-.039-1.603-.07-2.454-.07-.873 0-1.765.032-2.672.07v-.537h.198c.407 0 1.103-.07 1.103-.515 0-.23-.16-.71-.359-1.282l-.692-2.064h-4.039l-.568 1.852Zm2.596-7.885h-.036l-1.654 5.037h3.325l-1.635-5.037Z"/><path d="M169.576 61.21c-.8-.037-1.602-.074-2.45-.074-.872 0-1.758.037-2.668.073l-.08.005v-.696h.273c.412 0 1.024-.094 1.024-.435.005-.203-.155-.692-.351-1.258l-.678-2.012h-3.925l-.553 1.797c-.18.608-.393 1.078-.392 1.368.006.434.671.54 1.261.54h.274v.696l-.08-.005c-.712-.036-1.439-.073-2.148-.073-.638 0-1.28.037-1.918.073l-.082.005v-.696h.183c.663-.002 1.216-.379 1.472-1.103l2.85-8.167c.233-.66.554-1.548.708-2.257a9.034 9.034 0 0 0 1.615-.764c.05-.016.099-.04.172-.04a.22.22 0 0 1 .196.103c.05.147.106.305.16.45l3.278 9.307c.21.624.422 1.282.654 1.807.206.476.533.662 1.105.664h.182v.696l-.082-.005Zm-5.043-.16c.88-.031 1.743-.066 2.594-.066.826 0 1.6.035 2.373.066v-.372h-.024c-.61.004-1.03-.235-1.249-.76-.232-.54-.449-1.2-.657-1.823l-3.277-9.307c-.054-.142-.106-.303-.153-.43-.014-.016-.01-.016-.025-.016h-.033c-.037 0-.058.01-.103.023-.343.223-1.058.573-1.585.712-.11.674-.429 1.562-.661 2.221l-2.848 8.169c-.271.772-.895 1.213-1.619 1.211h-.028v.372c.61-.031 1.226-.066 1.844-.066.688 0 1.391.035 2.07.066v-.372h-.115c-.579-.007-1.388-.072-1.41-.7 0-.356.22-.811.393-1.412l.078.023-.078-.026.586-1.902h4.149l.714 2.115c.2.571.362 1.045.362 1.306-.025.547-.776.585-1.18.596h-.118v.372Zm-3.638-5.233 1.704-5.191h.097v.077l-.02.004.02-.004v-.077h.053l1.689 5.19h-3.543Zm.214-.155h3.114l-1.549-4.769-1.565 4.77Zm1.509-4.936.04-.014-.04.014Zm7.745-1.127c-1.335 0-1.388.32-1.656 1.619h-.534c.07-.497.16-.995.216-1.513.071-.499.104-.995.104-1.51h.429c.142.534.589.515 1.066.515h9.184c.478 0 .922-.017.96-.552l.425.071c-.068.481-.138.962-.193 1.443-.038.48-.038.96-.038 1.44l-.533.198c-.033-.657-.122-1.711-1.315-1.711h-2.919v9.47c0 1.371.625 1.528 1.476 1.528h.338v.537c-.693 0-1.937-.07-2.9-.07-1.066 0-2.313.07-3.007.07v-.537h.337c.981 0 1.48-.088 1.48-1.492V49.6h-2.92Z"/><path d="M177.373 61.21c-.698 0-1.944-.072-2.9-.072-1.063 0-2.31.071-3.007.071h-.078v-.688h.415c.981-.024 1.375-.036 1.4-1.416l-.003-9.428h-2.837v-.157h2.994v9.585c0 1.428-.576 1.568-1.554 1.572h-.261v.38c.704-.007 1.899-.071 2.932-.071.929 0 2.118.064 2.821.071v-.38h-.262c-.856-.004-1.549-.21-1.551-1.609V49.52h2.996c1.194.005 1.35 1.02 1.384 1.68l.389-.141c0-.464.001-.93.036-1.396.049-.458.115-.914.181-1.369l-.269-.045c-.081.518-.584.547-1.027.54h-9.274c-.42.004-.874-.02-1.035-.52h-.291c-.006.493-.039.972-.11 1.446-.046.49-.134.961-.2 1.429h.381c.236-1.24.39-1.643 1.72-1.624v.157c-1.319.022-1.29.245-1.58 1.56l-.014.061h-.686l.01-.089c.075-.502.164-.998.215-1.513.073-.497.108-.99.108-1.501v-.078h.562l.015.055c.125.45.45.452.905.46l.09.002h9.184c.491-.01.85-.017.881-.481l.005-.085.084.017.505.079-.014.078c-.073.476-.14.957-.195 1.435-.036.474-.036.956-.036 1.435v.055l-.05.02-.63.23-.004-.104c-.046-.669-.116-1.636-1.24-1.636h-2.842v9.391c.018 1.343.55 1.435 1.397 1.452h.417v.69h-.077Zm3.84-.613h.25c.643 0 1.315-.086 1.315-1.013V50.26c0-.928-.672-1.015-1.315-1.015h-.25v-.535c.696 0 1.762.07 2.632.07.893 0 1.96-.07 2.797-.07v.535h-.25c-.64 0-1.318.087-1.318 1.015v9.324c0 .927.678 1.013 1.319 1.013h.249v.537c-.855 0-1.924-.07-2.81-.07-.874 0-1.923.07-2.618.07v-.537Z"/><path d="M186.643 61.21c-.86 0-1.925-.074-2.812-.074-.87 0-1.922.073-2.616.073h-.078v-.688h.327c.643-.01 1.233-.066 1.235-.937V50.26c-.002-.868-.592-.928-1.235-.94h-.327v-.686h.078c.694 0 1.763.068 2.63.068.888 0 1.955-.068 2.798-.068h.075v.686h-.325c-.65.012-1.234.072-1.242.94v9.324c.008.871.592.927 1.242.937h.325v.688h-.075Zm-.08-.156v-.377h-.17c-.638 0-1.393-.112-1.393-1.093V50.26c0-.983.755-1.094 1.393-1.094h.17v-.378c-.822.005-1.85.07-2.718.07-.842 0-1.863-.065-2.553-.07v.378h.172c.633 0 1.39.11 1.393 1.094v9.324c-.002.98-.76 1.093-1.393 1.093h-.172v.377c.687-.008 1.694-.068 2.539-.068.862 0 1.892.064 2.731.068Zm7.175-12.61c3.793 0 6.817 2.352 6.817 6.141 0 4.095-2.936 6.815-6.724 6.815-3.776 0-6.656-2.563-6.656-6.39 0-3.7 2.863-6.566 6.563-6.566Zm.27 12.173c3.452 0 4.053-3.046 4.053-5.64 0-2.602-1.402-5.75-4.357-5.75-3.115 0-4.039 2.776-4.039 5.158 0 3.186 1.459 6.232 4.342 6.232Z"/><path d="M187.095 55.01c.008-3.743 2.905-6.639 6.643-6.644v.153c-3.658 0-6.488 2.83-6.492 6.492.009 3.783 2.848 6.308 6.584 6.309 3.751-.001 6.645-2.684 6.651-6.739-.004-3.74-2.981-6.057-6.743-6.062v-.153c3.822.003 6.886 2.378 6.894 6.215-.004 4.138-2.978 6.887-6.802 6.894-3.805-.007-6.727-2.596-6.734-6.464Zm2.493-.625c.005-2.393.94-5.239 4.116-5.239 3.021.008 4.431 3.216 4.436 5.83-.005 2.595-.615 5.715-4.132 5.715v-.15c3.384-.006 3.97-2.97 3.978-5.565 0-2.58-1.39-5.668-4.282-5.672-3.052.004-3.956 2.71-3.962 5.081.003 3.17 1.448 6.148 4.266 6.155v.15c-2.954-.003-4.415-3.1-4.42-6.305Zm22.958 3.24.036-.034v-6.673c0-1.461-1.017-1.673-1.551-1.673h-.385v-.535c.834 0 1.652.07 2.486.07.732 0 1.461-.07 2.192-.07v.535h-.27c-.745 0-1.583.142-1.583 2.26v8.099c0 .622.018 1.243.108 1.795h-.675l-9.166-10.216v7.334c0 1.548.301 2.08 1.67 2.08h.306v.537c-.767 0-1.53-.07-2.296-.07-.8 0-1.62.07-2.422.07v-.537h.25c1.231 0 1.6-.834 1.6-2.257v-7.496c0-.996-.815-1.6-1.618-1.6h-.232v-.533c.676 0 1.371.07 2.046.07.535 0 1.05-.07 1.585-.07l7.919 8.915Z"/><path d="m213.58 61.476-.736-.026-9.03-10.066v7.133c.02 1.547.256 1.985 1.592 2.001h.386v.691h-.078c-.772 0-1.535-.071-2.295-.071-.799 0-1.616.071-2.424.071h-.074v-.69h.326c1.173-.005 1.51-.76 1.525-2.179v-7.496c-.003-.948-.779-1.523-1.544-1.524h-.307v-.686h.074c.682 0 1.376.068 2.047.068.528 0 1.042-.068 1.644-.042l7.818 8.804V50.92c-.005-1.416-.953-1.586-1.473-1.599h-.468v-.686h.08c.838 0 1.659.068 2.486.068.73 0 1.457-.068 2.194-.068h.077v.686h-.346c-.732.021-1.489.088-1.504 2.184v8.099c0 .622.014 1.242.1 1.786l.015.087h-.085Zm-.676-.156h.582c-.077-.534-.09-1.127-.09-1.718v-8.098c0-2.14.896-2.333 1.659-2.34h.192v-.376c-.702.005-1.405.07-2.117.07-.81 0-1.605-.065-2.411-.07v.377h.312c.552.006 1.625.249 1.625 1.754l-.02 6.725-.033.037-.057.057-7.919-8.95c-.524 0-1.044.07-1.584.07-.656 0-1.323-.065-1.971-.07v.377h.157c.835.006 1.695.636 1.695 1.679v7.496c0 1.423-.397 2.334-1.677 2.338h-.175v.376c.772-.004 1.565-.068 2.347-.068.742 0 1.478.064 2.217.068v-.376h-.23c-1.396 0-1.745-.614-1.745-2.161v-7.534l9.243 10.337Zm-.358-3.696.057-.05-.057.05Zm-.042-.033v-.006l-.015-.014.015.02Zm5.68.997c-.175.603-.39 1.07-.39 1.387 0 .536.748.622 1.332.622h.198v.537a40.385 40.385 0 0 0-2.154-.07c-.643 0-1.28.032-1.919.07v-.537h.101c.698 0 1.287-.409 1.55-1.158l2.85-8.166c.23-.659.552-1.548.656-2.208.57-.194 1.28-.55 1.622-.764.051-.019.087-.037.141-.037.053 0 .087 0 .122.055.055.14.11.303.163.444l3.273 9.31c.213.621.426 1.279.66 1.814.213.499.588.71 1.173.71h.109v.537a50.699 50.699 0 0 0-2.458-.07c-.87 0-1.76.032-2.67.07v-.537h.199c.405 0 1.104-.07 1.104-.515 0-.23-.162-.71-.36-1.282l-.691-2.064h-4.04l-.572 1.852Zm2.6-7.885h-.035l-1.658 5.037h3.33l-1.637-5.037Z"/><path d="M227.663 61.21c-.8-.033-1.6-.072-2.45-.072-.868 0-1.758.039-2.667.071l-.079.005v-.693h.27c.415 0 1.028-.097 1.03-.439.003-.202-.157-.687-.356-1.257l-.676-2.012h-3.927l-.55 1.797c-.178.61-.39 1.078-.387 1.365 0 .437.666.546 1.255.546h.271v.693l-.079-.005c-.712-.032-1.44-.071-2.148-.071-.638 0-1.277.039-1.919.071l-.078.005v-.693h.18c.663-.003 1.218-.384 1.478-1.106l2.848-8.167c.227-.66.547-1.548.705-2.255a9.461 9.461 0 0 0 1.62-.766c.046-.016.094-.037.167-.037a.2.2 0 0 1 .195.103c.053.14.105.301.164.446l3.272 9.307c.213.625.426 1.283.657 1.812.208.471.533.658 1.1.663h.186v.693l-.082-.005Zm-5.043-.158c.88-.033 1.746-.068 2.593-.068.828 0 1.604.035 2.379.066l-.003-.372h-.03c-.602.002-1.022-.235-1.243-.76-.235-.54-.447-1.2-.659-1.821l-3.275-9.309c-.053-.142-.107-.303-.15-.424-.015-.023-.014-.023-.028-.023h-.033c-.037 0-.057.013-.1.025-.347.219-1.06.574-1.587.71-.11.675-.433 1.562-.662 2.222l-2.85 8.169c-.27.772-.892 1.213-1.62 1.211h-.026v.372c.612-.031 1.224-.066 1.844-.066.69 0 1.392.035 2.077.066v-.372h-.121c-.579-.007-1.391-.07-1.412-.703.004-.353.225-.806.396-1.41l.073.024-.073-.026.586-1.902h4.15l.713 2.115c.196.572.358 1.045.358 1.306-.026.547-.772.585-1.18.596h-.117v.374Zm-3.635-5.236 1.707-5.19h.092v.077l-.018.004.018-.004v-.077h.056l1.682 5.19h-3.537Zm.214-.154h3.112l-1.548-4.766-1.564 4.766Zm1.511-4.936.036-.014-.036.014Zm11.445 8.663c0 .712.493.924 1.063.997.73.054 1.53.054 2.352-.036.746-.09 1.387-.517 1.705-.961.284-.392.445-.891.552-1.282h.516c-.195 1.014-.444 2.014-.659 3.027-1.562 0-3.132-.07-4.695-.07-1.568 0-3.132.07-4.698.07v-.537h.245c.644 0 1.34-.086 1.34-1.19V50.26c0-.928-.696-1.015-1.34-1.015h-.245v-.535c.94 0 1.867.07 2.809.07.91 0 1.799-.07 2.707-.07v.535h-.448c-.674 0-1.204.02-1.204.96v9.184Z"/><path d="M237.684 61.21c-1.568 0-3.134-.072-4.695-.072-1.567 0-3.133.071-4.701.071h-.076v-.688h.324c.645-.015 1.255-.06 1.262-1.115v-9.15c-.007-.864-.613-.923-1.262-.936h-.324v-.686h.076c.946 0 1.873.068 2.813.068.903 0 1.792-.068 2.706-.068h.073v.686h-.52c-.69.02-1.119-.012-1.132.885v9.184c.005.663.44.842.994.92.315.022.644.035.988.035.435 0 .888-.02 1.347-.07.725-.085 1.35-.504 1.656-.928.274-.38.432-.869.538-1.257l.016-.06h.67l-.016.094c-.201 1.018-.446 2.013-.661 3.026l-.015.06h-.061Zm-.064-.156c.206-.965.44-1.91.63-2.872h-.365c-.11.388-.269.865-.549 1.254-.332.461-.99.896-1.762.99-.466.049-.928.073-1.365.073-.344 0-.678-.016-1-.038-.579-.064-1.14-.31-1.138-1.072v-9.184c0-.989.625-1.04 1.29-1.04h.367v-.377c-.877.005-1.74.07-2.627.07-.922 0-1.823-.065-2.736-.07v.378h.17c.636 0 1.413.11 1.413 1.09v9.15c0 1.151-.773 1.271-1.412 1.271h-.17v.376c1.538 0 3.077-.067 4.623-.067 1.546 0 3.091.066 4.63.068Zm.507-12.85c1.072 0 1.873.825 1.873 1.881 0 1.051-.8 1.868-1.873 1.868-1.072 0-1.874-.817-1.874-1.868 0-1.056.801-1.88 1.874-1.88Zm0 3.4c.838 0 1.482-.716 1.482-1.519 0-.808-.634-1.53-1.482-1.53-.843 0-1.487.722-1.487 1.53 0 .803.644 1.519 1.487 1.519Zm-.933-.532v-.092c.23-.032.273-.025.273-.168v-1.387c0-.195-.021-.262-.264-.252v-.095h.958c.331 0 .633.157.633.497 0 .28-.185.485-.443.566l.308.429c.144.195.306.378.413.442v.06h-.365c-.175 0-.328-.369-.674-.864h-.207v.623c0 .124.043.116.274.149v.092h-.906Zm.632-.987h.22c.242 0 .356-.184.356-.479 0-.298-.175-.403-.368-.403h-.208v.882Z"/></g></g></svg>