<svg xmlns="http://www.w3.org/2000/svg" width="159" height="80"><path fill="#FFF" fill-rule="nonzero" d="M20.276 50.162c-1.612-4.44-3.178-8.425-3.733-9.568-1.012-2.152-2.764-4.304-5.298-4.76.046 0 .23-.049.369-.049 4.698-.64 6.728-4.072 6.728-7.553 0-2.974-1.659-7.643-9.309-7.643H1.06c-.554 0-1.06.458-1.06 1.005v28.793c0 .55.507 1.01 1.06 1.01h2.211a1.02 1.02 0 0 0 1.012-1.009v-12.86H6.45c3.133 0 4.564 1.924 5.624 3.892 1.289 2.381 2.165 5.676 3.364 9.245.183.597.596.736 1.103.736h3.043c.83 0 .968-.506.69-1.236zm-6.312-21.333c0 3.158-2.12 5.08-5.53 5.08h-4.15v-9.52h4.655c3.317 0 5.023 1.969 5.023 4.44zm22.825 11.537c0-8.425-3.686-11.399-8.385-11.399-5.07 0-8.479 4.35-8.479 11.261 0 7.51 3.548 11.398 9.861 11.398 2.674 0 4.24-.412 5.714-1.053.507-.228.784-.685.6-1.236l-.507-1.463c-.184-.504-.554-.868-1.245-.642-1.337.366-2.581.78-4.333.78-4.148 0-5.53-2.382-5.714-6.639h11.475a1.02 1.02 0 0 0 1.012-1.008zm-4.284-2.154h-8.204c.46-4.758 2.536-5.903 4.24-5.903 2.856 0 3.87 2.974 3.964 5.903m24.28 15.244c0-3.8-2.674-5.95-6.866-5.95h-3.825c-1.66 0-2.397-.276-2.397-1.236 0-.504.368-1.007.83-1.418.739.187 1.498.28 2.26.275 5.114 0 8.385-3.069 8.385-8.103 0-1.556-.693-3.07-1.66-4.396l1.521-.182c.554-.046.923-.367.923-.963v-1.188c0-.595-.37-1.054-1.015-1.054h-5.3c-.97 0-1.889-.23-2.858-.23-4.93 0-8.294 2.884-8.294 8.013 0 3.018 1.291 5.306 3.318 6.637-1.106 1.006-2.028 2.196-2.028 3.8 0 2.652 2.35 3.566 5.069 3.566h4.47c2.488 0 3.457 1.011 3.457 2.888 0 2.013-2.212 3.249-5.023 3.249-2.166 0-4.562-.413-4.933-2.839-.09-.595-.458-.915-1.012-.96l-2.305-.093a1 1 0 0 0-.723.29.99.99 0 0 0-.291.718c.047 4.942 4.702 6.407 9.124 6.407 4.24 0 9.17-1.922 9.17-7.233zM50.93 36.928c0 4.121-1.982 4.99-4.102 4.99-2.212 0-4.055-.732-4.055-4.99 0-4.074 1.843-4.805 4.055-4.805 2.259 0 4.102.778 4.102 4.805m12.601-15.423c0-1.556-1.244-2.838-2.812-2.838a2.85 2.85 0 0 0-2.024.827 2.81 2.81 0 0 0-.832 2.011c0 1.602 1.245 2.884 2.856 2.884 1.568 0 2.812-1.28 2.812-2.884m-.735 28.882v-20.14c0-.547-.509-1.005-1.015-1.005h-2.075c-.554 0-1.06.458-1.06 1.007v20.14c0 .55.507 1.009 1.06 1.009h2.075c.506 0 1.014-.46 1.014-1.01zM82.805 40.32c0-7.003-3.41-11.353-8.942-11.353-5.53 0-8.987 4.304-8.987 11.353 0 7.096 3.456 11.306 8.987 11.306 5.576 0 8.94-4.303 8.94-11.306zm-4.38 0c0 5.54-1.751 7.828-4.655 7.828-2.856 0-4.608-2.288-4.608-7.828 0-5.447 1.752-7.827 4.609-7.827 2.903 0 4.656 2.381 4.656 7.828zm26.702 2.404c0-3.984-2.212-7.186-6.638-7.691 3.734-1.1 5.301-3.387 5.301-6.821 0-4.532-3.088-7.645-8.434-7.645h-8.94c-.553 0-1.06.458-1.06 1.006v28.793c0 .548.508 1.008 1.06 1.008h9.401c5.807 0 9.31-3.159 9.31-8.653zm-5.715-13.917c0 2.836-1.752 4.625-5.21 4.625h-4.56v-9.207h4.885c3.27 0 4.884 1.648 4.884 4.578zm1.105 13.458c0 3.343-1.886 5.356-5.067 5.356h-5.807V36.86h4.93c3.736 0 5.945 2.29 5.945 5.402zm22.708 8.103-.277-1.33c-.275-1.37-.229-2.608-.229-3.751v-7.966c0-3.708-.6-8.377-7.927-8.377-1.982 0-4.24.503-5.577.87-.556.138-.783.593-.643 1.19l.364 1.693c.139.596.601.916 1.202.732 1.242-.32 2.625-.779 4.422-.779 3.274 0 4.01 1.239 4.01 3.893v1.099l-5.067.32c-3.735.275-6.913 2.195-6.913 7.093 0 4.117 2.259 6.546 5.942 6.546 2.536 0 4.933-.914 6.361-3.16l.323 2.016c.09.641.506.917 1.06.917h2.12c.6 0 .92-.413.83-1.008zm-4.656-6.318c0 1.693-1.888 4.212-4.837 4.212-1.703 0-2.905-1.005-2.905-3.205 0-3.433 2.03-4.256 4.84-4.35l2.902-.09zm22.801 6.318V34.665c0-3.433-2.213-5.722-5.668-5.722-2.443 0-4.377.915-6.314 3.158l-.462-2.06c-.138-.595-.46-.826-1.104-.826h-1.383c-.554 0-1.06.413-1.06.963v20.188c0 .548.507 1.008 1.059 1.008h2.12a1.023 1.023 0 0 0 1.014-1.008V37.915c0-3.066 2.166-5.402 4.974-5.402 1.889 0 2.627.963 2.627 3.07v14.784c0 .55.508 1.008 1.062 1.008h2.119a1.02 1.02 0 0 0 1.015-1.008zm18.486-.183-7.558-11.445 6.176-8.377c.368-.503.138-1.145-.508-1.145h-2.947c-.65 0-1.063.322-1.339.78l-5.576 8.466V19.878a.98.98 0 0 0-.29-.716 1 1 0 0 0-.722-.29h-2.078a1 1 0 0 0-.721.29.99.99 0 0 0-.291.716v30.488c0 .548.462 1.008 1.012 1.008h2.078a1.02 1.02 0 0 0 1.012-1.008v-10.94l6.682 11.078c.322.548.736.87 1.244.87h3.274c.645 0 .874-.688.55-1.191z"/></svg>