<svg xmlns="http://www.w3.org/2000/svg" width="640" height="360"><g fill="none" fill-rule="evenodd"><path fill="#89CC53" d="M281.665 227.509c-6.028 2.768-12.743 4.31-19.828 4.31-26.251 0-47.585-21.266-47.585-47.459v-55.37H235.4v55.37c0 16.007 11.843 29.003 26.436 29.003 7.905 0 14.99-3.802 19.828-9.827v23.973Z"/><path fill="#238647" d="M111.15 84.167v52.741c8.829-6.626 19.827-10.554 31.723-10.554 8.565 0 16.629 2.03 23.793 5.637v24.826c-6.054-7.348-15.069-12.007-25.115-12.007-18.241 0-33.045 15.359-33.045 34.277s14.804 34.276 33.045 34.276c10.046 0 19.06-4.659 25.115-12.007v24.827a52.702 52.702 0 0 1-23.793 5.637A52.697 52.697 0 0 1 109.537 220l-1.031 9.183H90v-47.46h.08a43.635 43.635 0 0 1-.08-2.636v-94.92h21.15Z"/><path fill="#2F9B47" d="M128.333 128.376a53.012 53.012 0 0 1 14.54-2.022c29.186 0 52.873 23.63 52.873 52.733 0 29.103-23.687 52.733-52.873 52.733-5.05 0-9.914-.707-14.54-2.023v-19.29a31.887 31.887 0 0 0 13.218 2.856c18.241 0 33.046-15.358 33.046-34.276 0-18.918-14.805-34.277-33.046-34.277-4.706 0-9.173 1.02-13.218 2.856v-19.29Z"/><path fill="#62B64F" d="M166.666 131.99c17.236 8.691 29.08 26.525 29.08 47.097 0 20.57-11.844 38.405-29.08 47.096v-24.827c4.943-5.993 7.93-13.771 7.93-22.27 0-8.497-2.987-16.275-7.93-22.269v-24.826Z"/><path fill="#3DB8AD" d="M243.332 205.063c4.758 5.134 11.315 8.3 18.505 8.3 14.593 0 26.437-12.996 26.437-29.003v-55.37h21.149v55.37c0 26.192-21.334 47.46-47.586 47.46a47.518 47.518 0 0 1-18.505-3.728v-23.029Z"/><path fill="#3394D7" d="M281.665 203.536c4.124-5.115 6.609-11.828 6.609-19.176v-55.37h21.149v55.37c0 19.14-11.394 35.645-27.758 43.149v-23.973Z"/><path fill="#2872BC" d="M396.663 153.11c-4.758-5.133-11.314-8.3-18.505-8.3-14.593 0-26.437 12.996-26.437 29.003v55.37h-21.149v-55.37c0-26.192 21.334-47.46 47.586-47.46a47.518 47.518 0 0 1 18.505 3.729v23.028Z"/><path fill="#1D5C84" d="M358.33 130.664c6.028-2.768 12.743-4.31 19.828-4.31 26.251 0 47.586 21.267 47.586 47.46v55.37h-21.15v-55.37c0-16.008-11.843-29.004-26.436-29.004-7.905 0-14.99 3.802-19.827 9.827v-23.973Z"/><path fill="#993233" d="M396.663 130.082c17.078 7.206 29.08 24.083 29.08 43.731v55.37h-21.149v-55.37c0-8.105-3.04-15.44-7.93-20.703v-23.028Z"/><path fill="#E13030" d="M511.662 229.797a53.012 53.012 0 0 1-14.54 2.023c-29.186 0-52.873-23.63-52.873-52.733 0-29.104 23.687-52.733 52.873-52.733 5.05 0 9.914.706 14.54 2.022v19.29a31.887 31.887 0 0 0-13.218-2.856c-18.241 0-33.046 15.359-33.046 34.277s14.805 34.276 33.046 34.276c4.706 0 9.173-1.02 13.218-2.855v19.29Z"/><path fill="#F28825" d="M473.33 131.99a52.702 52.702 0 0 1 23.792-5.636 52.697 52.697 0 0 1 33.337 11.82l1.03-9.184h18.506v47.46h-.053c.027.873.053 1.753.053 2.637v94.92h-21.149v-52.742c-8.83 6.626-19.827 10.555-31.724 10.555a52.702 52.702 0 0 1-23.793-5.637v-24.827c6.054 7.348 15.07 12.007 25.115 12.007 18.241 0 33.046-15.358 33.046-34.276 0-18.918-14.805-34.277-33.046-34.277-10.046 0-19.06 4.66-25.115 12.007v-24.826Z"/><path fill="#F5C836" d="M511.662 128.376a52.881 52.881 0 0 1 18.797 9.798l1.03-9.184h18.506v47.46h-.053c.027.873.053 1.753.053 2.637v94.92h-21.149v-52.742a52.756 52.756 0 0 1-17.184 8.532v-19.29c11.659-5.294 19.828-17.378 19.828-31.42 0-14.043-8.17-26.127-19.828-31.421v-19.29Z"/></g></svg>