<svg xmlns="http://www.w3.org/2000/svg" width="51" height="32"><g fill="none" fill-rule="evenodd"><path fill="#FFF" stroke="#D0D0D0" d="M.5.5h50v31H.5z"/><path fill="#89CC53" d="M22.583 19.936a3.623 3.623 0 0 1-5.13-3.292l.001-4.224h1.61v4.224c0 1.221.9 2.213 2.01 2.213.602 0 1.141-.29 1.51-.75z"/><path fill="#238647" d="M9.61 9v4.024a4 4 0 0 1 2.413-.806c.652 0 1.265.155 1.81.43v1.894a2.47 2.47 0 0 0-1.91-.916c-1.389 0-2.515 1.172-2.515 2.615s1.126 2.615 2.514 2.615a2.47 2.47 0 0 0 1.911-.916v1.894a4 4 0 0 1-1.81.43 4 4 0 0 1-2.537-.901l-.078.7H8v-3.62h.006A3 3 0 0 1 8 16.24V9z"/><path fill="#2F9B47" d="M10.917 12.372a4.025 4.025 0 0 1 5.13 3.869 4.025 4.025 0 0 1-5.13 3.869v-1.472c.307.14.647.218 1.005.218 1.388 0 2.515-1.172 2.515-2.615s-1.127-2.615-2.515-2.615a2.4 2.4 0 0 0-1.005.218z"/><path fill="#62B64F" d="M13.833 12.648a4.03 4.03 0 0 1 2.213 3.593c0 1.57-.902 2.93-2.213 3.593V17.94c.376-.458.603-1.051.603-1.7 0-.648-.227-1.241-.603-1.698z"/><path fill="#3DB8AD" d="M19.667 18.224c.362.391.86.633 1.408.633 1.11 0 2.012-.992 2.012-2.213V12.42h1.609v4.224a3.623 3.623 0 0 1-5.029 3.336z"/><path fill="#3394D7" d="M22.584 18.107a2.33 2.33 0 0 0 .502-1.463V12.42h1.61v4.224c0 1.46-.867 2.72-2.112 3.292z"/><path fill="#2872BC" d="M31.334 14.26a1.92 1.92 0 0 0-1.408-.634c-1.11 0-2.012.992-2.012 2.213v4.224h-1.609v-4.224a3.623 3.623 0 0 1 5.029-3.337z"/><path fill="#1D5C84" d="M28.417 12.547a3.623 3.623 0 0 1 5.13 3.292l-.001 4.224h-1.61v-4.224c0-1.221-.9-2.213-2.01-2.213-.602 0-1.141.29-1.51.75z"/><path fill="#993233" d="M31.333 12.503a3.62 3.62 0 0 1 2.213 3.337v4.224h-1.61V15.84a2.32 2.32 0 0 0-.603-1.58z"/><path fill="#E13030" d="M40.083 20.11q-.529.152-1.106.154a4.025 4.025 0 0 1-4.023-4.023 4.025 4.025 0 0 1 5.13-3.869v1.472a2.4 2.4 0 0 0-1.006-.218c-1.388 0-2.515 1.172-2.515 2.615s1.127 2.615 2.515 2.615a2.4 2.4 0 0 0 1.005-.218z"/><path fill="#F28825" d="M37.167 12.648a4 4 0 0 1 1.81-.43c.962 0 1.845.338 2.537.902l.078-.7H43v3.62h-.004q.004.1.004.201v7.241h-1.609V19.46a4 4 0 0 1-2.414.805 4 4 0 0 1-1.81-.43V17.94a2.47 2.47 0 0 0 1.91.916c1.389 0 2.515-1.172 2.515-2.615s-1.126-2.615-2.514-2.615a2.47 2.47 0 0 0-1.911.916z"/><path fill="#F5C836" d="M40.084 12.372a4 4 0 0 1 1.43.748l.078-.7H43v3.62h-.004q.004.1.004.201v7.241h-1.609V19.46a4 4 0 0 1-1.307.65v-1.47c.887-.405 1.508-1.327 1.508-2.398s-.621-1.993-1.508-2.397z"/></g></svg>