<svg xmlns="http://www.w3.org/2000/svg" id="svg524" width="51" height="32" version="1.1"><path id="rect508" fill="#fff" stroke="#d0d0d0" d="M.5.5h50v31H.5z" style="fill-rule:evenodd"/><style id="style707" type="text/css">.st0{fill:#fff}</style><g id="g737" transform="matrix(.07642 0 0 .07642 13.804 5.691)"><g id="g719"><path id="path709" d="M0 20v229.8c0 11 9 20 20 20h137.3c103.8 0 148.8-58.1 148.8-135.2C306.1 57.9 261.1 0 157.3 0H20C9 0 0 9 0 20" class="st0"/><path id="path711" d="M91.9 56.4v169.8h73.9c67.1 0 96.2-37.9 96.2-91.5 0-51.3-29.1-91.1-96.2-91.1h-61.1c-7.1 0-12.8 5.8-12.8 12.8" style="fill:#c06"/><g id="g717"><g id="g715"><path id="path713" d="M157.3 251.5H37.9c-10.6 0-19.2-8.6-19.2-19.2V37.6c0-10.6 8.6-19.2 19.2-19.2h119.4c113.3 0 130.2 72.9 130.2 116.3 0 75.3-46.3 116.8-130.2 116.8M37.9 24.8c-7.1 0-12.8 5.7-12.8 12.8v194.7c0 7.1 5.7 12.8 12.8 12.8h119.4c79.8 0 123.8-39.2 123.8-110.4 0-95.6-77.6-109.9-123.8-109.9z"/></g></g></g><g id="g729"><path id="path721" d="M117.9 111.8c2.6 0 5 .4 7.3 1.2s4.2 2.1 5.9 3.7c1.6 1.7 2.9 3.8 3.9 6.2.9 2.5 1.4 5.4 1.4 8.8 0 3-.4 5.7-1.1 8.2-.8 2.5-1.9 4.7-3.4 6.5s-3.4 3.2-5.7 4.3c-2.3 1-5 1.6-8.1 1.6h-17.5v-40.6h17.3zm-.6 33.1c1.3 0 2.5-.2 3.8-.6 1.2-.4 2.3-1.1 3.2-2.1s1.7-2.2 2.3-3.8.9-3.4.9-5.7c0-2-.2-3.9-.6-5.5s-1.1-3.1-2-4.2-2.1-2.1-3.6-2.7-3.3-.9-5.5-.9h-6.4V145h7.9z" class="st0"/><path id="path723" d="M172.5 111.8v7.5h-21.4v8.7h19.7v6.9h-19.7v9.9H173v7.5h-30.8v-40.6h30.3z" class="st0"/><path id="path725" d="m203.1 111.8 15.2 40.6H209l-3.1-9h-15.2l-3.2 9h-9l15.3-40.6zm.5 24.9-5.1-14.9h-.1l-5.3 14.9z" class="st0"/><path id="path727" d="M232.8 111.8v33.1h19.8v7.5h-28.7v-40.6z" class="st0"/></g><g id="g733"><circle id="circle731" cx="58.5" cy="132.1" r="18.7"/></g><path id="path735" d="M72.6 226.2c-15.7 0-28.3-12.7-28.3-28.3v-22.1c0-7.8 6.3-14.2 14.2-14.2 7.8 0 14.2 6.3 14.2 14.2v50.4z"/></g></svg>