<?xml version="1.0" encoding="UTF-8"?>
<svg width="1024px" height="1024px" xmlns="http://www.w3.org/2000/svg" xmlns:xlink="http://www.w3.org/1999/xlink" version="1.1">
  <path d="M512 1024 C229.23 1024 0 794.77 0 512 0 229.231 229.23 0 512 0 794.769 0 1024 229.231 1024 512 1024 794.77 794.769 1024 512 1024 Z M491.1 832.977 C535.163 832.977 562.908 801.153 562.908 758.721 562.908 713.841 533.531 682.832 491.1 682.832 450.3 682.832 419.291 713.841 419.291 758.721 419.291 799.521 446.22 832.977 491.1 832.977 Z M440.508 628.977 L544.955 628.977 C544.955 573.489 544.956 544.113 589.836 487.809 625.74 442.929 666.539 394.785 666.539 327.057 666.539 255.249 618.396 185.072 500.893 185.072 444.589 185.072 394.812 202.208 366.252 219.344 L391.547 307.473 C413.579 291.969 446.221 282.992 473.965 282.992 520.477 282.992 544.141 308.288 544.141 345.824 544.141 380.912 522.924 412.735 491.916 453.535 455.196 501.679 438.061 546.56 438.061 592.256 438.061 599.6 438.876 602.865 440.508 628.977 Z" fill="#000000" fill-opacity="1"/>
</svg>