<svg xmlns="http://www.w3.org/2000/svg" xmlns:xlink="http://www.w3.org/1999/xlink" width="480" height="270"><defs><path id="a" d="M0 0h480v270H0z"/></defs><g fill="none" fill-rule="evenodd"><mask id="b" fill="#fff"><use xlink:href="#a"/></mask><use xlink:href="#a" fill="#FF7819"/><g mask="url(#b)"><path fill="#238647" d="M0 0h80v270H0z"/><path fill="#2F9B47" d="M40 0h80v270H40z"/><path fill="#62B64F" d="M80 0h80v270H80z"/><path fill="#89CC53" d="M120 0h80v270h-80z"/><path fill="#3DB8AD" d="M160 0h80v270h-80z"/><path fill="#3394D7" d="M200 0h80v270h-80z"/><path fill="#2872BC" d="M240 0h80v270h-80z"/><path fill="#1D5C84" d="M280 0h80v270h-80z"/><path fill="#993233" d="M320 0h80v270h-80z"/><path fill="#E13030" d="M360 0h80v270h-80z"/><path fill="#F28825" d="M400 0h80v270h-80z"/><path fill="#F5C836" d="M440 0h40v270h-40z"/></g></g></svg>