<svg xmlns="http://www.w3.org/2000/svg" width="51" height="32"><g fill="none" fill-rule="evenodd"><path fill="#FFF" stroke="#D0D0D0" d="M.5.5h50v31H.5z"/><path fill="#009FEC" d="M37.719 7.759v16.465c-.022 2.056-1.661 3.715-3.68 3.715h-16.11c-2.031 0-3.679-1.68-3.679-3.754V7.76c0-2.073 1.648-3.753 3.68-3.753h16.109c2.032 0 3.68 1.68 3.68 3.753"/><path fill="#FFFFFE" d="M20.396 22.423c-3.128 0-3.613-1.798-3.667-2.872-.05-.939.571-2.702 4.103-2.702 1.314 0 3.397.684 5.737 1.68-1.322 1.772-3.44 3.894-6.173 3.894m9.538-4.964c1.206-2.361 2.005-4.854 2.005-4.854h-4.654v-1.672h5.736V9.914h-5.736v-2.69h-2.67v2.69h-5.737v1.019h5.736v1.672H19.79v.895h9.323s-.517 1.62-1.384 3.223c-2.501-.788-4.808-1.337-6.66-1.337-4.442 0-5.427 2.276-5.217 4.357.17 1.661 1.38 4.086 5.082 4.086 3.381 0 6.111-1.977 7.79-4.33 3.204 1.504 6.588 3.358 8.995 4.725v-3.948c-2.544-.89-5.223-1.928-7.785-2.817"/></g></svg>