<svg xmlns="http://www.w3.org/2000/svg" xmlns:xlink="http://www.w3.org/1999/xlink" width="640" height="360"><defs><path id="a" d="M0 .033h229.422v135.589H0z"/></defs><g fill="none" fill-rule="evenodd" transform="translate(80 112)"><path fill="#009FEC" d="M286.146 27.96c0 4.596-4.098 8.321-9.153 8.321-5.054 0-9.153-3.725-9.153-8.322s4.099-8.321 9.153-8.321 9.153 3.725 9.153 8.321"/><path fill="#2F312F" d="M236.95 28.759v71.934h17.034V24.718h-13.072c-2.188 0-3.962 1.81-3.962 4.04m31.526 20.226v51.71h17.034v-55.75h-13.072c-2.188 0-3.962 1.809-3.962 4.04m57.586 46.912c-3.496 0-7.199-3.37-10.042-6.741V59.262c2.651-2.687 7.159-6.54 11.059-6.54 5.848 0 11.314 8.168 11.314 20.096s-5.34 23.078-12.33 23.078m5.594-52.249c-7.76 0-13.222 4.1-15.636 6.344v-5.048h-13.073c-2.188 0-3.962 1.81-3.962 4.041v74.01h17.035v-24.55c2.585 1.996 6.083 3.416 10.805 3.416 15.89 0 28.094-14.002 28.094-31.634 0-17.633-12.585-26.579-23.263-26.579m54.662 50.823c-7.119 0-11.569-4.278-11.569-12.187s7.883-12.836 14.111-12.836c3.137 0 5.073 1.018 6.23 2.028v19.333c-2.006 1.778-5.003 3.662-8.772 3.662m1.017-50.823c-15 0-19.958 3.241-19.958 3.241l1.78 3.89s5.592-2.074 14.746-2.074c10.17 0 11.187 5.574 11.187 12.446v3.205c-2.178-.653-6.35-1.65-11.569-1.65-7.754 0-21.483 3.112-21.483 19.319 0 16.206 12.203 19.836 20.212 19.836 4.687 0 9.577-2.482 12.84-4.545v3.378h17.034V61.15c0-11.668-9.789-17.503-24.789-17.503m92.384 0h-11.432L452.95 79.27l-.423-.84-17.482-34.788h-17.45l27.301 54.336-2.79 6.483c-4.305 8.711-16.636 8.127-16.636 8.127v7.293s5.307.454 9.153 0c3.661-.432 11.818-2.915 15.783-11.502l8.147-17.985-.002-.002z"/><mask id="b" fill="#fff"><use xlink:href="#a"/></mask><path fill="#2F312F" d="M202.491 82.802h-30.756l15.652-33.186zm-7.644-58.079h-7.23l-35.835 75.97h11.515l5.931-12.576h35.682l5.724 12.576h18.788l-32.47-71.35z" mask="url(#b)"/><path fill="#009FEC" d="M132.99 21.3v93.303c-.122 11.652-9.412 21.05-20.853 21.05H20.853C9.336 135.653 0 126.13 0 114.384V21.3C0 9.554 9.336.033 20.853.033h91.284c11.517 0 20.852 9.521 20.852 21.267" mask="url(#b)"/><path fill="#FFFFFE" d="M34.826 104.396c-17.726 0-20.471-10.19-20.776-16.273-.29-5.321 3.233-15.31 23.248-15.31 7.444 0 19.25 3.875 32.507 9.522-7.49 10.035-19.495 22.061-34.979 22.061m54.048-28.129c6.833-13.38 11.364-27.506 11.364-27.506H73.863v-9.475h32.508v-5.772H73.863V18.266H58.73v15.248H26.223v5.772H58.73v9.475H31.394v5.071H84.22s-2.93 9.18-7.841 18.266c-14.171-4.466-27.245-7.577-37.74-7.577-25.17 0-30.753 12.897-29.564 24.69.962 9.413 7.826 23.15 28.801 23.15 19.16 0 34.628-11.201 44.147-24.534 18.153 8.526 37.328 19.027 50.965 26.776V92.23c-14.415-5.041-29.593-10.922-44.115-15.963"/></g></svg>