<svg xmlns="http://www.w3.org/2000/svg" width="98" height="80"><g fill="none" fill-rule="nonzero"><path fill="#231F20" d="M17.883 76.813V71.87a2.9 2.9 0 0 0-.855-2.266 3 3 0 0 0-2.294-.865 3.12 3.12 0 0 0-2.815 1.4 2.95 2.95 0 0 0-2.647-1.4 2.66 2.66 0 0 0-2.345 1.17v-.973H5.185v7.878h1.759V72.48c-.076-.546.1-1.096.479-1.5.379-.406.922-.623 1.48-.593 1.157 0 1.743.741 1.743 2.076v4.384h1.759V72.48a1.84 1.84 0 0 1 .482-1.498 1.9 1.9 0 0 1 1.478-.595c1.19 0 1.759.741 1.759 2.076v4.384zm26.024-7.878h-2.864v-2.39h-1.76v2.39h-1.59v1.566h1.624v3.626c0 1.83.72 2.917 2.781 2.917a4.14 4.14 0 0 0 2.178-.61l-.503-1.467a3.26 3.26 0 0 1-1.54.445c-.838 0-1.157-.527-1.157-1.318v-3.593h2.848zm14.86-.197a2.37 2.37 0 0 0-2.111 1.153v-.956H54.93v7.878h1.742v-4.417c0-1.302.57-2.027 1.676-2.027a2.9 2.9 0 0 1 1.089.198l.536-1.648a3.8 3.8 0 0 0-1.24-.214zm-22.465.824a6.07 6.07 0 0 0-3.267-.824c-2.027 0-3.35.955-3.35 2.521 0 1.286.971 2.077 2.764 2.324l.837.115c.955.132 1.408.38 1.408.824 0 .61-.637.956-1.826.956a4.3 4.3 0 0 1-2.664-.824l-.838 1.335a5.85 5.85 0 0 0 3.468 1.022c2.312 0 3.652-1.071 3.652-2.57 0-1.5-1.055-2.11-2.797-2.358l-.838-.115c-.754-.099-1.357-.247-1.357-.775 0-.527.57-.923 1.524-.923.883.01 1.748.243 2.513.676zm46.663-.824a2.37 2.37 0 0 0-2.11 1.153v-.956h-1.726v7.878h1.742v-4.417c0-1.302.57-2.027 1.675-2.027a2.9 2.9 0 0 1 1.089.198l.536-1.648a3.8 3.8 0 0 0-1.24-.214zm-22.448 4.12a3.95 3.95 0 0 0 1.21 2.989 4.08 4.08 0 0 0 3.062 1.131 4.23 4.23 0 0 0 2.881-.94l-.837-1.384c-.603.452-1.337.7-2.094.709-1.336-.106-2.364-1.203-2.364-2.522s1.028-2.415 2.364-2.521a3.56 3.56 0 0 1 2.094.708l.837-1.384a4.23 4.23 0 0 0-2.881-.94 4.08 4.08 0 0 0-3.061 1.132 3.95 3.95 0 0 0-1.21 2.989zm16.317 0v-3.923H75.09v.956a3.06 3.06 0 0 0-2.512-1.153c-2.313 0-4.188 1.844-4.188 4.12s1.875 4.12 4.188 4.12a3.06 3.06 0 0 0 2.512-1.153v.955h1.743zm-6.483 0c.077-1.293 1.191-2.288 2.507-2.24 1.316.049 2.35 1.123 2.33 2.418-.022 1.296-1.092 2.337-2.408 2.344a2.42 2.42 0 0 1-1.776-.738 2.34 2.34 0 0 1-.653-1.784m-21.024-4.12c-2.313.031-4.162 1.902-4.13 4.178s1.934 4.094 4.247 4.062a4.92 4.92 0 0 0 3.325-1.071l-.837-1.27a3.85 3.85 0 0 1-2.329.825c-1.197.101-2.26-.754-2.395-1.928h5.947v-.66c0-2.472-1.558-4.12-3.803-4.12zm0 1.532a2 2 0 0 1 1.416.543c.38.359.6.851.61 1.37h-4.187c.063-1.101 1.008-1.95 2.127-1.913zm43.647 2.604v-7.103H91.3v4.12a3.06 3.06 0 0 0-2.513-1.153c-2.313 0-4.188 1.844-4.188 4.12s1.875 4.12 4.188 4.12a3.06 3.06 0 0 0 2.513-1.153v.955h1.675zm2.907 2.794a.9.9 0 0 1 .318.058.8.8 0 0 1 .26.164.755.755 0 0 1 0 1.104.8.8 0 0 1-.26.166.8.8 0 0 1-.318.065.84.84 0 0 1-.754-.478.76.76 0 0 1 0-.61.8.8 0 0 1 .176-.247.84.84 0 0 1 .603-.222zm0 1.393a.6.6 0 0 0 .435-.182.603.603 0 0 0 0-.824.62.62 0 0 0-.435-.181.64.64 0 0 0-.444.181.603.603 0 0 0 0 .824.6.6 0 0 0 .2.132.6.6 0 0 0 .269.05zm.05-.981a.34.34 0 0 1 .218.066c.052.042.08.107.075.173a.2.2 0 0 1-.058.148.3.3 0 0 1-.176.074l.243.272h-.193l-.226-.272h-.076v.272h-.159v-.725zm-.184.14v.198h.184q.05.015.1 0a.08.08 0 0 0 0-.074.08.08 0 0 0 0-.074.2.2 0 0 0-.1 0zm-9.214-3.346c.078-1.293 1.192-2.288 2.507-2.24 1.316.05 2.351 1.124 2.33 2.419s-1.091 2.336-2.408 2.343a2.42 2.42 0 0 1-1.775-.738 2.34 2.34 0 0 1-.654-1.784m-58.825 0v-3.939h-1.742v.956a3.06 3.06 0 0 0-2.513-1.153c-2.313 0-4.188 1.844-4.188 4.12s1.875 4.12 4.188 4.12a3.06 3.06 0 0 0 2.513-1.153v.955h1.742zm-6.483 0c.077-1.293 1.191-2.288 2.507-2.24 1.316.05 2.351 1.124 2.33 2.419s-1.091 2.336-2.408 2.343a2.42 2.42 0 0 1-1.786-.732 2.34 2.34 0 0 1-.66-1.79z"/><path fill="#FF5F00" d="M35.724 8.902h26.385v46.65H35.724z"/><path fill="#EB001B" d="M37.4 32.232c-.01-9.105 4.236-17.708 11.516-23.33C36.553-.657 18.8.736 8.131 12.101a29.315 29.315 0 0 0 0 40.253c10.668 11.365 28.422 12.758 40.785 3.199-7.277-5.62-11.524-14.22-11.517-23.321"/><path fill="#F79E1B" d="M97.707 32.232c0 11.358-6.593 21.72-16.977 26.683s-22.738 3.658-31.814-3.362c7.275-5.625 11.522-14.223 11.522-23.326s-4.247-17.7-11.522-23.325C57.992 1.882 70.346.577 80.73 5.54c10.384 4.964 16.977 15.325 16.977 26.683zM94.825 50.695v-1.028h.394v-.213h-.997v.213h.428v1.028zm1.935 0v-1.24h-.301l-.352.885-.352-.886h-.268v1.24h.218v-.93l.327.807h.226l.326-.807v.94z"/></g></svg>