<svg width="240" height="80" xmlns="http://www.w3.org/2000/svg"><path d="M20.973 51.126h-5.305V40.721H5.915v10.405H.613v-24.11h5.302v9.253h9.753v-9.254h5.305v24.111Zm19.36 0h-4.604c-.103-.39-.095-.402-.139-.701-.04-.28-.04-.695-.061-.985a6.265 6.265 0 0 1-2.7 1.655c-1.033.315-2.09.473-3.17.473a8.515 8.515 0 0 1-2.328-.306 5.216 5.216 0 0 1-1.889-.947 4.367 4.367 0 0 1-1.264-1.623c-.303-.65-.455-1.43-.455-2.334 0-.99.176-1.805.523-2.45a4.417 4.417 0 0 1 1.348-1.538 6.069 6.069 0 0 1 1.89-.862c.71-.192 1.423-.343 2.144-.458.719-.11 1.427-.2 2.124-.27.699-.066 1.315-.17 1.855-.303.539-.137.968-.332 1.284-.594.315-.257.46-.635.438-1.13 0-.519-.084-.93-.253-1.236a1.853 1.853 0 0 0-.673-.71 2.675 2.675 0 0 0-.976-.338 8.065 8.065 0 0 0-1.192-.084c-.94 0-1.68.203-2.218.611-.536.407-.853 1.089-.94 2.04h-4.804c.066-1.127.35-2.064.844-2.807a5.738 5.738 0 0 1 1.89-1.794c.763-.45 1.625-.77 2.58-.963.956-.191 1.916-.29 2.886-.29.877 0 1.765.064 2.664.187a8.17 8.17 0 0 1 2.463.728 4.87 4.87 0 0 1 1.822 1.501c.473.644.708 1.495.708 2.555v9.088l.005 2.265c.041.89.044.93.197 1.62Zm-5.004-6.754v-1.79a2.17 2.17 0 0 1-.757.423 7.588 7.588 0 0 1-.98.255c-.347.068-.71.123-1.093.167-.38.046-.763.103-1.145.17a9.23 9.23 0 0 0-1.06.267c-.35.115-.653.267-.91.458a2.2 2.2 0 0 0-.624.727c-.156.29-.236.662-.236 1.113 0 .426.08.79.236 1.08.158.294.373.525.64.692.27.17.584.288.943.356.36.068.732.101 1.114.101.941 0 1.671-.158 2.188-.473.516-.314.897-.69 1.145-1.13a3.69 3.69 0 0 0 .455-1.334c.055-.45.084-.811.084-1.082Zm24.44 6.752h-4.801v-9.867c0-1.44-.225-2.515-.677-3.225-.451-.708-1.254-1.064-2.403-1.064-1.31 0-2.258.389-2.843 1.167-.587.776-.88 2.054-.88 3.834v9.155h-4.777V33.66h4.551v2.005h.101c.697-.89 1.315-1.429 2.291-1.873.99-.45 2.036-.602 3.047-.602 1.286 0 2.342.176 3.164.525.82.348 1.468.831 1.943 1.451.475.62.805 1.374.996 2.263.194.888.288 1.875.288 2.954v10.74Zm20.156.002h-4.562V49.29h-.064c-.692.937-1.44 1.403-2.363 1.785-.921.38-2.089.493-2.937.49-1.306-.006-2.454-.254-3.445-.76a6.949 6.949 0 0 1-2.447-2.062 9.365 9.365 0 0 1-1.451-2.99c-.326-1.128-.49-2.3-.49-3.518 0-1.167.164-2.301.49-3.396a8.907 8.907 0 0 1 1.453-2.889 7.247 7.247 0 0 1 2.416-2.01c.97-.505 2.093-.76 3.377-.76 1.038 0 1.99.147 2.977.585.938.41 1.563.877 2.194 1.668h.05v-8.43h4.802v24.123Zm-4.621-8.787c0-2.84-1.075-5.63-4.389-5.63-3.343 0-4.498 2.79-4.498 5.66 0 2.74 1.33 5.68 4.494 5.68 3.383 0 4.393-2.839 4.393-5.71Zm24.5 1.23H87.207c.068 1.557.464 2.683 1.185 3.382.717.7 1.752 1.049 3.105 1.049.967 0 1.8-.244 2.497-.732.7-.486 1.126-1 1.286-1.546h4.221c-.677 2.1-1.71 3.6-3.108 4.5-1.397.902-3.085 1.353-5.066 1.353-1.374 0-2.61-.218-3.715-.658-1.104-.44-2.038-1.064-2.803-1.875-.77-.811-1.359-1.78-1.779-2.906-.418-1.128-.622-2.368-.622-3.72 0-1.304.211-2.522.64-3.65a8.57 8.57 0 0 1 1.827-2.922 8.574 8.574 0 0 1 2.823-1.943c1.09-.473 2.3-.71 3.63-.71 1.485 0 2.778.288 3.882.862a7.796 7.796 0 0 1 2.72 2.317 9.504 9.504 0 0 1 1.536 3.315 12.42 12.42 0 0 1 .336 3.885Zm-4.796-3.048c-.224-1.22-.624-2.146-1.198-2.78-.573-.632-1.446-.949-2.618-.949-.763 0-1.398.132-1.906.391-.508.26-.913.58-1.216.965-.305.383-.517.79-.642 1.223a5.506 5.506 0 0 0-.22 1.15h7.8Zm12.102 10.603h-4.803v-24.11h4.803v24.11Zm18.787-5.602c0 1.152-.23 2.113-.695 2.891a5.504 5.504 0 0 1-1.805 1.875c-.743.475-1.596.807-2.552.999-.956.193-1.928.288-2.92.288-1.013 0-2.005-.1-2.974-.302-.97-.202-1.83-.54-2.583-1.013a5.751 5.751 0 0 1-1.86-1.871c-.484-.774-.75-1.746-.794-2.917h4.553c0 .514.108.958.319 1.33.215.371.492.67.83.908.337.235.729.41 1.166.52.44.113.895.168 1.37.168.336 0 .69-.038 1.064-.117.371-.079.71-.204 1.011-.374.308-.167.56-.39.76-.672.205-.282.306-.638.306-1.067 0-.72-.479-1.26-1.435-1.62-.957-.363-2.291-.723-4.001-1.084-.7-.156-1.381-.343-2.047-.558a6.915 6.915 0 0 1-1.772-.842 4.188 4.188 0 0 1-1.251-1.32c-.315-.529-.473-1.178-.473-1.945 0-1.125.22-2.049.66-2.77a4.908 4.908 0 0 1 1.74-1.708 7.701 7.701 0 0 1 2.435-.875c.901-.17 1.822-.255 2.77-.255.945 0 1.864.09 2.75.27.89.18 1.684.484 2.383.915a5.45 5.45 0 0 1 1.74 1.704c.463.712.738 1.607.83 2.69h-4.553c-.068-.927-.415-1.556-1.049-1.886-.63-.327-1.374-.492-2.233-.492-.266 0-.563.017-.88.053-.314.03-.602.107-.86.22-.259.112-.478.274-.659.49-.18.213-.272.501-.272.86 0 .428.16.78.475 1.048.314.27.725.49 1.233.66.506.171 1.086.323 1.741.457.65.136 1.315.281 1.992.442.697.156 1.378.347 2.042.574a6.671 6.671 0 0 1 1.772.894c.52.374.937.836 1.253 1.388.315.551.473 1.235.473 2.044Zm20.263-3.287c0 1.218-.16 2.388-.488 3.516-.327 1.125-.81 2.124-1.453 2.99a6.907 6.907 0 0 1-2.447 2.062c-.991.506-2.137.756-3.443.758-.846.005-2.013-.105-2.937-.486-.925-.382-1.673-.85-2.36-1.787h-.07v1.836h-4.56V27h4.803v8.431h.048c.631-.791 1.26-1.255 2.196-1.668.99-.438 1.94-.585 2.975-.585 1.284 0 2.41.255 3.377.763a7.2 7.2 0 0 1 2.418 2.009c.64.833 1.124 1.796 1.453 2.889.328 1.092.488 2.225.488 3.396Zm-4.25.135c0-2.872-1.153-5.662-4.5-5.662-3.31 0-4.386 2.79-4.386 5.629 0 2.87 1.007 5.709 4.39 5.709 3.164 0 4.497-2.942 4.497-5.676Zm22.513 8.756h-4.608c-.101-.39-.092-.402-.138-.701-.04-.28-.038-.695-.06-.985a6.296 6.296 0 0 1-2.697 1.655 10.873 10.873 0 0 1-3.173.473 8.492 8.492 0 0 1-2.328-.306 5.181 5.181 0 0 1-1.888-.947 4.367 4.367 0 0 1-1.264-1.623c-.306-.65-.456-1.43-.456-2.334 0-.99.174-1.805.521-2.45.35-.641.8-1.154 1.35-1.538a6.056 6.056 0 0 1 1.889-.862c.71-.192 1.422-.343 2.146-.458.716-.11 1.426-.2 2.123-.27.697-.066 1.315-.17 1.856-.303.538-.137.97-.332 1.281-.594.315-.257.462-.635.44-1.13 0-.519-.083-.93-.255-1.236a1.837 1.837 0 0 0-.673-.71 2.663 2.663 0 0 0-.974-.338 8.118 8.118 0 0 0-1.193-.084c-.941 0-1.68.203-2.219.611-.536.407-.85 1.089-.938 2.04h-4.804c.066-1.127.35-2.064.844-2.807a5.731 5.731 0 0 1 1.889-1.794 8.283 8.283 0 0 1 2.583-.963c.954-.191 1.915-.29 2.882-.29.877 0 1.766.064 2.665.187a8.185 8.185 0 0 1 2.464.728c.741.36 1.35.861 1.823 1.501.472.644.708 1.495.708 2.555v9.088l.004 2.265c.04.89.042.93.2 1.62Zm-5.006-6.754v-1.79a2.16 2.16 0 0 1-.758.423 7.554 7.554 0 0 1-.979.255c-.347.068-.712.123-1.094.167-.38.046-.763.103-1.144.17-.36.067-.714.158-1.062.267a3.141 3.141 0 0 0-.908.458c-.259.191-.468.435-.624.727-.156.29-.235.662-.235 1.113 0 .426.079.79.235 1.08.156.294.372.525.64.692.27.17.582.288.943.356.36.068.73.101 1.115.101.94 0 1.668-.158 2.187-.473.515-.314.897-.69 1.143-1.13.249-.437.4-.883.458-1.334.055-.45.083-.811.083-1.082Zm24.427 6.752h-4.803v-9.867c0-1.44-.227-2.515-.68-3.225-.45-.708-1.25-1.064-2.4-1.064-1.31 0-2.258.389-2.845 1.167-.585.776-.877 2.054-.877 3.834v9.155h-4.78V33.66h4.551v2.005h.101c.7-.89 1.317-1.429 2.293-1.873.99-.45 2.034-.602 3.047-.602 1.284 0 2.34.176 3.164.525.82.348 1.468.831 1.943 1.451.473.62.805 1.374.996 2.263.191.888.29 1.875.29 2.954v10.74Zm20.503.002h-5.806l-4.795-7.8-1.857 1.79v6.01h-4.802v-24.11h4.802v12.933l6.043-6.283h5.672l-6.582 6.417 7.325 11.043Zm16.843-7.556h-12.6c.07 1.556.464 2.682 1.185 3.381.72.7 1.755 1.049 3.107 1.049.967 0 1.803-.244 2.497-.732.7-.486 1.126-1 1.284-1.546h4.221c-.675 2.1-1.71 3.6-3.106 4.5-1.394.902-3.085 1.353-5.065 1.353-1.374 0-2.614-.218-3.716-.658-1.104-.44-2.04-1.064-2.805-1.875-.765-.811-1.359-1.78-1.776-2.906-.418-1.128-.627-2.368-.627-3.72 0-1.304.215-2.522.644-3.65a8.541 8.541 0 0 1 1.83-2.922 8.533 8.533 0 0 1 2.818-1.943c1.092-.473 2.306-.71 3.632-.71 1.486 0 2.78.288 3.882.862 1.104.578 2.012 1.347 2.72 2.317a9.504 9.504 0 0 1 1.536 3.315c.315 1.238.429 2.535.339 3.885Zm-4.795-3.05c-.226-1.22-.624-2.145-1.2-2.778-.574-.633-1.45-.95-2.617-.95-.765 0-1.402.132-1.91.391-.503.26-.91.58-1.214.965-.303.383-.518.79-.642 1.223a5.826 5.826 0 0 0-.222 1.15h7.805ZM240 51.125h-4.801v-9.867c0-1.44-.227-2.515-.678-3.225-.45-.708-1.253-1.064-2.403-1.064-1.31 0-2.257.389-2.842 1.167-.59.776-.88 2.054-.88 3.834v9.155h-4.777V33.66h4.551v2.005h.099c.7-.89 1.317-1.429 2.293-1.873.99-.45 2.036-.602 3.05-.602 1.283 0 2.338.176 3.16.525.82.348 1.47.831 1.944 1.451.475.62.805 1.374.998 2.263.19.888.286 1.875.286 2.954v10.74Z" fill="#FFF" fill-rule="evenodd"/></svg>