<svg xmlns="http://www.w3.org/2000/svg" width="240" height="80"><path fill="#FFF" fill-rule="evenodd" d="M20.973 51.126h-5.305V40.721H5.915v10.405H.613v-24.11h5.302v9.253h9.753v-9.254h5.305zm19.36 0h-4.604c-.103-.39-.095-.402-.139-.701-.04-.28-.04-.695-.061-.985a6.27 6.27 0 0 1-2.7 1.655q-1.55.473-3.17.473a8.5 8.5 0 0 1-2.328-.306 5.2 5.2 0 0 1-1.889-.947 4.4 4.4 0 0 1-1.264-1.623q-.455-.976-.455-2.334.001-1.484.523-2.45a4.4 4.4 0 0 1 1.348-1.538 6.1 6.1 0 0 1 1.89-.862q1.064-.287 2.144-.458 1.079-.165 2.124-.27c.699-.066 1.315-.17 1.855-.303.539-.137.968-.332 1.284-.594q.472-.386.438-1.13 0-.778-.253-1.236a1.85 1.85 0 0 0-.673-.71 2.7 2.7 0 0 0-.976-.338 8 8 0 0 0-1.192-.084q-1.41 0-2.218.611c-.536.407-.853 1.089-.94 2.04h-4.804c.066-1.127.35-2.064.844-2.807a5.74 5.74 0 0 1 1.89-1.794q1.146-.674 2.58-.963 1.432-.288 2.886-.29 1.316.001 2.664.187a8.2 8.2 0 0 1 2.463.728 4.9 4.9 0 0 1 1.822 1.501q.709.965.708 2.555v9.088l.005 2.265c.041.89.044.93.197 1.62m-5.004-6.754v-1.79a2.2 2.2 0 0 1-.757.423 8 8 0 0 1-.98.255q-.52.101-1.093.167-.571.07-1.145.17a9 9 0 0 0-1.06.267q-.525.172-.91.458a2.2 2.2 0 0 0-.624.727q-.235.436-.236 1.113c0 .426.08.79.236 1.08q.238.441.64.692.405.255.943.356.54.102 1.114.101 1.412 0 2.188-.473.773-.47 1.145-1.13a3.7 3.7 0 0 0 .455-1.334q.083-.675.084-1.082m24.44 6.752h-4.801v-9.867q0-2.16-.677-3.225-.678-1.063-2.403-1.064-1.965 0-2.843 1.167-.88 1.164-.88 3.834v9.155h-4.777V33.66h4.551v2.005h.101c.697-.89 1.315-1.429 2.291-1.873.99-.45 2.036-.602 3.047-.602q1.93 0 3.164.525 1.23.522 1.943 1.451.711.93.996 2.263.29 1.334.288 2.954zm20.156.002h-4.562V49.29h-.064c-.692.937-1.44 1.403-2.363 1.785-.921.38-2.089.493-2.937.49-1.306-.006-2.454-.254-3.445-.76a6.95 6.95 0 0 1-2.447-2.062 9.4 9.4 0 0 1-1.451-2.99q-.49-1.691-.49-3.518 0-1.752.49-3.396a8.9 8.9 0 0 1 1.453-2.889 7.25 7.25 0 0 1 2.416-2.01q1.453-.759 3.377-.76c1.038 0 1.99.147 2.977.585.938.41 1.563.877 2.194 1.668h.05v-8.43h4.802zm-4.621-8.787c0-2.84-1.075-5.63-4.389-5.63-3.343 0-4.498 2.79-4.498 5.66 0 2.74 1.33 5.68 4.494 5.68 3.383 0 4.393-2.839 4.393-5.71m24.5 1.23H87.207q.103 2.334 1.185 3.382 1.075 1.05 3.105 1.049 1.451 0 2.497-.732 1.048-.728 1.286-1.546h4.221c-.677 2.1-1.71 3.6-3.108 4.5q-2.095 1.353-5.066 1.353-2.06.001-3.715-.658-1.656-.66-2.803-1.875c-.77-.811-1.359-1.78-1.779-2.906-.418-1.128-.622-2.368-.622-3.72q-.002-1.957.64-3.65a8.6 8.6 0 0 1 1.827-2.922 8.6 8.6 0 0 1 2.823-1.943q1.635-.71 3.63-.71 2.227 0 3.882.862a7.8 7.8 0 0 1 2.72 2.317 9.5 9.5 0 0 1 1.536 3.315 12.4 12.4 0 0 1 .336 3.885m-4.796-3.048q-.337-1.83-1.198-2.78-.86-.948-2.618-.949-1.144.001-1.906.391-.762.389-1.216.965-.456.574-.642 1.223a5.5 5.5 0 0 0-.22 1.15zm12.102 10.603h-4.803v-24.11h4.803zm18.787-5.602c0 1.152-.23 2.113-.695 2.891a5.5 5.5 0 0 1-1.805 1.875q-1.116.712-2.552.999-1.433.289-2.92.288-1.52 0-2.974-.302-1.454-.303-2.583-1.013a5.75 5.75 0 0 1-1.86-1.871q-.727-1.16-.794-2.917h4.553q.001.772.319 1.33c.215.371.492.67.83.908.337.235.729.41 1.166.52q.659.169 1.37.168.504 0 1.064-.117.558-.119 1.011-.374.461-.25.76-.672.307-.423.306-1.067 0-1.08-1.435-1.62-1.436-.544-4.001-1.084-1.049-.235-2.047-.558a7 7 0 0 1-1.772-.842 4.2 4.2 0 0 1-1.251-1.32q-.473-.794-.473-1.945 0-1.688.66-2.77a4.9 4.9 0 0 1 1.74-1.708 7.7 7.7 0 0 1 2.435-.875q1.35-.255 2.77-.255t2.75.27q1.335.27 2.383.915a5.45 5.45 0 0 1 1.74 1.704q.693 1.067.83 2.69h-4.553q-.1-1.39-1.049-1.886-.945-.491-2.233-.492c-.266 0-.563.017-.88.053-.314.03-.602.107-.86.22q-.388.167-.659.49-.271.32-.272.86c0 .428.16.78.475 1.048q.471.405 1.233.66.759.256 1.741.457.976.202 1.992.442 1.046.234 2.042.574a6.7 6.7 0 0 1 1.772.894q.78.56 1.253 1.388t.473 2.044m20.263-3.287c0 1.218-.16 2.388-.488 3.516q-.49 1.69-1.453 2.99a6.9 6.9 0 0 1-2.447 2.062q-1.485.757-3.443.758c-.846.005-2.013-.105-2.937-.486-.925-.382-1.673-.85-2.36-1.787h-.07v1.836h-4.56V27h4.803v8.431h.048c.631-.791 1.26-1.255 2.196-1.668.99-.438 1.94-.585 2.975-.585q1.926 0 3.377.763a7.2 7.2 0 0 1 2.418 2.009q.96 1.25 1.453 2.889.49 1.639.488 3.396m-4.25.135c0-2.872-1.153-5.662-4.5-5.662-3.31 0-4.386 2.79-4.386 5.629 0 2.87 1.007 5.709 4.39 5.709 3.164 0 4.497-2.942 4.497-5.676m22.513 8.756h-4.608c-.101-.39-.092-.402-.138-.701-.04-.28-.038-.695-.06-.985a6.3 6.3 0 0 1-2.697 1.655 10.9 10.9 0 0 1-3.173.473 8.5 8.5 0 0 1-2.328-.306 5.2 5.2 0 0 1-1.888-.947 4.4 4.4 0 0 1-1.264-1.623q-.457-.977-.456-2.334 0-1.484.521-2.45.525-.962 1.35-1.538a6 6 0 0 1 1.889-.862c.71-.192 1.422-.343 2.146-.458q1.076-.165 2.123-.27c.697-.066 1.315-.17 1.856-.303.538-.137.97-.332 1.281-.594q.473-.386.44-1.13.002-.778-.255-1.236a1.84 1.84 0 0 0-.673-.71 2.7 2.7 0 0 0-.974-.338 8 8 0 0 0-1.193-.084q-1.411 0-2.219.611-.805.612-.938 2.04h-4.804q.101-1.692.844-2.807a5.7 5.7 0 0 1 1.889-1.794 8.3 8.3 0 0 1 2.583-.963q1.431-.288 2.882-.29 1.316.001 2.665.187a8.2 8.2 0 0 1 2.464.728q1.112.54 1.823 1.501.708.965.708 2.555v9.088l.004 2.265c.04.89.042.93.2 1.62m-5.006-6.754v-1.79a2.2 2.2 0 0 1-.758.423 8 8 0 0 1-.979.255q-.52.101-1.094.167-.571.07-1.144.17-.54.102-1.062.267a3.1 3.1 0 0 0-.908.458q-.39.288-.624.727-.235.436-.235 1.113c0 .426.079.79.235 1.08.156.294.372.525.64.692q.403.254.943.356t1.115.101q1.41 0 2.187-.473.773-.47 1.143-1.13.372-.657.458-1.334.083-.675.083-1.082m24.427 6.752h-4.803v-9.867q0-2.16-.68-3.225-.675-1.063-2.4-1.064-1.965 0-2.845 1.167-.877 1.164-.877 3.834v9.155h-4.78V33.66h4.551v2.005h.101c.7-.89 1.317-1.429 2.293-1.873.99-.45 2.034-.602 3.047-.602q1.927 0 3.164.525 1.23.522 1.943 1.451.71.93.996 2.263.288 1.334.29 2.954zm20.503.002h-5.806l-4.795-7.8-1.857 1.79v6.01h-4.802v-24.11h4.802v12.933l6.043-6.283h5.672l-6.582 6.417zm16.843-7.556h-12.6q.104 2.333 1.185 3.381 1.08 1.05 3.107 1.049c.967 0 1.803-.244 2.497-.732q1.048-.728 1.284-1.546h4.221q-1.012 3.15-3.106 4.5-2.093 1.353-5.065 1.353-2.062.001-3.716-.658-1.657-.66-2.805-1.875-1.149-1.217-1.776-2.906-.627-1.692-.627-3.72 0-1.957.644-3.65a8.5 8.5 0 0 1 1.83-2.922 8.5 8.5 0 0 1 2.818-1.943c1.092-.473 2.306-.71 3.632-.71q2.229 0 3.882.862c1.104.578 2.012 1.347 2.72 2.317a9.5 9.5 0 0 1 1.536 3.315q.473 1.858.339 3.885m-4.795-3.05q-.338-1.83-1.2-2.778c-.574-.633-1.45-.95-2.617-.95q-1.148.001-1.91.391-.756.389-1.214.965-.455.574-.642 1.223a6 6 0 0 0-.222 1.15zM240 51.125h-4.801v-9.867q0-2.16-.678-3.225-.677-1.063-2.403-1.064-1.965 0-2.842 1.167c-.59.776-.88 2.054-.88 3.834v9.155h-4.777V33.66h4.551v2.005h.099c.7-.89 1.317-1.429 2.293-1.873.99-.45 2.036-.602 3.05-.602q1.926 0 3.16.525 1.232.522 1.944 1.451.71.93.998 2.263.286 1.334.286 2.954z"/></svg>