<svg width="220" height="80" xmlns="http://www.w3.org/2000/svg"><defs><linearGradient x1="-.05%" y1="50.064%" x2="100.007%" y2="50.064%" id="a"><stop stop-color="#CA581A" offset="0%"/><stop stop-color="#6E2E2B" offset="100%"/></linearGradient><linearGradient x1="-18.006%" y1="60.743%" x2="99.789%" y2="42.163%" id="b"><stop stop-color="#FFE07D" offset="0%"/><stop stop-color="#EE7203" offset="100%"/></linearGradient><linearGradient x1="42.465%" y1="33.862%" x2="59.164%" y2="72.448%" id="c"><stop stop-color="#2D2C86" offset="0%"/><stop stop-color="#282674" offset="100%"/></linearGradient></defs><g fill="none" fill-rule="evenodd"><path d="M150.393 43.907c-.72 4.616-3.101 6.997-5.914 6.997-1.804 0-2.813-1.299-2.525-3.246l1.01-6.203c.36-2.309 1.803-4.112 4.256-4.112 2.596 0 3.895 1.876 3.173 6.564Zm-9.81 9.16c.361 0 1.299 1.588 4.328 1.588 6.348 0 10.027-4.617 11.037-10.604 1.298-7.357-2.309-10.675-6.78-10.675-2.093 0-3.68.216-4.834.793l1.732-10.098h-5.338l-5.266 30.223h3.968c0 .072.577-1.226 1.154-1.226Zm56.48-12.839c.793-4.544-.866-6.78-5.843-6.78-3.679 0-5.122 1.66-6.492 3.03l.144-2.525h-4.905l-.36 3.75-2.814 16.663h5.41l1.731-10.82c.65-3.75 3.174-6.563 5.627-6.563 2.669 0 2.669 1.514 2.236 3.895l-2.308 13.488h5.337l2.236-14.138Zm22.36-6.78h-6.275l-7.214 7.646h-.072l2.886-16.879h-5.194l-5.265 30.151h5.337l.505-3.03 1.082-6.635c2.813 0 4.4.288 5.626 5.914l.866 3.751h5.41s-1.37-5.698-2.236-7.934c-.938-2.38-1.948-3.895-4.112-4.328l8.656-8.656Zm-154.072 7.43c3.895-.866 5.915-3.968 6.42-6.06 1.37-5.626-1.082-10.026-8.296-9.954h-8.223l-5.12 29.43h5.409l2.164-11.757c4.905-.145 5.554 1.082 6.492 6.78l.865 5.05h5.554c-.649-3.03-1.082-5.916-1.586-8.224-.578-2.452-1.443-4.328-3.751-5.193l.072-.072Zm1.082-7.07c-.433 2.597-2.453 4.473-4.977 4.473h-3.174l1.659-9.305h2.885c3.39 0 4.04 2.236 3.607 4.833Zm24.164 5.555c.793-4.472-1.587-5.987-6.42-5.987-5.987 0-8.584 2.813-8.584 2.813l1.876 3.102s1.947-2.236 5.842-2.236c2.164 0 2.237 1.082 2.02 2.236l-.433 2.669c-7.718-.217-11.685 1.442-12.55 6.563-.722 4.184 2.38 6.132 5.914 6.132 1.804 0 3.246-.289 5.05-1.804.36 1.01.937 1.515 1.658 1.66 1.082.216 3.03 0 3.607-.433-.072-.65 0-2.164.65-5.915l1.37-8.8Zm-6.348 5.482c-.865 6.059-1.659 6.708-4.616 6.708-2.02 0-2.741-1.37-2.38-3.174.504-2.524 2.38-3.534 6.996-3.534Zm91.174-5.482c.793-4.472-1.587-5.987-6.42-5.987-5.987 0-8.583 2.813-8.583 2.813l1.875 3.102s1.948-2.236 5.843-2.236c2.164 0 2.236 1.082 2.02 2.236l-.433 2.669c-7.718-.217-11.686 1.442-12.551 6.563-.722 4.184 2.38 6.132 5.915 6.132 1.803 0 3.245-.289 5.049-1.804.36 1.01.937 1.515 1.659 1.66 1.082.216 3.03 0 3.606-.433-.072-.65 0-2.164.65-5.915l1.37-8.8Zm-6.348 5.482c-.865 6.059-1.659 6.708-4.616 6.708-2.02 0-2.741-1.37-2.38-3.174.432-2.524 2.308-3.534 6.996-3.534Zm-67.73 9.882c6.347 0 10.025-4.617 11.035-10.604 1.299-7.357-2.308-10.675-6.78-10.675-2.092 0-3.607.216-4.833.794l1.731-10.099h-5.337l-5.266 30.223h3.967s.577-1.226 1.154-1.226c.433-.072 1.299 1.587 4.328 1.587Zm2.235-17.384c2.741 0 3.895 1.876 3.246 6.564-.649 4.833-3.101 6.997-5.987 6.997-1.803 0-2.813-1.299-2.524-3.246l1.01-6.203c.432-2.309 1.803-4.112 4.255-4.112Zm11.036 8.44c.794-7.719 4.256-12.48 12.551-12.48 6.131 0 8.151 4.69 7.285 9.666-1.298 8.007-4.472 11.83-12.262 11.83-5.049 0-8.079-4.112-7.574-9.016Zm14.282-2.38c.361-2.093.794-6.276-2.813-6.276-2.452 0-4.76 1.659-5.77 7.501-.65 3.535.072 6.42 2.885 6.42 2.02 0 4.616-1.731 5.698-7.646Z" fill="#FFF" fill-rule="nonzero"/><path d="M36.066 50.183c.072.072.216.144.288.216-.072.072-.072.144-.144.216-.938-.144-1.876-.216-2.813-.36l-.289-.289.144-.144c.938.072 1.876.216 2.814.36Z" fill="#FFF"/><path d="M35.993 50.255c.073.072.217.144.217.144s0-.072.072-.072c-.072-.072-.216-.144-.289-.217-.937-.144-1.875-.216-2.813-.36l-.144.144s.072 0 .072.072l.072-.072c1.01.144 1.876.289 2.813.36Z" fill="#A81815"/><path d="M34.19 48.596c-.216 0-.505.072-.505.072l-.649.36c-.072.145.216.289.216.289s.794.072.794.288c.577.289 1.803.361 2.38.361-.072-.216-.144-.433-.288-.65-.072-.215-.217-.432-.289-.576 0-.072-.433-.144-1.659-.144Z" fill="#4F2644" fill-rule="nonzero" opacity=".45"/><path d="M34.334 31.954c.794.794 1.443 1.66 1.876 2.597 1.442 2.957.938 6.203-1.948 9.016-3.318 3.246-8.944 5.266-15.508 5.266-6.564 0-12.19-2.02-15.508-5.266-2.885-2.813-3.39-6.059-1.948-9.016.433-.938 1.082-1.803 1.876-2.597-.938.866-1.66 1.66-2.308 3.03-1.443 2.813-.938 6.852 2.02 9.81 3.39 3.317 8.727 5.337 15.94 5.337 7.285 0 12.551-2.092 15.797-5.338 3.174-3.173 3.318-7.357 2.02-9.882-.577-1.081-1.299-2.02-2.309-2.957Z" fill="url(#a)" fill-rule="nonzero" transform="translate(0 14.333)"/><path d="M28.997 42.897c-3.03-1.298-6.636-1.947-10.243-1.947-3.606 0-7.213.649-10.243 1.947-3.39 1.37-5.986 3.463-7.213 5.987-1.442 2.958-.937 6.203 1.948 9.017 3.318 3.245 8.944 5.265 15.508 5.265 6.564 0 12.19-2.02 15.508-5.265 2.886-2.814 3.39-6.06 1.948-9.017-1.226-2.524-3.823-4.616-7.213-5.987Z" fill="#EE7203" fill-rule="nonzero"/><path d="M19.331 30.007c-.577-1.227-.505-2.38-.36-3.318h-.217c-3.606 0-7.213.649-10.243 1.947-3.39 1.37-5.986 3.462-7.213 5.987-1.442 2.957-.937 6.203 1.948 9.016.216.217.433.361.65.577 12.19-.793 18.537-7.934 15.435-14.21Z" fill="url(#b)" fill-rule="nonzero" transform="translate(0 14.333)"/><path d="M10.892 44.556c2.236.577 4.4 1.227 6.636 2.092.433-1.298.865-2.597 1.442-3.895.505 1.298 1.01 2.597 1.443 3.895a68.985 68.985 0 0 1 6.564-2.02 49.874 49.874 0 0 0-4.472 3.174c3.03.36 5.77.866 8.728 1.515-2.958-.072-5.699.072-8.656.216 2.092 1.731 3.823 3.463 5.77 5.338-2.668-1.515-5.12-2.74-7.862-4.04l-1.515 6.925c-.504-2.308-.937-4.472-1.442-6.78-2.741 1.298-5.266 2.525-8.007 3.967a138.682 138.682 0 0 1 5.843-5.338c-2.957-.216-5.77-.216-8.728-.288a91.113 91.113 0 0 1 8.872-1.515c-1.587-1.226-3.03-2.308-4.616-3.246Zm8.006 3.967v-5.049a97.06 97.06 0 0 0-1.37 4.256c.505.289.938.577 1.37.793Zm-6.708-3.462c1.803.794 3.607 1.731 5.338 2.67-.433.071-.866.071-1.298.143-1.299-.937-2.597-1.947-4.04-2.813Zm6.708 3.462c3.463 0 6.997.145 10.46.505-3.03-.577-5.988-.937-9.09-1.298-.432.289-.865.577-1.37.793Zm6.78-3.462c-1.803.794-3.606 1.731-5.337 2.67-.072-.217-.144-.506-.216-.722a72.197 72.197 0 0 1 5.554-1.948Zm-6.924 3.462c.072 2.453.144 5.05.216 7.43.433-2.164.938-4.4 1.443-6.564-.505-.288-1.154-.577-1.659-.866Zm7.862 5.05c-2.02-1.443-4.111-2.886-6.275-4.184.433 0 .866-.072 1.298-.072a96.23 96.23 0 0 1 4.977 4.256Zm-7.718-5.05c-3.534.073-6.275.217-9.737.505 2.957 0 5.265.145 8.295.361.505-.288 1.01-.577 1.442-.866Zm-7.646 5.05c2.02-1.443 4.112-2.886 6.276-4.184.072.289.144.577.216.794-2.236 1.081-4.4 2.236-6.492 3.39Z" fill="#FFF"/><path d="M18.898 42.825c.505 1.298 1.01 2.597 1.443 3.895a49.534 49.534 0 0 1 6.348-1.947c.072-.072.144-.072.216-.145a68.985 68.985 0 0 0-6.564 2.02c-.433-1.298-.866-2.597-1.443-3.895-.505 1.298-1.01 2.597-1.442 3.895-2.164-.793-4.328-1.515-6.636-2.092.072.072.144.072.216.145a73.173 73.173 0 0 1 6.42 2.02c.505-1.371.937-2.67 1.442-3.896Z" fill="#C51A1B"/><path d="M15.292 49.533a134.572 134.572 0 0 0-5.843 5.338.547.547 0 0 1 .289-.144 181.68 181.68 0 0 1 5.482-5.05v-.144h.072Z" fill="#C8411B"/><path d="M18.898 48.523v.073-.073ZM18.826 48.596c-.505.288-.937.577-1.37.793v.072c.433-.288.937-.577 1.37-.865v-.073c.072.073.072.073 0 .073Z" fill="#C00D0D"/><path d="M17.528 47.73h-.144c-.361.072-.794.072-1.154.144a50.633 50.633 0 0 0-4.04-2.813v.072a50.633 50.633 0 0 1 4.04 2.813c.432-.072.865-.072 1.298-.144.433.217.793.433 1.226.721h.144a13.399 13.399 0 0 1-1.37-.793ZM11.252 53.717c2.092-1.226 4.256-2.308 6.492-3.39v-.144c-2.164 1.081-4.328 2.163-6.492 3.39v.144Z" fill="#C8411B"/><path d="M20.341 49.39c-.505 2.163-1.01 4.4-1.443 6.563v.072c.433-2.164.938-4.4 1.443-6.564 1.443.866 3.607 2.308 6.275 4.256v-.144c-2.02-1.443-4.111-2.886-6.275-4.184ZM22.65 49.605l-.073-.072v.145c2.02 1.659 3.607 3.173 5.482 5.049a.547.547 0 0 0 .289.144 94.698 94.698 0 0 0-5.699-5.266Z" fill="#A81815"/><path d="M15.292 47.802c-2.958.36-5.843.866-8.8 1.515h.433c2.813-.577 5.554-1.082 8.367-1.443v-.072ZM17.528 49.39c-2.741-.217-5.482-.362-8.295-.362v.073c2.74 0 5.41.144 8.15.36.073 0 .073 0 .145-.072" fill="#C8411B"/><path d="M22.433 47.73c3.03.36 5.77.866 8.728 1.515h-.505c-2.813-.577-5.41-1.01-8.223-1.37v-.145Z" fill="#A81815"/><path d="M18.898 48.523c3.463 0 6.997.145 10.46.505v.073c-3.463-.361-6.853-.505-10.315-.505 0 0-.073 0-.073-.073 0 .073 0 .073-.072 0h.145M20.341 47.73h.144a58.097 58.097 0 0 1 5.194-2.597v-.072c-1.876.794-3.607 1.731-5.338 2.67" fill="#A81815"/><path d="M20.341 47.73c-.072-.216-.144-.505-.216-.721v.072l.216.65" fill="#C00D0D"/><path d="M19.259 62.517c-.072.072-.216.144-.36.216-.073-.072-.217-.144-.361-.216v-2.885c.072-.072.216-.145.36-.217.072.072.217.145.361.217v2.885ZM2.308 55.592a.547.547 0 0 0-.144.289c.072.072.288.072.36.144 1.01-.505 2.02-1.082 2.958-1.587.072-.144.072-.216.072-.36-.072 0-.216-.073-.288-.073-.938.505-1.948 1.082-2.958 1.587ZM1.587 49.75c-.072.072-.217.144-.289.216.072.072.072.144.145.217.937-.145 1.875-.217 2.813-.361l.288-.289-.144-.144c-.938.072-1.875.216-2.813.36ZM5.193 44.99c-.072.071-.216.071-.288.143v.217c.721.072 1.37.216 2.092.36a.547.547 0 0 1 .288-.144v-.144c-.721-.217-1.442-.289-2.092-.433ZM26.184 42.104h.288l.072.072c-.36.216-.721.433-1.082.721h-.288c0-.072-.072-.072-.072-.144l1.082-.65ZM18.682 41.094c.072 0 .144-.072.216-.072.072 0 .145.072.217.072v.866c-.072 0-.145.072-.217.072-.072 0-.144-.072-.216-.072v-.866ZM11.18 42.248s.145-.072.145-.144h.288c.36.216.721.433 1.082.721 0 .072-.072.072-.072.144h-.289a26.84 26.84 0 0 0-1.154-.72ZM9.016 60.714c-.144 0-.288 0-.432.072a.547.547 0 0 0-.145-.289c.722-.865 1.37-1.659 2.092-2.452.144 0 .289-.072.433-.072 0 .072.072.216.144.288a63.111 63.111 0 0 0-2.092 2.453ZM35.272 55.592a.547.547 0 0 1 .144.289c-.072.072-.288.072-.36.144-1.01-.505-2.02-1.082-2.958-1.587-.072-.144-.072-.216-.072-.36.072 0 .217-.073.289-.073 1.01.505 2.02 1.082 2.957 1.587ZM32.459 44.99c.072.071.216.071.289.143v.217c-.722.072-1.371.216-2.092.36a.547.547 0 0 0-.289-.144c0-.072 0-.144.072-.144.65-.217 1.299-.289 2.02-.433ZM28.636 60.714c.144 0 .289.072.433.072.072-.072.072-.217.144-.289-.721-.865-1.37-1.659-2.092-2.452-.144 0-.288-.072-.432-.072a.547.547 0 0 1-.145.288 63.112 63.112 0 0 1 2.092 2.453Z" fill="#FFF"/><path d="M2.308 55.737c0 .072-.072.144-.072.144h-.072a.547.547 0 0 0 .144-.289 111.9 111.9 0 0 0 2.958-1.514c.072 0 .216.072.288.072 0 .072-.072.144-.072.144-.072 0-.216-.072-.289-.072-.865.505-1.875 1.01-2.885 1.515ZM1.659 49.894a1.038 1.038 0 0 1-.216.144s0-.072-.073-.072c.073-.072.217-.144.289-.216.938-.145 1.875-.217 2.813-.36l.144.143-.072.072-.072-.072c-1.01.072-1.875.217-2.813.361ZM4.905 45.278v-.145c.072-.072.216-.072.288-.144.722.072 1.37.216 2.02.36v.145s-1.37-.289-2.092-.36c0 .071-.144.071-.216.144Z" fill="#CA581A"/><path d="M26.4 42.248c.072 0 .072 0 0 0 .072 0 .072 0 .072-.072l-.072-.072h-.289c-.36.216-.72.433-1.081.721l.072.072c.36-.216.649-.433 1.01-.649h.288Z" fill="#A81815"/><path d="M18.682 41.238c.072 0 .144-.072.216-.072.072 0 .145.072.217.072v-.144c-.072 0-.145-.072-.217-.072-.072 0-.144.072-.216.072v.144Z" fill="#B6110E"/><path d="M11.613 42.248c.36.216.65.433 1.01.65l.072-.073c-.36-.216-.721-.505-1.082-.721h-.288s-.145.072-.145.144l.072.072.073-.072h.288Z" fill="#C8411B"/><path d="M10.964 58.045c.072.072.072.144.144.216l.072-.072a.547.547 0 0 0-.144-.288c-.144 0-.288.072-.433.072a63.112 63.112 0 0 0-2.092 2.452c0 .072.073.072.073.144.432-.505 1.442-1.659 2.091-2.524 0 .072.145.072.289 0ZM35.272 55.737c0 .072.072.144.072.144h.072a.547.547 0 0 1-.144-.289 111.9 111.9 0 0 1-2.957-1.514c-.072 0-.217.072-.289.072 0 .072.072.144.072.144.072 0 .217-.072.289-.072.938.505 1.947 1.01 2.885 1.515ZM32.748 45.278v-.145c-.073-.072-.217-.072-.289-.144-.721.072-1.37.216-2.02.36 0 .073 0 .145-.072.145 0 0 1.37-.289 2.092-.36.072.071.216.071.289.144ZM26.689 58.045c-.073.072-.073.144-.145.216l-.072-.072c0-.072.072-.216.144-.288.145 0 .289.072.433.072a63.112 63.112 0 0 1 2.092 2.452c0 .072 0 .072-.072.144-.433-.505-1.443-1.659-2.092-2.524 0 .072-.144.072-.288 0ZM19.187 59.704l.072 2.74V59.56c-.072-.073-.216-.145-.36-.217-.073.072-.217.144-.361.217v2.885l.072-2.741a.547.547 0 0 1 .288-.144c.145.072.217.144.289.144Z" fill="#A81815"/><path d="M5.121 49.461c1.227-5.554 8.945-7.213 13.777-7.213 4.833 0 12.551 1.66 13.777 7.213 1.515 6.925-8.727 9.45-13.777 9.45-5.049 0-15.364-2.597-13.777-9.45Zm.505-.072c1.154-5.338 8.584-6.925 13.272-6.925 4.617 0 12.118 1.587 13.272 6.925 1.443 6.636-8.439 9.089-13.272 9.089-4.832 0-14.714-2.453-13.272-9.089Z" fill="#C8411B"/><path d="M5.121 49.605c1.227-5.554 8.584-7.213 13.777-7.213 5.122 0 12.551 1.66 13.777 7.213 1.515 6.925-8.8 9.45-13.777 9.45-4.977 0-15.291-2.525-13.777-9.45Zm.505-.072c1.154-5.337 8.584-6.924 13.272-6.924 4.617 0 12.118 1.587 13.272 6.924 1.443 6.636-8.439 9.089-13.272 9.089-4.76 0-14.714-2.453-13.272-9.089Z" fill="#FFF"/><path d="m35.344 50.76-2.236-.361-.288-.072c-.361-.072-1.082-.505-1.443-.938-.36-.505-1.082-1.37-1.515-1.875-.577-.722-1.875-1.37-2.092-1.66-.216-.288-.504-.793-.577-1.01-.072-.216-.288-.36-.649-.36-.36 0-.36.144-.649.144-.288 0-.721-.072-.721-.072-.144-.072-.289-.072-.433-.072-.144.289-.433.505-1.154.505h-.144c.072.144.72.216.793.216.072 0 .721.145.794.217.288.072.216-.072.649.216.721.433 1.803 1.587 2.02 2.525.144.577 1.081 1.442 1.153 1.947-1.226-.072-2.957-.937-2.957-.937l-.216-.072s-.722-.361-1.876-.433c-2.164-.217-2.957-.505-3.173-.577-.433-.145-.361-.217-.722-.217h-.216c-.072.072-.072.145-.217.217-.432.36-.649.649-1.01 1.226-.072.144-.216.216-.432.288a17.059 17.059 0 0 0 1.226-.288c.793-.072 1.948.216 1.948.216.432.072 1.154.361 1.154.361s3.101.938 3.823 1.515c.505.36 3.03 1.298 3.75 1.587.65.216 2.309 1.154 2.309 1.154.432.36 2.885 1.442 3.606 1.659.866-1.515 1.154-3.102.938-4.617l-1.443-.432ZM29.574 55.737s-.144-.217-.938-.217c-.505 0 .216 1.154.216 1.154.433.289 2.092.794 2.38.794.361.072 1.443.36 1.443.36s.577.073 1.227.289c.072-.072.216-.144.288-.289.36-.36.65-.72.938-1.082-1.37 0-3.318-.072-4.76-.793-.073-.36-.794-.216-.794-.216Z" fill="#4F2644" fill-rule="nonzero" opacity=".45"/><path d="m25.462 34.242-.432-.433c0-.145.144-.36.144-.577-.072 0-.072-.072-.144-.072-.145-.433-.217-1.155 0-1.587.072-.217.216-.433.144-.722-.36-1.298-1.154-2.38-1.66-3.606-.144-.36-.144-.577-.144-.938-.432-.433-.865-1.587-1.081-2.308-.505 1.226-.794 2.597-.794 2.885 0 1.37 1.37 2.02.866 4.256-.072.433-.289 1.01-.433 1.659.288 1.587.288 2.669.721 4.472.577.577 1.082 1.298 1.299 2.236.144.577.649 1.948 1.298 2.164.36.144-1.298.433-1.803-.144-.433-.577-1.299-1.082-1.66-1.66-.288-.504-.793-1.514-1.081-2.019l-.361 1.948c.505 2.02.216 2.524-.216 4.183-.217.722-1.66-2.669-1.66-2.885 0-.721-.072-1.01-.216-1.659-.288-.577-.288-1.443-.216-2.092.072-1.082.072-3.101.072-3.606-.36-.866-1.298-2.525-1.37-3.463-.145-1.442.072-2.885-.073-4.255-.216.72-.505 1.586-1.082 2.164-.793.793-1.587 1.73-2.308 2.596-.288.36 0 .577-.433 1.154-.432.577-.216.289-.288.866 0 .072-.072.144-.072.216-.217.072-.433.217-.794.072-.577-.288-.649-.793-.721-1.37-.072-1.082.721-1.154 1.226-1.803.938-1.299 1.37-3.535 2.38-4.545.073-.216.289-.937.722-1.947 0-1.299.36-2.453 1.659-3.03.577-.216 1.298-.288 1.298-1.01 0-.072 0-.36-.072-.432a4.138 4.138 0 0 0-.505-.289c-.144-.288-.36-2.092-.36-2.164.288-1.514 1.081-2.02 1.947-2.02 1.154.073 2.02.578 2.02 2.02-.072 1.154-1.299 2.741.577 3.318.721.217.865.072 1.442.65.65.649.866 1.875.938 3.029l.721 1.587c1.227 2.092.794 2.813 1.299 4.977.144.577.36 1.082.36 2.308-.072.505-.505 1.803-1.154 1.876Z" fill="#FAB650" fill-rule="nonzero"/><path d="M12.334 18.321c.073-.577 0-.505.361-1.01.36-.504.144-.72.505-1.154a39.786 39.786 0 0 1 2.236-2.668c.577-.578 1.298-2.453 1.443-3.102 0-.072.072-.144.144-.072.144 1.226.288 2.308.216 3.534-.072 2.597 0 2.308 1.082 4.76.072-.937.289-2.38.866-2.884-.65 2.524-.721 6.13-.794 7.213 0 .577-.216 1.442.073 1.947.072.36.072.866.072 1.299v4.4l-.361 1.875c-.144.577-.866 1.515-1.37 1.803-.145.072-.577.289-.577.505 0 .289 1.947.866 2.452.217.36-.505.65-.794 1.01-1.227.649-.577-.072-1.226 0-2.02.144-1.37.721-2.596.938-3.967.144-.793.072-1.514-.289-2.38l.289-2.524c.288.432.577 1.154.865 1.73.505 1.01.505 1.155 1.37 1.948.29.289.578.65.794.938.433.65.65 1.298.65 2.02-.29.505-.434.505-.794.793 0 0-.072.289.288.289 1.299 0 1.154-.65 1.587-1.515.289-.577 1.226-1.443.217-1.731-.289-.072-.577-.289-.794-.577-.65-1.154-.721-1.082-1.082-2.164-.216-.65-.649-1.154-1.154-1.587A9.306 9.306 0 0 1 22 20.99c-.144-1.01-.216-1.803-.433-2.813.505-1.947.722-2.38-.072-4.328-.216-.433-.288-.938-.288-1.442 0-.65.36-2.092.72-2.814.145-.288.29-.577.506-.649.216.794.937 2.38 1.298 2.741 0 .289 0 .65.144.938.505 1.226 1.299 2.38 1.66 3.679.144.432-.073.649-.145 1.01-.072.144-.072.649 0 1.081l.144.073c0 .144-.144.432-.144.577 0 .144.217.288.217.288.288-.072.72-1.082.649-1.515-.072-1.298-.289-1.803-.36-2.236-.434-2.164-.145-2.74-1.371-4.832l-.722-1.515c-.072-.866-.433-2.813-1.514-3.174-.217-.072-.361-.072-.65-.144-1.442-.505-1.442-1.587-1.082-2.813.361-1.082.361-2.38-1.226-2.453-1.01-.072-1.298.721-1.515 1.587 0 .072.073 1.515.289 1.875.433.289.65.217.65 1.01 0 .65-.434 1.082-1.01 1.227-.938.36-1.371.504-1.732 1.442-.072.289-.216.721-.216 1.37v.073c-.289.649-.577 1.442-.794 2.092-1.154 1.154-1.73 3.75-2.885 4.832-.793.722-1.01.794-.721 1.876 0 .144.36.433.505.433.072.072.432-.145.432-.145Z" fill="url(#c)" fill-rule="nonzero" transform="translate(0 14.333)"/></g></svg>